G04 #@! TF.GenerationSoftware,KiCad,Pcbnew,(5.1.8)-1*
G04 #@! TF.CreationDate,2022-02-21T01:44:32+01:00*
G04 #@! TF.ProjectId,BulkyMIDI-32 Amiga,42756c6b-794d-4494-9449-2d333220416d,rev?*
G04 #@! TF.SameCoordinates,Original*
G04 #@! TF.FileFunction,Copper,L2,Bot*
G04 #@! TF.FilePolarity,Positive*
%FSLAX46Y46*%
G04 Gerber Fmt 4.6, Leading zero omitted, Abs format (unit mm)*
G04 Created by KiCad (PCBNEW (5.1.8)-1) date 2022-02-21 01:44:32*
%MOMM*%
%LPD*%
G01*
G04 APERTURE LIST*
G04 #@! TA.AperFunction,WasherPad*
%ADD10C,5.000000*%
G04 #@! TD*
G04 #@! TA.AperFunction,ComponentPad*
%ADD11C,1.600000*%
G04 #@! TD*
G04 #@! TA.AperFunction,ComponentPad*
%ADD12R,1.600000X1.600000*%
G04 #@! TD*
G04 #@! TA.AperFunction,ComponentPad*
%ADD13O,1.800000X2.400000*%
G04 #@! TD*
G04 #@! TA.AperFunction,WasherPad*
%ADD14O,2.400000X1.800000*%
G04 #@! TD*
G04 #@! TA.AperFunction,ComponentPad*
%ADD15O,1.600000X1.600000*%
G04 #@! TD*
G04 #@! TA.AperFunction,ComponentPad*
%ADD16R,1.600000X2.400000*%
G04 #@! TD*
G04 #@! TA.AperFunction,ComponentPad*
%ADD17O,1.600000X2.400000*%
G04 #@! TD*
G04 #@! TA.AperFunction,WasherPad*
%ADD18C,3.500000*%
G04 #@! TD*
G04 #@! TA.AperFunction,ComponentPad*
%ADD19R,2.000000X1.905000*%
G04 #@! TD*
G04 #@! TA.AperFunction,ComponentPad*
%ADD20O,2.000000X1.905000*%
G04 #@! TD*
G04 #@! TA.AperFunction,Conductor*
%ADD21C,0.254000*%
G04 #@! TD*
G04 #@! TA.AperFunction,Conductor*
%ADD22C,0.100000*%
G04 #@! TD*
G04 APERTURE END LIST*
D10*
X141660000Y-126515000D03*
X94560000Y-126515000D03*
D11*
X102875000Y-127935000D03*
X105645000Y-127935000D03*
X108415000Y-127935000D03*
X111185000Y-127935000D03*
X113955000Y-127935000D03*
X116725000Y-127935000D03*
X119495000Y-127935000D03*
X122265000Y-127935000D03*
X125035000Y-127935000D03*
X127805000Y-127935000D03*
X130575000Y-127935000D03*
X133345000Y-127935000D03*
X101490000Y-125095000D03*
X104260000Y-125095000D03*
X107030000Y-125095000D03*
X109800000Y-125095000D03*
X112570000Y-125095000D03*
X115340000Y-125095000D03*
X118110000Y-125095000D03*
X120880000Y-125095000D03*
X123650000Y-125095000D03*
X126420000Y-125095000D03*
X129190000Y-125095000D03*
X131960000Y-125095000D03*
D12*
X134730000Y-125095000D03*
D13*
X107950000Y-79756000D03*
D14*
X102950000Y-69756000D03*
X112950000Y-69756000D03*
D13*
X100450000Y-79756000D03*
X115450000Y-79756000D03*
X102950000Y-82256000D03*
X112950000Y-82256000D03*
X128270000Y-79756000D03*
D14*
X123270000Y-69756000D03*
X133270000Y-69756000D03*
D13*
X120770000Y-79756000D03*
X135770000Y-79756000D03*
X123270000Y-82256000D03*
X133270000Y-82256000D03*
D12*
X102539800Y-99771200D03*
D15*
X110159800Y-99771200D03*
X112903000Y-102108000D03*
D11*
X123063000Y-102108000D03*
X128143000Y-102108000D03*
D15*
X138303000Y-102108000D03*
X136652000Y-98577400D03*
D11*
X136652000Y-88417400D03*
X95885000Y-98577400D03*
D15*
X95885000Y-88417400D03*
D16*
X102616000Y-96520000D03*
D17*
X110236000Y-88900000D03*
X105156000Y-96520000D03*
X107696000Y-88900000D03*
X107696000Y-96520000D03*
X105156000Y-88900000D03*
X110236000Y-96520000D03*
X102616000Y-88900000D03*
D16*
X117221000Y-96520000D03*
D17*
X132461000Y-88900000D03*
X119761000Y-96520000D03*
X129921000Y-88900000D03*
X122301000Y-96520000D03*
X127381000Y-88900000D03*
X124841000Y-96520000D03*
X124841000Y-88900000D03*
X127381000Y-96520000D03*
X122301000Y-88900000D03*
X129921000Y-96520000D03*
X119761000Y-88900000D03*
X132461000Y-96520000D03*
X117221000Y-88900000D03*
D11*
X99441000Y-90170000D03*
X99441000Y-95170000D03*
X114046000Y-95170000D03*
X114046000Y-90170000D03*
D18*
X94560000Y-73406000D03*
X141660000Y-73406000D03*
D11*
X93980000Y-107315000D03*
X93980000Y-102315000D03*
X119253000Y-112315000D03*
X119253000Y-107315000D03*
X93980000Y-117395000D03*
X93980000Y-112395000D03*
X115459500Y-117221000D03*
X120459500Y-117221000D03*
X138303000Y-117221000D03*
X143303000Y-117221000D03*
X130683000Y-117221000D03*
X135683000Y-117221000D03*
X128063000Y-117221000D03*
X123063000Y-117221000D03*
D16*
X123063000Y-113665000D03*
D17*
X140843000Y-106045000D03*
X125603000Y-113665000D03*
X138303000Y-106045000D03*
X128143000Y-113665000D03*
X135763000Y-106045000D03*
X130683000Y-113665000D03*
X133223000Y-106045000D03*
X133223000Y-113665000D03*
X130683000Y-106045000D03*
X135763000Y-113665000D03*
X128143000Y-106045000D03*
X138303000Y-113665000D03*
X125603000Y-106045000D03*
X140843000Y-113665000D03*
X123063000Y-106045000D03*
D19*
X97155000Y-107315000D03*
D20*
X97155000Y-109855000D03*
X97155000Y-112395000D03*
D21*
X143609109Y-67780005D02*
X143713101Y-67811402D01*
X143809014Y-67862399D01*
X143893194Y-67931055D01*
X143962440Y-68014758D01*
X144014105Y-68110311D01*
X144046227Y-68214078D01*
X144061001Y-68354650D01*
X144061000Y-116040517D01*
X144044514Y-115984329D01*
X143789004Y-115863429D01*
X143514816Y-115794700D01*
X143232488Y-115780783D01*
X142952870Y-115822213D01*
X142686708Y-115917397D01*
X142561486Y-115984329D01*
X142489903Y-116228298D01*
X143303000Y-117041395D01*
X143317143Y-117027253D01*
X143496748Y-117206858D01*
X143482605Y-117221000D01*
X143496748Y-117235143D01*
X143317143Y-117414748D01*
X143303000Y-117400605D01*
X142489903Y-118213702D01*
X142561486Y-118457671D01*
X142816996Y-118578571D01*
X143091184Y-118647300D01*
X143373512Y-118661217D01*
X143653130Y-118619787D01*
X143919292Y-118524603D01*
X144044514Y-118457671D01*
X144061000Y-118401483D01*
X144061000Y-124482440D01*
X143658446Y-124079886D01*
X143144979Y-123736799D01*
X142574446Y-123500476D01*
X141968771Y-123380000D01*
X141351229Y-123380000D01*
X140745554Y-123500476D01*
X140175021Y-123736799D01*
X139661554Y-124079886D01*
X139224886Y-124516554D01*
X138881799Y-125030021D01*
X138645476Y-125600554D01*
X138525000Y-126206229D01*
X138525000Y-126823771D01*
X138645476Y-127429446D01*
X138881799Y-127999979D01*
X139224886Y-128513446D01*
X139661554Y-128950114D01*
X140175021Y-129293201D01*
X140745554Y-129529524D01*
X141351229Y-129650000D01*
X141968771Y-129650000D01*
X142574446Y-129529524D01*
X143144979Y-129293201D01*
X143658446Y-128950114D01*
X144061000Y-128547560D01*
X144061000Y-131786480D01*
X144046995Y-131929309D01*
X144015599Y-132033299D01*
X143964601Y-132129213D01*
X143895941Y-132213399D01*
X143812243Y-132282639D01*
X143716689Y-132334305D01*
X143612922Y-132366427D01*
X143472359Y-132381200D01*
X92753720Y-132381200D01*
X92610891Y-132367195D01*
X92506901Y-132335799D01*
X92410987Y-132284801D01*
X92326801Y-132216141D01*
X92257561Y-132132443D01*
X92205895Y-132036889D01*
X92173773Y-131933122D01*
X92159000Y-131792559D01*
X92159000Y-128547560D01*
X92561554Y-128950114D01*
X93075021Y-129293201D01*
X93645554Y-129529524D01*
X94251229Y-129650000D01*
X94868771Y-129650000D01*
X95474446Y-129529524D01*
X96044979Y-129293201D01*
X96558446Y-128950114D01*
X96995114Y-128513446D01*
X97338201Y-127999979D01*
X97423659Y-127793665D01*
X101440000Y-127793665D01*
X101440000Y-128076335D01*
X101495147Y-128353574D01*
X101603320Y-128614727D01*
X101760363Y-128849759D01*
X101960241Y-129049637D01*
X102195273Y-129206680D01*
X102456426Y-129314853D01*
X102733665Y-129370000D01*
X103016335Y-129370000D01*
X103293574Y-129314853D01*
X103554727Y-129206680D01*
X103789759Y-129049637D01*
X103989637Y-128849759D01*
X104146680Y-128614727D01*
X104254853Y-128353574D01*
X104260000Y-128327699D01*
X104265147Y-128353574D01*
X104373320Y-128614727D01*
X104530363Y-128849759D01*
X104730241Y-129049637D01*
X104965273Y-129206680D01*
X105226426Y-129314853D01*
X105503665Y-129370000D01*
X105786335Y-129370000D01*
X106063574Y-129314853D01*
X106324727Y-129206680D01*
X106559759Y-129049637D01*
X106759637Y-128849759D01*
X106916680Y-128614727D01*
X107024853Y-128353574D01*
X107030000Y-128327699D01*
X107035147Y-128353574D01*
X107143320Y-128614727D01*
X107300363Y-128849759D01*
X107500241Y-129049637D01*
X107735273Y-129206680D01*
X107996426Y-129314853D01*
X108273665Y-129370000D01*
X108556335Y-129370000D01*
X108833574Y-129314853D01*
X109094727Y-129206680D01*
X109329759Y-129049637D01*
X109529637Y-128849759D01*
X109686680Y-128614727D01*
X109794853Y-128353574D01*
X109800000Y-128327699D01*
X109805147Y-128353574D01*
X109913320Y-128614727D01*
X110070363Y-128849759D01*
X110270241Y-129049637D01*
X110505273Y-129206680D01*
X110766426Y-129314853D01*
X111043665Y-129370000D01*
X111326335Y-129370000D01*
X111603574Y-129314853D01*
X111864727Y-129206680D01*
X112099759Y-129049637D01*
X112299637Y-128849759D01*
X112456680Y-128614727D01*
X112564853Y-128353574D01*
X112570000Y-128327699D01*
X112575147Y-128353574D01*
X112683320Y-128614727D01*
X112840363Y-128849759D01*
X113040241Y-129049637D01*
X113275273Y-129206680D01*
X113536426Y-129314853D01*
X113813665Y-129370000D01*
X114096335Y-129370000D01*
X114373574Y-129314853D01*
X114634727Y-129206680D01*
X114869759Y-129049637D01*
X115069637Y-128849759D01*
X115226680Y-128614727D01*
X115334853Y-128353574D01*
X115340000Y-128327699D01*
X115345147Y-128353574D01*
X115453320Y-128614727D01*
X115610363Y-128849759D01*
X115810241Y-129049637D01*
X116045273Y-129206680D01*
X116306426Y-129314853D01*
X116583665Y-129370000D01*
X116866335Y-129370000D01*
X117143574Y-129314853D01*
X117404727Y-129206680D01*
X117639759Y-129049637D01*
X117839637Y-128849759D01*
X117996680Y-128614727D01*
X118104853Y-128353574D01*
X118110000Y-128327699D01*
X118115147Y-128353574D01*
X118223320Y-128614727D01*
X118380363Y-128849759D01*
X118580241Y-129049637D01*
X118815273Y-129206680D01*
X119076426Y-129314853D01*
X119353665Y-129370000D01*
X119636335Y-129370000D01*
X119913574Y-129314853D01*
X120174727Y-129206680D01*
X120409759Y-129049637D01*
X120609637Y-128849759D01*
X120766680Y-128614727D01*
X120874853Y-128353574D01*
X120880000Y-128327699D01*
X120885147Y-128353574D01*
X120993320Y-128614727D01*
X121150363Y-128849759D01*
X121350241Y-129049637D01*
X121585273Y-129206680D01*
X121846426Y-129314853D01*
X122123665Y-129370000D01*
X122406335Y-129370000D01*
X122683574Y-129314853D01*
X122944727Y-129206680D01*
X123179759Y-129049637D01*
X123379637Y-128849759D01*
X123536680Y-128614727D01*
X123644853Y-128353574D01*
X123650000Y-128327699D01*
X123655147Y-128353574D01*
X123763320Y-128614727D01*
X123920363Y-128849759D01*
X124120241Y-129049637D01*
X124355273Y-129206680D01*
X124616426Y-129314853D01*
X124893665Y-129370000D01*
X125176335Y-129370000D01*
X125453574Y-129314853D01*
X125714727Y-129206680D01*
X125949759Y-129049637D01*
X126149637Y-128849759D01*
X126306680Y-128614727D01*
X126414853Y-128353574D01*
X126420000Y-128327699D01*
X126425147Y-128353574D01*
X126533320Y-128614727D01*
X126690363Y-128849759D01*
X126890241Y-129049637D01*
X127125273Y-129206680D01*
X127386426Y-129314853D01*
X127663665Y-129370000D01*
X127946335Y-129370000D01*
X128223574Y-129314853D01*
X128484727Y-129206680D01*
X128719759Y-129049637D01*
X128919637Y-128849759D01*
X129076680Y-128614727D01*
X129184853Y-128353574D01*
X129190000Y-128327699D01*
X129195147Y-128353574D01*
X129303320Y-128614727D01*
X129460363Y-128849759D01*
X129660241Y-129049637D01*
X129895273Y-129206680D01*
X130156426Y-129314853D01*
X130433665Y-129370000D01*
X130716335Y-129370000D01*
X130993574Y-129314853D01*
X131254727Y-129206680D01*
X131489759Y-129049637D01*
X131689637Y-128849759D01*
X131846680Y-128614727D01*
X131954853Y-128353574D01*
X131960000Y-128327699D01*
X131965147Y-128353574D01*
X132073320Y-128614727D01*
X132230363Y-128849759D01*
X132430241Y-129049637D01*
X132665273Y-129206680D01*
X132926426Y-129314853D01*
X133203665Y-129370000D01*
X133486335Y-129370000D01*
X133763574Y-129314853D01*
X134024727Y-129206680D01*
X134259759Y-129049637D01*
X134459637Y-128849759D01*
X134616680Y-128614727D01*
X134724853Y-128353574D01*
X134780000Y-128076335D01*
X134780000Y-127793665D01*
X134724853Y-127516426D01*
X134616680Y-127255273D01*
X134459637Y-127020241D01*
X134259759Y-126820363D01*
X134024727Y-126663320D01*
X133763574Y-126555147D01*
X133486335Y-126500000D01*
X133203665Y-126500000D01*
X132926426Y-126555147D01*
X132665273Y-126663320D01*
X132430241Y-126820363D01*
X132230363Y-127020241D01*
X132073320Y-127255273D01*
X131965147Y-127516426D01*
X131960000Y-127542301D01*
X131954853Y-127516426D01*
X131846680Y-127255273D01*
X131689637Y-127020241D01*
X131489759Y-126820363D01*
X131254727Y-126663320D01*
X130993574Y-126555147D01*
X130716335Y-126500000D01*
X130433665Y-126500000D01*
X130156426Y-126555147D01*
X129895273Y-126663320D01*
X129660241Y-126820363D01*
X129460363Y-127020241D01*
X129303320Y-127255273D01*
X129195147Y-127516426D01*
X129190000Y-127542301D01*
X129184853Y-127516426D01*
X129076680Y-127255273D01*
X128919637Y-127020241D01*
X128719759Y-126820363D01*
X128484727Y-126663320D01*
X128223574Y-126555147D01*
X127946335Y-126500000D01*
X127663665Y-126500000D01*
X127386426Y-126555147D01*
X127125273Y-126663320D01*
X126890241Y-126820363D01*
X126690363Y-127020241D01*
X126533320Y-127255273D01*
X126425147Y-127516426D01*
X126420000Y-127542301D01*
X126414853Y-127516426D01*
X126306680Y-127255273D01*
X126149637Y-127020241D01*
X125949759Y-126820363D01*
X125714727Y-126663320D01*
X125453574Y-126555147D01*
X125176335Y-126500000D01*
X124893665Y-126500000D01*
X124616426Y-126555147D01*
X124355273Y-126663320D01*
X124120241Y-126820363D01*
X123920363Y-127020241D01*
X123763320Y-127255273D01*
X123655147Y-127516426D01*
X123650000Y-127542301D01*
X123644853Y-127516426D01*
X123536680Y-127255273D01*
X123379637Y-127020241D01*
X123179759Y-126820363D01*
X122944727Y-126663320D01*
X122683574Y-126555147D01*
X122406335Y-126500000D01*
X122123665Y-126500000D01*
X121846426Y-126555147D01*
X121585273Y-126663320D01*
X121350241Y-126820363D01*
X121150363Y-127020241D01*
X120993320Y-127255273D01*
X120885147Y-127516426D01*
X120880000Y-127542301D01*
X120874853Y-127516426D01*
X120766680Y-127255273D01*
X120609637Y-127020241D01*
X120409759Y-126820363D01*
X120174727Y-126663320D01*
X119913574Y-126555147D01*
X119636335Y-126500000D01*
X119353665Y-126500000D01*
X119076426Y-126555147D01*
X118815273Y-126663320D01*
X118580241Y-126820363D01*
X118380363Y-127020241D01*
X118223320Y-127255273D01*
X118115147Y-127516426D01*
X118110000Y-127542301D01*
X118104853Y-127516426D01*
X117996680Y-127255273D01*
X117839637Y-127020241D01*
X117639759Y-126820363D01*
X117404727Y-126663320D01*
X117143574Y-126555147D01*
X116866335Y-126500000D01*
X116583665Y-126500000D01*
X116306426Y-126555147D01*
X116045273Y-126663320D01*
X115810241Y-126820363D01*
X115610363Y-127020241D01*
X115453320Y-127255273D01*
X115345147Y-127516426D01*
X115340000Y-127542301D01*
X115334853Y-127516426D01*
X115226680Y-127255273D01*
X115069637Y-127020241D01*
X114869759Y-126820363D01*
X114634727Y-126663320D01*
X114373574Y-126555147D01*
X114096335Y-126500000D01*
X113813665Y-126500000D01*
X113536426Y-126555147D01*
X113275273Y-126663320D01*
X113040241Y-126820363D01*
X112840363Y-127020241D01*
X112683320Y-127255273D01*
X112575147Y-127516426D01*
X112570000Y-127542301D01*
X112564853Y-127516426D01*
X112456680Y-127255273D01*
X112299637Y-127020241D01*
X112099759Y-126820363D01*
X111864727Y-126663320D01*
X111603574Y-126555147D01*
X111326335Y-126500000D01*
X111043665Y-126500000D01*
X110766426Y-126555147D01*
X110505273Y-126663320D01*
X110270241Y-126820363D01*
X110070363Y-127020241D01*
X109913320Y-127255273D01*
X109805147Y-127516426D01*
X109800000Y-127542301D01*
X109794853Y-127516426D01*
X109686680Y-127255273D01*
X109529637Y-127020241D01*
X109329759Y-126820363D01*
X109094727Y-126663320D01*
X108833574Y-126555147D01*
X108556335Y-126500000D01*
X108273665Y-126500000D01*
X107996426Y-126555147D01*
X107735273Y-126663320D01*
X107500241Y-126820363D01*
X107300363Y-127020241D01*
X107143320Y-127255273D01*
X107035147Y-127516426D01*
X107030000Y-127542301D01*
X107024853Y-127516426D01*
X106916680Y-127255273D01*
X106759637Y-127020241D01*
X106559759Y-126820363D01*
X106324727Y-126663320D01*
X106063574Y-126555147D01*
X105786335Y-126500000D01*
X105503665Y-126500000D01*
X105226426Y-126555147D01*
X104965273Y-126663320D01*
X104730241Y-126820363D01*
X104530363Y-127020241D01*
X104373320Y-127255273D01*
X104265147Y-127516426D01*
X104260000Y-127542301D01*
X104254853Y-127516426D01*
X104146680Y-127255273D01*
X103989637Y-127020241D01*
X103789759Y-126820363D01*
X103554727Y-126663320D01*
X103293574Y-126555147D01*
X103016335Y-126500000D01*
X102733665Y-126500000D01*
X102456426Y-126555147D01*
X102195273Y-126663320D01*
X101960241Y-126820363D01*
X101760363Y-127020241D01*
X101603320Y-127255273D01*
X101495147Y-127516426D01*
X101440000Y-127793665D01*
X97423659Y-127793665D01*
X97574524Y-127429446D01*
X97695000Y-126823771D01*
X97695000Y-126206229D01*
X97574524Y-125600554D01*
X97338201Y-125030021D01*
X97287182Y-124953665D01*
X100055000Y-124953665D01*
X100055000Y-125236335D01*
X100110147Y-125513574D01*
X100218320Y-125774727D01*
X100375363Y-126009759D01*
X100575241Y-126209637D01*
X100810273Y-126366680D01*
X101071426Y-126474853D01*
X101348665Y-126530000D01*
X101631335Y-126530000D01*
X101908574Y-126474853D01*
X102169727Y-126366680D01*
X102404759Y-126209637D01*
X102604637Y-126009759D01*
X102761680Y-125774727D01*
X102869853Y-125513574D01*
X102875000Y-125487699D01*
X102880147Y-125513574D01*
X102988320Y-125774727D01*
X103145363Y-126009759D01*
X103345241Y-126209637D01*
X103580273Y-126366680D01*
X103841426Y-126474853D01*
X104118665Y-126530000D01*
X104401335Y-126530000D01*
X104678574Y-126474853D01*
X104939727Y-126366680D01*
X105174759Y-126209637D01*
X105374637Y-126009759D01*
X105531680Y-125774727D01*
X105639853Y-125513574D01*
X105645000Y-125487699D01*
X105650147Y-125513574D01*
X105758320Y-125774727D01*
X105915363Y-126009759D01*
X106115241Y-126209637D01*
X106350273Y-126366680D01*
X106611426Y-126474853D01*
X106888665Y-126530000D01*
X107171335Y-126530000D01*
X107448574Y-126474853D01*
X107709727Y-126366680D01*
X107944759Y-126209637D01*
X108144637Y-126009759D01*
X108301680Y-125774727D01*
X108409853Y-125513574D01*
X108415000Y-125487699D01*
X108420147Y-125513574D01*
X108528320Y-125774727D01*
X108685363Y-126009759D01*
X108885241Y-126209637D01*
X109120273Y-126366680D01*
X109381426Y-126474853D01*
X109658665Y-126530000D01*
X109941335Y-126530000D01*
X110218574Y-126474853D01*
X110479727Y-126366680D01*
X110714759Y-126209637D01*
X110914637Y-126009759D01*
X111071680Y-125774727D01*
X111179853Y-125513574D01*
X111185000Y-125487699D01*
X111190147Y-125513574D01*
X111298320Y-125774727D01*
X111455363Y-126009759D01*
X111655241Y-126209637D01*
X111890273Y-126366680D01*
X112151426Y-126474853D01*
X112428665Y-126530000D01*
X112711335Y-126530000D01*
X112988574Y-126474853D01*
X113249727Y-126366680D01*
X113484759Y-126209637D01*
X113684637Y-126009759D01*
X113841680Y-125774727D01*
X113949853Y-125513574D01*
X113955000Y-125487699D01*
X113960147Y-125513574D01*
X114068320Y-125774727D01*
X114225363Y-126009759D01*
X114425241Y-126209637D01*
X114660273Y-126366680D01*
X114921426Y-126474853D01*
X115198665Y-126530000D01*
X115481335Y-126530000D01*
X115758574Y-126474853D01*
X116019727Y-126366680D01*
X116254759Y-126209637D01*
X116376694Y-126087702D01*
X117296903Y-126087702D01*
X117368486Y-126331671D01*
X117623996Y-126452571D01*
X117898184Y-126521300D01*
X118180512Y-126535217D01*
X118460130Y-126493787D01*
X118726292Y-126398603D01*
X118851514Y-126331671D01*
X118923097Y-126087702D01*
X118110000Y-125274605D01*
X117296903Y-126087702D01*
X116376694Y-126087702D01*
X116454637Y-126009759D01*
X116611680Y-125774727D01*
X116719853Y-125513574D01*
X116725513Y-125485118D01*
X116806397Y-125711292D01*
X116873329Y-125836514D01*
X117117298Y-125908097D01*
X117930395Y-125095000D01*
X118289605Y-125095000D01*
X119102702Y-125908097D01*
X119346671Y-125836514D01*
X119467571Y-125581004D01*
X119493212Y-125478711D01*
X119500147Y-125513574D01*
X119608320Y-125774727D01*
X119765363Y-126009759D01*
X119965241Y-126209637D01*
X120200273Y-126366680D01*
X120461426Y-126474853D01*
X120738665Y-126530000D01*
X121021335Y-126530000D01*
X121298574Y-126474853D01*
X121559727Y-126366680D01*
X121794759Y-126209637D01*
X121994637Y-126009759D01*
X122151680Y-125774727D01*
X122259853Y-125513574D01*
X122265000Y-125487699D01*
X122270147Y-125513574D01*
X122378320Y-125774727D01*
X122535363Y-126009759D01*
X122735241Y-126209637D01*
X122970273Y-126366680D01*
X123231426Y-126474853D01*
X123508665Y-126530000D01*
X123791335Y-126530000D01*
X124068574Y-126474853D01*
X124329727Y-126366680D01*
X124564759Y-126209637D01*
X124764637Y-126009759D01*
X124921680Y-125774727D01*
X125029853Y-125513574D01*
X125035000Y-125487699D01*
X125040147Y-125513574D01*
X125148320Y-125774727D01*
X125305363Y-126009759D01*
X125505241Y-126209637D01*
X125740273Y-126366680D01*
X126001426Y-126474853D01*
X126278665Y-126530000D01*
X126561335Y-126530000D01*
X126838574Y-126474853D01*
X127099727Y-126366680D01*
X127334759Y-126209637D01*
X127534637Y-126009759D01*
X127691680Y-125774727D01*
X127799853Y-125513574D01*
X127805000Y-125487699D01*
X127810147Y-125513574D01*
X127918320Y-125774727D01*
X128075363Y-126009759D01*
X128275241Y-126209637D01*
X128510273Y-126366680D01*
X128771426Y-126474853D01*
X129048665Y-126530000D01*
X129331335Y-126530000D01*
X129608574Y-126474853D01*
X129869727Y-126366680D01*
X130104759Y-126209637D01*
X130304637Y-126009759D01*
X130461680Y-125774727D01*
X130569853Y-125513574D01*
X130575000Y-125487699D01*
X130580147Y-125513574D01*
X130688320Y-125774727D01*
X130845363Y-126009759D01*
X131045241Y-126209637D01*
X131280273Y-126366680D01*
X131541426Y-126474853D01*
X131818665Y-126530000D01*
X132101335Y-126530000D01*
X132378574Y-126474853D01*
X132639727Y-126366680D01*
X132874759Y-126209637D01*
X133074637Y-126009759D01*
X133231680Y-125774727D01*
X133291928Y-125629275D01*
X133291928Y-125895000D01*
X133304188Y-126019482D01*
X133340498Y-126139180D01*
X133399463Y-126249494D01*
X133478815Y-126346185D01*
X133575506Y-126425537D01*
X133685820Y-126484502D01*
X133805518Y-126520812D01*
X133930000Y-126533072D01*
X135530000Y-126533072D01*
X135654482Y-126520812D01*
X135774180Y-126484502D01*
X135884494Y-126425537D01*
X135981185Y-126346185D01*
X136060537Y-126249494D01*
X136119502Y-126139180D01*
X136155812Y-126019482D01*
X136168072Y-125895000D01*
X136168072Y-124295000D01*
X136155812Y-124170518D01*
X136119502Y-124050820D01*
X136060537Y-123940506D01*
X135981185Y-123843815D01*
X135884494Y-123764463D01*
X135774180Y-123705498D01*
X135654482Y-123669188D01*
X135530000Y-123656928D01*
X133930000Y-123656928D01*
X133805518Y-123669188D01*
X133685820Y-123705498D01*
X133575506Y-123764463D01*
X133478815Y-123843815D01*
X133399463Y-123940506D01*
X133340498Y-124050820D01*
X133304188Y-124170518D01*
X133291928Y-124295000D01*
X133291928Y-124560725D01*
X133231680Y-124415273D01*
X133074637Y-124180241D01*
X132874759Y-123980363D01*
X132639727Y-123823320D01*
X132378574Y-123715147D01*
X132101335Y-123660000D01*
X131818665Y-123660000D01*
X131541426Y-123715147D01*
X131280273Y-123823320D01*
X131045241Y-123980363D01*
X130845363Y-124180241D01*
X130688320Y-124415273D01*
X130580147Y-124676426D01*
X130575000Y-124702301D01*
X130569853Y-124676426D01*
X130461680Y-124415273D01*
X130304637Y-124180241D01*
X130104759Y-123980363D01*
X129869727Y-123823320D01*
X129608574Y-123715147D01*
X129331335Y-123660000D01*
X129048665Y-123660000D01*
X128771426Y-123715147D01*
X128510273Y-123823320D01*
X128275241Y-123980363D01*
X128075363Y-124180241D01*
X127918320Y-124415273D01*
X127810147Y-124676426D01*
X127805000Y-124702301D01*
X127799853Y-124676426D01*
X127691680Y-124415273D01*
X127534637Y-124180241D01*
X127334759Y-123980363D01*
X127099727Y-123823320D01*
X126838574Y-123715147D01*
X126561335Y-123660000D01*
X126278665Y-123660000D01*
X126001426Y-123715147D01*
X125740273Y-123823320D01*
X125505241Y-123980363D01*
X125305363Y-124180241D01*
X125148320Y-124415273D01*
X125040147Y-124676426D01*
X125035000Y-124702301D01*
X125029853Y-124676426D01*
X124921680Y-124415273D01*
X124764637Y-124180241D01*
X124564759Y-123980363D01*
X124329727Y-123823320D01*
X124068574Y-123715147D01*
X123791335Y-123660000D01*
X123508665Y-123660000D01*
X123231426Y-123715147D01*
X122970273Y-123823320D01*
X122735241Y-123980363D01*
X122535363Y-124180241D01*
X122378320Y-124415273D01*
X122270147Y-124676426D01*
X122265000Y-124702301D01*
X122259853Y-124676426D01*
X122151680Y-124415273D01*
X121994637Y-124180241D01*
X121794759Y-123980363D01*
X121559727Y-123823320D01*
X121298574Y-123715147D01*
X121021335Y-123660000D01*
X120738665Y-123660000D01*
X120461426Y-123715147D01*
X120200273Y-123823320D01*
X119965241Y-123980363D01*
X119765363Y-124180241D01*
X119608320Y-124415273D01*
X119500147Y-124676426D01*
X119494487Y-124704882D01*
X119413603Y-124478708D01*
X119346671Y-124353486D01*
X119102702Y-124281903D01*
X118289605Y-125095000D01*
X117930395Y-125095000D01*
X117117298Y-124281903D01*
X116873329Y-124353486D01*
X116752429Y-124608996D01*
X116726788Y-124711289D01*
X116719853Y-124676426D01*
X116611680Y-124415273D01*
X116454637Y-124180241D01*
X116376694Y-124102298D01*
X117296903Y-124102298D01*
X118110000Y-124915395D01*
X118923097Y-124102298D01*
X118851514Y-123858329D01*
X118596004Y-123737429D01*
X118321816Y-123668700D01*
X118039488Y-123654783D01*
X117759870Y-123696213D01*
X117493708Y-123791397D01*
X117368486Y-123858329D01*
X117296903Y-124102298D01*
X116376694Y-124102298D01*
X116254759Y-123980363D01*
X116019727Y-123823320D01*
X115758574Y-123715147D01*
X115481335Y-123660000D01*
X115198665Y-123660000D01*
X114921426Y-123715147D01*
X114660273Y-123823320D01*
X114425241Y-123980363D01*
X114225363Y-124180241D01*
X114068320Y-124415273D01*
X113960147Y-124676426D01*
X113955000Y-124702301D01*
X113949853Y-124676426D01*
X113841680Y-124415273D01*
X113684637Y-124180241D01*
X113484759Y-123980363D01*
X113249727Y-123823320D01*
X112988574Y-123715147D01*
X112711335Y-123660000D01*
X112428665Y-123660000D01*
X112151426Y-123715147D01*
X111890273Y-123823320D01*
X111655241Y-123980363D01*
X111455363Y-124180241D01*
X111298320Y-124415273D01*
X111190147Y-124676426D01*
X111185000Y-124702301D01*
X111179853Y-124676426D01*
X111071680Y-124415273D01*
X110914637Y-124180241D01*
X110714759Y-123980363D01*
X110479727Y-123823320D01*
X110218574Y-123715147D01*
X109941335Y-123660000D01*
X109658665Y-123660000D01*
X109381426Y-123715147D01*
X109120273Y-123823320D01*
X108885241Y-123980363D01*
X108685363Y-124180241D01*
X108528320Y-124415273D01*
X108420147Y-124676426D01*
X108415000Y-124702301D01*
X108409853Y-124676426D01*
X108301680Y-124415273D01*
X108144637Y-124180241D01*
X107944759Y-123980363D01*
X107709727Y-123823320D01*
X107448574Y-123715147D01*
X107171335Y-123660000D01*
X106888665Y-123660000D01*
X106611426Y-123715147D01*
X106350273Y-123823320D01*
X106115241Y-123980363D01*
X105915363Y-124180241D01*
X105758320Y-124415273D01*
X105650147Y-124676426D01*
X105645000Y-124702301D01*
X105639853Y-124676426D01*
X105531680Y-124415273D01*
X105374637Y-124180241D01*
X105174759Y-123980363D01*
X104939727Y-123823320D01*
X104678574Y-123715147D01*
X104401335Y-123660000D01*
X104118665Y-123660000D01*
X103841426Y-123715147D01*
X103580273Y-123823320D01*
X103345241Y-123980363D01*
X103145363Y-124180241D01*
X102988320Y-124415273D01*
X102880147Y-124676426D01*
X102875000Y-124702301D01*
X102869853Y-124676426D01*
X102761680Y-124415273D01*
X102604637Y-124180241D01*
X102404759Y-123980363D01*
X102169727Y-123823320D01*
X101908574Y-123715147D01*
X101631335Y-123660000D01*
X101348665Y-123660000D01*
X101071426Y-123715147D01*
X100810273Y-123823320D01*
X100575241Y-123980363D01*
X100375363Y-124180241D01*
X100218320Y-124415273D01*
X100110147Y-124676426D01*
X100055000Y-124953665D01*
X97287182Y-124953665D01*
X96995114Y-124516554D01*
X96558446Y-124079886D01*
X96044979Y-123736799D01*
X95474446Y-123500476D01*
X94868771Y-123380000D01*
X94251229Y-123380000D01*
X93645554Y-123500476D01*
X93075021Y-123736799D01*
X92561554Y-124079886D01*
X92159000Y-124482440D01*
X92159000Y-118387702D01*
X93166903Y-118387702D01*
X93238486Y-118631671D01*
X93493996Y-118752571D01*
X93768184Y-118821300D01*
X94050512Y-118835217D01*
X94330130Y-118793787D01*
X94596292Y-118698603D01*
X94721514Y-118631671D01*
X94793097Y-118387702D01*
X93980000Y-117574605D01*
X93166903Y-118387702D01*
X92159000Y-118387702D01*
X92159000Y-117465512D01*
X92539783Y-117465512D01*
X92581213Y-117745130D01*
X92676397Y-118011292D01*
X92743329Y-118136514D01*
X92987298Y-118208097D01*
X93800395Y-117395000D01*
X94159605Y-117395000D01*
X94972702Y-118208097D01*
X95216671Y-118136514D01*
X95337571Y-117881004D01*
X95406300Y-117606816D01*
X95420217Y-117324488D01*
X95383943Y-117079665D01*
X114024500Y-117079665D01*
X114024500Y-117362335D01*
X114079647Y-117639574D01*
X114187820Y-117900727D01*
X114344863Y-118135759D01*
X114544741Y-118335637D01*
X114779773Y-118492680D01*
X115040926Y-118600853D01*
X115318165Y-118656000D01*
X115600835Y-118656000D01*
X115878074Y-118600853D01*
X116139227Y-118492680D01*
X116374259Y-118335637D01*
X116574137Y-118135759D01*
X116731180Y-117900727D01*
X116839353Y-117639574D01*
X116894500Y-117362335D01*
X116894500Y-117079665D01*
X119024500Y-117079665D01*
X119024500Y-117362335D01*
X119079647Y-117639574D01*
X119187820Y-117900727D01*
X119344863Y-118135759D01*
X119544741Y-118335637D01*
X119779773Y-118492680D01*
X120040926Y-118600853D01*
X120318165Y-118656000D01*
X120600835Y-118656000D01*
X120878074Y-118600853D01*
X121139227Y-118492680D01*
X121374259Y-118335637D01*
X121574137Y-118135759D01*
X121731180Y-117900727D01*
X121761250Y-117828132D01*
X121791320Y-117900727D01*
X121948363Y-118135759D01*
X122148241Y-118335637D01*
X122383273Y-118492680D01*
X122644426Y-118600853D01*
X122921665Y-118656000D01*
X123204335Y-118656000D01*
X123481574Y-118600853D01*
X123742727Y-118492680D01*
X123977759Y-118335637D01*
X124177637Y-118135759D01*
X124334680Y-117900727D01*
X124442853Y-117639574D01*
X124498000Y-117362335D01*
X124498000Y-117079665D01*
X126628000Y-117079665D01*
X126628000Y-117362335D01*
X126683147Y-117639574D01*
X126791320Y-117900727D01*
X126948363Y-118135759D01*
X127148241Y-118335637D01*
X127383273Y-118492680D01*
X127644426Y-118600853D01*
X127921665Y-118656000D01*
X128204335Y-118656000D01*
X128481574Y-118600853D01*
X128742727Y-118492680D01*
X128977759Y-118335637D01*
X129177637Y-118135759D01*
X129334680Y-117900727D01*
X129373000Y-117808214D01*
X129411320Y-117900727D01*
X129568363Y-118135759D01*
X129768241Y-118335637D01*
X130003273Y-118492680D01*
X130264426Y-118600853D01*
X130541665Y-118656000D01*
X130824335Y-118656000D01*
X131101574Y-118600853D01*
X131362727Y-118492680D01*
X131597759Y-118335637D01*
X131797637Y-118135759D01*
X131954680Y-117900727D01*
X132062853Y-117639574D01*
X132118000Y-117362335D01*
X132118000Y-117079665D01*
X134248000Y-117079665D01*
X134248000Y-117362335D01*
X134303147Y-117639574D01*
X134411320Y-117900727D01*
X134568363Y-118135759D01*
X134768241Y-118335637D01*
X135003273Y-118492680D01*
X135264426Y-118600853D01*
X135541665Y-118656000D01*
X135824335Y-118656000D01*
X136101574Y-118600853D01*
X136362727Y-118492680D01*
X136597759Y-118335637D01*
X136797637Y-118135759D01*
X136954680Y-117900727D01*
X136993000Y-117808214D01*
X137031320Y-117900727D01*
X137188363Y-118135759D01*
X137388241Y-118335637D01*
X137623273Y-118492680D01*
X137884426Y-118600853D01*
X138161665Y-118656000D01*
X138444335Y-118656000D01*
X138721574Y-118600853D01*
X138982727Y-118492680D01*
X139217759Y-118335637D01*
X139417637Y-118135759D01*
X139574680Y-117900727D01*
X139682853Y-117639574D01*
X139738000Y-117362335D01*
X139738000Y-117291512D01*
X141862783Y-117291512D01*
X141904213Y-117571130D01*
X141999397Y-117837292D01*
X142066329Y-117962514D01*
X142310298Y-118034097D01*
X143123395Y-117221000D01*
X142310298Y-116407903D01*
X142066329Y-116479486D01*
X141945429Y-116734996D01*
X141876700Y-117009184D01*
X141862783Y-117291512D01*
X139738000Y-117291512D01*
X139738000Y-117079665D01*
X139682853Y-116802426D01*
X139574680Y-116541273D01*
X139417637Y-116306241D01*
X139217759Y-116106363D01*
X138982727Y-115949320D01*
X138721574Y-115841147D01*
X138444335Y-115786000D01*
X138161665Y-115786000D01*
X137884426Y-115841147D01*
X137623273Y-115949320D01*
X137388241Y-116106363D01*
X137188363Y-116306241D01*
X137031320Y-116541273D01*
X136993000Y-116633786D01*
X136954680Y-116541273D01*
X136797637Y-116306241D01*
X136597759Y-116106363D01*
X136362727Y-115949320D01*
X136101574Y-115841147D01*
X135824335Y-115786000D01*
X135541665Y-115786000D01*
X135264426Y-115841147D01*
X135003273Y-115949320D01*
X134768241Y-116106363D01*
X134568363Y-116306241D01*
X134411320Y-116541273D01*
X134303147Y-116802426D01*
X134248000Y-117079665D01*
X132118000Y-117079665D01*
X132062853Y-116802426D01*
X131954680Y-116541273D01*
X131797637Y-116306241D01*
X131597759Y-116106363D01*
X131362727Y-115949320D01*
X131101574Y-115841147D01*
X130824335Y-115786000D01*
X130541665Y-115786000D01*
X130264426Y-115841147D01*
X130003273Y-115949320D01*
X129768241Y-116106363D01*
X129568363Y-116306241D01*
X129411320Y-116541273D01*
X129373000Y-116633786D01*
X129334680Y-116541273D01*
X129177637Y-116306241D01*
X128977759Y-116106363D01*
X128742727Y-115949320D01*
X128481574Y-115841147D01*
X128204335Y-115786000D01*
X127921665Y-115786000D01*
X127644426Y-115841147D01*
X127383273Y-115949320D01*
X127148241Y-116106363D01*
X126948363Y-116306241D01*
X126791320Y-116541273D01*
X126683147Y-116802426D01*
X126628000Y-117079665D01*
X124498000Y-117079665D01*
X124442853Y-116802426D01*
X124334680Y-116541273D01*
X124177637Y-116306241D01*
X123977759Y-116106363D01*
X123742727Y-115949320D01*
X123481574Y-115841147D01*
X123204335Y-115786000D01*
X122921665Y-115786000D01*
X122644426Y-115841147D01*
X122383273Y-115949320D01*
X122148241Y-116106363D01*
X121948363Y-116306241D01*
X121791320Y-116541273D01*
X121761250Y-116613868D01*
X121731180Y-116541273D01*
X121574137Y-116306241D01*
X121374259Y-116106363D01*
X121139227Y-115949320D01*
X120878074Y-115841147D01*
X120600835Y-115786000D01*
X120318165Y-115786000D01*
X120040926Y-115841147D01*
X119779773Y-115949320D01*
X119544741Y-116106363D01*
X119344863Y-116306241D01*
X119187820Y-116541273D01*
X119079647Y-116802426D01*
X119024500Y-117079665D01*
X116894500Y-117079665D01*
X116839353Y-116802426D01*
X116731180Y-116541273D01*
X116574137Y-116306241D01*
X116374259Y-116106363D01*
X116139227Y-115949320D01*
X115878074Y-115841147D01*
X115600835Y-115786000D01*
X115318165Y-115786000D01*
X115040926Y-115841147D01*
X114779773Y-115949320D01*
X114544741Y-116106363D01*
X114344863Y-116306241D01*
X114187820Y-116541273D01*
X114079647Y-116802426D01*
X114024500Y-117079665D01*
X95383943Y-117079665D01*
X95378787Y-117044870D01*
X95283603Y-116778708D01*
X95216671Y-116653486D01*
X94972702Y-116581903D01*
X94159605Y-117395000D01*
X93800395Y-117395000D01*
X92987298Y-116581903D01*
X92743329Y-116653486D01*
X92622429Y-116908996D01*
X92553700Y-117183184D01*
X92539783Y-117465512D01*
X92159000Y-117465512D01*
X92159000Y-116402298D01*
X93166903Y-116402298D01*
X93980000Y-117215395D01*
X94793097Y-116402298D01*
X94721514Y-116158329D01*
X94466004Y-116037429D01*
X94191816Y-115968700D01*
X93909488Y-115954783D01*
X93629870Y-115996213D01*
X93363708Y-116091397D01*
X93238486Y-116158329D01*
X93166903Y-116402298D01*
X92159000Y-116402298D01*
X92159000Y-112253665D01*
X92545000Y-112253665D01*
X92545000Y-112536335D01*
X92600147Y-112813574D01*
X92708320Y-113074727D01*
X92865363Y-113309759D01*
X93065241Y-113509637D01*
X93300273Y-113666680D01*
X93561426Y-113774853D01*
X93838665Y-113830000D01*
X94121335Y-113830000D01*
X94398574Y-113774853D01*
X94659727Y-113666680D01*
X94894759Y-113509637D01*
X95094637Y-113309759D01*
X95251680Y-113074727D01*
X95359853Y-112813574D01*
X95415000Y-112536335D01*
X95415000Y-112395000D01*
X95512319Y-112395000D01*
X95542970Y-112706204D01*
X95633745Y-113005449D01*
X95781155Y-113281235D01*
X95979537Y-113522963D01*
X96221265Y-113721345D01*
X96497051Y-113868755D01*
X96796296Y-113959530D01*
X97029514Y-113982500D01*
X97280486Y-113982500D01*
X97513704Y-113959530D01*
X97812949Y-113868755D01*
X98088735Y-113721345D01*
X98330463Y-113522963D01*
X98507123Y-113307702D01*
X118439903Y-113307702D01*
X118511486Y-113551671D01*
X118766996Y-113672571D01*
X119041184Y-113741300D01*
X119323512Y-113755217D01*
X119603130Y-113713787D01*
X119869292Y-113618603D01*
X119994514Y-113551671D01*
X120066097Y-113307702D01*
X119253000Y-112494605D01*
X118439903Y-113307702D01*
X98507123Y-113307702D01*
X98528845Y-113281235D01*
X98676255Y-113005449D01*
X98767030Y-112706204D01*
X98797681Y-112395000D01*
X98796747Y-112385512D01*
X117812783Y-112385512D01*
X117854213Y-112665130D01*
X117949397Y-112931292D01*
X118016329Y-113056514D01*
X118260298Y-113128097D01*
X119073395Y-112315000D01*
X119432605Y-112315000D01*
X120245702Y-113128097D01*
X120489671Y-113056514D01*
X120610571Y-112801004D01*
X120679300Y-112526816D01*
X120682347Y-112465000D01*
X121624928Y-112465000D01*
X121624928Y-114865000D01*
X121637188Y-114989482D01*
X121673498Y-115109180D01*
X121732463Y-115219494D01*
X121811815Y-115316185D01*
X121908506Y-115395537D01*
X122018820Y-115454502D01*
X122138518Y-115490812D01*
X122263000Y-115503072D01*
X123863000Y-115503072D01*
X123987482Y-115490812D01*
X124107180Y-115454502D01*
X124217494Y-115395537D01*
X124314185Y-115316185D01*
X124393537Y-115219494D01*
X124452502Y-115109180D01*
X124488812Y-114989482D01*
X124490581Y-114971517D01*
X124583393Y-115084608D01*
X124801900Y-115263932D01*
X125051193Y-115397182D01*
X125321692Y-115479236D01*
X125603000Y-115506943D01*
X125884309Y-115479236D01*
X126154808Y-115397182D01*
X126404101Y-115263932D01*
X126622608Y-115084608D01*
X126801932Y-114866101D01*
X126873000Y-114733142D01*
X126944068Y-114866101D01*
X127123393Y-115084608D01*
X127341900Y-115263932D01*
X127591193Y-115397182D01*
X127861692Y-115479236D01*
X128143000Y-115506943D01*
X128424309Y-115479236D01*
X128694808Y-115397182D01*
X128944101Y-115263932D01*
X129162608Y-115084608D01*
X129341932Y-114866101D01*
X129413000Y-114733142D01*
X129484068Y-114866101D01*
X129663393Y-115084608D01*
X129881900Y-115263932D01*
X130131193Y-115397182D01*
X130401692Y-115479236D01*
X130683000Y-115506943D01*
X130964309Y-115479236D01*
X131234808Y-115397182D01*
X131484101Y-115263932D01*
X131702608Y-115084608D01*
X131881932Y-114866101D01*
X131953000Y-114733142D01*
X132024068Y-114866101D01*
X132203393Y-115084608D01*
X132421900Y-115263932D01*
X132671193Y-115397182D01*
X132941692Y-115479236D01*
X133223000Y-115506943D01*
X133504309Y-115479236D01*
X133774808Y-115397182D01*
X134024101Y-115263932D01*
X134242608Y-115084608D01*
X134421932Y-114866101D01*
X134493000Y-114733142D01*
X134564068Y-114866101D01*
X134743393Y-115084608D01*
X134961900Y-115263932D01*
X135211193Y-115397182D01*
X135481692Y-115479236D01*
X135763000Y-115506943D01*
X136044309Y-115479236D01*
X136314808Y-115397182D01*
X136564101Y-115263932D01*
X136782608Y-115084608D01*
X136961932Y-114866101D01*
X137033000Y-114733142D01*
X137104068Y-114866101D01*
X137283393Y-115084608D01*
X137501900Y-115263932D01*
X137751193Y-115397182D01*
X138021692Y-115479236D01*
X138303000Y-115506943D01*
X138584309Y-115479236D01*
X138854808Y-115397182D01*
X139104101Y-115263932D01*
X139322608Y-115084608D01*
X139501932Y-114866101D01*
X139573000Y-114733142D01*
X139644068Y-114866101D01*
X139823393Y-115084608D01*
X140041900Y-115263932D01*
X140291193Y-115397182D01*
X140561692Y-115479236D01*
X140843000Y-115506943D01*
X141124309Y-115479236D01*
X141394808Y-115397182D01*
X141644101Y-115263932D01*
X141862608Y-115084608D01*
X142041932Y-114866101D01*
X142175182Y-114616808D01*
X142257236Y-114346309D01*
X142278000Y-114135491D01*
X142278000Y-113194508D01*
X142257236Y-112983691D01*
X142175182Y-112713192D01*
X142041932Y-112463899D01*
X141862607Y-112245392D01*
X141644100Y-112066068D01*
X141394807Y-111932818D01*
X141124308Y-111850764D01*
X140843000Y-111823057D01*
X140561691Y-111850764D01*
X140291192Y-111932818D01*
X140041899Y-112066068D01*
X139823392Y-112245393D01*
X139644068Y-112463900D01*
X139573000Y-112596858D01*
X139501932Y-112463899D01*
X139322607Y-112245392D01*
X139104100Y-112066068D01*
X138854807Y-111932818D01*
X138584308Y-111850764D01*
X138303000Y-111823057D01*
X138021691Y-111850764D01*
X137751192Y-111932818D01*
X137501899Y-112066068D01*
X137283392Y-112245393D01*
X137104068Y-112463900D01*
X137033000Y-112596858D01*
X136961932Y-112463899D01*
X136782607Y-112245392D01*
X136564100Y-112066068D01*
X136314807Y-111932818D01*
X136044308Y-111850764D01*
X135763000Y-111823057D01*
X135481691Y-111850764D01*
X135211192Y-111932818D01*
X134961899Y-112066068D01*
X134743392Y-112245393D01*
X134564068Y-112463900D01*
X134493000Y-112596858D01*
X134421932Y-112463899D01*
X134242607Y-112245392D01*
X134024100Y-112066068D01*
X133774807Y-111932818D01*
X133504308Y-111850764D01*
X133223000Y-111823057D01*
X132941691Y-111850764D01*
X132671192Y-111932818D01*
X132421899Y-112066068D01*
X132203392Y-112245393D01*
X132024068Y-112463900D01*
X131953000Y-112596858D01*
X131881932Y-112463899D01*
X131702607Y-112245392D01*
X131484100Y-112066068D01*
X131234807Y-111932818D01*
X130964308Y-111850764D01*
X130683000Y-111823057D01*
X130401691Y-111850764D01*
X130131192Y-111932818D01*
X129881899Y-112066068D01*
X129663392Y-112245393D01*
X129484068Y-112463900D01*
X129413000Y-112596858D01*
X129341932Y-112463899D01*
X129162607Y-112245392D01*
X128944100Y-112066068D01*
X128694807Y-111932818D01*
X128424308Y-111850764D01*
X128143000Y-111823057D01*
X127861691Y-111850764D01*
X127591192Y-111932818D01*
X127341899Y-112066068D01*
X127123392Y-112245393D01*
X126944068Y-112463900D01*
X126873000Y-112596858D01*
X126801932Y-112463899D01*
X126622607Y-112245392D01*
X126404100Y-112066068D01*
X126154807Y-111932818D01*
X125884308Y-111850764D01*
X125603000Y-111823057D01*
X125321691Y-111850764D01*
X125051192Y-111932818D01*
X124801899Y-112066068D01*
X124583392Y-112245393D01*
X124490581Y-112358483D01*
X124488812Y-112340518D01*
X124452502Y-112220820D01*
X124393537Y-112110506D01*
X124314185Y-112013815D01*
X124217494Y-111934463D01*
X124107180Y-111875498D01*
X123987482Y-111839188D01*
X123863000Y-111826928D01*
X122263000Y-111826928D01*
X122138518Y-111839188D01*
X122018820Y-111875498D01*
X121908506Y-111934463D01*
X121811815Y-112013815D01*
X121732463Y-112110506D01*
X121673498Y-112220820D01*
X121637188Y-112340518D01*
X121624928Y-112465000D01*
X120682347Y-112465000D01*
X120693217Y-112244488D01*
X120651787Y-111964870D01*
X120556603Y-111698708D01*
X120489671Y-111573486D01*
X120245702Y-111501903D01*
X119432605Y-112315000D01*
X119073395Y-112315000D01*
X118260298Y-111501903D01*
X118016329Y-111573486D01*
X117895429Y-111828996D01*
X117826700Y-112103184D01*
X117812783Y-112385512D01*
X98796747Y-112385512D01*
X98767030Y-112083796D01*
X98676255Y-111784551D01*
X98528845Y-111508765D01*
X98330463Y-111267037D01*
X98151101Y-111119837D01*
X98336315Y-110964437D01*
X98530969Y-110721923D01*
X98674571Y-110446094D01*
X98745563Y-110227980D01*
X98625594Y-109982000D01*
X97282000Y-109982000D01*
X97282000Y-110002000D01*
X97028000Y-110002000D01*
X97028000Y-109982000D01*
X95684406Y-109982000D01*
X95564437Y-110227980D01*
X95635429Y-110446094D01*
X95779031Y-110721923D01*
X95973685Y-110964437D01*
X96158899Y-111119837D01*
X95979537Y-111267037D01*
X95781155Y-111508765D01*
X95633745Y-111784551D01*
X95542970Y-112083796D01*
X95512319Y-112395000D01*
X95415000Y-112395000D01*
X95415000Y-112253665D01*
X95359853Y-111976426D01*
X95251680Y-111715273D01*
X95094637Y-111480241D01*
X94894759Y-111280363D01*
X94659727Y-111123320D01*
X94398574Y-111015147D01*
X94121335Y-110960000D01*
X93838665Y-110960000D01*
X93561426Y-111015147D01*
X93300273Y-111123320D01*
X93065241Y-111280363D01*
X92865363Y-111480241D01*
X92708320Y-111715273D01*
X92600147Y-111976426D01*
X92545000Y-112253665D01*
X92159000Y-112253665D01*
X92159000Y-107173665D01*
X92545000Y-107173665D01*
X92545000Y-107456335D01*
X92600147Y-107733574D01*
X92708320Y-107994727D01*
X92865363Y-108229759D01*
X93065241Y-108429637D01*
X93300273Y-108586680D01*
X93561426Y-108694853D01*
X93838665Y-108750000D01*
X94121335Y-108750000D01*
X94398574Y-108694853D01*
X94659727Y-108586680D01*
X94894759Y-108429637D01*
X95094637Y-108229759D01*
X95251680Y-107994727D01*
X95359853Y-107733574D01*
X95415000Y-107456335D01*
X95415000Y-107173665D01*
X95359853Y-106896426D01*
X95251680Y-106635273D01*
X95094637Y-106400241D01*
X95056896Y-106362500D01*
X95516928Y-106362500D01*
X95516928Y-108267500D01*
X95529188Y-108391982D01*
X95565498Y-108511680D01*
X95624463Y-108621994D01*
X95703815Y-108718685D01*
X95800506Y-108798037D01*
X95892219Y-108847059D01*
X95779031Y-108988077D01*
X95635429Y-109263906D01*
X95564437Y-109482020D01*
X95684406Y-109728000D01*
X97028000Y-109728000D01*
X97028000Y-109708000D01*
X97282000Y-109708000D01*
X97282000Y-109728000D01*
X98625594Y-109728000D01*
X98678219Y-109620098D01*
X111430000Y-109620098D01*
X111430000Y-110089902D01*
X111521654Y-110550679D01*
X111701440Y-110984721D01*
X111962450Y-111375349D01*
X112294651Y-111707550D01*
X112685279Y-111968560D01*
X113119321Y-112148346D01*
X113580098Y-112240000D01*
X114049902Y-112240000D01*
X114510679Y-112148346D01*
X114944721Y-111968560D01*
X115335349Y-111707550D01*
X115667550Y-111375349D01*
X115702997Y-111322298D01*
X118439903Y-111322298D01*
X119253000Y-112135395D01*
X120066097Y-111322298D01*
X119994514Y-111078329D01*
X119739004Y-110957429D01*
X119464816Y-110888700D01*
X119182488Y-110874783D01*
X118902870Y-110916213D01*
X118636708Y-111011397D01*
X118511486Y-111078329D01*
X118439903Y-111322298D01*
X115702997Y-111322298D01*
X115928560Y-110984721D01*
X116108346Y-110550679D01*
X116200000Y-110089902D01*
X116200000Y-109620098D01*
X116108346Y-109159321D01*
X115928560Y-108725279D01*
X115667550Y-108334651D01*
X115335349Y-108002450D01*
X114944721Y-107741440D01*
X114510679Y-107561654D01*
X114049902Y-107470000D01*
X113580098Y-107470000D01*
X113119321Y-107561654D01*
X112685279Y-107741440D01*
X112294651Y-108002450D01*
X111962450Y-108334651D01*
X111701440Y-108725279D01*
X111521654Y-109159321D01*
X111430000Y-109620098D01*
X98678219Y-109620098D01*
X98745563Y-109482020D01*
X98674571Y-109263906D01*
X98530969Y-108988077D01*
X98417781Y-108847059D01*
X98509494Y-108798037D01*
X98606185Y-108718685D01*
X98685537Y-108621994D01*
X98744502Y-108511680D01*
X98780812Y-108391982D01*
X98793072Y-108267500D01*
X98793072Y-107173665D01*
X117818000Y-107173665D01*
X117818000Y-107456335D01*
X117873147Y-107733574D01*
X117981320Y-107994727D01*
X118138363Y-108229759D01*
X118338241Y-108429637D01*
X118573273Y-108586680D01*
X118834426Y-108694853D01*
X119111665Y-108750000D01*
X119394335Y-108750000D01*
X119671574Y-108694853D01*
X119932727Y-108586680D01*
X120167759Y-108429637D01*
X120367637Y-108229759D01*
X120524680Y-107994727D01*
X120632853Y-107733574D01*
X120688000Y-107456335D01*
X120688000Y-107173665D01*
X120632853Y-106896426D01*
X120524680Y-106635273D01*
X120367637Y-106400241D01*
X120167759Y-106200363D01*
X119932727Y-106043320D01*
X119671574Y-105935147D01*
X119394335Y-105880000D01*
X119111665Y-105880000D01*
X118834426Y-105935147D01*
X118573273Y-106043320D01*
X118338241Y-106200363D01*
X118138363Y-106400241D01*
X117981320Y-106635273D01*
X117873147Y-106896426D01*
X117818000Y-107173665D01*
X98793072Y-107173665D01*
X98793072Y-106362500D01*
X98780812Y-106238018D01*
X98744502Y-106118320D01*
X98685537Y-106008006D01*
X98606185Y-105911315D01*
X98509494Y-105831963D01*
X98399180Y-105772998D01*
X98279482Y-105736688D01*
X98155000Y-105724428D01*
X96155000Y-105724428D01*
X96030518Y-105736688D01*
X95910820Y-105772998D01*
X95800506Y-105831963D01*
X95703815Y-105911315D01*
X95624463Y-106008006D01*
X95565498Y-106118320D01*
X95529188Y-106238018D01*
X95516928Y-106362500D01*
X95056896Y-106362500D01*
X94894759Y-106200363D01*
X94659727Y-106043320D01*
X94398574Y-105935147D01*
X94121335Y-105880000D01*
X93838665Y-105880000D01*
X93561426Y-105935147D01*
X93300273Y-106043320D01*
X93065241Y-106200363D01*
X92865363Y-106400241D01*
X92708320Y-106635273D01*
X92600147Y-106896426D01*
X92545000Y-107173665D01*
X92159000Y-107173665D01*
X92159000Y-105574509D01*
X121628000Y-105574509D01*
X121628000Y-106515492D01*
X121648764Y-106726309D01*
X121730818Y-106996808D01*
X121864068Y-107246101D01*
X122043393Y-107464608D01*
X122261900Y-107643932D01*
X122511193Y-107777182D01*
X122781692Y-107859236D01*
X123063000Y-107886943D01*
X123344309Y-107859236D01*
X123614808Y-107777182D01*
X123864101Y-107643932D01*
X124082608Y-107464608D01*
X124261932Y-107246101D01*
X124330265Y-107118259D01*
X124480399Y-107347839D01*
X124678105Y-107549500D01*
X124911354Y-107708715D01*
X125171182Y-107819367D01*
X125253961Y-107836904D01*
X125476000Y-107714915D01*
X125476000Y-106172000D01*
X125456000Y-106172000D01*
X125456000Y-105918000D01*
X125476000Y-105918000D01*
X125476000Y-104375085D01*
X125730000Y-104375085D01*
X125730000Y-105918000D01*
X125750000Y-105918000D01*
X125750000Y-106172000D01*
X125730000Y-106172000D01*
X125730000Y-107714915D01*
X125952039Y-107836904D01*
X126034818Y-107819367D01*
X126294646Y-107708715D01*
X126527895Y-107549500D01*
X126725601Y-107347839D01*
X126875735Y-107118259D01*
X126944068Y-107246101D01*
X127123393Y-107464608D01*
X127341900Y-107643932D01*
X127591193Y-107777182D01*
X127861692Y-107859236D01*
X128143000Y-107886943D01*
X128424309Y-107859236D01*
X128694808Y-107777182D01*
X128944101Y-107643932D01*
X129162608Y-107464608D01*
X129341932Y-107246101D01*
X129413000Y-107113142D01*
X129484068Y-107246101D01*
X129663393Y-107464608D01*
X129881900Y-107643932D01*
X130131193Y-107777182D01*
X130401692Y-107859236D01*
X130683000Y-107886943D01*
X130964309Y-107859236D01*
X131234808Y-107777182D01*
X131484101Y-107643932D01*
X131702608Y-107464608D01*
X131881932Y-107246101D01*
X131953000Y-107113142D01*
X132024068Y-107246101D01*
X132203393Y-107464608D01*
X132421900Y-107643932D01*
X132671193Y-107777182D01*
X132941692Y-107859236D01*
X133223000Y-107886943D01*
X133504309Y-107859236D01*
X133774808Y-107777182D01*
X134024101Y-107643932D01*
X134242608Y-107464608D01*
X134421932Y-107246101D01*
X134493000Y-107113142D01*
X134564068Y-107246101D01*
X134743393Y-107464608D01*
X134961900Y-107643932D01*
X135211193Y-107777182D01*
X135481692Y-107859236D01*
X135763000Y-107886943D01*
X136044309Y-107859236D01*
X136314808Y-107777182D01*
X136564101Y-107643932D01*
X136782608Y-107464608D01*
X136961932Y-107246101D01*
X137033000Y-107113142D01*
X137104068Y-107246101D01*
X137283393Y-107464608D01*
X137501900Y-107643932D01*
X137751193Y-107777182D01*
X138021692Y-107859236D01*
X138303000Y-107886943D01*
X138584309Y-107859236D01*
X138854808Y-107777182D01*
X139104101Y-107643932D01*
X139322608Y-107464608D01*
X139501932Y-107246101D01*
X139573000Y-107113142D01*
X139644068Y-107246101D01*
X139823393Y-107464608D01*
X140041900Y-107643932D01*
X140291193Y-107777182D01*
X140561692Y-107859236D01*
X140843000Y-107886943D01*
X141124309Y-107859236D01*
X141394808Y-107777182D01*
X141644101Y-107643932D01*
X141862608Y-107464608D01*
X142041932Y-107246101D01*
X142175182Y-106996808D01*
X142257236Y-106726309D01*
X142278000Y-106515491D01*
X142278000Y-105574508D01*
X142257236Y-105363691D01*
X142175182Y-105093192D01*
X142041932Y-104843899D01*
X141862607Y-104625392D01*
X141644100Y-104446068D01*
X141394807Y-104312818D01*
X141124308Y-104230764D01*
X140843000Y-104203057D01*
X140561691Y-104230764D01*
X140291192Y-104312818D01*
X140041899Y-104446068D01*
X139823392Y-104625393D01*
X139644068Y-104843900D01*
X139573000Y-104976858D01*
X139501932Y-104843899D01*
X139322607Y-104625392D01*
X139104100Y-104446068D01*
X138854807Y-104312818D01*
X138584308Y-104230764D01*
X138303000Y-104203057D01*
X138021691Y-104230764D01*
X137751192Y-104312818D01*
X137501899Y-104446068D01*
X137283392Y-104625393D01*
X137104068Y-104843900D01*
X137033000Y-104976858D01*
X136961932Y-104843899D01*
X136782607Y-104625392D01*
X136564100Y-104446068D01*
X136314807Y-104312818D01*
X136044308Y-104230764D01*
X135763000Y-104203057D01*
X135481691Y-104230764D01*
X135211192Y-104312818D01*
X134961899Y-104446068D01*
X134743392Y-104625393D01*
X134564068Y-104843900D01*
X134493000Y-104976858D01*
X134421932Y-104843899D01*
X134242607Y-104625392D01*
X134024100Y-104446068D01*
X133774807Y-104312818D01*
X133504308Y-104230764D01*
X133223000Y-104203057D01*
X132941691Y-104230764D01*
X132671192Y-104312818D01*
X132421899Y-104446068D01*
X132203392Y-104625393D01*
X132024068Y-104843900D01*
X131953000Y-104976858D01*
X131881932Y-104843899D01*
X131702607Y-104625392D01*
X131484100Y-104446068D01*
X131234807Y-104312818D01*
X130964308Y-104230764D01*
X130683000Y-104203057D01*
X130401691Y-104230764D01*
X130131192Y-104312818D01*
X129881899Y-104446068D01*
X129663392Y-104625393D01*
X129484068Y-104843900D01*
X129413000Y-104976858D01*
X129341932Y-104843899D01*
X129162607Y-104625392D01*
X128944100Y-104446068D01*
X128694807Y-104312818D01*
X128424308Y-104230764D01*
X128143000Y-104203057D01*
X127861691Y-104230764D01*
X127591192Y-104312818D01*
X127341899Y-104446068D01*
X127123392Y-104625393D01*
X126944068Y-104843900D01*
X126875735Y-104971742D01*
X126725601Y-104742161D01*
X126527895Y-104540500D01*
X126294646Y-104381285D01*
X126034818Y-104270633D01*
X125952039Y-104253096D01*
X125730000Y-104375085D01*
X125476000Y-104375085D01*
X125253961Y-104253096D01*
X125171182Y-104270633D01*
X124911354Y-104381285D01*
X124678105Y-104540500D01*
X124480399Y-104742161D01*
X124330265Y-104971741D01*
X124261932Y-104843899D01*
X124082607Y-104625392D01*
X123864100Y-104446068D01*
X123614807Y-104312818D01*
X123344308Y-104230764D01*
X123063000Y-104203057D01*
X122781691Y-104230764D01*
X122511192Y-104312818D01*
X122261899Y-104446068D01*
X122043392Y-104625393D01*
X121864068Y-104843900D01*
X121730818Y-105093193D01*
X121648764Y-105363692D01*
X121628000Y-105574509D01*
X92159000Y-105574509D01*
X92159000Y-103307702D01*
X93166903Y-103307702D01*
X93238486Y-103551671D01*
X93493996Y-103672571D01*
X93768184Y-103741300D01*
X94050512Y-103755217D01*
X94330130Y-103713787D01*
X94596292Y-103618603D01*
X94721514Y-103551671D01*
X94793097Y-103307702D01*
X93980000Y-102494605D01*
X93166903Y-103307702D01*
X92159000Y-103307702D01*
X92159000Y-102385512D01*
X92539783Y-102385512D01*
X92581213Y-102665130D01*
X92676397Y-102931292D01*
X92743329Y-103056514D01*
X92987298Y-103128097D01*
X93800395Y-102315000D01*
X94159605Y-102315000D01*
X94972702Y-103128097D01*
X95216671Y-103056514D01*
X95337571Y-102801004D01*
X95406300Y-102526816D01*
X95420217Y-102244488D01*
X95379053Y-101966665D01*
X111468000Y-101966665D01*
X111468000Y-102249335D01*
X111523147Y-102526574D01*
X111631320Y-102787727D01*
X111788363Y-103022759D01*
X111988241Y-103222637D01*
X112223273Y-103379680D01*
X112484426Y-103487853D01*
X112761665Y-103543000D01*
X113044335Y-103543000D01*
X113321574Y-103487853D01*
X113582727Y-103379680D01*
X113817759Y-103222637D01*
X114017637Y-103022759D01*
X114174680Y-102787727D01*
X114282853Y-102526574D01*
X114338000Y-102249335D01*
X114338000Y-101966665D01*
X121628000Y-101966665D01*
X121628000Y-102249335D01*
X121683147Y-102526574D01*
X121791320Y-102787727D01*
X121948363Y-103022759D01*
X122148241Y-103222637D01*
X122383273Y-103379680D01*
X122644426Y-103487853D01*
X122921665Y-103543000D01*
X123204335Y-103543000D01*
X123481574Y-103487853D01*
X123742727Y-103379680D01*
X123977759Y-103222637D01*
X124177637Y-103022759D01*
X124334680Y-102787727D01*
X124442853Y-102526574D01*
X124498000Y-102249335D01*
X124498000Y-101966665D01*
X126708000Y-101966665D01*
X126708000Y-102249335D01*
X126763147Y-102526574D01*
X126871320Y-102787727D01*
X127028363Y-103022759D01*
X127228241Y-103222637D01*
X127463273Y-103379680D01*
X127724426Y-103487853D01*
X128001665Y-103543000D01*
X128284335Y-103543000D01*
X128561574Y-103487853D01*
X128822727Y-103379680D01*
X129057759Y-103222637D01*
X129257637Y-103022759D01*
X129414680Y-102787727D01*
X129522853Y-102526574D01*
X129578000Y-102249335D01*
X129578000Y-101966665D01*
X136868000Y-101966665D01*
X136868000Y-102249335D01*
X136923147Y-102526574D01*
X137031320Y-102787727D01*
X137188363Y-103022759D01*
X137388241Y-103222637D01*
X137623273Y-103379680D01*
X137884426Y-103487853D01*
X138161665Y-103543000D01*
X138444335Y-103543000D01*
X138721574Y-103487853D01*
X138982727Y-103379680D01*
X139217759Y-103222637D01*
X139417637Y-103022759D01*
X139574680Y-102787727D01*
X139682853Y-102526574D01*
X139738000Y-102249335D01*
X139738000Y-101966665D01*
X139682853Y-101689426D01*
X139574680Y-101428273D01*
X139417637Y-101193241D01*
X139217759Y-100993363D01*
X138982727Y-100836320D01*
X138721574Y-100728147D01*
X138444335Y-100673000D01*
X138161665Y-100673000D01*
X137884426Y-100728147D01*
X137623273Y-100836320D01*
X137388241Y-100993363D01*
X137188363Y-101193241D01*
X137031320Y-101428273D01*
X136923147Y-101689426D01*
X136868000Y-101966665D01*
X129578000Y-101966665D01*
X129522853Y-101689426D01*
X129414680Y-101428273D01*
X129257637Y-101193241D01*
X129057759Y-100993363D01*
X128822727Y-100836320D01*
X128561574Y-100728147D01*
X128284335Y-100673000D01*
X128001665Y-100673000D01*
X127724426Y-100728147D01*
X127463273Y-100836320D01*
X127228241Y-100993363D01*
X127028363Y-101193241D01*
X126871320Y-101428273D01*
X126763147Y-101689426D01*
X126708000Y-101966665D01*
X124498000Y-101966665D01*
X124442853Y-101689426D01*
X124334680Y-101428273D01*
X124177637Y-101193241D01*
X123977759Y-100993363D01*
X123742727Y-100836320D01*
X123481574Y-100728147D01*
X123204335Y-100673000D01*
X122921665Y-100673000D01*
X122644426Y-100728147D01*
X122383273Y-100836320D01*
X122148241Y-100993363D01*
X121948363Y-101193241D01*
X121791320Y-101428273D01*
X121683147Y-101689426D01*
X121628000Y-101966665D01*
X114338000Y-101966665D01*
X114282853Y-101689426D01*
X114174680Y-101428273D01*
X114017637Y-101193241D01*
X113817759Y-100993363D01*
X113582727Y-100836320D01*
X113321574Y-100728147D01*
X113044335Y-100673000D01*
X112761665Y-100673000D01*
X112484426Y-100728147D01*
X112223273Y-100836320D01*
X111988241Y-100993363D01*
X111788363Y-101193241D01*
X111631320Y-101428273D01*
X111523147Y-101689426D01*
X111468000Y-101966665D01*
X95379053Y-101966665D01*
X95378787Y-101964870D01*
X95283603Y-101698708D01*
X95216671Y-101573486D01*
X94972702Y-101501903D01*
X94159605Y-102315000D01*
X93800395Y-102315000D01*
X92987298Y-101501903D01*
X92743329Y-101573486D01*
X92622429Y-101828996D01*
X92553700Y-102103184D01*
X92539783Y-102385512D01*
X92159000Y-102385512D01*
X92159000Y-101322298D01*
X93166903Y-101322298D01*
X93980000Y-102135395D01*
X94793097Y-101322298D01*
X94721514Y-101078329D01*
X94466004Y-100957429D01*
X94191816Y-100888700D01*
X93909488Y-100874783D01*
X93629870Y-100916213D01*
X93363708Y-101011397D01*
X93238486Y-101078329D01*
X93166903Y-101322298D01*
X92159000Y-101322298D01*
X92159000Y-98436065D01*
X94450000Y-98436065D01*
X94450000Y-98718735D01*
X94505147Y-98995974D01*
X94613320Y-99257127D01*
X94770363Y-99492159D01*
X94970241Y-99692037D01*
X95205273Y-99849080D01*
X95466426Y-99957253D01*
X95743665Y-100012400D01*
X96026335Y-100012400D01*
X96303574Y-99957253D01*
X96564727Y-99849080D01*
X96799759Y-99692037D01*
X96999637Y-99492159D01*
X97156680Y-99257127D01*
X97264853Y-98995974D01*
X97269780Y-98971200D01*
X101101728Y-98971200D01*
X101101728Y-100571200D01*
X101113988Y-100695682D01*
X101150298Y-100815380D01*
X101209263Y-100925694D01*
X101288615Y-101022385D01*
X101385306Y-101101737D01*
X101495620Y-101160702D01*
X101615318Y-101197012D01*
X101739800Y-101209272D01*
X103339800Y-101209272D01*
X103464282Y-101197012D01*
X103583980Y-101160702D01*
X103694294Y-101101737D01*
X103790985Y-101022385D01*
X103870337Y-100925694D01*
X103929302Y-100815380D01*
X103965612Y-100695682D01*
X103977872Y-100571200D01*
X103977872Y-98971200D01*
X103965612Y-98846718D01*
X103929302Y-98727020D01*
X103870337Y-98616706D01*
X103790985Y-98520015D01*
X103694294Y-98440663D01*
X103583980Y-98381698D01*
X103484013Y-98351373D01*
X103540482Y-98345812D01*
X103660180Y-98309502D01*
X103770494Y-98250537D01*
X103867185Y-98171185D01*
X103946537Y-98074494D01*
X104005502Y-97964180D01*
X104041812Y-97844482D01*
X104043581Y-97826517D01*
X104136393Y-97939608D01*
X104354900Y-98118932D01*
X104604193Y-98252182D01*
X104874692Y-98334236D01*
X105156000Y-98361943D01*
X105437309Y-98334236D01*
X105707808Y-98252182D01*
X105957101Y-98118932D01*
X106175608Y-97939608D01*
X106354932Y-97721101D01*
X106426000Y-97588142D01*
X106497068Y-97721101D01*
X106676393Y-97939608D01*
X106894900Y-98118932D01*
X107144193Y-98252182D01*
X107414692Y-98334236D01*
X107696000Y-98361943D01*
X107977309Y-98334236D01*
X108247808Y-98252182D01*
X108497101Y-98118932D01*
X108715608Y-97939608D01*
X108894932Y-97721101D01*
X108966000Y-97588142D01*
X109037068Y-97721101D01*
X109216393Y-97939608D01*
X109434900Y-98118932D01*
X109684193Y-98252182D01*
X109954692Y-98334236D01*
X110003949Y-98339087D01*
X109741226Y-98391347D01*
X109480073Y-98499520D01*
X109245041Y-98656563D01*
X109045163Y-98856441D01*
X108888120Y-99091473D01*
X108779947Y-99352626D01*
X108724800Y-99629865D01*
X108724800Y-99912535D01*
X108779947Y-100189774D01*
X108888120Y-100450927D01*
X109045163Y-100685959D01*
X109245041Y-100885837D01*
X109480073Y-101042880D01*
X109741226Y-101151053D01*
X110018465Y-101206200D01*
X110301135Y-101206200D01*
X110578374Y-101151053D01*
X110839527Y-101042880D01*
X111074559Y-100885837D01*
X111274437Y-100685959D01*
X111431480Y-100450927D01*
X111539653Y-100189774D01*
X111594800Y-99912535D01*
X111594800Y-99629865D01*
X111539653Y-99352626D01*
X111431480Y-99091473D01*
X111274437Y-98856441D01*
X111074559Y-98656563D01*
X110839527Y-98499520D01*
X110686333Y-98436065D01*
X135217000Y-98436065D01*
X135217000Y-98718735D01*
X135272147Y-98995974D01*
X135380320Y-99257127D01*
X135537363Y-99492159D01*
X135737241Y-99692037D01*
X135972273Y-99849080D01*
X136233426Y-99957253D01*
X136510665Y-100012400D01*
X136793335Y-100012400D01*
X137070574Y-99957253D01*
X137331727Y-99849080D01*
X137566759Y-99692037D01*
X137766637Y-99492159D01*
X137923680Y-99257127D01*
X138031853Y-98995974D01*
X138087000Y-98718735D01*
X138087000Y-98436065D01*
X138031853Y-98158826D01*
X137923680Y-97897673D01*
X137766637Y-97662641D01*
X137566759Y-97462763D01*
X137331727Y-97305720D01*
X137070574Y-97197547D01*
X136793335Y-97142400D01*
X136510665Y-97142400D01*
X136233426Y-97197547D01*
X135972273Y-97305720D01*
X135737241Y-97462763D01*
X135537363Y-97662641D01*
X135380320Y-97897673D01*
X135272147Y-98158826D01*
X135217000Y-98436065D01*
X110686333Y-98436065D01*
X110578374Y-98391347D01*
X110366122Y-98349127D01*
X110517309Y-98334236D01*
X110787808Y-98252182D01*
X111037101Y-98118932D01*
X111255608Y-97939608D01*
X111434932Y-97721101D01*
X111568182Y-97471808D01*
X111650236Y-97201309D01*
X111671000Y-96990491D01*
X111671000Y-96162702D01*
X113232903Y-96162702D01*
X113304486Y-96406671D01*
X113559996Y-96527571D01*
X113834184Y-96596300D01*
X114116512Y-96610217D01*
X114396130Y-96568787D01*
X114662292Y-96473603D01*
X114787514Y-96406671D01*
X114859097Y-96162702D01*
X114046000Y-95349605D01*
X113232903Y-96162702D01*
X111671000Y-96162702D01*
X111671000Y-96049508D01*
X111650236Y-95838691D01*
X111568182Y-95568192D01*
X111434932Y-95318899D01*
X111370602Y-95240512D01*
X112605783Y-95240512D01*
X112647213Y-95520130D01*
X112742397Y-95786292D01*
X112809329Y-95911514D01*
X113053298Y-95983097D01*
X113866395Y-95170000D01*
X114225605Y-95170000D01*
X115038702Y-95983097D01*
X115282671Y-95911514D01*
X115403571Y-95656004D01*
X115472300Y-95381816D01*
X115475347Y-95320000D01*
X115782928Y-95320000D01*
X115782928Y-97720000D01*
X115795188Y-97844482D01*
X115831498Y-97964180D01*
X115890463Y-98074494D01*
X115969815Y-98171185D01*
X116066506Y-98250537D01*
X116176820Y-98309502D01*
X116296518Y-98345812D01*
X116421000Y-98358072D01*
X118021000Y-98358072D01*
X118145482Y-98345812D01*
X118265180Y-98309502D01*
X118375494Y-98250537D01*
X118472185Y-98171185D01*
X118551537Y-98074494D01*
X118610502Y-97964180D01*
X118646812Y-97844482D01*
X118648581Y-97826517D01*
X118741393Y-97939608D01*
X118959900Y-98118932D01*
X119209193Y-98252182D01*
X119479692Y-98334236D01*
X119761000Y-98361943D01*
X120042309Y-98334236D01*
X120312808Y-98252182D01*
X120562101Y-98118932D01*
X120780608Y-97939608D01*
X120959932Y-97721101D01*
X121031000Y-97588142D01*
X121102068Y-97721101D01*
X121281393Y-97939608D01*
X121499900Y-98118932D01*
X121749193Y-98252182D01*
X122019692Y-98334236D01*
X122301000Y-98361943D01*
X122582309Y-98334236D01*
X122852808Y-98252182D01*
X123102101Y-98118932D01*
X123320608Y-97939608D01*
X123499932Y-97721101D01*
X123571000Y-97588142D01*
X123642068Y-97721101D01*
X123821393Y-97939608D01*
X124039900Y-98118932D01*
X124289193Y-98252182D01*
X124559692Y-98334236D01*
X124841000Y-98361943D01*
X125122309Y-98334236D01*
X125392808Y-98252182D01*
X125642101Y-98118932D01*
X125860608Y-97939608D01*
X126039932Y-97721101D01*
X126111000Y-97588142D01*
X126182068Y-97721101D01*
X126361393Y-97939608D01*
X126579900Y-98118932D01*
X126829193Y-98252182D01*
X127099692Y-98334236D01*
X127381000Y-98361943D01*
X127662309Y-98334236D01*
X127932808Y-98252182D01*
X128182101Y-98118932D01*
X128400608Y-97939608D01*
X128579932Y-97721101D01*
X128651000Y-97588142D01*
X128722068Y-97721101D01*
X128901393Y-97939608D01*
X129119900Y-98118932D01*
X129369193Y-98252182D01*
X129639692Y-98334236D01*
X129921000Y-98361943D01*
X130202309Y-98334236D01*
X130472808Y-98252182D01*
X130722101Y-98118932D01*
X130940608Y-97939608D01*
X131119932Y-97721101D01*
X131188265Y-97593259D01*
X131338399Y-97822839D01*
X131536105Y-98024500D01*
X131769354Y-98183715D01*
X132029182Y-98294367D01*
X132111961Y-98311904D01*
X132334000Y-98189915D01*
X132334000Y-96647000D01*
X132588000Y-96647000D01*
X132588000Y-98189915D01*
X132810039Y-98311904D01*
X132892818Y-98294367D01*
X133152646Y-98183715D01*
X133385895Y-98024500D01*
X133583601Y-97822839D01*
X133738166Y-97586483D01*
X133843650Y-97324514D01*
X133896000Y-97047000D01*
X133896000Y-96647000D01*
X132588000Y-96647000D01*
X132334000Y-96647000D01*
X132314000Y-96647000D01*
X132314000Y-96393000D01*
X132334000Y-96393000D01*
X132334000Y-94850085D01*
X132588000Y-94850085D01*
X132588000Y-96393000D01*
X133896000Y-96393000D01*
X133896000Y-95993000D01*
X133843650Y-95715486D01*
X133738166Y-95453517D01*
X133583601Y-95217161D01*
X133385895Y-95015500D01*
X133152646Y-94856285D01*
X132892818Y-94745633D01*
X132810039Y-94728096D01*
X132588000Y-94850085D01*
X132334000Y-94850085D01*
X132111961Y-94728096D01*
X132029182Y-94745633D01*
X131769354Y-94856285D01*
X131536105Y-95015500D01*
X131338399Y-95217161D01*
X131188265Y-95446741D01*
X131119932Y-95318899D01*
X130940607Y-95100392D01*
X130722100Y-94921068D01*
X130472807Y-94787818D01*
X130202308Y-94705764D01*
X129921000Y-94678057D01*
X129639691Y-94705764D01*
X129369192Y-94787818D01*
X129119899Y-94921068D01*
X128901392Y-95100393D01*
X128722068Y-95318900D01*
X128651000Y-95451858D01*
X128579932Y-95318899D01*
X128400607Y-95100392D01*
X128182100Y-94921068D01*
X127932807Y-94787818D01*
X127662308Y-94705764D01*
X127381000Y-94678057D01*
X127099691Y-94705764D01*
X126829192Y-94787818D01*
X126579899Y-94921068D01*
X126361392Y-95100393D01*
X126182068Y-95318900D01*
X126111000Y-95451858D01*
X126039932Y-95318899D01*
X125860607Y-95100392D01*
X125642100Y-94921068D01*
X125392807Y-94787818D01*
X125122308Y-94705764D01*
X124841000Y-94678057D01*
X124559691Y-94705764D01*
X124289192Y-94787818D01*
X124039899Y-94921068D01*
X123821392Y-95100393D01*
X123642068Y-95318900D01*
X123571000Y-95451858D01*
X123499932Y-95318899D01*
X123320607Y-95100392D01*
X123102100Y-94921068D01*
X122852807Y-94787818D01*
X122582308Y-94705764D01*
X122301000Y-94678057D01*
X122019691Y-94705764D01*
X121749192Y-94787818D01*
X121499899Y-94921068D01*
X121281392Y-95100393D01*
X121102068Y-95318900D01*
X121031000Y-95451858D01*
X120959932Y-95318899D01*
X120780607Y-95100392D01*
X120562100Y-94921068D01*
X120312807Y-94787818D01*
X120042308Y-94705764D01*
X119761000Y-94678057D01*
X119479691Y-94705764D01*
X119209192Y-94787818D01*
X118959899Y-94921068D01*
X118741392Y-95100393D01*
X118648581Y-95213483D01*
X118646812Y-95195518D01*
X118610502Y-95075820D01*
X118551537Y-94965506D01*
X118472185Y-94868815D01*
X118375494Y-94789463D01*
X118265180Y-94730498D01*
X118145482Y-94694188D01*
X118021000Y-94681928D01*
X116421000Y-94681928D01*
X116296518Y-94694188D01*
X116176820Y-94730498D01*
X116066506Y-94789463D01*
X115969815Y-94868815D01*
X115890463Y-94965506D01*
X115831498Y-95075820D01*
X115795188Y-95195518D01*
X115782928Y-95320000D01*
X115475347Y-95320000D01*
X115486217Y-95099488D01*
X115444787Y-94819870D01*
X115349603Y-94553708D01*
X115282671Y-94428486D01*
X115038702Y-94356903D01*
X114225605Y-95170000D01*
X113866395Y-95170000D01*
X113053298Y-94356903D01*
X112809329Y-94428486D01*
X112688429Y-94683996D01*
X112619700Y-94958184D01*
X112605783Y-95240512D01*
X111370602Y-95240512D01*
X111255607Y-95100392D01*
X111037100Y-94921068D01*
X110787807Y-94787818D01*
X110517308Y-94705764D01*
X110236000Y-94678057D01*
X109954691Y-94705764D01*
X109684192Y-94787818D01*
X109434899Y-94921068D01*
X109216392Y-95100393D01*
X109037068Y-95318900D01*
X108966000Y-95451858D01*
X108894932Y-95318899D01*
X108715607Y-95100392D01*
X108497100Y-94921068D01*
X108247807Y-94787818D01*
X107977308Y-94705764D01*
X107696000Y-94678057D01*
X107414691Y-94705764D01*
X107144192Y-94787818D01*
X106894899Y-94921068D01*
X106676392Y-95100393D01*
X106497068Y-95318900D01*
X106426000Y-95451858D01*
X106354932Y-95318899D01*
X106175607Y-95100392D01*
X105957100Y-94921068D01*
X105707807Y-94787818D01*
X105437308Y-94705764D01*
X105156000Y-94678057D01*
X104874691Y-94705764D01*
X104604192Y-94787818D01*
X104354899Y-94921068D01*
X104136392Y-95100393D01*
X104043581Y-95213483D01*
X104041812Y-95195518D01*
X104005502Y-95075820D01*
X103946537Y-94965506D01*
X103867185Y-94868815D01*
X103770494Y-94789463D01*
X103660180Y-94730498D01*
X103540482Y-94694188D01*
X103416000Y-94681928D01*
X101816000Y-94681928D01*
X101691518Y-94694188D01*
X101571820Y-94730498D01*
X101461506Y-94789463D01*
X101364815Y-94868815D01*
X101285463Y-94965506D01*
X101226498Y-95075820D01*
X101190188Y-95195518D01*
X101177928Y-95320000D01*
X101177928Y-97720000D01*
X101190188Y-97844482D01*
X101226498Y-97964180D01*
X101285463Y-98074494D01*
X101364815Y-98171185D01*
X101461506Y-98250537D01*
X101571820Y-98309502D01*
X101671787Y-98339827D01*
X101615318Y-98345388D01*
X101495620Y-98381698D01*
X101385306Y-98440663D01*
X101288615Y-98520015D01*
X101209263Y-98616706D01*
X101150298Y-98727020D01*
X101113988Y-98846718D01*
X101101728Y-98971200D01*
X97269780Y-98971200D01*
X97320000Y-98718735D01*
X97320000Y-98436065D01*
X97264853Y-98158826D01*
X97156680Y-97897673D01*
X96999637Y-97662641D01*
X96799759Y-97462763D01*
X96564727Y-97305720D01*
X96303574Y-97197547D01*
X96026335Y-97142400D01*
X95743665Y-97142400D01*
X95466426Y-97197547D01*
X95205273Y-97305720D01*
X94970241Y-97462763D01*
X94770363Y-97662641D01*
X94613320Y-97897673D01*
X94505147Y-98158826D01*
X94450000Y-98436065D01*
X92159000Y-98436065D01*
X92159000Y-96162702D01*
X98627903Y-96162702D01*
X98699486Y-96406671D01*
X98954996Y-96527571D01*
X99229184Y-96596300D01*
X99511512Y-96610217D01*
X99791130Y-96568787D01*
X100057292Y-96473603D01*
X100182514Y-96406671D01*
X100254097Y-96162702D01*
X99441000Y-95349605D01*
X98627903Y-96162702D01*
X92159000Y-96162702D01*
X92159000Y-95240512D01*
X98000783Y-95240512D01*
X98042213Y-95520130D01*
X98137397Y-95786292D01*
X98204329Y-95911514D01*
X98448298Y-95983097D01*
X99261395Y-95170000D01*
X99620605Y-95170000D01*
X100433702Y-95983097D01*
X100677671Y-95911514D01*
X100798571Y-95656004D01*
X100867300Y-95381816D01*
X100881217Y-95099488D01*
X100839787Y-94819870D01*
X100744603Y-94553708D01*
X100677671Y-94428486D01*
X100433702Y-94356903D01*
X99620605Y-95170000D01*
X99261395Y-95170000D01*
X98448298Y-94356903D01*
X98204329Y-94428486D01*
X98083429Y-94683996D01*
X98014700Y-94958184D01*
X98000783Y-95240512D01*
X92159000Y-95240512D01*
X92159000Y-94177298D01*
X98627903Y-94177298D01*
X99441000Y-94990395D01*
X100254097Y-94177298D01*
X113232903Y-94177298D01*
X114046000Y-94990395D01*
X114859097Y-94177298D01*
X114787514Y-93933329D01*
X114532004Y-93812429D01*
X114257816Y-93743700D01*
X113975488Y-93729783D01*
X113695870Y-93771213D01*
X113429708Y-93866397D01*
X113304486Y-93933329D01*
X113232903Y-94177298D01*
X100254097Y-94177298D01*
X100182514Y-93933329D01*
X99927004Y-93812429D01*
X99652816Y-93743700D01*
X99370488Y-93729783D01*
X99090870Y-93771213D01*
X98824708Y-93866397D01*
X98699486Y-93933329D01*
X98627903Y-94177298D01*
X92159000Y-94177298D01*
X92159000Y-90028665D01*
X98006000Y-90028665D01*
X98006000Y-90311335D01*
X98061147Y-90588574D01*
X98169320Y-90849727D01*
X98326363Y-91084759D01*
X98526241Y-91284637D01*
X98761273Y-91441680D01*
X99022426Y-91549853D01*
X99299665Y-91605000D01*
X99582335Y-91605000D01*
X99859574Y-91549853D01*
X100120727Y-91441680D01*
X100355759Y-91284637D01*
X100555637Y-91084759D01*
X100712680Y-90849727D01*
X100820853Y-90588574D01*
X100876000Y-90311335D01*
X100876000Y-90028665D01*
X100820853Y-89751426D01*
X100712680Y-89490273D01*
X100555637Y-89255241D01*
X100355759Y-89055363D01*
X100120727Y-88898320D01*
X99859574Y-88790147D01*
X99582335Y-88735000D01*
X99299665Y-88735000D01*
X99022426Y-88790147D01*
X98761273Y-88898320D01*
X98526241Y-89055363D01*
X98326363Y-89255241D01*
X98169320Y-89490273D01*
X98061147Y-89751426D01*
X98006000Y-90028665D01*
X92159000Y-90028665D01*
X92159000Y-88276065D01*
X94450000Y-88276065D01*
X94450000Y-88558735D01*
X94505147Y-88835974D01*
X94613320Y-89097127D01*
X94770363Y-89332159D01*
X94970241Y-89532037D01*
X95205273Y-89689080D01*
X95466426Y-89797253D01*
X95743665Y-89852400D01*
X96026335Y-89852400D01*
X96303574Y-89797253D01*
X96564727Y-89689080D01*
X96799759Y-89532037D01*
X96999637Y-89332159D01*
X97156680Y-89097127D01*
X97264853Y-88835974D01*
X97320000Y-88558735D01*
X97320000Y-88429509D01*
X101181000Y-88429509D01*
X101181000Y-89370492D01*
X101201764Y-89581309D01*
X101283818Y-89851808D01*
X101417068Y-90101101D01*
X101596393Y-90319608D01*
X101814900Y-90498932D01*
X102064193Y-90632182D01*
X102334692Y-90714236D01*
X102616000Y-90741943D01*
X102897309Y-90714236D01*
X103167808Y-90632182D01*
X103417101Y-90498932D01*
X103635608Y-90319608D01*
X103814932Y-90101101D01*
X103886000Y-89968142D01*
X103957068Y-90101101D01*
X104136393Y-90319608D01*
X104354900Y-90498932D01*
X104604193Y-90632182D01*
X104874692Y-90714236D01*
X105156000Y-90741943D01*
X105437309Y-90714236D01*
X105707808Y-90632182D01*
X105957101Y-90498932D01*
X106175608Y-90319608D01*
X106354932Y-90101101D01*
X106426000Y-89968142D01*
X106497068Y-90101101D01*
X106676393Y-90319608D01*
X106894900Y-90498932D01*
X107144193Y-90632182D01*
X107414692Y-90714236D01*
X107696000Y-90741943D01*
X107977309Y-90714236D01*
X108247808Y-90632182D01*
X108497101Y-90498932D01*
X108715608Y-90319608D01*
X108894932Y-90101101D01*
X108963265Y-89973259D01*
X109113399Y-90202839D01*
X109311105Y-90404500D01*
X109544354Y-90563715D01*
X109804182Y-90674367D01*
X109886961Y-90691904D01*
X110109000Y-90569915D01*
X110109000Y-89027000D01*
X110363000Y-89027000D01*
X110363000Y-90569915D01*
X110585039Y-90691904D01*
X110667818Y-90674367D01*
X110927646Y-90563715D01*
X111160895Y-90404500D01*
X111358601Y-90202839D01*
X111472502Y-90028665D01*
X112611000Y-90028665D01*
X112611000Y-90311335D01*
X112666147Y-90588574D01*
X112774320Y-90849727D01*
X112931363Y-91084759D01*
X113131241Y-91284637D01*
X113366273Y-91441680D01*
X113627426Y-91549853D01*
X113904665Y-91605000D01*
X114187335Y-91605000D01*
X114464574Y-91549853D01*
X114725727Y-91441680D01*
X114960759Y-91284637D01*
X115160637Y-91084759D01*
X115317680Y-90849727D01*
X115425853Y-90588574D01*
X115481000Y-90311335D01*
X115481000Y-90028665D01*
X115425853Y-89751426D01*
X115317680Y-89490273D01*
X115160637Y-89255241D01*
X114960759Y-89055363D01*
X114725727Y-88898320D01*
X114464574Y-88790147D01*
X114187335Y-88735000D01*
X113904665Y-88735000D01*
X113627426Y-88790147D01*
X113366273Y-88898320D01*
X113131241Y-89055363D01*
X112931363Y-89255241D01*
X112774320Y-89490273D01*
X112666147Y-89751426D01*
X112611000Y-90028665D01*
X111472502Y-90028665D01*
X111513166Y-89966483D01*
X111618650Y-89704514D01*
X111671000Y-89427000D01*
X111671000Y-89027000D01*
X110363000Y-89027000D01*
X110109000Y-89027000D01*
X110089000Y-89027000D01*
X110089000Y-88773000D01*
X110109000Y-88773000D01*
X110109000Y-87230085D01*
X110363000Y-87230085D01*
X110363000Y-88773000D01*
X111671000Y-88773000D01*
X111671000Y-88429509D01*
X115786000Y-88429509D01*
X115786000Y-89370492D01*
X115806764Y-89581309D01*
X115888818Y-89851808D01*
X116022068Y-90101101D01*
X116201393Y-90319608D01*
X116419900Y-90498932D01*
X116669193Y-90632182D01*
X116939692Y-90714236D01*
X117221000Y-90741943D01*
X117502309Y-90714236D01*
X117772808Y-90632182D01*
X118022101Y-90498932D01*
X118240608Y-90319608D01*
X118419932Y-90101101D01*
X118491000Y-89968142D01*
X118562068Y-90101101D01*
X118741393Y-90319608D01*
X118959900Y-90498932D01*
X119209193Y-90632182D01*
X119479692Y-90714236D01*
X119761000Y-90741943D01*
X120042309Y-90714236D01*
X120312808Y-90632182D01*
X120562101Y-90498932D01*
X120780608Y-90319608D01*
X120959932Y-90101101D01*
X121031000Y-89968142D01*
X121102068Y-90101101D01*
X121281393Y-90319608D01*
X121499900Y-90498932D01*
X121749193Y-90632182D01*
X122019692Y-90714236D01*
X122301000Y-90741943D01*
X122582309Y-90714236D01*
X122852808Y-90632182D01*
X123102101Y-90498932D01*
X123320608Y-90319608D01*
X123499932Y-90101101D01*
X123571000Y-89968142D01*
X123642068Y-90101101D01*
X123821393Y-90319608D01*
X124039900Y-90498932D01*
X124289193Y-90632182D01*
X124559692Y-90714236D01*
X124841000Y-90741943D01*
X125122309Y-90714236D01*
X125392808Y-90632182D01*
X125642101Y-90498932D01*
X125860608Y-90319608D01*
X126039932Y-90101101D01*
X126111000Y-89968142D01*
X126182068Y-90101101D01*
X126361393Y-90319608D01*
X126579900Y-90498932D01*
X126829193Y-90632182D01*
X127099692Y-90714236D01*
X127381000Y-90741943D01*
X127662309Y-90714236D01*
X127932808Y-90632182D01*
X128182101Y-90498932D01*
X128400608Y-90319608D01*
X128579932Y-90101101D01*
X128651000Y-89968142D01*
X128722068Y-90101101D01*
X128901393Y-90319608D01*
X129119900Y-90498932D01*
X129369193Y-90632182D01*
X129639692Y-90714236D01*
X129921000Y-90741943D01*
X130202309Y-90714236D01*
X130472808Y-90632182D01*
X130722101Y-90498932D01*
X130940608Y-90319608D01*
X131119932Y-90101101D01*
X131191000Y-89968142D01*
X131262068Y-90101101D01*
X131441393Y-90319608D01*
X131659900Y-90498932D01*
X131909193Y-90632182D01*
X132179692Y-90714236D01*
X132461000Y-90741943D01*
X132742309Y-90714236D01*
X133012808Y-90632182D01*
X133262101Y-90498932D01*
X133480608Y-90319608D01*
X133659932Y-90101101D01*
X133793182Y-89851808D01*
X133875236Y-89581309D01*
X133896000Y-89370491D01*
X133896000Y-88429508D01*
X133880887Y-88276065D01*
X135217000Y-88276065D01*
X135217000Y-88558735D01*
X135272147Y-88835974D01*
X135380320Y-89097127D01*
X135537363Y-89332159D01*
X135737241Y-89532037D01*
X135972273Y-89689080D01*
X136233426Y-89797253D01*
X136510665Y-89852400D01*
X136793335Y-89852400D01*
X137070574Y-89797253D01*
X137331727Y-89689080D01*
X137566759Y-89532037D01*
X137766637Y-89332159D01*
X137923680Y-89097127D01*
X138031853Y-88835974D01*
X138087000Y-88558735D01*
X138087000Y-88276065D01*
X138031853Y-87998826D01*
X137923680Y-87737673D01*
X137766637Y-87502641D01*
X137566759Y-87302763D01*
X137331727Y-87145720D01*
X137070574Y-87037547D01*
X136793335Y-86982400D01*
X136510665Y-86982400D01*
X136233426Y-87037547D01*
X135972273Y-87145720D01*
X135737241Y-87302763D01*
X135537363Y-87502641D01*
X135380320Y-87737673D01*
X135272147Y-87998826D01*
X135217000Y-88276065D01*
X133880887Y-88276065D01*
X133875236Y-88218691D01*
X133793182Y-87948192D01*
X133659932Y-87698899D01*
X133480607Y-87480392D01*
X133262100Y-87301068D01*
X133012807Y-87167818D01*
X132742308Y-87085764D01*
X132461000Y-87058057D01*
X132179691Y-87085764D01*
X131909192Y-87167818D01*
X131659899Y-87301068D01*
X131441392Y-87480393D01*
X131262068Y-87698900D01*
X131191000Y-87831858D01*
X131119932Y-87698899D01*
X130940607Y-87480392D01*
X130722100Y-87301068D01*
X130472807Y-87167818D01*
X130202308Y-87085764D01*
X129921000Y-87058057D01*
X129639691Y-87085764D01*
X129369192Y-87167818D01*
X129119899Y-87301068D01*
X128901392Y-87480393D01*
X128722068Y-87698900D01*
X128651000Y-87831858D01*
X128579932Y-87698899D01*
X128400607Y-87480392D01*
X128182100Y-87301068D01*
X127932807Y-87167818D01*
X127662308Y-87085764D01*
X127381000Y-87058057D01*
X127099691Y-87085764D01*
X126829192Y-87167818D01*
X126579899Y-87301068D01*
X126361392Y-87480393D01*
X126182068Y-87698900D01*
X126111000Y-87831858D01*
X126039932Y-87698899D01*
X125860607Y-87480392D01*
X125642100Y-87301068D01*
X125392807Y-87167818D01*
X125122308Y-87085764D01*
X124841000Y-87058057D01*
X124559691Y-87085764D01*
X124289192Y-87167818D01*
X124039899Y-87301068D01*
X123821392Y-87480393D01*
X123642068Y-87698900D01*
X123571000Y-87831858D01*
X123499932Y-87698899D01*
X123320607Y-87480392D01*
X123102100Y-87301068D01*
X122852807Y-87167818D01*
X122582308Y-87085764D01*
X122301000Y-87058057D01*
X122019691Y-87085764D01*
X121749192Y-87167818D01*
X121499899Y-87301068D01*
X121281392Y-87480393D01*
X121102068Y-87698900D01*
X121031000Y-87831858D01*
X120959932Y-87698899D01*
X120780607Y-87480392D01*
X120562100Y-87301068D01*
X120312807Y-87167818D01*
X120042308Y-87085764D01*
X119761000Y-87058057D01*
X119479691Y-87085764D01*
X119209192Y-87167818D01*
X118959899Y-87301068D01*
X118741392Y-87480393D01*
X118562068Y-87698900D01*
X118491000Y-87831858D01*
X118419932Y-87698899D01*
X118240607Y-87480392D01*
X118022100Y-87301068D01*
X117772807Y-87167818D01*
X117502308Y-87085764D01*
X117221000Y-87058057D01*
X116939691Y-87085764D01*
X116669192Y-87167818D01*
X116419899Y-87301068D01*
X116201392Y-87480393D01*
X116022068Y-87698900D01*
X115888818Y-87948193D01*
X115806764Y-88218692D01*
X115786000Y-88429509D01*
X111671000Y-88429509D01*
X111671000Y-88373000D01*
X111618650Y-88095486D01*
X111513166Y-87833517D01*
X111358601Y-87597161D01*
X111160895Y-87395500D01*
X110927646Y-87236285D01*
X110667818Y-87125633D01*
X110585039Y-87108096D01*
X110363000Y-87230085D01*
X110109000Y-87230085D01*
X109886961Y-87108096D01*
X109804182Y-87125633D01*
X109544354Y-87236285D01*
X109311105Y-87395500D01*
X109113399Y-87597161D01*
X108963265Y-87826741D01*
X108894932Y-87698899D01*
X108715607Y-87480392D01*
X108497100Y-87301068D01*
X108247807Y-87167818D01*
X107977308Y-87085764D01*
X107696000Y-87058057D01*
X107414691Y-87085764D01*
X107144192Y-87167818D01*
X106894899Y-87301068D01*
X106676392Y-87480393D01*
X106497068Y-87698900D01*
X106426000Y-87831858D01*
X106354932Y-87698899D01*
X106175607Y-87480392D01*
X105957100Y-87301068D01*
X105707807Y-87167818D01*
X105437308Y-87085764D01*
X105156000Y-87058057D01*
X104874691Y-87085764D01*
X104604192Y-87167818D01*
X104354899Y-87301068D01*
X104136392Y-87480393D01*
X103957068Y-87698900D01*
X103886000Y-87831858D01*
X103814932Y-87698899D01*
X103635607Y-87480392D01*
X103417100Y-87301068D01*
X103167807Y-87167818D01*
X102897308Y-87085764D01*
X102616000Y-87058057D01*
X102334691Y-87085764D01*
X102064192Y-87167818D01*
X101814899Y-87301068D01*
X101596392Y-87480393D01*
X101417068Y-87698900D01*
X101283818Y-87948193D01*
X101201764Y-88218692D01*
X101181000Y-88429509D01*
X97320000Y-88429509D01*
X97320000Y-88276065D01*
X97264853Y-87998826D01*
X97156680Y-87737673D01*
X96999637Y-87502641D01*
X96799759Y-87302763D01*
X96564727Y-87145720D01*
X96303574Y-87037547D01*
X96026335Y-86982400D01*
X95743665Y-86982400D01*
X95466426Y-87037547D01*
X95205273Y-87145720D01*
X94970241Y-87302763D01*
X94770363Y-87502641D01*
X94613320Y-87737673D01*
X94505147Y-87998826D01*
X94450000Y-88276065D01*
X92159000Y-88276065D01*
X92159000Y-81880592D01*
X101415000Y-81880592D01*
X101415000Y-82631407D01*
X101437210Y-82856912D01*
X101524983Y-83146260D01*
X101667519Y-83412926D01*
X101859339Y-83646661D01*
X102093073Y-83838481D01*
X102359739Y-83981017D01*
X102649087Y-84068790D01*
X102950000Y-84098427D01*
X103250912Y-84068790D01*
X103540260Y-83981017D01*
X103806926Y-83838481D01*
X104040661Y-83646661D01*
X104232481Y-83412927D01*
X104375017Y-83146261D01*
X104462790Y-82856913D01*
X104485000Y-82631408D01*
X104485000Y-81880593D01*
X104485000Y-81880592D01*
X111415000Y-81880592D01*
X111415000Y-82631407D01*
X111437210Y-82856912D01*
X111524983Y-83146260D01*
X111667519Y-83412926D01*
X111859339Y-83646661D01*
X112093073Y-83838481D01*
X112359739Y-83981017D01*
X112649087Y-84068790D01*
X112950000Y-84098427D01*
X113250912Y-84068790D01*
X113540260Y-83981017D01*
X113806926Y-83838481D01*
X114040661Y-83646661D01*
X114232481Y-83412927D01*
X114375017Y-83146261D01*
X114462790Y-82856913D01*
X114485000Y-82631408D01*
X114485000Y-81880593D01*
X114485000Y-81880592D01*
X121735000Y-81880592D01*
X121735000Y-82631407D01*
X121757210Y-82856912D01*
X121844983Y-83146260D01*
X121987519Y-83412926D01*
X122179339Y-83646661D01*
X122413073Y-83838481D01*
X122679739Y-83981017D01*
X122969087Y-84068790D01*
X123270000Y-84098427D01*
X123570912Y-84068790D01*
X123860260Y-83981017D01*
X124126926Y-83838481D01*
X124360661Y-83646661D01*
X124552481Y-83412927D01*
X124695017Y-83146261D01*
X124782790Y-82856913D01*
X124805000Y-82631408D01*
X124805000Y-81880593D01*
X124805000Y-81880592D01*
X131735000Y-81880592D01*
X131735000Y-82631407D01*
X131757210Y-82856912D01*
X131844983Y-83146260D01*
X131987519Y-83412926D01*
X132179339Y-83646661D01*
X132413073Y-83838481D01*
X132679739Y-83981017D01*
X132969087Y-84068790D01*
X133270000Y-84098427D01*
X133570912Y-84068790D01*
X133860260Y-83981017D01*
X134126926Y-83838481D01*
X134360661Y-83646661D01*
X134552481Y-83412927D01*
X134695017Y-83146261D01*
X134782790Y-82856913D01*
X134805000Y-82631408D01*
X134805000Y-81880593D01*
X134782790Y-81655088D01*
X134695017Y-81365739D01*
X134552481Y-81099073D01*
X134360661Y-80865339D01*
X134126927Y-80673519D01*
X133860261Y-80530983D01*
X133570913Y-80443210D01*
X133270000Y-80413573D01*
X132969088Y-80443210D01*
X132679740Y-80530983D01*
X132413074Y-80673519D01*
X132179339Y-80865339D01*
X131987519Y-81099073D01*
X131844983Y-81365739D01*
X131757210Y-81655087D01*
X131735000Y-81880592D01*
X124805000Y-81880592D01*
X124782790Y-81655088D01*
X124695017Y-81365739D01*
X124552481Y-81099073D01*
X124360661Y-80865339D01*
X124126927Y-80673519D01*
X123860261Y-80530983D01*
X123570913Y-80443210D01*
X123270000Y-80413573D01*
X122969088Y-80443210D01*
X122679740Y-80530983D01*
X122413074Y-80673519D01*
X122179339Y-80865339D01*
X121987519Y-81099073D01*
X121844983Y-81365739D01*
X121757210Y-81655087D01*
X121735000Y-81880592D01*
X114485000Y-81880592D01*
X114462790Y-81655088D01*
X114375017Y-81365739D01*
X114232481Y-81099073D01*
X114040661Y-80865339D01*
X113806927Y-80673519D01*
X113540261Y-80530983D01*
X113250913Y-80443210D01*
X112950000Y-80413573D01*
X112649088Y-80443210D01*
X112359740Y-80530983D01*
X112093074Y-80673519D01*
X111859339Y-80865339D01*
X111667519Y-81099073D01*
X111524983Y-81365739D01*
X111437210Y-81655087D01*
X111415000Y-81880592D01*
X104485000Y-81880592D01*
X104462790Y-81655088D01*
X104375017Y-81365739D01*
X104232481Y-81099073D01*
X104040661Y-80865339D01*
X103806927Y-80673519D01*
X103540261Y-80530983D01*
X103250913Y-80443210D01*
X102950000Y-80413573D01*
X102649088Y-80443210D01*
X102359740Y-80530983D01*
X102093074Y-80673519D01*
X101859339Y-80865339D01*
X101667519Y-81099073D01*
X101524983Y-81365739D01*
X101437210Y-81655087D01*
X101415000Y-81880592D01*
X92159000Y-81880592D01*
X92159000Y-79380592D01*
X98915000Y-79380592D01*
X98915000Y-80131407D01*
X98937210Y-80356912D01*
X99024983Y-80646260D01*
X99167519Y-80912926D01*
X99359339Y-81146661D01*
X99593073Y-81338481D01*
X99859739Y-81481017D01*
X100149087Y-81568790D01*
X100450000Y-81598427D01*
X100750912Y-81568790D01*
X101040260Y-81481017D01*
X101306926Y-81338481D01*
X101540661Y-81146661D01*
X101732481Y-80912927D01*
X101875017Y-80646261D01*
X101962790Y-80356913D01*
X101985000Y-80131408D01*
X101985000Y-79380593D01*
X101985000Y-79380592D01*
X106415000Y-79380592D01*
X106415000Y-80131407D01*
X106437210Y-80356912D01*
X106524983Y-80646260D01*
X106667519Y-80912926D01*
X106859339Y-81146661D01*
X107093073Y-81338481D01*
X107359739Y-81481017D01*
X107649087Y-81568790D01*
X107950000Y-81598427D01*
X108250912Y-81568790D01*
X108540260Y-81481017D01*
X108806926Y-81338481D01*
X109040661Y-81146661D01*
X109232481Y-80912927D01*
X109375017Y-80646261D01*
X109462790Y-80356913D01*
X109485000Y-80131408D01*
X109485000Y-79380593D01*
X109485000Y-79380592D01*
X113915000Y-79380592D01*
X113915000Y-80131407D01*
X113937210Y-80356912D01*
X114024983Y-80646260D01*
X114167519Y-80912926D01*
X114359339Y-81146661D01*
X114593073Y-81338481D01*
X114859739Y-81481017D01*
X115149087Y-81568790D01*
X115450000Y-81598427D01*
X115750912Y-81568790D01*
X116040260Y-81481017D01*
X116306926Y-81338481D01*
X116540661Y-81146661D01*
X116732481Y-80912927D01*
X116875017Y-80646261D01*
X116962790Y-80356913D01*
X116985000Y-80131408D01*
X116985000Y-79380593D01*
X116985000Y-79380592D01*
X119235000Y-79380592D01*
X119235000Y-80131407D01*
X119257210Y-80356912D01*
X119344983Y-80646260D01*
X119487519Y-80912926D01*
X119679339Y-81146661D01*
X119913073Y-81338481D01*
X120179739Y-81481017D01*
X120469087Y-81568790D01*
X120770000Y-81598427D01*
X121070912Y-81568790D01*
X121360260Y-81481017D01*
X121626926Y-81338481D01*
X121860661Y-81146661D01*
X122052481Y-80912927D01*
X122195017Y-80646261D01*
X122282790Y-80356913D01*
X122305000Y-80131408D01*
X122305000Y-79883000D01*
X126735000Y-79883000D01*
X126735000Y-80183000D01*
X126789271Y-80480023D01*
X126900446Y-80760751D01*
X127064252Y-81014396D01*
X127274394Y-81231210D01*
X127522796Y-81402862D01*
X127799913Y-81522755D01*
X127905260Y-81547036D01*
X128143000Y-81426378D01*
X128143000Y-79883000D01*
X128397000Y-79883000D01*
X128397000Y-81426378D01*
X128634740Y-81547036D01*
X128740087Y-81522755D01*
X129017204Y-81402862D01*
X129265606Y-81231210D01*
X129475748Y-81014396D01*
X129639554Y-80760751D01*
X129750729Y-80480023D01*
X129805000Y-80183000D01*
X129805000Y-79883000D01*
X128397000Y-79883000D01*
X128143000Y-79883000D01*
X126735000Y-79883000D01*
X122305000Y-79883000D01*
X122305000Y-79380593D01*
X122299919Y-79329000D01*
X126735000Y-79329000D01*
X126735000Y-79629000D01*
X128143000Y-79629000D01*
X128143000Y-78085622D01*
X128397000Y-78085622D01*
X128397000Y-79629000D01*
X129805000Y-79629000D01*
X129805000Y-79380592D01*
X134235000Y-79380592D01*
X134235000Y-80131407D01*
X134257210Y-80356912D01*
X134344983Y-80646260D01*
X134487519Y-80912926D01*
X134679339Y-81146661D01*
X134913073Y-81338481D01*
X135179739Y-81481017D01*
X135469087Y-81568790D01*
X135770000Y-81598427D01*
X136070912Y-81568790D01*
X136360260Y-81481017D01*
X136626926Y-81338481D01*
X136860661Y-81146661D01*
X137052481Y-80912927D01*
X137195017Y-80646261D01*
X137282790Y-80356913D01*
X137305000Y-80131408D01*
X137305000Y-79380593D01*
X137282790Y-79155088D01*
X137195017Y-78865739D01*
X137052481Y-78599073D01*
X136860661Y-78365339D01*
X136626927Y-78173519D01*
X136360261Y-78030983D01*
X136070913Y-77943210D01*
X135770000Y-77913573D01*
X135469088Y-77943210D01*
X135179740Y-78030983D01*
X134913074Y-78173519D01*
X134679339Y-78365339D01*
X134487519Y-78599073D01*
X134344983Y-78865739D01*
X134257210Y-79155087D01*
X134235000Y-79380592D01*
X129805000Y-79380592D01*
X129805000Y-79329000D01*
X129750729Y-79031977D01*
X129639554Y-78751249D01*
X129475748Y-78497604D01*
X129265606Y-78280790D01*
X129017204Y-78109138D01*
X128740087Y-77989245D01*
X128634740Y-77964964D01*
X128397000Y-78085622D01*
X128143000Y-78085622D01*
X127905260Y-77964964D01*
X127799913Y-77989245D01*
X127522796Y-78109138D01*
X127274394Y-78280790D01*
X127064252Y-78497604D01*
X126900446Y-78751249D01*
X126789271Y-79031977D01*
X126735000Y-79329000D01*
X122299919Y-79329000D01*
X122282790Y-79155088D01*
X122195017Y-78865739D01*
X122052481Y-78599073D01*
X121860661Y-78365339D01*
X121626927Y-78173519D01*
X121360261Y-78030983D01*
X121070913Y-77943210D01*
X120770000Y-77913573D01*
X120469088Y-77943210D01*
X120179740Y-78030983D01*
X119913074Y-78173519D01*
X119679339Y-78365339D01*
X119487519Y-78599073D01*
X119344983Y-78865739D01*
X119257210Y-79155087D01*
X119235000Y-79380592D01*
X116985000Y-79380592D01*
X116962790Y-79155088D01*
X116875017Y-78865739D01*
X116732481Y-78599073D01*
X116540661Y-78365339D01*
X116306927Y-78173519D01*
X116040261Y-78030983D01*
X115750913Y-77943210D01*
X115450000Y-77913573D01*
X115149088Y-77943210D01*
X114859740Y-78030983D01*
X114593074Y-78173519D01*
X114359339Y-78365339D01*
X114167519Y-78599073D01*
X114024983Y-78865739D01*
X113937210Y-79155087D01*
X113915000Y-79380592D01*
X109485000Y-79380592D01*
X109462790Y-79155088D01*
X109375017Y-78865739D01*
X109232481Y-78599073D01*
X109040661Y-78365339D01*
X108806927Y-78173519D01*
X108540261Y-78030983D01*
X108250913Y-77943210D01*
X107950000Y-77913573D01*
X107649088Y-77943210D01*
X107359740Y-78030983D01*
X107093074Y-78173519D01*
X106859339Y-78365339D01*
X106667519Y-78599073D01*
X106524983Y-78865739D01*
X106437210Y-79155087D01*
X106415000Y-79380592D01*
X101985000Y-79380592D01*
X101962790Y-79155088D01*
X101875017Y-78865739D01*
X101732481Y-78599073D01*
X101540661Y-78365339D01*
X101306927Y-78173519D01*
X101040261Y-78030983D01*
X100750913Y-77943210D01*
X100450000Y-77913573D01*
X100149088Y-77943210D01*
X99859740Y-78030983D01*
X99593074Y-78173519D01*
X99359339Y-78365339D01*
X99167519Y-78599073D01*
X99024983Y-78865739D01*
X98937210Y-79155087D01*
X98915000Y-79380592D01*
X92159000Y-79380592D01*
X92159000Y-73171098D01*
X92175000Y-73171098D01*
X92175000Y-73640902D01*
X92266654Y-74101679D01*
X92446440Y-74535721D01*
X92707450Y-74926349D01*
X93039651Y-75258550D01*
X93430279Y-75519560D01*
X93864321Y-75699346D01*
X94325098Y-75791000D01*
X94794902Y-75791000D01*
X95255679Y-75699346D01*
X95689721Y-75519560D01*
X96080349Y-75258550D01*
X96412550Y-74926349D01*
X96673560Y-74535721D01*
X96853346Y-74101679D01*
X96945000Y-73640902D01*
X96945000Y-73171098D01*
X139275000Y-73171098D01*
X139275000Y-73640902D01*
X139366654Y-74101679D01*
X139546440Y-74535721D01*
X139807450Y-74926349D01*
X140139651Y-75258550D01*
X140530279Y-75519560D01*
X140964321Y-75699346D01*
X141425098Y-75791000D01*
X141894902Y-75791000D01*
X142355679Y-75699346D01*
X142789721Y-75519560D01*
X143180349Y-75258550D01*
X143512550Y-74926349D01*
X143773560Y-74535721D01*
X143953346Y-74101679D01*
X144045000Y-73640902D01*
X144045000Y-73171098D01*
X143953346Y-72710321D01*
X143773560Y-72276279D01*
X143512550Y-71885651D01*
X143180349Y-71553450D01*
X142789721Y-71292440D01*
X142355679Y-71112654D01*
X141894902Y-71021000D01*
X141425098Y-71021000D01*
X140964321Y-71112654D01*
X140530279Y-71292440D01*
X140139651Y-71553450D01*
X139807450Y-71885651D01*
X139546440Y-72276279D01*
X139366654Y-72710321D01*
X139275000Y-73171098D01*
X96945000Y-73171098D01*
X96853346Y-72710321D01*
X96673560Y-72276279D01*
X96412550Y-71885651D01*
X96080349Y-71553450D01*
X95689721Y-71292440D01*
X95255679Y-71112654D01*
X94794902Y-71021000D01*
X94325098Y-71021000D01*
X93864321Y-71112654D01*
X93430279Y-71292440D01*
X93039651Y-71553450D01*
X92707450Y-71885651D01*
X92446440Y-72276279D01*
X92266654Y-72710321D01*
X92175000Y-73171098D01*
X92159000Y-73171098D01*
X92159000Y-69756000D01*
X101107573Y-69756000D01*
X101137210Y-70056913D01*
X101224983Y-70346261D01*
X101367519Y-70612927D01*
X101559339Y-70846661D01*
X101793073Y-71038481D01*
X102059739Y-71181017D01*
X102349087Y-71268790D01*
X102574592Y-71291000D01*
X103325408Y-71291000D01*
X103550913Y-71268790D01*
X103840261Y-71181017D01*
X104106927Y-71038481D01*
X104340661Y-70846661D01*
X104532481Y-70612927D01*
X104675017Y-70346261D01*
X104762790Y-70056913D01*
X104792427Y-69756000D01*
X111107573Y-69756000D01*
X111137210Y-70056913D01*
X111224983Y-70346261D01*
X111367519Y-70612927D01*
X111559339Y-70846661D01*
X111793073Y-71038481D01*
X112059739Y-71181017D01*
X112349087Y-71268790D01*
X112574592Y-71291000D01*
X113325408Y-71291000D01*
X113550913Y-71268790D01*
X113840261Y-71181017D01*
X114106927Y-71038481D01*
X114340661Y-70846661D01*
X114532481Y-70612927D01*
X114675017Y-70346261D01*
X114762790Y-70056913D01*
X114792427Y-69756000D01*
X121427573Y-69756000D01*
X121457210Y-70056913D01*
X121544983Y-70346261D01*
X121687519Y-70612927D01*
X121879339Y-70846661D01*
X122113073Y-71038481D01*
X122379739Y-71181017D01*
X122669087Y-71268790D01*
X122894592Y-71291000D01*
X123645408Y-71291000D01*
X123870913Y-71268790D01*
X124160261Y-71181017D01*
X124426927Y-71038481D01*
X124660661Y-70846661D01*
X124852481Y-70612927D01*
X124995017Y-70346261D01*
X125082790Y-70056913D01*
X125112427Y-69756000D01*
X131427573Y-69756000D01*
X131457210Y-70056913D01*
X131544983Y-70346261D01*
X131687519Y-70612927D01*
X131879339Y-70846661D01*
X132113073Y-71038481D01*
X132379739Y-71181017D01*
X132669087Y-71268790D01*
X132894592Y-71291000D01*
X133645408Y-71291000D01*
X133870913Y-71268790D01*
X134160261Y-71181017D01*
X134426927Y-71038481D01*
X134660661Y-70846661D01*
X134852481Y-70612927D01*
X134995017Y-70346261D01*
X135082790Y-70056913D01*
X135112427Y-69756000D01*
X135082790Y-69455087D01*
X134995017Y-69165739D01*
X134852481Y-68899073D01*
X134660661Y-68665339D01*
X134426927Y-68473519D01*
X134160261Y-68330983D01*
X133870913Y-68243210D01*
X133645408Y-68221000D01*
X132894592Y-68221000D01*
X132669087Y-68243210D01*
X132379739Y-68330983D01*
X132113073Y-68473519D01*
X131879339Y-68665339D01*
X131687519Y-68899073D01*
X131544983Y-69165739D01*
X131457210Y-69455087D01*
X131427573Y-69756000D01*
X125112427Y-69756000D01*
X125082790Y-69455087D01*
X124995017Y-69165739D01*
X124852481Y-68899073D01*
X124660661Y-68665339D01*
X124426927Y-68473519D01*
X124160261Y-68330983D01*
X123870913Y-68243210D01*
X123645408Y-68221000D01*
X122894592Y-68221000D01*
X122669087Y-68243210D01*
X122379739Y-68330983D01*
X122113073Y-68473519D01*
X121879339Y-68665339D01*
X121687519Y-68899073D01*
X121544983Y-69165739D01*
X121457210Y-69455087D01*
X121427573Y-69756000D01*
X114792427Y-69756000D01*
X114762790Y-69455087D01*
X114675017Y-69165739D01*
X114532481Y-68899073D01*
X114340661Y-68665339D01*
X114106927Y-68473519D01*
X113840261Y-68330983D01*
X113550913Y-68243210D01*
X113325408Y-68221000D01*
X112574592Y-68221000D01*
X112349087Y-68243210D01*
X112059739Y-68330983D01*
X111793073Y-68473519D01*
X111559339Y-68665339D01*
X111367519Y-68899073D01*
X111224983Y-69165739D01*
X111137210Y-69455087D01*
X111107573Y-69756000D01*
X104792427Y-69756000D01*
X104762790Y-69455087D01*
X104675017Y-69165739D01*
X104532481Y-68899073D01*
X104340661Y-68665339D01*
X104106927Y-68473519D01*
X103840261Y-68330983D01*
X103550913Y-68243210D01*
X103325408Y-68221000D01*
X102574592Y-68221000D01*
X102349087Y-68243210D01*
X102059739Y-68330983D01*
X101793073Y-68473519D01*
X101559339Y-68665339D01*
X101367519Y-68899073D01*
X101224983Y-69165739D01*
X101137210Y-69455087D01*
X101107573Y-69756000D01*
X92159000Y-69756000D01*
X92159000Y-68360720D01*
X92173005Y-68217891D01*
X92204402Y-68113899D01*
X92255399Y-68017986D01*
X92324055Y-67933806D01*
X92407758Y-67864560D01*
X92503311Y-67812895D01*
X92607078Y-67780773D01*
X92747641Y-67766000D01*
X143466280Y-67766000D01*
X143609109Y-67780005D01*
G04 #@! TA.AperFunction,Conductor*
D22*
G36*
X143609109Y-67780005D02*
G01*
X143713101Y-67811402D01*
X143809014Y-67862399D01*
X143893194Y-67931055D01*
X143962440Y-68014758D01*
X144014105Y-68110311D01*
X144046227Y-68214078D01*
X144061001Y-68354650D01*
X144061000Y-116040517D01*
X144044514Y-115984329D01*
X143789004Y-115863429D01*
X143514816Y-115794700D01*
X143232488Y-115780783D01*
X142952870Y-115822213D01*
X142686708Y-115917397D01*
X142561486Y-115984329D01*
X142489903Y-116228298D01*
X143303000Y-117041395D01*
X143317143Y-117027253D01*
X143496748Y-117206858D01*
X143482605Y-117221000D01*
X143496748Y-117235143D01*
X143317143Y-117414748D01*
X143303000Y-117400605D01*
X142489903Y-118213702D01*
X142561486Y-118457671D01*
X142816996Y-118578571D01*
X143091184Y-118647300D01*
X143373512Y-118661217D01*
X143653130Y-118619787D01*
X143919292Y-118524603D01*
X144044514Y-118457671D01*
X144061000Y-118401483D01*
X144061000Y-124482440D01*
X143658446Y-124079886D01*
X143144979Y-123736799D01*
X142574446Y-123500476D01*
X141968771Y-123380000D01*
X141351229Y-123380000D01*
X140745554Y-123500476D01*
X140175021Y-123736799D01*
X139661554Y-124079886D01*
X139224886Y-124516554D01*
X138881799Y-125030021D01*
X138645476Y-125600554D01*
X138525000Y-126206229D01*
X138525000Y-126823771D01*
X138645476Y-127429446D01*
X138881799Y-127999979D01*
X139224886Y-128513446D01*
X139661554Y-128950114D01*
X140175021Y-129293201D01*
X140745554Y-129529524D01*
X141351229Y-129650000D01*
X141968771Y-129650000D01*
X142574446Y-129529524D01*
X143144979Y-129293201D01*
X143658446Y-128950114D01*
X144061000Y-128547560D01*
X144061000Y-131786480D01*
X144046995Y-131929309D01*
X144015599Y-132033299D01*
X143964601Y-132129213D01*
X143895941Y-132213399D01*
X143812243Y-132282639D01*
X143716689Y-132334305D01*
X143612922Y-132366427D01*
X143472359Y-132381200D01*
X92753720Y-132381200D01*
X92610891Y-132367195D01*
X92506901Y-132335799D01*
X92410987Y-132284801D01*
X92326801Y-132216141D01*
X92257561Y-132132443D01*
X92205895Y-132036889D01*
X92173773Y-131933122D01*
X92159000Y-131792559D01*
X92159000Y-128547560D01*
X92561554Y-128950114D01*
X93075021Y-129293201D01*
X93645554Y-129529524D01*
X94251229Y-129650000D01*
X94868771Y-129650000D01*
X95474446Y-129529524D01*
X96044979Y-129293201D01*
X96558446Y-128950114D01*
X96995114Y-128513446D01*
X97338201Y-127999979D01*
X97423659Y-127793665D01*
X101440000Y-127793665D01*
X101440000Y-128076335D01*
X101495147Y-128353574D01*
X101603320Y-128614727D01*
X101760363Y-128849759D01*
X101960241Y-129049637D01*
X102195273Y-129206680D01*
X102456426Y-129314853D01*
X102733665Y-129370000D01*
X103016335Y-129370000D01*
X103293574Y-129314853D01*
X103554727Y-129206680D01*
X103789759Y-129049637D01*
X103989637Y-128849759D01*
X104146680Y-128614727D01*
X104254853Y-128353574D01*
X104260000Y-128327699D01*
X104265147Y-128353574D01*
X104373320Y-128614727D01*
X104530363Y-128849759D01*
X104730241Y-129049637D01*
X104965273Y-129206680D01*
X105226426Y-129314853D01*
X105503665Y-129370000D01*
X105786335Y-129370000D01*
X106063574Y-129314853D01*
X106324727Y-129206680D01*
X106559759Y-129049637D01*
X106759637Y-128849759D01*
X106916680Y-128614727D01*
X107024853Y-128353574D01*
X107030000Y-128327699D01*
X107035147Y-128353574D01*
X107143320Y-128614727D01*
X107300363Y-128849759D01*
X107500241Y-129049637D01*
X107735273Y-129206680D01*
X107996426Y-129314853D01*
X108273665Y-129370000D01*
X108556335Y-129370000D01*
X108833574Y-129314853D01*
X109094727Y-129206680D01*
X109329759Y-129049637D01*
X109529637Y-128849759D01*
X109686680Y-128614727D01*
X109794853Y-128353574D01*
X109800000Y-128327699D01*
X109805147Y-128353574D01*
X109913320Y-128614727D01*
X110070363Y-128849759D01*
X110270241Y-129049637D01*
X110505273Y-129206680D01*
X110766426Y-129314853D01*
X111043665Y-129370000D01*
X111326335Y-129370000D01*
X111603574Y-129314853D01*
X111864727Y-129206680D01*
X112099759Y-129049637D01*
X112299637Y-128849759D01*
X112456680Y-128614727D01*
X112564853Y-128353574D01*
X112570000Y-128327699D01*
X112575147Y-128353574D01*
X112683320Y-128614727D01*
X112840363Y-128849759D01*
X113040241Y-129049637D01*
X113275273Y-129206680D01*
X113536426Y-129314853D01*
X113813665Y-129370000D01*
X114096335Y-129370000D01*
X114373574Y-129314853D01*
X114634727Y-129206680D01*
X114869759Y-129049637D01*
X115069637Y-128849759D01*
X115226680Y-128614727D01*
X115334853Y-128353574D01*
X115340000Y-128327699D01*
X115345147Y-128353574D01*
X115453320Y-128614727D01*
X115610363Y-128849759D01*
X115810241Y-129049637D01*
X116045273Y-129206680D01*
X116306426Y-129314853D01*
X116583665Y-129370000D01*
X116866335Y-129370000D01*
X117143574Y-129314853D01*
X117404727Y-129206680D01*
X117639759Y-129049637D01*
X117839637Y-128849759D01*
X117996680Y-128614727D01*
X118104853Y-128353574D01*
X118110000Y-128327699D01*
X118115147Y-128353574D01*
X118223320Y-128614727D01*
X118380363Y-128849759D01*
X118580241Y-129049637D01*
X118815273Y-129206680D01*
X119076426Y-129314853D01*
X119353665Y-129370000D01*
X119636335Y-129370000D01*
X119913574Y-129314853D01*
X120174727Y-129206680D01*
X120409759Y-129049637D01*
X120609637Y-128849759D01*
X120766680Y-128614727D01*
X120874853Y-128353574D01*
X120880000Y-128327699D01*
X120885147Y-128353574D01*
X120993320Y-128614727D01*
X121150363Y-128849759D01*
X121350241Y-129049637D01*
X121585273Y-129206680D01*
X121846426Y-129314853D01*
X122123665Y-129370000D01*
X122406335Y-129370000D01*
X122683574Y-129314853D01*
X122944727Y-129206680D01*
X123179759Y-129049637D01*
X123379637Y-128849759D01*
X123536680Y-128614727D01*
X123644853Y-128353574D01*
X123650000Y-128327699D01*
X123655147Y-128353574D01*
X123763320Y-128614727D01*
X123920363Y-128849759D01*
X124120241Y-129049637D01*
X124355273Y-129206680D01*
X124616426Y-129314853D01*
X124893665Y-129370000D01*
X125176335Y-129370000D01*
X125453574Y-129314853D01*
X125714727Y-129206680D01*
X125949759Y-129049637D01*
X126149637Y-128849759D01*
X126306680Y-128614727D01*
X126414853Y-128353574D01*
X126420000Y-128327699D01*
X126425147Y-128353574D01*
X126533320Y-128614727D01*
X126690363Y-128849759D01*
X126890241Y-129049637D01*
X127125273Y-129206680D01*
X127386426Y-129314853D01*
X127663665Y-129370000D01*
X127946335Y-129370000D01*
X128223574Y-129314853D01*
X128484727Y-129206680D01*
X128719759Y-129049637D01*
X128919637Y-128849759D01*
X129076680Y-128614727D01*
X129184853Y-128353574D01*
X129190000Y-128327699D01*
X129195147Y-128353574D01*
X129303320Y-128614727D01*
X129460363Y-128849759D01*
X129660241Y-129049637D01*
X129895273Y-129206680D01*
X130156426Y-129314853D01*
X130433665Y-129370000D01*
X130716335Y-129370000D01*
X130993574Y-129314853D01*
X131254727Y-129206680D01*
X131489759Y-129049637D01*
X131689637Y-128849759D01*
X131846680Y-128614727D01*
X131954853Y-128353574D01*
X131960000Y-128327699D01*
X131965147Y-128353574D01*
X132073320Y-128614727D01*
X132230363Y-128849759D01*
X132430241Y-129049637D01*
X132665273Y-129206680D01*
X132926426Y-129314853D01*
X133203665Y-129370000D01*
X133486335Y-129370000D01*
X133763574Y-129314853D01*
X134024727Y-129206680D01*
X134259759Y-129049637D01*
X134459637Y-128849759D01*
X134616680Y-128614727D01*
X134724853Y-128353574D01*
X134780000Y-128076335D01*
X134780000Y-127793665D01*
X134724853Y-127516426D01*
X134616680Y-127255273D01*
X134459637Y-127020241D01*
X134259759Y-126820363D01*
X134024727Y-126663320D01*
X133763574Y-126555147D01*
X133486335Y-126500000D01*
X133203665Y-126500000D01*
X132926426Y-126555147D01*
X132665273Y-126663320D01*
X132430241Y-126820363D01*
X132230363Y-127020241D01*
X132073320Y-127255273D01*
X131965147Y-127516426D01*
X131960000Y-127542301D01*
X131954853Y-127516426D01*
X131846680Y-127255273D01*
X131689637Y-127020241D01*
X131489759Y-126820363D01*
X131254727Y-126663320D01*
X130993574Y-126555147D01*
X130716335Y-126500000D01*
X130433665Y-126500000D01*
X130156426Y-126555147D01*
X129895273Y-126663320D01*
X129660241Y-126820363D01*
X129460363Y-127020241D01*
X129303320Y-127255273D01*
X129195147Y-127516426D01*
X129190000Y-127542301D01*
X129184853Y-127516426D01*
X129076680Y-127255273D01*
X128919637Y-127020241D01*
X128719759Y-126820363D01*
X128484727Y-126663320D01*
X128223574Y-126555147D01*
X127946335Y-126500000D01*
X127663665Y-126500000D01*
X127386426Y-126555147D01*
X127125273Y-126663320D01*
X126890241Y-126820363D01*
X126690363Y-127020241D01*
X126533320Y-127255273D01*
X126425147Y-127516426D01*
X126420000Y-127542301D01*
X126414853Y-127516426D01*
X126306680Y-127255273D01*
X126149637Y-127020241D01*
X125949759Y-126820363D01*
X125714727Y-126663320D01*
X125453574Y-126555147D01*
X125176335Y-126500000D01*
X124893665Y-126500000D01*
X124616426Y-126555147D01*
X124355273Y-126663320D01*
X124120241Y-126820363D01*
X123920363Y-127020241D01*
X123763320Y-127255273D01*
X123655147Y-127516426D01*
X123650000Y-127542301D01*
X123644853Y-127516426D01*
X123536680Y-127255273D01*
X123379637Y-127020241D01*
X123179759Y-126820363D01*
X122944727Y-126663320D01*
X122683574Y-126555147D01*
X122406335Y-126500000D01*
X122123665Y-126500000D01*
X121846426Y-126555147D01*
X121585273Y-126663320D01*
X121350241Y-126820363D01*
X121150363Y-127020241D01*
X120993320Y-127255273D01*
X120885147Y-127516426D01*
X120880000Y-127542301D01*
X120874853Y-127516426D01*
X120766680Y-127255273D01*
X120609637Y-127020241D01*
X120409759Y-126820363D01*
X120174727Y-126663320D01*
X119913574Y-126555147D01*
X119636335Y-126500000D01*
X119353665Y-126500000D01*
X119076426Y-126555147D01*
X118815273Y-126663320D01*
X118580241Y-126820363D01*
X118380363Y-127020241D01*
X118223320Y-127255273D01*
X118115147Y-127516426D01*
X118110000Y-127542301D01*
X118104853Y-127516426D01*
X117996680Y-127255273D01*
X117839637Y-127020241D01*
X117639759Y-126820363D01*
X117404727Y-126663320D01*
X117143574Y-126555147D01*
X116866335Y-126500000D01*
X116583665Y-126500000D01*
X116306426Y-126555147D01*
X116045273Y-126663320D01*
X115810241Y-126820363D01*
X115610363Y-127020241D01*
X115453320Y-127255273D01*
X115345147Y-127516426D01*
X115340000Y-127542301D01*
X115334853Y-127516426D01*
X115226680Y-127255273D01*
X115069637Y-127020241D01*
X114869759Y-126820363D01*
X114634727Y-126663320D01*
X114373574Y-126555147D01*
X114096335Y-126500000D01*
X113813665Y-126500000D01*
X113536426Y-126555147D01*
X113275273Y-126663320D01*
X113040241Y-126820363D01*
X112840363Y-127020241D01*
X112683320Y-127255273D01*
X112575147Y-127516426D01*
X112570000Y-127542301D01*
X112564853Y-127516426D01*
X112456680Y-127255273D01*
X112299637Y-127020241D01*
X112099759Y-126820363D01*
X111864727Y-126663320D01*
X111603574Y-126555147D01*
X111326335Y-126500000D01*
X111043665Y-126500000D01*
X110766426Y-126555147D01*
X110505273Y-126663320D01*
X110270241Y-126820363D01*
X110070363Y-127020241D01*
X109913320Y-127255273D01*
X109805147Y-127516426D01*
X109800000Y-127542301D01*
X109794853Y-127516426D01*
X109686680Y-127255273D01*
X109529637Y-127020241D01*
X109329759Y-126820363D01*
X109094727Y-126663320D01*
X108833574Y-126555147D01*
X108556335Y-126500000D01*
X108273665Y-126500000D01*
X107996426Y-126555147D01*
X107735273Y-126663320D01*
X107500241Y-126820363D01*
X107300363Y-127020241D01*
X107143320Y-127255273D01*
X107035147Y-127516426D01*
X107030000Y-127542301D01*
X107024853Y-127516426D01*
X106916680Y-127255273D01*
X106759637Y-127020241D01*
X106559759Y-126820363D01*
X106324727Y-126663320D01*
X106063574Y-126555147D01*
X105786335Y-126500000D01*
X105503665Y-126500000D01*
X105226426Y-126555147D01*
X104965273Y-126663320D01*
X104730241Y-126820363D01*
X104530363Y-127020241D01*
X104373320Y-127255273D01*
X104265147Y-127516426D01*
X104260000Y-127542301D01*
X104254853Y-127516426D01*
X104146680Y-127255273D01*
X103989637Y-127020241D01*
X103789759Y-126820363D01*
X103554727Y-126663320D01*
X103293574Y-126555147D01*
X103016335Y-126500000D01*
X102733665Y-126500000D01*
X102456426Y-126555147D01*
X102195273Y-126663320D01*
X101960241Y-126820363D01*
X101760363Y-127020241D01*
X101603320Y-127255273D01*
X101495147Y-127516426D01*
X101440000Y-127793665D01*
X97423659Y-127793665D01*
X97574524Y-127429446D01*
X97695000Y-126823771D01*
X97695000Y-126206229D01*
X97574524Y-125600554D01*
X97338201Y-125030021D01*
X97287182Y-124953665D01*
X100055000Y-124953665D01*
X100055000Y-125236335D01*
X100110147Y-125513574D01*
X100218320Y-125774727D01*
X100375363Y-126009759D01*
X100575241Y-126209637D01*
X100810273Y-126366680D01*
X101071426Y-126474853D01*
X101348665Y-126530000D01*
X101631335Y-126530000D01*
X101908574Y-126474853D01*
X102169727Y-126366680D01*
X102404759Y-126209637D01*
X102604637Y-126009759D01*
X102761680Y-125774727D01*
X102869853Y-125513574D01*
X102875000Y-125487699D01*
X102880147Y-125513574D01*
X102988320Y-125774727D01*
X103145363Y-126009759D01*
X103345241Y-126209637D01*
X103580273Y-126366680D01*
X103841426Y-126474853D01*
X104118665Y-126530000D01*
X104401335Y-126530000D01*
X104678574Y-126474853D01*
X104939727Y-126366680D01*
X105174759Y-126209637D01*
X105374637Y-126009759D01*
X105531680Y-125774727D01*
X105639853Y-125513574D01*
X105645000Y-125487699D01*
X105650147Y-125513574D01*
X105758320Y-125774727D01*
X105915363Y-126009759D01*
X106115241Y-126209637D01*
X106350273Y-126366680D01*
X106611426Y-126474853D01*
X106888665Y-126530000D01*
X107171335Y-126530000D01*
X107448574Y-126474853D01*
X107709727Y-126366680D01*
X107944759Y-126209637D01*
X108144637Y-126009759D01*
X108301680Y-125774727D01*
X108409853Y-125513574D01*
X108415000Y-125487699D01*
X108420147Y-125513574D01*
X108528320Y-125774727D01*
X108685363Y-126009759D01*
X108885241Y-126209637D01*
X109120273Y-126366680D01*
X109381426Y-126474853D01*
X109658665Y-126530000D01*
X109941335Y-126530000D01*
X110218574Y-126474853D01*
X110479727Y-126366680D01*
X110714759Y-126209637D01*
X110914637Y-126009759D01*
X111071680Y-125774727D01*
X111179853Y-125513574D01*
X111185000Y-125487699D01*
X111190147Y-125513574D01*
X111298320Y-125774727D01*
X111455363Y-126009759D01*
X111655241Y-126209637D01*
X111890273Y-126366680D01*
X112151426Y-126474853D01*
X112428665Y-126530000D01*
X112711335Y-126530000D01*
X112988574Y-126474853D01*
X113249727Y-126366680D01*
X113484759Y-126209637D01*
X113684637Y-126009759D01*
X113841680Y-125774727D01*
X113949853Y-125513574D01*
X113955000Y-125487699D01*
X113960147Y-125513574D01*
X114068320Y-125774727D01*
X114225363Y-126009759D01*
X114425241Y-126209637D01*
X114660273Y-126366680D01*
X114921426Y-126474853D01*
X115198665Y-126530000D01*
X115481335Y-126530000D01*
X115758574Y-126474853D01*
X116019727Y-126366680D01*
X116254759Y-126209637D01*
X116376694Y-126087702D01*
X117296903Y-126087702D01*
X117368486Y-126331671D01*
X117623996Y-126452571D01*
X117898184Y-126521300D01*
X118180512Y-126535217D01*
X118460130Y-126493787D01*
X118726292Y-126398603D01*
X118851514Y-126331671D01*
X118923097Y-126087702D01*
X118110000Y-125274605D01*
X117296903Y-126087702D01*
X116376694Y-126087702D01*
X116454637Y-126009759D01*
X116611680Y-125774727D01*
X116719853Y-125513574D01*
X116725513Y-125485118D01*
X116806397Y-125711292D01*
X116873329Y-125836514D01*
X117117298Y-125908097D01*
X117930395Y-125095000D01*
X118289605Y-125095000D01*
X119102702Y-125908097D01*
X119346671Y-125836514D01*
X119467571Y-125581004D01*
X119493212Y-125478711D01*
X119500147Y-125513574D01*
X119608320Y-125774727D01*
X119765363Y-126009759D01*
X119965241Y-126209637D01*
X120200273Y-126366680D01*
X120461426Y-126474853D01*
X120738665Y-126530000D01*
X121021335Y-126530000D01*
X121298574Y-126474853D01*
X121559727Y-126366680D01*
X121794759Y-126209637D01*
X121994637Y-126009759D01*
X122151680Y-125774727D01*
X122259853Y-125513574D01*
X122265000Y-125487699D01*
X122270147Y-125513574D01*
X122378320Y-125774727D01*
X122535363Y-126009759D01*
X122735241Y-126209637D01*
X122970273Y-126366680D01*
X123231426Y-126474853D01*
X123508665Y-126530000D01*
X123791335Y-126530000D01*
X124068574Y-126474853D01*
X124329727Y-126366680D01*
X124564759Y-126209637D01*
X124764637Y-126009759D01*
X124921680Y-125774727D01*
X125029853Y-125513574D01*
X125035000Y-125487699D01*
X125040147Y-125513574D01*
X125148320Y-125774727D01*
X125305363Y-126009759D01*
X125505241Y-126209637D01*
X125740273Y-126366680D01*
X126001426Y-126474853D01*
X126278665Y-126530000D01*
X126561335Y-126530000D01*
X126838574Y-126474853D01*
X127099727Y-126366680D01*
X127334759Y-126209637D01*
X127534637Y-126009759D01*
X127691680Y-125774727D01*
X127799853Y-125513574D01*
X127805000Y-125487699D01*
X127810147Y-125513574D01*
X127918320Y-125774727D01*
X128075363Y-126009759D01*
X128275241Y-126209637D01*
X128510273Y-126366680D01*
X128771426Y-126474853D01*
X129048665Y-126530000D01*
X129331335Y-126530000D01*
X129608574Y-126474853D01*
X129869727Y-126366680D01*
X130104759Y-126209637D01*
X130304637Y-126009759D01*
X130461680Y-125774727D01*
X130569853Y-125513574D01*
X130575000Y-125487699D01*
X130580147Y-125513574D01*
X130688320Y-125774727D01*
X130845363Y-126009759D01*
X131045241Y-126209637D01*
X131280273Y-126366680D01*
X131541426Y-126474853D01*
X131818665Y-126530000D01*
X132101335Y-126530000D01*
X132378574Y-126474853D01*
X132639727Y-126366680D01*
X132874759Y-126209637D01*
X133074637Y-126009759D01*
X133231680Y-125774727D01*
X133291928Y-125629275D01*
X133291928Y-125895000D01*
X133304188Y-126019482D01*
X133340498Y-126139180D01*
X133399463Y-126249494D01*
X133478815Y-126346185D01*
X133575506Y-126425537D01*
X133685820Y-126484502D01*
X133805518Y-126520812D01*
X133930000Y-126533072D01*
X135530000Y-126533072D01*
X135654482Y-126520812D01*
X135774180Y-126484502D01*
X135884494Y-126425537D01*
X135981185Y-126346185D01*
X136060537Y-126249494D01*
X136119502Y-126139180D01*
X136155812Y-126019482D01*
X136168072Y-125895000D01*
X136168072Y-124295000D01*
X136155812Y-124170518D01*
X136119502Y-124050820D01*
X136060537Y-123940506D01*
X135981185Y-123843815D01*
X135884494Y-123764463D01*
X135774180Y-123705498D01*
X135654482Y-123669188D01*
X135530000Y-123656928D01*
X133930000Y-123656928D01*
X133805518Y-123669188D01*
X133685820Y-123705498D01*
X133575506Y-123764463D01*
X133478815Y-123843815D01*
X133399463Y-123940506D01*
X133340498Y-124050820D01*
X133304188Y-124170518D01*
X133291928Y-124295000D01*
X133291928Y-124560725D01*
X133231680Y-124415273D01*
X133074637Y-124180241D01*
X132874759Y-123980363D01*
X132639727Y-123823320D01*
X132378574Y-123715147D01*
X132101335Y-123660000D01*
X131818665Y-123660000D01*
X131541426Y-123715147D01*
X131280273Y-123823320D01*
X131045241Y-123980363D01*
X130845363Y-124180241D01*
X130688320Y-124415273D01*
X130580147Y-124676426D01*
X130575000Y-124702301D01*
X130569853Y-124676426D01*
X130461680Y-124415273D01*
X130304637Y-124180241D01*
X130104759Y-123980363D01*
X129869727Y-123823320D01*
X129608574Y-123715147D01*
X129331335Y-123660000D01*
X129048665Y-123660000D01*
X128771426Y-123715147D01*
X128510273Y-123823320D01*
X128275241Y-123980363D01*
X128075363Y-124180241D01*
X127918320Y-124415273D01*
X127810147Y-124676426D01*
X127805000Y-124702301D01*
X127799853Y-124676426D01*
X127691680Y-124415273D01*
X127534637Y-124180241D01*
X127334759Y-123980363D01*
X127099727Y-123823320D01*
X126838574Y-123715147D01*
X126561335Y-123660000D01*
X126278665Y-123660000D01*
X126001426Y-123715147D01*
X125740273Y-123823320D01*
X125505241Y-123980363D01*
X125305363Y-124180241D01*
X125148320Y-124415273D01*
X125040147Y-124676426D01*
X125035000Y-124702301D01*
X125029853Y-124676426D01*
X124921680Y-124415273D01*
X124764637Y-124180241D01*
X124564759Y-123980363D01*
X124329727Y-123823320D01*
X124068574Y-123715147D01*
X123791335Y-123660000D01*
X123508665Y-123660000D01*
X123231426Y-123715147D01*
X122970273Y-123823320D01*
X122735241Y-123980363D01*
X122535363Y-124180241D01*
X122378320Y-124415273D01*
X122270147Y-124676426D01*
X122265000Y-124702301D01*
X122259853Y-124676426D01*
X122151680Y-124415273D01*
X121994637Y-124180241D01*
X121794759Y-123980363D01*
X121559727Y-123823320D01*
X121298574Y-123715147D01*
X121021335Y-123660000D01*
X120738665Y-123660000D01*
X120461426Y-123715147D01*
X120200273Y-123823320D01*
X119965241Y-123980363D01*
X119765363Y-124180241D01*
X119608320Y-124415273D01*
X119500147Y-124676426D01*
X119494487Y-124704882D01*
X119413603Y-124478708D01*
X119346671Y-124353486D01*
X119102702Y-124281903D01*
X118289605Y-125095000D01*
X117930395Y-125095000D01*
X117117298Y-124281903D01*
X116873329Y-124353486D01*
X116752429Y-124608996D01*
X116726788Y-124711289D01*
X116719853Y-124676426D01*
X116611680Y-124415273D01*
X116454637Y-124180241D01*
X116376694Y-124102298D01*
X117296903Y-124102298D01*
X118110000Y-124915395D01*
X118923097Y-124102298D01*
X118851514Y-123858329D01*
X118596004Y-123737429D01*
X118321816Y-123668700D01*
X118039488Y-123654783D01*
X117759870Y-123696213D01*
X117493708Y-123791397D01*
X117368486Y-123858329D01*
X117296903Y-124102298D01*
X116376694Y-124102298D01*
X116254759Y-123980363D01*
X116019727Y-123823320D01*
X115758574Y-123715147D01*
X115481335Y-123660000D01*
X115198665Y-123660000D01*
X114921426Y-123715147D01*
X114660273Y-123823320D01*
X114425241Y-123980363D01*
X114225363Y-124180241D01*
X114068320Y-124415273D01*
X113960147Y-124676426D01*
X113955000Y-124702301D01*
X113949853Y-124676426D01*
X113841680Y-124415273D01*
X113684637Y-124180241D01*
X113484759Y-123980363D01*
X113249727Y-123823320D01*
X112988574Y-123715147D01*
X112711335Y-123660000D01*
X112428665Y-123660000D01*
X112151426Y-123715147D01*
X111890273Y-123823320D01*
X111655241Y-123980363D01*
X111455363Y-124180241D01*
X111298320Y-124415273D01*
X111190147Y-124676426D01*
X111185000Y-124702301D01*
X111179853Y-124676426D01*
X111071680Y-124415273D01*
X110914637Y-124180241D01*
X110714759Y-123980363D01*
X110479727Y-123823320D01*
X110218574Y-123715147D01*
X109941335Y-123660000D01*
X109658665Y-123660000D01*
X109381426Y-123715147D01*
X109120273Y-123823320D01*
X108885241Y-123980363D01*
X108685363Y-124180241D01*
X108528320Y-124415273D01*
X108420147Y-124676426D01*
X108415000Y-124702301D01*
X108409853Y-124676426D01*
X108301680Y-124415273D01*
X108144637Y-124180241D01*
X107944759Y-123980363D01*
X107709727Y-123823320D01*
X107448574Y-123715147D01*
X107171335Y-123660000D01*
X106888665Y-123660000D01*
X106611426Y-123715147D01*
X106350273Y-123823320D01*
X106115241Y-123980363D01*
X105915363Y-124180241D01*
X105758320Y-124415273D01*
X105650147Y-124676426D01*
X105645000Y-124702301D01*
X105639853Y-124676426D01*
X105531680Y-124415273D01*
X105374637Y-124180241D01*
X105174759Y-123980363D01*
X104939727Y-123823320D01*
X104678574Y-123715147D01*
X104401335Y-123660000D01*
X104118665Y-123660000D01*
X103841426Y-123715147D01*
X103580273Y-123823320D01*
X103345241Y-123980363D01*
X103145363Y-124180241D01*
X102988320Y-124415273D01*
X102880147Y-124676426D01*
X102875000Y-124702301D01*
X102869853Y-124676426D01*
X102761680Y-124415273D01*
X102604637Y-124180241D01*
X102404759Y-123980363D01*
X102169727Y-123823320D01*
X101908574Y-123715147D01*
X101631335Y-123660000D01*
X101348665Y-123660000D01*
X101071426Y-123715147D01*
X100810273Y-123823320D01*
X100575241Y-123980363D01*
X100375363Y-124180241D01*
X100218320Y-124415273D01*
X100110147Y-124676426D01*
X100055000Y-124953665D01*
X97287182Y-124953665D01*
X96995114Y-124516554D01*
X96558446Y-124079886D01*
X96044979Y-123736799D01*
X95474446Y-123500476D01*
X94868771Y-123380000D01*
X94251229Y-123380000D01*
X93645554Y-123500476D01*
X93075021Y-123736799D01*
X92561554Y-124079886D01*
X92159000Y-124482440D01*
X92159000Y-118387702D01*
X93166903Y-118387702D01*
X93238486Y-118631671D01*
X93493996Y-118752571D01*
X93768184Y-118821300D01*
X94050512Y-118835217D01*
X94330130Y-118793787D01*
X94596292Y-118698603D01*
X94721514Y-118631671D01*
X94793097Y-118387702D01*
X93980000Y-117574605D01*
X93166903Y-118387702D01*
X92159000Y-118387702D01*
X92159000Y-117465512D01*
X92539783Y-117465512D01*
X92581213Y-117745130D01*
X92676397Y-118011292D01*
X92743329Y-118136514D01*
X92987298Y-118208097D01*
X93800395Y-117395000D01*
X94159605Y-117395000D01*
X94972702Y-118208097D01*
X95216671Y-118136514D01*
X95337571Y-117881004D01*
X95406300Y-117606816D01*
X95420217Y-117324488D01*
X95383943Y-117079665D01*
X114024500Y-117079665D01*
X114024500Y-117362335D01*
X114079647Y-117639574D01*
X114187820Y-117900727D01*
X114344863Y-118135759D01*
X114544741Y-118335637D01*
X114779773Y-118492680D01*
X115040926Y-118600853D01*
X115318165Y-118656000D01*
X115600835Y-118656000D01*
X115878074Y-118600853D01*
X116139227Y-118492680D01*
X116374259Y-118335637D01*
X116574137Y-118135759D01*
X116731180Y-117900727D01*
X116839353Y-117639574D01*
X116894500Y-117362335D01*
X116894500Y-117079665D01*
X119024500Y-117079665D01*
X119024500Y-117362335D01*
X119079647Y-117639574D01*
X119187820Y-117900727D01*
X119344863Y-118135759D01*
X119544741Y-118335637D01*
X119779773Y-118492680D01*
X120040926Y-118600853D01*
X120318165Y-118656000D01*
X120600835Y-118656000D01*
X120878074Y-118600853D01*
X121139227Y-118492680D01*
X121374259Y-118335637D01*
X121574137Y-118135759D01*
X121731180Y-117900727D01*
X121761250Y-117828132D01*
X121791320Y-117900727D01*
X121948363Y-118135759D01*
X122148241Y-118335637D01*
X122383273Y-118492680D01*
X122644426Y-118600853D01*
X122921665Y-118656000D01*
X123204335Y-118656000D01*
X123481574Y-118600853D01*
X123742727Y-118492680D01*
X123977759Y-118335637D01*
X124177637Y-118135759D01*
X124334680Y-117900727D01*
X124442853Y-117639574D01*
X124498000Y-117362335D01*
X124498000Y-117079665D01*
X126628000Y-117079665D01*
X126628000Y-117362335D01*
X126683147Y-117639574D01*
X126791320Y-117900727D01*
X126948363Y-118135759D01*
X127148241Y-118335637D01*
X127383273Y-118492680D01*
X127644426Y-118600853D01*
X127921665Y-118656000D01*
X128204335Y-118656000D01*
X128481574Y-118600853D01*
X128742727Y-118492680D01*
X128977759Y-118335637D01*
X129177637Y-118135759D01*
X129334680Y-117900727D01*
X129373000Y-117808214D01*
X129411320Y-117900727D01*
X129568363Y-118135759D01*
X129768241Y-118335637D01*
X130003273Y-118492680D01*
X130264426Y-118600853D01*
X130541665Y-118656000D01*
X130824335Y-118656000D01*
X131101574Y-118600853D01*
X131362727Y-118492680D01*
X131597759Y-118335637D01*
X131797637Y-118135759D01*
X131954680Y-117900727D01*
X132062853Y-117639574D01*
X132118000Y-117362335D01*
X132118000Y-117079665D01*
X134248000Y-117079665D01*
X134248000Y-117362335D01*
X134303147Y-117639574D01*
X134411320Y-117900727D01*
X134568363Y-118135759D01*
X134768241Y-118335637D01*
X135003273Y-118492680D01*
X135264426Y-118600853D01*
X135541665Y-118656000D01*
X135824335Y-118656000D01*
X136101574Y-118600853D01*
X136362727Y-118492680D01*
X136597759Y-118335637D01*
X136797637Y-118135759D01*
X136954680Y-117900727D01*
X136993000Y-117808214D01*
X137031320Y-117900727D01*
X137188363Y-118135759D01*
X137388241Y-118335637D01*
X137623273Y-118492680D01*
X137884426Y-118600853D01*
X138161665Y-118656000D01*
X138444335Y-118656000D01*
X138721574Y-118600853D01*
X138982727Y-118492680D01*
X139217759Y-118335637D01*
X139417637Y-118135759D01*
X139574680Y-117900727D01*
X139682853Y-117639574D01*
X139738000Y-117362335D01*
X139738000Y-117291512D01*
X141862783Y-117291512D01*
X141904213Y-117571130D01*
X141999397Y-117837292D01*
X142066329Y-117962514D01*
X142310298Y-118034097D01*
X143123395Y-117221000D01*
X142310298Y-116407903D01*
X142066329Y-116479486D01*
X141945429Y-116734996D01*
X141876700Y-117009184D01*
X141862783Y-117291512D01*
X139738000Y-117291512D01*
X139738000Y-117079665D01*
X139682853Y-116802426D01*
X139574680Y-116541273D01*
X139417637Y-116306241D01*
X139217759Y-116106363D01*
X138982727Y-115949320D01*
X138721574Y-115841147D01*
X138444335Y-115786000D01*
X138161665Y-115786000D01*
X137884426Y-115841147D01*
X137623273Y-115949320D01*
X137388241Y-116106363D01*
X137188363Y-116306241D01*
X137031320Y-116541273D01*
X136993000Y-116633786D01*
X136954680Y-116541273D01*
X136797637Y-116306241D01*
X136597759Y-116106363D01*
X136362727Y-115949320D01*
X136101574Y-115841147D01*
X135824335Y-115786000D01*
X135541665Y-115786000D01*
X135264426Y-115841147D01*
X135003273Y-115949320D01*
X134768241Y-116106363D01*
X134568363Y-116306241D01*
X134411320Y-116541273D01*
X134303147Y-116802426D01*
X134248000Y-117079665D01*
X132118000Y-117079665D01*
X132062853Y-116802426D01*
X131954680Y-116541273D01*
X131797637Y-116306241D01*
X131597759Y-116106363D01*
X131362727Y-115949320D01*
X131101574Y-115841147D01*
X130824335Y-115786000D01*
X130541665Y-115786000D01*
X130264426Y-115841147D01*
X130003273Y-115949320D01*
X129768241Y-116106363D01*
X129568363Y-116306241D01*
X129411320Y-116541273D01*
X129373000Y-116633786D01*
X129334680Y-116541273D01*
X129177637Y-116306241D01*
X128977759Y-116106363D01*
X128742727Y-115949320D01*
X128481574Y-115841147D01*
X128204335Y-115786000D01*
X127921665Y-115786000D01*
X127644426Y-115841147D01*
X127383273Y-115949320D01*
X127148241Y-116106363D01*
X126948363Y-116306241D01*
X126791320Y-116541273D01*
X126683147Y-116802426D01*
X126628000Y-117079665D01*
X124498000Y-117079665D01*
X124442853Y-116802426D01*
X124334680Y-116541273D01*
X124177637Y-116306241D01*
X123977759Y-116106363D01*
X123742727Y-115949320D01*
X123481574Y-115841147D01*
X123204335Y-115786000D01*
X122921665Y-115786000D01*
X122644426Y-115841147D01*
X122383273Y-115949320D01*
X122148241Y-116106363D01*
X121948363Y-116306241D01*
X121791320Y-116541273D01*
X121761250Y-116613868D01*
X121731180Y-116541273D01*
X121574137Y-116306241D01*
X121374259Y-116106363D01*
X121139227Y-115949320D01*
X120878074Y-115841147D01*
X120600835Y-115786000D01*
X120318165Y-115786000D01*
X120040926Y-115841147D01*
X119779773Y-115949320D01*
X119544741Y-116106363D01*
X119344863Y-116306241D01*
X119187820Y-116541273D01*
X119079647Y-116802426D01*
X119024500Y-117079665D01*
X116894500Y-117079665D01*
X116839353Y-116802426D01*
X116731180Y-116541273D01*
X116574137Y-116306241D01*
X116374259Y-116106363D01*
X116139227Y-115949320D01*
X115878074Y-115841147D01*
X115600835Y-115786000D01*
X115318165Y-115786000D01*
X115040926Y-115841147D01*
X114779773Y-115949320D01*
X114544741Y-116106363D01*
X114344863Y-116306241D01*
X114187820Y-116541273D01*
X114079647Y-116802426D01*
X114024500Y-117079665D01*
X95383943Y-117079665D01*
X95378787Y-117044870D01*
X95283603Y-116778708D01*
X95216671Y-116653486D01*
X94972702Y-116581903D01*
X94159605Y-117395000D01*
X93800395Y-117395000D01*
X92987298Y-116581903D01*
X92743329Y-116653486D01*
X92622429Y-116908996D01*
X92553700Y-117183184D01*
X92539783Y-117465512D01*
X92159000Y-117465512D01*
X92159000Y-116402298D01*
X93166903Y-116402298D01*
X93980000Y-117215395D01*
X94793097Y-116402298D01*
X94721514Y-116158329D01*
X94466004Y-116037429D01*
X94191816Y-115968700D01*
X93909488Y-115954783D01*
X93629870Y-115996213D01*
X93363708Y-116091397D01*
X93238486Y-116158329D01*
X93166903Y-116402298D01*
X92159000Y-116402298D01*
X92159000Y-112253665D01*
X92545000Y-112253665D01*
X92545000Y-112536335D01*
X92600147Y-112813574D01*
X92708320Y-113074727D01*
X92865363Y-113309759D01*
X93065241Y-113509637D01*
X93300273Y-113666680D01*
X93561426Y-113774853D01*
X93838665Y-113830000D01*
X94121335Y-113830000D01*
X94398574Y-113774853D01*
X94659727Y-113666680D01*
X94894759Y-113509637D01*
X95094637Y-113309759D01*
X95251680Y-113074727D01*
X95359853Y-112813574D01*
X95415000Y-112536335D01*
X95415000Y-112395000D01*
X95512319Y-112395000D01*
X95542970Y-112706204D01*
X95633745Y-113005449D01*
X95781155Y-113281235D01*
X95979537Y-113522963D01*
X96221265Y-113721345D01*
X96497051Y-113868755D01*
X96796296Y-113959530D01*
X97029514Y-113982500D01*
X97280486Y-113982500D01*
X97513704Y-113959530D01*
X97812949Y-113868755D01*
X98088735Y-113721345D01*
X98330463Y-113522963D01*
X98507123Y-113307702D01*
X118439903Y-113307702D01*
X118511486Y-113551671D01*
X118766996Y-113672571D01*
X119041184Y-113741300D01*
X119323512Y-113755217D01*
X119603130Y-113713787D01*
X119869292Y-113618603D01*
X119994514Y-113551671D01*
X120066097Y-113307702D01*
X119253000Y-112494605D01*
X118439903Y-113307702D01*
X98507123Y-113307702D01*
X98528845Y-113281235D01*
X98676255Y-113005449D01*
X98767030Y-112706204D01*
X98797681Y-112395000D01*
X98796747Y-112385512D01*
X117812783Y-112385512D01*
X117854213Y-112665130D01*
X117949397Y-112931292D01*
X118016329Y-113056514D01*
X118260298Y-113128097D01*
X119073395Y-112315000D01*
X119432605Y-112315000D01*
X120245702Y-113128097D01*
X120489671Y-113056514D01*
X120610571Y-112801004D01*
X120679300Y-112526816D01*
X120682347Y-112465000D01*
X121624928Y-112465000D01*
X121624928Y-114865000D01*
X121637188Y-114989482D01*
X121673498Y-115109180D01*
X121732463Y-115219494D01*
X121811815Y-115316185D01*
X121908506Y-115395537D01*
X122018820Y-115454502D01*
X122138518Y-115490812D01*
X122263000Y-115503072D01*
X123863000Y-115503072D01*
X123987482Y-115490812D01*
X124107180Y-115454502D01*
X124217494Y-115395537D01*
X124314185Y-115316185D01*
X124393537Y-115219494D01*
X124452502Y-115109180D01*
X124488812Y-114989482D01*
X124490581Y-114971517D01*
X124583393Y-115084608D01*
X124801900Y-115263932D01*
X125051193Y-115397182D01*
X125321692Y-115479236D01*
X125603000Y-115506943D01*
X125884309Y-115479236D01*
X126154808Y-115397182D01*
X126404101Y-115263932D01*
X126622608Y-115084608D01*
X126801932Y-114866101D01*
X126873000Y-114733142D01*
X126944068Y-114866101D01*
X127123393Y-115084608D01*
X127341900Y-115263932D01*
X127591193Y-115397182D01*
X127861692Y-115479236D01*
X128143000Y-115506943D01*
X128424309Y-115479236D01*
X128694808Y-115397182D01*
X128944101Y-115263932D01*
X129162608Y-115084608D01*
X129341932Y-114866101D01*
X129413000Y-114733142D01*
X129484068Y-114866101D01*
X129663393Y-115084608D01*
X129881900Y-115263932D01*
X130131193Y-115397182D01*
X130401692Y-115479236D01*
X130683000Y-115506943D01*
X130964309Y-115479236D01*
X131234808Y-115397182D01*
X131484101Y-115263932D01*
X131702608Y-115084608D01*
X131881932Y-114866101D01*
X131953000Y-114733142D01*
X132024068Y-114866101D01*
X132203393Y-115084608D01*
X132421900Y-115263932D01*
X132671193Y-115397182D01*
X132941692Y-115479236D01*
X133223000Y-115506943D01*
X133504309Y-115479236D01*
X133774808Y-115397182D01*
X134024101Y-115263932D01*
X134242608Y-115084608D01*
X134421932Y-114866101D01*
X134493000Y-114733142D01*
X134564068Y-114866101D01*
X134743393Y-115084608D01*
X134961900Y-115263932D01*
X135211193Y-115397182D01*
X135481692Y-115479236D01*
X135763000Y-115506943D01*
X136044309Y-115479236D01*
X136314808Y-115397182D01*
X136564101Y-115263932D01*
X136782608Y-115084608D01*
X136961932Y-114866101D01*
X137033000Y-114733142D01*
X137104068Y-114866101D01*
X137283393Y-115084608D01*
X137501900Y-115263932D01*
X137751193Y-115397182D01*
X138021692Y-115479236D01*
X138303000Y-115506943D01*
X138584309Y-115479236D01*
X138854808Y-115397182D01*
X139104101Y-115263932D01*
X139322608Y-115084608D01*
X139501932Y-114866101D01*
X139573000Y-114733142D01*
X139644068Y-114866101D01*
X139823393Y-115084608D01*
X140041900Y-115263932D01*
X140291193Y-115397182D01*
X140561692Y-115479236D01*
X140843000Y-115506943D01*
X141124309Y-115479236D01*
X141394808Y-115397182D01*
X141644101Y-115263932D01*
X141862608Y-115084608D01*
X142041932Y-114866101D01*
X142175182Y-114616808D01*
X142257236Y-114346309D01*
X142278000Y-114135491D01*
X142278000Y-113194508D01*
X142257236Y-112983691D01*
X142175182Y-112713192D01*
X142041932Y-112463899D01*
X141862607Y-112245392D01*
X141644100Y-112066068D01*
X141394807Y-111932818D01*
X141124308Y-111850764D01*
X140843000Y-111823057D01*
X140561691Y-111850764D01*
X140291192Y-111932818D01*
X140041899Y-112066068D01*
X139823392Y-112245393D01*
X139644068Y-112463900D01*
X139573000Y-112596858D01*
X139501932Y-112463899D01*
X139322607Y-112245392D01*
X139104100Y-112066068D01*
X138854807Y-111932818D01*
X138584308Y-111850764D01*
X138303000Y-111823057D01*
X138021691Y-111850764D01*
X137751192Y-111932818D01*
X137501899Y-112066068D01*
X137283392Y-112245393D01*
X137104068Y-112463900D01*
X137033000Y-112596858D01*
X136961932Y-112463899D01*
X136782607Y-112245392D01*
X136564100Y-112066068D01*
X136314807Y-111932818D01*
X136044308Y-111850764D01*
X135763000Y-111823057D01*
X135481691Y-111850764D01*
X135211192Y-111932818D01*
X134961899Y-112066068D01*
X134743392Y-112245393D01*
X134564068Y-112463900D01*
X134493000Y-112596858D01*
X134421932Y-112463899D01*
X134242607Y-112245392D01*
X134024100Y-112066068D01*
X133774807Y-111932818D01*
X133504308Y-111850764D01*
X133223000Y-111823057D01*
X132941691Y-111850764D01*
X132671192Y-111932818D01*
X132421899Y-112066068D01*
X132203392Y-112245393D01*
X132024068Y-112463900D01*
X131953000Y-112596858D01*
X131881932Y-112463899D01*
X131702607Y-112245392D01*
X131484100Y-112066068D01*
X131234807Y-111932818D01*
X130964308Y-111850764D01*
X130683000Y-111823057D01*
X130401691Y-111850764D01*
X130131192Y-111932818D01*
X129881899Y-112066068D01*
X129663392Y-112245393D01*
X129484068Y-112463900D01*
X129413000Y-112596858D01*
X129341932Y-112463899D01*
X129162607Y-112245392D01*
X128944100Y-112066068D01*
X128694807Y-111932818D01*
X128424308Y-111850764D01*
X128143000Y-111823057D01*
X127861691Y-111850764D01*
X127591192Y-111932818D01*
X127341899Y-112066068D01*
X127123392Y-112245393D01*
X126944068Y-112463900D01*
X126873000Y-112596858D01*
X126801932Y-112463899D01*
X126622607Y-112245392D01*
X126404100Y-112066068D01*
X126154807Y-111932818D01*
X125884308Y-111850764D01*
X125603000Y-111823057D01*
X125321691Y-111850764D01*
X125051192Y-111932818D01*
X124801899Y-112066068D01*
X124583392Y-112245393D01*
X124490581Y-112358483D01*
X124488812Y-112340518D01*
X124452502Y-112220820D01*
X124393537Y-112110506D01*
X124314185Y-112013815D01*
X124217494Y-111934463D01*
X124107180Y-111875498D01*
X123987482Y-111839188D01*
X123863000Y-111826928D01*
X122263000Y-111826928D01*
X122138518Y-111839188D01*
X122018820Y-111875498D01*
X121908506Y-111934463D01*
X121811815Y-112013815D01*
X121732463Y-112110506D01*
X121673498Y-112220820D01*
X121637188Y-112340518D01*
X121624928Y-112465000D01*
X120682347Y-112465000D01*
X120693217Y-112244488D01*
X120651787Y-111964870D01*
X120556603Y-111698708D01*
X120489671Y-111573486D01*
X120245702Y-111501903D01*
X119432605Y-112315000D01*
X119073395Y-112315000D01*
X118260298Y-111501903D01*
X118016329Y-111573486D01*
X117895429Y-111828996D01*
X117826700Y-112103184D01*
X117812783Y-112385512D01*
X98796747Y-112385512D01*
X98767030Y-112083796D01*
X98676255Y-111784551D01*
X98528845Y-111508765D01*
X98330463Y-111267037D01*
X98151101Y-111119837D01*
X98336315Y-110964437D01*
X98530969Y-110721923D01*
X98674571Y-110446094D01*
X98745563Y-110227980D01*
X98625594Y-109982000D01*
X97282000Y-109982000D01*
X97282000Y-110002000D01*
X97028000Y-110002000D01*
X97028000Y-109982000D01*
X95684406Y-109982000D01*
X95564437Y-110227980D01*
X95635429Y-110446094D01*
X95779031Y-110721923D01*
X95973685Y-110964437D01*
X96158899Y-111119837D01*
X95979537Y-111267037D01*
X95781155Y-111508765D01*
X95633745Y-111784551D01*
X95542970Y-112083796D01*
X95512319Y-112395000D01*
X95415000Y-112395000D01*
X95415000Y-112253665D01*
X95359853Y-111976426D01*
X95251680Y-111715273D01*
X95094637Y-111480241D01*
X94894759Y-111280363D01*
X94659727Y-111123320D01*
X94398574Y-111015147D01*
X94121335Y-110960000D01*
X93838665Y-110960000D01*
X93561426Y-111015147D01*
X93300273Y-111123320D01*
X93065241Y-111280363D01*
X92865363Y-111480241D01*
X92708320Y-111715273D01*
X92600147Y-111976426D01*
X92545000Y-112253665D01*
X92159000Y-112253665D01*
X92159000Y-107173665D01*
X92545000Y-107173665D01*
X92545000Y-107456335D01*
X92600147Y-107733574D01*
X92708320Y-107994727D01*
X92865363Y-108229759D01*
X93065241Y-108429637D01*
X93300273Y-108586680D01*
X93561426Y-108694853D01*
X93838665Y-108750000D01*
X94121335Y-108750000D01*
X94398574Y-108694853D01*
X94659727Y-108586680D01*
X94894759Y-108429637D01*
X95094637Y-108229759D01*
X95251680Y-107994727D01*
X95359853Y-107733574D01*
X95415000Y-107456335D01*
X95415000Y-107173665D01*
X95359853Y-106896426D01*
X95251680Y-106635273D01*
X95094637Y-106400241D01*
X95056896Y-106362500D01*
X95516928Y-106362500D01*
X95516928Y-108267500D01*
X95529188Y-108391982D01*
X95565498Y-108511680D01*
X95624463Y-108621994D01*
X95703815Y-108718685D01*
X95800506Y-108798037D01*
X95892219Y-108847059D01*
X95779031Y-108988077D01*
X95635429Y-109263906D01*
X95564437Y-109482020D01*
X95684406Y-109728000D01*
X97028000Y-109728000D01*
X97028000Y-109708000D01*
X97282000Y-109708000D01*
X97282000Y-109728000D01*
X98625594Y-109728000D01*
X98678219Y-109620098D01*
X111430000Y-109620098D01*
X111430000Y-110089902D01*
X111521654Y-110550679D01*
X111701440Y-110984721D01*
X111962450Y-111375349D01*
X112294651Y-111707550D01*
X112685279Y-111968560D01*
X113119321Y-112148346D01*
X113580098Y-112240000D01*
X114049902Y-112240000D01*
X114510679Y-112148346D01*
X114944721Y-111968560D01*
X115335349Y-111707550D01*
X115667550Y-111375349D01*
X115702997Y-111322298D01*
X118439903Y-111322298D01*
X119253000Y-112135395D01*
X120066097Y-111322298D01*
X119994514Y-111078329D01*
X119739004Y-110957429D01*
X119464816Y-110888700D01*
X119182488Y-110874783D01*
X118902870Y-110916213D01*
X118636708Y-111011397D01*
X118511486Y-111078329D01*
X118439903Y-111322298D01*
X115702997Y-111322298D01*
X115928560Y-110984721D01*
X116108346Y-110550679D01*
X116200000Y-110089902D01*
X116200000Y-109620098D01*
X116108346Y-109159321D01*
X115928560Y-108725279D01*
X115667550Y-108334651D01*
X115335349Y-108002450D01*
X114944721Y-107741440D01*
X114510679Y-107561654D01*
X114049902Y-107470000D01*
X113580098Y-107470000D01*
X113119321Y-107561654D01*
X112685279Y-107741440D01*
X112294651Y-108002450D01*
X111962450Y-108334651D01*
X111701440Y-108725279D01*
X111521654Y-109159321D01*
X111430000Y-109620098D01*
X98678219Y-109620098D01*
X98745563Y-109482020D01*
X98674571Y-109263906D01*
X98530969Y-108988077D01*
X98417781Y-108847059D01*
X98509494Y-108798037D01*
X98606185Y-108718685D01*
X98685537Y-108621994D01*
X98744502Y-108511680D01*
X98780812Y-108391982D01*
X98793072Y-108267500D01*
X98793072Y-107173665D01*
X117818000Y-107173665D01*
X117818000Y-107456335D01*
X117873147Y-107733574D01*
X117981320Y-107994727D01*
X118138363Y-108229759D01*
X118338241Y-108429637D01*
X118573273Y-108586680D01*
X118834426Y-108694853D01*
X119111665Y-108750000D01*
X119394335Y-108750000D01*
X119671574Y-108694853D01*
X119932727Y-108586680D01*
X120167759Y-108429637D01*
X120367637Y-108229759D01*
X120524680Y-107994727D01*
X120632853Y-107733574D01*
X120688000Y-107456335D01*
X120688000Y-107173665D01*
X120632853Y-106896426D01*
X120524680Y-106635273D01*
X120367637Y-106400241D01*
X120167759Y-106200363D01*
X119932727Y-106043320D01*
X119671574Y-105935147D01*
X119394335Y-105880000D01*
X119111665Y-105880000D01*
X118834426Y-105935147D01*
X118573273Y-106043320D01*
X118338241Y-106200363D01*
X118138363Y-106400241D01*
X117981320Y-106635273D01*
X117873147Y-106896426D01*
X117818000Y-107173665D01*
X98793072Y-107173665D01*
X98793072Y-106362500D01*
X98780812Y-106238018D01*
X98744502Y-106118320D01*
X98685537Y-106008006D01*
X98606185Y-105911315D01*
X98509494Y-105831963D01*
X98399180Y-105772998D01*
X98279482Y-105736688D01*
X98155000Y-105724428D01*
X96155000Y-105724428D01*
X96030518Y-105736688D01*
X95910820Y-105772998D01*
X95800506Y-105831963D01*
X95703815Y-105911315D01*
X95624463Y-106008006D01*
X95565498Y-106118320D01*
X95529188Y-106238018D01*
X95516928Y-106362500D01*
X95056896Y-106362500D01*
X94894759Y-106200363D01*
X94659727Y-106043320D01*
X94398574Y-105935147D01*
X94121335Y-105880000D01*
X93838665Y-105880000D01*
X93561426Y-105935147D01*
X93300273Y-106043320D01*
X93065241Y-106200363D01*
X92865363Y-106400241D01*
X92708320Y-106635273D01*
X92600147Y-106896426D01*
X92545000Y-107173665D01*
X92159000Y-107173665D01*
X92159000Y-105574509D01*
X121628000Y-105574509D01*
X121628000Y-106515492D01*
X121648764Y-106726309D01*
X121730818Y-106996808D01*
X121864068Y-107246101D01*
X122043393Y-107464608D01*
X122261900Y-107643932D01*
X122511193Y-107777182D01*
X122781692Y-107859236D01*
X123063000Y-107886943D01*
X123344309Y-107859236D01*
X123614808Y-107777182D01*
X123864101Y-107643932D01*
X124082608Y-107464608D01*
X124261932Y-107246101D01*
X124330265Y-107118259D01*
X124480399Y-107347839D01*
X124678105Y-107549500D01*
X124911354Y-107708715D01*
X125171182Y-107819367D01*
X125253961Y-107836904D01*
X125476000Y-107714915D01*
X125476000Y-106172000D01*
X125456000Y-106172000D01*
X125456000Y-105918000D01*
X125476000Y-105918000D01*
X125476000Y-104375085D01*
X125730000Y-104375085D01*
X125730000Y-105918000D01*
X125750000Y-105918000D01*
X125750000Y-106172000D01*
X125730000Y-106172000D01*
X125730000Y-107714915D01*
X125952039Y-107836904D01*
X126034818Y-107819367D01*
X126294646Y-107708715D01*
X126527895Y-107549500D01*
X126725601Y-107347839D01*
X126875735Y-107118259D01*
X126944068Y-107246101D01*
X127123393Y-107464608D01*
X127341900Y-107643932D01*
X127591193Y-107777182D01*
X127861692Y-107859236D01*
X128143000Y-107886943D01*
X128424309Y-107859236D01*
X128694808Y-107777182D01*
X128944101Y-107643932D01*
X129162608Y-107464608D01*
X129341932Y-107246101D01*
X129413000Y-107113142D01*
X129484068Y-107246101D01*
X129663393Y-107464608D01*
X129881900Y-107643932D01*
X130131193Y-107777182D01*
X130401692Y-107859236D01*
X130683000Y-107886943D01*
X130964309Y-107859236D01*
X131234808Y-107777182D01*
X131484101Y-107643932D01*
X131702608Y-107464608D01*
X131881932Y-107246101D01*
X131953000Y-107113142D01*
X132024068Y-107246101D01*
X132203393Y-107464608D01*
X132421900Y-107643932D01*
X132671193Y-107777182D01*
X132941692Y-107859236D01*
X133223000Y-107886943D01*
X133504309Y-107859236D01*
X133774808Y-107777182D01*
X134024101Y-107643932D01*
X134242608Y-107464608D01*
X134421932Y-107246101D01*
X134493000Y-107113142D01*
X134564068Y-107246101D01*
X134743393Y-107464608D01*
X134961900Y-107643932D01*
X135211193Y-107777182D01*
X135481692Y-107859236D01*
X135763000Y-107886943D01*
X136044309Y-107859236D01*
X136314808Y-107777182D01*
X136564101Y-107643932D01*
X136782608Y-107464608D01*
X136961932Y-107246101D01*
X137033000Y-107113142D01*
X137104068Y-107246101D01*
X137283393Y-107464608D01*
X137501900Y-107643932D01*
X137751193Y-107777182D01*
X138021692Y-107859236D01*
X138303000Y-107886943D01*
X138584309Y-107859236D01*
X138854808Y-107777182D01*
X139104101Y-107643932D01*
X139322608Y-107464608D01*
X139501932Y-107246101D01*
X139573000Y-107113142D01*
X139644068Y-107246101D01*
X139823393Y-107464608D01*
X140041900Y-107643932D01*
X140291193Y-107777182D01*
X140561692Y-107859236D01*
X140843000Y-107886943D01*
X141124309Y-107859236D01*
X141394808Y-107777182D01*
X141644101Y-107643932D01*
X141862608Y-107464608D01*
X142041932Y-107246101D01*
X142175182Y-106996808D01*
X142257236Y-106726309D01*
X142278000Y-106515491D01*
X142278000Y-105574508D01*
X142257236Y-105363691D01*
X142175182Y-105093192D01*
X142041932Y-104843899D01*
X141862607Y-104625392D01*
X141644100Y-104446068D01*
X141394807Y-104312818D01*
X141124308Y-104230764D01*
X140843000Y-104203057D01*
X140561691Y-104230764D01*
X140291192Y-104312818D01*
X140041899Y-104446068D01*
X139823392Y-104625393D01*
X139644068Y-104843900D01*
X139573000Y-104976858D01*
X139501932Y-104843899D01*
X139322607Y-104625392D01*
X139104100Y-104446068D01*
X138854807Y-104312818D01*
X138584308Y-104230764D01*
X138303000Y-104203057D01*
X138021691Y-104230764D01*
X137751192Y-104312818D01*
X137501899Y-104446068D01*
X137283392Y-104625393D01*
X137104068Y-104843900D01*
X137033000Y-104976858D01*
X136961932Y-104843899D01*
X136782607Y-104625392D01*
X136564100Y-104446068D01*
X136314807Y-104312818D01*
X136044308Y-104230764D01*
X135763000Y-104203057D01*
X135481691Y-104230764D01*
X135211192Y-104312818D01*
X134961899Y-104446068D01*
X134743392Y-104625393D01*
X134564068Y-104843900D01*
X134493000Y-104976858D01*
X134421932Y-104843899D01*
X134242607Y-104625392D01*
X134024100Y-104446068D01*
X133774807Y-104312818D01*
X133504308Y-104230764D01*
X133223000Y-104203057D01*
X132941691Y-104230764D01*
X132671192Y-104312818D01*
X132421899Y-104446068D01*
X132203392Y-104625393D01*
X132024068Y-104843900D01*
X131953000Y-104976858D01*
X131881932Y-104843899D01*
X131702607Y-104625392D01*
X131484100Y-104446068D01*
X131234807Y-104312818D01*
X130964308Y-104230764D01*
X130683000Y-104203057D01*
X130401691Y-104230764D01*
X130131192Y-104312818D01*
X129881899Y-104446068D01*
X129663392Y-104625393D01*
X129484068Y-104843900D01*
X129413000Y-104976858D01*
X129341932Y-104843899D01*
X129162607Y-104625392D01*
X128944100Y-104446068D01*
X128694807Y-104312818D01*
X128424308Y-104230764D01*
X128143000Y-104203057D01*
X127861691Y-104230764D01*
X127591192Y-104312818D01*
X127341899Y-104446068D01*
X127123392Y-104625393D01*
X126944068Y-104843900D01*
X126875735Y-104971742D01*
X126725601Y-104742161D01*
X126527895Y-104540500D01*
X126294646Y-104381285D01*
X126034818Y-104270633D01*
X125952039Y-104253096D01*
X125730000Y-104375085D01*
X125476000Y-104375085D01*
X125253961Y-104253096D01*
X125171182Y-104270633D01*
X124911354Y-104381285D01*
X124678105Y-104540500D01*
X124480399Y-104742161D01*
X124330265Y-104971741D01*
X124261932Y-104843899D01*
X124082607Y-104625392D01*
X123864100Y-104446068D01*
X123614807Y-104312818D01*
X123344308Y-104230764D01*
X123063000Y-104203057D01*
X122781691Y-104230764D01*
X122511192Y-104312818D01*
X122261899Y-104446068D01*
X122043392Y-104625393D01*
X121864068Y-104843900D01*
X121730818Y-105093193D01*
X121648764Y-105363692D01*
X121628000Y-105574509D01*
X92159000Y-105574509D01*
X92159000Y-103307702D01*
X93166903Y-103307702D01*
X93238486Y-103551671D01*
X93493996Y-103672571D01*
X93768184Y-103741300D01*
X94050512Y-103755217D01*
X94330130Y-103713787D01*
X94596292Y-103618603D01*
X94721514Y-103551671D01*
X94793097Y-103307702D01*
X93980000Y-102494605D01*
X93166903Y-103307702D01*
X92159000Y-103307702D01*
X92159000Y-102385512D01*
X92539783Y-102385512D01*
X92581213Y-102665130D01*
X92676397Y-102931292D01*
X92743329Y-103056514D01*
X92987298Y-103128097D01*
X93800395Y-102315000D01*
X94159605Y-102315000D01*
X94972702Y-103128097D01*
X95216671Y-103056514D01*
X95337571Y-102801004D01*
X95406300Y-102526816D01*
X95420217Y-102244488D01*
X95379053Y-101966665D01*
X111468000Y-101966665D01*
X111468000Y-102249335D01*
X111523147Y-102526574D01*
X111631320Y-102787727D01*
X111788363Y-103022759D01*
X111988241Y-103222637D01*
X112223273Y-103379680D01*
X112484426Y-103487853D01*
X112761665Y-103543000D01*
X113044335Y-103543000D01*
X113321574Y-103487853D01*
X113582727Y-103379680D01*
X113817759Y-103222637D01*
X114017637Y-103022759D01*
X114174680Y-102787727D01*
X114282853Y-102526574D01*
X114338000Y-102249335D01*
X114338000Y-101966665D01*
X121628000Y-101966665D01*
X121628000Y-102249335D01*
X121683147Y-102526574D01*
X121791320Y-102787727D01*
X121948363Y-103022759D01*
X122148241Y-103222637D01*
X122383273Y-103379680D01*
X122644426Y-103487853D01*
X122921665Y-103543000D01*
X123204335Y-103543000D01*
X123481574Y-103487853D01*
X123742727Y-103379680D01*
X123977759Y-103222637D01*
X124177637Y-103022759D01*
X124334680Y-102787727D01*
X124442853Y-102526574D01*
X124498000Y-102249335D01*
X124498000Y-101966665D01*
X126708000Y-101966665D01*
X126708000Y-102249335D01*
X126763147Y-102526574D01*
X126871320Y-102787727D01*
X127028363Y-103022759D01*
X127228241Y-103222637D01*
X127463273Y-103379680D01*
X127724426Y-103487853D01*
X128001665Y-103543000D01*
X128284335Y-103543000D01*
X128561574Y-103487853D01*
X128822727Y-103379680D01*
X129057759Y-103222637D01*
X129257637Y-103022759D01*
X129414680Y-102787727D01*
X129522853Y-102526574D01*
X129578000Y-102249335D01*
X129578000Y-101966665D01*
X136868000Y-101966665D01*
X136868000Y-102249335D01*
X136923147Y-102526574D01*
X137031320Y-102787727D01*
X137188363Y-103022759D01*
X137388241Y-103222637D01*
X137623273Y-103379680D01*
X137884426Y-103487853D01*
X138161665Y-103543000D01*
X138444335Y-103543000D01*
X138721574Y-103487853D01*
X138982727Y-103379680D01*
X139217759Y-103222637D01*
X139417637Y-103022759D01*
X139574680Y-102787727D01*
X139682853Y-102526574D01*
X139738000Y-102249335D01*
X139738000Y-101966665D01*
X139682853Y-101689426D01*
X139574680Y-101428273D01*
X139417637Y-101193241D01*
X139217759Y-100993363D01*
X138982727Y-100836320D01*
X138721574Y-100728147D01*
X138444335Y-100673000D01*
X138161665Y-100673000D01*
X137884426Y-100728147D01*
X137623273Y-100836320D01*
X137388241Y-100993363D01*
X137188363Y-101193241D01*
X137031320Y-101428273D01*
X136923147Y-101689426D01*
X136868000Y-101966665D01*
X129578000Y-101966665D01*
X129522853Y-101689426D01*
X129414680Y-101428273D01*
X129257637Y-101193241D01*
X129057759Y-100993363D01*
X128822727Y-100836320D01*
X128561574Y-100728147D01*
X128284335Y-100673000D01*
X128001665Y-100673000D01*
X127724426Y-100728147D01*
X127463273Y-100836320D01*
X127228241Y-100993363D01*
X127028363Y-101193241D01*
X126871320Y-101428273D01*
X126763147Y-101689426D01*
X126708000Y-101966665D01*
X124498000Y-101966665D01*
X124442853Y-101689426D01*
X124334680Y-101428273D01*
X124177637Y-101193241D01*
X123977759Y-100993363D01*
X123742727Y-100836320D01*
X123481574Y-100728147D01*
X123204335Y-100673000D01*
X122921665Y-100673000D01*
X122644426Y-100728147D01*
X122383273Y-100836320D01*
X122148241Y-100993363D01*
X121948363Y-101193241D01*
X121791320Y-101428273D01*
X121683147Y-101689426D01*
X121628000Y-101966665D01*
X114338000Y-101966665D01*
X114282853Y-101689426D01*
X114174680Y-101428273D01*
X114017637Y-101193241D01*
X113817759Y-100993363D01*
X113582727Y-100836320D01*
X113321574Y-100728147D01*
X113044335Y-100673000D01*
X112761665Y-100673000D01*
X112484426Y-100728147D01*
X112223273Y-100836320D01*
X111988241Y-100993363D01*
X111788363Y-101193241D01*
X111631320Y-101428273D01*
X111523147Y-101689426D01*
X111468000Y-101966665D01*
X95379053Y-101966665D01*
X95378787Y-101964870D01*
X95283603Y-101698708D01*
X95216671Y-101573486D01*
X94972702Y-101501903D01*
X94159605Y-102315000D01*
X93800395Y-102315000D01*
X92987298Y-101501903D01*
X92743329Y-101573486D01*
X92622429Y-101828996D01*
X92553700Y-102103184D01*
X92539783Y-102385512D01*
X92159000Y-102385512D01*
X92159000Y-101322298D01*
X93166903Y-101322298D01*
X93980000Y-102135395D01*
X94793097Y-101322298D01*
X94721514Y-101078329D01*
X94466004Y-100957429D01*
X94191816Y-100888700D01*
X93909488Y-100874783D01*
X93629870Y-100916213D01*
X93363708Y-101011397D01*
X93238486Y-101078329D01*
X93166903Y-101322298D01*
X92159000Y-101322298D01*
X92159000Y-98436065D01*
X94450000Y-98436065D01*
X94450000Y-98718735D01*
X94505147Y-98995974D01*
X94613320Y-99257127D01*
X94770363Y-99492159D01*
X94970241Y-99692037D01*
X95205273Y-99849080D01*
X95466426Y-99957253D01*
X95743665Y-100012400D01*
X96026335Y-100012400D01*
X96303574Y-99957253D01*
X96564727Y-99849080D01*
X96799759Y-99692037D01*
X96999637Y-99492159D01*
X97156680Y-99257127D01*
X97264853Y-98995974D01*
X97269780Y-98971200D01*
X101101728Y-98971200D01*
X101101728Y-100571200D01*
X101113988Y-100695682D01*
X101150298Y-100815380D01*
X101209263Y-100925694D01*
X101288615Y-101022385D01*
X101385306Y-101101737D01*
X101495620Y-101160702D01*
X101615318Y-101197012D01*
X101739800Y-101209272D01*
X103339800Y-101209272D01*
X103464282Y-101197012D01*
X103583980Y-101160702D01*
X103694294Y-101101737D01*
X103790985Y-101022385D01*
X103870337Y-100925694D01*
X103929302Y-100815380D01*
X103965612Y-100695682D01*
X103977872Y-100571200D01*
X103977872Y-98971200D01*
X103965612Y-98846718D01*
X103929302Y-98727020D01*
X103870337Y-98616706D01*
X103790985Y-98520015D01*
X103694294Y-98440663D01*
X103583980Y-98381698D01*
X103484013Y-98351373D01*
X103540482Y-98345812D01*
X103660180Y-98309502D01*
X103770494Y-98250537D01*
X103867185Y-98171185D01*
X103946537Y-98074494D01*
X104005502Y-97964180D01*
X104041812Y-97844482D01*
X104043581Y-97826517D01*
X104136393Y-97939608D01*
X104354900Y-98118932D01*
X104604193Y-98252182D01*
X104874692Y-98334236D01*
X105156000Y-98361943D01*
X105437309Y-98334236D01*
X105707808Y-98252182D01*
X105957101Y-98118932D01*
X106175608Y-97939608D01*
X106354932Y-97721101D01*
X106426000Y-97588142D01*
X106497068Y-97721101D01*
X106676393Y-97939608D01*
X106894900Y-98118932D01*
X107144193Y-98252182D01*
X107414692Y-98334236D01*
X107696000Y-98361943D01*
X107977309Y-98334236D01*
X108247808Y-98252182D01*
X108497101Y-98118932D01*
X108715608Y-97939608D01*
X108894932Y-97721101D01*
X108966000Y-97588142D01*
X109037068Y-97721101D01*
X109216393Y-97939608D01*
X109434900Y-98118932D01*
X109684193Y-98252182D01*
X109954692Y-98334236D01*
X110003949Y-98339087D01*
X109741226Y-98391347D01*
X109480073Y-98499520D01*
X109245041Y-98656563D01*
X109045163Y-98856441D01*
X108888120Y-99091473D01*
X108779947Y-99352626D01*
X108724800Y-99629865D01*
X108724800Y-99912535D01*
X108779947Y-100189774D01*
X108888120Y-100450927D01*
X109045163Y-100685959D01*
X109245041Y-100885837D01*
X109480073Y-101042880D01*
X109741226Y-101151053D01*
X110018465Y-101206200D01*
X110301135Y-101206200D01*
X110578374Y-101151053D01*
X110839527Y-101042880D01*
X111074559Y-100885837D01*
X111274437Y-100685959D01*
X111431480Y-100450927D01*
X111539653Y-100189774D01*
X111594800Y-99912535D01*
X111594800Y-99629865D01*
X111539653Y-99352626D01*
X111431480Y-99091473D01*
X111274437Y-98856441D01*
X111074559Y-98656563D01*
X110839527Y-98499520D01*
X110686333Y-98436065D01*
X135217000Y-98436065D01*
X135217000Y-98718735D01*
X135272147Y-98995974D01*
X135380320Y-99257127D01*
X135537363Y-99492159D01*
X135737241Y-99692037D01*
X135972273Y-99849080D01*
X136233426Y-99957253D01*
X136510665Y-100012400D01*
X136793335Y-100012400D01*
X137070574Y-99957253D01*
X137331727Y-99849080D01*
X137566759Y-99692037D01*
X137766637Y-99492159D01*
X137923680Y-99257127D01*
X138031853Y-98995974D01*
X138087000Y-98718735D01*
X138087000Y-98436065D01*
X138031853Y-98158826D01*
X137923680Y-97897673D01*
X137766637Y-97662641D01*
X137566759Y-97462763D01*
X137331727Y-97305720D01*
X137070574Y-97197547D01*
X136793335Y-97142400D01*
X136510665Y-97142400D01*
X136233426Y-97197547D01*
X135972273Y-97305720D01*
X135737241Y-97462763D01*
X135537363Y-97662641D01*
X135380320Y-97897673D01*
X135272147Y-98158826D01*
X135217000Y-98436065D01*
X110686333Y-98436065D01*
X110578374Y-98391347D01*
X110366122Y-98349127D01*
X110517309Y-98334236D01*
X110787808Y-98252182D01*
X111037101Y-98118932D01*
X111255608Y-97939608D01*
X111434932Y-97721101D01*
X111568182Y-97471808D01*
X111650236Y-97201309D01*
X111671000Y-96990491D01*
X111671000Y-96162702D01*
X113232903Y-96162702D01*
X113304486Y-96406671D01*
X113559996Y-96527571D01*
X113834184Y-96596300D01*
X114116512Y-96610217D01*
X114396130Y-96568787D01*
X114662292Y-96473603D01*
X114787514Y-96406671D01*
X114859097Y-96162702D01*
X114046000Y-95349605D01*
X113232903Y-96162702D01*
X111671000Y-96162702D01*
X111671000Y-96049508D01*
X111650236Y-95838691D01*
X111568182Y-95568192D01*
X111434932Y-95318899D01*
X111370602Y-95240512D01*
X112605783Y-95240512D01*
X112647213Y-95520130D01*
X112742397Y-95786292D01*
X112809329Y-95911514D01*
X113053298Y-95983097D01*
X113866395Y-95170000D01*
X114225605Y-95170000D01*
X115038702Y-95983097D01*
X115282671Y-95911514D01*
X115403571Y-95656004D01*
X115472300Y-95381816D01*
X115475347Y-95320000D01*
X115782928Y-95320000D01*
X115782928Y-97720000D01*
X115795188Y-97844482D01*
X115831498Y-97964180D01*
X115890463Y-98074494D01*
X115969815Y-98171185D01*
X116066506Y-98250537D01*
X116176820Y-98309502D01*
X116296518Y-98345812D01*
X116421000Y-98358072D01*
X118021000Y-98358072D01*
X118145482Y-98345812D01*
X118265180Y-98309502D01*
X118375494Y-98250537D01*
X118472185Y-98171185D01*
X118551537Y-98074494D01*
X118610502Y-97964180D01*
X118646812Y-97844482D01*
X118648581Y-97826517D01*
X118741393Y-97939608D01*
X118959900Y-98118932D01*
X119209193Y-98252182D01*
X119479692Y-98334236D01*
X119761000Y-98361943D01*
X120042309Y-98334236D01*
X120312808Y-98252182D01*
X120562101Y-98118932D01*
X120780608Y-97939608D01*
X120959932Y-97721101D01*
X121031000Y-97588142D01*
X121102068Y-97721101D01*
X121281393Y-97939608D01*
X121499900Y-98118932D01*
X121749193Y-98252182D01*
X122019692Y-98334236D01*
X122301000Y-98361943D01*
X122582309Y-98334236D01*
X122852808Y-98252182D01*
X123102101Y-98118932D01*
X123320608Y-97939608D01*
X123499932Y-97721101D01*
X123571000Y-97588142D01*
X123642068Y-97721101D01*
X123821393Y-97939608D01*
X124039900Y-98118932D01*
X124289193Y-98252182D01*
X124559692Y-98334236D01*
X124841000Y-98361943D01*
X125122309Y-98334236D01*
X125392808Y-98252182D01*
X125642101Y-98118932D01*
X125860608Y-97939608D01*
X126039932Y-97721101D01*
X126111000Y-97588142D01*
X126182068Y-97721101D01*
X126361393Y-97939608D01*
X126579900Y-98118932D01*
X126829193Y-98252182D01*
X127099692Y-98334236D01*
X127381000Y-98361943D01*
X127662309Y-98334236D01*
X127932808Y-98252182D01*
X128182101Y-98118932D01*
X128400608Y-97939608D01*
X128579932Y-97721101D01*
X128651000Y-97588142D01*
X128722068Y-97721101D01*
X128901393Y-97939608D01*
X129119900Y-98118932D01*
X129369193Y-98252182D01*
X129639692Y-98334236D01*
X129921000Y-98361943D01*
X130202309Y-98334236D01*
X130472808Y-98252182D01*
X130722101Y-98118932D01*
X130940608Y-97939608D01*
X131119932Y-97721101D01*
X131188265Y-97593259D01*
X131338399Y-97822839D01*
X131536105Y-98024500D01*
X131769354Y-98183715D01*
X132029182Y-98294367D01*
X132111961Y-98311904D01*
X132334000Y-98189915D01*
X132334000Y-96647000D01*
X132588000Y-96647000D01*
X132588000Y-98189915D01*
X132810039Y-98311904D01*
X132892818Y-98294367D01*
X133152646Y-98183715D01*
X133385895Y-98024500D01*
X133583601Y-97822839D01*
X133738166Y-97586483D01*
X133843650Y-97324514D01*
X133896000Y-97047000D01*
X133896000Y-96647000D01*
X132588000Y-96647000D01*
X132334000Y-96647000D01*
X132314000Y-96647000D01*
X132314000Y-96393000D01*
X132334000Y-96393000D01*
X132334000Y-94850085D01*
X132588000Y-94850085D01*
X132588000Y-96393000D01*
X133896000Y-96393000D01*
X133896000Y-95993000D01*
X133843650Y-95715486D01*
X133738166Y-95453517D01*
X133583601Y-95217161D01*
X133385895Y-95015500D01*
X133152646Y-94856285D01*
X132892818Y-94745633D01*
X132810039Y-94728096D01*
X132588000Y-94850085D01*
X132334000Y-94850085D01*
X132111961Y-94728096D01*
X132029182Y-94745633D01*
X131769354Y-94856285D01*
X131536105Y-95015500D01*
X131338399Y-95217161D01*
X131188265Y-95446741D01*
X131119932Y-95318899D01*
X130940607Y-95100392D01*
X130722100Y-94921068D01*
X130472807Y-94787818D01*
X130202308Y-94705764D01*
X129921000Y-94678057D01*
X129639691Y-94705764D01*
X129369192Y-94787818D01*
X129119899Y-94921068D01*
X128901392Y-95100393D01*
X128722068Y-95318900D01*
X128651000Y-95451858D01*
X128579932Y-95318899D01*
X128400607Y-95100392D01*
X128182100Y-94921068D01*
X127932807Y-94787818D01*
X127662308Y-94705764D01*
X127381000Y-94678057D01*
X127099691Y-94705764D01*
X126829192Y-94787818D01*
X126579899Y-94921068D01*
X126361392Y-95100393D01*
X126182068Y-95318900D01*
X126111000Y-95451858D01*
X126039932Y-95318899D01*
X125860607Y-95100392D01*
X125642100Y-94921068D01*
X125392807Y-94787818D01*
X125122308Y-94705764D01*
X124841000Y-94678057D01*
X124559691Y-94705764D01*
X124289192Y-94787818D01*
X124039899Y-94921068D01*
X123821392Y-95100393D01*
X123642068Y-95318900D01*
X123571000Y-95451858D01*
X123499932Y-95318899D01*
X123320607Y-95100392D01*
X123102100Y-94921068D01*
X122852807Y-94787818D01*
X122582308Y-94705764D01*
X122301000Y-94678057D01*
X122019691Y-94705764D01*
X121749192Y-94787818D01*
X121499899Y-94921068D01*
X121281392Y-95100393D01*
X121102068Y-95318900D01*
X121031000Y-95451858D01*
X120959932Y-95318899D01*
X120780607Y-95100392D01*
X120562100Y-94921068D01*
X120312807Y-94787818D01*
X120042308Y-94705764D01*
X119761000Y-94678057D01*
X119479691Y-94705764D01*
X119209192Y-94787818D01*
X118959899Y-94921068D01*
X118741392Y-95100393D01*
X118648581Y-95213483D01*
X118646812Y-95195518D01*
X118610502Y-95075820D01*
X118551537Y-94965506D01*
X118472185Y-94868815D01*
X118375494Y-94789463D01*
X118265180Y-94730498D01*
X118145482Y-94694188D01*
X118021000Y-94681928D01*
X116421000Y-94681928D01*
X116296518Y-94694188D01*
X116176820Y-94730498D01*
X116066506Y-94789463D01*
X115969815Y-94868815D01*
X115890463Y-94965506D01*
X115831498Y-95075820D01*
X115795188Y-95195518D01*
X115782928Y-95320000D01*
X115475347Y-95320000D01*
X115486217Y-95099488D01*
X115444787Y-94819870D01*
X115349603Y-94553708D01*
X115282671Y-94428486D01*
X115038702Y-94356903D01*
X114225605Y-95170000D01*
X113866395Y-95170000D01*
X113053298Y-94356903D01*
X112809329Y-94428486D01*
X112688429Y-94683996D01*
X112619700Y-94958184D01*
X112605783Y-95240512D01*
X111370602Y-95240512D01*
X111255607Y-95100392D01*
X111037100Y-94921068D01*
X110787807Y-94787818D01*
X110517308Y-94705764D01*
X110236000Y-94678057D01*
X109954691Y-94705764D01*
X109684192Y-94787818D01*
X109434899Y-94921068D01*
X109216392Y-95100393D01*
X109037068Y-95318900D01*
X108966000Y-95451858D01*
X108894932Y-95318899D01*
X108715607Y-95100392D01*
X108497100Y-94921068D01*
X108247807Y-94787818D01*
X107977308Y-94705764D01*
X107696000Y-94678057D01*
X107414691Y-94705764D01*
X107144192Y-94787818D01*
X106894899Y-94921068D01*
X106676392Y-95100393D01*
X106497068Y-95318900D01*
X106426000Y-95451858D01*
X106354932Y-95318899D01*
X106175607Y-95100392D01*
X105957100Y-94921068D01*
X105707807Y-94787818D01*
X105437308Y-94705764D01*
X105156000Y-94678057D01*
X104874691Y-94705764D01*
X104604192Y-94787818D01*
X104354899Y-94921068D01*
X104136392Y-95100393D01*
X104043581Y-95213483D01*
X104041812Y-95195518D01*
X104005502Y-95075820D01*
X103946537Y-94965506D01*
X103867185Y-94868815D01*
X103770494Y-94789463D01*
X103660180Y-94730498D01*
X103540482Y-94694188D01*
X103416000Y-94681928D01*
X101816000Y-94681928D01*
X101691518Y-94694188D01*
X101571820Y-94730498D01*
X101461506Y-94789463D01*
X101364815Y-94868815D01*
X101285463Y-94965506D01*
X101226498Y-95075820D01*
X101190188Y-95195518D01*
X101177928Y-95320000D01*
X101177928Y-97720000D01*
X101190188Y-97844482D01*
X101226498Y-97964180D01*
X101285463Y-98074494D01*
X101364815Y-98171185D01*
X101461506Y-98250537D01*
X101571820Y-98309502D01*
X101671787Y-98339827D01*
X101615318Y-98345388D01*
X101495620Y-98381698D01*
X101385306Y-98440663D01*
X101288615Y-98520015D01*
X101209263Y-98616706D01*
X101150298Y-98727020D01*
X101113988Y-98846718D01*
X101101728Y-98971200D01*
X97269780Y-98971200D01*
X97320000Y-98718735D01*
X97320000Y-98436065D01*
X97264853Y-98158826D01*
X97156680Y-97897673D01*
X96999637Y-97662641D01*
X96799759Y-97462763D01*
X96564727Y-97305720D01*
X96303574Y-97197547D01*
X96026335Y-97142400D01*
X95743665Y-97142400D01*
X95466426Y-97197547D01*
X95205273Y-97305720D01*
X94970241Y-97462763D01*
X94770363Y-97662641D01*
X94613320Y-97897673D01*
X94505147Y-98158826D01*
X94450000Y-98436065D01*
X92159000Y-98436065D01*
X92159000Y-96162702D01*
X98627903Y-96162702D01*
X98699486Y-96406671D01*
X98954996Y-96527571D01*
X99229184Y-96596300D01*
X99511512Y-96610217D01*
X99791130Y-96568787D01*
X100057292Y-96473603D01*
X100182514Y-96406671D01*
X100254097Y-96162702D01*
X99441000Y-95349605D01*
X98627903Y-96162702D01*
X92159000Y-96162702D01*
X92159000Y-95240512D01*
X98000783Y-95240512D01*
X98042213Y-95520130D01*
X98137397Y-95786292D01*
X98204329Y-95911514D01*
X98448298Y-95983097D01*
X99261395Y-95170000D01*
X99620605Y-95170000D01*
X100433702Y-95983097D01*
X100677671Y-95911514D01*
X100798571Y-95656004D01*
X100867300Y-95381816D01*
X100881217Y-95099488D01*
X100839787Y-94819870D01*
X100744603Y-94553708D01*
X100677671Y-94428486D01*
X100433702Y-94356903D01*
X99620605Y-95170000D01*
X99261395Y-95170000D01*
X98448298Y-94356903D01*
X98204329Y-94428486D01*
X98083429Y-94683996D01*
X98014700Y-94958184D01*
X98000783Y-95240512D01*
X92159000Y-95240512D01*
X92159000Y-94177298D01*
X98627903Y-94177298D01*
X99441000Y-94990395D01*
X100254097Y-94177298D01*
X113232903Y-94177298D01*
X114046000Y-94990395D01*
X114859097Y-94177298D01*
X114787514Y-93933329D01*
X114532004Y-93812429D01*
X114257816Y-93743700D01*
X113975488Y-93729783D01*
X113695870Y-93771213D01*
X113429708Y-93866397D01*
X113304486Y-93933329D01*
X113232903Y-94177298D01*
X100254097Y-94177298D01*
X100182514Y-93933329D01*
X99927004Y-93812429D01*
X99652816Y-93743700D01*
X99370488Y-93729783D01*
X99090870Y-93771213D01*
X98824708Y-93866397D01*
X98699486Y-93933329D01*
X98627903Y-94177298D01*
X92159000Y-94177298D01*
X92159000Y-90028665D01*
X98006000Y-90028665D01*
X98006000Y-90311335D01*
X98061147Y-90588574D01*
X98169320Y-90849727D01*
X98326363Y-91084759D01*
X98526241Y-91284637D01*
X98761273Y-91441680D01*
X99022426Y-91549853D01*
X99299665Y-91605000D01*
X99582335Y-91605000D01*
X99859574Y-91549853D01*
X100120727Y-91441680D01*
X100355759Y-91284637D01*
X100555637Y-91084759D01*
X100712680Y-90849727D01*
X100820853Y-90588574D01*
X100876000Y-90311335D01*
X100876000Y-90028665D01*
X100820853Y-89751426D01*
X100712680Y-89490273D01*
X100555637Y-89255241D01*
X100355759Y-89055363D01*
X100120727Y-88898320D01*
X99859574Y-88790147D01*
X99582335Y-88735000D01*
X99299665Y-88735000D01*
X99022426Y-88790147D01*
X98761273Y-88898320D01*
X98526241Y-89055363D01*
X98326363Y-89255241D01*
X98169320Y-89490273D01*
X98061147Y-89751426D01*
X98006000Y-90028665D01*
X92159000Y-90028665D01*
X92159000Y-88276065D01*
X94450000Y-88276065D01*
X94450000Y-88558735D01*
X94505147Y-88835974D01*
X94613320Y-89097127D01*
X94770363Y-89332159D01*
X94970241Y-89532037D01*
X95205273Y-89689080D01*
X95466426Y-89797253D01*
X95743665Y-89852400D01*
X96026335Y-89852400D01*
X96303574Y-89797253D01*
X96564727Y-89689080D01*
X96799759Y-89532037D01*
X96999637Y-89332159D01*
X97156680Y-89097127D01*
X97264853Y-88835974D01*
X97320000Y-88558735D01*
X97320000Y-88429509D01*
X101181000Y-88429509D01*
X101181000Y-89370492D01*
X101201764Y-89581309D01*
X101283818Y-89851808D01*
X101417068Y-90101101D01*
X101596393Y-90319608D01*
X101814900Y-90498932D01*
X102064193Y-90632182D01*
X102334692Y-90714236D01*
X102616000Y-90741943D01*
X102897309Y-90714236D01*
X103167808Y-90632182D01*
X103417101Y-90498932D01*
X103635608Y-90319608D01*
X103814932Y-90101101D01*
X103886000Y-89968142D01*
X103957068Y-90101101D01*
X104136393Y-90319608D01*
X104354900Y-90498932D01*
X104604193Y-90632182D01*
X104874692Y-90714236D01*
X105156000Y-90741943D01*
X105437309Y-90714236D01*
X105707808Y-90632182D01*
X105957101Y-90498932D01*
X106175608Y-90319608D01*
X106354932Y-90101101D01*
X106426000Y-89968142D01*
X106497068Y-90101101D01*
X106676393Y-90319608D01*
X106894900Y-90498932D01*
X107144193Y-90632182D01*
X107414692Y-90714236D01*
X107696000Y-90741943D01*
X107977309Y-90714236D01*
X108247808Y-90632182D01*
X108497101Y-90498932D01*
X108715608Y-90319608D01*
X108894932Y-90101101D01*
X108963265Y-89973259D01*
X109113399Y-90202839D01*
X109311105Y-90404500D01*
X109544354Y-90563715D01*
X109804182Y-90674367D01*
X109886961Y-90691904D01*
X110109000Y-90569915D01*
X110109000Y-89027000D01*
X110363000Y-89027000D01*
X110363000Y-90569915D01*
X110585039Y-90691904D01*
X110667818Y-90674367D01*
X110927646Y-90563715D01*
X111160895Y-90404500D01*
X111358601Y-90202839D01*
X111472502Y-90028665D01*
X112611000Y-90028665D01*
X112611000Y-90311335D01*
X112666147Y-90588574D01*
X112774320Y-90849727D01*
X112931363Y-91084759D01*
X113131241Y-91284637D01*
X113366273Y-91441680D01*
X113627426Y-91549853D01*
X113904665Y-91605000D01*
X114187335Y-91605000D01*
X114464574Y-91549853D01*
X114725727Y-91441680D01*
X114960759Y-91284637D01*
X115160637Y-91084759D01*
X115317680Y-90849727D01*
X115425853Y-90588574D01*
X115481000Y-90311335D01*
X115481000Y-90028665D01*
X115425853Y-89751426D01*
X115317680Y-89490273D01*
X115160637Y-89255241D01*
X114960759Y-89055363D01*
X114725727Y-88898320D01*
X114464574Y-88790147D01*
X114187335Y-88735000D01*
X113904665Y-88735000D01*
X113627426Y-88790147D01*
X113366273Y-88898320D01*
X113131241Y-89055363D01*
X112931363Y-89255241D01*
X112774320Y-89490273D01*
X112666147Y-89751426D01*
X112611000Y-90028665D01*
X111472502Y-90028665D01*
X111513166Y-89966483D01*
X111618650Y-89704514D01*
X111671000Y-89427000D01*
X111671000Y-89027000D01*
X110363000Y-89027000D01*
X110109000Y-89027000D01*
X110089000Y-89027000D01*
X110089000Y-88773000D01*
X110109000Y-88773000D01*
X110109000Y-87230085D01*
X110363000Y-87230085D01*
X110363000Y-88773000D01*
X111671000Y-88773000D01*
X111671000Y-88429509D01*
X115786000Y-88429509D01*
X115786000Y-89370492D01*
X115806764Y-89581309D01*
X115888818Y-89851808D01*
X116022068Y-90101101D01*
X116201393Y-90319608D01*
X116419900Y-90498932D01*
X116669193Y-90632182D01*
X116939692Y-90714236D01*
X117221000Y-90741943D01*
X117502309Y-90714236D01*
X117772808Y-90632182D01*
X118022101Y-90498932D01*
X118240608Y-90319608D01*
X118419932Y-90101101D01*
X118491000Y-89968142D01*
X118562068Y-90101101D01*
X118741393Y-90319608D01*
X118959900Y-90498932D01*
X119209193Y-90632182D01*
X119479692Y-90714236D01*
X119761000Y-90741943D01*
X120042309Y-90714236D01*
X120312808Y-90632182D01*
X120562101Y-90498932D01*
X120780608Y-90319608D01*
X120959932Y-90101101D01*
X121031000Y-89968142D01*
X121102068Y-90101101D01*
X121281393Y-90319608D01*
X121499900Y-90498932D01*
X121749193Y-90632182D01*
X122019692Y-90714236D01*
X122301000Y-90741943D01*
X122582309Y-90714236D01*
X122852808Y-90632182D01*
X123102101Y-90498932D01*
X123320608Y-90319608D01*
X123499932Y-90101101D01*
X123571000Y-89968142D01*
X123642068Y-90101101D01*
X123821393Y-90319608D01*
X124039900Y-90498932D01*
X124289193Y-90632182D01*
X124559692Y-90714236D01*
X124841000Y-90741943D01*
X125122309Y-90714236D01*
X125392808Y-90632182D01*
X125642101Y-90498932D01*
X125860608Y-90319608D01*
X126039932Y-90101101D01*
X126111000Y-89968142D01*
X126182068Y-90101101D01*
X126361393Y-90319608D01*
X126579900Y-90498932D01*
X126829193Y-90632182D01*
X127099692Y-90714236D01*
X127381000Y-90741943D01*
X127662309Y-90714236D01*
X127932808Y-90632182D01*
X128182101Y-90498932D01*
X128400608Y-90319608D01*
X128579932Y-90101101D01*
X128651000Y-89968142D01*
X128722068Y-90101101D01*
X128901393Y-90319608D01*
X129119900Y-90498932D01*
X129369193Y-90632182D01*
X129639692Y-90714236D01*
X129921000Y-90741943D01*
X130202309Y-90714236D01*
X130472808Y-90632182D01*
X130722101Y-90498932D01*
X130940608Y-90319608D01*
X131119932Y-90101101D01*
X131191000Y-89968142D01*
X131262068Y-90101101D01*
X131441393Y-90319608D01*
X131659900Y-90498932D01*
X131909193Y-90632182D01*
X132179692Y-90714236D01*
X132461000Y-90741943D01*
X132742309Y-90714236D01*
X133012808Y-90632182D01*
X133262101Y-90498932D01*
X133480608Y-90319608D01*
X133659932Y-90101101D01*
X133793182Y-89851808D01*
X133875236Y-89581309D01*
X133896000Y-89370491D01*
X133896000Y-88429508D01*
X133880887Y-88276065D01*
X135217000Y-88276065D01*
X135217000Y-88558735D01*
X135272147Y-88835974D01*
X135380320Y-89097127D01*
X135537363Y-89332159D01*
X135737241Y-89532037D01*
X135972273Y-89689080D01*
X136233426Y-89797253D01*
X136510665Y-89852400D01*
X136793335Y-89852400D01*
X137070574Y-89797253D01*
X137331727Y-89689080D01*
X137566759Y-89532037D01*
X137766637Y-89332159D01*
X137923680Y-89097127D01*
X138031853Y-88835974D01*
X138087000Y-88558735D01*
X138087000Y-88276065D01*
X138031853Y-87998826D01*
X137923680Y-87737673D01*
X137766637Y-87502641D01*
X137566759Y-87302763D01*
X137331727Y-87145720D01*
X137070574Y-87037547D01*
X136793335Y-86982400D01*
X136510665Y-86982400D01*
X136233426Y-87037547D01*
X135972273Y-87145720D01*
X135737241Y-87302763D01*
X135537363Y-87502641D01*
X135380320Y-87737673D01*
X135272147Y-87998826D01*
X135217000Y-88276065D01*
X133880887Y-88276065D01*
X133875236Y-88218691D01*
X133793182Y-87948192D01*
X133659932Y-87698899D01*
X133480607Y-87480392D01*
X133262100Y-87301068D01*
X133012807Y-87167818D01*
X132742308Y-87085764D01*
X132461000Y-87058057D01*
X132179691Y-87085764D01*
X131909192Y-87167818D01*
X131659899Y-87301068D01*
X131441392Y-87480393D01*
X131262068Y-87698900D01*
X131191000Y-87831858D01*
X131119932Y-87698899D01*
X130940607Y-87480392D01*
X130722100Y-87301068D01*
X130472807Y-87167818D01*
X130202308Y-87085764D01*
X129921000Y-87058057D01*
X129639691Y-87085764D01*
X129369192Y-87167818D01*
X129119899Y-87301068D01*
X128901392Y-87480393D01*
X128722068Y-87698900D01*
X128651000Y-87831858D01*
X128579932Y-87698899D01*
X128400607Y-87480392D01*
X128182100Y-87301068D01*
X127932807Y-87167818D01*
X127662308Y-87085764D01*
X127381000Y-87058057D01*
X127099691Y-87085764D01*
X126829192Y-87167818D01*
X126579899Y-87301068D01*
X126361392Y-87480393D01*
X126182068Y-87698900D01*
X126111000Y-87831858D01*
X126039932Y-87698899D01*
X125860607Y-87480392D01*
X125642100Y-87301068D01*
X125392807Y-87167818D01*
X125122308Y-87085764D01*
X124841000Y-87058057D01*
X124559691Y-87085764D01*
X124289192Y-87167818D01*
X124039899Y-87301068D01*
X123821392Y-87480393D01*
X123642068Y-87698900D01*
X123571000Y-87831858D01*
X123499932Y-87698899D01*
X123320607Y-87480392D01*
X123102100Y-87301068D01*
X122852807Y-87167818D01*
X122582308Y-87085764D01*
X122301000Y-87058057D01*
X122019691Y-87085764D01*
X121749192Y-87167818D01*
X121499899Y-87301068D01*
X121281392Y-87480393D01*
X121102068Y-87698900D01*
X121031000Y-87831858D01*
X120959932Y-87698899D01*
X120780607Y-87480392D01*
X120562100Y-87301068D01*
X120312807Y-87167818D01*
X120042308Y-87085764D01*
X119761000Y-87058057D01*
X119479691Y-87085764D01*
X119209192Y-87167818D01*
X118959899Y-87301068D01*
X118741392Y-87480393D01*
X118562068Y-87698900D01*
X118491000Y-87831858D01*
X118419932Y-87698899D01*
X118240607Y-87480392D01*
X118022100Y-87301068D01*
X117772807Y-87167818D01*
X117502308Y-87085764D01*
X117221000Y-87058057D01*
X116939691Y-87085764D01*
X116669192Y-87167818D01*
X116419899Y-87301068D01*
X116201392Y-87480393D01*
X116022068Y-87698900D01*
X115888818Y-87948193D01*
X115806764Y-88218692D01*
X115786000Y-88429509D01*
X111671000Y-88429509D01*
X111671000Y-88373000D01*
X111618650Y-88095486D01*
X111513166Y-87833517D01*
X111358601Y-87597161D01*
X111160895Y-87395500D01*
X110927646Y-87236285D01*
X110667818Y-87125633D01*
X110585039Y-87108096D01*
X110363000Y-87230085D01*
X110109000Y-87230085D01*
X109886961Y-87108096D01*
X109804182Y-87125633D01*
X109544354Y-87236285D01*
X109311105Y-87395500D01*
X109113399Y-87597161D01*
X108963265Y-87826741D01*
X108894932Y-87698899D01*
X108715607Y-87480392D01*
X108497100Y-87301068D01*
X108247807Y-87167818D01*
X107977308Y-87085764D01*
X107696000Y-87058057D01*
X107414691Y-87085764D01*
X107144192Y-87167818D01*
X106894899Y-87301068D01*
X106676392Y-87480393D01*
X106497068Y-87698900D01*
X106426000Y-87831858D01*
X106354932Y-87698899D01*
X106175607Y-87480392D01*
X105957100Y-87301068D01*
X105707807Y-87167818D01*
X105437308Y-87085764D01*
X105156000Y-87058057D01*
X104874691Y-87085764D01*
X104604192Y-87167818D01*
X104354899Y-87301068D01*
X104136392Y-87480393D01*
X103957068Y-87698900D01*
X103886000Y-87831858D01*
X103814932Y-87698899D01*
X103635607Y-87480392D01*
X103417100Y-87301068D01*
X103167807Y-87167818D01*
X102897308Y-87085764D01*
X102616000Y-87058057D01*
X102334691Y-87085764D01*
X102064192Y-87167818D01*
X101814899Y-87301068D01*
X101596392Y-87480393D01*
X101417068Y-87698900D01*
X101283818Y-87948193D01*
X101201764Y-88218692D01*
X101181000Y-88429509D01*
X97320000Y-88429509D01*
X97320000Y-88276065D01*
X97264853Y-87998826D01*
X97156680Y-87737673D01*
X96999637Y-87502641D01*
X96799759Y-87302763D01*
X96564727Y-87145720D01*
X96303574Y-87037547D01*
X96026335Y-86982400D01*
X95743665Y-86982400D01*
X95466426Y-87037547D01*
X95205273Y-87145720D01*
X94970241Y-87302763D01*
X94770363Y-87502641D01*
X94613320Y-87737673D01*
X94505147Y-87998826D01*
X94450000Y-88276065D01*
X92159000Y-88276065D01*
X92159000Y-81880592D01*
X101415000Y-81880592D01*
X101415000Y-82631407D01*
X101437210Y-82856912D01*
X101524983Y-83146260D01*
X101667519Y-83412926D01*
X101859339Y-83646661D01*
X102093073Y-83838481D01*
X102359739Y-83981017D01*
X102649087Y-84068790D01*
X102950000Y-84098427D01*
X103250912Y-84068790D01*
X103540260Y-83981017D01*
X103806926Y-83838481D01*
X104040661Y-83646661D01*
X104232481Y-83412927D01*
X104375017Y-83146261D01*
X104462790Y-82856913D01*
X104485000Y-82631408D01*
X104485000Y-81880593D01*
X104485000Y-81880592D01*
X111415000Y-81880592D01*
X111415000Y-82631407D01*
X111437210Y-82856912D01*
X111524983Y-83146260D01*
X111667519Y-83412926D01*
X111859339Y-83646661D01*
X112093073Y-83838481D01*
X112359739Y-83981017D01*
X112649087Y-84068790D01*
X112950000Y-84098427D01*
X113250912Y-84068790D01*
X113540260Y-83981017D01*
X113806926Y-83838481D01*
X114040661Y-83646661D01*
X114232481Y-83412927D01*
X114375017Y-83146261D01*
X114462790Y-82856913D01*
X114485000Y-82631408D01*
X114485000Y-81880593D01*
X114485000Y-81880592D01*
X121735000Y-81880592D01*
X121735000Y-82631407D01*
X121757210Y-82856912D01*
X121844983Y-83146260D01*
X121987519Y-83412926D01*
X122179339Y-83646661D01*
X122413073Y-83838481D01*
X122679739Y-83981017D01*
X122969087Y-84068790D01*
X123270000Y-84098427D01*
X123570912Y-84068790D01*
X123860260Y-83981017D01*
X124126926Y-83838481D01*
X124360661Y-83646661D01*
X124552481Y-83412927D01*
X124695017Y-83146261D01*
X124782790Y-82856913D01*
X124805000Y-82631408D01*
X124805000Y-81880593D01*
X124805000Y-81880592D01*
X131735000Y-81880592D01*
X131735000Y-82631407D01*
X131757210Y-82856912D01*
X131844983Y-83146260D01*
X131987519Y-83412926D01*
X132179339Y-83646661D01*
X132413073Y-83838481D01*
X132679739Y-83981017D01*
X132969087Y-84068790D01*
X133270000Y-84098427D01*
X133570912Y-84068790D01*
X133860260Y-83981017D01*
X134126926Y-83838481D01*
X134360661Y-83646661D01*
X134552481Y-83412927D01*
X134695017Y-83146261D01*
X134782790Y-82856913D01*
X134805000Y-82631408D01*
X134805000Y-81880593D01*
X134782790Y-81655088D01*
X134695017Y-81365739D01*
X134552481Y-81099073D01*
X134360661Y-80865339D01*
X134126927Y-80673519D01*
X133860261Y-80530983D01*
X133570913Y-80443210D01*
X133270000Y-80413573D01*
X132969088Y-80443210D01*
X132679740Y-80530983D01*
X132413074Y-80673519D01*
X132179339Y-80865339D01*
X131987519Y-81099073D01*
X131844983Y-81365739D01*
X131757210Y-81655087D01*
X131735000Y-81880592D01*
X124805000Y-81880592D01*
X124782790Y-81655088D01*
X124695017Y-81365739D01*
X124552481Y-81099073D01*
X124360661Y-80865339D01*
X124126927Y-80673519D01*
X123860261Y-80530983D01*
X123570913Y-80443210D01*
X123270000Y-80413573D01*
X122969088Y-80443210D01*
X122679740Y-80530983D01*
X122413074Y-80673519D01*
X122179339Y-80865339D01*
X121987519Y-81099073D01*
X121844983Y-81365739D01*
X121757210Y-81655087D01*
X121735000Y-81880592D01*
X114485000Y-81880592D01*
X114462790Y-81655088D01*
X114375017Y-81365739D01*
X114232481Y-81099073D01*
X114040661Y-80865339D01*
X113806927Y-80673519D01*
X113540261Y-80530983D01*
X113250913Y-80443210D01*
X112950000Y-80413573D01*
X112649088Y-80443210D01*
X112359740Y-80530983D01*
X112093074Y-80673519D01*
X111859339Y-80865339D01*
X111667519Y-81099073D01*
X111524983Y-81365739D01*
X111437210Y-81655087D01*
X111415000Y-81880592D01*
X104485000Y-81880592D01*
X104462790Y-81655088D01*
X104375017Y-81365739D01*
X104232481Y-81099073D01*
X104040661Y-80865339D01*
X103806927Y-80673519D01*
X103540261Y-80530983D01*
X103250913Y-80443210D01*
X102950000Y-80413573D01*
X102649088Y-80443210D01*
X102359740Y-80530983D01*
X102093074Y-80673519D01*
X101859339Y-80865339D01*
X101667519Y-81099073D01*
X101524983Y-81365739D01*
X101437210Y-81655087D01*
X101415000Y-81880592D01*
X92159000Y-81880592D01*
X92159000Y-79380592D01*
X98915000Y-79380592D01*
X98915000Y-80131407D01*
X98937210Y-80356912D01*
X99024983Y-80646260D01*
X99167519Y-80912926D01*
X99359339Y-81146661D01*
X99593073Y-81338481D01*
X99859739Y-81481017D01*
X100149087Y-81568790D01*
X100450000Y-81598427D01*
X100750912Y-81568790D01*
X101040260Y-81481017D01*
X101306926Y-81338481D01*
X101540661Y-81146661D01*
X101732481Y-80912927D01*
X101875017Y-80646261D01*
X101962790Y-80356913D01*
X101985000Y-80131408D01*
X101985000Y-79380593D01*
X101985000Y-79380592D01*
X106415000Y-79380592D01*
X106415000Y-80131407D01*
X106437210Y-80356912D01*
X106524983Y-80646260D01*
X106667519Y-80912926D01*
X106859339Y-81146661D01*
X107093073Y-81338481D01*
X107359739Y-81481017D01*
X107649087Y-81568790D01*
X107950000Y-81598427D01*
X108250912Y-81568790D01*
X108540260Y-81481017D01*
X108806926Y-81338481D01*
X109040661Y-81146661D01*
X109232481Y-80912927D01*
X109375017Y-80646261D01*
X109462790Y-80356913D01*
X109485000Y-80131408D01*
X109485000Y-79380593D01*
X109485000Y-79380592D01*
X113915000Y-79380592D01*
X113915000Y-80131407D01*
X113937210Y-80356912D01*
X114024983Y-80646260D01*
X114167519Y-80912926D01*
X114359339Y-81146661D01*
X114593073Y-81338481D01*
X114859739Y-81481017D01*
X115149087Y-81568790D01*
X115450000Y-81598427D01*
X115750912Y-81568790D01*
X116040260Y-81481017D01*
X116306926Y-81338481D01*
X116540661Y-81146661D01*
X116732481Y-80912927D01*
X116875017Y-80646261D01*
X116962790Y-80356913D01*
X116985000Y-80131408D01*
X116985000Y-79380593D01*
X116985000Y-79380592D01*
X119235000Y-79380592D01*
X119235000Y-80131407D01*
X119257210Y-80356912D01*
X119344983Y-80646260D01*
X119487519Y-80912926D01*
X119679339Y-81146661D01*
X119913073Y-81338481D01*
X120179739Y-81481017D01*
X120469087Y-81568790D01*
X120770000Y-81598427D01*
X121070912Y-81568790D01*
X121360260Y-81481017D01*
X121626926Y-81338481D01*
X121860661Y-81146661D01*
X122052481Y-80912927D01*
X122195017Y-80646261D01*
X122282790Y-80356913D01*
X122305000Y-80131408D01*
X122305000Y-79883000D01*
X126735000Y-79883000D01*
X126735000Y-80183000D01*
X126789271Y-80480023D01*
X126900446Y-80760751D01*
X127064252Y-81014396D01*
X127274394Y-81231210D01*
X127522796Y-81402862D01*
X127799913Y-81522755D01*
X127905260Y-81547036D01*
X128143000Y-81426378D01*
X128143000Y-79883000D01*
X128397000Y-79883000D01*
X128397000Y-81426378D01*
X128634740Y-81547036D01*
X128740087Y-81522755D01*
X129017204Y-81402862D01*
X129265606Y-81231210D01*
X129475748Y-81014396D01*
X129639554Y-80760751D01*
X129750729Y-80480023D01*
X129805000Y-80183000D01*
X129805000Y-79883000D01*
X128397000Y-79883000D01*
X128143000Y-79883000D01*
X126735000Y-79883000D01*
X122305000Y-79883000D01*
X122305000Y-79380593D01*
X122299919Y-79329000D01*
X126735000Y-79329000D01*
X126735000Y-79629000D01*
X128143000Y-79629000D01*
X128143000Y-78085622D01*
X128397000Y-78085622D01*
X128397000Y-79629000D01*
X129805000Y-79629000D01*
X129805000Y-79380592D01*
X134235000Y-79380592D01*
X134235000Y-80131407D01*
X134257210Y-80356912D01*
X134344983Y-80646260D01*
X134487519Y-80912926D01*
X134679339Y-81146661D01*
X134913073Y-81338481D01*
X135179739Y-81481017D01*
X135469087Y-81568790D01*
X135770000Y-81598427D01*
X136070912Y-81568790D01*
X136360260Y-81481017D01*
X136626926Y-81338481D01*
X136860661Y-81146661D01*
X137052481Y-80912927D01*
X137195017Y-80646261D01*
X137282790Y-80356913D01*
X137305000Y-80131408D01*
X137305000Y-79380593D01*
X137282790Y-79155088D01*
X137195017Y-78865739D01*
X137052481Y-78599073D01*
X136860661Y-78365339D01*
X136626927Y-78173519D01*
X136360261Y-78030983D01*
X136070913Y-77943210D01*
X135770000Y-77913573D01*
X135469088Y-77943210D01*
X135179740Y-78030983D01*
X134913074Y-78173519D01*
X134679339Y-78365339D01*
X134487519Y-78599073D01*
X134344983Y-78865739D01*
X134257210Y-79155087D01*
X134235000Y-79380592D01*
X129805000Y-79380592D01*
X129805000Y-79329000D01*
X129750729Y-79031977D01*
X129639554Y-78751249D01*
X129475748Y-78497604D01*
X129265606Y-78280790D01*
X129017204Y-78109138D01*
X128740087Y-77989245D01*
X128634740Y-77964964D01*
X128397000Y-78085622D01*
X128143000Y-78085622D01*
X127905260Y-77964964D01*
X127799913Y-77989245D01*
X127522796Y-78109138D01*
X127274394Y-78280790D01*
X127064252Y-78497604D01*
X126900446Y-78751249D01*
X126789271Y-79031977D01*
X126735000Y-79329000D01*
X122299919Y-79329000D01*
X122282790Y-79155088D01*
X122195017Y-78865739D01*
X122052481Y-78599073D01*
X121860661Y-78365339D01*
X121626927Y-78173519D01*
X121360261Y-78030983D01*
X121070913Y-77943210D01*
X120770000Y-77913573D01*
X120469088Y-77943210D01*
X120179740Y-78030983D01*
X119913074Y-78173519D01*
X119679339Y-78365339D01*
X119487519Y-78599073D01*
X119344983Y-78865739D01*
X119257210Y-79155087D01*
X119235000Y-79380592D01*
X116985000Y-79380592D01*
X116962790Y-79155088D01*
X116875017Y-78865739D01*
X116732481Y-78599073D01*
X116540661Y-78365339D01*
X116306927Y-78173519D01*
X116040261Y-78030983D01*
X115750913Y-77943210D01*
X115450000Y-77913573D01*
X115149088Y-77943210D01*
X114859740Y-78030983D01*
X114593074Y-78173519D01*
X114359339Y-78365339D01*
X114167519Y-78599073D01*
X114024983Y-78865739D01*
X113937210Y-79155087D01*
X113915000Y-79380592D01*
X109485000Y-79380592D01*
X109462790Y-79155088D01*
X109375017Y-78865739D01*
X109232481Y-78599073D01*
X109040661Y-78365339D01*
X108806927Y-78173519D01*
X108540261Y-78030983D01*
X108250913Y-77943210D01*
X107950000Y-77913573D01*
X107649088Y-77943210D01*
X107359740Y-78030983D01*
X107093074Y-78173519D01*
X106859339Y-78365339D01*
X106667519Y-78599073D01*
X106524983Y-78865739D01*
X106437210Y-79155087D01*
X106415000Y-79380592D01*
X101985000Y-79380592D01*
X101962790Y-79155088D01*
X101875017Y-78865739D01*
X101732481Y-78599073D01*
X101540661Y-78365339D01*
X101306927Y-78173519D01*
X101040261Y-78030983D01*
X100750913Y-77943210D01*
X100450000Y-77913573D01*
X100149088Y-77943210D01*
X99859740Y-78030983D01*
X99593074Y-78173519D01*
X99359339Y-78365339D01*
X99167519Y-78599073D01*
X99024983Y-78865739D01*
X98937210Y-79155087D01*
X98915000Y-79380592D01*
X92159000Y-79380592D01*
X92159000Y-73171098D01*
X92175000Y-73171098D01*
X92175000Y-73640902D01*
X92266654Y-74101679D01*
X92446440Y-74535721D01*
X92707450Y-74926349D01*
X93039651Y-75258550D01*
X93430279Y-75519560D01*
X93864321Y-75699346D01*
X94325098Y-75791000D01*
X94794902Y-75791000D01*
X95255679Y-75699346D01*
X95689721Y-75519560D01*
X96080349Y-75258550D01*
X96412550Y-74926349D01*
X96673560Y-74535721D01*
X96853346Y-74101679D01*
X96945000Y-73640902D01*
X96945000Y-73171098D01*
X139275000Y-73171098D01*
X139275000Y-73640902D01*
X139366654Y-74101679D01*
X139546440Y-74535721D01*
X139807450Y-74926349D01*
X140139651Y-75258550D01*
X140530279Y-75519560D01*
X140964321Y-75699346D01*
X141425098Y-75791000D01*
X141894902Y-75791000D01*
X142355679Y-75699346D01*
X142789721Y-75519560D01*
X143180349Y-75258550D01*
X143512550Y-74926349D01*
X143773560Y-74535721D01*
X143953346Y-74101679D01*
X144045000Y-73640902D01*
X144045000Y-73171098D01*
X143953346Y-72710321D01*
X143773560Y-72276279D01*
X143512550Y-71885651D01*
X143180349Y-71553450D01*
X142789721Y-71292440D01*
X142355679Y-71112654D01*
X141894902Y-71021000D01*
X141425098Y-71021000D01*
X140964321Y-71112654D01*
X140530279Y-71292440D01*
X140139651Y-71553450D01*
X139807450Y-71885651D01*
X139546440Y-72276279D01*
X139366654Y-72710321D01*
X139275000Y-73171098D01*
X96945000Y-73171098D01*
X96853346Y-72710321D01*
X96673560Y-72276279D01*
X96412550Y-71885651D01*
X96080349Y-71553450D01*
X95689721Y-71292440D01*
X95255679Y-71112654D01*
X94794902Y-71021000D01*
X94325098Y-71021000D01*
X93864321Y-71112654D01*
X93430279Y-71292440D01*
X93039651Y-71553450D01*
X92707450Y-71885651D01*
X92446440Y-72276279D01*
X92266654Y-72710321D01*
X92175000Y-73171098D01*
X92159000Y-73171098D01*
X92159000Y-69756000D01*
X101107573Y-69756000D01*
X101137210Y-70056913D01*
X101224983Y-70346261D01*
X101367519Y-70612927D01*
X101559339Y-70846661D01*
X101793073Y-71038481D01*
X102059739Y-71181017D01*
X102349087Y-71268790D01*
X102574592Y-71291000D01*
X103325408Y-71291000D01*
X103550913Y-71268790D01*
X103840261Y-71181017D01*
X104106927Y-71038481D01*
X104340661Y-70846661D01*
X104532481Y-70612927D01*
X104675017Y-70346261D01*
X104762790Y-70056913D01*
X104792427Y-69756000D01*
X111107573Y-69756000D01*
X111137210Y-70056913D01*
X111224983Y-70346261D01*
X111367519Y-70612927D01*
X111559339Y-70846661D01*
X111793073Y-71038481D01*
X112059739Y-71181017D01*
X112349087Y-71268790D01*
X112574592Y-71291000D01*
X113325408Y-71291000D01*
X113550913Y-71268790D01*
X113840261Y-71181017D01*
X114106927Y-71038481D01*
X114340661Y-70846661D01*
X114532481Y-70612927D01*
X114675017Y-70346261D01*
X114762790Y-70056913D01*
X114792427Y-69756000D01*
X121427573Y-69756000D01*
X121457210Y-70056913D01*
X121544983Y-70346261D01*
X121687519Y-70612927D01*
X121879339Y-70846661D01*
X122113073Y-71038481D01*
X122379739Y-71181017D01*
X122669087Y-71268790D01*
X122894592Y-71291000D01*
X123645408Y-71291000D01*
X123870913Y-71268790D01*
X124160261Y-71181017D01*
X124426927Y-71038481D01*
X124660661Y-70846661D01*
X124852481Y-70612927D01*
X124995017Y-70346261D01*
X125082790Y-70056913D01*
X125112427Y-69756000D01*
X131427573Y-69756000D01*
X131457210Y-70056913D01*
X131544983Y-70346261D01*
X131687519Y-70612927D01*
X131879339Y-70846661D01*
X132113073Y-71038481D01*
X132379739Y-71181017D01*
X132669087Y-71268790D01*
X132894592Y-71291000D01*
X133645408Y-71291000D01*
X133870913Y-71268790D01*
X134160261Y-71181017D01*
X134426927Y-71038481D01*
X134660661Y-70846661D01*
X134852481Y-70612927D01*
X134995017Y-70346261D01*
X135082790Y-70056913D01*
X135112427Y-69756000D01*
X135082790Y-69455087D01*
X134995017Y-69165739D01*
X134852481Y-68899073D01*
X134660661Y-68665339D01*
X134426927Y-68473519D01*
X134160261Y-68330983D01*
X133870913Y-68243210D01*
X133645408Y-68221000D01*
X132894592Y-68221000D01*
X132669087Y-68243210D01*
X132379739Y-68330983D01*
X132113073Y-68473519D01*
X131879339Y-68665339D01*
X131687519Y-68899073D01*
X131544983Y-69165739D01*
X131457210Y-69455087D01*
X131427573Y-69756000D01*
X125112427Y-69756000D01*
X125082790Y-69455087D01*
X124995017Y-69165739D01*
X124852481Y-68899073D01*
X124660661Y-68665339D01*
X124426927Y-68473519D01*
X124160261Y-68330983D01*
X123870913Y-68243210D01*
X123645408Y-68221000D01*
X122894592Y-68221000D01*
X122669087Y-68243210D01*
X122379739Y-68330983D01*
X122113073Y-68473519D01*
X121879339Y-68665339D01*
X121687519Y-68899073D01*
X121544983Y-69165739D01*
X121457210Y-69455087D01*
X121427573Y-69756000D01*
X114792427Y-69756000D01*
X114762790Y-69455087D01*
X114675017Y-69165739D01*
X114532481Y-68899073D01*
X114340661Y-68665339D01*
X114106927Y-68473519D01*
X113840261Y-68330983D01*
X113550913Y-68243210D01*
X113325408Y-68221000D01*
X112574592Y-68221000D01*
X112349087Y-68243210D01*
X112059739Y-68330983D01*
X111793073Y-68473519D01*
X111559339Y-68665339D01*
X111367519Y-68899073D01*
X111224983Y-69165739D01*
X111137210Y-69455087D01*
X111107573Y-69756000D01*
X104792427Y-69756000D01*
X104762790Y-69455087D01*
X104675017Y-69165739D01*
X104532481Y-68899073D01*
X104340661Y-68665339D01*
X104106927Y-68473519D01*
X103840261Y-68330983D01*
X103550913Y-68243210D01*
X103325408Y-68221000D01*
X102574592Y-68221000D01*
X102349087Y-68243210D01*
X102059739Y-68330983D01*
X101793073Y-68473519D01*
X101559339Y-68665339D01*
X101367519Y-68899073D01*
X101224983Y-69165739D01*
X101137210Y-69455087D01*
X101107573Y-69756000D01*
X92159000Y-69756000D01*
X92159000Y-68360720D01*
X92173005Y-68217891D01*
X92204402Y-68113899D01*
X92255399Y-68017986D01*
X92324055Y-67933806D01*
X92407758Y-67864560D01*
X92503311Y-67812895D01*
X92607078Y-67780773D01*
X92747641Y-67766000D01*
X143466280Y-67766000D01*
X143609109Y-67780005D01*
G37*
G04 #@! TD.AperFunction*
M02*
