M48
INCH,TZ
T1C0.0315
T2C0.0354
T3C0.0394
T4C0.0433
%
G90
G05
T1
X37000Y-40281
X37000Y-42250
X51450Y-46150
X53419Y-46150
X40400Y-35000
X40400Y-38000
X41400Y-35000
X41400Y-38000
X42400Y-35000
X42400Y-38000
X43400Y-35000
X43400Y-38000
X37000Y-44250
X37000Y-46219
X53800Y-34810
X53800Y-38810
X48450Y-41750
X48450Y-44750
X49450Y-41750
X49450Y-44750
X50450Y-41750
X50450Y-44750
X51450Y-41750
X51450Y-44750
X52450Y-41750
X52450Y-44750
X53450Y-41750
X53450Y-44750
X54450Y-41750
X54450Y-44750
X55450Y-41750
X55450Y-44750
X50450Y-40200
X54450Y-40200
X54450Y-46150
X56419Y-46150
X46150Y-35000
X46150Y-38000
X47150Y-35000
X47150Y-38000
X48150Y-35000
X48150Y-38000
X49150Y-35000
X49150Y-38000
X50150Y-35000
X50150Y-38000
X51150Y-35000
X51150Y-38000
X52150Y-35000
X52150Y-38000
X37750Y-34810
X37750Y-38810
X46950Y-42250
X46950Y-44219
X40370Y-39280
X43370Y-39280
X48450Y-46150
X50419Y-46150
X44450Y-40200
X48450Y-40200
X45456Y-46150
X47425Y-46150
X44900Y-35500
X44900Y-37469
X39150Y-35500
X39150Y-37469
T3
X39957Y-49250
X40502Y-50368
X41047Y-49250
X41593Y-50368
X42138Y-49250
X42683Y-50368
X43228Y-49250
X43774Y-50368
X44319Y-49250
X44864Y-50368
X45409Y-49250
X45955Y-50368
X46500Y-49250
X47045Y-50368
X47591Y-49250
X48136Y-50368
X48681Y-49250
X49226Y-50368
X49772Y-49250
X50317Y-50368
X50862Y-49250
X51407Y-50368
X51953Y-49250
X52498Y-50368
X53043Y-49250
T4
X38250Y-42250
X38250Y-43250
X38250Y-44250
T2
G00X39547Y-31518
M15
G01X39547Y-31282
M16
G05
G00X40531Y-32502
M15
G01X40531Y-32266
M16
G05
G00X42500Y-31518
M15
G01X42500Y-31282
M16
G05
G00X44469Y-32502
M15
G01X44469Y-32266
M16
G05
G00X45453Y-31518
M15
G01X45453Y-31282
M16
G05
G00X47547Y-31518
M15
G01X47547Y-31282
M16
G05
G00X48531Y-32502
M15
G01X48531Y-32266
M16
G05
G00X50500Y-31518
M15
G01X50500Y-31282
M16
G05
G00X52469Y-32502
M15
G01X52469Y-32266
M16
G05
G00X53453Y-31518
M15
G01X53453Y-31282
M16
G05
T0
M30
