G04 #@! TF.GenerationSoftware,KiCad,Pcbnew,(5.1.8)-1*
G04 #@! TF.CreationDate,2022-02-21T01:44:32+01:00*
G04 #@! TF.ProjectId,BulkyMIDI-32 Amiga,42756c6b-794d-4494-9449-2d333220416d,rev?*
G04 #@! TF.SameCoordinates,Original*
G04 #@! TF.FileFunction,Copper,L1,Top*
G04 #@! TF.FilePolarity,Positive*
%FSLAX46Y46*%
G04 Gerber Fmt 4.6, Leading zero omitted, Abs format (unit mm)*
G04 Created by KiCad (PCBNEW (5.1.8)-1) date 2022-02-21 01:44:32*
%MOMM*%
%LPD*%
G01*
G04 APERTURE LIST*
G04 #@! TA.AperFunction,WasherPad*
%ADD10C,5.000000*%
G04 #@! TD*
G04 #@! TA.AperFunction,ComponentPad*
%ADD11C,1.600000*%
G04 #@! TD*
G04 #@! TA.AperFunction,ComponentPad*
%ADD12R,1.600000X1.600000*%
G04 #@! TD*
G04 #@! TA.AperFunction,ComponentPad*
%ADD13O,1.800000X2.400000*%
G04 #@! TD*
G04 #@! TA.AperFunction,WasherPad*
%ADD14O,2.400000X1.800000*%
G04 #@! TD*
G04 #@! TA.AperFunction,ComponentPad*
%ADD15O,1.600000X1.600000*%
G04 #@! TD*
G04 #@! TA.AperFunction,ComponentPad*
%ADD16R,1.600000X2.400000*%
G04 #@! TD*
G04 #@! TA.AperFunction,ComponentPad*
%ADD17O,1.600000X2.400000*%
G04 #@! TD*
G04 #@! TA.AperFunction,WasherPad*
%ADD18C,3.500000*%
G04 #@! TD*
G04 #@! TA.AperFunction,ComponentPad*
%ADD19R,2.000000X1.905000*%
G04 #@! TD*
G04 #@! TA.AperFunction,ComponentPad*
%ADD20O,2.000000X1.905000*%
G04 #@! TD*
G04 #@! TA.AperFunction,Conductor*
%ADD21C,0.381000*%
G04 #@! TD*
G04 #@! TA.AperFunction,Conductor*
%ADD22C,0.250000*%
G04 #@! TD*
G04 APERTURE END LIST*
D10*
X141660000Y-126515000D03*
X94560000Y-126515000D03*
D11*
X102875000Y-127935000D03*
X105645000Y-127935000D03*
X108415000Y-127935000D03*
X111185000Y-127935000D03*
X113955000Y-127935000D03*
X116725000Y-127935000D03*
X119495000Y-127935000D03*
X122265000Y-127935000D03*
X125035000Y-127935000D03*
X127805000Y-127935000D03*
X130575000Y-127935000D03*
X133345000Y-127935000D03*
X101490000Y-125095000D03*
X104260000Y-125095000D03*
X107030000Y-125095000D03*
X109800000Y-125095000D03*
X112570000Y-125095000D03*
X115340000Y-125095000D03*
X118110000Y-125095000D03*
X120880000Y-125095000D03*
X123650000Y-125095000D03*
X126420000Y-125095000D03*
X129190000Y-125095000D03*
X131960000Y-125095000D03*
D12*
X134730000Y-125095000D03*
D13*
X107950000Y-79756000D03*
D14*
X102950000Y-69756000D03*
X112950000Y-69756000D03*
D13*
X100450000Y-79756000D03*
X115450000Y-79756000D03*
X102950000Y-82256000D03*
X112950000Y-82256000D03*
X128270000Y-79756000D03*
D14*
X123270000Y-69756000D03*
X133270000Y-69756000D03*
D13*
X120770000Y-79756000D03*
X135770000Y-79756000D03*
X123270000Y-82256000D03*
X133270000Y-82256000D03*
D12*
X102539800Y-99771200D03*
D15*
X110159800Y-99771200D03*
X112903000Y-102108000D03*
D11*
X123063000Y-102108000D03*
X128143000Y-102108000D03*
D15*
X138303000Y-102108000D03*
X136652000Y-98577400D03*
D11*
X136652000Y-88417400D03*
X95885000Y-98577400D03*
D15*
X95885000Y-88417400D03*
D16*
X102616000Y-96520000D03*
D17*
X110236000Y-88900000D03*
X105156000Y-96520000D03*
X107696000Y-88900000D03*
X107696000Y-96520000D03*
X105156000Y-88900000D03*
X110236000Y-96520000D03*
X102616000Y-88900000D03*
D16*
X117221000Y-96520000D03*
D17*
X132461000Y-88900000D03*
X119761000Y-96520000D03*
X129921000Y-88900000D03*
X122301000Y-96520000D03*
X127381000Y-88900000D03*
X124841000Y-96520000D03*
X124841000Y-88900000D03*
X127381000Y-96520000D03*
X122301000Y-88900000D03*
X129921000Y-96520000D03*
X119761000Y-88900000D03*
X132461000Y-96520000D03*
X117221000Y-88900000D03*
D11*
X99441000Y-90170000D03*
X99441000Y-95170000D03*
X114046000Y-95170000D03*
X114046000Y-90170000D03*
D18*
X94560000Y-73406000D03*
X141660000Y-73406000D03*
D11*
X93980000Y-107315000D03*
X93980000Y-102315000D03*
X119253000Y-112315000D03*
X119253000Y-107315000D03*
X93980000Y-117395000D03*
X93980000Y-112395000D03*
X115459500Y-117221000D03*
X120459500Y-117221000D03*
X138303000Y-117221000D03*
X143303000Y-117221000D03*
X130683000Y-117221000D03*
X135683000Y-117221000D03*
X128063000Y-117221000D03*
X123063000Y-117221000D03*
D16*
X123063000Y-113665000D03*
D17*
X140843000Y-106045000D03*
X125603000Y-113665000D03*
X138303000Y-106045000D03*
X128143000Y-113665000D03*
X135763000Y-106045000D03*
X130683000Y-113665000D03*
X133223000Y-106045000D03*
X133223000Y-113665000D03*
X130683000Y-106045000D03*
X135763000Y-113665000D03*
X128143000Y-106045000D03*
X138303000Y-113665000D03*
X125603000Y-106045000D03*
X140843000Y-113665000D03*
X123063000Y-106045000D03*
D19*
X97155000Y-107315000D03*
D20*
X97155000Y-109855000D03*
X97155000Y-112395000D03*
D21*
X100711000Y-88900000D02*
X99441000Y-90170000D01*
X102616000Y-88900000D02*
X100711000Y-88900000D01*
X115316000Y-88900000D02*
X114046000Y-90170000D01*
X117221000Y-88900000D02*
X115316000Y-88900000D01*
X97155000Y-112395000D02*
X93980000Y-112395000D01*
X99060000Y-111760000D02*
X98425000Y-112395000D01*
X98425000Y-112395000D02*
X97155000Y-112395000D01*
X123063000Y-106045000D02*
X120523000Y-106045000D01*
X119253000Y-107315000D02*
X117475000Y-109093000D01*
X117475000Y-115205500D02*
X115459500Y-117221000D01*
X117475000Y-109093000D02*
X117475000Y-115205500D01*
X119253000Y-107315000D02*
X119253000Y-106045000D01*
X119253000Y-106045000D02*
X120523000Y-106045000D01*
X99060000Y-106045000D02*
X99060000Y-111760000D01*
X99060000Y-103911400D02*
X99060000Y-106045000D01*
X123063000Y-102108000D02*
X128143000Y-102108000D01*
X99187000Y-104038400D02*
X99060000Y-103911400D01*
X97282000Y-90170000D02*
X99441000Y-90170000D01*
X94234000Y-93218000D02*
X97282000Y-90170000D01*
X94234000Y-99085400D02*
X94234000Y-93218000D01*
X99060000Y-103911400D02*
X94234000Y-99085400D01*
X109829600Y-104038400D02*
X99187000Y-104038400D01*
X110998000Y-102870000D02*
X109829600Y-104038400D01*
X110998000Y-101346000D02*
X110998000Y-102870000D01*
X112166400Y-100177600D02*
X110998000Y-101346000D01*
X112166400Y-92049600D02*
X112166400Y-100177600D01*
X114046000Y-90170000D02*
X112166400Y-92049600D01*
X119253000Y-105029000D02*
X118262400Y-104038400D01*
X119253000Y-106045000D02*
X119253000Y-105029000D01*
X118262400Y-104038400D02*
X109829600Y-104038400D01*
X121132600Y-104038400D02*
X118262400Y-104038400D01*
X123063000Y-102108000D02*
X121132600Y-104038400D01*
D22*
X104114600Y-99771200D02*
X102539800Y-99771200D01*
X105156000Y-98729800D02*
X104114600Y-99771200D01*
X105156000Y-96520000D02*
X105156000Y-98729800D01*
X97078800Y-99771200D02*
X95885000Y-98577400D01*
X102539800Y-99771200D02*
X97078800Y-99771200D01*
X107696000Y-94488000D02*
X107696000Y-96520000D01*
X106426000Y-93218000D02*
X107696000Y-94488000D01*
X106426000Y-87503000D02*
X106426000Y-93218000D01*
X111673000Y-82256000D02*
X106426000Y-87503000D01*
X112950000Y-82256000D02*
X111673000Y-82256000D01*
X108737400Y-99771200D02*
X110159800Y-99771200D01*
X107696000Y-98729800D02*
X108737400Y-99771200D01*
X107696000Y-96520000D02*
X107696000Y-98729800D01*
X136652000Y-87630000D02*
X136652000Y-88900000D01*
X133270000Y-84248000D02*
X136652000Y-87630000D01*
X133270000Y-82256000D02*
X133270000Y-84248000D01*
X140208000Y-100203000D02*
X138303000Y-102108000D01*
X138430000Y-77470000D02*
X140208000Y-79248000D01*
X140208000Y-79248000D02*
X140208000Y-100203000D01*
X124968000Y-77470000D02*
X138430000Y-77470000D01*
X123270000Y-79168000D02*
X124968000Y-77470000D01*
X123270000Y-82256000D02*
X123270000Y-79168000D01*
X102950000Y-82256000D02*
X98719000Y-82256000D01*
X98719000Y-82256000D02*
X95885000Y-85090000D01*
X95885000Y-88417400D02*
X95885000Y-85090000D01*
X117221000Y-96520000D02*
X119761000Y-96520000D01*
X117221000Y-93281500D02*
X117221000Y-96520000D01*
X118491000Y-92011500D02*
X117221000Y-93281500D01*
X118491000Y-87630000D02*
X118491000Y-92011500D01*
X117856000Y-86995000D02*
X118491000Y-87630000D01*
X108331000Y-86995000D02*
X117856000Y-86995000D01*
X107696000Y-87630000D02*
X108331000Y-86995000D01*
X107696000Y-88900000D02*
X107696000Y-87630000D01*
X112903000Y-102108000D02*
X115874800Y-102108000D01*
X117221000Y-100761800D02*
X117221000Y-96520000D01*
X115874800Y-102108000D02*
X117221000Y-100761800D01*
X136652000Y-96520000D02*
X136652000Y-98552000D01*
X132461000Y-92329000D02*
X136652000Y-96520000D01*
X132461000Y-88900000D02*
X132461000Y-92329000D01*
X129921000Y-88900000D02*
X127381000Y-88900000D01*
X124841000Y-88900000D02*
X127381000Y-88900000D01*
X122301000Y-96520000D02*
X124841000Y-96520000D01*
X124841000Y-96520000D02*
X127381000Y-96520000D01*
D21*
X97155000Y-107315000D02*
X93980000Y-107315000D01*
X112570000Y-124000000D02*
X112570000Y-125095000D01*
X93345000Y-123190000D02*
X111760000Y-123190000D01*
X92075000Y-121920000D02*
X93345000Y-123190000D01*
X111760000Y-123190000D02*
X112570000Y-124000000D01*
X92075000Y-109220000D02*
X92075000Y-121920000D01*
X93980000Y-107315000D02*
X92075000Y-109220000D01*
D22*
X120459500Y-117221000D02*
X120459500Y-118554500D01*
X120459500Y-118554500D02*
X121285000Y-119380000D01*
X121285000Y-119380000D02*
X124460000Y-119380000D01*
X125603000Y-118237000D02*
X125603000Y-113665000D01*
X124460000Y-119380000D02*
X125603000Y-118237000D01*
X135763000Y-113665000D02*
X135763000Y-114808000D01*
X135763000Y-114808000D02*
X136525000Y-115570000D01*
X136525000Y-115570000D02*
X137795000Y-115570000D01*
X138303000Y-116078000D02*
X138303000Y-117221000D01*
X137795000Y-115570000D02*
X138303000Y-116078000D01*
D21*
X130683000Y-113665000D02*
X130683000Y-117221000D01*
X133223000Y-113665000D02*
X133223000Y-116332000D01*
X134112000Y-117221000D02*
X135683000Y-117221000D01*
X133223000Y-116332000D02*
X134112000Y-117221000D01*
X128143000Y-117141000D02*
X128063000Y-117221000D01*
X128143000Y-113665000D02*
X128143000Y-117141000D01*
X123063000Y-113665000D02*
X123063000Y-117221000D01*
D22*
X130683000Y-109093000D02*
X130683000Y-106045000D01*
X131960000Y-110370000D02*
X130683000Y-109093000D01*
X131960000Y-125095000D02*
X131960000Y-110370000D01*
X128143000Y-109093000D02*
X128143000Y-106045000D01*
X129413000Y-110363000D02*
X128143000Y-109093000D01*
X129413000Y-124872000D02*
X129413000Y-110363000D01*
X129190000Y-125095000D02*
X129413000Y-124872000D01*
X122301000Y-88900000D02*
X119761000Y-88900000D01*
X133223000Y-104394000D02*
X133223000Y-106045000D01*
X128651000Y-99822000D02*
X133223000Y-104394000D01*
X128651000Y-94996000D02*
X128651000Y-99822000D01*
X127635000Y-93980000D02*
X128651000Y-94996000D01*
X123190000Y-93980000D02*
X127635000Y-93980000D01*
X122301000Y-93091000D02*
X123190000Y-93980000D01*
X122301000Y-88900000D02*
X122301000Y-93091000D01*
X135763000Y-106045000D02*
X135763000Y-104775000D01*
X129921000Y-98933000D02*
X129921000Y-96520000D01*
X135763000Y-104775000D02*
X129921000Y-98933000D01*
M02*
