G04 #@! TF.GenerationSoftware,KiCad,Pcbnew,(5.1.8)-1*
G04 #@! TF.CreationDate,2022-02-21T01:44:32+01:00*
G04 #@! TF.ProjectId,BulkyMIDI-32 Amiga,42756c6b-794d-4494-9449-2d333220416d,rev?*
G04 #@! TF.SameCoordinates,Original*
G04 #@! TF.FileFunction,Legend,Top*
G04 #@! TF.FilePolarity,Positive*
%FSLAX46Y46*%
G04 Gerber Fmt 4.6, Leading zero omitted, Abs format (unit mm)*
G04 Created by KiCad (PCBNEW (5.1.8)-1) date 2022-02-21 01:44:32*
%MOMM*%
%LPD*%
G01*
G04 APERTURE LIST*
%ADD10C,0.120000*%
%ADD11C,0.150000*%
%ADD12C,0.100000*%
G04 APERTURE END LIST*
D10*
X92560000Y-120205000D02*
X143660000Y-120205000D01*
X144720000Y-121265000D02*
X144720000Y-131765000D01*
X143660000Y-132825000D02*
X92560000Y-132825000D01*
X91500000Y-131765000D02*
X91500000Y-121265000D01*
X134480000Y-119310662D02*
X134980000Y-119310662D01*
X134980000Y-119310662D02*
X134730000Y-119743675D01*
X134730000Y-119743675D02*
X134480000Y-119310662D01*
X100878311Y-122505000D02*
X135341689Y-122505000D01*
X101707048Y-130525000D02*
X134512952Y-130525000D01*
X136976470Y-124453256D02*
X136147733Y-129153256D01*
X99243530Y-124453256D02*
X100072267Y-129153256D01*
X136147733Y-129153256D02*
G75*
G02*
X134512952Y-130525000I-1634781J288256D01*
G01*
X100072267Y-129153256D02*
G75*
G03*
X101707048Y-130525000I1634781J288256D01*
G01*
X136976470Y-124453256D02*
G75*
G03*
X135341689Y-122505000I-1634781J288256D01*
G01*
X99243530Y-124453256D02*
G75*
G02*
X100878311Y-122505000I1634781J288256D01*
G01*
X143660000Y-132825000D02*
G75*
G03*
X144720000Y-131765000I0J1060000D01*
G01*
X92560000Y-132825000D02*
G75*
G02*
X91500000Y-131765000I0J1060000D01*
G01*
X144720000Y-121265000D02*
G75*
G03*
X143660000Y-120205000I-1060000J0D01*
G01*
X92560000Y-120205000D02*
G75*
G03*
X91500000Y-121265000I0J-1060000D01*
G01*
D11*
X107950000Y-67256000D02*
X118450000Y-67256000D01*
X107950000Y-67256000D02*
X97450000Y-67256000D01*
X97450000Y-69256000D02*
X97450000Y-67256000D01*
X118450000Y-69256000D02*
X97450000Y-69256000D01*
X118450000Y-67256000D02*
X118450000Y-69256000D01*
X99100000Y-86256000D02*
X99100000Y-69256000D01*
X116800000Y-69256000D02*
X116800000Y-86256000D01*
X116800000Y-86256000D02*
X113538000Y-86256000D01*
X113538000Y-83820000D02*
X109982000Y-83820000D01*
X105918000Y-83820000D02*
X102362000Y-83820000D01*
X99100000Y-86256000D02*
X102362000Y-86256000D01*
X113538000Y-86256000D02*
X113538000Y-83820000D01*
X102362000Y-86256000D02*
X102362000Y-83820000D01*
X109982000Y-86256000D02*
X109982000Y-83820000D01*
X105918000Y-86256000D02*
X105918000Y-83820000D01*
D10*
X109982000Y-86256000D02*
X105918000Y-86256000D01*
D11*
X128270000Y-67256000D02*
X138770000Y-67256000D01*
X128270000Y-67256000D02*
X117770000Y-67256000D01*
X117770000Y-69256000D02*
X117770000Y-67256000D01*
X138770000Y-69256000D02*
X117770000Y-69256000D01*
X138770000Y-67256000D02*
X138770000Y-69256000D01*
X119420000Y-86256000D02*
X119420000Y-69256000D01*
X137120000Y-69256000D02*
X137120000Y-86256000D01*
X137120000Y-86256000D02*
X133858000Y-86256000D01*
X133858000Y-83820000D02*
X130302000Y-83820000D01*
X126238000Y-83820000D02*
X122682000Y-83820000D01*
X119420000Y-86256000D02*
X122682000Y-86256000D01*
X133858000Y-86256000D02*
X133858000Y-83820000D01*
X122682000Y-86256000D02*
X122682000Y-83820000D01*
X130302000Y-86256000D02*
X130302000Y-83820000D01*
X126238000Y-86256000D02*
X126238000Y-83820000D01*
D10*
X130302000Y-86256000D02*
X126238000Y-86256000D01*
X104229800Y-98651200D02*
X104229800Y-100891200D01*
X104229800Y-100891200D02*
X108469800Y-100891200D01*
X108469800Y-100891200D02*
X108469800Y-98651200D01*
X108469800Y-98651200D02*
X104229800Y-98651200D01*
X103579800Y-99771200D02*
X104229800Y-99771200D01*
X109119800Y-99771200D02*
X108469800Y-99771200D01*
X104949800Y-98651200D02*
X104949800Y-100891200D01*
X105069800Y-98651200D02*
X105069800Y-100891200D01*
X104829800Y-98651200D02*
X104829800Y-100891200D01*
X113943000Y-102108000D02*
X114713000Y-102108000D01*
X122023000Y-102108000D02*
X121253000Y-102108000D01*
X114713000Y-103478000D02*
X121253000Y-103478000D01*
X114713000Y-100738000D02*
X114713000Y-103478000D01*
X121253000Y-100738000D02*
X114713000Y-100738000D01*
X121253000Y-103478000D02*
X121253000Y-100738000D01*
X129953000Y-100738000D02*
X129953000Y-103478000D01*
X129953000Y-103478000D02*
X136493000Y-103478000D01*
X136493000Y-103478000D02*
X136493000Y-100738000D01*
X136493000Y-100738000D02*
X129953000Y-100738000D01*
X129183000Y-102108000D02*
X129953000Y-102108000D01*
X137263000Y-102108000D02*
X136493000Y-102108000D01*
X136652000Y-97537400D02*
X136652000Y-96767400D01*
X136652000Y-89457400D02*
X136652000Y-90227400D01*
X138022000Y-96767400D02*
X138022000Y-90227400D01*
X135282000Y-96767400D02*
X138022000Y-96767400D01*
X135282000Y-90227400D02*
X135282000Y-96767400D01*
X138022000Y-90227400D02*
X135282000Y-90227400D01*
X94515000Y-96767400D02*
X97255000Y-96767400D01*
X97255000Y-96767400D02*
X97255000Y-90227400D01*
X97255000Y-90227400D02*
X94515000Y-90227400D01*
X94515000Y-90227400D02*
X94515000Y-96767400D01*
X95885000Y-97537400D02*
X95885000Y-96767400D01*
X95885000Y-89457400D02*
X95885000Y-90227400D01*
X101286000Y-93710000D02*
X101286000Y-94960000D01*
X101286000Y-94960000D02*
X111566000Y-94960000D01*
X111566000Y-94960000D02*
X111566000Y-90460000D01*
X111566000Y-90460000D02*
X101286000Y-90460000D01*
X101286000Y-90460000D02*
X101286000Y-91710000D01*
X101226000Y-97960000D02*
X111626000Y-97960000D01*
X111626000Y-97960000D02*
X111626000Y-87460000D01*
X111626000Y-87460000D02*
X101226000Y-87460000D01*
X101226000Y-87460000D02*
X101226000Y-97960000D01*
X101286000Y-91710000D02*
G75*
G02*
X101286000Y-93710000I0J-1000000D01*
G01*
X115891000Y-93710000D02*
X115891000Y-94960000D01*
X115891000Y-94960000D02*
X133791000Y-94960000D01*
X133791000Y-94960000D02*
X133791000Y-90460000D01*
X133791000Y-90460000D02*
X115891000Y-90460000D01*
X115891000Y-90460000D02*
X115891000Y-91710000D01*
X115831000Y-97960000D02*
X133851000Y-97960000D01*
X133851000Y-97960000D02*
X133851000Y-87460000D01*
X133851000Y-87460000D02*
X115831000Y-87460000D01*
X115831000Y-87460000D02*
X115831000Y-97960000D01*
X115891000Y-91710000D02*
G75*
G02*
X115891000Y-93710000I0J-1000000D01*
G01*
X98386000Y-95140000D02*
X98071000Y-95140000D01*
X100811000Y-95140000D02*
X100496000Y-95140000D01*
X98386000Y-90200000D02*
X98071000Y-90200000D01*
X100811000Y-90200000D02*
X100496000Y-90200000D01*
X98071000Y-90200000D02*
X98071000Y-95140000D01*
X100811000Y-90200000D02*
X100811000Y-95140000D01*
X115416000Y-90200000D02*
X115416000Y-95140000D01*
X112676000Y-90200000D02*
X112676000Y-95140000D01*
X115416000Y-90200000D02*
X115101000Y-90200000D01*
X112991000Y-90200000D02*
X112676000Y-90200000D01*
X115416000Y-95140000D02*
X115101000Y-95140000D01*
X112991000Y-95140000D02*
X112676000Y-95140000D01*
X92610000Y-107285000D02*
X92610000Y-102345000D01*
X95350000Y-107285000D02*
X95350000Y-102345000D01*
X92610000Y-107285000D02*
X92925000Y-107285000D01*
X95035000Y-107285000D02*
X95350000Y-107285000D01*
X92610000Y-102345000D02*
X92925000Y-102345000D01*
X95035000Y-102345000D02*
X95350000Y-102345000D01*
X118198000Y-112285000D02*
X117883000Y-112285000D01*
X120623000Y-112285000D02*
X120308000Y-112285000D01*
X118198000Y-107345000D02*
X117883000Y-107345000D01*
X120623000Y-107345000D02*
X120308000Y-107345000D01*
X117883000Y-107345000D02*
X117883000Y-112285000D01*
X120623000Y-107345000D02*
X120623000Y-112285000D01*
X92925000Y-117365000D02*
X92610000Y-117365000D01*
X95350000Y-117365000D02*
X95035000Y-117365000D01*
X92925000Y-112425000D02*
X92610000Y-112425000D01*
X95350000Y-112425000D02*
X95035000Y-112425000D01*
X92610000Y-112425000D02*
X92610000Y-117365000D01*
X95350000Y-112425000D02*
X95350000Y-117365000D01*
X115489500Y-115851000D02*
X120429500Y-115851000D01*
X115489500Y-118591000D02*
X120429500Y-118591000D01*
X115489500Y-115851000D02*
X115489500Y-116166000D01*
X115489500Y-118276000D02*
X115489500Y-118591000D01*
X120429500Y-115851000D02*
X120429500Y-116166000D01*
X120429500Y-118276000D02*
X120429500Y-118591000D01*
X138333000Y-115851000D02*
X143273000Y-115851000D01*
X138333000Y-118591000D02*
X143273000Y-118591000D01*
X138333000Y-115851000D02*
X138333000Y-116166000D01*
X138333000Y-118276000D02*
X138333000Y-118591000D01*
X143273000Y-115851000D02*
X143273000Y-116166000D01*
X143273000Y-118276000D02*
X143273000Y-118591000D01*
X130713000Y-115851000D02*
X135653000Y-115851000D01*
X130713000Y-118591000D02*
X135653000Y-118591000D01*
X130713000Y-115851000D02*
X130713000Y-116166000D01*
X130713000Y-118276000D02*
X130713000Y-118591000D01*
X135653000Y-115851000D02*
X135653000Y-116166000D01*
X135653000Y-118276000D02*
X135653000Y-118591000D01*
X128033000Y-118276000D02*
X128033000Y-118591000D01*
X128033000Y-115851000D02*
X128033000Y-116166000D01*
X123093000Y-118276000D02*
X123093000Y-118591000D01*
X123093000Y-115851000D02*
X123093000Y-116166000D01*
X123093000Y-118591000D02*
X128033000Y-118591000D01*
X123093000Y-115851000D02*
X128033000Y-115851000D01*
X121733000Y-110855000D02*
X121733000Y-112105000D01*
X121733000Y-112105000D02*
X142173000Y-112105000D01*
X142173000Y-112105000D02*
X142173000Y-107605000D01*
X142173000Y-107605000D02*
X121733000Y-107605000D01*
X121733000Y-107605000D02*
X121733000Y-108855000D01*
X121673000Y-115105000D02*
X142233000Y-115105000D01*
X142233000Y-115105000D02*
X142233000Y-104605000D01*
X142233000Y-104605000D02*
X121673000Y-104605000D01*
X121673000Y-104605000D02*
X121673000Y-115105000D01*
X121733000Y-108855000D02*
G75*
G02*
X121733000Y-110855000I0J-1000000D01*
G01*
X100845000Y-104735000D02*
X100845000Y-114975000D01*
X116735000Y-104735000D02*
X116735000Y-114975000D01*
X116735000Y-104735000D02*
X100845000Y-104735000D01*
X116735000Y-114975000D02*
X100845000Y-114975000D01*
X100845000Y-107315000D02*
X98305000Y-107315000D01*
X100845000Y-109855000D02*
X98305000Y-109855000D01*
X100845000Y-112395000D02*
X98305000Y-112395000D01*
D11*
X101156666Y-118657380D02*
X101156666Y-119371666D01*
X101109047Y-119514523D01*
X101013809Y-119609761D01*
X100870952Y-119657380D01*
X100775714Y-119657380D01*
X102156666Y-119657380D02*
X101585238Y-119657380D01*
X101870952Y-119657380D02*
X101870952Y-118657380D01*
X101775714Y-118800238D01*
X101680476Y-118895476D01*
X101585238Y-118943095D01*
X107366666Y-67708380D02*
X107366666Y-68422666D01*
X107319047Y-68565523D01*
X107223809Y-68660761D01*
X107080952Y-68708380D01*
X106985714Y-68708380D01*
X107747619Y-67708380D02*
X108366666Y-67708380D01*
X108033333Y-68089333D01*
X108176190Y-68089333D01*
X108271428Y-68136952D01*
X108319047Y-68184571D01*
X108366666Y-68279809D01*
X108366666Y-68517904D01*
X108319047Y-68613142D01*
X108271428Y-68660761D01*
X108176190Y-68708380D01*
X107890476Y-68708380D01*
X107795238Y-68660761D01*
X107747619Y-68613142D01*
X105497619Y-75958380D02*
X105497619Y-74958380D01*
X105830952Y-75672666D01*
X106164285Y-74958380D01*
X106164285Y-75958380D01*
X106640476Y-75958380D02*
X106640476Y-74958380D01*
X107116666Y-75958380D02*
X107116666Y-74958380D01*
X107354761Y-74958380D01*
X107497619Y-75006000D01*
X107592857Y-75101238D01*
X107640476Y-75196476D01*
X107688095Y-75386952D01*
X107688095Y-75529809D01*
X107640476Y-75720285D01*
X107592857Y-75815523D01*
X107497619Y-75910761D01*
X107354761Y-75958380D01*
X107116666Y-75958380D01*
X108116666Y-75958380D02*
X108116666Y-74958380D01*
X109354761Y-75958380D02*
X109354761Y-74958380D01*
X109830952Y-75958380D02*
X109830952Y-74958380D01*
X110402380Y-75958380D01*
X110402380Y-74958380D01*
X127686666Y-67708380D02*
X127686666Y-68422666D01*
X127639047Y-68565523D01*
X127543809Y-68660761D01*
X127400952Y-68708380D01*
X127305714Y-68708380D01*
X128115238Y-67803619D02*
X128162857Y-67756000D01*
X128258095Y-67708380D01*
X128496190Y-67708380D01*
X128591428Y-67756000D01*
X128639047Y-67803619D01*
X128686666Y-67898857D01*
X128686666Y-67994095D01*
X128639047Y-68136952D01*
X128067619Y-68708380D01*
X128686666Y-68708380D01*
X125150952Y-75958380D02*
X125150952Y-74958380D01*
X125484285Y-75672666D01*
X125817619Y-74958380D01*
X125817619Y-75958380D01*
X126293809Y-75958380D02*
X126293809Y-74958380D01*
X126770000Y-75958380D02*
X126770000Y-74958380D01*
X127008095Y-74958380D01*
X127150952Y-75006000D01*
X127246190Y-75101238D01*
X127293809Y-75196476D01*
X127341428Y-75386952D01*
X127341428Y-75529809D01*
X127293809Y-75720285D01*
X127246190Y-75815523D01*
X127150952Y-75910761D01*
X127008095Y-75958380D01*
X126770000Y-75958380D01*
X127770000Y-75958380D02*
X127770000Y-74958380D01*
X129198571Y-74958380D02*
X129389047Y-74958380D01*
X129484285Y-75006000D01*
X129579523Y-75101238D01*
X129627142Y-75291714D01*
X129627142Y-75625047D01*
X129579523Y-75815523D01*
X129484285Y-75910761D01*
X129389047Y-75958380D01*
X129198571Y-75958380D01*
X129103333Y-75910761D01*
X129008095Y-75815523D01*
X128960476Y-75625047D01*
X128960476Y-75291714D01*
X129008095Y-75101238D01*
X129103333Y-75006000D01*
X129198571Y-74958380D01*
X130055714Y-74958380D02*
X130055714Y-75767904D01*
X130103333Y-75863142D01*
X130150952Y-75910761D01*
X130246190Y-75958380D01*
X130436666Y-75958380D01*
X130531904Y-75910761D01*
X130579523Y-75863142D01*
X130627142Y-75767904D01*
X130627142Y-74958380D01*
X130960476Y-74958380D02*
X131531904Y-74958380D01*
X131246190Y-75958380D02*
X131246190Y-74958380D01*
D12*
X105759323Y-100133104D02*
X105759323Y-99333104D01*
X105949800Y-99333104D01*
X106064085Y-99371200D01*
X106140276Y-99447390D01*
X106178371Y-99523580D01*
X106216466Y-99675961D01*
X106216466Y-99790247D01*
X106178371Y-99942628D01*
X106140276Y-100018819D01*
X106064085Y-100095009D01*
X105949800Y-100133104D01*
X105759323Y-100133104D01*
X106978371Y-100133104D02*
X106521228Y-100133104D01*
X106749800Y-100133104D02*
X106749800Y-99333104D01*
X106673609Y-99447390D01*
X106597419Y-99523580D01*
X106521228Y-99561676D01*
D11*
X100372895Y-100223580D02*
X100372895Y-99223580D01*
X100944323Y-100223580D02*
X100515752Y-99652152D01*
X100944323Y-99223580D02*
X100372895Y-99795009D01*
X116530380Y-102274666D02*
X116054190Y-102608000D01*
X116530380Y-102846095D02*
X115530380Y-102846095D01*
X115530380Y-102465142D01*
X115578000Y-102369904D01*
X115625619Y-102322285D01*
X115720857Y-102274666D01*
X115863714Y-102274666D01*
X115958952Y-102322285D01*
X116006571Y-102369904D01*
X116054190Y-102465142D01*
X116054190Y-102846095D01*
X116530380Y-101322285D02*
X116530380Y-101893714D01*
X116530380Y-101608000D02*
X115530380Y-101608000D01*
X115673238Y-101703238D01*
X115768476Y-101798476D01*
X115816095Y-101893714D01*
X118086333Y-101655619D02*
X118133952Y-101608000D01*
X118229190Y-101560380D01*
X118467285Y-101560380D01*
X118562523Y-101608000D01*
X118610142Y-101655619D01*
X118657761Y-101750857D01*
X118657761Y-101846095D01*
X118610142Y-101988952D01*
X118038714Y-102560380D01*
X118657761Y-102560380D01*
X119086333Y-102560380D02*
X119086333Y-101560380D01*
X119181571Y-102179428D02*
X119467285Y-102560380D01*
X119467285Y-101893714D02*
X119086333Y-102274666D01*
X119848238Y-101655619D02*
X119895857Y-101608000D01*
X119991095Y-101560380D01*
X120229190Y-101560380D01*
X120324428Y-101608000D01*
X120372047Y-101655619D01*
X120419666Y-101750857D01*
X120419666Y-101846095D01*
X120372047Y-101988952D01*
X119800619Y-102560380D01*
X120419666Y-102560380D01*
X135580380Y-102274666D02*
X135104190Y-102608000D01*
X135580380Y-102846095D02*
X134580380Y-102846095D01*
X134580380Y-102465142D01*
X134628000Y-102369904D01*
X134675619Y-102322285D01*
X134770857Y-102274666D01*
X134913714Y-102274666D01*
X135008952Y-102322285D01*
X135056571Y-102369904D01*
X135104190Y-102465142D01*
X135104190Y-102846095D01*
X134675619Y-101893714D02*
X134628000Y-101846095D01*
X134580380Y-101750857D01*
X134580380Y-101512761D01*
X134628000Y-101417523D01*
X134675619Y-101369904D01*
X134770857Y-101322285D01*
X134866095Y-101322285D01*
X135008952Y-101369904D01*
X135580380Y-101941333D01*
X135580380Y-101322285D01*
X130714904Y-101655619D02*
X130762523Y-101608000D01*
X130857761Y-101560380D01*
X131095857Y-101560380D01*
X131191095Y-101608000D01*
X131238714Y-101655619D01*
X131286333Y-101750857D01*
X131286333Y-101846095D01*
X131238714Y-101988952D01*
X130667285Y-102560380D01*
X131286333Y-102560380D01*
X131667285Y-101655619D02*
X131714904Y-101608000D01*
X131810142Y-101560380D01*
X132048238Y-101560380D01*
X132143476Y-101608000D01*
X132191095Y-101655619D01*
X132238714Y-101750857D01*
X132238714Y-101846095D01*
X132191095Y-101988952D01*
X131619666Y-102560380D01*
X132238714Y-102560380D01*
X132857761Y-101560380D02*
X132953000Y-101560380D01*
X133048238Y-101608000D01*
X133095857Y-101655619D01*
X133143476Y-101750857D01*
X133191095Y-101941333D01*
X133191095Y-102179428D01*
X133143476Y-102369904D01*
X133095857Y-102465142D01*
X133048238Y-102512761D01*
X132953000Y-102560380D01*
X132857761Y-102560380D01*
X132762523Y-102512761D01*
X132714904Y-102465142D01*
X132667285Y-102369904D01*
X132619666Y-102179428D01*
X132619666Y-101941333D01*
X132667285Y-101750857D01*
X132714904Y-101655619D01*
X132762523Y-101608000D01*
X132857761Y-101560380D01*
X136485333Y-92044780D02*
X136152000Y-91568590D01*
X135913904Y-92044780D02*
X135913904Y-91044780D01*
X136294857Y-91044780D01*
X136390095Y-91092400D01*
X136437714Y-91140019D01*
X136485333Y-91235257D01*
X136485333Y-91378114D01*
X136437714Y-91473352D01*
X136390095Y-91520971D01*
X136294857Y-91568590D01*
X135913904Y-91568590D01*
X136818666Y-91044780D02*
X137437714Y-91044780D01*
X137104380Y-91425733D01*
X137247238Y-91425733D01*
X137342476Y-91473352D01*
X137390095Y-91520971D01*
X137437714Y-91616209D01*
X137437714Y-91854304D01*
X137390095Y-91949542D01*
X137342476Y-91997161D01*
X137247238Y-92044780D01*
X136961523Y-92044780D01*
X136866285Y-91997161D01*
X136818666Y-91949542D01*
X136199619Y-95878495D02*
X136152000Y-95830876D01*
X136104380Y-95735638D01*
X136104380Y-95497542D01*
X136152000Y-95402304D01*
X136199619Y-95354685D01*
X136294857Y-95307066D01*
X136390095Y-95307066D01*
X136532952Y-95354685D01*
X137104380Y-95926114D01*
X137104380Y-95307066D01*
X136199619Y-94926114D02*
X136152000Y-94878495D01*
X136104380Y-94783257D01*
X136104380Y-94545161D01*
X136152000Y-94449923D01*
X136199619Y-94402304D01*
X136294857Y-94354685D01*
X136390095Y-94354685D01*
X136532952Y-94402304D01*
X137104380Y-94973733D01*
X137104380Y-94354685D01*
X136104380Y-93735638D02*
X136104380Y-93640400D01*
X136152000Y-93545161D01*
X136199619Y-93497542D01*
X136294857Y-93449923D01*
X136485333Y-93402304D01*
X136723428Y-93402304D01*
X136913904Y-93449923D01*
X137009142Y-93497542D01*
X137056761Y-93545161D01*
X137104380Y-93640400D01*
X137104380Y-93735638D01*
X137056761Y-93830876D01*
X137009142Y-93878495D01*
X136913904Y-93926114D01*
X136723428Y-93973733D01*
X136485333Y-93973733D01*
X136294857Y-93926114D01*
X136199619Y-93878495D01*
X136152000Y-93830876D01*
X136104380Y-93735638D01*
X95718333Y-92044780D02*
X95385000Y-91568590D01*
X95146904Y-92044780D02*
X95146904Y-91044780D01*
X95527857Y-91044780D01*
X95623095Y-91092400D01*
X95670714Y-91140019D01*
X95718333Y-91235257D01*
X95718333Y-91378114D01*
X95670714Y-91473352D01*
X95623095Y-91520971D01*
X95527857Y-91568590D01*
X95146904Y-91568590D01*
X96575476Y-91378114D02*
X96575476Y-92044780D01*
X96337380Y-90997161D02*
X96099285Y-91711447D01*
X96718333Y-91711447D01*
X95432619Y-96005495D02*
X95385000Y-95957876D01*
X95337380Y-95862638D01*
X95337380Y-95624542D01*
X95385000Y-95529304D01*
X95432619Y-95481685D01*
X95527857Y-95434066D01*
X95623095Y-95434066D01*
X95765952Y-95481685D01*
X96337380Y-96053114D01*
X96337380Y-95434066D01*
X95432619Y-95053114D02*
X95385000Y-95005495D01*
X95337380Y-94910257D01*
X95337380Y-94672161D01*
X95385000Y-94576923D01*
X95432619Y-94529304D01*
X95527857Y-94481685D01*
X95623095Y-94481685D01*
X95765952Y-94529304D01*
X96337380Y-95100733D01*
X96337380Y-94481685D01*
X95337380Y-93862638D02*
X95337380Y-93767400D01*
X95385000Y-93672161D01*
X95432619Y-93624542D01*
X95527857Y-93576923D01*
X95718333Y-93529304D01*
X95956428Y-93529304D01*
X96146904Y-93576923D01*
X96242142Y-93624542D01*
X96289761Y-93672161D01*
X96337380Y-93767400D01*
X96337380Y-93862638D01*
X96289761Y-93957876D01*
X96242142Y-94005495D01*
X96146904Y-94053114D01*
X95956428Y-94100733D01*
X95718333Y-94100733D01*
X95527857Y-94053114D01*
X95432619Y-94005495D01*
X95385000Y-93957876D01*
X95337380Y-93862638D01*
X105664095Y-90892380D02*
X105664095Y-91701904D01*
X105711714Y-91797142D01*
X105759333Y-91844761D01*
X105854571Y-91892380D01*
X106045047Y-91892380D01*
X106140285Y-91844761D01*
X106187904Y-91797142D01*
X106235523Y-91701904D01*
X106235523Y-90892380D01*
X107235523Y-91892380D02*
X106664095Y-91892380D01*
X106949809Y-91892380D02*
X106949809Y-90892380D01*
X106854571Y-91035238D01*
X106759333Y-91130476D01*
X106664095Y-91178095D01*
X104664095Y-92797380D02*
X104473619Y-92797380D01*
X104378380Y-92845000D01*
X104330761Y-92892619D01*
X104235523Y-93035476D01*
X104187904Y-93225952D01*
X104187904Y-93606904D01*
X104235523Y-93702142D01*
X104283142Y-93749761D01*
X104378380Y-93797380D01*
X104568857Y-93797380D01*
X104664095Y-93749761D01*
X104711714Y-93702142D01*
X104759333Y-93606904D01*
X104759333Y-93368809D01*
X104711714Y-93273571D01*
X104664095Y-93225952D01*
X104568857Y-93178333D01*
X104378380Y-93178333D01*
X104283142Y-93225952D01*
X104235523Y-93273571D01*
X104187904Y-93368809D01*
X105187904Y-93797380D02*
X105187904Y-92797380D01*
X105759333Y-93797380D01*
X105759333Y-92797380D01*
X106759333Y-93797380D02*
X106187904Y-93797380D01*
X106473619Y-93797380D02*
X106473619Y-92797380D01*
X106378380Y-92940238D01*
X106283142Y-93035476D01*
X106187904Y-93083095D01*
X107092666Y-92797380D02*
X107711714Y-92797380D01*
X107378380Y-93178333D01*
X107521238Y-93178333D01*
X107616476Y-93225952D01*
X107664095Y-93273571D01*
X107711714Y-93368809D01*
X107711714Y-93606904D01*
X107664095Y-93702142D01*
X107616476Y-93749761D01*
X107521238Y-93797380D01*
X107235523Y-93797380D01*
X107140285Y-93749761D01*
X107092666Y-93702142D01*
X108283142Y-93225952D02*
X108187904Y-93178333D01*
X108140285Y-93130714D01*
X108092666Y-93035476D01*
X108092666Y-92987857D01*
X108140285Y-92892619D01*
X108187904Y-92845000D01*
X108283142Y-92797380D01*
X108473619Y-92797380D01*
X108568857Y-92845000D01*
X108616476Y-92892619D01*
X108664095Y-92987857D01*
X108664095Y-93035476D01*
X108616476Y-93130714D01*
X108568857Y-93178333D01*
X108473619Y-93225952D01*
X108283142Y-93225952D01*
X108187904Y-93273571D01*
X108140285Y-93321190D01*
X108092666Y-93416428D01*
X108092666Y-93606904D01*
X108140285Y-93702142D01*
X108187904Y-93749761D01*
X108283142Y-93797380D01*
X108473619Y-93797380D01*
X108568857Y-93749761D01*
X108616476Y-93702142D01*
X108664095Y-93606904D01*
X108664095Y-93416428D01*
X108616476Y-93321190D01*
X108568857Y-93273571D01*
X108473619Y-93225952D01*
X118999095Y-92162380D02*
X118999095Y-92971904D01*
X119046714Y-93067142D01*
X119094333Y-93114761D01*
X119189571Y-93162380D01*
X119380047Y-93162380D01*
X119475285Y-93114761D01*
X119522904Y-93067142D01*
X119570523Y-92971904D01*
X119570523Y-92162380D01*
X119951476Y-92162380D02*
X120570523Y-92162380D01*
X120237190Y-92543333D01*
X120380047Y-92543333D01*
X120475285Y-92590952D01*
X120522904Y-92638571D01*
X120570523Y-92733809D01*
X120570523Y-92971904D01*
X120522904Y-93067142D01*
X120475285Y-93114761D01*
X120380047Y-93162380D01*
X120094333Y-93162380D01*
X119999095Y-93114761D01*
X119951476Y-93067142D01*
X122198142Y-92162380D02*
X122864809Y-92162380D01*
X122436238Y-93162380D01*
X123674333Y-92495714D02*
X123674333Y-93162380D01*
X123436238Y-92114761D02*
X123198142Y-92829047D01*
X123817190Y-92829047D01*
X124674333Y-93162380D02*
X124198142Y-93162380D01*
X124198142Y-92162380D01*
X124960047Y-93114761D02*
X125102904Y-93162380D01*
X125341000Y-93162380D01*
X125436238Y-93114761D01*
X125483857Y-93067142D01*
X125531476Y-92971904D01*
X125531476Y-92876666D01*
X125483857Y-92781428D01*
X125436238Y-92733809D01*
X125341000Y-92686190D01*
X125150523Y-92638571D01*
X125055285Y-92590952D01*
X125007666Y-92543333D01*
X124960047Y-92448095D01*
X124960047Y-92352857D01*
X125007666Y-92257619D01*
X125055285Y-92210000D01*
X125150523Y-92162380D01*
X125388619Y-92162380D01*
X125531476Y-92210000D01*
X126150523Y-92162380D02*
X126245761Y-92162380D01*
X126341000Y-92210000D01*
X126388619Y-92257619D01*
X126436238Y-92352857D01*
X126483857Y-92543333D01*
X126483857Y-92781428D01*
X126436238Y-92971904D01*
X126388619Y-93067142D01*
X126341000Y-93114761D01*
X126245761Y-93162380D01*
X126150523Y-93162380D01*
X126055285Y-93114761D01*
X126007666Y-93067142D01*
X125960047Y-92971904D01*
X125912428Y-92781428D01*
X125912428Y-92543333D01*
X125960047Y-92352857D01*
X126007666Y-92257619D01*
X126055285Y-92210000D01*
X126150523Y-92162380D01*
X127102904Y-92162380D02*
X127198142Y-92162380D01*
X127293380Y-92210000D01*
X127341000Y-92257619D01*
X127388619Y-92352857D01*
X127436238Y-92543333D01*
X127436238Y-92781428D01*
X127388619Y-92971904D01*
X127341000Y-93067142D01*
X127293380Y-93114761D01*
X127198142Y-93162380D01*
X127102904Y-93162380D01*
X127007666Y-93114761D01*
X126960047Y-93067142D01*
X126912428Y-92971904D01*
X126864809Y-92781428D01*
X126864809Y-92543333D01*
X126912428Y-92352857D01*
X126960047Y-92257619D01*
X127007666Y-92210000D01*
X127102904Y-92162380D01*
X99274333Y-93027142D02*
X99226714Y-93074761D01*
X99083857Y-93122380D01*
X98988619Y-93122380D01*
X98845761Y-93074761D01*
X98750523Y-92979523D01*
X98702904Y-92884285D01*
X98655285Y-92693809D01*
X98655285Y-92550952D01*
X98702904Y-92360476D01*
X98750523Y-92265238D01*
X98845761Y-92170000D01*
X98988619Y-92122380D01*
X99083857Y-92122380D01*
X99226714Y-92170000D01*
X99274333Y-92217619D01*
X100226714Y-93122380D02*
X99655285Y-93122380D01*
X99941000Y-93122380D02*
X99941000Y-92122380D01*
X99845761Y-92265238D01*
X99750523Y-92360476D01*
X99655285Y-92408095D01*
X113879333Y-93027142D02*
X113831714Y-93074761D01*
X113688857Y-93122380D01*
X113593619Y-93122380D01*
X113450761Y-93074761D01*
X113355523Y-92979523D01*
X113307904Y-92884285D01*
X113260285Y-92693809D01*
X113260285Y-92550952D01*
X113307904Y-92360476D01*
X113355523Y-92265238D01*
X113450761Y-92170000D01*
X113593619Y-92122380D01*
X113688857Y-92122380D01*
X113831714Y-92170000D01*
X113879333Y-92217619D01*
X114212666Y-92122380D02*
X114831714Y-92122380D01*
X114498380Y-92503333D01*
X114641238Y-92503333D01*
X114736476Y-92550952D01*
X114784095Y-92598571D01*
X114831714Y-92693809D01*
X114831714Y-92931904D01*
X114784095Y-93027142D01*
X114736476Y-93074761D01*
X114641238Y-93122380D01*
X114355523Y-93122380D01*
X114260285Y-93074761D01*
X114212666Y-93027142D01*
X94337142Y-104981666D02*
X94384761Y-105029285D01*
X94432380Y-105172142D01*
X94432380Y-105267380D01*
X94384761Y-105410238D01*
X94289523Y-105505476D01*
X94194285Y-105553095D01*
X94003809Y-105600714D01*
X93860952Y-105600714D01*
X93670476Y-105553095D01*
X93575238Y-105505476D01*
X93480000Y-105410238D01*
X93432380Y-105267380D01*
X93432380Y-105172142D01*
X93480000Y-105029285D01*
X93527619Y-104981666D01*
X93527619Y-104600714D02*
X93480000Y-104553095D01*
X93432380Y-104457857D01*
X93432380Y-104219761D01*
X93480000Y-104124523D01*
X93527619Y-104076904D01*
X93622857Y-104029285D01*
X93718095Y-104029285D01*
X93860952Y-104076904D01*
X94432380Y-104648333D01*
X94432380Y-104029285D01*
X119610142Y-109894666D02*
X119657761Y-109942285D01*
X119705380Y-110085142D01*
X119705380Y-110180380D01*
X119657761Y-110323238D01*
X119562523Y-110418476D01*
X119467285Y-110466095D01*
X119276809Y-110513714D01*
X119133952Y-110513714D01*
X118943476Y-110466095D01*
X118848238Y-110418476D01*
X118753000Y-110323238D01*
X118705380Y-110180380D01*
X118705380Y-110085142D01*
X118753000Y-109942285D01*
X118800619Y-109894666D01*
X119038714Y-109037523D02*
X119705380Y-109037523D01*
X118657761Y-109275619D02*
X119372047Y-109513714D01*
X119372047Y-108894666D01*
X94337142Y-115061666D02*
X94384761Y-115109285D01*
X94432380Y-115252142D01*
X94432380Y-115347380D01*
X94384761Y-115490238D01*
X94289523Y-115585476D01*
X94194285Y-115633095D01*
X94003809Y-115680714D01*
X93860952Y-115680714D01*
X93670476Y-115633095D01*
X93575238Y-115585476D01*
X93480000Y-115490238D01*
X93432380Y-115347380D01*
X93432380Y-115252142D01*
X93480000Y-115109285D01*
X93527619Y-115061666D01*
X93432380Y-114156904D02*
X93432380Y-114633095D01*
X93908571Y-114680714D01*
X93860952Y-114633095D01*
X93813333Y-114537857D01*
X93813333Y-114299761D01*
X93860952Y-114204523D01*
X93908571Y-114156904D01*
X94003809Y-114109285D01*
X94241904Y-114109285D01*
X94337142Y-114156904D01*
X94384761Y-114204523D01*
X94432380Y-114299761D01*
X94432380Y-114537857D01*
X94384761Y-114633095D01*
X94337142Y-114680714D01*
X117792833Y-117578142D02*
X117745214Y-117625761D01*
X117602357Y-117673380D01*
X117507119Y-117673380D01*
X117364261Y-117625761D01*
X117269023Y-117530523D01*
X117221404Y-117435285D01*
X117173785Y-117244809D01*
X117173785Y-117101952D01*
X117221404Y-116911476D01*
X117269023Y-116816238D01*
X117364261Y-116721000D01*
X117507119Y-116673380D01*
X117602357Y-116673380D01*
X117745214Y-116721000D01*
X117792833Y-116768619D01*
X118649976Y-116673380D02*
X118459500Y-116673380D01*
X118364261Y-116721000D01*
X118316642Y-116768619D01*
X118221404Y-116911476D01*
X118173785Y-117101952D01*
X118173785Y-117482904D01*
X118221404Y-117578142D01*
X118269023Y-117625761D01*
X118364261Y-117673380D01*
X118554738Y-117673380D01*
X118649976Y-117625761D01*
X118697595Y-117578142D01*
X118745214Y-117482904D01*
X118745214Y-117244809D01*
X118697595Y-117149571D01*
X118649976Y-117101952D01*
X118554738Y-117054333D01*
X118364261Y-117054333D01*
X118269023Y-117101952D01*
X118221404Y-117149571D01*
X118173785Y-117244809D01*
X140636333Y-117578142D02*
X140588714Y-117625761D01*
X140445857Y-117673380D01*
X140350619Y-117673380D01*
X140207761Y-117625761D01*
X140112523Y-117530523D01*
X140064904Y-117435285D01*
X140017285Y-117244809D01*
X140017285Y-117101952D01*
X140064904Y-116911476D01*
X140112523Y-116816238D01*
X140207761Y-116721000D01*
X140350619Y-116673380D01*
X140445857Y-116673380D01*
X140588714Y-116721000D01*
X140636333Y-116768619D01*
X140969666Y-116673380D02*
X141636333Y-116673380D01*
X141207761Y-117673380D01*
X133016333Y-117512141D02*
X132968714Y-117559760D01*
X132825857Y-117607379D01*
X132730619Y-117607379D01*
X132587761Y-117559760D01*
X132492523Y-117464522D01*
X132444904Y-117369284D01*
X132397285Y-117178808D01*
X132397285Y-117035951D01*
X132444904Y-116845475D01*
X132492523Y-116750237D01*
X132587761Y-116654999D01*
X132730619Y-116607379D01*
X132825857Y-116607379D01*
X132968714Y-116654999D01*
X133016333Y-116702618D01*
X133587761Y-117035951D02*
X133492523Y-116988332D01*
X133444904Y-116940713D01*
X133397285Y-116845475D01*
X133397285Y-116797856D01*
X133444904Y-116702618D01*
X133492523Y-116654999D01*
X133587761Y-116607379D01*
X133778238Y-116607379D01*
X133873476Y-116654999D01*
X133921095Y-116702618D01*
X133968714Y-116797856D01*
X133968714Y-116845475D01*
X133921095Y-116940713D01*
X133873476Y-116988332D01*
X133778238Y-117035951D01*
X133587761Y-117035951D01*
X133492523Y-117083570D01*
X133444904Y-117131189D01*
X133397285Y-117226427D01*
X133397285Y-117416903D01*
X133444904Y-117512141D01*
X133492523Y-117559760D01*
X133587761Y-117607379D01*
X133778238Y-117607379D01*
X133873476Y-117559760D01*
X133921095Y-117512141D01*
X133968714Y-117416903D01*
X133968714Y-117226427D01*
X133921095Y-117131189D01*
X133873476Y-117083570D01*
X133778238Y-117035951D01*
X125396333Y-117578142D02*
X125348714Y-117625761D01*
X125205857Y-117673380D01*
X125110619Y-117673380D01*
X124967761Y-117625761D01*
X124872523Y-117530523D01*
X124824904Y-117435285D01*
X124777285Y-117244809D01*
X124777285Y-117101952D01*
X124824904Y-116911476D01*
X124872523Y-116816238D01*
X124967761Y-116721000D01*
X125110619Y-116673380D01*
X125205857Y-116673380D01*
X125348714Y-116721000D01*
X125396333Y-116768619D01*
X125872523Y-117673380D02*
X126063000Y-117673380D01*
X126158238Y-117625761D01*
X126205857Y-117578142D01*
X126301095Y-117435285D01*
X126348714Y-117244809D01*
X126348714Y-116863857D01*
X126301095Y-116768619D01*
X126253476Y-116721000D01*
X126158238Y-116673380D01*
X125967761Y-116673380D01*
X125872523Y-116721000D01*
X125824904Y-116768619D01*
X125777285Y-116863857D01*
X125777285Y-117101952D01*
X125824904Y-117197190D01*
X125872523Y-117244809D01*
X125967761Y-117292428D01*
X126158238Y-117292428D01*
X126253476Y-117244809D01*
X126301095Y-117197190D01*
X126348714Y-117101952D01*
X124841095Y-109180380D02*
X124841095Y-109989904D01*
X124888714Y-110085142D01*
X124936333Y-110132761D01*
X125031571Y-110180380D01*
X125222047Y-110180380D01*
X125317285Y-110132761D01*
X125364904Y-110085142D01*
X125412523Y-109989904D01*
X125412523Y-109180380D01*
X126317285Y-109513714D02*
X126317285Y-110180380D01*
X126079190Y-109132761D02*
X125841095Y-109847047D01*
X126460142Y-109847047D01*
X129286333Y-110180380D02*
X129286333Y-109180380D01*
X129619666Y-109894666D01*
X129953000Y-109180380D01*
X129953000Y-110180380D01*
X130381571Y-109894666D02*
X130857761Y-109894666D01*
X130286333Y-110180380D02*
X130619666Y-109180380D01*
X130953000Y-110180380D01*
X131191095Y-109180380D02*
X131857761Y-110180380D01*
X131857761Y-109180380D02*
X131191095Y-110180380D01*
X132191095Y-109275619D02*
X132238714Y-109228000D01*
X132333952Y-109180380D01*
X132572047Y-109180380D01*
X132667285Y-109228000D01*
X132714904Y-109275619D01*
X132762523Y-109370857D01*
X132762523Y-109466095D01*
X132714904Y-109608952D01*
X132143476Y-110180380D01*
X132762523Y-110180380D01*
X133095857Y-109180380D02*
X133714904Y-109180380D01*
X133381571Y-109561333D01*
X133524428Y-109561333D01*
X133619666Y-109608952D01*
X133667285Y-109656571D01*
X133714904Y-109751809D01*
X133714904Y-109989904D01*
X133667285Y-110085142D01*
X133619666Y-110132761D01*
X133524428Y-110180380D01*
X133238714Y-110180380D01*
X133143476Y-110132761D01*
X133095857Y-110085142D01*
X134095857Y-109275619D02*
X134143476Y-109228000D01*
X134238714Y-109180380D01*
X134476809Y-109180380D01*
X134572047Y-109228000D01*
X134619666Y-109275619D01*
X134667285Y-109370857D01*
X134667285Y-109466095D01*
X134619666Y-109608952D01*
X134048238Y-110180380D01*
X134667285Y-110180380D01*
X117187380Y-110616904D02*
X117996904Y-110616904D01*
X118092142Y-110569285D01*
X118139761Y-110521666D01*
X118187380Y-110426428D01*
X118187380Y-110235952D01*
X118139761Y-110140714D01*
X118092142Y-110093095D01*
X117996904Y-110045476D01*
X117187380Y-110045476D01*
X117282619Y-109616904D02*
X117235000Y-109569285D01*
X117187380Y-109474047D01*
X117187380Y-109235952D01*
X117235000Y-109140714D01*
X117282619Y-109093095D01*
X117377857Y-109045476D01*
X117473095Y-109045476D01*
X117615952Y-109093095D01*
X118187380Y-109664523D01*
X118187380Y-109045476D01*
M02*
