G04 #@! TF.GenerationSoftware,KiCad,Pcbnew,(5.1.8)-1*
G04 #@! TF.CreationDate,2022-02-18T22:38:14+01:00*
G04 #@! TF.ProjectId,BulkyMIDI-32 Module,42756c6b-794d-4494-9449-2d3332204d6f,rev?*
G04 #@! TF.SameCoordinates,Original*
G04 #@! TF.FileFunction,Legend,Bot*
G04 #@! TF.FilePolarity,Positive*
%FSLAX46Y46*%
G04 Gerber Fmt 4.6, Leading zero omitted, Abs format (unit mm)*
G04 Created by KiCad (PCBNEW (5.1.8)-1) date 2022-02-18 22:38:14*
%MOMM*%
%LPD*%
G01*
G04 APERTURE LIST*
%ADD10C,0.150000*%
%ADD11C,0.010000*%
%ADD12C,0.500000*%
%ADD13C,0.120000*%
%ADD14C,0.100000*%
G04 APERTURE END LIST*
D10*
X84756428Y-58507380D02*
X85232619Y-58507380D01*
X85280238Y-58983571D01*
X85232619Y-58935952D01*
X85137380Y-58888333D01*
X84899285Y-58888333D01*
X84804047Y-58935952D01*
X84756428Y-58983571D01*
X84708809Y-59078809D01*
X84708809Y-59316904D01*
X84756428Y-59412142D01*
X84804047Y-59459761D01*
X84899285Y-59507380D01*
X85137380Y-59507380D01*
X85232619Y-59459761D01*
X85280238Y-59412142D01*
X84423095Y-58507380D02*
X84089761Y-59507380D01*
X83756428Y-58507380D01*
X82661190Y-59507380D02*
X82661190Y-58507380D01*
X82423095Y-58507380D01*
X82280238Y-58555000D01*
X82185000Y-58650238D01*
X82137380Y-58745476D01*
X82089761Y-58935952D01*
X82089761Y-59078809D01*
X82137380Y-59269285D01*
X82185000Y-59364523D01*
X82280238Y-59459761D01*
X82423095Y-59507380D01*
X82661190Y-59507380D01*
X81089761Y-59412142D02*
X81137380Y-59459761D01*
X81280238Y-59507380D01*
X81375476Y-59507380D01*
X81518333Y-59459761D01*
X81613571Y-59364523D01*
X81661190Y-59269285D01*
X81708809Y-59078809D01*
X81708809Y-58935952D01*
X81661190Y-58745476D01*
X81613571Y-58650238D01*
X81518333Y-58555000D01*
X81375476Y-58507380D01*
X81280238Y-58507380D01*
X81137380Y-58555000D01*
X81089761Y-58602619D01*
D11*
G36*
X129274970Y-112841888D02*
G01*
X129053949Y-112850671D01*
X128921008Y-112868279D01*
X128856720Y-112897139D01*
X128841500Y-112934750D01*
X128889831Y-113018992D01*
X128931878Y-113030000D01*
X129051751Y-113069769D01*
X129208099Y-113193427D01*
X129406867Y-113407497D01*
X129654000Y-113718503D01*
X129955441Y-114132967D01*
X130017931Y-114221927D01*
X130619500Y-115082238D01*
X130619500Y-116091005D01*
X130618796Y-116470334D01*
X130614778Y-116744001D01*
X130604592Y-116933342D01*
X130585382Y-117059693D01*
X130554292Y-117144391D01*
X130508467Y-117208773D01*
X130463637Y-117255636D01*
X130320479Y-117362915D01*
X130185058Y-117411277D01*
X130177887Y-117411500D01*
X130072195Y-117450530D01*
X130048000Y-117506750D01*
X130064077Y-117541169D01*
X130123147Y-117566362D01*
X130241473Y-117583683D01*
X130435314Y-117594488D01*
X130720932Y-117600131D01*
X131114588Y-117601968D01*
X131191000Y-117602000D01*
X131604033Y-117600660D01*
X131906346Y-117595737D01*
X132114200Y-117585877D01*
X132243858Y-117569723D01*
X132311579Y-117545922D01*
X132333625Y-117513117D01*
X132334000Y-117506750D01*
X132280777Y-117429242D01*
X132204114Y-117411500D01*
X132071660Y-117368445D01*
X131926888Y-117263975D01*
X131918364Y-117255636D01*
X131855981Y-117187473D01*
X131812934Y-117113768D01*
X131785642Y-117010969D01*
X131770528Y-116855522D01*
X131764011Y-116623875D01*
X131762514Y-116292476D01*
X131762500Y-116229967D01*
X131762500Y-115360162D01*
X132437910Y-114319878D01*
X132715536Y-113898488D01*
X132939059Y-113575357D01*
X133118346Y-113339033D01*
X133263263Y-113178061D01*
X133383675Y-113080990D01*
X133489450Y-113036366D01*
X133549064Y-113030000D01*
X133647229Y-112987877D01*
X133667500Y-112934750D01*
X133651253Y-112899901D01*
X133591529Y-112874525D01*
X133471858Y-112857210D01*
X133275768Y-112846542D01*
X132986788Y-112841111D01*
X132588446Y-112839505D01*
X132556250Y-112839500D01*
X132146938Y-112841064D01*
X131848604Y-112846628D01*
X131645259Y-112857499D01*
X131520910Y-112874985D01*
X131459566Y-112900392D01*
X131445000Y-112930333D01*
X131499054Y-113009028D01*
X131587875Y-113041458D01*
X131703376Y-113085674D01*
X131747885Y-113182213D01*
X131718755Y-113340866D01*
X131613337Y-113571425D01*
X131428984Y-113883683D01*
X131310396Y-114067410D01*
X131118737Y-114353210D01*
X130981138Y-114543286D01*
X130886100Y-114650687D01*
X130822122Y-114688458D01*
X130778628Y-114670660D01*
X130660698Y-114525006D01*
X130515471Y-114319273D01*
X130360255Y-114081569D01*
X130212358Y-113840002D01*
X130089090Y-113622679D01*
X130007759Y-113457708D01*
X129984500Y-113381071D01*
X130031079Y-113232214D01*
X130141635Y-113098942D01*
X130272396Y-113031371D01*
X130291126Y-113029999D01*
X130357035Y-112978749D01*
X130365500Y-112934750D01*
X130346395Y-112893683D01*
X130276127Y-112866056D01*
X130135267Y-112849438D01*
X129904386Y-112841402D01*
X129603500Y-112839500D01*
X129274970Y-112841888D01*
G37*
X129274970Y-112841888D02*
X129053949Y-112850671D01*
X128921008Y-112868279D01*
X128856720Y-112897139D01*
X128841500Y-112934750D01*
X128889831Y-113018992D01*
X128931878Y-113030000D01*
X129051751Y-113069769D01*
X129208099Y-113193427D01*
X129406867Y-113407497D01*
X129654000Y-113718503D01*
X129955441Y-114132967D01*
X130017931Y-114221927D01*
X130619500Y-115082238D01*
X130619500Y-116091005D01*
X130618796Y-116470334D01*
X130614778Y-116744001D01*
X130604592Y-116933342D01*
X130585382Y-117059693D01*
X130554292Y-117144391D01*
X130508467Y-117208773D01*
X130463637Y-117255636D01*
X130320479Y-117362915D01*
X130185058Y-117411277D01*
X130177887Y-117411500D01*
X130072195Y-117450530D01*
X130048000Y-117506750D01*
X130064077Y-117541169D01*
X130123147Y-117566362D01*
X130241473Y-117583683D01*
X130435314Y-117594488D01*
X130720932Y-117600131D01*
X131114588Y-117601968D01*
X131191000Y-117602000D01*
X131604033Y-117600660D01*
X131906346Y-117595737D01*
X132114200Y-117585877D01*
X132243858Y-117569723D01*
X132311579Y-117545922D01*
X132333625Y-117513117D01*
X132334000Y-117506750D01*
X132280777Y-117429242D01*
X132204114Y-117411500D01*
X132071660Y-117368445D01*
X131926888Y-117263975D01*
X131918364Y-117255636D01*
X131855981Y-117187473D01*
X131812934Y-117113768D01*
X131785642Y-117010969D01*
X131770528Y-116855522D01*
X131764011Y-116623875D01*
X131762514Y-116292476D01*
X131762500Y-116229967D01*
X131762500Y-115360162D01*
X132437910Y-114319878D01*
X132715536Y-113898488D01*
X132939059Y-113575357D01*
X133118346Y-113339033D01*
X133263263Y-113178061D01*
X133383675Y-113080990D01*
X133489450Y-113036366D01*
X133549064Y-113030000D01*
X133647229Y-112987877D01*
X133667500Y-112934750D01*
X133651253Y-112899901D01*
X133591529Y-112874525D01*
X133471858Y-112857210D01*
X133275768Y-112846542D01*
X132986788Y-112841111D01*
X132588446Y-112839505D01*
X132556250Y-112839500D01*
X132146938Y-112841064D01*
X131848604Y-112846628D01*
X131645259Y-112857499D01*
X131520910Y-112874985D01*
X131459566Y-112900392D01*
X131445000Y-112930333D01*
X131499054Y-113009028D01*
X131587875Y-113041458D01*
X131703376Y-113085674D01*
X131747885Y-113182213D01*
X131718755Y-113340866D01*
X131613337Y-113571425D01*
X131428984Y-113883683D01*
X131310396Y-114067410D01*
X131118737Y-114353210D01*
X130981138Y-114543286D01*
X130886100Y-114650687D01*
X130822122Y-114688458D01*
X130778628Y-114670660D01*
X130660698Y-114525006D01*
X130515471Y-114319273D01*
X130360255Y-114081569D01*
X130212358Y-113840002D01*
X130089090Y-113622679D01*
X130007759Y-113457708D01*
X129984500Y-113381071D01*
X130031079Y-113232214D01*
X130141635Y-113098942D01*
X130272396Y-113031371D01*
X130291126Y-113029999D01*
X130357035Y-112978749D01*
X130365500Y-112934750D01*
X130346395Y-112893683D01*
X130276127Y-112866056D01*
X130135267Y-112849438D01*
X129904386Y-112841402D01*
X129603500Y-112839500D01*
X129274970Y-112841888D01*
G36*
X134677903Y-112841077D02*
G01*
X134401125Y-112846881D01*
X134217017Y-112858520D01*
X134108425Y-112877602D01*
X134058196Y-112905735D01*
X134048500Y-112934750D01*
X134103814Y-113011287D01*
X134209361Y-113030000D01*
X134349071Y-113044514D01*
X134501482Y-113093387D01*
X134677516Y-113184618D01*
X134888099Y-113326204D01*
X135144152Y-113526142D01*
X135456599Y-113792429D01*
X135836362Y-114133063D01*
X136294366Y-114556042D01*
X136296910Y-114558414D01*
X136284970Y-114617937D01*
X136201907Y-114755677D01*
X136045567Y-114974442D01*
X135813797Y-115277043D01*
X135504441Y-115666290D01*
X135115348Y-116144993D01*
X134644362Y-116715962D01*
X134629570Y-116733793D01*
X134376175Y-117021930D01*
X134155892Y-117238265D01*
X133984567Y-117367650D01*
X133946945Y-117386476D01*
X133802222Y-117455285D01*
X133742436Y-117508485D01*
X133774882Y-117547833D01*
X133906856Y-117575086D01*
X134145651Y-117591999D01*
X134498565Y-117600329D01*
X134842250Y-117602000D01*
X135263748Y-117599844D01*
X135571837Y-117592726D01*
X135780050Y-117579669D01*
X135901915Y-117559697D01*
X135950963Y-117531833D01*
X135953500Y-117521807D01*
X135901976Y-117436288D01*
X135814733Y-117378932D01*
X135698461Y-117305388D01*
X135655584Y-117251552D01*
X135687406Y-117184255D01*
X135788135Y-117035399D01*
X135945743Y-116821295D01*
X136148201Y-116558254D01*
X136383482Y-116262588D01*
X136399347Y-116242971D01*
X137163492Y-115299088D01*
X137128250Y-117189250D01*
X136860677Y-117316250D01*
X136688232Y-117405375D01*
X136597083Y-117474389D01*
X136594550Y-117525693D01*
X136687955Y-117561690D01*
X136884618Y-117584782D01*
X137191861Y-117597371D01*
X137617005Y-117601860D01*
X137731500Y-117602000D01*
X138147768Y-117600467D01*
X138452775Y-117595044D01*
X138662234Y-117584491D01*
X138791858Y-117567566D01*
X138857358Y-117543030D01*
X138874500Y-117511795D01*
X138819515Y-117436464D01*
X138686968Y-117380412D01*
X138684079Y-117379767D01*
X138580135Y-117353349D01*
X138497042Y-117315810D01*
X138432468Y-117253847D01*
X138384078Y-117154157D01*
X138349542Y-117003438D01*
X138326527Y-116788388D01*
X138312698Y-116495704D01*
X138305725Y-116112085D01*
X138303274Y-115624227D01*
X138303000Y-115206620D01*
X138303391Y-114670657D01*
X138305172Y-114247211D01*
X138309259Y-113921801D01*
X138316567Y-113679944D01*
X138328011Y-113507160D01*
X138344506Y-113388965D01*
X138366966Y-113310879D01*
X138396307Y-113258420D01*
X138428385Y-113222115D01*
X138584540Y-113110234D01*
X138714135Y-113056481D01*
X138834051Y-112996532D01*
X138874500Y-112927866D01*
X138853639Y-112895566D01*
X138780759Y-112871889D01*
X138640421Y-112855641D01*
X138417184Y-112845627D01*
X138095605Y-112840655D01*
X137731500Y-112839500D01*
X137307087Y-112841424D01*
X136995463Y-112847881D01*
X136782466Y-112859891D01*
X136653933Y-112878476D01*
X136595702Y-112904660D01*
X136588500Y-112921993D01*
X136642503Y-112995278D01*
X136775870Y-113071220D01*
X136810708Y-113084838D01*
X136976908Y-113170652D01*
X137090565Y-113274678D01*
X137098476Y-113287692D01*
X137124661Y-113402716D01*
X137141932Y-113616627D01*
X137148730Y-113901521D01*
X137146144Y-114139807D01*
X137128250Y-114869421D01*
X136378808Y-114163571D01*
X136068141Y-113865451D01*
X135848036Y-113636811D01*
X135712395Y-113464755D01*
X135655118Y-113336388D01*
X135670107Y-113238813D01*
X135751263Y-113159136D01*
X135872751Y-113093500D01*
X136009533Y-113009852D01*
X136077519Y-112928960D01*
X136079126Y-112918875D01*
X136047912Y-112887430D01*
X135943962Y-112864833D01*
X135753699Y-112850021D01*
X135463542Y-112841930D01*
X135064500Y-112839500D01*
X134677903Y-112841077D01*
G37*
X134677903Y-112841077D02*
X134401125Y-112846881D01*
X134217017Y-112858520D01*
X134108425Y-112877602D01*
X134058196Y-112905735D01*
X134048500Y-112934750D01*
X134103814Y-113011287D01*
X134209361Y-113030000D01*
X134349071Y-113044514D01*
X134501482Y-113093387D01*
X134677516Y-113184618D01*
X134888099Y-113326204D01*
X135144152Y-113526142D01*
X135456599Y-113792429D01*
X135836362Y-114133063D01*
X136294366Y-114556042D01*
X136296910Y-114558414D01*
X136284970Y-114617937D01*
X136201907Y-114755677D01*
X136045567Y-114974442D01*
X135813797Y-115277043D01*
X135504441Y-115666290D01*
X135115348Y-116144993D01*
X134644362Y-116715962D01*
X134629570Y-116733793D01*
X134376175Y-117021930D01*
X134155892Y-117238265D01*
X133984567Y-117367650D01*
X133946945Y-117386476D01*
X133802222Y-117455285D01*
X133742436Y-117508485D01*
X133774882Y-117547833D01*
X133906856Y-117575086D01*
X134145651Y-117591999D01*
X134498565Y-117600329D01*
X134842250Y-117602000D01*
X135263748Y-117599844D01*
X135571837Y-117592726D01*
X135780050Y-117579669D01*
X135901915Y-117559697D01*
X135950963Y-117531833D01*
X135953500Y-117521807D01*
X135901976Y-117436288D01*
X135814733Y-117378932D01*
X135698461Y-117305388D01*
X135655584Y-117251552D01*
X135687406Y-117184255D01*
X135788135Y-117035399D01*
X135945743Y-116821295D01*
X136148201Y-116558254D01*
X136383482Y-116262588D01*
X136399347Y-116242971D01*
X137163492Y-115299088D01*
X137128250Y-117189250D01*
X136860677Y-117316250D01*
X136688232Y-117405375D01*
X136597083Y-117474389D01*
X136594550Y-117525693D01*
X136687955Y-117561690D01*
X136884618Y-117584782D01*
X137191861Y-117597371D01*
X137617005Y-117601860D01*
X137731500Y-117602000D01*
X138147768Y-117600467D01*
X138452775Y-117595044D01*
X138662234Y-117584491D01*
X138791858Y-117567566D01*
X138857358Y-117543030D01*
X138874500Y-117511795D01*
X138819515Y-117436464D01*
X138686968Y-117380412D01*
X138684079Y-117379767D01*
X138580135Y-117353349D01*
X138497042Y-117315810D01*
X138432468Y-117253847D01*
X138384078Y-117154157D01*
X138349542Y-117003438D01*
X138326527Y-116788388D01*
X138312698Y-116495704D01*
X138305725Y-116112085D01*
X138303274Y-115624227D01*
X138303000Y-115206620D01*
X138303391Y-114670657D01*
X138305172Y-114247211D01*
X138309259Y-113921801D01*
X138316567Y-113679944D01*
X138328011Y-113507160D01*
X138344506Y-113388965D01*
X138366966Y-113310879D01*
X138396307Y-113258420D01*
X138428385Y-113222115D01*
X138584540Y-113110234D01*
X138714135Y-113056481D01*
X138834051Y-112996532D01*
X138874500Y-112927866D01*
X138853639Y-112895566D01*
X138780759Y-112871889D01*
X138640421Y-112855641D01*
X138417184Y-112845627D01*
X138095605Y-112840655D01*
X137731500Y-112839500D01*
X137307087Y-112841424D01*
X136995463Y-112847881D01*
X136782466Y-112859891D01*
X136653933Y-112878476D01*
X136595702Y-112904660D01*
X136588500Y-112921993D01*
X136642503Y-112995278D01*
X136775870Y-113071220D01*
X136810708Y-113084838D01*
X136976908Y-113170652D01*
X137090565Y-113274678D01*
X137098476Y-113287692D01*
X137124661Y-113402716D01*
X137141932Y-113616627D01*
X137148730Y-113901521D01*
X137146144Y-114139807D01*
X137128250Y-114869421D01*
X136378808Y-114163571D01*
X136068141Y-113865451D01*
X135848036Y-113636811D01*
X135712395Y-113464755D01*
X135655118Y-113336388D01*
X135670107Y-113238813D01*
X135751263Y-113159136D01*
X135872751Y-113093500D01*
X136009533Y-113009852D01*
X136077519Y-112928960D01*
X136079126Y-112918875D01*
X136047912Y-112887430D01*
X135943962Y-112864833D01*
X135753699Y-112850021D01*
X135463542Y-112841930D01*
X135064500Y-112839500D01*
X134677903Y-112841077D01*
G36*
X141377716Y-112841112D02*
G01*
X141071459Y-112846747D01*
X140861288Y-112857596D01*
X140731762Y-112874855D01*
X140667441Y-112899716D01*
X140652500Y-112927866D01*
X140706675Y-113007540D01*
X140812866Y-113056481D01*
X140983201Y-113133848D01*
X141098616Y-113222115D01*
X141134644Y-113263906D01*
X141163032Y-113318600D01*
X141184685Y-113400631D01*
X141200512Y-113524437D01*
X141211419Y-113704452D01*
X141218314Y-113955112D01*
X141222104Y-114290852D01*
X141223697Y-114726109D01*
X141224000Y-115217149D01*
X141223806Y-115752909D01*
X141222541Y-116175902D01*
X141219185Y-116500360D01*
X141212719Y-116740516D01*
X141202121Y-116910603D01*
X141186372Y-117024853D01*
X141164450Y-117097499D01*
X141135336Y-117142774D01*
X141098010Y-117174910D01*
X141082871Y-117185649D01*
X140912750Y-117250238D01*
X140666004Y-117280529D01*
X140388368Y-117276233D01*
X140125578Y-117237067D01*
X139983791Y-117192523D01*
X139799607Y-117070826D01*
X139612944Y-116851396D01*
X139525456Y-116719144D01*
X139362978Y-116478234D01*
X139247339Y-116354420D01*
X139175377Y-116348059D01*
X139143925Y-116459506D01*
X139149820Y-116689116D01*
X139156319Y-116760625D01*
X139184025Y-117016883D01*
X139213272Y-117252769D01*
X139234284Y-117395625D01*
X139269634Y-117602000D01*
X141104067Y-117602000D01*
X141644679Y-117601167D01*
X142070964Y-117598256D01*
X142395589Y-117592643D01*
X142631221Y-117583704D01*
X142790524Y-117570818D01*
X142886164Y-117553361D01*
X142930808Y-117530711D01*
X142938500Y-117511795D01*
X142883636Y-117435628D01*
X142754585Y-117381196D01*
X142648537Y-117356158D01*
X142563746Y-117323810D01*
X142497970Y-117270927D01*
X142448967Y-117184287D01*
X142414496Y-117050664D01*
X142392314Y-116856836D01*
X142380181Y-116589578D01*
X142375853Y-116235667D01*
X142377091Y-115781878D01*
X142381651Y-115214988D01*
X142381930Y-115182954D01*
X142398750Y-113252250D01*
X142666324Y-113125250D01*
X142838769Y-113036124D01*
X142929918Y-112967110D01*
X142932451Y-112915806D01*
X142839046Y-112879809D01*
X142642383Y-112856717D01*
X142335140Y-112844128D01*
X141909996Y-112839639D01*
X141795500Y-112839500D01*
X141377716Y-112841112D01*
G37*
X141377716Y-112841112D02*
X141071459Y-112846747D01*
X140861288Y-112857596D01*
X140731762Y-112874855D01*
X140667441Y-112899716D01*
X140652500Y-112927866D01*
X140706675Y-113007540D01*
X140812866Y-113056481D01*
X140983201Y-113133848D01*
X141098616Y-113222115D01*
X141134644Y-113263906D01*
X141163032Y-113318600D01*
X141184685Y-113400631D01*
X141200512Y-113524437D01*
X141211419Y-113704452D01*
X141218314Y-113955112D01*
X141222104Y-114290852D01*
X141223697Y-114726109D01*
X141224000Y-115217149D01*
X141223806Y-115752909D01*
X141222541Y-116175902D01*
X141219185Y-116500360D01*
X141212719Y-116740516D01*
X141202121Y-116910603D01*
X141186372Y-117024853D01*
X141164450Y-117097499D01*
X141135336Y-117142774D01*
X141098010Y-117174910D01*
X141082871Y-117185649D01*
X140912750Y-117250238D01*
X140666004Y-117280529D01*
X140388368Y-117276233D01*
X140125578Y-117237067D01*
X139983791Y-117192523D01*
X139799607Y-117070826D01*
X139612944Y-116851396D01*
X139525456Y-116719144D01*
X139362978Y-116478234D01*
X139247339Y-116354420D01*
X139175377Y-116348059D01*
X139143925Y-116459506D01*
X139149820Y-116689116D01*
X139156319Y-116760625D01*
X139184025Y-117016883D01*
X139213272Y-117252769D01*
X139234284Y-117395625D01*
X139269634Y-117602000D01*
X141104067Y-117602000D01*
X141644679Y-117601167D01*
X142070964Y-117598256D01*
X142395589Y-117592643D01*
X142631221Y-117583704D01*
X142790524Y-117570818D01*
X142886164Y-117553361D01*
X142930808Y-117530711D01*
X142938500Y-117511795D01*
X142883636Y-117435628D01*
X142754585Y-117381196D01*
X142648537Y-117356158D01*
X142563746Y-117323810D01*
X142497970Y-117270927D01*
X142448967Y-117184287D01*
X142414496Y-117050664D01*
X142392314Y-116856836D01*
X142380181Y-116589578D01*
X142375853Y-116235667D01*
X142377091Y-115781878D01*
X142381651Y-115214988D01*
X142381930Y-115182954D01*
X142398750Y-113252250D01*
X142666324Y-113125250D01*
X142838769Y-113036124D01*
X142929918Y-112967110D01*
X142932451Y-112915806D01*
X142839046Y-112879809D01*
X142642383Y-112856717D01*
X142335140Y-112844128D01*
X141909996Y-112839639D01*
X141795500Y-112839500D01*
X141377716Y-112841112D01*
G36*
X154912605Y-110178542D02*
G01*
X154353835Y-110182412D01*
X153971625Y-110185382D01*
X153343063Y-110190510D01*
X152827977Y-110195547D01*
X152412846Y-110201302D01*
X152084150Y-110208586D01*
X151828369Y-110218207D01*
X151631981Y-110230975D01*
X151481466Y-110247700D01*
X151363303Y-110269190D01*
X151263972Y-110296256D01*
X151169952Y-110329707D01*
X151100219Y-110357290D01*
X150722529Y-110558055D01*
X150396798Y-110826044D01*
X150147104Y-111136538D01*
X149997524Y-111464815D01*
X149988844Y-111498314D01*
X149935012Y-111961254D01*
X150001613Y-112388210D01*
X150185894Y-112774087D01*
X150485102Y-113113789D01*
X150896483Y-113402222D01*
X151064666Y-113489262D01*
X151479250Y-113687609D01*
X151193500Y-113761225D01*
X150686329Y-113938027D01*
X150249359Y-114183890D01*
X149900167Y-114486569D01*
X149657858Y-114830821D01*
X149577074Y-115044651D01*
X149514699Y-115308410D01*
X149495226Y-115450537D01*
X149507888Y-115945783D01*
X149635398Y-116393679D01*
X149871663Y-116785631D01*
X150210590Y-117113043D01*
X150646083Y-117367321D01*
X150930314Y-117474707D01*
X151038474Y-117506613D01*
X151150018Y-117532715D01*
X151278427Y-117553592D01*
X151437185Y-117569822D01*
X151639776Y-117581984D01*
X151899683Y-117590654D01*
X152230389Y-117596412D01*
X152645377Y-117599836D01*
X153158130Y-117601503D01*
X153782132Y-117601992D01*
X153898939Y-117602000D01*
X154536984Y-117601784D01*
X155059535Y-117600783D01*
X155478097Y-117598463D01*
X155804175Y-117594291D01*
X156049275Y-117587736D01*
X156224902Y-117578265D01*
X156342562Y-117565344D01*
X156413761Y-117548442D01*
X156450002Y-117527025D01*
X156462793Y-117500561D01*
X156464000Y-117483252D01*
X156422265Y-117391459D01*
X156283388Y-117317407D01*
X156182705Y-117285747D01*
X155890279Y-117166594D01*
X155697233Y-116991085D01*
X155581044Y-116738477D01*
X155578454Y-116729288D01*
X155561644Y-116603738D01*
X155547250Y-116368116D01*
X155535270Y-116039327D01*
X155525699Y-115634276D01*
X155518537Y-115169868D01*
X155513781Y-114663009D01*
X155511429Y-114130603D01*
X155511436Y-114046000D01*
X153871789Y-114046000D01*
X153850270Y-115343221D01*
X153842094Y-115784746D01*
X153832922Y-116117871D01*
X153820809Y-116361192D01*
X153803808Y-116533305D01*
X153779975Y-116652805D01*
X153747362Y-116738289D01*
X153704026Y-116808353D01*
X153695803Y-116819596D01*
X153492636Y-116994550D01*
X153205000Y-117108729D01*
X152863019Y-117156108D01*
X152496817Y-117130661D01*
X152329031Y-117092981D01*
X151952606Y-116928862D01*
X151660885Y-116671991D01*
X151457977Y-116327770D01*
X151347994Y-115901601D01*
X151335908Y-115788055D01*
X151336642Y-115349239D01*
X151422545Y-114985201D01*
X151602350Y-114669296D01*
X151761763Y-114488956D01*
X151966430Y-114309287D01*
X152178263Y-114183794D01*
X152425653Y-114103869D01*
X152736990Y-114060902D01*
X153140668Y-114046285D01*
X153222637Y-114046000D01*
X153871789Y-114046000D01*
X155511436Y-114046000D01*
X155511478Y-113589554D01*
X155511714Y-113538000D01*
X153860500Y-113538000D01*
X153400125Y-113537645D01*
X153129571Y-113527873D01*
X152873263Y-113502681D01*
X152697131Y-113469920D01*
X152371821Y-113316642D01*
X152103253Y-113064253D01*
X151904694Y-112732969D01*
X151789410Y-112343006D01*
X151765355Y-112050099D01*
X151813779Y-111612486D01*
X151958448Y-111256196D01*
X152200421Y-110980250D01*
X152540761Y-110783671D01*
X152980526Y-110665480D01*
X153303746Y-110631129D01*
X153860500Y-110599384D01*
X153860500Y-113538000D01*
X155511714Y-113538000D01*
X155513926Y-113056770D01*
X155518770Y-112549153D01*
X155526009Y-112083610D01*
X155535639Y-111677045D01*
X155547659Y-111346363D01*
X155562066Y-111108470D01*
X155578858Y-110980270D01*
X155579251Y-110978821D01*
X155709136Y-110739259D01*
X155940464Y-110559170D01*
X156256474Y-110451585D01*
X156257625Y-110451367D01*
X156412160Y-110396294D01*
X156463675Y-110300298D01*
X156464000Y-110289040D01*
X156460437Y-110258008D01*
X156441950Y-110232800D01*
X156396849Y-110212929D01*
X156313443Y-110197908D01*
X156180038Y-110187251D01*
X155984944Y-110180472D01*
X155716468Y-110177085D01*
X155362919Y-110176604D01*
X154912605Y-110178542D01*
G37*
X154912605Y-110178542D02*
X154353835Y-110182412D01*
X153971625Y-110185382D01*
X153343063Y-110190510D01*
X152827977Y-110195547D01*
X152412846Y-110201302D01*
X152084150Y-110208586D01*
X151828369Y-110218207D01*
X151631981Y-110230975D01*
X151481466Y-110247700D01*
X151363303Y-110269190D01*
X151263972Y-110296256D01*
X151169952Y-110329707D01*
X151100219Y-110357290D01*
X150722529Y-110558055D01*
X150396798Y-110826044D01*
X150147104Y-111136538D01*
X149997524Y-111464815D01*
X149988844Y-111498314D01*
X149935012Y-111961254D01*
X150001613Y-112388210D01*
X150185894Y-112774087D01*
X150485102Y-113113789D01*
X150896483Y-113402222D01*
X151064666Y-113489262D01*
X151479250Y-113687609D01*
X151193500Y-113761225D01*
X150686329Y-113938027D01*
X150249359Y-114183890D01*
X149900167Y-114486569D01*
X149657858Y-114830821D01*
X149577074Y-115044651D01*
X149514699Y-115308410D01*
X149495226Y-115450537D01*
X149507888Y-115945783D01*
X149635398Y-116393679D01*
X149871663Y-116785631D01*
X150210590Y-117113043D01*
X150646083Y-117367321D01*
X150930314Y-117474707D01*
X151038474Y-117506613D01*
X151150018Y-117532715D01*
X151278427Y-117553592D01*
X151437185Y-117569822D01*
X151639776Y-117581984D01*
X151899683Y-117590654D01*
X152230389Y-117596412D01*
X152645377Y-117599836D01*
X153158130Y-117601503D01*
X153782132Y-117601992D01*
X153898939Y-117602000D01*
X154536984Y-117601784D01*
X155059535Y-117600783D01*
X155478097Y-117598463D01*
X155804175Y-117594291D01*
X156049275Y-117587736D01*
X156224902Y-117578265D01*
X156342562Y-117565344D01*
X156413761Y-117548442D01*
X156450002Y-117527025D01*
X156462793Y-117500561D01*
X156464000Y-117483252D01*
X156422265Y-117391459D01*
X156283388Y-117317407D01*
X156182705Y-117285747D01*
X155890279Y-117166594D01*
X155697233Y-116991085D01*
X155581044Y-116738477D01*
X155578454Y-116729288D01*
X155561644Y-116603738D01*
X155547250Y-116368116D01*
X155535270Y-116039327D01*
X155525699Y-115634276D01*
X155518537Y-115169868D01*
X155513781Y-114663009D01*
X155511429Y-114130603D01*
X155511436Y-114046000D01*
X153871789Y-114046000D01*
X153850270Y-115343221D01*
X153842094Y-115784746D01*
X153832922Y-116117871D01*
X153820809Y-116361192D01*
X153803808Y-116533305D01*
X153779975Y-116652805D01*
X153747362Y-116738289D01*
X153704026Y-116808353D01*
X153695803Y-116819596D01*
X153492636Y-116994550D01*
X153205000Y-117108729D01*
X152863019Y-117156108D01*
X152496817Y-117130661D01*
X152329031Y-117092981D01*
X151952606Y-116928862D01*
X151660885Y-116671991D01*
X151457977Y-116327770D01*
X151347994Y-115901601D01*
X151335908Y-115788055D01*
X151336642Y-115349239D01*
X151422545Y-114985201D01*
X151602350Y-114669296D01*
X151761763Y-114488956D01*
X151966430Y-114309287D01*
X152178263Y-114183794D01*
X152425653Y-114103869D01*
X152736990Y-114060902D01*
X153140668Y-114046285D01*
X153222637Y-114046000D01*
X153871789Y-114046000D01*
X155511436Y-114046000D01*
X155511478Y-113589554D01*
X155511714Y-113538000D01*
X153860500Y-113538000D01*
X153400125Y-113537645D01*
X153129571Y-113527873D01*
X152873263Y-113502681D01*
X152697131Y-113469920D01*
X152371821Y-113316642D01*
X152103253Y-113064253D01*
X151904694Y-112732969D01*
X151789410Y-112343006D01*
X151765355Y-112050099D01*
X151813779Y-111612486D01*
X151958448Y-111256196D01*
X152200421Y-110980250D01*
X152540761Y-110783671D01*
X152980526Y-110665480D01*
X153303746Y-110631129D01*
X153860500Y-110599384D01*
X153860500Y-113538000D01*
X155511714Y-113538000D01*
X155513926Y-113056770D01*
X155518770Y-112549153D01*
X155526009Y-112083610D01*
X155535639Y-111677045D01*
X155547659Y-111346363D01*
X155562066Y-111108470D01*
X155578858Y-110980270D01*
X155579251Y-110978821D01*
X155709136Y-110739259D01*
X155940464Y-110559170D01*
X156256474Y-110451585D01*
X156257625Y-110451367D01*
X156412160Y-110396294D01*
X156463675Y-110300298D01*
X156464000Y-110289040D01*
X156460437Y-110258008D01*
X156441950Y-110232800D01*
X156396849Y-110212929D01*
X156313443Y-110197908D01*
X156180038Y-110187251D01*
X155984944Y-110180472D01*
X155716468Y-110177085D01*
X155362919Y-110176604D01*
X154912605Y-110178542D01*
G36*
X144108216Y-112841112D02*
G01*
X143801959Y-112846747D01*
X143591788Y-112857596D01*
X143462262Y-112874855D01*
X143397941Y-112899716D01*
X143383000Y-112927866D01*
X143437175Y-113007540D01*
X143543366Y-113056481D01*
X143713701Y-113133848D01*
X143829116Y-113222115D01*
X143864925Y-113263623D01*
X143893190Y-113317943D01*
X143914801Y-113399401D01*
X143930646Y-113522322D01*
X143941615Y-113701031D01*
X143948595Y-113949855D01*
X143952477Y-114283119D01*
X143954149Y-114715148D01*
X143954500Y-115242658D01*
X143954337Y-115804629D01*
X143952174Y-116253136D01*
X143945498Y-116601715D01*
X143931799Y-116863900D01*
X143908565Y-117053227D01*
X143873286Y-117183232D01*
X143823450Y-117267448D01*
X143756544Y-117319412D01*
X143670059Y-117352660D01*
X143561483Y-117380725D01*
X143557625Y-117381686D01*
X143431186Y-117440813D01*
X143383000Y-117513633D01*
X143406203Y-117550315D01*
X143487385Y-117575702D01*
X143643913Y-117591585D01*
X143893150Y-117599754D01*
X144240250Y-117602000D01*
X145097500Y-117602000D01*
X145097500Y-117089885D01*
X145457425Y-117361817D01*
X145817350Y-117633750D01*
X146521050Y-117648297D01*
X146823513Y-117648456D01*
X147092665Y-117637537D01*
X147294745Y-117617542D01*
X147383500Y-117597177D01*
X147528663Y-117511907D01*
X147700142Y-117377864D01*
X147754043Y-117328629D01*
X147874306Y-117210750D01*
X147969377Y-117102794D01*
X148042540Y-116988331D01*
X148097079Y-116850932D01*
X148136278Y-116674169D01*
X148163422Y-116441611D01*
X148181795Y-116136830D01*
X148194682Y-115743396D01*
X148205365Y-115244880D01*
X148209000Y-115052745D01*
X148219908Y-114511724D01*
X148232153Y-114083636D01*
X148248916Y-113754429D01*
X148273379Y-113510049D01*
X148308725Y-113336444D01*
X148358133Y-113219561D01*
X148424787Y-113145346D01*
X148511866Y-113099747D01*
X148622554Y-113068710D01*
X148660085Y-113060303D01*
X148790810Y-113004682D01*
X148844000Y-112929704D01*
X148824587Y-112896853D01*
X148755872Y-112872782D01*
X148622142Y-112856251D01*
X148407686Y-112846022D01*
X148096792Y-112840852D01*
X147701000Y-112839500D01*
X147283216Y-112841112D01*
X146976959Y-112846747D01*
X146766788Y-112857596D01*
X146637262Y-112874855D01*
X146572941Y-112899716D01*
X146558000Y-112927866D01*
X146612175Y-113007540D01*
X146718366Y-113056481D01*
X146888701Y-113133848D01*
X147004116Y-113222115D01*
X147042486Y-113266959D01*
X147072132Y-113325702D01*
X147094172Y-113413979D01*
X147109727Y-113547422D01*
X147119916Y-113741666D01*
X147125858Y-114012344D01*
X147128673Y-114375090D01*
X147129481Y-114845537D01*
X147129500Y-114973028D01*
X147128407Y-115487104D01*
X147124524Y-115890259D01*
X147116947Y-116198554D01*
X147104773Y-116428054D01*
X147087096Y-116594822D01*
X147063013Y-116714921D01*
X147031619Y-116804416D01*
X147025688Y-116817325D01*
X146854626Y-117044314D01*
X146612359Y-117183675D01*
X146319885Y-117235108D01*
X145998209Y-117198318D01*
X145668330Y-117073005D01*
X145351251Y-116858871D01*
X145331007Y-116841365D01*
X145097500Y-116636343D01*
X145097500Y-114991921D01*
X145097989Y-114490811D01*
X145100189Y-114101169D01*
X145105201Y-113807464D01*
X145114124Y-113594168D01*
X145128059Y-113445748D01*
X145148107Y-113346676D01*
X145175366Y-113281420D01*
X145210939Y-113234451D01*
X145222885Y-113222115D01*
X145379040Y-113110234D01*
X145508635Y-113056481D01*
X145628551Y-112996532D01*
X145669000Y-112927866D01*
X145648139Y-112895566D01*
X145575259Y-112871889D01*
X145434921Y-112855641D01*
X145211684Y-112845627D01*
X144890105Y-112840655D01*
X144526000Y-112839500D01*
X144108216Y-112841112D01*
G37*
X144108216Y-112841112D02*
X143801959Y-112846747D01*
X143591788Y-112857596D01*
X143462262Y-112874855D01*
X143397941Y-112899716D01*
X143383000Y-112927866D01*
X143437175Y-113007540D01*
X143543366Y-113056481D01*
X143713701Y-113133848D01*
X143829116Y-113222115D01*
X143864925Y-113263623D01*
X143893190Y-113317943D01*
X143914801Y-113399401D01*
X143930646Y-113522322D01*
X143941615Y-113701031D01*
X143948595Y-113949855D01*
X143952477Y-114283119D01*
X143954149Y-114715148D01*
X143954500Y-115242658D01*
X143954337Y-115804629D01*
X143952174Y-116253136D01*
X143945498Y-116601715D01*
X143931799Y-116863900D01*
X143908565Y-117053227D01*
X143873286Y-117183232D01*
X143823450Y-117267448D01*
X143756544Y-117319412D01*
X143670059Y-117352660D01*
X143561483Y-117380725D01*
X143557625Y-117381686D01*
X143431186Y-117440813D01*
X143383000Y-117513633D01*
X143406203Y-117550315D01*
X143487385Y-117575702D01*
X143643913Y-117591585D01*
X143893150Y-117599754D01*
X144240250Y-117602000D01*
X145097500Y-117602000D01*
X145097500Y-117089885D01*
X145457425Y-117361817D01*
X145817350Y-117633750D01*
X146521050Y-117648297D01*
X146823513Y-117648456D01*
X147092665Y-117637537D01*
X147294745Y-117617542D01*
X147383500Y-117597177D01*
X147528663Y-117511907D01*
X147700142Y-117377864D01*
X147754043Y-117328629D01*
X147874306Y-117210750D01*
X147969377Y-117102794D01*
X148042540Y-116988331D01*
X148097079Y-116850932D01*
X148136278Y-116674169D01*
X148163422Y-116441611D01*
X148181795Y-116136830D01*
X148194682Y-115743396D01*
X148205365Y-115244880D01*
X148209000Y-115052745D01*
X148219908Y-114511724D01*
X148232153Y-114083636D01*
X148248916Y-113754429D01*
X148273379Y-113510049D01*
X148308725Y-113336444D01*
X148358133Y-113219561D01*
X148424787Y-113145346D01*
X148511866Y-113099747D01*
X148622554Y-113068710D01*
X148660085Y-113060303D01*
X148790810Y-113004682D01*
X148844000Y-112929704D01*
X148824587Y-112896853D01*
X148755872Y-112872782D01*
X148622142Y-112856251D01*
X148407686Y-112846022D01*
X148096792Y-112840852D01*
X147701000Y-112839500D01*
X147283216Y-112841112D01*
X146976959Y-112846747D01*
X146766788Y-112857596D01*
X146637262Y-112874855D01*
X146572941Y-112899716D01*
X146558000Y-112927866D01*
X146612175Y-113007540D01*
X146718366Y-113056481D01*
X146888701Y-113133848D01*
X147004116Y-113222115D01*
X147042486Y-113266959D01*
X147072132Y-113325702D01*
X147094172Y-113413979D01*
X147109727Y-113547422D01*
X147119916Y-113741666D01*
X147125858Y-114012344D01*
X147128673Y-114375090D01*
X147129481Y-114845537D01*
X147129500Y-114973028D01*
X147128407Y-115487104D01*
X147124524Y-115890259D01*
X147116947Y-116198554D01*
X147104773Y-116428054D01*
X147087096Y-116594822D01*
X147063013Y-116714921D01*
X147031619Y-116804416D01*
X147025688Y-116817325D01*
X146854626Y-117044314D01*
X146612359Y-117183675D01*
X146319885Y-117235108D01*
X145998209Y-117198318D01*
X145668330Y-117073005D01*
X145351251Y-116858871D01*
X145331007Y-116841365D01*
X145097500Y-116636343D01*
X145097500Y-114991921D01*
X145097989Y-114490811D01*
X145100189Y-114101169D01*
X145105201Y-113807464D01*
X145114124Y-113594168D01*
X145128059Y-113445748D01*
X145148107Y-113346676D01*
X145175366Y-113281420D01*
X145210939Y-113234451D01*
X145222885Y-113222115D01*
X145379040Y-113110234D01*
X145508635Y-113056481D01*
X145628551Y-112996532D01*
X145669000Y-112927866D01*
X145648139Y-112895566D01*
X145575259Y-112871889D01*
X145434921Y-112855641D01*
X145211684Y-112845627D01*
X144890105Y-112840655D01*
X144526000Y-112839500D01*
X144108216Y-112841112D01*
G36*
X118188884Y-114848038D02*
G01*
X118172517Y-118681500D01*
X117602000Y-118681500D01*
X117602000Y-119570500D01*
X118114237Y-119570500D01*
X118384571Y-119575526D01*
X118566567Y-119596169D01*
X118698681Y-119640776D01*
X118819368Y-119717694D01*
X118830238Y-119725918D01*
X119177708Y-119942871D01*
X119600586Y-120133496D01*
X120047398Y-120276991D01*
X120344657Y-120337933D01*
X120933005Y-120368883D01*
X121504366Y-120290499D01*
X121934312Y-120148788D01*
X122125439Y-120045519D01*
X122312834Y-119910975D01*
X122464342Y-119772275D01*
X122547803Y-119656539D01*
X122555000Y-119625340D01*
X122614393Y-119604121D01*
X122776171Y-119586722D01*
X123015737Y-119574922D01*
X123308493Y-119570501D01*
X123313227Y-119570500D01*
X124071453Y-119570500D01*
X124091102Y-120792875D01*
X124110750Y-122015250D01*
X124294265Y-122285807D01*
X124506567Y-122526064D01*
X124809043Y-122771059D01*
X125168077Y-122997152D01*
X125550056Y-123180701D01*
X125588044Y-123195737D01*
X125874458Y-123275201D01*
X126237979Y-123331402D01*
X126632193Y-123361293D01*
X127010685Y-123361828D01*
X127327042Y-123329960D01*
X127398939Y-123314622D01*
X127802014Y-123170917D01*
X128129055Y-122966694D01*
X128366185Y-122715225D01*
X128499529Y-122429780D01*
X128524000Y-122238613D01*
X128462308Y-121910860D01*
X128283793Y-121600743D01*
X127998296Y-121316672D01*
X127615660Y-121067060D01*
X127145724Y-120860317D01*
X126780284Y-120748242D01*
X126502931Y-120697022D01*
X126163471Y-120664572D01*
X125804198Y-120651886D01*
X125467404Y-120659955D01*
X125195385Y-120689771D01*
X125110456Y-120709067D01*
X124904500Y-120768134D01*
X124904500Y-119570500D01*
X157226000Y-119570500D01*
X157226000Y-118681500D01*
X124906046Y-118681500D01*
X124081743Y-118681500D01*
X122555000Y-118681500D01*
X122307206Y-118433705D01*
X121948685Y-118152141D01*
X121499416Y-117920299D01*
X120989136Y-117747749D01*
X120447582Y-117644063D01*
X119904493Y-117618812D01*
X119792750Y-117624389D01*
X119532577Y-117646099D01*
X119306754Y-117672050D01*
X119157620Y-117697234D01*
X119141875Y-117701391D01*
X118999000Y-117743812D01*
X118999000Y-115894906D01*
X119000568Y-115425199D01*
X119005000Y-114999594D01*
X119011892Y-114633820D01*
X119020836Y-114343605D01*
X119031429Y-114144678D01*
X119043264Y-114052765D01*
X119046625Y-114048337D01*
X119112954Y-114073835D01*
X119283074Y-114145759D01*
X119544798Y-114258782D01*
X119885940Y-114407579D01*
X120294313Y-114586823D01*
X120757731Y-114791187D01*
X121264008Y-115015346D01*
X121570750Y-115151559D01*
X124047250Y-116252442D01*
X124064497Y-117466971D01*
X124081743Y-118681500D01*
X124906046Y-118681500D01*
X124872750Y-113951432D01*
X118205250Y-111014576D01*
X118188884Y-114848038D01*
G37*
X118188884Y-114848038D02*
X118172517Y-118681500D01*
X117602000Y-118681500D01*
X117602000Y-119570500D01*
X118114237Y-119570500D01*
X118384571Y-119575526D01*
X118566567Y-119596169D01*
X118698681Y-119640776D01*
X118819368Y-119717694D01*
X118830238Y-119725918D01*
X119177708Y-119942871D01*
X119600586Y-120133496D01*
X120047398Y-120276991D01*
X120344657Y-120337933D01*
X120933005Y-120368883D01*
X121504366Y-120290499D01*
X121934312Y-120148788D01*
X122125439Y-120045519D01*
X122312834Y-119910975D01*
X122464342Y-119772275D01*
X122547803Y-119656539D01*
X122555000Y-119625340D01*
X122614393Y-119604121D01*
X122776171Y-119586722D01*
X123015737Y-119574922D01*
X123308493Y-119570501D01*
X123313227Y-119570500D01*
X124071453Y-119570500D01*
X124091102Y-120792875D01*
X124110750Y-122015250D01*
X124294265Y-122285807D01*
X124506567Y-122526064D01*
X124809043Y-122771059D01*
X125168077Y-122997152D01*
X125550056Y-123180701D01*
X125588044Y-123195737D01*
X125874458Y-123275201D01*
X126237979Y-123331402D01*
X126632193Y-123361293D01*
X127010685Y-123361828D01*
X127327042Y-123329960D01*
X127398939Y-123314622D01*
X127802014Y-123170917D01*
X128129055Y-122966694D01*
X128366185Y-122715225D01*
X128499529Y-122429780D01*
X128524000Y-122238613D01*
X128462308Y-121910860D01*
X128283793Y-121600743D01*
X127998296Y-121316672D01*
X127615660Y-121067060D01*
X127145724Y-120860317D01*
X126780284Y-120748242D01*
X126502931Y-120697022D01*
X126163471Y-120664572D01*
X125804198Y-120651886D01*
X125467404Y-120659955D01*
X125195385Y-120689771D01*
X125110456Y-120709067D01*
X124904500Y-120768134D01*
X124904500Y-119570500D01*
X157226000Y-119570500D01*
X157226000Y-118681500D01*
X124906046Y-118681500D01*
X124081743Y-118681500D01*
X122555000Y-118681500D01*
X122307206Y-118433705D01*
X121948685Y-118152141D01*
X121499416Y-117920299D01*
X120989136Y-117747749D01*
X120447582Y-117644063D01*
X119904493Y-117618812D01*
X119792750Y-117624389D01*
X119532577Y-117646099D01*
X119306754Y-117672050D01*
X119157620Y-117697234D01*
X119141875Y-117701391D01*
X118999000Y-117743812D01*
X118999000Y-115894906D01*
X119000568Y-115425199D01*
X119005000Y-114999594D01*
X119011892Y-114633820D01*
X119020836Y-114343605D01*
X119031429Y-114144678D01*
X119043264Y-114052765D01*
X119046625Y-114048337D01*
X119112954Y-114073835D01*
X119283074Y-114145759D01*
X119544798Y-114258782D01*
X119885940Y-114407579D01*
X120294313Y-114586823D01*
X120757731Y-114791187D01*
X121264008Y-115015346D01*
X121570750Y-115151559D01*
X124047250Y-116252442D01*
X124064497Y-117466971D01*
X124081743Y-118681500D01*
X124906046Y-118681500D01*
X124872750Y-113951432D01*
X118205250Y-111014576D01*
X118188884Y-114848038D01*
G36*
X136175750Y-124110750D02*
G01*
X138493500Y-124145364D01*
X138493500Y-123444000D01*
X136137364Y-123444000D01*
X136175750Y-124110750D01*
G37*
X136175750Y-124110750D02*
X138493500Y-124145364D01*
X138493500Y-123444000D01*
X136137364Y-123444000D01*
X136175750Y-124110750D01*
G36*
X130210582Y-120646091D02*
G01*
X129857988Y-120799997D01*
X129579204Y-121031111D01*
X129354142Y-121353677D01*
X129244947Y-121697060D01*
X129252530Y-122063508D01*
X129377798Y-122455269D01*
X129621660Y-122874592D01*
X129985026Y-123323724D01*
X130468805Y-123804915D01*
X130827269Y-124118369D01*
X131385816Y-124587000D01*
X129159000Y-124587000D01*
X129159000Y-125222000D01*
X130714750Y-125222000D01*
X131222671Y-125220552D01*
X131615321Y-125215812D01*
X131904400Y-125207183D01*
X132101608Y-125194067D01*
X132218646Y-125175867D01*
X132267213Y-125151986D01*
X132270209Y-125142625D01*
X132227450Y-125073533D01*
X132109035Y-124931160D01*
X131929457Y-124731677D01*
X131703209Y-124491256D01*
X131487702Y-124269500D01*
X131177509Y-123949693D01*
X130942817Y-123693566D01*
X130765765Y-123478705D01*
X130628490Y-123282696D01*
X130513128Y-123083126D01*
X130461410Y-122981750D01*
X130330547Y-122697832D01*
X130255188Y-122475222D01*
X130222354Y-122268272D01*
X130217662Y-122124500D01*
X130261012Y-121761760D01*
X130383273Y-121475436D01*
X130573830Y-121277059D01*
X130822071Y-121178162D01*
X131083835Y-121183325D01*
X131293648Y-121274244D01*
X131501019Y-121446206D01*
X131665250Y-121659154D01*
X131736717Y-121825914D01*
X131793859Y-121957780D01*
X131852030Y-121968394D01*
X131887095Y-121860985D01*
X131889500Y-121805467D01*
X131844389Y-121570821D01*
X131726358Y-121302034D01*
X131561363Y-121044671D01*
X131375360Y-120844296D01*
X131317089Y-120800609D01*
X130969450Y-120642508D01*
X130590842Y-120592298D01*
X130210582Y-120646091D01*
G37*
X130210582Y-120646091D02*
X129857988Y-120799997D01*
X129579204Y-121031111D01*
X129354142Y-121353677D01*
X129244947Y-121697060D01*
X129252530Y-122063508D01*
X129377798Y-122455269D01*
X129621660Y-122874592D01*
X129985026Y-123323724D01*
X130468805Y-123804915D01*
X130827269Y-124118369D01*
X131385816Y-124587000D01*
X129159000Y-124587000D01*
X129159000Y-125222000D01*
X130714750Y-125222000D01*
X131222671Y-125220552D01*
X131615321Y-125215812D01*
X131904400Y-125207183D01*
X132101608Y-125194067D01*
X132218646Y-125175867D01*
X132267213Y-125151986D01*
X132270209Y-125142625D01*
X132227450Y-125073533D01*
X132109035Y-124931160D01*
X131929457Y-124731677D01*
X131703209Y-124491256D01*
X131487702Y-124269500D01*
X131177509Y-123949693D01*
X130942817Y-123693566D01*
X130765765Y-123478705D01*
X130628490Y-123282696D01*
X130513128Y-123083126D01*
X130461410Y-122981750D01*
X130330547Y-122697832D01*
X130255188Y-122475222D01*
X130222354Y-122268272D01*
X130217662Y-122124500D01*
X130261012Y-121761760D01*
X130383273Y-121475436D01*
X130573830Y-121277059D01*
X130822071Y-121178162D01*
X131083835Y-121183325D01*
X131293648Y-121274244D01*
X131501019Y-121446206D01*
X131665250Y-121659154D01*
X131736717Y-121825914D01*
X131793859Y-121957780D01*
X131852030Y-121968394D01*
X131887095Y-121860985D01*
X131889500Y-121805467D01*
X131844389Y-121570821D01*
X131726358Y-121302034D01*
X131561363Y-121044671D01*
X131375360Y-120844296D01*
X131317089Y-120800609D01*
X130969450Y-120642508D01*
X130590842Y-120592298D01*
X130210582Y-120646091D01*
G36*
X139733219Y-120715575D02*
G01*
X139434415Y-120722537D01*
X139233624Y-120735492D01*
X139116379Y-120755546D01*
X139068215Y-120783803D01*
X139065000Y-120795993D01*
X139118941Y-120869805D01*
X139251741Y-120945218D01*
X139281782Y-120956876D01*
X139475614Y-121076079D01*
X139567532Y-121233108D01*
X139591354Y-121366512D01*
X139610244Y-121601381D01*
X139624274Y-121916148D01*
X139633519Y-122289248D01*
X139638052Y-122699114D01*
X139637948Y-123124182D01*
X139633281Y-123542885D01*
X139624125Y-123933656D01*
X139610553Y-124274931D01*
X139592640Y-124545143D01*
X139570459Y-124722727D01*
X139555384Y-124775354D01*
X139435068Y-124907226D01*
X139270570Y-124990915D01*
X139131322Y-125053743D01*
X139065743Y-125128400D01*
X139065000Y-125135935D01*
X139088332Y-125168378D01*
X139168582Y-125191925D01*
X139321133Y-125207803D01*
X139561366Y-125217239D01*
X139904664Y-125221458D01*
X140144500Y-125222000D01*
X140544501Y-125220550D01*
X140834215Y-125215219D01*
X141030331Y-125204535D01*
X141149539Y-125187025D01*
X141208529Y-125161216D01*
X141224000Y-125126750D01*
X141170777Y-125049242D01*
X141094114Y-125031500D01*
X140961660Y-124988445D01*
X140816888Y-124883975D01*
X140808364Y-124875636D01*
X140652500Y-124719772D01*
X140652500Y-123038270D01*
X140654708Y-122580781D01*
X140660926Y-122158615D01*
X140670548Y-121790416D01*
X140682966Y-121494832D01*
X140697573Y-121290507D01*
X140712367Y-121199308D01*
X140826459Y-121054966D01*
X140998117Y-120960167D01*
X141144320Y-120887563D01*
X141220763Y-120811079D01*
X141224000Y-120795993D01*
X141196845Y-120764564D01*
X141105735Y-120741730D01*
X140936205Y-120726385D01*
X140673788Y-120717426D01*
X140304020Y-120713745D01*
X140144500Y-120713500D01*
X139733219Y-120715575D01*
G37*
X139733219Y-120715575D02*
X139434415Y-120722537D01*
X139233624Y-120735492D01*
X139116379Y-120755546D01*
X139068215Y-120783803D01*
X139065000Y-120795993D01*
X139118941Y-120869805D01*
X139251741Y-120945218D01*
X139281782Y-120956876D01*
X139475614Y-121076079D01*
X139567532Y-121233108D01*
X139591354Y-121366512D01*
X139610244Y-121601381D01*
X139624274Y-121916148D01*
X139633519Y-122289248D01*
X139638052Y-122699114D01*
X139637948Y-123124182D01*
X139633281Y-123542885D01*
X139624125Y-123933656D01*
X139610553Y-124274931D01*
X139592640Y-124545143D01*
X139570459Y-124722727D01*
X139555384Y-124775354D01*
X139435068Y-124907226D01*
X139270570Y-124990915D01*
X139131322Y-125053743D01*
X139065743Y-125128400D01*
X139065000Y-125135935D01*
X139088332Y-125168378D01*
X139168582Y-125191925D01*
X139321133Y-125207803D01*
X139561366Y-125217239D01*
X139904664Y-125221458D01*
X140144500Y-125222000D01*
X140544501Y-125220550D01*
X140834215Y-125215219D01*
X141030331Y-125204535D01*
X141149539Y-125187025D01*
X141208529Y-125161216D01*
X141224000Y-125126750D01*
X141170777Y-125049242D01*
X141094114Y-125031500D01*
X140961660Y-124988445D01*
X140816888Y-124883975D01*
X140808364Y-124875636D01*
X140652500Y-124719772D01*
X140652500Y-123038270D01*
X140654708Y-122580781D01*
X140660926Y-122158615D01*
X140670548Y-121790416D01*
X140682966Y-121494832D01*
X140697573Y-121290507D01*
X140712367Y-121199308D01*
X140826459Y-121054966D01*
X140998117Y-120960167D01*
X141144320Y-120887563D01*
X141220763Y-120811079D01*
X141224000Y-120795993D01*
X141196845Y-120764564D01*
X141105735Y-120741730D01*
X140936205Y-120726385D01*
X140673788Y-120717426D01*
X140304020Y-120713745D01*
X140144500Y-120713500D01*
X139733219Y-120715575D01*
G36*
X144919535Y-120711695D02*
G01*
X144535606Y-120723923D01*
X144185974Y-120742263D01*
X143890779Y-120766658D01*
X143670163Y-120797055D01*
X143607471Y-120810839D01*
X143060244Y-121011175D01*
X142597178Y-121304405D01*
X142333481Y-121554380D01*
X142096472Y-121870005D01*
X141940020Y-122212680D01*
X141854399Y-122612158D01*
X141829863Y-123094750D01*
X141837027Y-123396551D01*
X141861065Y-123617577D01*
X141910693Y-123803793D01*
X141994629Y-124001162D01*
X142006437Y-124025746D01*
X142276885Y-124440541D01*
X142650344Y-124784308D01*
X143057880Y-125022917D01*
X143166573Y-125072590D01*
X143266970Y-125111495D01*
X143376049Y-125141153D01*
X143510791Y-125163084D01*
X143688175Y-125178809D01*
X143925181Y-125189850D01*
X144238788Y-125197726D01*
X144645977Y-125203958D01*
X145145125Y-125209857D01*
X145717419Y-125214421D01*
X146168435Y-125213622D01*
X146503789Y-125207299D01*
X146729098Y-125195293D01*
X146849975Y-125177444D01*
X146875500Y-125160660D01*
X146822592Y-125091311D01*
X146700992Y-125025508D01*
X146588329Y-124982307D01*
X146499273Y-124938470D01*
X146431051Y-124879627D01*
X146380892Y-124791407D01*
X146346021Y-124659440D01*
X146323668Y-124469356D01*
X146311060Y-124206783D01*
X146305424Y-123857351D01*
X146303988Y-123406690D01*
X146304000Y-122967750D01*
X146304242Y-122421976D01*
X146306778Y-121989262D01*
X146314330Y-121655668D01*
X146329618Y-121407252D01*
X146355361Y-121230077D01*
X146394280Y-121110201D01*
X146449094Y-121033685D01*
X146453280Y-121031000D01*
X145224500Y-121031000D01*
X145224500Y-122864724D01*
X145223724Y-123404878D01*
X145220924Y-123831766D01*
X145215394Y-124159117D01*
X145206428Y-124400659D01*
X145193318Y-124570120D01*
X145175359Y-124681227D01*
X145151845Y-124747710D01*
X145125923Y-124780261D01*
X144979697Y-124853270D01*
X144766841Y-124909532D01*
X144547672Y-124935969D01*
X144430750Y-124931017D01*
X144280679Y-124907813D01*
X144089333Y-124877634D01*
X144077167Y-124875696D01*
X143774291Y-124767965D01*
X143488090Y-124556195D01*
X143245303Y-124262949D01*
X143147972Y-124091659D01*
X143068112Y-123917814D01*
X143016439Y-123763138D01*
X142986924Y-123591658D01*
X142973540Y-123367406D01*
X142970258Y-123054409D01*
X142970250Y-123031250D01*
X142974098Y-122700479D01*
X142989157Y-122460614D01*
X143020702Y-122275703D01*
X143074008Y-122109790D01*
X143121974Y-121996982D01*
X143312311Y-121683644D01*
X143570877Y-121405375D01*
X143862646Y-121195131D01*
X144069235Y-121105677D01*
X144264082Y-121067025D01*
X144525893Y-121040042D01*
X144771493Y-121031000D01*
X145224500Y-121031000D01*
X146453280Y-121031000D01*
X146522524Y-120986588D01*
X146617291Y-120954971D01*
X146700875Y-120933813D01*
X146827315Y-120874686D01*
X146875500Y-120801866D01*
X146815442Y-120769765D01*
X146648693Y-120744163D01*
X146395396Y-120725004D01*
X146075691Y-120712233D01*
X145709718Y-120705795D01*
X145317619Y-120705634D01*
X144919535Y-120711695D01*
G37*
X144919535Y-120711695D02*
X144535606Y-120723923D01*
X144185974Y-120742263D01*
X143890779Y-120766658D01*
X143670163Y-120797055D01*
X143607471Y-120810839D01*
X143060244Y-121011175D01*
X142597178Y-121304405D01*
X142333481Y-121554380D01*
X142096472Y-121870005D01*
X141940020Y-122212680D01*
X141854399Y-122612158D01*
X141829863Y-123094750D01*
X141837027Y-123396551D01*
X141861065Y-123617577D01*
X141910693Y-123803793D01*
X141994629Y-124001162D01*
X142006437Y-124025746D01*
X142276885Y-124440541D01*
X142650344Y-124784308D01*
X143057880Y-125022917D01*
X143166573Y-125072590D01*
X143266970Y-125111495D01*
X143376049Y-125141153D01*
X143510791Y-125163084D01*
X143688175Y-125178809D01*
X143925181Y-125189850D01*
X144238788Y-125197726D01*
X144645977Y-125203958D01*
X145145125Y-125209857D01*
X145717419Y-125214421D01*
X146168435Y-125213622D01*
X146503789Y-125207299D01*
X146729098Y-125195293D01*
X146849975Y-125177444D01*
X146875500Y-125160660D01*
X146822592Y-125091311D01*
X146700992Y-125025508D01*
X146588329Y-124982307D01*
X146499273Y-124938470D01*
X146431051Y-124879627D01*
X146380892Y-124791407D01*
X146346021Y-124659440D01*
X146323668Y-124469356D01*
X146311060Y-124206783D01*
X146305424Y-123857351D01*
X146303988Y-123406690D01*
X146304000Y-122967750D01*
X146304242Y-122421976D01*
X146306778Y-121989262D01*
X146314330Y-121655668D01*
X146329618Y-121407252D01*
X146355361Y-121230077D01*
X146394280Y-121110201D01*
X146449094Y-121033685D01*
X146453280Y-121031000D01*
X145224500Y-121031000D01*
X145224500Y-122864724D01*
X145223724Y-123404878D01*
X145220924Y-123831766D01*
X145215394Y-124159117D01*
X145206428Y-124400659D01*
X145193318Y-124570120D01*
X145175359Y-124681227D01*
X145151845Y-124747710D01*
X145125923Y-124780261D01*
X144979697Y-124853270D01*
X144766841Y-124909532D01*
X144547672Y-124935969D01*
X144430750Y-124931017D01*
X144280679Y-124907813D01*
X144089333Y-124877634D01*
X144077167Y-124875696D01*
X143774291Y-124767965D01*
X143488090Y-124556195D01*
X143245303Y-124262949D01*
X143147972Y-124091659D01*
X143068112Y-123917814D01*
X143016439Y-123763138D01*
X142986924Y-123591658D01*
X142973540Y-123367406D01*
X142970258Y-123054409D01*
X142970250Y-123031250D01*
X142974098Y-122700479D01*
X142989157Y-122460614D01*
X143020702Y-122275703D01*
X143074008Y-122109790D01*
X143121974Y-121996982D01*
X143312311Y-121683644D01*
X143570877Y-121405375D01*
X143862646Y-121195131D01*
X144069235Y-121105677D01*
X144264082Y-121067025D01*
X144525893Y-121040042D01*
X144771493Y-121031000D01*
X145224500Y-121031000D01*
X146453280Y-121031000D01*
X146522524Y-120986588D01*
X146617291Y-120954971D01*
X146700875Y-120933813D01*
X146827315Y-120874686D01*
X146875500Y-120801866D01*
X146815442Y-120769765D01*
X146648693Y-120744163D01*
X146395396Y-120725004D01*
X146075691Y-120712233D01*
X145709718Y-120705795D01*
X145317619Y-120705634D01*
X144919535Y-120711695D01*
G36*
X148051719Y-120715575D02*
G01*
X147752915Y-120722537D01*
X147552124Y-120735492D01*
X147434879Y-120755546D01*
X147386715Y-120783803D01*
X147383500Y-120795993D01*
X147437441Y-120869805D01*
X147570241Y-120945218D01*
X147600282Y-120956876D01*
X147794114Y-121076079D01*
X147886032Y-121233108D01*
X147909854Y-121366512D01*
X147928744Y-121601381D01*
X147942774Y-121916148D01*
X147952019Y-122289248D01*
X147956552Y-122699114D01*
X147956448Y-123124182D01*
X147951781Y-123542885D01*
X147942625Y-123933656D01*
X147929053Y-124274931D01*
X147911140Y-124545143D01*
X147888959Y-124722727D01*
X147873884Y-124775354D01*
X147753568Y-124907226D01*
X147589070Y-124990915D01*
X147449822Y-125053743D01*
X147384243Y-125128400D01*
X147383500Y-125135935D01*
X147406832Y-125168378D01*
X147487082Y-125191925D01*
X147639633Y-125207803D01*
X147879866Y-125217239D01*
X148223164Y-125221458D01*
X148463000Y-125222000D01*
X148863001Y-125220550D01*
X149152715Y-125215219D01*
X149348831Y-125204535D01*
X149468039Y-125187025D01*
X149527029Y-125161216D01*
X149542500Y-125126750D01*
X149489277Y-125049242D01*
X149412614Y-125031500D01*
X149280160Y-124988445D01*
X149135388Y-124883975D01*
X149126864Y-124875636D01*
X148971000Y-124719772D01*
X148971000Y-123038270D01*
X148973208Y-122580781D01*
X148979426Y-122158615D01*
X148989048Y-121790416D01*
X149001466Y-121494832D01*
X149016073Y-121290507D01*
X149030867Y-121199308D01*
X149144959Y-121054966D01*
X149316617Y-120960167D01*
X149462820Y-120887563D01*
X149539263Y-120811079D01*
X149542500Y-120795993D01*
X149515345Y-120764564D01*
X149424235Y-120741730D01*
X149254705Y-120726385D01*
X148992288Y-120717426D01*
X148622520Y-120713745D01*
X148463000Y-120713500D01*
X148051719Y-120715575D01*
G37*
X148051719Y-120715575D02*
X147752915Y-120722537D01*
X147552124Y-120735492D01*
X147434879Y-120755546D01*
X147386715Y-120783803D01*
X147383500Y-120795993D01*
X147437441Y-120869805D01*
X147570241Y-120945218D01*
X147600282Y-120956876D01*
X147794114Y-121076079D01*
X147886032Y-121233108D01*
X147909854Y-121366512D01*
X147928744Y-121601381D01*
X147942774Y-121916148D01*
X147952019Y-122289248D01*
X147956552Y-122699114D01*
X147956448Y-123124182D01*
X147951781Y-123542885D01*
X147942625Y-123933656D01*
X147929053Y-124274931D01*
X147911140Y-124545143D01*
X147888959Y-124722727D01*
X147873884Y-124775354D01*
X147753568Y-124907226D01*
X147589070Y-124990915D01*
X147449822Y-125053743D01*
X147384243Y-125128400D01*
X147383500Y-125135935D01*
X147406832Y-125168378D01*
X147487082Y-125191925D01*
X147639633Y-125207803D01*
X147879866Y-125217239D01*
X148223164Y-125221458D01*
X148463000Y-125222000D01*
X148863001Y-125220550D01*
X149152715Y-125215219D01*
X149348831Y-125204535D01*
X149468039Y-125187025D01*
X149527029Y-125161216D01*
X149542500Y-125126750D01*
X149489277Y-125049242D01*
X149412614Y-125031500D01*
X149280160Y-124988445D01*
X149135388Y-124883975D01*
X149126864Y-124875636D01*
X148971000Y-124719772D01*
X148971000Y-123038270D01*
X148973208Y-122580781D01*
X148979426Y-122158615D01*
X148989048Y-121790416D01*
X149001466Y-121494832D01*
X149016073Y-121290507D01*
X149030867Y-121199308D01*
X149144959Y-121054966D01*
X149316617Y-120960167D01*
X149462820Y-120887563D01*
X149539263Y-120811079D01*
X149542500Y-120795993D01*
X149515345Y-120764564D01*
X149424235Y-120741730D01*
X149254705Y-120726385D01*
X148992288Y-120717426D01*
X148622520Y-120713745D01*
X148463000Y-120713500D01*
X148051719Y-120715575D01*
G36*
X153892224Y-122167030D02*
G01*
X153321444Y-123620561D01*
X152746368Y-122182905D01*
X152171291Y-120745250D01*
X151364896Y-120727477D01*
X151027578Y-120721998D01*
X150797728Y-120724355D01*
X150655953Y-120736456D01*
X150582859Y-120760211D01*
X150559054Y-120797529D01*
X150558500Y-120806852D01*
X150610932Y-120887029D01*
X150678466Y-120904000D01*
X150815424Y-120942581D01*
X150941022Y-121019463D01*
X150997673Y-121076136D01*
X151038447Y-121151024D01*
X151062783Y-121257882D01*
X151070120Y-121410464D01*
X151059899Y-121622526D01*
X151031560Y-121907822D01*
X150984541Y-122280106D01*
X150918284Y-122753133D01*
X150851888Y-123207647D01*
X150777575Y-123702892D01*
X150714684Y-124088238D01*
X150657394Y-124379611D01*
X150599884Y-124592934D01*
X150536334Y-124744135D01*
X150460923Y-124849137D01*
X150367831Y-124923867D01*
X150251237Y-124984248D01*
X150193375Y-125009366D01*
X150053787Y-125076799D01*
X149997328Y-125129030D01*
X150031522Y-125167766D01*
X150163890Y-125194715D01*
X150401953Y-125211584D01*
X150753233Y-125220081D01*
X151130000Y-125222000D01*
X151543033Y-125220660D01*
X151845346Y-125215737D01*
X152053200Y-125205877D01*
X152182858Y-125189723D01*
X152250579Y-125165922D01*
X152272625Y-125133117D01*
X152273000Y-125126750D01*
X152221943Y-125043253D01*
X152174864Y-125031500D01*
X152021631Y-124974717D01*
X151883437Y-124829822D01*
X151788710Y-124634995D01*
X151763290Y-124478761D01*
X151770952Y-124341063D01*
X151793139Y-124115247D01*
X151826819Y-123823227D01*
X151868959Y-123486917D01*
X151916528Y-123128230D01*
X151966492Y-122769081D01*
X152015819Y-122431382D01*
X152061476Y-122137048D01*
X152100430Y-121907992D01*
X152129649Y-121766128D01*
X152143673Y-121730098D01*
X152174808Y-121786920D01*
X152246356Y-121947367D01*
X152352245Y-122196874D01*
X152486401Y-122520879D01*
X152642751Y-122904819D01*
X152815223Y-123334132D01*
X152871885Y-123476348D01*
X153082420Y-124001678D01*
X153253373Y-124418114D01*
X153389423Y-124735803D01*
X153495250Y-124964888D01*
X153575532Y-125115515D01*
X153634948Y-125197829D01*
X153676985Y-125222000D01*
X153720393Y-125196309D01*
X153779948Y-125112478D01*
X153860300Y-124960366D01*
X153966100Y-124729831D01*
X154102000Y-124410734D01*
X154272652Y-123992933D01*
X154482706Y-123466289D01*
X154485244Y-123459875D01*
X154660671Y-123022270D01*
X154822096Y-122630507D01*
X154963601Y-122298091D01*
X155079266Y-122038527D01*
X155163172Y-121865322D01*
X155209400Y-121791980D01*
X155215820Y-121793000D01*
X155243275Y-121911547D01*
X155281674Y-122130990D01*
X155327609Y-122426037D01*
X155377675Y-122771397D01*
X155428466Y-123141779D01*
X155476576Y-123511890D01*
X155518598Y-123856440D01*
X155551128Y-124150138D01*
X155570757Y-124367691D01*
X155575001Y-124460101D01*
X155537061Y-124735439D01*
X155430207Y-124928659D01*
X155264885Y-125024096D01*
X155194000Y-125031500D01*
X155090572Y-125071204D01*
X155067000Y-125126750D01*
X155085398Y-125166419D01*
X155153113Y-125193608D01*
X155288932Y-125210485D01*
X155511640Y-125219215D01*
X155840023Y-125221968D01*
X155892500Y-125222000D01*
X156236305Y-125219877D01*
X156471945Y-125212063D01*
X156618204Y-125196392D01*
X156693869Y-125170695D01*
X156717725Y-125132805D01*
X156718000Y-125126750D01*
X156662646Y-125050238D01*
X156556364Y-125031500D01*
X156366538Y-124972777D01*
X156192092Y-124814764D01*
X156059430Y-124584688D01*
X156025455Y-124483985D01*
X155996762Y-124352259D01*
X155953050Y-124115891D01*
X155897881Y-123795876D01*
X155834820Y-123413204D01*
X155767431Y-122988868D01*
X155725650Y-122718067D01*
X155493840Y-121198384D01*
X155664961Y-121051192D01*
X155825711Y-120949837D01*
X155982886Y-120904202D01*
X155991291Y-120904000D01*
X156116315Y-120870243D01*
X156146500Y-120808750D01*
X156128266Y-120769413D01*
X156061144Y-120742335D01*
X155926504Y-120725406D01*
X155705717Y-120716518D01*
X155380152Y-120713564D01*
X155304752Y-120713500D01*
X154463003Y-120713500D01*
X153892224Y-122167030D01*
G37*
X153892224Y-122167030D02*
X153321444Y-123620561D01*
X152746368Y-122182905D01*
X152171291Y-120745250D01*
X151364896Y-120727477D01*
X151027578Y-120721998D01*
X150797728Y-120724355D01*
X150655953Y-120736456D01*
X150582859Y-120760211D01*
X150559054Y-120797529D01*
X150558500Y-120806852D01*
X150610932Y-120887029D01*
X150678466Y-120904000D01*
X150815424Y-120942581D01*
X150941022Y-121019463D01*
X150997673Y-121076136D01*
X151038447Y-121151024D01*
X151062783Y-121257882D01*
X151070120Y-121410464D01*
X151059899Y-121622526D01*
X151031560Y-121907822D01*
X150984541Y-122280106D01*
X150918284Y-122753133D01*
X150851888Y-123207647D01*
X150777575Y-123702892D01*
X150714684Y-124088238D01*
X150657394Y-124379611D01*
X150599884Y-124592934D01*
X150536334Y-124744135D01*
X150460923Y-124849137D01*
X150367831Y-124923867D01*
X150251237Y-124984248D01*
X150193375Y-125009366D01*
X150053787Y-125076799D01*
X149997328Y-125129030D01*
X150031522Y-125167766D01*
X150163890Y-125194715D01*
X150401953Y-125211584D01*
X150753233Y-125220081D01*
X151130000Y-125222000D01*
X151543033Y-125220660D01*
X151845346Y-125215737D01*
X152053200Y-125205877D01*
X152182858Y-125189723D01*
X152250579Y-125165922D01*
X152272625Y-125133117D01*
X152273000Y-125126750D01*
X152221943Y-125043253D01*
X152174864Y-125031500D01*
X152021631Y-124974717D01*
X151883437Y-124829822D01*
X151788710Y-124634995D01*
X151763290Y-124478761D01*
X151770952Y-124341063D01*
X151793139Y-124115247D01*
X151826819Y-123823227D01*
X151868959Y-123486917D01*
X151916528Y-123128230D01*
X151966492Y-122769081D01*
X152015819Y-122431382D01*
X152061476Y-122137048D01*
X152100430Y-121907992D01*
X152129649Y-121766128D01*
X152143673Y-121730098D01*
X152174808Y-121786920D01*
X152246356Y-121947367D01*
X152352245Y-122196874D01*
X152486401Y-122520879D01*
X152642751Y-122904819D01*
X152815223Y-123334132D01*
X152871885Y-123476348D01*
X153082420Y-124001678D01*
X153253373Y-124418114D01*
X153389423Y-124735803D01*
X153495250Y-124964888D01*
X153575532Y-125115515D01*
X153634948Y-125197829D01*
X153676985Y-125222000D01*
X153720393Y-125196309D01*
X153779948Y-125112478D01*
X153860300Y-124960366D01*
X153966100Y-124729831D01*
X154102000Y-124410734D01*
X154272652Y-123992933D01*
X154482706Y-123466289D01*
X154485244Y-123459875D01*
X154660671Y-123022270D01*
X154822096Y-122630507D01*
X154963601Y-122298091D01*
X155079266Y-122038527D01*
X155163172Y-121865322D01*
X155209400Y-121791980D01*
X155215820Y-121793000D01*
X155243275Y-121911547D01*
X155281674Y-122130990D01*
X155327609Y-122426037D01*
X155377675Y-122771397D01*
X155428466Y-123141779D01*
X155476576Y-123511890D01*
X155518598Y-123856440D01*
X155551128Y-124150138D01*
X155570757Y-124367691D01*
X155575001Y-124460101D01*
X155537061Y-124735439D01*
X155430207Y-124928659D01*
X155264885Y-125024096D01*
X155194000Y-125031500D01*
X155090572Y-125071204D01*
X155067000Y-125126750D01*
X155085398Y-125166419D01*
X155153113Y-125193608D01*
X155288932Y-125210485D01*
X155511640Y-125219215D01*
X155840023Y-125221968D01*
X155892500Y-125222000D01*
X156236305Y-125219877D01*
X156471945Y-125212063D01*
X156618204Y-125196392D01*
X156693869Y-125170695D01*
X156717725Y-125132805D01*
X156718000Y-125126750D01*
X156662646Y-125050238D01*
X156556364Y-125031500D01*
X156366538Y-124972777D01*
X156192092Y-124814764D01*
X156059430Y-124584688D01*
X156025455Y-124483985D01*
X155996762Y-124352259D01*
X155953050Y-124115891D01*
X155897881Y-123795876D01*
X155834820Y-123413204D01*
X155767431Y-122988868D01*
X155725650Y-122718067D01*
X155493840Y-121198384D01*
X155664961Y-121051192D01*
X155825711Y-120949837D01*
X155982886Y-120904202D01*
X155991291Y-120904000D01*
X156116315Y-120870243D01*
X156146500Y-120808750D01*
X156128266Y-120769413D01*
X156061144Y-120742335D01*
X155926504Y-120725406D01*
X155705717Y-120716518D01*
X155380152Y-120713564D01*
X155304752Y-120713500D01*
X154463003Y-120713500D01*
X153892224Y-122167030D01*
G36*
X133836626Y-120638431D02*
G01*
X133508627Y-120801340D01*
X133329135Y-120963814D01*
X133130350Y-121265571D01*
X133049926Y-121585402D01*
X133084357Y-121905629D01*
X133230139Y-122208579D01*
X133483768Y-122476575D01*
X133652223Y-122593322D01*
X133979999Y-122790395D01*
X133731362Y-122864889D01*
X133430468Y-123004814D01*
X133173610Y-123216677D01*
X133000735Y-123466882D01*
X132992116Y-123486620D01*
X132926201Y-123750574D01*
X132909334Y-124067286D01*
X132941582Y-124373241D01*
X132991043Y-124541414D01*
X133131972Y-124764016D01*
X133350128Y-124987181D01*
X133601793Y-125172721D01*
X133837631Y-125280920D01*
X134138426Y-125332898D01*
X134472232Y-125341884D01*
X134785324Y-125309363D01*
X134998189Y-125248836D01*
X135218155Y-125134466D01*
X135417504Y-124998328D01*
X135566286Y-124864197D01*
X135634551Y-124755849D01*
X135636000Y-124742518D01*
X135620279Y-124666537D01*
X135558149Y-124666633D01*
X135427156Y-124745738D01*
X135385105Y-124775289D01*
X135210506Y-124871126D01*
X134990036Y-124957086D01*
X134925583Y-124976109D01*
X134728106Y-125017300D01*
X134578631Y-125005880D01*
X134407011Y-124935826D01*
X134396629Y-124930695D01*
X134119860Y-124737959D01*
X133949294Y-124480886D01*
X133876732Y-124163105D01*
X133901248Y-123804561D01*
X134030989Y-123495072D01*
X134250424Y-123252700D01*
X134544024Y-123095505D01*
X134840422Y-123042346D01*
X135016004Y-123021429D01*
X135116755Y-122981100D01*
X135127999Y-122960383D01*
X135073021Y-122903178D01*
X134929957Y-122825356D01*
X134760236Y-122755423D01*
X134526993Y-122650159D01*
X134316804Y-122521474D01*
X134215398Y-122436504D01*
X134041538Y-122174150D01*
X133970468Y-121878733D01*
X134001682Y-121581845D01*
X134134676Y-121315079D01*
X134235042Y-121206538D01*
X134478258Y-121061177D01*
X134740958Y-121040981D01*
X135020855Y-121145996D01*
X135090209Y-121189750D01*
X135255973Y-121298573D01*
X135343267Y-121339593D01*
X135376950Y-121318849D01*
X135382000Y-121260639D01*
X135331064Y-121151340D01*
X135199829Y-121009858D01*
X135020652Y-120862635D01*
X134825892Y-120736115D01*
X134647909Y-120656742D01*
X134640370Y-120654579D01*
X134215955Y-120589020D01*
X133836626Y-120638431D01*
G37*
X133836626Y-120638431D02*
X133508627Y-120801340D01*
X133329135Y-120963814D01*
X133130350Y-121265571D01*
X133049926Y-121585402D01*
X133084357Y-121905629D01*
X133230139Y-122208579D01*
X133483768Y-122476575D01*
X133652223Y-122593322D01*
X133979999Y-122790395D01*
X133731362Y-122864889D01*
X133430468Y-123004814D01*
X133173610Y-123216677D01*
X133000735Y-123466882D01*
X132992116Y-123486620D01*
X132926201Y-123750574D01*
X132909334Y-124067286D01*
X132941582Y-124373241D01*
X132991043Y-124541414D01*
X133131972Y-124764016D01*
X133350128Y-124987181D01*
X133601793Y-125172721D01*
X133837631Y-125280920D01*
X134138426Y-125332898D01*
X134472232Y-125341884D01*
X134785324Y-125309363D01*
X134998189Y-125248836D01*
X135218155Y-125134466D01*
X135417504Y-124998328D01*
X135566286Y-124864197D01*
X135634551Y-124755849D01*
X135636000Y-124742518D01*
X135620279Y-124666537D01*
X135558149Y-124666633D01*
X135427156Y-124745738D01*
X135385105Y-124775289D01*
X135210506Y-124871126D01*
X134990036Y-124957086D01*
X134925583Y-124976109D01*
X134728106Y-125017300D01*
X134578631Y-125005880D01*
X134407011Y-124935826D01*
X134396629Y-124930695D01*
X134119860Y-124737959D01*
X133949294Y-124480886D01*
X133876732Y-124163105D01*
X133901248Y-123804561D01*
X134030989Y-123495072D01*
X134250424Y-123252700D01*
X134544024Y-123095505D01*
X134840422Y-123042346D01*
X135016004Y-123021429D01*
X135116755Y-122981100D01*
X135127999Y-122960383D01*
X135073021Y-122903178D01*
X134929957Y-122825356D01*
X134760236Y-122755423D01*
X134526993Y-122650159D01*
X134316804Y-122521474D01*
X134215398Y-122436504D01*
X134041538Y-122174150D01*
X133970468Y-121878733D01*
X134001682Y-121581845D01*
X134134676Y-121315079D01*
X134235042Y-121206538D01*
X134478258Y-121061177D01*
X134740958Y-121040981D01*
X135020855Y-121145996D01*
X135090209Y-121189750D01*
X135255973Y-121298573D01*
X135343267Y-121339593D01*
X135376950Y-121318849D01*
X135382000Y-121260639D01*
X135331064Y-121151340D01*
X135199829Y-121009858D01*
X135020652Y-120862635D01*
X134825892Y-120736115D01*
X134647909Y-120656742D01*
X134640370Y-120654579D01*
X134215955Y-120589020D01*
X133836626Y-120638431D01*
G36*
X147980371Y-133968066D02*
G01*
X147940889Y-133968467D01*
X147825200Y-133971259D01*
X147728311Y-133979550D01*
X147646919Y-133994232D01*
X147577723Y-134016193D01*
X147517420Y-134046322D01*
X147462708Y-134085510D01*
X147443167Y-134102532D01*
X147410750Y-134142363D01*
X147381520Y-134196413D01*
X147358991Y-134256323D01*
X147346679Y-134313739D01*
X147345400Y-134334956D01*
X147353417Y-134393769D01*
X147374899Y-134458013D01*
X147405999Y-134518821D01*
X147442866Y-134567330D01*
X147448854Y-134573182D01*
X147499579Y-134614321D01*
X147555125Y-134646435D01*
X147618696Y-134670365D01*
X147693494Y-134686953D01*
X147782722Y-134697041D01*
X147889582Y-134701469D01*
X147938528Y-134701845D01*
X148000762Y-134701545D01*
X148044528Y-134700292D01*
X148073931Y-134697554D01*
X148093079Y-134692801D01*
X148106077Y-134685501D01*
X148113045Y-134679267D01*
X148119626Y-134671694D01*
X148124788Y-134661924D01*
X148128703Y-134647340D01*
X148131543Y-134625326D01*
X148133480Y-134593264D01*
X148134684Y-134548536D01*
X148135328Y-134488526D01*
X148135583Y-134410617D01*
X148135622Y-134334956D01*
X148135870Y-134234041D01*
X148135817Y-134153427D01*
X148134857Y-134114822D01*
X147988867Y-134114822D01*
X147988867Y-134555089D01*
X147895734Y-134555004D01*
X147839693Y-134553396D01*
X147780999Y-134549256D01*
X147732028Y-134543464D01*
X147730538Y-134543226D01*
X147651392Y-134524090D01*
X147590002Y-134494287D01*
X147543305Y-134451878D01*
X147513635Y-134405961D01*
X147495353Y-134355026D01*
X147496771Y-134307200D01*
X147517988Y-134255933D01*
X147559489Y-134202899D01*
X147616998Y-134163600D01*
X147691750Y-134137331D01*
X147741708Y-134128035D01*
X147798416Y-134121507D01*
X147858519Y-134116782D01*
X147909639Y-134114817D01*
X147912667Y-134114808D01*
X147988867Y-134114822D01*
X148134857Y-134114822D01*
X148134260Y-134090851D01*
X148129998Y-134044055D01*
X148121830Y-134010778D01*
X148108556Y-133988759D01*
X148088974Y-133975739D01*
X148061883Y-133969457D01*
X148026082Y-133967653D01*
X147980371Y-133968066D01*
G37*
X147980371Y-133968066D02*
X147940889Y-133968467D01*
X147825200Y-133971259D01*
X147728311Y-133979550D01*
X147646919Y-133994232D01*
X147577723Y-134016193D01*
X147517420Y-134046322D01*
X147462708Y-134085510D01*
X147443167Y-134102532D01*
X147410750Y-134142363D01*
X147381520Y-134196413D01*
X147358991Y-134256323D01*
X147346679Y-134313739D01*
X147345400Y-134334956D01*
X147353417Y-134393769D01*
X147374899Y-134458013D01*
X147405999Y-134518821D01*
X147442866Y-134567330D01*
X147448854Y-134573182D01*
X147499579Y-134614321D01*
X147555125Y-134646435D01*
X147618696Y-134670365D01*
X147693494Y-134686953D01*
X147782722Y-134697041D01*
X147889582Y-134701469D01*
X147938528Y-134701845D01*
X148000762Y-134701545D01*
X148044528Y-134700292D01*
X148073931Y-134697554D01*
X148093079Y-134692801D01*
X148106077Y-134685501D01*
X148113045Y-134679267D01*
X148119626Y-134671694D01*
X148124788Y-134661924D01*
X148128703Y-134647340D01*
X148131543Y-134625326D01*
X148133480Y-134593264D01*
X148134684Y-134548536D01*
X148135328Y-134488526D01*
X148135583Y-134410617D01*
X148135622Y-134334956D01*
X148135870Y-134234041D01*
X148135817Y-134153427D01*
X148134857Y-134114822D01*
X147988867Y-134114822D01*
X147988867Y-134555089D01*
X147895734Y-134555004D01*
X147839693Y-134553396D01*
X147780999Y-134549256D01*
X147732028Y-134543464D01*
X147730538Y-134543226D01*
X147651392Y-134524090D01*
X147590002Y-134494287D01*
X147543305Y-134451878D01*
X147513635Y-134405961D01*
X147495353Y-134355026D01*
X147496771Y-134307200D01*
X147517988Y-134255933D01*
X147559489Y-134202899D01*
X147616998Y-134163600D01*
X147691750Y-134137331D01*
X147741708Y-134128035D01*
X147798416Y-134121507D01*
X147858519Y-134116782D01*
X147909639Y-134114817D01*
X147912667Y-134114808D01*
X147988867Y-134114822D01*
X148134857Y-134114822D01*
X148134260Y-134090851D01*
X148129998Y-134044055D01*
X148121830Y-134010778D01*
X148108556Y-133988759D01*
X148088974Y-133975739D01*
X148061883Y-133969457D01*
X148026082Y-133967653D01*
X147980371Y-133968066D01*
G36*
X146571794Y-133968146D02*
G01*
X146502386Y-133968518D01*
X146449997Y-133969385D01*
X146411847Y-133970946D01*
X146385159Y-133973403D01*
X146367153Y-133976957D01*
X146355049Y-133981810D01*
X146346069Y-133988161D01*
X146342818Y-133991084D01*
X146323043Y-134022142D01*
X146319482Y-134057828D01*
X146332491Y-134089510D01*
X146338506Y-134095913D01*
X146348235Y-134102121D01*
X146363901Y-134106910D01*
X146388408Y-134110514D01*
X146424661Y-134113164D01*
X146475565Y-134115095D01*
X146544026Y-134116539D01*
X146606617Y-134117418D01*
X146854334Y-134120467D01*
X146857719Y-134185378D01*
X146861105Y-134250289D01*
X146692958Y-134250289D01*
X146619959Y-134250919D01*
X146566517Y-134253553D01*
X146529628Y-134259309D01*
X146506288Y-134269304D01*
X146493494Y-134284656D01*
X146488242Y-134306482D01*
X146487445Y-134326738D01*
X146489923Y-134351592D01*
X146499277Y-134369906D01*
X146518383Y-134382637D01*
X146550118Y-134390741D01*
X146597359Y-134395176D01*
X146662983Y-134396899D01*
X146698801Y-134397045D01*
X146859978Y-134397045D01*
X146859978Y-134555089D01*
X146611622Y-134555089D01*
X146530213Y-134555202D01*
X146468342Y-134555712D01*
X146422968Y-134556870D01*
X146391054Y-134558930D01*
X146369559Y-134562146D01*
X146355443Y-134566772D01*
X146345668Y-134573059D01*
X146340689Y-134577667D01*
X146323610Y-134604560D01*
X146318111Y-134628467D01*
X146325963Y-134657667D01*
X146340689Y-134679267D01*
X146348546Y-134686066D01*
X146358688Y-134691346D01*
X146373844Y-134695298D01*
X146396741Y-134698113D01*
X146430109Y-134699982D01*
X146476675Y-134701098D01*
X146539167Y-134701651D01*
X146620314Y-134701833D01*
X146662422Y-134701845D01*
X146752598Y-134701765D01*
X146822924Y-134701398D01*
X146876129Y-134700552D01*
X146914940Y-134699036D01*
X146942087Y-134696659D01*
X146960298Y-134693229D01*
X146972300Y-134688554D01*
X146980822Y-134682444D01*
X146984156Y-134679267D01*
X146990755Y-134671670D01*
X146995927Y-134661870D01*
X146999846Y-134647239D01*
X147002684Y-134625152D01*
X147004615Y-134592982D01*
X147005812Y-134548103D01*
X147006448Y-134487889D01*
X147006697Y-134409713D01*
X147006734Y-134336923D01*
X147006700Y-134243707D01*
X147006465Y-134170431D01*
X147005830Y-134114458D01*
X147004594Y-134073151D01*
X147002556Y-134043872D01*
X146999517Y-134023984D01*
X146995277Y-134010850D01*
X146989635Y-134001832D01*
X146982391Y-133994293D01*
X146980606Y-133992612D01*
X146971945Y-133985172D01*
X146961882Y-133979409D01*
X146947625Y-133975112D01*
X146926383Y-133972064D01*
X146895364Y-133970051D01*
X146851777Y-133968860D01*
X146792831Y-133968275D01*
X146715734Y-133968083D01*
X146661001Y-133968067D01*
X146571794Y-133968146D01*
G37*
X146571794Y-133968146D02*
X146502386Y-133968518D01*
X146449997Y-133969385D01*
X146411847Y-133970946D01*
X146385159Y-133973403D01*
X146367153Y-133976957D01*
X146355049Y-133981810D01*
X146346069Y-133988161D01*
X146342818Y-133991084D01*
X146323043Y-134022142D01*
X146319482Y-134057828D01*
X146332491Y-134089510D01*
X146338506Y-134095913D01*
X146348235Y-134102121D01*
X146363901Y-134106910D01*
X146388408Y-134110514D01*
X146424661Y-134113164D01*
X146475565Y-134115095D01*
X146544026Y-134116539D01*
X146606617Y-134117418D01*
X146854334Y-134120467D01*
X146857719Y-134185378D01*
X146861105Y-134250289D01*
X146692958Y-134250289D01*
X146619959Y-134250919D01*
X146566517Y-134253553D01*
X146529628Y-134259309D01*
X146506288Y-134269304D01*
X146493494Y-134284656D01*
X146488242Y-134306482D01*
X146487445Y-134326738D01*
X146489923Y-134351592D01*
X146499277Y-134369906D01*
X146518383Y-134382637D01*
X146550118Y-134390741D01*
X146597359Y-134395176D01*
X146662983Y-134396899D01*
X146698801Y-134397045D01*
X146859978Y-134397045D01*
X146859978Y-134555089D01*
X146611622Y-134555089D01*
X146530213Y-134555202D01*
X146468342Y-134555712D01*
X146422968Y-134556870D01*
X146391054Y-134558930D01*
X146369559Y-134562146D01*
X146355443Y-134566772D01*
X146345668Y-134573059D01*
X146340689Y-134577667D01*
X146323610Y-134604560D01*
X146318111Y-134628467D01*
X146325963Y-134657667D01*
X146340689Y-134679267D01*
X146348546Y-134686066D01*
X146358688Y-134691346D01*
X146373844Y-134695298D01*
X146396741Y-134698113D01*
X146430109Y-134699982D01*
X146476675Y-134701098D01*
X146539167Y-134701651D01*
X146620314Y-134701833D01*
X146662422Y-134701845D01*
X146752598Y-134701765D01*
X146822924Y-134701398D01*
X146876129Y-134700552D01*
X146914940Y-134699036D01*
X146942087Y-134696659D01*
X146960298Y-134693229D01*
X146972300Y-134688554D01*
X146980822Y-134682444D01*
X146984156Y-134679267D01*
X146990755Y-134671670D01*
X146995927Y-134661870D01*
X146999846Y-134647239D01*
X147002684Y-134625152D01*
X147004615Y-134592982D01*
X147005812Y-134548103D01*
X147006448Y-134487889D01*
X147006697Y-134409713D01*
X147006734Y-134336923D01*
X147006700Y-134243707D01*
X147006465Y-134170431D01*
X147005830Y-134114458D01*
X147004594Y-134073151D01*
X147002556Y-134043872D01*
X146999517Y-134023984D01*
X146995277Y-134010850D01*
X146989635Y-134001832D01*
X146982391Y-133994293D01*
X146980606Y-133992612D01*
X146971945Y-133985172D01*
X146961882Y-133979409D01*
X146947625Y-133975112D01*
X146926383Y-133972064D01*
X146895364Y-133970051D01*
X146851777Y-133968860D01*
X146792831Y-133968275D01*
X146715734Y-133968083D01*
X146661001Y-133968067D01*
X146571794Y-133968146D01*
G36*
X145550703Y-133969351D02*
G01*
X145475888Y-133974581D01*
X145406306Y-133982750D01*
X145346002Y-133993550D01*
X145299020Y-134006673D01*
X145269406Y-134021813D01*
X145264860Y-134026269D01*
X145249054Y-134060850D01*
X145253847Y-134096351D01*
X145278364Y-134126725D01*
X145279534Y-134127596D01*
X145293954Y-134136954D01*
X145309008Y-134141876D01*
X145330005Y-134142473D01*
X145362257Y-134138861D01*
X145411073Y-134131154D01*
X145415000Y-134130505D01*
X145487739Y-134121569D01*
X145566217Y-134117161D01*
X145644927Y-134117119D01*
X145718361Y-134121279D01*
X145781011Y-134129479D01*
X145827370Y-134141557D01*
X145830416Y-134142771D01*
X145864048Y-134161615D01*
X145875864Y-134180685D01*
X145866614Y-134199439D01*
X145837047Y-134217337D01*
X145787911Y-134233837D01*
X145719957Y-134248396D01*
X145674645Y-134255406D01*
X145580456Y-134268889D01*
X145505544Y-134281214D01*
X145446717Y-134293449D01*
X145400785Y-134306661D01*
X145364555Y-134321917D01*
X145334838Y-134340285D01*
X145308442Y-134362831D01*
X145287230Y-134384971D01*
X145262065Y-134415819D01*
X145249681Y-134442345D01*
X145245808Y-134475026D01*
X145245667Y-134486995D01*
X145248576Y-134526712D01*
X145260202Y-134556259D01*
X145280323Y-134582486D01*
X145321216Y-134622576D01*
X145366817Y-134653149D01*
X145420513Y-134675203D01*
X145485692Y-134689735D01*
X145565744Y-134697741D01*
X145664057Y-134700218D01*
X145680289Y-134700177D01*
X145745849Y-134698818D01*
X145810866Y-134695730D01*
X145868252Y-134691356D01*
X145910922Y-134686140D01*
X145914372Y-134685541D01*
X145956796Y-134675491D01*
X145992780Y-134662796D01*
X146013150Y-134651190D01*
X146032107Y-134620572D01*
X146033427Y-134584918D01*
X146017085Y-134553144D01*
X146013429Y-134549551D01*
X145998315Y-134538876D01*
X145979415Y-134534276D01*
X145950162Y-134535059D01*
X145914651Y-134539127D01*
X145874970Y-134542762D01*
X145819345Y-134545828D01*
X145754406Y-134548053D01*
X145686785Y-134549164D01*
X145669000Y-134549237D01*
X145601128Y-134548964D01*
X145551454Y-134547646D01*
X145515610Y-134544827D01*
X145489224Y-134540050D01*
X145467926Y-134532857D01*
X145455126Y-134526867D01*
X145427000Y-134510233D01*
X145409068Y-134495168D01*
X145406447Y-134490897D01*
X145411976Y-134473263D01*
X145438260Y-134456192D01*
X145483478Y-134440458D01*
X145545808Y-134426838D01*
X145564171Y-134423804D01*
X145660090Y-134408738D01*
X145736641Y-134396146D01*
X145796780Y-134385111D01*
X145843460Y-134374720D01*
X145879637Y-134364056D01*
X145908265Y-134352205D01*
X145932298Y-134338251D01*
X145954692Y-134321281D01*
X145978402Y-134300378D01*
X145986380Y-134293049D01*
X146014353Y-134265699D01*
X146029160Y-134244029D01*
X146034952Y-134219232D01*
X146035889Y-134187983D01*
X146025575Y-134126705D01*
X145994752Y-134074640D01*
X145943595Y-134031958D01*
X145872283Y-133998825D01*
X145821400Y-133983964D01*
X145766100Y-133974366D01*
X145699853Y-133968936D01*
X145626706Y-133967367D01*
X145550703Y-133969351D01*
G37*
X145550703Y-133969351D02*
X145475888Y-133974581D01*
X145406306Y-133982750D01*
X145346002Y-133993550D01*
X145299020Y-134006673D01*
X145269406Y-134021813D01*
X145264860Y-134026269D01*
X145249054Y-134060850D01*
X145253847Y-134096351D01*
X145278364Y-134126725D01*
X145279534Y-134127596D01*
X145293954Y-134136954D01*
X145309008Y-134141876D01*
X145330005Y-134142473D01*
X145362257Y-134138861D01*
X145411073Y-134131154D01*
X145415000Y-134130505D01*
X145487739Y-134121569D01*
X145566217Y-134117161D01*
X145644927Y-134117119D01*
X145718361Y-134121279D01*
X145781011Y-134129479D01*
X145827370Y-134141557D01*
X145830416Y-134142771D01*
X145864048Y-134161615D01*
X145875864Y-134180685D01*
X145866614Y-134199439D01*
X145837047Y-134217337D01*
X145787911Y-134233837D01*
X145719957Y-134248396D01*
X145674645Y-134255406D01*
X145580456Y-134268889D01*
X145505544Y-134281214D01*
X145446717Y-134293449D01*
X145400785Y-134306661D01*
X145364555Y-134321917D01*
X145334838Y-134340285D01*
X145308442Y-134362831D01*
X145287230Y-134384971D01*
X145262065Y-134415819D01*
X145249681Y-134442345D01*
X145245808Y-134475026D01*
X145245667Y-134486995D01*
X145248576Y-134526712D01*
X145260202Y-134556259D01*
X145280323Y-134582486D01*
X145321216Y-134622576D01*
X145366817Y-134653149D01*
X145420513Y-134675203D01*
X145485692Y-134689735D01*
X145565744Y-134697741D01*
X145664057Y-134700218D01*
X145680289Y-134700177D01*
X145745849Y-134698818D01*
X145810866Y-134695730D01*
X145868252Y-134691356D01*
X145910922Y-134686140D01*
X145914372Y-134685541D01*
X145956796Y-134675491D01*
X145992780Y-134662796D01*
X146013150Y-134651190D01*
X146032107Y-134620572D01*
X146033427Y-134584918D01*
X146017085Y-134553144D01*
X146013429Y-134549551D01*
X145998315Y-134538876D01*
X145979415Y-134534276D01*
X145950162Y-134535059D01*
X145914651Y-134539127D01*
X145874970Y-134542762D01*
X145819345Y-134545828D01*
X145754406Y-134548053D01*
X145686785Y-134549164D01*
X145669000Y-134549237D01*
X145601128Y-134548964D01*
X145551454Y-134547646D01*
X145515610Y-134544827D01*
X145489224Y-134540050D01*
X145467926Y-134532857D01*
X145455126Y-134526867D01*
X145427000Y-134510233D01*
X145409068Y-134495168D01*
X145406447Y-134490897D01*
X145411976Y-134473263D01*
X145438260Y-134456192D01*
X145483478Y-134440458D01*
X145545808Y-134426838D01*
X145564171Y-134423804D01*
X145660090Y-134408738D01*
X145736641Y-134396146D01*
X145796780Y-134385111D01*
X145843460Y-134374720D01*
X145879637Y-134364056D01*
X145908265Y-134352205D01*
X145932298Y-134338251D01*
X145954692Y-134321281D01*
X145978402Y-134300378D01*
X145986380Y-134293049D01*
X146014353Y-134265699D01*
X146029160Y-134244029D01*
X146034952Y-134219232D01*
X146035889Y-134187983D01*
X146025575Y-134126705D01*
X145994752Y-134074640D01*
X145943595Y-134031958D01*
X145872283Y-133998825D01*
X145821400Y-133983964D01*
X145766100Y-133974366D01*
X145699853Y-133968936D01*
X145626706Y-133967367D01*
X145550703Y-133969351D01*
G36*
X144782822Y-133990645D02*
G01*
X144776242Y-133998218D01*
X144771079Y-134007987D01*
X144767164Y-134022571D01*
X144764324Y-134044585D01*
X144762387Y-134076648D01*
X144761183Y-134121375D01*
X144760539Y-134181385D01*
X144760284Y-134259294D01*
X144760245Y-134334956D01*
X144760314Y-134428802D01*
X144760638Y-134502689D01*
X144761386Y-134559232D01*
X144762732Y-134601049D01*
X144764846Y-134630757D01*
X144767900Y-134650973D01*
X144772066Y-134664314D01*
X144777516Y-134673398D01*
X144782822Y-134679267D01*
X144815826Y-134698947D01*
X144850991Y-134697181D01*
X144882455Y-134675717D01*
X144889684Y-134667337D01*
X144895334Y-134657614D01*
X144899599Y-134643861D01*
X144902673Y-134623389D01*
X144904752Y-134593512D01*
X144906030Y-134551541D01*
X144906701Y-134494789D01*
X144906959Y-134420567D01*
X144907000Y-134336537D01*
X144907000Y-134023485D01*
X144879291Y-133995776D01*
X144845137Y-133972463D01*
X144812006Y-133971623D01*
X144782822Y-133990645D01*
G37*
X144782822Y-133990645D02*
X144776242Y-133998218D01*
X144771079Y-134007987D01*
X144767164Y-134022571D01*
X144764324Y-134044585D01*
X144762387Y-134076648D01*
X144761183Y-134121375D01*
X144760539Y-134181385D01*
X144760284Y-134259294D01*
X144760245Y-134334956D01*
X144760314Y-134428802D01*
X144760638Y-134502689D01*
X144761386Y-134559232D01*
X144762732Y-134601049D01*
X144764846Y-134630757D01*
X144767900Y-134650973D01*
X144772066Y-134664314D01*
X144777516Y-134673398D01*
X144782822Y-134679267D01*
X144815826Y-134698947D01*
X144850991Y-134697181D01*
X144882455Y-134675717D01*
X144889684Y-134667337D01*
X144895334Y-134657614D01*
X144899599Y-134643861D01*
X144902673Y-134623389D01*
X144904752Y-134593512D01*
X144906030Y-134551541D01*
X144906701Y-134494789D01*
X144906959Y-134420567D01*
X144907000Y-134336537D01*
X144907000Y-134023485D01*
X144879291Y-133995776D01*
X144845137Y-133972463D01*
X144812006Y-133971623D01*
X144782822Y-133990645D01*
G36*
X143809081Y-133973599D02*
G01*
X143740565Y-133985095D01*
X143687943Y-134002967D01*
X143653708Y-134026499D01*
X143644379Y-134039924D01*
X143634893Y-134071148D01*
X143641277Y-134099395D01*
X143661430Y-134126182D01*
X143692745Y-134138713D01*
X143738183Y-134137696D01*
X143773326Y-134130906D01*
X143851419Y-134117971D01*
X143931226Y-134116742D01*
X144020555Y-134127241D01*
X144045229Y-134131690D01*
X144128291Y-134155108D01*
X144193273Y-134189945D01*
X144239461Y-134235604D01*
X144266145Y-134291494D01*
X144271663Y-134320388D01*
X144268051Y-134379012D01*
X144244729Y-134430879D01*
X144203824Y-134474978D01*
X144147459Y-134510299D01*
X144077760Y-134535829D01*
X143996852Y-134550559D01*
X143906860Y-134553478D01*
X143809910Y-134543575D01*
X143804436Y-134542641D01*
X143765875Y-134535459D01*
X143744494Y-134528521D01*
X143735227Y-134518227D01*
X143733006Y-134500976D01*
X143732956Y-134491841D01*
X143732956Y-134453489D01*
X143801431Y-134453489D01*
X143861900Y-134449347D01*
X143903165Y-134436147D01*
X143927175Y-134412730D01*
X143935877Y-134377936D01*
X143935983Y-134373394D01*
X143930892Y-134343654D01*
X143913433Y-134322419D01*
X143880939Y-134308366D01*
X143830743Y-134300173D01*
X143782123Y-134297161D01*
X143711456Y-134295433D01*
X143660198Y-134298070D01*
X143625239Y-134307800D01*
X143603470Y-134327353D01*
X143591780Y-134359456D01*
X143587060Y-134406838D01*
X143586200Y-134469071D01*
X143587609Y-134538535D01*
X143591848Y-134585786D01*
X143598936Y-134611012D01*
X143600311Y-134612988D01*
X143639228Y-134644508D01*
X143696286Y-134669470D01*
X143767869Y-134687340D01*
X143850358Y-134697586D01*
X143940139Y-134699673D01*
X144033592Y-134693068D01*
X144088556Y-134684956D01*
X144174766Y-134660554D01*
X144254892Y-134620662D01*
X144321977Y-134568887D01*
X144332173Y-134558539D01*
X144365302Y-134515035D01*
X144395194Y-134461118D01*
X144418357Y-134404592D01*
X144431298Y-134353259D01*
X144432858Y-134333544D01*
X144426218Y-134292419D01*
X144408568Y-134241252D01*
X144383297Y-134187394D01*
X144353789Y-134138195D01*
X144327719Y-134105334D01*
X144266765Y-134056452D01*
X144187969Y-134017545D01*
X144094157Y-133989494D01*
X143988150Y-133973179D01*
X143891000Y-133969192D01*
X143809081Y-133973599D01*
G37*
X143809081Y-133973599D02*
X143740565Y-133985095D01*
X143687943Y-134002967D01*
X143653708Y-134026499D01*
X143644379Y-134039924D01*
X143634893Y-134071148D01*
X143641277Y-134099395D01*
X143661430Y-134126182D01*
X143692745Y-134138713D01*
X143738183Y-134137696D01*
X143773326Y-134130906D01*
X143851419Y-134117971D01*
X143931226Y-134116742D01*
X144020555Y-134127241D01*
X144045229Y-134131690D01*
X144128291Y-134155108D01*
X144193273Y-134189945D01*
X144239461Y-134235604D01*
X144266145Y-134291494D01*
X144271663Y-134320388D01*
X144268051Y-134379012D01*
X144244729Y-134430879D01*
X144203824Y-134474978D01*
X144147459Y-134510299D01*
X144077760Y-134535829D01*
X143996852Y-134550559D01*
X143906860Y-134553478D01*
X143809910Y-134543575D01*
X143804436Y-134542641D01*
X143765875Y-134535459D01*
X143744494Y-134528521D01*
X143735227Y-134518227D01*
X143733006Y-134500976D01*
X143732956Y-134491841D01*
X143732956Y-134453489D01*
X143801431Y-134453489D01*
X143861900Y-134449347D01*
X143903165Y-134436147D01*
X143927175Y-134412730D01*
X143935877Y-134377936D01*
X143935983Y-134373394D01*
X143930892Y-134343654D01*
X143913433Y-134322419D01*
X143880939Y-134308366D01*
X143830743Y-134300173D01*
X143782123Y-134297161D01*
X143711456Y-134295433D01*
X143660198Y-134298070D01*
X143625239Y-134307800D01*
X143603470Y-134327353D01*
X143591780Y-134359456D01*
X143587060Y-134406838D01*
X143586200Y-134469071D01*
X143587609Y-134538535D01*
X143591848Y-134585786D01*
X143598936Y-134611012D01*
X143600311Y-134612988D01*
X143639228Y-134644508D01*
X143696286Y-134669470D01*
X143767869Y-134687340D01*
X143850358Y-134697586D01*
X143940139Y-134699673D01*
X144033592Y-134693068D01*
X144088556Y-134684956D01*
X144174766Y-134660554D01*
X144254892Y-134620662D01*
X144321977Y-134568887D01*
X144332173Y-134558539D01*
X144365302Y-134515035D01*
X144395194Y-134461118D01*
X144418357Y-134404592D01*
X144431298Y-134353259D01*
X144432858Y-134333544D01*
X144426218Y-134292419D01*
X144408568Y-134241252D01*
X144383297Y-134187394D01*
X144353789Y-134138195D01*
X144327719Y-134105334D01*
X144266765Y-134056452D01*
X144187969Y-134017545D01*
X144094157Y-133989494D01*
X143988150Y-133973179D01*
X143891000Y-133969192D01*
X143809081Y-133973599D01*
G36*
X143159114Y-133972448D02*
G01*
X143135548Y-133986273D01*
X143104735Y-134008881D01*
X143065078Y-134041338D01*
X143014980Y-134084708D01*
X142952843Y-134140058D01*
X142877072Y-134208451D01*
X142790334Y-134287084D01*
X142609711Y-134450878D01*
X142604067Y-134231029D01*
X142602029Y-134155351D01*
X142600063Y-134098994D01*
X142597734Y-134058706D01*
X142594606Y-134031235D01*
X142590245Y-134013329D01*
X142584216Y-134001737D01*
X142576084Y-133993208D01*
X142571772Y-133989623D01*
X142537241Y-133970670D01*
X142504383Y-133973441D01*
X142478318Y-133989633D01*
X142451667Y-134011199D01*
X142448352Y-134326151D01*
X142447435Y-134418779D01*
X142446968Y-134491544D01*
X142447113Y-134547161D01*
X142448032Y-134588342D01*
X142449887Y-134617803D01*
X142452839Y-134638255D01*
X142457050Y-134652413D01*
X142462682Y-134662991D01*
X142468927Y-134671474D01*
X142482439Y-134687207D01*
X142495883Y-134697636D01*
X142511124Y-134701639D01*
X142530026Y-134698094D01*
X142554455Y-134685879D01*
X142586273Y-134663871D01*
X142627348Y-134630949D01*
X142679542Y-134585991D01*
X142744722Y-134527875D01*
X142818556Y-134461099D01*
X143083845Y-134220458D01*
X143089489Y-134439589D01*
X143091531Y-134515128D01*
X143093502Y-134571354D01*
X143095839Y-134611524D01*
X143098981Y-134638896D01*
X143103364Y-134656728D01*
X143109424Y-134668279D01*
X143117600Y-134676807D01*
X143121784Y-134680282D01*
X143158765Y-134699372D01*
X143193708Y-134696493D01*
X143224136Y-134672100D01*
X143231097Y-134662286D01*
X143236523Y-134650826D01*
X143240603Y-134634968D01*
X143243529Y-134611963D01*
X143245492Y-134579062D01*
X143246683Y-134533516D01*
X143247292Y-134472573D01*
X143247511Y-134393486D01*
X143247534Y-134334956D01*
X143247460Y-134243407D01*
X143247113Y-134171687D01*
X143246301Y-134117045D01*
X143244833Y-134076732D01*
X143242519Y-134047998D01*
X143239167Y-134028093D01*
X143234588Y-134014268D01*
X143228589Y-134003772D01*
X143224136Y-133997811D01*
X143212850Y-133983691D01*
X143202301Y-133973029D01*
X143190893Y-133966892D01*
X143177030Y-133966343D01*
X143159114Y-133972448D01*
G37*
X143159114Y-133972448D02*
X143135548Y-133986273D01*
X143104735Y-134008881D01*
X143065078Y-134041338D01*
X143014980Y-134084708D01*
X142952843Y-134140058D01*
X142877072Y-134208451D01*
X142790334Y-134287084D01*
X142609711Y-134450878D01*
X142604067Y-134231029D01*
X142602029Y-134155351D01*
X142600063Y-134098994D01*
X142597734Y-134058706D01*
X142594606Y-134031235D01*
X142590245Y-134013329D01*
X142584216Y-134001737D01*
X142576084Y-133993208D01*
X142571772Y-133989623D01*
X142537241Y-133970670D01*
X142504383Y-133973441D01*
X142478318Y-133989633D01*
X142451667Y-134011199D01*
X142448352Y-134326151D01*
X142447435Y-134418779D01*
X142446968Y-134491544D01*
X142447113Y-134547161D01*
X142448032Y-134588342D01*
X142449887Y-134617803D01*
X142452839Y-134638255D01*
X142457050Y-134652413D01*
X142462682Y-134662991D01*
X142468927Y-134671474D01*
X142482439Y-134687207D01*
X142495883Y-134697636D01*
X142511124Y-134701639D01*
X142530026Y-134698094D01*
X142554455Y-134685879D01*
X142586273Y-134663871D01*
X142627348Y-134630949D01*
X142679542Y-134585991D01*
X142744722Y-134527875D01*
X142818556Y-134461099D01*
X143083845Y-134220458D01*
X143089489Y-134439589D01*
X143091531Y-134515128D01*
X143093502Y-134571354D01*
X143095839Y-134611524D01*
X143098981Y-134638896D01*
X143103364Y-134656728D01*
X143109424Y-134668279D01*
X143117600Y-134676807D01*
X143121784Y-134680282D01*
X143158765Y-134699372D01*
X143193708Y-134696493D01*
X143224136Y-134672100D01*
X143231097Y-134662286D01*
X143236523Y-134650826D01*
X143240603Y-134634968D01*
X143243529Y-134611963D01*
X143245492Y-134579062D01*
X143246683Y-134533516D01*
X143247292Y-134472573D01*
X143247511Y-134393486D01*
X143247534Y-134334956D01*
X143247460Y-134243407D01*
X143247113Y-134171687D01*
X143246301Y-134117045D01*
X143244833Y-134076732D01*
X143242519Y-134047998D01*
X143239167Y-134028093D01*
X143234588Y-134014268D01*
X143228589Y-134003772D01*
X143224136Y-133997811D01*
X143212850Y-133983691D01*
X143202301Y-133973029D01*
X143190893Y-133966892D01*
X143177030Y-133966343D01*
X143159114Y-133972448D01*
G36*
X141628657Y-133968260D02*
G01*
X141552299Y-133969174D01*
X141493783Y-133971311D01*
X141450745Y-133975175D01*
X141420817Y-133981267D01*
X141401632Y-133990090D01*
X141390824Y-134002146D01*
X141386027Y-134017939D01*
X141384873Y-134037970D01*
X141384867Y-134040335D01*
X141385869Y-134062992D01*
X141390604Y-134080503D01*
X141401667Y-134093574D01*
X141421652Y-134102913D01*
X141453154Y-134109227D01*
X141498768Y-134113222D01*
X141561087Y-134115606D01*
X141642707Y-134117086D01*
X141667723Y-134117414D01*
X141909800Y-134120467D01*
X141913186Y-134185378D01*
X141916571Y-134250289D01*
X141748424Y-134250289D01*
X141682734Y-134250531D01*
X141635828Y-134251556D01*
X141603917Y-134253811D01*
X141583209Y-134257742D01*
X141569916Y-134263798D01*
X141560245Y-134272424D01*
X141560183Y-134272493D01*
X141542644Y-134306112D01*
X141543278Y-134342448D01*
X141561686Y-134373423D01*
X141565329Y-134376607D01*
X141578259Y-134384812D01*
X141595976Y-134390521D01*
X141622430Y-134394162D01*
X141661568Y-134396167D01*
X141717338Y-134396964D01*
X141753006Y-134397045D01*
X141915445Y-134397045D01*
X141915445Y-134555089D01*
X141668839Y-134555089D01*
X141587420Y-134555231D01*
X141525590Y-134555814D01*
X141480363Y-134557068D01*
X141448752Y-134559227D01*
X141427769Y-134562523D01*
X141414427Y-134567189D01*
X141405739Y-134573457D01*
X141403550Y-134575733D01*
X141387386Y-134607280D01*
X141386203Y-134643168D01*
X141399464Y-134674285D01*
X141409957Y-134684271D01*
X141420871Y-134689769D01*
X141437783Y-134694022D01*
X141463367Y-134697180D01*
X141500299Y-134699392D01*
X141551254Y-134700806D01*
X141618906Y-134701572D01*
X141705931Y-134701838D01*
X141725606Y-134701845D01*
X141814089Y-134701787D01*
X141882773Y-134701467D01*
X141934436Y-134700667D01*
X141971855Y-134699167D01*
X141997810Y-134696749D01*
X142015078Y-134693194D01*
X142026438Y-134688282D01*
X142034668Y-134681795D01*
X142039183Y-134677138D01*
X142045979Y-134668889D01*
X142051288Y-134658669D01*
X142055294Y-134643800D01*
X142058179Y-134621602D01*
X142060126Y-134589393D01*
X142061319Y-134544496D01*
X142061939Y-134484228D01*
X142062171Y-134405911D01*
X142062200Y-134339994D01*
X142062129Y-134247628D01*
X142061792Y-134175117D01*
X142061002Y-134119737D01*
X142059574Y-134078765D01*
X142057321Y-134049478D01*
X142054057Y-134029153D01*
X142049596Y-134015066D01*
X142043752Y-134004495D01*
X142038803Y-133997811D01*
X142015406Y-133968067D01*
X141725226Y-133968067D01*
X141628657Y-133968260D01*
G37*
X141628657Y-133968260D02*
X141552299Y-133969174D01*
X141493783Y-133971311D01*
X141450745Y-133975175D01*
X141420817Y-133981267D01*
X141401632Y-133990090D01*
X141390824Y-134002146D01*
X141386027Y-134017939D01*
X141384873Y-134037970D01*
X141384867Y-134040335D01*
X141385869Y-134062992D01*
X141390604Y-134080503D01*
X141401667Y-134093574D01*
X141421652Y-134102913D01*
X141453154Y-134109227D01*
X141498768Y-134113222D01*
X141561087Y-134115606D01*
X141642707Y-134117086D01*
X141667723Y-134117414D01*
X141909800Y-134120467D01*
X141913186Y-134185378D01*
X141916571Y-134250289D01*
X141748424Y-134250289D01*
X141682734Y-134250531D01*
X141635828Y-134251556D01*
X141603917Y-134253811D01*
X141583209Y-134257742D01*
X141569916Y-134263798D01*
X141560245Y-134272424D01*
X141560183Y-134272493D01*
X141542644Y-134306112D01*
X141543278Y-134342448D01*
X141561686Y-134373423D01*
X141565329Y-134376607D01*
X141578259Y-134384812D01*
X141595976Y-134390521D01*
X141622430Y-134394162D01*
X141661568Y-134396167D01*
X141717338Y-134396964D01*
X141753006Y-134397045D01*
X141915445Y-134397045D01*
X141915445Y-134555089D01*
X141668839Y-134555089D01*
X141587420Y-134555231D01*
X141525590Y-134555814D01*
X141480363Y-134557068D01*
X141448752Y-134559227D01*
X141427769Y-134562523D01*
X141414427Y-134567189D01*
X141405739Y-134573457D01*
X141403550Y-134575733D01*
X141387386Y-134607280D01*
X141386203Y-134643168D01*
X141399464Y-134674285D01*
X141409957Y-134684271D01*
X141420871Y-134689769D01*
X141437783Y-134694022D01*
X141463367Y-134697180D01*
X141500299Y-134699392D01*
X141551254Y-134700806D01*
X141618906Y-134701572D01*
X141705931Y-134701838D01*
X141725606Y-134701845D01*
X141814089Y-134701787D01*
X141882773Y-134701467D01*
X141934436Y-134700667D01*
X141971855Y-134699167D01*
X141997810Y-134696749D01*
X142015078Y-134693194D01*
X142026438Y-134688282D01*
X142034668Y-134681795D01*
X142039183Y-134677138D01*
X142045979Y-134668889D01*
X142051288Y-134658669D01*
X142055294Y-134643800D01*
X142058179Y-134621602D01*
X142060126Y-134589393D01*
X142061319Y-134544496D01*
X142061939Y-134484228D01*
X142062171Y-134405911D01*
X142062200Y-134339994D01*
X142062129Y-134247628D01*
X142061792Y-134175117D01*
X142061002Y-134119737D01*
X142059574Y-134078765D01*
X142057321Y-134049478D01*
X142054057Y-134029153D01*
X142049596Y-134015066D01*
X142043752Y-134004495D01*
X142038803Y-133997811D01*
X142015406Y-133968067D01*
X141725226Y-133968067D01*
X141628657Y-133968260D01*
G36*
X140840691Y-133968275D02*
G01*
X140711712Y-133972636D01*
X140602009Y-133985861D01*
X140509774Y-134008741D01*
X140433198Y-134042070D01*
X140370473Y-134086638D01*
X140319788Y-134143236D01*
X140279337Y-134212658D01*
X140278541Y-134214351D01*
X140254399Y-134276483D01*
X140245797Y-134331509D01*
X140252769Y-134386887D01*
X140275346Y-134450073D01*
X140279628Y-134459689D01*
X140308828Y-134515966D01*
X140341644Y-134559451D01*
X140383998Y-134596417D01*
X140441810Y-134633135D01*
X140445169Y-134635052D01*
X140495496Y-134659227D01*
X140552379Y-134677282D01*
X140619473Y-134689839D01*
X140700435Y-134697522D01*
X140798918Y-134700953D01*
X140833714Y-134701251D01*
X140999406Y-134701845D01*
X141022803Y-134672100D01*
X141029743Y-134662319D01*
X141035158Y-134650897D01*
X141039235Y-134635095D01*
X141042163Y-134612175D01*
X141044133Y-134579396D01*
X141044775Y-134555089D01*
X140888156Y-134555089D01*
X140794274Y-134555089D01*
X140739336Y-134553483D01*
X140682940Y-134549255D01*
X140636655Y-134543292D01*
X140633861Y-134542790D01*
X140551652Y-134520736D01*
X140487886Y-134487600D01*
X140440548Y-134441847D01*
X140407618Y-134381939D01*
X140401892Y-134366061D01*
X140396279Y-134341333D01*
X140398709Y-134316902D01*
X140410533Y-134284400D01*
X140417660Y-134268434D01*
X140441000Y-134226006D01*
X140469120Y-134196240D01*
X140500060Y-134175511D01*
X140562034Y-134148537D01*
X140641349Y-134128998D01*
X140733747Y-134117746D01*
X140800667Y-134115270D01*
X140888156Y-134114822D01*
X140888156Y-134555089D01*
X141044775Y-134555089D01*
X141045332Y-134534021D01*
X141045950Y-134473311D01*
X141046175Y-134394526D01*
X141046200Y-134332920D01*
X141046200Y-134023485D01*
X141018491Y-133995776D01*
X141006194Y-133984544D01*
X140992897Y-133976853D01*
X140974328Y-133972040D01*
X140946214Y-133969446D01*
X140904283Y-133968410D01*
X140844263Y-133968270D01*
X140840691Y-133968275D01*
G37*
X140840691Y-133968275D02*
X140711712Y-133972636D01*
X140602009Y-133985861D01*
X140509774Y-134008741D01*
X140433198Y-134042070D01*
X140370473Y-134086638D01*
X140319788Y-134143236D01*
X140279337Y-134212658D01*
X140278541Y-134214351D01*
X140254399Y-134276483D01*
X140245797Y-134331509D01*
X140252769Y-134386887D01*
X140275346Y-134450073D01*
X140279628Y-134459689D01*
X140308828Y-134515966D01*
X140341644Y-134559451D01*
X140383998Y-134596417D01*
X140441810Y-134633135D01*
X140445169Y-134635052D01*
X140495496Y-134659227D01*
X140552379Y-134677282D01*
X140619473Y-134689839D01*
X140700435Y-134697522D01*
X140798918Y-134700953D01*
X140833714Y-134701251D01*
X140999406Y-134701845D01*
X141022803Y-134672100D01*
X141029743Y-134662319D01*
X141035158Y-134650897D01*
X141039235Y-134635095D01*
X141042163Y-134612175D01*
X141044133Y-134579396D01*
X141044775Y-134555089D01*
X140888156Y-134555089D01*
X140794274Y-134555089D01*
X140739336Y-134553483D01*
X140682940Y-134549255D01*
X140636655Y-134543292D01*
X140633861Y-134542790D01*
X140551652Y-134520736D01*
X140487886Y-134487600D01*
X140440548Y-134441847D01*
X140407618Y-134381939D01*
X140401892Y-134366061D01*
X140396279Y-134341333D01*
X140398709Y-134316902D01*
X140410533Y-134284400D01*
X140417660Y-134268434D01*
X140441000Y-134226006D01*
X140469120Y-134196240D01*
X140500060Y-134175511D01*
X140562034Y-134148537D01*
X140641349Y-134128998D01*
X140733747Y-134117746D01*
X140800667Y-134115270D01*
X140888156Y-134114822D01*
X140888156Y-134555089D01*
X141044775Y-134555089D01*
X141045332Y-134534021D01*
X141045950Y-134473311D01*
X141046175Y-134394526D01*
X141046200Y-134332920D01*
X141046200Y-134023485D01*
X141018491Y-133995776D01*
X141006194Y-133984544D01*
X140992897Y-133976853D01*
X140974328Y-133972040D01*
X140946214Y-133969446D01*
X140904283Y-133968410D01*
X140844263Y-133968270D01*
X140840691Y-133968275D01*
G36*
X138114335Y-133970034D02*
G01*
X138094745Y-133977035D01*
X138093990Y-133977377D01*
X138067387Y-133997678D01*
X138052730Y-134018561D01*
X138049862Y-134028352D01*
X138050004Y-134041361D01*
X138054039Y-134059895D01*
X138062854Y-134086257D01*
X138077331Y-134122752D01*
X138098355Y-134171687D01*
X138126812Y-134235365D01*
X138163585Y-134316093D01*
X138183825Y-134360216D01*
X138220375Y-134438985D01*
X138254685Y-134511423D01*
X138285448Y-134574880D01*
X138311352Y-134626708D01*
X138331090Y-134664259D01*
X138343350Y-134684884D01*
X138345776Y-134687733D01*
X138376817Y-134700302D01*
X138411879Y-134698619D01*
X138440000Y-134683332D01*
X138441146Y-134682089D01*
X138452332Y-134665154D01*
X138471096Y-134632170D01*
X138495125Y-134587380D01*
X138522103Y-134535032D01*
X138531799Y-134515742D01*
X138604986Y-134369150D01*
X138684760Y-134528393D01*
X138713233Y-134583415D01*
X138739650Y-134631132D01*
X138761852Y-134667893D01*
X138777681Y-134690044D01*
X138783046Y-134694741D01*
X138824743Y-134701102D01*
X138859151Y-134687733D01*
X138869272Y-134673446D01*
X138886786Y-134641692D01*
X138910265Y-134595597D01*
X138938280Y-134538285D01*
X138969401Y-134472880D01*
X139002201Y-134402507D01*
X139035250Y-134330291D01*
X139067119Y-134259355D01*
X139096381Y-134192825D01*
X139121605Y-134133826D01*
X139141364Y-134085481D01*
X139154228Y-134050915D01*
X139158769Y-134033253D01*
X139158723Y-134032613D01*
X139147674Y-134010388D01*
X139125590Y-133987753D01*
X139124290Y-133986768D01*
X139097147Y-133971425D01*
X139072042Y-133971574D01*
X139062632Y-133974466D01*
X139051166Y-133980718D01*
X139038990Y-133993014D01*
X139024643Y-134013908D01*
X139006664Y-134045949D01*
X138983593Y-134091688D01*
X138953970Y-134153677D01*
X138927255Y-134210898D01*
X138896520Y-134277226D01*
X138868979Y-134336874D01*
X138846062Y-134386725D01*
X138829202Y-134423664D01*
X138819827Y-134444573D01*
X138818460Y-134447845D01*
X138812311Y-134442497D01*
X138798178Y-134420109D01*
X138777943Y-134383946D01*
X138753485Y-134337277D01*
X138743752Y-134318022D01*
X138710783Y-134253004D01*
X138685357Y-134205654D01*
X138665388Y-134173219D01*
X138648790Y-134152946D01*
X138633476Y-134142082D01*
X138617360Y-134137875D01*
X138606857Y-134137400D01*
X138588330Y-134139042D01*
X138572096Y-134145831D01*
X138555965Y-134160566D01*
X138537749Y-134186044D01*
X138515261Y-134225061D01*
X138486311Y-134280414D01*
X138470338Y-134311903D01*
X138444430Y-134362087D01*
X138421833Y-134403704D01*
X138404542Y-134433242D01*
X138394550Y-134447189D01*
X138393191Y-134447770D01*
X138386739Y-134436793D01*
X138372292Y-134408290D01*
X138351297Y-134365244D01*
X138325203Y-134310638D01*
X138295454Y-134247454D01*
X138280820Y-134216071D01*
X138242750Y-134135078D01*
X138212095Y-134072756D01*
X138187263Y-134027071D01*
X138166663Y-133995989D01*
X138148702Y-133977478D01*
X138131790Y-133969504D01*
X138114335Y-133970034D01*
G37*
X138114335Y-133970034D02*
X138094745Y-133977035D01*
X138093990Y-133977377D01*
X138067387Y-133997678D01*
X138052730Y-134018561D01*
X138049862Y-134028352D01*
X138050004Y-134041361D01*
X138054039Y-134059895D01*
X138062854Y-134086257D01*
X138077331Y-134122752D01*
X138098355Y-134171687D01*
X138126812Y-134235365D01*
X138163585Y-134316093D01*
X138183825Y-134360216D01*
X138220375Y-134438985D01*
X138254685Y-134511423D01*
X138285448Y-134574880D01*
X138311352Y-134626708D01*
X138331090Y-134664259D01*
X138343350Y-134684884D01*
X138345776Y-134687733D01*
X138376817Y-134700302D01*
X138411879Y-134698619D01*
X138440000Y-134683332D01*
X138441146Y-134682089D01*
X138452332Y-134665154D01*
X138471096Y-134632170D01*
X138495125Y-134587380D01*
X138522103Y-134535032D01*
X138531799Y-134515742D01*
X138604986Y-134369150D01*
X138684760Y-134528393D01*
X138713233Y-134583415D01*
X138739650Y-134631132D01*
X138761852Y-134667893D01*
X138777681Y-134690044D01*
X138783046Y-134694741D01*
X138824743Y-134701102D01*
X138859151Y-134687733D01*
X138869272Y-134673446D01*
X138886786Y-134641692D01*
X138910265Y-134595597D01*
X138938280Y-134538285D01*
X138969401Y-134472880D01*
X139002201Y-134402507D01*
X139035250Y-134330291D01*
X139067119Y-134259355D01*
X139096381Y-134192825D01*
X139121605Y-134133826D01*
X139141364Y-134085481D01*
X139154228Y-134050915D01*
X139158769Y-134033253D01*
X139158723Y-134032613D01*
X139147674Y-134010388D01*
X139125590Y-133987753D01*
X139124290Y-133986768D01*
X139097147Y-133971425D01*
X139072042Y-133971574D01*
X139062632Y-133974466D01*
X139051166Y-133980718D01*
X139038990Y-133993014D01*
X139024643Y-134013908D01*
X139006664Y-134045949D01*
X138983593Y-134091688D01*
X138953970Y-134153677D01*
X138927255Y-134210898D01*
X138896520Y-134277226D01*
X138868979Y-134336874D01*
X138846062Y-134386725D01*
X138829202Y-134423664D01*
X138819827Y-134444573D01*
X138818460Y-134447845D01*
X138812311Y-134442497D01*
X138798178Y-134420109D01*
X138777943Y-134383946D01*
X138753485Y-134337277D01*
X138743752Y-134318022D01*
X138710783Y-134253004D01*
X138685357Y-134205654D01*
X138665388Y-134173219D01*
X138648790Y-134152946D01*
X138633476Y-134142082D01*
X138617360Y-134137875D01*
X138606857Y-134137400D01*
X138588330Y-134139042D01*
X138572096Y-134145831D01*
X138555965Y-134160566D01*
X138537749Y-134186044D01*
X138515261Y-134225061D01*
X138486311Y-134280414D01*
X138470338Y-134311903D01*
X138444430Y-134362087D01*
X138421833Y-134403704D01*
X138404542Y-134433242D01*
X138394550Y-134447189D01*
X138393191Y-134447770D01*
X138386739Y-134436793D01*
X138372292Y-134408290D01*
X138351297Y-134365244D01*
X138325203Y-134310638D01*
X138295454Y-134247454D01*
X138280820Y-134216071D01*
X138242750Y-134135078D01*
X138212095Y-134072756D01*
X138187263Y-134027071D01*
X138166663Y-133995989D01*
X138148702Y-133977478D01*
X138131790Y-133969504D01*
X138114335Y-133970034D01*
G36*
X137670386Y-133974877D02*
G01*
X137646673Y-133989647D01*
X137620022Y-134011227D01*
X137620022Y-134332773D01*
X137620107Y-134426830D01*
X137620471Y-134500932D01*
X137621276Y-134557704D01*
X137622687Y-134599768D01*
X137624867Y-134629748D01*
X137627979Y-134650267D01*
X137632186Y-134663949D01*
X137637652Y-134673416D01*
X137641528Y-134678082D01*
X137672966Y-134698575D01*
X137708767Y-134697739D01*
X137740127Y-134680264D01*
X137766778Y-134658684D01*
X137766778Y-134011227D01*
X137740127Y-133989647D01*
X137714406Y-133973949D01*
X137693400Y-133968067D01*
X137670386Y-133974877D01*
G37*
X137670386Y-133974877D02*
X137646673Y-133989647D01*
X137620022Y-134011227D01*
X137620022Y-134332773D01*
X137620107Y-134426830D01*
X137620471Y-134500932D01*
X137621276Y-134557704D01*
X137622687Y-134599768D01*
X137624867Y-134629748D01*
X137627979Y-134650267D01*
X137632186Y-134663949D01*
X137637652Y-134673416D01*
X137641528Y-134678082D01*
X137672966Y-134698575D01*
X137708767Y-134697739D01*
X137740127Y-134680264D01*
X137766778Y-134658684D01*
X137766778Y-134011227D01*
X137740127Y-133989647D01*
X137714406Y-133973949D01*
X137693400Y-133968067D01*
X137670386Y-133974877D01*
G36*
X136895935Y-133968163D02*
G01*
X136817228Y-133968542D01*
X136756137Y-133969333D01*
X136710183Y-133970670D01*
X136676886Y-133972683D01*
X136653764Y-133975506D01*
X136638338Y-133979269D01*
X136628129Y-133984105D01*
X136623187Y-133987822D01*
X136597543Y-134020358D01*
X136594441Y-134054138D01*
X136610289Y-134084826D01*
X136620652Y-134097089D01*
X136631804Y-134105450D01*
X136647965Y-134110657D01*
X136673358Y-134113457D01*
X136712202Y-134114596D01*
X136768720Y-134114821D01*
X136779820Y-134114822D01*
X136925756Y-134114822D01*
X136925756Y-134385756D01*
X136925852Y-134471154D01*
X136926289Y-134536864D01*
X136927288Y-134585774D01*
X136929072Y-134620773D01*
X136931863Y-134644749D01*
X136935883Y-134660593D01*
X136941355Y-134671191D01*
X136948334Y-134679267D01*
X136981266Y-134699112D01*
X137015646Y-134697548D01*
X137046824Y-134674906D01*
X137049114Y-134672100D01*
X137056571Y-134661492D01*
X137062253Y-134649081D01*
X137066399Y-134631850D01*
X137069250Y-134606784D01*
X137071046Y-134570867D01*
X137072028Y-134521083D01*
X137072436Y-134454417D01*
X137072511Y-134378589D01*
X137072511Y-134114822D01*
X137211873Y-134114822D01*
X137271678Y-134114418D01*
X137313082Y-134112840D01*
X137340252Y-134109547D01*
X137357354Y-134103992D01*
X137368557Y-134095631D01*
X137369917Y-134094178D01*
X137386275Y-134060939D01*
X137384828Y-134023362D01*
X137366022Y-133990645D01*
X137358750Y-133984298D01*
X137349373Y-133979266D01*
X137335391Y-133975396D01*
X137314304Y-133972537D01*
X137283611Y-133970535D01*
X137240811Y-133969239D01*
X137183405Y-133968498D01*
X137108890Y-133968158D01*
X137014767Y-133968068D01*
X136994740Y-133968067D01*
X136895935Y-133968163D01*
G37*
X136895935Y-133968163D02*
X136817228Y-133968542D01*
X136756137Y-133969333D01*
X136710183Y-133970670D01*
X136676886Y-133972683D01*
X136653764Y-133975506D01*
X136638338Y-133979269D01*
X136628129Y-133984105D01*
X136623187Y-133987822D01*
X136597543Y-134020358D01*
X136594441Y-134054138D01*
X136610289Y-134084826D01*
X136620652Y-134097089D01*
X136631804Y-134105450D01*
X136647965Y-134110657D01*
X136673358Y-134113457D01*
X136712202Y-134114596D01*
X136768720Y-134114821D01*
X136779820Y-134114822D01*
X136925756Y-134114822D01*
X136925756Y-134385756D01*
X136925852Y-134471154D01*
X136926289Y-134536864D01*
X136927288Y-134585774D01*
X136929072Y-134620773D01*
X136931863Y-134644749D01*
X136935883Y-134660593D01*
X136941355Y-134671191D01*
X136948334Y-134679267D01*
X136981266Y-134699112D01*
X137015646Y-134697548D01*
X137046824Y-134674906D01*
X137049114Y-134672100D01*
X137056571Y-134661492D01*
X137062253Y-134649081D01*
X137066399Y-134631850D01*
X137069250Y-134606784D01*
X137071046Y-134570867D01*
X137072028Y-134521083D01*
X137072436Y-134454417D01*
X137072511Y-134378589D01*
X137072511Y-134114822D01*
X137211873Y-134114822D01*
X137271678Y-134114418D01*
X137313082Y-134112840D01*
X137340252Y-134109547D01*
X137357354Y-134103992D01*
X137368557Y-134095631D01*
X137369917Y-134094178D01*
X137386275Y-134060939D01*
X137384828Y-134023362D01*
X137366022Y-133990645D01*
X137358750Y-133984298D01*
X137349373Y-133979266D01*
X137335391Y-133975396D01*
X137314304Y-133972537D01*
X137283611Y-133970535D01*
X137240811Y-133969239D01*
X137183405Y-133968498D01*
X137108890Y-133968158D01*
X137014767Y-133968068D01*
X136994740Y-133968067D01*
X136895935Y-133968163D01*
G36*
X135630177Y-133973533D02*
G01*
X135598798Y-133995776D01*
X135571089Y-134023485D01*
X135571089Y-134332920D01*
X135571162Y-134424799D01*
X135571505Y-134496840D01*
X135572308Y-134551780D01*
X135573759Y-134592360D01*
X135576048Y-134621317D01*
X135579364Y-134641391D01*
X135583895Y-134655321D01*
X135589831Y-134665845D01*
X135594486Y-134672100D01*
X135625217Y-134696673D01*
X135660504Y-134699341D01*
X135692755Y-134684271D01*
X135703412Y-134675374D01*
X135710536Y-134663557D01*
X135714833Y-134644526D01*
X135717009Y-134613992D01*
X135717772Y-134567662D01*
X135717845Y-134531871D01*
X135717845Y-134397045D01*
X136214556Y-134397045D01*
X136214556Y-134519700D01*
X136215069Y-134575787D01*
X136217124Y-134614333D01*
X136221492Y-134640361D01*
X136228944Y-134658897D01*
X136237953Y-134672100D01*
X136268856Y-134696604D01*
X136303804Y-134699506D01*
X136337262Y-134682089D01*
X136346396Y-134672959D01*
X136352848Y-134660855D01*
X136357103Y-134642001D01*
X136359648Y-134612620D01*
X136360971Y-134568937D01*
X136361557Y-134507175D01*
X136361625Y-134493000D01*
X136362109Y-134376631D01*
X136362359Y-134280727D01*
X136362277Y-134203177D01*
X136361769Y-134141869D01*
X136360738Y-134094690D01*
X136359087Y-134059530D01*
X136356721Y-134034276D01*
X136353543Y-134016817D01*
X136349456Y-134005041D01*
X136344366Y-133996835D01*
X136338734Y-133990645D01*
X136306872Y-133970844D01*
X136273643Y-133973533D01*
X136242265Y-133995776D01*
X136229567Y-134010126D01*
X136221474Y-134025978D01*
X136216958Y-134048554D01*
X136214994Y-134083078D01*
X136214556Y-134134776D01*
X136214556Y-134250289D01*
X135717845Y-134250289D01*
X135717845Y-134131756D01*
X135717338Y-134077148D01*
X135715302Y-134040275D01*
X135710965Y-134016307D01*
X135703553Y-134000415D01*
X135695267Y-133990645D01*
X135663406Y-133970844D01*
X135630177Y-133973533D01*
G37*
X135630177Y-133973533D02*
X135598798Y-133995776D01*
X135571089Y-134023485D01*
X135571089Y-134332920D01*
X135571162Y-134424799D01*
X135571505Y-134496840D01*
X135572308Y-134551780D01*
X135573759Y-134592360D01*
X135576048Y-134621317D01*
X135579364Y-134641391D01*
X135583895Y-134655321D01*
X135589831Y-134665845D01*
X135594486Y-134672100D01*
X135625217Y-134696673D01*
X135660504Y-134699341D01*
X135692755Y-134684271D01*
X135703412Y-134675374D01*
X135710536Y-134663557D01*
X135714833Y-134644526D01*
X135717009Y-134613992D01*
X135717772Y-134567662D01*
X135717845Y-134531871D01*
X135717845Y-134397045D01*
X136214556Y-134397045D01*
X136214556Y-134519700D01*
X136215069Y-134575787D01*
X136217124Y-134614333D01*
X136221492Y-134640361D01*
X136228944Y-134658897D01*
X136237953Y-134672100D01*
X136268856Y-134696604D01*
X136303804Y-134699506D01*
X136337262Y-134682089D01*
X136346396Y-134672959D01*
X136352848Y-134660855D01*
X136357103Y-134642001D01*
X136359648Y-134612620D01*
X136360971Y-134568937D01*
X136361557Y-134507175D01*
X136361625Y-134493000D01*
X136362109Y-134376631D01*
X136362359Y-134280727D01*
X136362277Y-134203177D01*
X136361769Y-134141869D01*
X136360738Y-134094690D01*
X136359087Y-134059530D01*
X136356721Y-134034276D01*
X136353543Y-134016817D01*
X136349456Y-134005041D01*
X136344366Y-133996835D01*
X136338734Y-133990645D01*
X136306872Y-133970844D01*
X136273643Y-133973533D01*
X136242265Y-133995776D01*
X136229567Y-134010126D01*
X136221474Y-134025978D01*
X136216958Y-134048554D01*
X136214994Y-134083078D01*
X136214556Y-134134776D01*
X136214556Y-134250289D01*
X135717845Y-134250289D01*
X135717845Y-134131756D01*
X135717338Y-134077148D01*
X135715302Y-134040275D01*
X135710965Y-134016307D01*
X135703553Y-134000415D01*
X135695267Y-133990645D01*
X135663406Y-133970844D01*
X135630177Y-133973533D01*
G36*
X144805400Y-129188054D02*
G01*
X144794535Y-129301993D01*
X144762918Y-129409616D01*
X144712015Y-129508615D01*
X144643293Y-129596684D01*
X144558219Y-129671516D01*
X144461232Y-129729384D01*
X144354964Y-129769005D01*
X144247950Y-129787573D01*
X144142300Y-129786434D01*
X144040125Y-129766930D01*
X143943534Y-129730406D01*
X143854638Y-129678205D01*
X143775546Y-129611673D01*
X143708369Y-129532152D01*
X143655217Y-129440987D01*
X143618199Y-129339523D01*
X143599427Y-129229102D01*
X143597489Y-129179206D01*
X143597489Y-129091267D01*
X143545560Y-129091267D01*
X143509253Y-129094111D01*
X143482355Y-129105911D01*
X143455249Y-129129649D01*
X143416867Y-129168031D01*
X143416867Y-131359602D01*
X143416876Y-131621739D01*
X143416908Y-131862241D01*
X143416972Y-132082048D01*
X143417076Y-132282101D01*
X143417227Y-132463344D01*
X143417434Y-132626716D01*
X143417706Y-132773160D01*
X143418050Y-132903617D01*
X143418474Y-133019029D01*
X143418987Y-133120338D01*
X143419597Y-133208484D01*
X143420312Y-133284410D01*
X143421140Y-133349057D01*
X143422089Y-133403367D01*
X143423167Y-133448280D01*
X143424383Y-133484740D01*
X143425745Y-133513687D01*
X143427261Y-133536063D01*
X143428938Y-133552809D01*
X143430786Y-133564868D01*
X143432813Y-133573180D01*
X143435025Y-133578687D01*
X143436108Y-133580537D01*
X143440271Y-133587549D01*
X143443805Y-133593996D01*
X143447635Y-133599900D01*
X143452682Y-133605286D01*
X143459871Y-133610178D01*
X143470123Y-133614598D01*
X143484364Y-133618572D01*
X143503514Y-133622121D01*
X143528499Y-133625270D01*
X143560240Y-133628042D01*
X143599662Y-133630461D01*
X143647686Y-133632551D01*
X143705237Y-133634335D01*
X143773237Y-133635837D01*
X143852610Y-133637080D01*
X143944279Y-133638089D01*
X144049166Y-133638885D01*
X144168196Y-133639494D01*
X144302290Y-133639939D01*
X144452373Y-133640243D01*
X144619367Y-133640430D01*
X144804196Y-133640524D01*
X145007783Y-133640548D01*
X145231050Y-133640525D01*
X145474922Y-133640480D01*
X145740321Y-133640437D01*
X145778704Y-133640432D01*
X146045682Y-133640389D01*
X146291002Y-133640318D01*
X146515583Y-133640213D01*
X146720345Y-133640066D01*
X146906206Y-133639869D01*
X147074088Y-133639616D01*
X147224908Y-133639300D01*
X147359587Y-133638913D01*
X147479044Y-133638447D01*
X147584199Y-133637897D01*
X147675971Y-133637253D01*
X147755279Y-133636511D01*
X147823043Y-133635661D01*
X147880182Y-133634697D01*
X147927617Y-133633611D01*
X147966266Y-133632397D01*
X147997049Y-133631047D01*
X148020885Y-133629555D01*
X148038694Y-133627911D01*
X148051395Y-133626111D01*
X148059908Y-133624145D01*
X148064266Y-133622477D01*
X148072728Y-133618906D01*
X148080497Y-133616270D01*
X148087602Y-133613634D01*
X148094073Y-133610062D01*
X148099939Y-133604621D01*
X148105229Y-133596375D01*
X148109974Y-133584390D01*
X148114202Y-133567731D01*
X148117943Y-133545463D01*
X148121227Y-133516652D01*
X148124083Y-133480363D01*
X148126540Y-133435661D01*
X148128629Y-133381611D01*
X148130378Y-133317279D01*
X148131817Y-133241730D01*
X148132976Y-133154030D01*
X148133883Y-133053243D01*
X148134569Y-132938434D01*
X148135063Y-132808670D01*
X148135395Y-132663015D01*
X148135593Y-132500535D01*
X148135687Y-132320295D01*
X148135708Y-132121360D01*
X148135685Y-131902796D01*
X148135646Y-131663668D01*
X148135622Y-131403040D01*
X148135622Y-131360889D01*
X148135636Y-131097992D01*
X148135661Y-130856732D01*
X148135671Y-130636165D01*
X148135642Y-130435352D01*
X148135548Y-130253349D01*
X148135362Y-130089216D01*
X148135059Y-129942011D01*
X148134614Y-129810792D01*
X148134034Y-129700867D01*
X147831197Y-129700867D01*
X147791407Y-129758711D01*
X147780236Y-129774479D01*
X147770166Y-129788441D01*
X147761138Y-129801784D01*
X147753097Y-129815693D01*
X147745986Y-129831356D01*
X147739747Y-129849958D01*
X147734325Y-129872686D01*
X147729662Y-129900727D01*
X147725701Y-129935267D01*
X147722385Y-129977492D01*
X147719659Y-130028589D01*
X147717464Y-130089744D01*
X147715745Y-130162144D01*
X147714444Y-130246975D01*
X147713505Y-130345422D01*
X147712870Y-130458674D01*
X147712484Y-130587916D01*
X147712288Y-130734334D01*
X147712227Y-130899116D01*
X147712243Y-131083447D01*
X147712280Y-131288513D01*
X147712289Y-131411133D01*
X147712265Y-131628082D01*
X147712231Y-131823642D01*
X147712243Y-131998999D01*
X147712358Y-132155341D01*
X147712630Y-132293857D01*
X147713118Y-132415734D01*
X147713876Y-132522160D01*
X147714962Y-132614322D01*
X147716431Y-132693409D01*
X147718340Y-132760608D01*
X147720744Y-132817107D01*
X147723701Y-132864093D01*
X147727266Y-132902755D01*
X147731495Y-132934280D01*
X147736446Y-132959855D01*
X147742173Y-132980670D01*
X147748733Y-132997911D01*
X147756183Y-133012765D01*
X147764579Y-133026422D01*
X147773976Y-133040069D01*
X147784432Y-133054893D01*
X147790523Y-133063783D01*
X147829296Y-133121400D01*
X147297732Y-133121400D01*
X147174483Y-133121365D01*
X147071987Y-133121215D01*
X146988420Y-133120878D01*
X146921956Y-133120286D01*
X146870771Y-133119367D01*
X146833041Y-133118051D01*
X146806940Y-133116269D01*
X146790644Y-133113951D01*
X146782328Y-133111026D01*
X146780168Y-133107424D01*
X146782339Y-133103075D01*
X146783535Y-133101645D01*
X146808685Y-133064573D01*
X146834583Y-133011772D01*
X146858192Y-132949770D01*
X146866461Y-132923357D01*
X146871078Y-132905416D01*
X146874979Y-132884355D01*
X146878248Y-132858089D01*
X146880966Y-132824532D01*
X146883215Y-132781599D01*
X146885077Y-132727204D01*
X146886636Y-132659262D01*
X146887972Y-132575688D01*
X146889169Y-132474395D01*
X146890308Y-132353300D01*
X146890685Y-132308600D01*
X146891702Y-132183449D01*
X146892460Y-132079082D01*
X146892903Y-131993707D01*
X146892970Y-131925533D01*
X146892605Y-131872765D01*
X146891748Y-131833614D01*
X146890341Y-131806285D01*
X146888325Y-131788986D01*
X146885643Y-131779926D01*
X146882236Y-131777312D01*
X146878044Y-131779351D01*
X146873571Y-131783667D01*
X146863216Y-131796602D01*
X146841158Y-131825676D01*
X146808957Y-131868759D01*
X146768174Y-131923718D01*
X146720370Y-131988423D01*
X146667105Y-132060742D01*
X146609940Y-132138544D01*
X146550437Y-132219698D01*
X146490155Y-132302072D01*
X146430655Y-132383536D01*
X146373498Y-132461957D01*
X146320245Y-132535204D01*
X146272457Y-132601147D01*
X146231693Y-132657654D01*
X146199516Y-132702593D01*
X146177485Y-132733834D01*
X146172917Y-132740466D01*
X146149996Y-132777369D01*
X146123188Y-132825359D01*
X146097789Y-132874897D01*
X146094568Y-132881577D01*
X146072890Y-132929772D01*
X146060304Y-132967334D01*
X146054574Y-133003160D01*
X146053456Y-133045200D01*
X146054090Y-133121400D01*
X144899651Y-133121400D01*
X144990815Y-133027669D01*
X145037612Y-132977775D01*
X145087899Y-132921295D01*
X145133944Y-132867026D01*
X145154369Y-132841673D01*
X145184807Y-132802128D01*
X145224862Y-132748916D01*
X145273361Y-132683667D01*
X145329135Y-132608011D01*
X145391011Y-132523577D01*
X145457819Y-132431994D01*
X145528387Y-132334892D01*
X145601545Y-132233901D01*
X145676121Y-132130650D01*
X145750944Y-132026768D01*
X145824843Y-131923885D01*
X145896646Y-131823631D01*
X145965184Y-131727636D01*
X146029284Y-131637527D01*
X146087775Y-131554936D01*
X146139486Y-131481492D01*
X146183247Y-131418824D01*
X146217885Y-131368561D01*
X146242230Y-131332334D01*
X146255111Y-131311771D01*
X146256869Y-131307668D01*
X146248910Y-131296342D01*
X146228115Y-131269162D01*
X146195847Y-131227829D01*
X146153470Y-131174044D01*
X146102347Y-131109506D01*
X146043841Y-131035918D01*
X145979314Y-130954978D01*
X145910131Y-130868388D01*
X145837653Y-130777848D01*
X145763246Y-130685060D01*
X145703517Y-130610702D01*
X144692511Y-130610702D01*
X144686602Y-130623659D01*
X144672272Y-130645908D01*
X144671225Y-130647391D01*
X144652438Y-130677544D01*
X144632791Y-130714375D01*
X144628892Y-130722511D01*
X144625356Y-130730940D01*
X144622230Y-130741059D01*
X144619486Y-130754260D01*
X144617092Y-130771938D01*
X144615019Y-130795484D01*
X144613235Y-130826293D01*
X144611712Y-130865757D01*
X144610419Y-130915269D01*
X144609326Y-130976223D01*
X144608403Y-131050011D01*
X144607619Y-131138028D01*
X144606945Y-131241665D01*
X144606350Y-131362316D01*
X144605805Y-131501374D01*
X144605279Y-131660232D01*
X144604745Y-131839089D01*
X144604206Y-132024207D01*
X144603772Y-132188145D01*
X144603509Y-132332303D01*
X144603484Y-132458079D01*
X144603765Y-132566871D01*
X144604419Y-132660077D01*
X144605514Y-132739097D01*
X144607118Y-132805328D01*
X144609297Y-132860170D01*
X144612119Y-132905021D01*
X144615651Y-132941278D01*
X144619961Y-132970341D01*
X144625117Y-132993609D01*
X144631185Y-133012479D01*
X144638233Y-133028351D01*
X144646329Y-133042622D01*
X144655540Y-133056691D01*
X144664040Y-133069158D01*
X144681176Y-133095452D01*
X144691322Y-133113037D01*
X144692511Y-133116257D01*
X144681604Y-133117334D01*
X144650411Y-133118335D01*
X144601223Y-133119235D01*
X144536333Y-133120010D01*
X144458030Y-133120637D01*
X144368607Y-133121091D01*
X144270356Y-133121349D01*
X144201445Y-133121400D01*
X144096452Y-133121180D01*
X143999610Y-133120548D01*
X143913107Y-133119549D01*
X143839132Y-133118227D01*
X143779874Y-133116626D01*
X143737520Y-133114791D01*
X143714260Y-133112765D01*
X143710378Y-133111493D01*
X143718076Y-133096591D01*
X143726074Y-133088560D01*
X143739246Y-133071434D01*
X143756485Y-133041183D01*
X143768407Y-133016622D01*
X143795045Y-132957711D01*
X143798120Y-131780845D01*
X143801195Y-130603978D01*
X144246853Y-130603978D01*
X144344670Y-130604142D01*
X144435064Y-130604611D01*
X144515630Y-130605347D01*
X144583962Y-130606316D01*
X144637656Y-130607480D01*
X144674305Y-130608803D01*
X144691504Y-130610249D01*
X144692511Y-130610702D01*
X145703517Y-130610702D01*
X145688270Y-130591722D01*
X145614090Y-130499537D01*
X145542069Y-130410204D01*
X145473569Y-130325424D01*
X145409955Y-130246898D01*
X145352588Y-130176326D01*
X145302833Y-130115409D01*
X145262052Y-130065847D01*
X145244888Y-130045178D01*
X145158596Y-129944516D01*
X145081997Y-129861259D01*
X145013183Y-129793438D01*
X144950248Y-129739089D01*
X144940867Y-129731722D01*
X144901356Y-129701117D01*
X146033116Y-129700867D01*
X146027827Y-129748844D01*
X146031130Y-129806188D01*
X146052661Y-129874463D01*
X146092635Y-129954212D01*
X146137943Y-130026495D01*
X146154161Y-130049140D01*
X146182214Y-130086696D01*
X146220430Y-130137021D01*
X146267137Y-130197973D01*
X146320661Y-130267411D01*
X146379331Y-130343194D01*
X146441475Y-130423180D01*
X146505421Y-130505228D01*
X146569495Y-130587196D01*
X146632027Y-130666943D01*
X146691343Y-130742327D01*
X146745771Y-130811207D01*
X146793639Y-130871442D01*
X146833275Y-130920889D01*
X146863006Y-130957408D01*
X146881161Y-130978858D01*
X146884220Y-130982156D01*
X146887079Y-130974149D01*
X146889293Y-130943855D01*
X146890857Y-130891556D01*
X146891767Y-130817531D01*
X146892020Y-130722063D01*
X146891613Y-130605434D01*
X146890704Y-130485445D01*
X146889382Y-130353333D01*
X146887857Y-130241594D01*
X146885881Y-130148025D01*
X146883206Y-130070419D01*
X146879582Y-130006574D01*
X146874761Y-129954283D01*
X146868494Y-129911344D01*
X146860532Y-129875551D01*
X146850627Y-129844700D01*
X146838531Y-129816586D01*
X146823993Y-129789005D01*
X146809311Y-129763966D01*
X146771314Y-129700867D01*
X147831197Y-129700867D01*
X148134034Y-129700867D01*
X148134001Y-129694617D01*
X148133195Y-129592544D01*
X148132170Y-129503633D01*
X148130900Y-129426941D01*
X148129360Y-129361527D01*
X148127524Y-129306449D01*
X148125367Y-129260765D01*
X148122863Y-129223534D01*
X148119987Y-129193813D01*
X148116713Y-129170662D01*
X148113015Y-129153139D01*
X148108869Y-129140301D01*
X148104247Y-129131208D01*
X148099126Y-129124918D01*
X148093478Y-129120488D01*
X148087279Y-129116978D01*
X148080504Y-129113445D01*
X148074508Y-129109876D01*
X148069275Y-129107300D01*
X148061099Y-129104972D01*
X148048886Y-129102878D01*
X148031541Y-129101007D01*
X148007969Y-129099347D01*
X147977077Y-129097884D01*
X147937768Y-129096608D01*
X147888950Y-129095504D01*
X147829527Y-129094561D01*
X147758404Y-129093767D01*
X147674488Y-129093109D01*
X147576683Y-129092575D01*
X147463894Y-129092153D01*
X147335029Y-129091829D01*
X147188991Y-129091592D01*
X147024686Y-129091430D01*
X146841020Y-129091330D01*
X146636897Y-129091280D01*
X146425753Y-129091267D01*
X144805400Y-129091267D01*
X144805400Y-129188054D01*
G37*
X144805400Y-129188054D02*
X144794535Y-129301993D01*
X144762918Y-129409616D01*
X144712015Y-129508615D01*
X144643293Y-129596684D01*
X144558219Y-129671516D01*
X144461232Y-129729384D01*
X144354964Y-129769005D01*
X144247950Y-129787573D01*
X144142300Y-129786434D01*
X144040125Y-129766930D01*
X143943534Y-129730406D01*
X143854638Y-129678205D01*
X143775546Y-129611673D01*
X143708369Y-129532152D01*
X143655217Y-129440987D01*
X143618199Y-129339523D01*
X143599427Y-129229102D01*
X143597489Y-129179206D01*
X143597489Y-129091267D01*
X143545560Y-129091267D01*
X143509253Y-129094111D01*
X143482355Y-129105911D01*
X143455249Y-129129649D01*
X143416867Y-129168031D01*
X143416867Y-131359602D01*
X143416876Y-131621739D01*
X143416908Y-131862241D01*
X143416972Y-132082048D01*
X143417076Y-132282101D01*
X143417227Y-132463344D01*
X143417434Y-132626716D01*
X143417706Y-132773160D01*
X143418050Y-132903617D01*
X143418474Y-133019029D01*
X143418987Y-133120338D01*
X143419597Y-133208484D01*
X143420312Y-133284410D01*
X143421140Y-133349057D01*
X143422089Y-133403367D01*
X143423167Y-133448280D01*
X143424383Y-133484740D01*
X143425745Y-133513687D01*
X143427261Y-133536063D01*
X143428938Y-133552809D01*
X143430786Y-133564868D01*
X143432813Y-133573180D01*
X143435025Y-133578687D01*
X143436108Y-133580537D01*
X143440271Y-133587549D01*
X143443805Y-133593996D01*
X143447635Y-133599900D01*
X143452682Y-133605286D01*
X143459871Y-133610178D01*
X143470123Y-133614598D01*
X143484364Y-133618572D01*
X143503514Y-133622121D01*
X143528499Y-133625270D01*
X143560240Y-133628042D01*
X143599662Y-133630461D01*
X143647686Y-133632551D01*
X143705237Y-133634335D01*
X143773237Y-133635837D01*
X143852610Y-133637080D01*
X143944279Y-133638089D01*
X144049166Y-133638885D01*
X144168196Y-133639494D01*
X144302290Y-133639939D01*
X144452373Y-133640243D01*
X144619367Y-133640430D01*
X144804196Y-133640524D01*
X145007783Y-133640548D01*
X145231050Y-133640525D01*
X145474922Y-133640480D01*
X145740321Y-133640437D01*
X145778704Y-133640432D01*
X146045682Y-133640389D01*
X146291002Y-133640318D01*
X146515583Y-133640213D01*
X146720345Y-133640066D01*
X146906206Y-133639869D01*
X147074088Y-133639616D01*
X147224908Y-133639300D01*
X147359587Y-133638913D01*
X147479044Y-133638447D01*
X147584199Y-133637897D01*
X147675971Y-133637253D01*
X147755279Y-133636511D01*
X147823043Y-133635661D01*
X147880182Y-133634697D01*
X147927617Y-133633611D01*
X147966266Y-133632397D01*
X147997049Y-133631047D01*
X148020885Y-133629555D01*
X148038694Y-133627911D01*
X148051395Y-133626111D01*
X148059908Y-133624145D01*
X148064266Y-133622477D01*
X148072728Y-133618906D01*
X148080497Y-133616270D01*
X148087602Y-133613634D01*
X148094073Y-133610062D01*
X148099939Y-133604621D01*
X148105229Y-133596375D01*
X148109974Y-133584390D01*
X148114202Y-133567731D01*
X148117943Y-133545463D01*
X148121227Y-133516652D01*
X148124083Y-133480363D01*
X148126540Y-133435661D01*
X148128629Y-133381611D01*
X148130378Y-133317279D01*
X148131817Y-133241730D01*
X148132976Y-133154030D01*
X148133883Y-133053243D01*
X148134569Y-132938434D01*
X148135063Y-132808670D01*
X148135395Y-132663015D01*
X148135593Y-132500535D01*
X148135687Y-132320295D01*
X148135708Y-132121360D01*
X148135685Y-131902796D01*
X148135646Y-131663668D01*
X148135622Y-131403040D01*
X148135622Y-131360889D01*
X148135636Y-131097992D01*
X148135661Y-130856732D01*
X148135671Y-130636165D01*
X148135642Y-130435352D01*
X148135548Y-130253349D01*
X148135362Y-130089216D01*
X148135059Y-129942011D01*
X148134614Y-129810792D01*
X148134034Y-129700867D01*
X147831197Y-129700867D01*
X147791407Y-129758711D01*
X147780236Y-129774479D01*
X147770166Y-129788441D01*
X147761138Y-129801784D01*
X147753097Y-129815693D01*
X147745986Y-129831356D01*
X147739747Y-129849958D01*
X147734325Y-129872686D01*
X147729662Y-129900727D01*
X147725701Y-129935267D01*
X147722385Y-129977492D01*
X147719659Y-130028589D01*
X147717464Y-130089744D01*
X147715745Y-130162144D01*
X147714444Y-130246975D01*
X147713505Y-130345422D01*
X147712870Y-130458674D01*
X147712484Y-130587916D01*
X147712288Y-130734334D01*
X147712227Y-130899116D01*
X147712243Y-131083447D01*
X147712280Y-131288513D01*
X147712289Y-131411133D01*
X147712265Y-131628082D01*
X147712231Y-131823642D01*
X147712243Y-131998999D01*
X147712358Y-132155341D01*
X147712630Y-132293857D01*
X147713118Y-132415734D01*
X147713876Y-132522160D01*
X147714962Y-132614322D01*
X147716431Y-132693409D01*
X147718340Y-132760608D01*
X147720744Y-132817107D01*
X147723701Y-132864093D01*
X147727266Y-132902755D01*
X147731495Y-132934280D01*
X147736446Y-132959855D01*
X147742173Y-132980670D01*
X147748733Y-132997911D01*
X147756183Y-133012765D01*
X147764579Y-133026422D01*
X147773976Y-133040069D01*
X147784432Y-133054893D01*
X147790523Y-133063783D01*
X147829296Y-133121400D01*
X147297732Y-133121400D01*
X147174483Y-133121365D01*
X147071987Y-133121215D01*
X146988420Y-133120878D01*
X146921956Y-133120286D01*
X146870771Y-133119367D01*
X146833041Y-133118051D01*
X146806940Y-133116269D01*
X146790644Y-133113951D01*
X146782328Y-133111026D01*
X146780168Y-133107424D01*
X146782339Y-133103075D01*
X146783535Y-133101645D01*
X146808685Y-133064573D01*
X146834583Y-133011772D01*
X146858192Y-132949770D01*
X146866461Y-132923357D01*
X146871078Y-132905416D01*
X146874979Y-132884355D01*
X146878248Y-132858089D01*
X146880966Y-132824532D01*
X146883215Y-132781599D01*
X146885077Y-132727204D01*
X146886636Y-132659262D01*
X146887972Y-132575688D01*
X146889169Y-132474395D01*
X146890308Y-132353300D01*
X146890685Y-132308600D01*
X146891702Y-132183449D01*
X146892460Y-132079082D01*
X146892903Y-131993707D01*
X146892970Y-131925533D01*
X146892605Y-131872765D01*
X146891748Y-131833614D01*
X146890341Y-131806285D01*
X146888325Y-131788986D01*
X146885643Y-131779926D01*
X146882236Y-131777312D01*
X146878044Y-131779351D01*
X146873571Y-131783667D01*
X146863216Y-131796602D01*
X146841158Y-131825676D01*
X146808957Y-131868759D01*
X146768174Y-131923718D01*
X146720370Y-131988423D01*
X146667105Y-132060742D01*
X146609940Y-132138544D01*
X146550437Y-132219698D01*
X146490155Y-132302072D01*
X146430655Y-132383536D01*
X146373498Y-132461957D01*
X146320245Y-132535204D01*
X146272457Y-132601147D01*
X146231693Y-132657654D01*
X146199516Y-132702593D01*
X146177485Y-132733834D01*
X146172917Y-132740466D01*
X146149996Y-132777369D01*
X146123188Y-132825359D01*
X146097789Y-132874897D01*
X146094568Y-132881577D01*
X146072890Y-132929772D01*
X146060304Y-132967334D01*
X146054574Y-133003160D01*
X146053456Y-133045200D01*
X146054090Y-133121400D01*
X144899651Y-133121400D01*
X144990815Y-133027669D01*
X145037612Y-132977775D01*
X145087899Y-132921295D01*
X145133944Y-132867026D01*
X145154369Y-132841673D01*
X145184807Y-132802128D01*
X145224862Y-132748916D01*
X145273361Y-132683667D01*
X145329135Y-132608011D01*
X145391011Y-132523577D01*
X145457819Y-132431994D01*
X145528387Y-132334892D01*
X145601545Y-132233901D01*
X145676121Y-132130650D01*
X145750944Y-132026768D01*
X145824843Y-131923885D01*
X145896646Y-131823631D01*
X145965184Y-131727636D01*
X146029284Y-131637527D01*
X146087775Y-131554936D01*
X146139486Y-131481492D01*
X146183247Y-131418824D01*
X146217885Y-131368561D01*
X146242230Y-131332334D01*
X146255111Y-131311771D01*
X146256869Y-131307668D01*
X146248910Y-131296342D01*
X146228115Y-131269162D01*
X146195847Y-131227829D01*
X146153470Y-131174044D01*
X146102347Y-131109506D01*
X146043841Y-131035918D01*
X145979314Y-130954978D01*
X145910131Y-130868388D01*
X145837653Y-130777848D01*
X145763246Y-130685060D01*
X145703517Y-130610702D01*
X144692511Y-130610702D01*
X144686602Y-130623659D01*
X144672272Y-130645908D01*
X144671225Y-130647391D01*
X144652438Y-130677544D01*
X144632791Y-130714375D01*
X144628892Y-130722511D01*
X144625356Y-130730940D01*
X144622230Y-130741059D01*
X144619486Y-130754260D01*
X144617092Y-130771938D01*
X144615019Y-130795484D01*
X144613235Y-130826293D01*
X144611712Y-130865757D01*
X144610419Y-130915269D01*
X144609326Y-130976223D01*
X144608403Y-131050011D01*
X144607619Y-131138028D01*
X144606945Y-131241665D01*
X144606350Y-131362316D01*
X144605805Y-131501374D01*
X144605279Y-131660232D01*
X144604745Y-131839089D01*
X144604206Y-132024207D01*
X144603772Y-132188145D01*
X144603509Y-132332303D01*
X144603484Y-132458079D01*
X144603765Y-132566871D01*
X144604419Y-132660077D01*
X144605514Y-132739097D01*
X144607118Y-132805328D01*
X144609297Y-132860170D01*
X144612119Y-132905021D01*
X144615651Y-132941278D01*
X144619961Y-132970341D01*
X144625117Y-132993609D01*
X144631185Y-133012479D01*
X144638233Y-133028351D01*
X144646329Y-133042622D01*
X144655540Y-133056691D01*
X144664040Y-133069158D01*
X144681176Y-133095452D01*
X144691322Y-133113037D01*
X144692511Y-133116257D01*
X144681604Y-133117334D01*
X144650411Y-133118335D01*
X144601223Y-133119235D01*
X144536333Y-133120010D01*
X144458030Y-133120637D01*
X144368607Y-133121091D01*
X144270356Y-133121349D01*
X144201445Y-133121400D01*
X144096452Y-133121180D01*
X143999610Y-133120548D01*
X143913107Y-133119549D01*
X143839132Y-133118227D01*
X143779874Y-133116626D01*
X143737520Y-133114791D01*
X143714260Y-133112765D01*
X143710378Y-133111493D01*
X143718076Y-133096591D01*
X143726074Y-133088560D01*
X143739246Y-133071434D01*
X143756485Y-133041183D01*
X143768407Y-133016622D01*
X143795045Y-132957711D01*
X143798120Y-131780845D01*
X143801195Y-130603978D01*
X144246853Y-130603978D01*
X144344670Y-130604142D01*
X144435064Y-130604611D01*
X144515630Y-130605347D01*
X144583962Y-130606316D01*
X144637656Y-130607480D01*
X144674305Y-130608803D01*
X144691504Y-130610249D01*
X144692511Y-130610702D01*
X145703517Y-130610702D01*
X145688270Y-130591722D01*
X145614090Y-130499537D01*
X145542069Y-130410204D01*
X145473569Y-130325424D01*
X145409955Y-130246898D01*
X145352588Y-130176326D01*
X145302833Y-130115409D01*
X145262052Y-130065847D01*
X145244888Y-130045178D01*
X145158596Y-129944516D01*
X145081997Y-129861259D01*
X145013183Y-129793438D01*
X144950248Y-129739089D01*
X144940867Y-129731722D01*
X144901356Y-129701117D01*
X146033116Y-129700867D01*
X146027827Y-129748844D01*
X146031130Y-129806188D01*
X146052661Y-129874463D01*
X146092635Y-129954212D01*
X146137943Y-130026495D01*
X146154161Y-130049140D01*
X146182214Y-130086696D01*
X146220430Y-130137021D01*
X146267137Y-130197973D01*
X146320661Y-130267411D01*
X146379331Y-130343194D01*
X146441475Y-130423180D01*
X146505421Y-130505228D01*
X146569495Y-130587196D01*
X146632027Y-130666943D01*
X146691343Y-130742327D01*
X146745771Y-130811207D01*
X146793639Y-130871442D01*
X146833275Y-130920889D01*
X146863006Y-130957408D01*
X146881161Y-130978858D01*
X146884220Y-130982156D01*
X146887079Y-130974149D01*
X146889293Y-130943855D01*
X146890857Y-130891556D01*
X146891767Y-130817531D01*
X146892020Y-130722063D01*
X146891613Y-130605434D01*
X146890704Y-130485445D01*
X146889382Y-130353333D01*
X146887857Y-130241594D01*
X146885881Y-130148025D01*
X146883206Y-130070419D01*
X146879582Y-130006574D01*
X146874761Y-129954283D01*
X146868494Y-129911344D01*
X146860532Y-129875551D01*
X146850627Y-129844700D01*
X146838531Y-129816586D01*
X146823993Y-129789005D01*
X146809311Y-129763966D01*
X146771314Y-129700867D01*
X147831197Y-129700867D01*
X148134034Y-129700867D01*
X148134001Y-129694617D01*
X148133195Y-129592544D01*
X148132170Y-129503633D01*
X148130900Y-129426941D01*
X148129360Y-129361527D01*
X148127524Y-129306449D01*
X148125367Y-129260765D01*
X148122863Y-129223534D01*
X148119987Y-129193813D01*
X148116713Y-129170662D01*
X148113015Y-129153139D01*
X148108869Y-129140301D01*
X148104247Y-129131208D01*
X148099126Y-129124918D01*
X148093478Y-129120488D01*
X148087279Y-129116978D01*
X148080504Y-129113445D01*
X148074508Y-129109876D01*
X148069275Y-129107300D01*
X148061099Y-129104972D01*
X148048886Y-129102878D01*
X148031541Y-129101007D01*
X148007969Y-129099347D01*
X147977077Y-129097884D01*
X147937768Y-129096608D01*
X147888950Y-129095504D01*
X147829527Y-129094561D01*
X147758404Y-129093767D01*
X147674488Y-129093109D01*
X147576683Y-129092575D01*
X147463894Y-129092153D01*
X147335029Y-129091829D01*
X147188991Y-129091592D01*
X147024686Y-129091430D01*
X146841020Y-129091330D01*
X146636897Y-129091280D01*
X146425753Y-129091267D01*
X144805400Y-129091267D01*
X144805400Y-129188054D01*
G36*
X141530571Y-129648071D02*
G01*
X141370430Y-129669245D01*
X141206490Y-129709385D01*
X141036687Y-129768889D01*
X140858957Y-129848154D01*
X140847690Y-129853699D01*
X140789995Y-129881725D01*
X140738448Y-129905802D01*
X140696809Y-129924249D01*
X140668838Y-129935386D01*
X140659267Y-129937933D01*
X140640050Y-129942941D01*
X140635439Y-129947147D01*
X140640542Y-129957580D01*
X140656582Y-129983868D01*
X140681712Y-130023257D01*
X140714086Y-130072991D01*
X140751857Y-130130315D01*
X140793178Y-130192476D01*
X140836202Y-130256718D01*
X140879083Y-130320285D01*
X140919974Y-130380425D01*
X140957029Y-130434380D01*
X140988400Y-130479397D01*
X141012241Y-130512721D01*
X141026706Y-130531597D01*
X141028691Y-130533787D01*
X141038809Y-130529138D01*
X141061150Y-130511962D01*
X141091720Y-130485440D01*
X141107464Y-130470964D01*
X141203953Y-130395682D01*
X141310664Y-130340241D01*
X141426168Y-130305141D01*
X141549038Y-130290880D01*
X141618439Y-130292051D01*
X141739577Y-130309212D01*
X141848795Y-130345094D01*
X141946418Y-130399959D01*
X142032772Y-130474070D01*
X142108185Y-130567688D01*
X142172982Y-130681076D01*
X142210399Y-130767667D01*
X142254252Y-130903366D01*
X142286572Y-131050850D01*
X142307443Y-131206314D01*
X142316949Y-131365956D01*
X142315173Y-131525973D01*
X142302197Y-131682561D01*
X142278106Y-131831918D01*
X142242982Y-131970240D01*
X142196908Y-132093724D01*
X142180627Y-132127978D01*
X142112380Y-132242064D01*
X142031921Y-132338557D01*
X141940430Y-132416670D01*
X141839089Y-132475617D01*
X141729080Y-132514612D01*
X141611585Y-132532868D01*
X141570117Y-132534211D01*
X141448559Y-132523290D01*
X141328122Y-132490474D01*
X141210334Y-132436439D01*
X141096723Y-132361865D01*
X141005315Y-132283539D01*
X140958785Y-132239008D01*
X140777517Y-132536271D01*
X140732420Y-132610433D01*
X140691181Y-132678646D01*
X140655265Y-132738459D01*
X140626134Y-132787420D01*
X140605250Y-132823079D01*
X140594076Y-132842984D01*
X140592625Y-132846079D01*
X140600854Y-132855718D01*
X140626433Y-132872999D01*
X140666127Y-132896283D01*
X140716703Y-132923934D01*
X140774926Y-132954315D01*
X140837563Y-132985790D01*
X140901379Y-133016722D01*
X140963140Y-133045473D01*
X141019612Y-133070408D01*
X141067562Y-133089889D01*
X141091014Y-133098318D01*
X141224779Y-133136133D01*
X141362673Y-133161136D01*
X141510378Y-133174140D01*
X141637167Y-133176468D01*
X141705122Y-133175373D01*
X141770723Y-133173275D01*
X141828153Y-133170434D01*
X141871597Y-133167106D01*
X141885702Y-133165422D01*
X142024716Y-133136587D01*
X142166243Y-133091468D01*
X142303725Y-133032750D01*
X142430606Y-132963120D01*
X142508111Y-132910441D01*
X142635519Y-132802239D01*
X142753822Y-132675671D01*
X142860828Y-132533866D01*
X142954348Y-132379951D01*
X143032190Y-132217053D01*
X143076044Y-132099756D01*
X143126292Y-131916128D01*
X143159791Y-131721581D01*
X143176551Y-131520325D01*
X143176584Y-131316568D01*
X143159899Y-131114521D01*
X143126507Y-130918392D01*
X143076420Y-130732391D01*
X143072603Y-130720803D01*
X143009719Y-130558750D01*
X142932972Y-130410832D01*
X142839758Y-130272865D01*
X142727473Y-130140661D01*
X142683608Y-130095399D01*
X142547466Y-129971457D01*
X142407509Y-129868915D01*
X142261589Y-129786656D01*
X142107558Y-129723564D01*
X141943268Y-129678523D01*
X141847711Y-129661033D01*
X141688977Y-129645466D01*
X141530571Y-129648071D01*
G37*
X141530571Y-129648071D02*
X141370430Y-129669245D01*
X141206490Y-129709385D01*
X141036687Y-129768889D01*
X140858957Y-129848154D01*
X140847690Y-129853699D01*
X140789995Y-129881725D01*
X140738448Y-129905802D01*
X140696809Y-129924249D01*
X140668838Y-129935386D01*
X140659267Y-129937933D01*
X140640050Y-129942941D01*
X140635439Y-129947147D01*
X140640542Y-129957580D01*
X140656582Y-129983868D01*
X140681712Y-130023257D01*
X140714086Y-130072991D01*
X140751857Y-130130315D01*
X140793178Y-130192476D01*
X140836202Y-130256718D01*
X140879083Y-130320285D01*
X140919974Y-130380425D01*
X140957029Y-130434380D01*
X140988400Y-130479397D01*
X141012241Y-130512721D01*
X141026706Y-130531597D01*
X141028691Y-130533787D01*
X141038809Y-130529138D01*
X141061150Y-130511962D01*
X141091720Y-130485440D01*
X141107464Y-130470964D01*
X141203953Y-130395682D01*
X141310664Y-130340241D01*
X141426168Y-130305141D01*
X141549038Y-130290880D01*
X141618439Y-130292051D01*
X141739577Y-130309212D01*
X141848795Y-130345094D01*
X141946418Y-130399959D01*
X142032772Y-130474070D01*
X142108185Y-130567688D01*
X142172982Y-130681076D01*
X142210399Y-130767667D01*
X142254252Y-130903366D01*
X142286572Y-131050850D01*
X142307443Y-131206314D01*
X142316949Y-131365956D01*
X142315173Y-131525973D01*
X142302197Y-131682561D01*
X142278106Y-131831918D01*
X142242982Y-131970240D01*
X142196908Y-132093724D01*
X142180627Y-132127978D01*
X142112380Y-132242064D01*
X142031921Y-132338557D01*
X141940430Y-132416670D01*
X141839089Y-132475617D01*
X141729080Y-132514612D01*
X141611585Y-132532868D01*
X141570117Y-132534211D01*
X141448559Y-132523290D01*
X141328122Y-132490474D01*
X141210334Y-132436439D01*
X141096723Y-132361865D01*
X141005315Y-132283539D01*
X140958785Y-132239008D01*
X140777517Y-132536271D01*
X140732420Y-132610433D01*
X140691181Y-132678646D01*
X140655265Y-132738459D01*
X140626134Y-132787420D01*
X140605250Y-132823079D01*
X140594076Y-132842984D01*
X140592625Y-132846079D01*
X140600854Y-132855718D01*
X140626433Y-132872999D01*
X140666127Y-132896283D01*
X140716703Y-132923934D01*
X140774926Y-132954315D01*
X140837563Y-132985790D01*
X140901379Y-133016722D01*
X140963140Y-133045473D01*
X141019612Y-133070408D01*
X141067562Y-133089889D01*
X141091014Y-133098318D01*
X141224779Y-133136133D01*
X141362673Y-133161136D01*
X141510378Y-133174140D01*
X141637167Y-133176468D01*
X141705122Y-133175373D01*
X141770723Y-133173275D01*
X141828153Y-133170434D01*
X141871597Y-133167106D01*
X141885702Y-133165422D01*
X142024716Y-133136587D01*
X142166243Y-133091468D01*
X142303725Y-133032750D01*
X142430606Y-132963120D01*
X142508111Y-132910441D01*
X142635519Y-132802239D01*
X142753822Y-132675671D01*
X142860828Y-132533866D01*
X142954348Y-132379951D01*
X143032190Y-132217053D01*
X143076044Y-132099756D01*
X143126292Y-131916128D01*
X143159791Y-131721581D01*
X143176551Y-131520325D01*
X143176584Y-131316568D01*
X143159899Y-131114521D01*
X143126507Y-130918392D01*
X143076420Y-130732391D01*
X143072603Y-130720803D01*
X143009719Y-130558750D01*
X142932972Y-130410832D01*
X142839758Y-130272865D01*
X142727473Y-130140661D01*
X142683608Y-130095399D01*
X142547466Y-129971457D01*
X142407509Y-129868915D01*
X142261589Y-129786656D01*
X142107558Y-129723564D01*
X141943268Y-129678523D01*
X141847711Y-129661033D01*
X141688977Y-129645466D01*
X141530571Y-129648071D01*
G36*
X139185426Y-130565552D02*
G01*
X139033508Y-130585567D01*
X138898244Y-130619202D01*
X138778761Y-130666725D01*
X138674185Y-130728405D01*
X138596576Y-130791965D01*
X138527735Y-130866099D01*
X138473994Y-130945871D01*
X138431090Y-131038091D01*
X138415616Y-131081161D01*
X138402756Y-131120142D01*
X138391554Y-131156289D01*
X138381880Y-131191434D01*
X138373604Y-131227410D01*
X138366597Y-131266050D01*
X138360728Y-131309185D01*
X138355869Y-131358649D01*
X138351890Y-131416273D01*
X138348660Y-131483891D01*
X138346051Y-131563334D01*
X138343933Y-131656436D01*
X138342176Y-131765027D01*
X138340651Y-131890942D01*
X138339228Y-132036012D01*
X138337975Y-132178778D01*
X138336649Y-132334968D01*
X138335444Y-132470239D01*
X138334234Y-132586246D01*
X138332894Y-132684645D01*
X138331300Y-132767093D01*
X138329325Y-132835246D01*
X138326844Y-132890760D01*
X138323731Y-132935292D01*
X138319862Y-132970498D01*
X138315111Y-132998034D01*
X138309352Y-133019556D01*
X138302461Y-133036722D01*
X138294311Y-133051186D01*
X138284777Y-133064606D01*
X138273734Y-133078638D01*
X138269434Y-133084071D01*
X138253614Y-133106910D01*
X138246578Y-133122463D01*
X138246556Y-133122922D01*
X138257433Y-133125121D01*
X138288418Y-133127147D01*
X138337043Y-133128942D01*
X138400837Y-133130451D01*
X138477331Y-133131616D01*
X138564056Y-133132380D01*
X138658543Y-133132686D01*
X138669450Y-133132689D01*
X139092343Y-133132689D01*
X139095605Y-133036622D01*
X139098867Y-132940556D01*
X139160956Y-132991543D01*
X139258286Y-133059057D01*
X139368187Y-133113749D01*
X139454651Y-133143978D01*
X139523722Y-133158666D01*
X139607075Y-133168659D01*
X139696841Y-133173646D01*
X139785155Y-133173313D01*
X139864149Y-133167351D01*
X139900378Y-133161638D01*
X140040397Y-133123776D01*
X140166822Y-133068932D01*
X140278740Y-132997924D01*
X140375238Y-132911568D01*
X140455400Y-132810679D01*
X140518313Y-132696076D01*
X140562688Y-132569984D01*
X140575022Y-132513401D01*
X140582632Y-132451202D01*
X140586261Y-132376363D01*
X140586755Y-132342467D01*
X140586690Y-132339282D01*
X139826752Y-132339282D01*
X139817459Y-132414333D01*
X139789272Y-132478160D01*
X139740803Y-132533798D01*
X139735746Y-132538211D01*
X139687452Y-132573037D01*
X139635743Y-132595620D01*
X139575011Y-132607540D01*
X139499648Y-132610383D01*
X139481541Y-132609978D01*
X139427722Y-132607325D01*
X139387692Y-132601909D01*
X139352676Y-132591745D01*
X139313897Y-132574850D01*
X139303255Y-132569672D01*
X139242604Y-132533844D01*
X139195785Y-132491212D01*
X139183048Y-132475973D01*
X139138378Y-132419462D01*
X139138378Y-132223586D01*
X139138914Y-132144939D01*
X139140604Y-132086988D01*
X139143572Y-132047875D01*
X139147943Y-132025741D01*
X139152028Y-132019274D01*
X139167953Y-132016111D01*
X139201736Y-132013488D01*
X139248660Y-132011655D01*
X139304007Y-132010857D01*
X139312894Y-132010842D01*
X139433670Y-132016096D01*
X139536340Y-132032263D01*
X139622894Y-132059961D01*
X139695319Y-132099808D01*
X139750249Y-132146758D01*
X139794796Y-132204645D01*
X139819520Y-132267693D01*
X139826752Y-132339282D01*
X140586690Y-132339282D01*
X140584822Y-132248712D01*
X140576478Y-132169812D01*
X140560232Y-132098590D01*
X140534595Y-132027864D01*
X140510599Y-131975493D01*
X140451980Y-131880196D01*
X140373883Y-131792170D01*
X140278685Y-131713017D01*
X140168762Y-131644340D01*
X140046490Y-131587741D01*
X139914245Y-131544821D01*
X139849578Y-131529882D01*
X139713396Y-131507777D01*
X139564951Y-131493194D01*
X139413495Y-131486813D01*
X139286936Y-131488445D01*
X139125050Y-131495224D01*
X139132470Y-131436245D01*
X139151762Y-131337092D01*
X139182896Y-131256372D01*
X139226731Y-131193466D01*
X139284129Y-131147756D01*
X139355952Y-131118622D01*
X139443059Y-131105447D01*
X139546314Y-131107611D01*
X139584289Y-131111612D01*
X139725480Y-131136780D01*
X139862293Y-131177814D01*
X139956822Y-131215815D01*
X140001982Y-131235190D01*
X140040415Y-131250760D01*
X140066766Y-131260405D01*
X140074454Y-131262452D01*
X140084198Y-131253374D01*
X140100917Y-131224405D01*
X140124768Y-131175217D01*
X140155907Y-131105484D01*
X140194493Y-131014879D01*
X140201090Y-130999089D01*
X140231147Y-130926772D01*
X140258126Y-130861425D01*
X140280864Y-130805906D01*
X140298194Y-130763072D01*
X140308952Y-130735781D01*
X140312059Y-130726942D01*
X140302060Y-130722187D01*
X140275783Y-130716910D01*
X140247511Y-130713231D01*
X140217354Y-130708474D01*
X140169567Y-130699028D01*
X140108388Y-130685820D01*
X140038054Y-130669776D01*
X139962806Y-130651820D01*
X139934245Y-130644797D01*
X139829184Y-130619209D01*
X139741520Y-130599147D01*
X139666932Y-130583969D01*
X139601097Y-130573035D01*
X139539693Y-130565704D01*
X139478398Y-130561335D01*
X139412890Y-130559287D01*
X139354872Y-130558889D01*
X139185426Y-130565552D01*
G37*
X139185426Y-130565552D02*
X139033508Y-130585567D01*
X138898244Y-130619202D01*
X138778761Y-130666725D01*
X138674185Y-130728405D01*
X138596576Y-130791965D01*
X138527735Y-130866099D01*
X138473994Y-130945871D01*
X138431090Y-131038091D01*
X138415616Y-131081161D01*
X138402756Y-131120142D01*
X138391554Y-131156289D01*
X138381880Y-131191434D01*
X138373604Y-131227410D01*
X138366597Y-131266050D01*
X138360728Y-131309185D01*
X138355869Y-131358649D01*
X138351890Y-131416273D01*
X138348660Y-131483891D01*
X138346051Y-131563334D01*
X138343933Y-131656436D01*
X138342176Y-131765027D01*
X138340651Y-131890942D01*
X138339228Y-132036012D01*
X138337975Y-132178778D01*
X138336649Y-132334968D01*
X138335444Y-132470239D01*
X138334234Y-132586246D01*
X138332894Y-132684645D01*
X138331300Y-132767093D01*
X138329325Y-132835246D01*
X138326844Y-132890760D01*
X138323731Y-132935292D01*
X138319862Y-132970498D01*
X138315111Y-132998034D01*
X138309352Y-133019556D01*
X138302461Y-133036722D01*
X138294311Y-133051186D01*
X138284777Y-133064606D01*
X138273734Y-133078638D01*
X138269434Y-133084071D01*
X138253614Y-133106910D01*
X138246578Y-133122463D01*
X138246556Y-133122922D01*
X138257433Y-133125121D01*
X138288418Y-133127147D01*
X138337043Y-133128942D01*
X138400837Y-133130451D01*
X138477331Y-133131616D01*
X138564056Y-133132380D01*
X138658543Y-133132686D01*
X138669450Y-133132689D01*
X139092343Y-133132689D01*
X139095605Y-133036622D01*
X139098867Y-132940556D01*
X139160956Y-132991543D01*
X139258286Y-133059057D01*
X139368187Y-133113749D01*
X139454651Y-133143978D01*
X139523722Y-133158666D01*
X139607075Y-133168659D01*
X139696841Y-133173646D01*
X139785155Y-133173313D01*
X139864149Y-133167351D01*
X139900378Y-133161638D01*
X140040397Y-133123776D01*
X140166822Y-133068932D01*
X140278740Y-132997924D01*
X140375238Y-132911568D01*
X140455400Y-132810679D01*
X140518313Y-132696076D01*
X140562688Y-132569984D01*
X140575022Y-132513401D01*
X140582632Y-132451202D01*
X140586261Y-132376363D01*
X140586755Y-132342467D01*
X140586690Y-132339282D01*
X139826752Y-132339282D01*
X139817459Y-132414333D01*
X139789272Y-132478160D01*
X139740803Y-132533798D01*
X139735746Y-132538211D01*
X139687452Y-132573037D01*
X139635743Y-132595620D01*
X139575011Y-132607540D01*
X139499648Y-132610383D01*
X139481541Y-132609978D01*
X139427722Y-132607325D01*
X139387692Y-132601909D01*
X139352676Y-132591745D01*
X139313897Y-132574850D01*
X139303255Y-132569672D01*
X139242604Y-132533844D01*
X139195785Y-132491212D01*
X139183048Y-132475973D01*
X139138378Y-132419462D01*
X139138378Y-132223586D01*
X139138914Y-132144939D01*
X139140604Y-132086988D01*
X139143572Y-132047875D01*
X139147943Y-132025741D01*
X139152028Y-132019274D01*
X139167953Y-132016111D01*
X139201736Y-132013488D01*
X139248660Y-132011655D01*
X139304007Y-132010857D01*
X139312894Y-132010842D01*
X139433670Y-132016096D01*
X139536340Y-132032263D01*
X139622894Y-132059961D01*
X139695319Y-132099808D01*
X139750249Y-132146758D01*
X139794796Y-132204645D01*
X139819520Y-132267693D01*
X139826752Y-132339282D01*
X140586690Y-132339282D01*
X140584822Y-132248712D01*
X140576478Y-132169812D01*
X140560232Y-132098590D01*
X140534595Y-132027864D01*
X140510599Y-131975493D01*
X140451980Y-131880196D01*
X140373883Y-131792170D01*
X140278685Y-131713017D01*
X140168762Y-131644340D01*
X140046490Y-131587741D01*
X139914245Y-131544821D01*
X139849578Y-131529882D01*
X139713396Y-131507777D01*
X139564951Y-131493194D01*
X139413495Y-131486813D01*
X139286936Y-131488445D01*
X139125050Y-131495224D01*
X139132470Y-131436245D01*
X139151762Y-131337092D01*
X139182896Y-131256372D01*
X139226731Y-131193466D01*
X139284129Y-131147756D01*
X139355952Y-131118622D01*
X139443059Y-131105447D01*
X139546314Y-131107611D01*
X139584289Y-131111612D01*
X139725480Y-131136780D01*
X139862293Y-131177814D01*
X139956822Y-131215815D01*
X140001982Y-131235190D01*
X140040415Y-131250760D01*
X140066766Y-131260405D01*
X140074454Y-131262452D01*
X140084198Y-131253374D01*
X140100917Y-131224405D01*
X140124768Y-131175217D01*
X140155907Y-131105484D01*
X140194493Y-131014879D01*
X140201090Y-130999089D01*
X140231147Y-130926772D01*
X140258126Y-130861425D01*
X140280864Y-130805906D01*
X140298194Y-130763072D01*
X140308952Y-130735781D01*
X140312059Y-130726942D01*
X140302060Y-130722187D01*
X140275783Y-130716910D01*
X140247511Y-130713231D01*
X140217354Y-130708474D01*
X140169567Y-130699028D01*
X140108388Y-130685820D01*
X140038054Y-130669776D01*
X139962806Y-130651820D01*
X139934245Y-130644797D01*
X139829184Y-130619209D01*
X139741520Y-130599147D01*
X139666932Y-130583969D01*
X139601097Y-130573035D01*
X139539693Y-130565704D01*
X139478398Y-130561335D01*
X139412890Y-130559287D01*
X139354872Y-130558889D01*
X139185426Y-130565552D01*
G36*
X135672493Y-131171245D02*
G01*
X135672474Y-131405662D01*
X135672448Y-131618603D01*
X135672375Y-131811168D01*
X135672218Y-131984459D01*
X135671936Y-132139576D01*
X135671491Y-132277620D01*
X135670844Y-132399692D01*
X135669955Y-132506894D01*
X135668787Y-132600326D01*
X135667299Y-132681090D01*
X135665454Y-132750286D01*
X135663211Y-132809015D01*
X135660531Y-132858379D01*
X135657377Y-132899478D01*
X135653708Y-132933413D01*
X135649487Y-132961286D01*
X135644673Y-132984198D01*
X135639227Y-133003249D01*
X135633112Y-133019540D01*
X135626288Y-133034173D01*
X135618715Y-133048249D01*
X135610355Y-133062868D01*
X135605161Y-133071974D01*
X135570896Y-133132689D01*
X136429045Y-133132689D01*
X136429045Y-133036733D01*
X136429776Y-132993370D01*
X136431728Y-132960205D01*
X136434537Y-132942424D01*
X136435779Y-132940778D01*
X136447201Y-132947662D01*
X136469916Y-132965505D01*
X136492615Y-132984879D01*
X136547200Y-133025614D01*
X136616679Y-133066617D01*
X136693730Y-133104123D01*
X136771035Y-133134364D01*
X136801887Y-133144012D01*
X136870384Y-133158578D01*
X136953236Y-133168539D01*
X137042629Y-133173583D01*
X137130752Y-133173396D01*
X137209793Y-133167666D01*
X137247489Y-133161858D01*
X137385586Y-133123797D01*
X137512887Y-133066073D01*
X137628708Y-132989211D01*
X137732363Y-132893739D01*
X137823167Y-132780179D01*
X137889969Y-132669381D01*
X137944836Y-132552625D01*
X137986837Y-132433276D01*
X138016833Y-132307283D01*
X138035689Y-132170594D01*
X138044268Y-132019158D01*
X138044994Y-131941711D01*
X138042900Y-131884934D01*
X137213783Y-131884934D01*
X137213576Y-131978002D01*
X137210663Y-132065692D01*
X137205000Y-132142772D01*
X137196545Y-132204009D01*
X137193962Y-132216350D01*
X137162160Y-132323633D01*
X137120502Y-132410658D01*
X137068637Y-132477642D01*
X137006219Y-132524805D01*
X136932900Y-132552365D01*
X136848331Y-132560541D01*
X136752165Y-132549551D01*
X136688689Y-132533829D01*
X136639546Y-132515639D01*
X136585417Y-132489791D01*
X136544756Y-132466089D01*
X136474200Y-132419721D01*
X136474200Y-131269530D01*
X136541608Y-131225962D01*
X136620133Y-131185040D01*
X136704319Y-131158389D01*
X136789443Y-131146465D01*
X136870784Y-131149722D01*
X136943620Y-131168615D01*
X136975574Y-131184184D01*
X137033499Y-131227181D01*
X137082456Y-131283953D01*
X137123610Y-131356575D01*
X137158126Y-131447121D01*
X137187167Y-131557666D01*
X137188448Y-131563533D01*
X137198619Y-131625788D01*
X137206261Y-131703594D01*
X137211330Y-131791720D01*
X137213783Y-131884934D01*
X138042900Y-131884934D01*
X138037143Y-131728895D01*
X138015198Y-131533059D01*
X137979214Y-131354332D01*
X137929241Y-131192845D01*
X137865332Y-131048726D01*
X137787538Y-130922106D01*
X137695911Y-130813115D01*
X137590503Y-130721883D01*
X137545338Y-130690932D01*
X137444389Y-130634785D01*
X137341099Y-130595174D01*
X137231011Y-130571014D01*
X137109670Y-130561219D01*
X137017164Y-130562265D01*
X136887510Y-130573231D01*
X136774916Y-130595046D01*
X136676125Y-130628714D01*
X136587879Y-130675236D01*
X136539014Y-130709448D01*
X136509647Y-130731362D01*
X136487957Y-130746333D01*
X136479747Y-130750733D01*
X136478132Y-130739904D01*
X136476841Y-130709251D01*
X136475862Y-130661526D01*
X136475183Y-130599479D01*
X136474790Y-130525862D01*
X136474670Y-130443427D01*
X136474812Y-130354925D01*
X136475203Y-130263107D01*
X136475829Y-130170724D01*
X136476680Y-130080528D01*
X136477740Y-129995271D01*
X136478999Y-129917703D01*
X136480444Y-129850576D01*
X136482062Y-129796641D01*
X136483839Y-129758650D01*
X136484331Y-129751667D01*
X136491908Y-129681251D01*
X136503469Y-129626102D01*
X136521208Y-129578981D01*
X136547318Y-129532647D01*
X136553585Y-129523067D01*
X136578017Y-129486378D01*
X135672689Y-129486378D01*
X135672493Y-131171245D01*
G37*
X135672493Y-131171245D02*
X135672474Y-131405662D01*
X135672448Y-131618603D01*
X135672375Y-131811168D01*
X135672218Y-131984459D01*
X135671936Y-132139576D01*
X135671491Y-132277620D01*
X135670844Y-132399692D01*
X135669955Y-132506894D01*
X135668787Y-132600326D01*
X135667299Y-132681090D01*
X135665454Y-132750286D01*
X135663211Y-132809015D01*
X135660531Y-132858379D01*
X135657377Y-132899478D01*
X135653708Y-132933413D01*
X135649487Y-132961286D01*
X135644673Y-132984198D01*
X135639227Y-133003249D01*
X135633112Y-133019540D01*
X135626288Y-133034173D01*
X135618715Y-133048249D01*
X135610355Y-133062868D01*
X135605161Y-133071974D01*
X135570896Y-133132689D01*
X136429045Y-133132689D01*
X136429045Y-133036733D01*
X136429776Y-132993370D01*
X136431728Y-132960205D01*
X136434537Y-132942424D01*
X136435779Y-132940778D01*
X136447201Y-132947662D01*
X136469916Y-132965505D01*
X136492615Y-132984879D01*
X136547200Y-133025614D01*
X136616679Y-133066617D01*
X136693730Y-133104123D01*
X136771035Y-133134364D01*
X136801887Y-133144012D01*
X136870384Y-133158578D01*
X136953236Y-133168539D01*
X137042629Y-133173583D01*
X137130752Y-133173396D01*
X137209793Y-133167666D01*
X137247489Y-133161858D01*
X137385586Y-133123797D01*
X137512887Y-133066073D01*
X137628708Y-132989211D01*
X137732363Y-132893739D01*
X137823167Y-132780179D01*
X137889969Y-132669381D01*
X137944836Y-132552625D01*
X137986837Y-132433276D01*
X138016833Y-132307283D01*
X138035689Y-132170594D01*
X138044268Y-132019158D01*
X138044994Y-131941711D01*
X138042900Y-131884934D01*
X137213783Y-131884934D01*
X137213576Y-131978002D01*
X137210663Y-132065692D01*
X137205000Y-132142772D01*
X137196545Y-132204009D01*
X137193962Y-132216350D01*
X137162160Y-132323633D01*
X137120502Y-132410658D01*
X137068637Y-132477642D01*
X137006219Y-132524805D01*
X136932900Y-132552365D01*
X136848331Y-132560541D01*
X136752165Y-132549551D01*
X136688689Y-132533829D01*
X136639546Y-132515639D01*
X136585417Y-132489791D01*
X136544756Y-132466089D01*
X136474200Y-132419721D01*
X136474200Y-131269530D01*
X136541608Y-131225962D01*
X136620133Y-131185040D01*
X136704319Y-131158389D01*
X136789443Y-131146465D01*
X136870784Y-131149722D01*
X136943620Y-131168615D01*
X136975574Y-131184184D01*
X137033499Y-131227181D01*
X137082456Y-131283953D01*
X137123610Y-131356575D01*
X137158126Y-131447121D01*
X137187167Y-131557666D01*
X137188448Y-131563533D01*
X137198619Y-131625788D01*
X137206261Y-131703594D01*
X137211330Y-131791720D01*
X137213783Y-131884934D01*
X138042900Y-131884934D01*
X138037143Y-131728895D01*
X138015198Y-131533059D01*
X137979214Y-131354332D01*
X137929241Y-131192845D01*
X137865332Y-131048726D01*
X137787538Y-130922106D01*
X137695911Y-130813115D01*
X137590503Y-130721883D01*
X137545338Y-130690932D01*
X137444389Y-130634785D01*
X137341099Y-130595174D01*
X137231011Y-130571014D01*
X137109670Y-130561219D01*
X137017164Y-130562265D01*
X136887510Y-130573231D01*
X136774916Y-130595046D01*
X136676125Y-130628714D01*
X136587879Y-130675236D01*
X136539014Y-130709448D01*
X136509647Y-130731362D01*
X136487957Y-130746333D01*
X136479747Y-130750733D01*
X136478132Y-130739904D01*
X136476841Y-130709251D01*
X136475862Y-130661526D01*
X136475183Y-130599479D01*
X136474790Y-130525862D01*
X136474670Y-130443427D01*
X136474812Y-130354925D01*
X136475203Y-130263107D01*
X136475829Y-130170724D01*
X136476680Y-130080528D01*
X136477740Y-129995271D01*
X136478999Y-129917703D01*
X136480444Y-129850576D01*
X136482062Y-129796641D01*
X136483839Y-129758650D01*
X136484331Y-129751667D01*
X136491908Y-129681251D01*
X136503469Y-129626102D01*
X136521208Y-129578981D01*
X136547318Y-129532647D01*
X136553585Y-129523067D01*
X136578017Y-129486378D01*
X135672689Y-129486378D01*
X135672493Y-131171245D01*
G36*
X144132043Y-128725571D02*
G01*
X144035768Y-128749809D01*
X143949184Y-128792641D01*
X143874373Y-128852419D01*
X143813418Y-128927494D01*
X143768399Y-129016220D01*
X143742136Y-129112530D01*
X143736286Y-129209795D01*
X143751140Y-129303654D01*
X143784840Y-129391511D01*
X143835528Y-129470770D01*
X143901345Y-129538836D01*
X143980434Y-129593112D01*
X144070934Y-129631002D01*
X144122200Y-129643426D01*
X144166698Y-129650947D01*
X144200999Y-129653919D01*
X144233960Y-129652094D01*
X144274434Y-129645225D01*
X144307531Y-129638250D01*
X144400947Y-129606741D01*
X144484619Y-129555617D01*
X144556665Y-129486429D01*
X144615200Y-129400728D01*
X144629148Y-129373489D01*
X144645586Y-129337122D01*
X144655894Y-129306582D01*
X144661460Y-129274450D01*
X144663669Y-129233307D01*
X144663948Y-129187222D01*
X144659861Y-129102865D01*
X144646446Y-129033586D01*
X144621256Y-128972961D01*
X144581846Y-128914567D01*
X144543298Y-128870302D01*
X144471406Y-128804484D01*
X144396313Y-128759053D01*
X144313562Y-128731850D01*
X144235928Y-128721576D01*
X144132043Y-128725571D01*
G37*
X144132043Y-128725571D02*
X144035768Y-128749809D01*
X143949184Y-128792641D01*
X143874373Y-128852419D01*
X143813418Y-128927494D01*
X143768399Y-129016220D01*
X143742136Y-129112530D01*
X143736286Y-129209795D01*
X143751140Y-129303654D01*
X143784840Y-129391511D01*
X143835528Y-129470770D01*
X143901345Y-129538836D01*
X143980434Y-129593112D01*
X144070934Y-129631002D01*
X144122200Y-129643426D01*
X144166698Y-129650947D01*
X144200999Y-129653919D01*
X144233960Y-129652094D01*
X144274434Y-129645225D01*
X144307531Y-129638250D01*
X144400947Y-129606741D01*
X144484619Y-129555617D01*
X144556665Y-129486429D01*
X144615200Y-129400728D01*
X144629148Y-129373489D01*
X144645586Y-129337122D01*
X144655894Y-129306582D01*
X144661460Y-129274450D01*
X144663669Y-129233307D01*
X144663948Y-129187222D01*
X144659861Y-129102865D01*
X144646446Y-129033586D01*
X144621256Y-128972961D01*
X144581846Y-128914567D01*
X144543298Y-128870302D01*
X144471406Y-128804484D01*
X144396313Y-128759053D01*
X144313562Y-128731850D01*
X144235928Y-128721576D01*
X144132043Y-128725571D01*
D10*
X84253500Y-56578500D02*
X85153500Y-56578500D01*
D12*
X83360000Y-56578500D02*
G75*
G03*
X83360000Y-56578500I-175000J0D01*
G01*
D10*
X83185000Y-56578500D02*
X81185000Y-56578500D01*
X87094500Y-56578500D02*
G75*
G03*
X87094500Y-56578500I-925000J0D01*
G01*
X81125500Y-56578500D02*
G75*
G03*
X81125500Y-56578500I-925000J0D01*
G01*
X82510000Y-57328500D02*
G75*
G03*
X82435000Y-55903500I675000J750000D01*
G01*
D13*
X102365000Y-148860000D02*
X99565000Y-148860000D01*
X98915000Y-149560000D02*
X98915000Y-150160000D01*
X99565000Y-150860000D02*
X102365000Y-150860000D01*
X103015000Y-150160000D02*
X103015000Y-149560000D01*
X102165000Y-151060000D02*
X102465000Y-151360000D01*
X102465000Y-151360000D02*
X101865000Y-151360000D01*
X102165000Y-151060000D02*
X101865000Y-151360000D01*
X99615000Y-148860000D02*
G75*
G03*
X98915000Y-149560000I0J-700000D01*
G01*
X98915000Y-150160000D02*
G75*
G03*
X99615000Y-150860000I700000J0D01*
G01*
X102315000Y-150860000D02*
G75*
G03*
X103015000Y-150160000I0J700000D01*
G01*
X103015000Y-149560000D02*
G75*
G03*
X102315000Y-148860000I-700000J0D01*
G01*
X97085000Y-151060000D02*
X96785000Y-151360000D01*
X97385000Y-151360000D02*
X96785000Y-151360000D01*
X97085000Y-151060000D02*
X97385000Y-151360000D01*
X97935000Y-150160000D02*
X97935000Y-149560000D01*
X94485000Y-150860000D02*
X97285000Y-150860000D01*
X93835000Y-149560000D02*
X93835000Y-150160000D01*
X97285000Y-148860000D02*
X94485000Y-148860000D01*
X97935000Y-149560000D02*
G75*
G03*
X97235000Y-148860000I-700000J0D01*
G01*
X97235000Y-150860000D02*
G75*
G03*
X97935000Y-150160000I0J700000D01*
G01*
X93835000Y-150160000D02*
G75*
G03*
X94535000Y-150860000I700000J0D01*
G01*
X94535000Y-148860000D02*
G75*
G03*
X93835000Y-149560000I0J-700000D01*
G01*
X143440000Y-144710000D02*
X143140000Y-145010000D01*
X143740000Y-145010000D02*
X143140000Y-145010000D01*
X143440000Y-144710000D02*
X143740000Y-145010000D01*
X144290000Y-143810000D02*
X144290000Y-143210000D01*
X140840000Y-144510000D02*
X143640000Y-144510000D01*
X140190000Y-143210000D02*
X140190000Y-143810000D01*
X143640000Y-142510000D02*
X140840000Y-142510000D01*
X140890000Y-142510000D02*
G75*
G03*
X140190000Y-143210000I0J-700000D01*
G01*
X140190000Y-143810000D02*
G75*
G03*
X140890000Y-144510000I700000J0D01*
G01*
X143590000Y-144510000D02*
G75*
G03*
X144290000Y-143810000I0J700000D01*
G01*
X144290000Y-143210000D02*
G75*
G03*
X143590000Y-142510000I-700000J0D01*
G01*
X113030000Y-99635000D02*
X111700000Y-99635000D01*
X111700000Y-99635000D02*
X111700000Y-100965000D01*
X114300000Y-99635000D02*
X114300000Y-102235000D01*
X114300000Y-102235000D02*
X111700000Y-102235000D01*
X111700000Y-102235000D02*
X111700000Y-125155000D01*
X116900000Y-125155000D02*
X111700000Y-125155000D01*
X116900000Y-99635000D02*
X116900000Y-125155000D01*
X116900000Y-99635000D02*
X114300000Y-99635000D01*
X97347000Y-72895000D02*
X95347000Y-72895000D01*
X97347000Y-75695000D02*
X97347000Y-72895000D01*
X95347000Y-75695000D02*
X97347000Y-75695000D01*
X95347000Y-72895000D02*
X95347000Y-75695000D01*
X99157000Y-72895000D02*
X99157000Y-75695000D01*
X99157000Y-75695000D02*
X101157000Y-75695000D01*
X101157000Y-75695000D02*
X101157000Y-72895000D01*
X101157000Y-72895000D02*
X99157000Y-72895000D01*
X93537000Y-72895000D02*
X91537000Y-72895000D01*
X93537000Y-75695000D02*
X93537000Y-72895000D01*
X91537000Y-75695000D02*
X93537000Y-75695000D01*
X91537000Y-72895000D02*
X91537000Y-75695000D01*
D10*
X79804047Y-56586428D02*
X80565952Y-56586428D01*
X80185000Y-56967380D02*
X80185000Y-56205476D01*
X85804047Y-56586428D02*
X86565952Y-56586428D01*
D14*
X101631666Y-146246904D02*
X101631666Y-146818333D01*
X101669761Y-146932619D01*
X101745952Y-147008809D01*
X101860238Y-147046904D01*
X101936428Y-147046904D01*
X101250714Y-147046904D02*
X101250714Y-146246904D01*
X100945952Y-146246904D01*
X100869761Y-146285000D01*
X100831666Y-146323095D01*
X100793571Y-146399285D01*
X100793571Y-146513571D01*
X100831666Y-146589761D01*
X100869761Y-146627857D01*
X100945952Y-146665952D01*
X101250714Y-146665952D01*
X100031666Y-147046904D02*
X100488809Y-147046904D01*
X100260238Y-147046904D02*
X100260238Y-146246904D01*
X100336428Y-146361190D01*
X100412619Y-146437380D01*
X100488809Y-146475476D01*
X103079285Y-148316904D02*
X103079285Y-147516904D01*
X102774523Y-147516904D01*
X102698333Y-147555000D01*
X102660238Y-147593095D01*
X102622142Y-147669285D01*
X102622142Y-147783571D01*
X102660238Y-147859761D01*
X102698333Y-147897857D01*
X102774523Y-147935952D01*
X103079285Y-147935952D01*
X101860238Y-148316904D02*
X102317380Y-148316904D01*
X102088809Y-148316904D02*
X102088809Y-147516904D01*
X102165000Y-147631190D01*
X102241190Y-147707380D01*
X102317380Y-147745476D01*
X101707857Y-148393095D02*
X101098333Y-148393095D01*
X100488809Y-147555000D02*
X100565000Y-147516904D01*
X100679285Y-147516904D01*
X100793571Y-147555000D01*
X100869761Y-147631190D01*
X100907857Y-147707380D01*
X100945952Y-147859761D01*
X100945952Y-147974047D01*
X100907857Y-148126428D01*
X100869761Y-148202619D01*
X100793571Y-148278809D01*
X100679285Y-148316904D01*
X100603095Y-148316904D01*
X100488809Y-148278809D01*
X100450714Y-148240714D01*
X100450714Y-147974047D01*
X100603095Y-147974047D01*
X100107857Y-148316904D02*
X100107857Y-147516904D01*
X99650714Y-148316904D01*
X99650714Y-147516904D01*
X99269761Y-148316904D02*
X99269761Y-147516904D01*
X99079285Y-147516904D01*
X98965000Y-147555000D01*
X98888809Y-147631190D01*
X98850714Y-147707380D01*
X98812619Y-147859761D01*
X98812619Y-147974047D01*
X98850714Y-148126428D01*
X98888809Y-148202619D01*
X98965000Y-148278809D01*
X99079285Y-148316904D01*
X99269761Y-148316904D01*
X96551666Y-146246904D02*
X96551666Y-146818333D01*
X96589761Y-146932619D01*
X96665952Y-147008809D01*
X96780238Y-147046904D01*
X96856428Y-147046904D01*
X96170714Y-147046904D02*
X96170714Y-146246904D01*
X95865952Y-146246904D01*
X95789761Y-146285000D01*
X95751666Y-146323095D01*
X95713571Y-146399285D01*
X95713571Y-146513571D01*
X95751666Y-146589761D01*
X95789761Y-146627857D01*
X95865952Y-146665952D01*
X96170714Y-146665952D01*
X95408809Y-146323095D02*
X95370714Y-146285000D01*
X95294523Y-146246904D01*
X95104047Y-146246904D01*
X95027857Y-146285000D01*
X94989761Y-146323095D01*
X94951666Y-146399285D01*
X94951666Y-146475476D01*
X94989761Y-146589761D01*
X95446904Y-147046904D01*
X94951666Y-147046904D01*
X97923095Y-148316904D02*
X97923095Y-147516904D01*
X97618333Y-147516904D01*
X97542142Y-147555000D01*
X97504047Y-147593095D01*
X97465952Y-147669285D01*
X97465952Y-147783571D01*
X97504047Y-147859761D01*
X97542142Y-147897857D01*
X97618333Y-147935952D01*
X97923095Y-147935952D01*
X97161190Y-147593095D02*
X97123095Y-147555000D01*
X97046904Y-147516904D01*
X96856428Y-147516904D01*
X96780238Y-147555000D01*
X96742142Y-147593095D01*
X96704047Y-147669285D01*
X96704047Y-147745476D01*
X96742142Y-147859761D01*
X97199285Y-148316904D01*
X96704047Y-148316904D01*
X96551666Y-148393095D02*
X95942142Y-148393095D01*
X95865952Y-147516904D02*
X95599285Y-148316904D01*
X95332619Y-147516904D01*
X94608809Y-148240714D02*
X94646904Y-148278809D01*
X94761190Y-148316904D01*
X94837380Y-148316904D01*
X94951666Y-148278809D01*
X95027857Y-148202619D01*
X95065952Y-148126428D01*
X95104047Y-147974047D01*
X95104047Y-147859761D01*
X95065952Y-147707380D01*
X95027857Y-147631190D01*
X94951666Y-147555000D01*
X94837380Y-147516904D01*
X94761190Y-147516904D01*
X94646904Y-147555000D01*
X94608809Y-147593095D01*
X93808809Y-148240714D02*
X93846904Y-148278809D01*
X93961190Y-148316904D01*
X94037380Y-148316904D01*
X94151666Y-148278809D01*
X94227857Y-148202619D01*
X94265952Y-148126428D01*
X94304047Y-147974047D01*
X94304047Y-147859761D01*
X94265952Y-147707380D01*
X94227857Y-147631190D01*
X94151666Y-147555000D01*
X94037380Y-147516904D01*
X93961190Y-147516904D01*
X93846904Y-147555000D01*
X93808809Y-147593095D01*
X142936666Y-139896904D02*
X142936666Y-140468333D01*
X142974761Y-140582619D01*
X143050952Y-140658809D01*
X143165238Y-140696904D01*
X143241428Y-140696904D01*
X142555714Y-140696904D02*
X142555714Y-139896904D01*
X142250952Y-139896904D01*
X142174761Y-139935000D01*
X142136666Y-139973095D01*
X142098571Y-140049285D01*
X142098571Y-140163571D01*
X142136666Y-140239761D01*
X142174761Y-140277857D01*
X142250952Y-140315952D01*
X142555714Y-140315952D01*
X141831904Y-139896904D02*
X141336666Y-139896904D01*
X141603333Y-140201666D01*
X141489047Y-140201666D01*
X141412857Y-140239761D01*
X141374761Y-140277857D01*
X141336666Y-140354047D01*
X141336666Y-140544523D01*
X141374761Y-140620714D01*
X141412857Y-140658809D01*
X141489047Y-140696904D01*
X141717619Y-140696904D01*
X141793809Y-140658809D01*
X141831904Y-140620714D01*
X144678095Y-141928809D02*
X144563809Y-141966904D01*
X144373333Y-141966904D01*
X144297142Y-141928809D01*
X144259047Y-141890714D01*
X144220952Y-141814523D01*
X144220952Y-141738333D01*
X144259047Y-141662142D01*
X144297142Y-141624047D01*
X144373333Y-141585952D01*
X144525714Y-141547857D01*
X144601904Y-141509761D01*
X144640000Y-141471666D01*
X144678095Y-141395476D01*
X144678095Y-141319285D01*
X144640000Y-141243095D01*
X144601904Y-141205000D01*
X144525714Y-141166904D01*
X144335238Y-141166904D01*
X144220952Y-141205000D01*
X143954285Y-141166904D02*
X143763809Y-141966904D01*
X143611428Y-141395476D01*
X143459047Y-141966904D01*
X143268571Y-141166904D01*
X142620952Y-141433571D02*
X142620952Y-141966904D01*
X142811428Y-141128809D02*
X143001904Y-141700238D01*
X142506666Y-141700238D01*
X142392380Y-142043095D02*
X141782857Y-142043095D01*
X141630476Y-141928809D02*
X141516190Y-141966904D01*
X141325714Y-141966904D01*
X141249523Y-141928809D01*
X141211428Y-141890714D01*
X141173333Y-141814523D01*
X141173333Y-141738333D01*
X141211428Y-141662142D01*
X141249523Y-141624047D01*
X141325714Y-141585952D01*
X141478095Y-141547857D01*
X141554285Y-141509761D01*
X141592380Y-141471666D01*
X141630476Y-141395476D01*
X141630476Y-141319285D01*
X141592380Y-141243095D01*
X141554285Y-141205000D01*
X141478095Y-141166904D01*
X141287619Y-141166904D01*
X141173333Y-141205000D01*
X140830476Y-141547857D02*
X140563809Y-141547857D01*
X140449523Y-141966904D02*
X140830476Y-141966904D01*
X140830476Y-141166904D01*
X140449523Y-141166904D01*
X139725714Y-141966904D02*
X140106666Y-141966904D01*
X140106666Y-141166904D01*
D10*
X114633333Y-97647380D02*
X114633333Y-98361666D01*
X114680952Y-98504523D01*
X114776190Y-98599761D01*
X114919047Y-98647380D01*
X115014285Y-98647380D01*
X114252380Y-97647380D02*
X113585714Y-97647380D01*
X114014285Y-98647380D01*
X110847142Y-108656904D02*
X110894761Y-108609285D01*
X110942380Y-108466428D01*
X110942380Y-108371190D01*
X110894761Y-108228333D01*
X110799523Y-108133095D01*
X110704285Y-108085476D01*
X110513809Y-108037857D01*
X110370952Y-108037857D01*
X110180476Y-108085476D01*
X110085238Y-108133095D01*
X109990000Y-108228333D01*
X109942380Y-108371190D01*
X109942380Y-108466428D01*
X109990000Y-108609285D01*
X110037619Y-108656904D01*
X110942380Y-109228333D02*
X110894761Y-109133095D01*
X110847142Y-109085476D01*
X110751904Y-109037857D01*
X110466190Y-109037857D01*
X110370952Y-109085476D01*
X110323333Y-109133095D01*
X110275714Y-109228333D01*
X110275714Y-109371190D01*
X110323333Y-109466428D01*
X110370952Y-109514047D01*
X110466190Y-109561666D01*
X110751904Y-109561666D01*
X110847142Y-109514047D01*
X110894761Y-109466428D01*
X110942380Y-109371190D01*
X110942380Y-109228333D01*
X110275714Y-109990238D02*
X110942380Y-109990238D01*
X110370952Y-109990238D02*
X110323333Y-110037857D01*
X110275714Y-110133095D01*
X110275714Y-110275952D01*
X110323333Y-110371190D01*
X110418571Y-110418809D01*
X110942380Y-110418809D01*
X110275714Y-110895000D02*
X110942380Y-110895000D01*
X110370952Y-110895000D02*
X110323333Y-110942619D01*
X110275714Y-111037857D01*
X110275714Y-111180714D01*
X110323333Y-111275952D01*
X110418571Y-111323571D01*
X110942380Y-111323571D01*
X111037619Y-111561666D02*
X111037619Y-112323571D01*
X110418571Y-112561666D02*
X110418571Y-112895000D01*
X110942380Y-113037857D02*
X110942380Y-112561666D01*
X109942380Y-112561666D01*
X109942380Y-113037857D01*
X110942380Y-113371190D02*
X110275714Y-113895000D01*
X110275714Y-113371190D02*
X110942380Y-113895000D01*
X110275714Y-114133095D02*
X110275714Y-114514047D01*
X109942380Y-114275952D02*
X110799523Y-114275952D01*
X110894761Y-114323571D01*
X110942380Y-114418809D01*
X110942380Y-114514047D01*
X110942380Y-114847380D02*
X110275714Y-114847380D01*
X110466190Y-114847380D02*
X110370952Y-114895000D01*
X110323333Y-114942619D01*
X110275714Y-115037857D01*
X110275714Y-115133095D01*
X110942380Y-115895000D02*
X110418571Y-115895000D01*
X110323333Y-115847380D01*
X110275714Y-115752142D01*
X110275714Y-115561666D01*
X110323333Y-115466428D01*
X110894761Y-115895000D02*
X110942380Y-115799761D01*
X110942380Y-115561666D01*
X110894761Y-115466428D01*
X110799523Y-115418809D01*
X110704285Y-115418809D01*
X110609047Y-115466428D01*
X110561428Y-115561666D01*
X110561428Y-115799761D01*
X110513809Y-115895000D01*
X110894761Y-116323571D02*
X110942380Y-116418809D01*
X110942380Y-116609285D01*
X110894761Y-116704523D01*
X110799523Y-116752142D01*
X110751904Y-116752142D01*
X110656666Y-116704523D01*
X110609047Y-116609285D01*
X110609047Y-116466428D01*
X110561428Y-116371190D01*
X110466190Y-116323571D01*
X110418571Y-116323571D01*
X110323333Y-116371190D01*
X110275714Y-116466428D01*
X110275714Y-116609285D01*
X110323333Y-116704523D01*
X93999380Y-73461666D02*
X94713666Y-73461666D01*
X94856523Y-73414047D01*
X94951761Y-73318809D01*
X94999380Y-73175952D01*
X94999380Y-73080714D01*
X94999380Y-73937857D02*
X93999380Y-73937857D01*
X93999380Y-74318809D01*
X94047000Y-74414047D01*
X94094619Y-74461666D01*
X94189857Y-74509285D01*
X94332714Y-74509285D01*
X94427952Y-74461666D01*
X94475571Y-74414047D01*
X94523190Y-74318809D01*
X94523190Y-73937857D01*
X94332714Y-75366428D02*
X94999380Y-75366428D01*
X93951761Y-75128333D02*
X94666047Y-74890238D01*
X94666047Y-75509285D01*
X96037476Y-77287380D02*
X96370809Y-76811190D01*
X96608904Y-77287380D02*
X96608904Y-76287380D01*
X96227952Y-76287380D01*
X96132714Y-76335000D01*
X96085095Y-76382619D01*
X96037476Y-76477857D01*
X96037476Y-76620714D01*
X96085095Y-76715952D01*
X96132714Y-76763571D01*
X96227952Y-76811190D01*
X96608904Y-76811190D01*
X97809380Y-73461666D02*
X98523666Y-73461666D01*
X98666523Y-73414047D01*
X98761761Y-73318809D01*
X98809380Y-73175952D01*
X98809380Y-73080714D01*
X98809380Y-73937857D02*
X97809380Y-73937857D01*
X97809380Y-74318809D01*
X97857000Y-74414047D01*
X97904619Y-74461666D01*
X97999857Y-74509285D01*
X98142714Y-74509285D01*
X98237952Y-74461666D01*
X98285571Y-74414047D01*
X98333190Y-74318809D01*
X98333190Y-73937857D01*
X97809380Y-75414047D02*
X97809380Y-74937857D01*
X98285571Y-74890238D01*
X98237952Y-74937857D01*
X98190333Y-75033095D01*
X98190333Y-75271190D01*
X98237952Y-75366428D01*
X98285571Y-75414047D01*
X98380809Y-75461666D01*
X98618904Y-75461666D01*
X98714142Y-75414047D01*
X98761761Y-75366428D01*
X98809380Y-75271190D01*
X98809380Y-75033095D01*
X98761761Y-74937857D01*
X98714142Y-74890238D01*
X99895095Y-76335000D02*
X99990333Y-76287380D01*
X100133190Y-76287380D01*
X100276047Y-76335000D01*
X100371285Y-76430238D01*
X100418904Y-76525476D01*
X100466523Y-76715952D01*
X100466523Y-76858809D01*
X100418904Y-77049285D01*
X100371285Y-77144523D01*
X100276047Y-77239761D01*
X100133190Y-77287380D01*
X100037952Y-77287380D01*
X99895095Y-77239761D01*
X99847476Y-77192142D01*
X99847476Y-76858809D01*
X100037952Y-76858809D01*
X90189380Y-73461666D02*
X90903666Y-73461666D01*
X91046523Y-73414047D01*
X91141761Y-73318809D01*
X91189380Y-73175952D01*
X91189380Y-73080714D01*
X91189380Y-73937857D02*
X90189380Y-73937857D01*
X90189380Y-74318809D01*
X90237000Y-74414047D01*
X90284619Y-74461666D01*
X90379857Y-74509285D01*
X90522714Y-74509285D01*
X90617952Y-74461666D01*
X90665571Y-74414047D01*
X90713190Y-74318809D01*
X90713190Y-73937857D01*
X90189380Y-75366428D02*
X90189380Y-75175952D01*
X90237000Y-75080714D01*
X90284619Y-75033095D01*
X90427476Y-74937857D01*
X90617952Y-74890238D01*
X90998904Y-74890238D01*
X91094142Y-74937857D01*
X91141761Y-74985476D01*
X91189380Y-75080714D01*
X91189380Y-75271190D01*
X91141761Y-75366428D01*
X91094142Y-75414047D01*
X90998904Y-75461666D01*
X90760809Y-75461666D01*
X90665571Y-75414047D01*
X90617952Y-75366428D01*
X90570333Y-75271190D01*
X90570333Y-75080714D01*
X90617952Y-74985476D01*
X90665571Y-74937857D01*
X90760809Y-74890238D01*
X92227476Y-77287380D02*
X92703666Y-77287380D01*
X92703666Y-76287380D01*
M02*
