G04 #@! TF.GenerationSoftware,KiCad,Pcbnew,(5.1.8)-1*
G04 #@! TF.CreationDate,2022-02-18T00:10:44+01:00*
G04 #@! TF.ProjectId,BulkyMIDI-32 Module,42756c6b-794d-4494-9449-2d3332204d6f,rev?*
G04 #@! TF.SameCoordinates,Original*
G04 #@! TF.FileFunction,OtherDrawing,Comment*
%FSLAX46Y46*%
G04 Gerber Fmt 4.6, Leading zero omitted, Abs format (unit mm)*
G04 Created by KiCad (PCBNEW (5.1.8)-1) date 2022-02-18 00:10:44*
%MOMM*%
%LPD*%
G01*
G04 APERTURE LIST*
%ADD10C,0.050000*%
%ADD11C,0.150000*%
G04 APERTURE END LIST*
D10*
X153114000Y-169566000D02*
X153114000Y-154566000D01*
X147114000Y-169566000D02*
X147114000Y-154566000D01*
X147114000Y-169566000D02*
X153114000Y-169566000D01*
X153464000Y-154566000D02*
X153464000Y-146266000D01*
X146764000Y-154566000D02*
X146764000Y-146266000D01*
X146764000Y-154566000D02*
X153464000Y-154566000D01*
X156014000Y-146266000D02*
X156014000Y-142266000D01*
X144214000Y-146266000D02*
X144214000Y-142266000D01*
X144214000Y-146266000D02*
X156014000Y-146266000D01*
X153014000Y-140462000D02*
X153014000Y-142266000D01*
X147214000Y-140462000D02*
X147214000Y-142266000D01*
X140589000Y-142266000D02*
X159639000Y-142266000D01*
X140589000Y-140462000D02*
X159639000Y-140462000D01*
X159639000Y-140488000D02*
X159639000Y-142266000D01*
X140589000Y-140488000D02*
X140589000Y-142266000D01*
D11*
X110744000Y-149860000D02*
X110744000Y-127085000D01*
X77724000Y-149860000D02*
X110744000Y-149860000D01*
X77724000Y-127085000D02*
X77724000Y-149860000D01*
X110744000Y-127085000D02*
X77724000Y-127085000D01*
X101234000Y-127085000D02*
X101234000Y-121685000D01*
X87234000Y-127085000D02*
X87234000Y-121685000D01*
M02*
