G04 #@! TF.GenerationSoftware,KiCad,Pcbnew,(5.1.8)-1*
G04 #@! TF.CreationDate,2022-02-18T23:46:38+01:00*
G04 #@! TF.ProjectId,BulkyMIDI-32 Module,42756c6b-794d-4494-9449-2d3332204d6f,rev?*
G04 #@! TF.SameCoordinates,Original*
G04 #@! TF.FileFunction,Soldermask,Bot*
G04 #@! TF.FilePolarity,Negative*
%FSLAX46Y46*%
G04 Gerber Fmt 4.6, Leading zero omitted, Abs format (unit mm)*
G04 Created by KiCad (PCBNEW (5.1.8)-1) date 2022-02-18 23:46:38*
%MOMM*%
%LPD*%
G01*
G04 APERTURE LIST*
%ADD10O,1.700000X1.700000*%
%ADD11R,1.700000X1.700000*%
%ADD12C,5.100000*%
%ADD13O,1.800000X2.400000*%
%ADD14O,2.400000X1.800000*%
%ADD15C,1.727200*%
%ADD16R,1.727200X1.727200*%
%ADD17R,3.500000X3.500000*%
%ADD18C,1.700000*%
%ADD19C,1.600000*%
%ADD20R,1.600000X1.600000*%
%ADD21O,1.600000X1.600000*%
%ADD22C,2.100000*%
%ADD23C,1.750000*%
%ADD24C,0.100000*%
%ADD25R,1.000000X1.500000*%
G04 APERTURE END LIST*
D10*
X156210000Y-88265000D03*
X158750000Y-90805000D03*
X143510000Y-90805000D03*
X143510000Y-88265000D03*
X158750000Y-88265000D03*
X156210000Y-90805000D03*
X161290000Y-88265000D03*
D11*
X161290000Y-90805000D03*
D10*
X133350000Y-90805000D03*
X133350000Y-88265000D03*
X148590000Y-90805000D03*
X148590000Y-88265000D03*
X128270000Y-90805000D03*
X128270000Y-88265000D03*
X146050000Y-90805000D03*
X146050000Y-88265000D03*
X151130000Y-90805000D03*
X151130000Y-88265000D03*
X138430000Y-90805000D03*
X138430000Y-88265000D03*
X115570000Y-90805000D03*
X115570000Y-88265000D03*
X120650000Y-90805000D03*
X120650000Y-88265000D03*
X118110000Y-90805000D03*
X118110000Y-88265000D03*
X140970000Y-90805000D03*
X140970000Y-88265000D03*
X123190000Y-90805000D03*
X123190000Y-88265000D03*
X153670000Y-90805000D03*
X153670000Y-88265000D03*
X125730000Y-90805000D03*
X125730000Y-88265000D03*
X135890000Y-90805000D03*
X135890000Y-88265000D03*
X130810000Y-90805000D03*
X130810000Y-88265000D03*
X113030000Y-90805000D03*
X113030000Y-88265000D03*
D12*
X108160000Y-138535000D03*
X166160000Y-138535000D03*
D13*
X132715000Y-67310000D03*
D14*
X127715000Y-57310000D03*
X137715000Y-57310000D03*
D13*
X125215000Y-67310000D03*
X140215000Y-67310000D03*
X127715000Y-69810000D03*
X137715000Y-69810000D03*
X153035000Y-67310000D03*
D14*
X148035000Y-57310000D03*
X158035000Y-57310000D03*
D13*
X145535000Y-67310000D03*
X160535000Y-67310000D03*
X148035000Y-69810000D03*
X158035000Y-69810000D03*
D10*
X72085000Y-85725000D03*
X72085000Y-83185000D03*
X72085000Y-80645000D03*
X72085000Y-78105000D03*
X72085000Y-75565000D03*
X72085000Y-73025000D03*
X72085000Y-70485000D03*
X72085000Y-67945000D03*
X72085000Y-65405000D03*
D11*
X72085000Y-62865000D03*
D15*
X90424000Y-153035000D03*
X92964000Y-153035000D03*
X95504000Y-153035000D03*
D16*
X98044000Y-153035000D03*
D12*
X73355000Y-151435000D03*
X167005000Y-151435000D03*
X167005000Y-57785000D03*
X73355000Y-57785000D03*
D17*
X78485000Y-65580000D03*
X83185000Y-62580000D03*
X83185000Y-68580000D03*
D18*
X112857000Y-70231000D03*
X110317000Y-70231000D03*
X107777000Y-70231000D03*
X105237000Y-70231000D03*
X102697000Y-70231000D03*
X100157000Y-70231000D03*
X97617000Y-70231000D03*
X95077000Y-70231000D03*
X92537000Y-70231000D03*
X119207000Y-69596000D03*
X119207000Y-67056000D03*
X119207000Y-64516000D03*
X119207000Y-61976000D03*
X119207000Y-59436000D03*
X119207000Y-56896000D03*
D19*
X120015000Y-82470000D03*
X120015000Y-77470000D03*
X109220000Y-73660000D03*
X109220000Y-78660000D03*
D20*
X114300000Y-74930000D03*
D19*
X114300000Y-77430000D03*
D20*
X83185000Y-73660000D03*
D19*
X83185000Y-77160000D03*
D20*
X132715000Y-83820000D03*
D21*
X132715000Y-76200000D03*
D11*
X159385000Y-111125000D03*
D10*
X159385000Y-113665000D03*
X159385000Y-116205000D03*
X159385000Y-118745000D03*
D21*
X167005000Y-73025000D03*
D19*
X167005000Y-62865000D03*
X146050000Y-76200000D03*
D21*
X135890000Y-76200000D03*
X135890000Y-80010000D03*
D19*
X146050000Y-80010000D03*
X146050000Y-83820000D03*
D21*
X135890000Y-83820000D03*
X149225000Y-106680000D03*
D19*
X149225000Y-96520000D03*
X153035000Y-96520000D03*
D21*
X153035000Y-106680000D03*
D22*
X129495000Y-149280000D03*
D23*
X130755000Y-151770000D03*
X135255000Y-151770000D03*
D22*
X136505000Y-149280000D03*
X140925000Y-149280000D03*
D23*
X142185000Y-151770000D03*
X146685000Y-151770000D03*
D22*
X147935000Y-149280000D03*
D20*
X152400000Y-83820000D03*
D21*
X167640000Y-76200000D03*
X154940000Y-83820000D03*
X165100000Y-76200000D03*
X157480000Y-83820000D03*
X162560000Y-76200000D03*
X160020000Y-83820000D03*
X160020000Y-76200000D03*
X162560000Y-83820000D03*
X157480000Y-76200000D03*
X165100000Y-83820000D03*
X154940000Y-76200000D03*
X167640000Y-83820000D03*
X152400000Y-76200000D03*
D20*
X123952000Y-83820000D03*
D21*
X129032000Y-76200000D03*
X126492000Y-83820000D03*
X126492000Y-76200000D03*
X129032000Y-83820000D03*
X123952000Y-76200000D03*
D22*
X118065000Y-149280000D03*
D23*
X119325000Y-151770000D03*
X123825000Y-151770000D03*
D22*
X125075000Y-149280000D03*
X152355000Y-149280000D03*
D23*
X153615000Y-151770000D03*
X158115000Y-151770000D03*
D22*
X159365000Y-149280000D03*
D11*
X159385000Y-123190000D03*
D10*
X159385000Y-125730000D03*
X159385000Y-128270000D03*
X159385000Y-130810000D03*
X159385000Y-133350000D03*
D19*
X149225000Y-77470000D03*
X149225000Y-82470000D03*
D11*
X159385000Y-96520000D03*
D10*
X159385000Y-99060000D03*
X159385000Y-101600000D03*
X159385000Y-104140000D03*
X159385000Y-106680000D03*
D24*
G36*
X101715000Y-149110000D02*
G01*
X102265000Y-149110000D01*
X102265000Y-149110602D01*
X102289534Y-149110602D01*
X102338365Y-149115412D01*
X102386490Y-149124984D01*
X102433445Y-149139228D01*
X102478778Y-149158005D01*
X102522051Y-149181136D01*
X102562850Y-149208396D01*
X102600779Y-149239524D01*
X102635476Y-149274221D01*
X102666604Y-149312150D01*
X102693864Y-149352949D01*
X102716995Y-149396222D01*
X102735772Y-149441555D01*
X102750016Y-149488510D01*
X102759588Y-149536635D01*
X102764398Y-149585466D01*
X102764398Y-149610000D01*
X102765000Y-149610000D01*
X102765000Y-150110000D01*
X102764398Y-150110000D01*
X102764398Y-150134534D01*
X102759588Y-150183365D01*
X102750016Y-150231490D01*
X102735772Y-150278445D01*
X102716995Y-150323778D01*
X102693864Y-150367051D01*
X102666604Y-150407850D01*
X102635476Y-150445779D01*
X102600779Y-150480476D01*
X102562850Y-150511604D01*
X102522051Y-150538864D01*
X102478778Y-150561995D01*
X102433445Y-150580772D01*
X102386490Y-150595016D01*
X102338365Y-150604588D01*
X102289534Y-150609398D01*
X102265000Y-150609398D01*
X102265000Y-150610000D01*
X101715000Y-150610000D01*
X101715000Y-149110000D01*
G37*
G36*
X99665000Y-150609398D02*
G01*
X99640466Y-150609398D01*
X99591635Y-150604588D01*
X99543510Y-150595016D01*
X99496555Y-150580772D01*
X99451222Y-150561995D01*
X99407949Y-150538864D01*
X99367150Y-150511604D01*
X99329221Y-150480476D01*
X99294524Y-150445779D01*
X99263396Y-150407850D01*
X99236136Y-150367051D01*
X99213005Y-150323778D01*
X99194228Y-150278445D01*
X99179984Y-150231490D01*
X99170412Y-150183365D01*
X99165602Y-150134534D01*
X99165602Y-150110000D01*
X99165000Y-150110000D01*
X99165000Y-149610000D01*
X99165602Y-149610000D01*
X99165602Y-149585466D01*
X99170412Y-149536635D01*
X99179984Y-149488510D01*
X99194228Y-149441555D01*
X99213005Y-149396222D01*
X99236136Y-149352949D01*
X99263396Y-149312150D01*
X99294524Y-149274221D01*
X99329221Y-149239524D01*
X99367150Y-149208396D01*
X99407949Y-149181136D01*
X99451222Y-149158005D01*
X99496555Y-149139228D01*
X99543510Y-149124984D01*
X99591635Y-149115412D01*
X99640466Y-149110602D01*
X99665000Y-149110602D01*
X99665000Y-149110000D01*
X100215000Y-149110000D01*
X100215000Y-150610000D01*
X99665000Y-150610000D01*
X99665000Y-150609398D01*
G37*
D25*
X100965000Y-149860000D03*
X95885000Y-149860000D03*
D24*
G36*
X94585000Y-150609398D02*
G01*
X94560466Y-150609398D01*
X94511635Y-150604588D01*
X94463510Y-150595016D01*
X94416555Y-150580772D01*
X94371222Y-150561995D01*
X94327949Y-150538864D01*
X94287150Y-150511604D01*
X94249221Y-150480476D01*
X94214524Y-150445779D01*
X94183396Y-150407850D01*
X94156136Y-150367051D01*
X94133005Y-150323778D01*
X94114228Y-150278445D01*
X94099984Y-150231490D01*
X94090412Y-150183365D01*
X94085602Y-150134534D01*
X94085602Y-150110000D01*
X94085000Y-150110000D01*
X94085000Y-149610000D01*
X94085602Y-149610000D01*
X94085602Y-149585466D01*
X94090412Y-149536635D01*
X94099984Y-149488510D01*
X94114228Y-149441555D01*
X94133005Y-149396222D01*
X94156136Y-149352949D01*
X94183396Y-149312150D01*
X94214524Y-149274221D01*
X94249221Y-149239524D01*
X94287150Y-149208396D01*
X94327949Y-149181136D01*
X94371222Y-149158005D01*
X94416555Y-149139228D01*
X94463510Y-149124984D01*
X94511635Y-149115412D01*
X94560466Y-149110602D01*
X94585000Y-149110602D01*
X94585000Y-149110000D01*
X95135000Y-149110000D01*
X95135000Y-150610000D01*
X94585000Y-150610000D01*
X94585000Y-150609398D01*
G37*
G36*
X96635000Y-149110000D02*
G01*
X97185000Y-149110000D01*
X97185000Y-149110602D01*
X97209534Y-149110602D01*
X97258365Y-149115412D01*
X97306490Y-149124984D01*
X97353445Y-149139228D01*
X97398778Y-149158005D01*
X97442051Y-149181136D01*
X97482850Y-149208396D01*
X97520779Y-149239524D01*
X97555476Y-149274221D01*
X97586604Y-149312150D01*
X97613864Y-149352949D01*
X97636995Y-149396222D01*
X97655772Y-149441555D01*
X97670016Y-149488510D01*
X97679588Y-149536635D01*
X97684398Y-149585466D01*
X97684398Y-149610000D01*
X97685000Y-149610000D01*
X97685000Y-150110000D01*
X97684398Y-150110000D01*
X97684398Y-150134534D01*
X97679588Y-150183365D01*
X97670016Y-150231490D01*
X97655772Y-150278445D01*
X97636995Y-150323778D01*
X97613864Y-150367051D01*
X97586604Y-150407850D01*
X97555476Y-150445779D01*
X97520779Y-150480476D01*
X97482850Y-150511604D01*
X97442051Y-150538864D01*
X97398778Y-150561995D01*
X97353445Y-150580772D01*
X97306490Y-150595016D01*
X97258365Y-150604588D01*
X97209534Y-150609398D01*
X97185000Y-150609398D01*
X97185000Y-150610000D01*
X96635000Y-150610000D01*
X96635000Y-149110000D01*
G37*
G36*
X142990000Y-142760000D02*
G01*
X143540000Y-142760000D01*
X143540000Y-142760602D01*
X143564534Y-142760602D01*
X143613365Y-142765412D01*
X143661490Y-142774984D01*
X143708445Y-142789228D01*
X143753778Y-142808005D01*
X143797051Y-142831136D01*
X143837850Y-142858396D01*
X143875779Y-142889524D01*
X143910476Y-142924221D01*
X143941604Y-142962150D01*
X143968864Y-143002949D01*
X143991995Y-143046222D01*
X144010772Y-143091555D01*
X144025016Y-143138510D01*
X144034588Y-143186635D01*
X144039398Y-143235466D01*
X144039398Y-143260000D01*
X144040000Y-143260000D01*
X144040000Y-143760000D01*
X144039398Y-143760000D01*
X144039398Y-143784534D01*
X144034588Y-143833365D01*
X144025016Y-143881490D01*
X144010772Y-143928445D01*
X143991995Y-143973778D01*
X143968864Y-144017051D01*
X143941604Y-144057850D01*
X143910476Y-144095779D01*
X143875779Y-144130476D01*
X143837850Y-144161604D01*
X143797051Y-144188864D01*
X143753778Y-144211995D01*
X143708445Y-144230772D01*
X143661490Y-144245016D01*
X143613365Y-144254588D01*
X143564534Y-144259398D01*
X143540000Y-144259398D01*
X143540000Y-144260000D01*
X142990000Y-144260000D01*
X142990000Y-142760000D01*
G37*
G36*
X140940000Y-144259398D02*
G01*
X140915466Y-144259398D01*
X140866635Y-144254588D01*
X140818510Y-144245016D01*
X140771555Y-144230772D01*
X140726222Y-144211995D01*
X140682949Y-144188864D01*
X140642150Y-144161604D01*
X140604221Y-144130476D01*
X140569524Y-144095779D01*
X140538396Y-144057850D01*
X140511136Y-144017051D01*
X140488005Y-143973778D01*
X140469228Y-143928445D01*
X140454984Y-143881490D01*
X140445412Y-143833365D01*
X140440602Y-143784534D01*
X140440602Y-143760000D01*
X140440000Y-143760000D01*
X140440000Y-143260000D01*
X140440602Y-143260000D01*
X140440602Y-143235466D01*
X140445412Y-143186635D01*
X140454984Y-143138510D01*
X140469228Y-143091555D01*
X140488005Y-143046222D01*
X140511136Y-143002949D01*
X140538396Y-142962150D01*
X140569524Y-142924221D01*
X140604221Y-142889524D01*
X140642150Y-142858396D01*
X140682949Y-142831136D01*
X140726222Y-142808005D01*
X140771555Y-142789228D01*
X140818510Y-142774984D01*
X140866635Y-142765412D01*
X140915466Y-142760602D01*
X140940000Y-142760602D01*
X140940000Y-142760000D01*
X141490000Y-142760000D01*
X141490000Y-144260000D01*
X140940000Y-144260000D01*
X140940000Y-144259398D01*
G37*
D25*
X142240000Y-143510000D03*
D11*
X113030000Y-100965000D03*
D10*
X115570000Y-100965000D03*
X113030000Y-103505000D03*
X115570000Y-103505000D03*
X113030000Y-106045000D03*
X115570000Y-106045000D03*
X113030000Y-108585000D03*
X115570000Y-108585000D03*
X113030000Y-111125000D03*
X115570000Y-111125000D03*
X113030000Y-113665000D03*
X115570000Y-113665000D03*
X113030000Y-116205000D03*
X115570000Y-116205000D03*
X113030000Y-118745000D03*
X115570000Y-118745000D03*
X113030000Y-121285000D03*
X115570000Y-121285000D03*
X113030000Y-123825000D03*
X115570000Y-123825000D03*
D24*
G36*
X95597000Y-75520000D02*
G01*
X95597000Y-74370000D01*
X96347000Y-74870000D01*
X97097000Y-74370000D01*
X97097000Y-75520000D01*
X95597000Y-75520000D01*
G37*
G36*
X96347000Y-74570000D02*
G01*
X95597000Y-74070000D01*
X95597000Y-73070000D01*
X97097000Y-73070000D01*
X97097000Y-74070000D01*
X96347000Y-74570000D01*
G37*
G36*
X100157000Y-74570000D02*
G01*
X99407000Y-74070000D01*
X99407000Y-73070000D01*
X100907000Y-73070000D01*
X100907000Y-74070000D01*
X100157000Y-74570000D01*
G37*
G36*
X99407000Y-75520000D02*
G01*
X99407000Y-74370000D01*
X100157000Y-74870000D01*
X100907000Y-74370000D01*
X100907000Y-75520000D01*
X99407000Y-75520000D01*
G37*
G36*
X91787000Y-75520000D02*
G01*
X91787000Y-74370000D01*
X92537000Y-74870000D01*
X93287000Y-74370000D01*
X93287000Y-75520000D01*
X91787000Y-75520000D01*
G37*
G36*
X92537000Y-74570000D02*
G01*
X91787000Y-74070000D01*
X91787000Y-73070000D01*
X93287000Y-73070000D01*
X93287000Y-74070000D01*
X92537000Y-74570000D01*
G37*
M02*
