M48
INCH,TZ
T1C0.0157
T2C0.0315
T3C0.0354
T4C0.0390
T5C0.0394
T6C0.0400
T7C0.0512
%
G90
G05
T1
X35600Y-57800
X36500Y-56250
X36600Y-57800
X37250Y-56000
X43300Y-34000
X45750Y-55500
X46500Y-34000
X48000Y-56750
X48000Y-57750
X50800Y-30850
X51500Y-30250
X52250Y-30750
X52500Y-57000
X52500Y-57750
X53701Y-28951
X53875Y-32100
X54299Y-29549
X54500Y-31750
X54988Y-57000
X55325Y-32100
X55750Y-44500
X55750Y-45250
X55750Y-50500
X55750Y-51500
X55750Y-52500
X56000Y-37522
X56000Y-41500
X56250Y-41750
X56250Y-57750
X56500Y-37522
X56500Y-40500
X56500Y-50500
X56750Y-39750
X57000Y-39000
X57250Y-51500
X57250Y-56500
X57500Y-52500
X57750Y-39750
X57750Y-40250
X57750Y-50500
X57750Y-51500
X58250Y-36478
X58750Y-36803
X59500Y-45250
X59750Y-39750
X59750Y-44500
X60250Y-34000
X60750Y-39250
X61500Y-38250
X61750Y-38050
X64250Y-38000
T2
X53500Y-33000
X57500Y-33000
X45000Y-29500
X45000Y-30484
X32750Y-29000
X32750Y-30378
X65750Y-24750
X65750Y-28750
X58750Y-38000
X58750Y-42000
X43000Y-29000
X43000Y-30969
X52250Y-30000
X52250Y-33000
X47250Y-30500
X47250Y-32469
X60250Y-38000
X60250Y-42000
X60000Y-30000
X60000Y-33000
X61000Y-30000
X61000Y-33000
X62000Y-30000
X62000Y-33000
X63000Y-30000
X63000Y-33000
X64000Y-30000
X64000Y-33000
X65000Y-30000
X65000Y-33000
X66000Y-30000
X66000Y-33000
X58750Y-30500
X58750Y-32469
X48800Y-30000
X48800Y-33000
X49800Y-30000
X49800Y-33000
X50800Y-30000
X50800Y-33000
X53500Y-31500
X57500Y-31500
X53500Y-30000
X57500Y-30000
T4
X60478Y-59752
X62250Y-59752
X55978Y-59752
X57750Y-59752
X51478Y-59752
X53250Y-59752
X46978Y-59752
X48750Y-59752
T5
X36432Y-27650
X37432Y-27650
X38432Y-27650
X39432Y-27650
X40432Y-27650
X41432Y-27650
X42432Y-27650
X43432Y-27650
X44432Y-27650
X46932Y-22400
X46932Y-23400
X46932Y-24400
X46932Y-25400
X46932Y-26400
X46932Y-27400
X44500Y-34750
X44500Y-35750
X45500Y-34750
X45500Y-35750
X46500Y-34750
X46500Y-35750
X47500Y-34750
X47500Y-35750
X48500Y-34750
X48500Y-35750
X49500Y-34750
X49500Y-35750
X50500Y-34750
X50500Y-35750
X51500Y-34750
X51500Y-35750
X52500Y-34750
X52500Y-35750
X53500Y-34750
X53500Y-35750
X54500Y-34750
X54500Y-35750
X55500Y-34750
X55500Y-35750
X56500Y-34750
X56500Y-35750
X57500Y-34750
X57500Y-35750
X58500Y-34750
X58500Y-35750
X59500Y-34750
X59500Y-35750
X60500Y-34750
X60500Y-35750
X61500Y-34750
X61500Y-35750
X62500Y-34750
X62500Y-35750
X63500Y-34750
X63500Y-35750
X62750Y-48500
X62750Y-49500
X62750Y-50500
X62750Y-51500
X62750Y-52500
X28380Y-24750
X28380Y-25750
X28380Y-26750
X28380Y-27750
X28380Y-28750
X28380Y-29750
X28380Y-30750
X28380Y-31750
X28380Y-32750
X28380Y-33750
X62750Y-43750
X62750Y-44750
X62750Y-45750
X62750Y-46750
X62750Y-38000
X62750Y-39000
X62750Y-40000
X62750Y-41000
X62750Y-42000
X44500Y-39750
X44500Y-40750
X44500Y-41750
X44500Y-42750
X44500Y-43750
X44500Y-44750
X44500Y-45750
X44500Y-46750
X44500Y-47750
X44500Y-48750
X45500Y-39750
X45500Y-40750
X45500Y-41750
X45500Y-42750
X45500Y-43750
X45500Y-44750
X45500Y-45750
X45500Y-46750
X45500Y-47750
X45500Y-48750
T6
X35600Y-60250
X36600Y-60250
X37600Y-60250
X38600Y-60250
T7
X46482Y-58772
X49242Y-58772
X59982Y-58772
X62742Y-58772
X55482Y-58772
X58242Y-58772
X50982Y-58772
X53742Y-58772
T3
G00X57297Y-26618
M15
G01X57297Y-26382
M16
G05
G00X58281Y-27602
M15
G01X58281Y-27366
M16
G05
G00X60250Y-26618
M15
G01X60250Y-26382
M16
G05
G00X62219Y-27602
M15
G01X62219Y-27366
M16
G05
G00X63203Y-26618
M15
G01X63203Y-26382
M16
G05
G00X49297Y-26618
M15
G01X49297Y-26382
M16
G05
G00X50281Y-27602
M15
G01X50281Y-27366
M16
G05
G00X52250Y-26618
M15
G01X52250Y-26382
M16
G05
G00X54219Y-27602
M15
G01X54219Y-27366
M16
G05
G00X55203Y-26618
M15
G01X55203Y-26382
M16
G05
T5
G00X30900Y-25425
M15
G01X30900Y-26213
M16
G05
G00X33144Y-24638
M15
G01X32356Y-24638
M16
G05
G00X33144Y-27000
M15
G01X32356Y-27000
M16
G05
T0
M30
