G04 #@! TF.GenerationSoftware,KiCad,Pcbnew,(5.1.8)-1*
G04 #@! TF.CreationDate,2022-02-11T22:40:58+01:00*
G04 #@! TF.ProjectId,BulkyMIDI-32 Module,42756c6b-794d-4494-9449-2d3332204d6f,rev?*
G04 #@! TF.SameCoordinates,Original*
G04 #@! TF.FileFunction,Soldermask,Top*
G04 #@! TF.FilePolarity,Negative*
%FSLAX46Y46*%
G04 Gerber Fmt 4.6, Leading zero omitted, Abs format (unit mm)*
G04 Created by KiCad (PCBNEW (5.1.8)-1) date 2022-02-11 22:40:58*
%MOMM*%
%LPD*%
G01*
G04 APERTURE LIST*
%ADD10O,1.700000X1.700000*%
%ADD11R,1.700000X1.700000*%
%ADD12C,5.100000*%
%ADD13O,1.800000X2.400000*%
%ADD14O,2.400000X1.800000*%
%ADD15C,1.727200*%
%ADD16R,1.727200X1.727200*%
%ADD17R,3.500000X3.500000*%
%ADD18C,1.700000*%
%ADD19C,1.600000*%
%ADD20R,1.600000X1.600000*%
%ADD21O,1.600000X1.600000*%
%ADD22C,2.100000*%
%ADD23C,1.750000*%
G04 APERTURE END LIST*
D10*
X156210000Y-88265000D03*
X158750000Y-90805000D03*
X143510000Y-90805000D03*
X143510000Y-88265000D03*
X158750000Y-88265000D03*
X156210000Y-90805000D03*
X161290000Y-88265000D03*
D11*
X161290000Y-90805000D03*
D10*
X133350000Y-90805000D03*
X133350000Y-88265000D03*
X148590000Y-90805000D03*
X148590000Y-88265000D03*
X128270000Y-90805000D03*
X128270000Y-88265000D03*
X146050000Y-90805000D03*
X146050000Y-88265000D03*
X151130000Y-90805000D03*
X151130000Y-88265000D03*
X138430000Y-90805000D03*
X138430000Y-88265000D03*
X115570000Y-90805000D03*
X115570000Y-88265000D03*
X120650000Y-90805000D03*
X120650000Y-88265000D03*
X118110000Y-90805000D03*
X118110000Y-88265000D03*
X140970000Y-90805000D03*
X140970000Y-88265000D03*
X123190000Y-90805000D03*
X123190000Y-88265000D03*
X153670000Y-90805000D03*
X153670000Y-88265000D03*
X125730000Y-90805000D03*
X125730000Y-88265000D03*
X135890000Y-90805000D03*
X135890000Y-88265000D03*
X130810000Y-90805000D03*
X130810000Y-88265000D03*
X113030000Y-90805000D03*
X113030000Y-88265000D03*
D12*
X108160000Y-138535000D03*
X166160000Y-138535000D03*
D13*
X132715000Y-67310000D03*
D14*
X127715000Y-57310000D03*
X137715000Y-57310000D03*
D13*
X125215000Y-67310000D03*
X140215000Y-67310000D03*
X127715000Y-69810000D03*
X137715000Y-69810000D03*
X153035000Y-67310000D03*
D14*
X148035000Y-57310000D03*
X158035000Y-57310000D03*
D13*
X145535000Y-67310000D03*
X160535000Y-67310000D03*
X148035000Y-69810000D03*
X158035000Y-69810000D03*
D10*
X72085000Y-85725000D03*
X72085000Y-83185000D03*
X72085000Y-80645000D03*
X72085000Y-78105000D03*
X72085000Y-75565000D03*
X72085000Y-73025000D03*
X72085000Y-70485000D03*
X72085000Y-67945000D03*
X72085000Y-65405000D03*
D11*
X72085000Y-62865000D03*
D15*
X90424000Y-153035000D03*
X92964000Y-153035000D03*
X95504000Y-153035000D03*
D16*
X98044000Y-153035000D03*
D12*
X73355000Y-151435000D03*
X167005000Y-151435000D03*
X167005000Y-57785000D03*
X73355000Y-57785000D03*
D17*
X78485000Y-65580000D03*
X83185000Y-62580000D03*
X83185000Y-68580000D03*
D18*
X112857000Y-70231000D03*
X110317000Y-70231000D03*
X107777000Y-70231000D03*
X105237000Y-70231000D03*
X102697000Y-70231000D03*
X100157000Y-70231000D03*
X97617000Y-70231000D03*
X95077000Y-70231000D03*
X92537000Y-70231000D03*
X119207000Y-69596000D03*
X119207000Y-67056000D03*
X119207000Y-64516000D03*
X119207000Y-61976000D03*
X119207000Y-59436000D03*
X119207000Y-56896000D03*
D19*
X120015000Y-82470000D03*
X120015000Y-77470000D03*
X109220000Y-73660000D03*
X109220000Y-78660000D03*
D20*
X114300000Y-74930000D03*
D19*
X114300000Y-77430000D03*
D20*
X83185000Y-73660000D03*
D19*
X83185000Y-77160000D03*
D20*
X132715000Y-83820000D03*
D21*
X132715000Y-76200000D03*
D11*
X159385000Y-111125000D03*
D10*
X159385000Y-113665000D03*
X159385000Y-116205000D03*
X159385000Y-118745000D03*
D21*
X167005000Y-73025000D03*
D19*
X167005000Y-62865000D03*
X146050000Y-76200000D03*
D21*
X135890000Y-76200000D03*
X135890000Y-80010000D03*
D19*
X146050000Y-80010000D03*
X146050000Y-83820000D03*
D21*
X135890000Y-83820000D03*
X149225000Y-106680000D03*
D19*
X149225000Y-96520000D03*
X153035000Y-106680000D03*
D21*
X153035000Y-96520000D03*
D22*
X129495000Y-149580000D03*
D23*
X130755000Y-152070000D03*
X135255000Y-152070000D03*
D22*
X136505000Y-149580000D03*
X140925000Y-149580000D03*
D23*
X142185000Y-152070000D03*
X146685000Y-152070000D03*
D22*
X147935000Y-149580000D03*
D20*
X152400000Y-83820000D03*
D21*
X167640000Y-76200000D03*
X154940000Y-83820000D03*
X165100000Y-76200000D03*
X157480000Y-83820000D03*
X162560000Y-76200000D03*
X160020000Y-83820000D03*
X160020000Y-76200000D03*
X162560000Y-83820000D03*
X157480000Y-76200000D03*
X165100000Y-83820000D03*
X154940000Y-76200000D03*
X167640000Y-83820000D03*
X152400000Y-76200000D03*
D20*
X123952000Y-83820000D03*
D21*
X129032000Y-76200000D03*
X126492000Y-83820000D03*
X126492000Y-76200000D03*
X129032000Y-83820000D03*
X123952000Y-76200000D03*
D22*
X118065000Y-149580000D03*
D23*
X119325000Y-152070000D03*
X123825000Y-152070000D03*
D22*
X125075000Y-149580000D03*
X152355000Y-149580000D03*
D23*
X153615000Y-152070000D03*
X158115000Y-152070000D03*
D22*
X159365000Y-149580000D03*
D11*
X159385000Y-123190000D03*
D10*
X159385000Y-125730000D03*
X159385000Y-128270000D03*
X159385000Y-130810000D03*
X159385000Y-133350000D03*
D19*
X149225000Y-77470000D03*
X149225000Y-82470000D03*
D11*
X159385000Y-96520000D03*
D10*
X159385000Y-99060000D03*
X159385000Y-101600000D03*
X159385000Y-104140000D03*
X159385000Y-106680000D03*
M02*
