G04 #@! TF.GenerationSoftware,KiCad,Pcbnew,(5.1.8)-1*
G04 #@! TF.CreationDate,2022-02-12T14:46:48+01:00*
G04 #@! TF.ProjectId,BulkyMIDI-32 Module,42756c6b-794d-4494-9449-2d3332204d6f,rev?*
G04 #@! TF.SameCoordinates,Original*
G04 #@! TF.FileFunction,Copper,L1,Top*
G04 #@! TF.FilePolarity,Positive*
%FSLAX46Y46*%
G04 Gerber Fmt 4.6, Leading zero omitted, Abs format (unit mm)*
G04 Created by KiCad (PCBNEW (5.1.8)-1) date 2022-02-12 14:46:48*
%MOMM*%
%LPD*%
G01*
G04 APERTURE LIST*
G04 #@! TA.AperFunction,ComponentPad*
%ADD10O,1.700000X1.700000*%
G04 #@! TD*
G04 #@! TA.AperFunction,ComponentPad*
%ADD11R,1.700000X1.700000*%
G04 #@! TD*
G04 #@! TA.AperFunction,WasherPad*
%ADD12C,3.500000*%
G04 #@! TD*
G04 #@! TA.AperFunction,ComponentPad*
%ADD13O,1.800000X2.400000*%
G04 #@! TD*
G04 #@! TA.AperFunction,WasherPad*
%ADD14O,2.400000X1.800000*%
G04 #@! TD*
G04 #@! TA.AperFunction,ComponentPad*
%ADD15C,1.727200*%
G04 #@! TD*
G04 #@! TA.AperFunction,ComponentPad*
%ADD16R,1.727200X1.727200*%
G04 #@! TD*
G04 #@! TA.AperFunction,ComponentPad*
%ADD17R,3.500000X3.500000*%
G04 #@! TD*
G04 #@! TA.AperFunction,ComponentPad*
%ADD18C,1.700000*%
G04 #@! TD*
G04 #@! TA.AperFunction,ComponentPad*
%ADD19C,1.600000*%
G04 #@! TD*
G04 #@! TA.AperFunction,ComponentPad*
%ADD20R,1.600000X1.600000*%
G04 #@! TD*
G04 #@! TA.AperFunction,ComponentPad*
%ADD21O,1.600000X1.600000*%
G04 #@! TD*
G04 #@! TA.AperFunction,ComponentPad*
%ADD22C,2.100000*%
G04 #@! TD*
G04 #@! TA.AperFunction,ComponentPad*
%ADD23C,1.750000*%
G04 #@! TD*
G04 #@! TA.AperFunction,ViaPad*
%ADD24C,1.000000*%
G04 #@! TD*
G04 #@! TA.AperFunction,ViaPad*
%ADD25C,0.600000*%
G04 #@! TD*
G04 #@! TA.AperFunction,Conductor*
%ADD26C,0.381000*%
G04 #@! TD*
G04 #@! TA.AperFunction,Conductor*
%ADD27C,0.250000*%
G04 #@! TD*
G04 APERTURE END LIST*
D10*
X156210000Y-88265000D03*
X158750000Y-90805000D03*
X143510000Y-90805000D03*
X143510000Y-88265000D03*
X158750000Y-88265000D03*
X156210000Y-90805000D03*
X161290000Y-88265000D03*
D11*
X161290000Y-90805000D03*
D10*
X133350000Y-90805000D03*
X133350000Y-88265000D03*
X148590000Y-90805000D03*
X148590000Y-88265000D03*
X128270000Y-90805000D03*
X128270000Y-88265000D03*
X146050000Y-90805000D03*
X146050000Y-88265000D03*
X151130000Y-90805000D03*
X151130000Y-88265000D03*
X138430000Y-90805000D03*
X138430000Y-88265000D03*
X115570000Y-90805000D03*
X115570000Y-88265000D03*
X120650000Y-90805000D03*
X120650000Y-88265000D03*
X118110000Y-90805000D03*
X118110000Y-88265000D03*
X140970000Y-90805000D03*
X140970000Y-88265000D03*
X123190000Y-90805000D03*
X123190000Y-88265000D03*
X153670000Y-90805000D03*
X153670000Y-88265000D03*
X125730000Y-90805000D03*
X125730000Y-88265000D03*
X135890000Y-90805000D03*
X135890000Y-88265000D03*
X130810000Y-90805000D03*
X130810000Y-88265000D03*
X113030000Y-90805000D03*
X113030000Y-88265000D03*
D12*
X108160000Y-138535000D03*
X166160000Y-138535000D03*
D13*
X132715000Y-67310000D03*
D14*
X127715000Y-57310000D03*
X137715000Y-57310000D03*
D13*
X125215000Y-67310000D03*
X140215000Y-67310000D03*
X127715000Y-69810000D03*
X137715000Y-69810000D03*
X153035000Y-67310000D03*
D14*
X148035000Y-57310000D03*
X158035000Y-57310000D03*
D13*
X145535000Y-67310000D03*
X160535000Y-67310000D03*
X148035000Y-69810000D03*
X158035000Y-69810000D03*
D10*
X72085000Y-85725000D03*
X72085000Y-83185000D03*
X72085000Y-80645000D03*
X72085000Y-78105000D03*
X72085000Y-75565000D03*
X72085000Y-73025000D03*
X72085000Y-70485000D03*
X72085000Y-67945000D03*
X72085000Y-65405000D03*
D11*
X72085000Y-62865000D03*
D15*
X90424000Y-153035000D03*
X92964000Y-153035000D03*
X95504000Y-153035000D03*
D16*
X98044000Y-153035000D03*
D12*
X73355000Y-151435000D03*
X167005000Y-151435000D03*
X167005000Y-57785000D03*
X73355000Y-57785000D03*
D17*
X78485000Y-65580000D03*
X83185000Y-62580000D03*
X83185000Y-68580000D03*
D18*
X112857000Y-70231000D03*
X110317000Y-70231000D03*
X107777000Y-70231000D03*
X105237000Y-70231000D03*
X102697000Y-70231000D03*
X100157000Y-70231000D03*
X97617000Y-70231000D03*
X95077000Y-70231000D03*
X92537000Y-70231000D03*
X119207000Y-69596000D03*
X119207000Y-67056000D03*
X119207000Y-64516000D03*
X119207000Y-61976000D03*
X119207000Y-59436000D03*
X119207000Y-56896000D03*
D19*
X120015000Y-82470000D03*
X120015000Y-77470000D03*
X109220000Y-73660000D03*
X109220000Y-78660000D03*
D20*
X114300000Y-74930000D03*
D19*
X114300000Y-77430000D03*
D20*
X83185000Y-73660000D03*
D19*
X83185000Y-77160000D03*
D20*
X132715000Y-83820000D03*
D21*
X132715000Y-76200000D03*
D11*
X159385000Y-111125000D03*
D10*
X159385000Y-113665000D03*
X159385000Y-116205000D03*
X159385000Y-118745000D03*
D21*
X167005000Y-73025000D03*
D19*
X167005000Y-62865000D03*
X146050000Y-76200000D03*
D21*
X135890000Y-76200000D03*
X135890000Y-80010000D03*
D19*
X146050000Y-80010000D03*
X146050000Y-83820000D03*
D21*
X135890000Y-83820000D03*
X149225000Y-106680000D03*
D19*
X149225000Y-96520000D03*
X153035000Y-106680000D03*
D21*
X153035000Y-96520000D03*
D22*
X129495000Y-149280000D03*
D23*
X130755000Y-151770000D03*
X135255000Y-151770000D03*
D22*
X136505000Y-149280000D03*
X140925000Y-149280000D03*
D23*
X142185000Y-151770000D03*
X146685000Y-151770000D03*
D22*
X147935000Y-149280000D03*
D20*
X152400000Y-83820000D03*
D21*
X167640000Y-76200000D03*
X154940000Y-83820000D03*
X165100000Y-76200000D03*
X157480000Y-83820000D03*
X162560000Y-76200000D03*
X160020000Y-83820000D03*
X160020000Y-76200000D03*
X162560000Y-83820000D03*
X157480000Y-76200000D03*
X165100000Y-83820000D03*
X154940000Y-76200000D03*
X167640000Y-83820000D03*
X152400000Y-76200000D03*
D20*
X123952000Y-83820000D03*
D21*
X129032000Y-76200000D03*
X126492000Y-83820000D03*
X126492000Y-76200000D03*
X129032000Y-83820000D03*
X123952000Y-76200000D03*
D22*
X118065000Y-149280000D03*
D23*
X119325000Y-151770000D03*
X123825000Y-151770000D03*
D22*
X125075000Y-149280000D03*
X152355000Y-149280000D03*
D23*
X153615000Y-151770000D03*
X158115000Y-151770000D03*
D22*
X159365000Y-149280000D03*
D11*
X159385000Y-123190000D03*
D10*
X159385000Y-125730000D03*
X159385000Y-128270000D03*
X159385000Y-130810000D03*
X159385000Y-133350000D03*
D19*
X149225000Y-77470000D03*
X149225000Y-82470000D03*
D11*
X159385000Y-96520000D03*
D10*
X159385000Y-99060000D03*
X159385000Y-101600000D03*
X159385000Y-104140000D03*
X159385000Y-106680000D03*
D24*
X99060000Y-146875000D03*
X113030000Y-146875000D03*
X114300000Y-141415000D03*
X121920000Y-93345000D03*
X119380000Y-95505500D03*
X163195000Y-96520000D03*
D25*
X94615000Y-142240000D03*
X92964000Y-146811994D03*
X156210000Y-96520000D03*
X146685000Y-100965000D03*
X142240000Y-105410000D03*
X92710000Y-142875000D03*
X90424000Y-146812000D03*
X156845000Y-95885000D03*
X146685000Y-102235000D03*
X142875000Y-106045000D03*
X143510000Y-95305500D03*
X146685000Y-130810000D03*
X145415000Y-130810000D03*
X142240000Y-95305500D03*
X145415000Y-143510000D03*
X121920000Y-144145000D03*
X121920000Y-146685000D03*
X144145000Y-100965000D03*
X130810000Y-76835000D03*
X132715000Y-78105000D03*
X133350000Y-144780000D03*
X133350000Y-146685000D03*
X144780000Y-99060000D03*
X139670000Y-144780000D03*
X129032000Y-78358988D03*
X138430000Y-80645000D03*
X151130000Y-86360000D03*
X151765000Y-100965000D03*
X143510000Y-128270000D03*
X146685000Y-128270000D03*
X147955000Y-92654500D03*
X143510000Y-102870000D03*
X154305000Y-99695000D03*
X136400558Y-73535558D03*
X137919442Y-75054442D03*
X142875000Y-146685000D03*
D26*
X121920000Y-93345000D02*
X121920000Y-76200000D01*
X123952000Y-76200000D02*
X121920000Y-76200000D01*
X99060000Y-146875000D02*
X113030000Y-146875000D01*
X121920000Y-93345000D02*
X140970000Y-93345000D01*
X140970000Y-93345000D02*
X140970000Y-90805000D01*
X140970000Y-93345000D02*
X160020000Y-93345000D01*
X160020000Y-93345000D02*
X161290000Y-92075000D01*
X161290000Y-90805000D02*
X161290000Y-92075000D01*
X114300000Y-96837500D02*
X114300000Y-141415000D01*
X115632000Y-95505500D02*
X114300000Y-96837500D01*
X119380000Y-95505500D02*
X115632000Y-95505500D01*
X121285000Y-76200000D02*
X121920000Y-76200000D01*
X120015000Y-77470000D02*
X121285000Y-76200000D01*
X159385000Y-125730000D02*
X161925000Y-125730000D01*
X161925000Y-125730000D02*
X163195000Y-124460000D01*
X161925000Y-111125000D02*
X163195000Y-109855000D01*
X159385000Y-111125000D02*
X161925000Y-111125000D01*
X163195000Y-124460000D02*
X163195000Y-109855000D01*
X147828000Y-81788000D02*
X146050000Y-80010000D01*
X147828000Y-83693000D02*
X147828000Y-81788000D01*
X156210000Y-85090000D02*
X149225000Y-85090000D01*
X157480000Y-86360000D02*
X156210000Y-85090000D01*
X149225000Y-85090000D02*
X147828000Y-83693000D01*
X157480000Y-88900000D02*
X157480000Y-86360000D01*
X158115000Y-89535000D02*
X157480000Y-88900000D01*
X160020000Y-89535000D02*
X158115000Y-89535000D01*
X161290000Y-90805000D02*
X160020000Y-89535000D01*
X163195000Y-109855000D02*
X163195000Y-96520000D01*
X106045000Y-89535000D02*
X112015500Y-95505500D01*
X106045000Y-83185000D02*
X106045000Y-89535000D01*
X102870000Y-80010000D02*
X106045000Y-83185000D01*
X82550000Y-80010000D02*
X102870000Y-80010000D01*
X76200000Y-68580000D02*
X76200000Y-73660000D01*
X75565000Y-67945000D02*
X76200000Y-68580000D01*
X76200000Y-73660000D02*
X82550000Y-80010000D01*
X75565000Y-63500000D02*
X75565000Y-67945000D01*
X112015500Y-95505500D02*
X115632000Y-95505500D01*
X74930000Y-62865000D02*
X75565000Y-63500000D01*
X72085000Y-62865000D02*
X74930000Y-62865000D01*
X83185000Y-68580000D02*
X83185000Y-73660000D01*
X158750000Y-88265000D02*
X161290000Y-88265000D01*
X154305000Y-78105000D02*
X152400000Y-76200000D01*
X157480000Y-78105000D02*
X154305000Y-78105000D01*
X158750000Y-79375000D02*
X157480000Y-78105000D01*
X158750000Y-88265000D02*
X158750000Y-79375000D01*
X99695000Y-73660000D02*
X83185000Y-73660000D01*
X99695000Y-73660000D02*
X102235000Y-73660000D01*
X149225000Y-96520000D02*
X149225000Y-94615000D01*
X114300000Y-74930000D02*
X114300000Y-73660000D01*
X109220000Y-73660000D02*
X114300000Y-73660000D01*
X116459000Y-56896000D02*
X119207000Y-56896000D01*
X115570000Y-72390000D02*
X115570000Y-57785000D01*
X115570000Y-57785000D02*
X116459000Y-56896000D01*
X114300000Y-73660000D02*
X115570000Y-72390000D01*
X102235000Y-73660000D02*
X102870000Y-73660000D01*
X147320000Y-77470000D02*
X146050000Y-76200000D01*
X149225000Y-77470000D02*
X147320000Y-77470000D01*
X150495000Y-76200000D02*
X149225000Y-77470000D01*
X152400000Y-76200000D02*
X150495000Y-76200000D01*
X162560000Y-88265000D02*
X161290000Y-88265000D01*
X163195000Y-88900000D02*
X162560000Y-88265000D01*
X163195000Y-92075000D02*
X163195000Y-88900000D01*
X160655000Y-94615000D02*
X163195000Y-92075000D01*
X149225000Y-94615000D02*
X160655000Y-94615000D01*
X149225000Y-94615000D02*
X113030000Y-94615000D01*
X102870000Y-73660000D02*
X106680000Y-73660000D01*
X107315000Y-73660000D02*
X107315000Y-88900000D01*
X113030000Y-94615000D02*
X107315000Y-88900000D01*
X106680000Y-73660000D02*
X107315000Y-73660000D01*
X107315000Y-73660000D02*
X109220000Y-73660000D01*
D27*
X82550000Y-142240000D02*
X94615000Y-142240000D01*
X79375000Y-139065000D02*
X82550000Y-142240000D01*
X92964000Y-153035000D02*
X92964000Y-146811994D01*
X75412500Y-75412500D02*
X79375000Y-79375000D01*
X79375000Y-79375000D02*
X79375000Y-139065000D01*
X74142500Y-68427500D02*
X75412500Y-69697500D01*
X74142500Y-67462500D02*
X74142500Y-68427500D01*
X75412500Y-69697500D02*
X75412500Y-75412500D01*
X72085000Y-65405000D02*
X74142500Y-67462500D01*
X156210000Y-96520000D02*
X156210000Y-97155000D01*
X156210000Y-97155000D02*
X155575000Y-97790000D01*
X155575000Y-97790000D02*
X147320000Y-97790000D01*
X146685000Y-98425000D02*
X146685000Y-100965000D01*
X147320000Y-97790000D02*
X146685000Y-98425000D01*
X141605000Y-142240000D02*
X94615000Y-142240000D01*
X142240000Y-141605000D02*
X141605000Y-142240000D01*
X142240000Y-105410000D02*
X142240000Y-141605000D01*
X78740000Y-139700000D02*
X81915000Y-142875000D01*
X78740000Y-80645000D02*
X78740000Y-139700000D01*
X74295000Y-76200000D02*
X78740000Y-80645000D01*
X74295000Y-70155000D02*
X74295000Y-76200000D01*
X72085000Y-67945000D02*
X74295000Y-70155000D01*
X81915000Y-142875000D02*
X92710000Y-142875000D01*
X90424000Y-153035000D02*
X90424000Y-146812000D01*
X156845000Y-95885000D02*
X156845000Y-97790000D01*
X156845000Y-97790000D02*
X156210000Y-98425000D01*
X156210000Y-98425000D02*
X147955000Y-98425000D01*
X147955000Y-98425000D02*
X147320000Y-99060000D01*
X147320000Y-101600000D02*
X146685000Y-102235000D01*
X147320000Y-99060000D02*
X147320000Y-101600000D01*
X142240000Y-142875000D02*
X92710000Y-142875000D01*
X142875000Y-142240000D02*
X142240000Y-142875000D01*
X142875000Y-106045000D02*
X142875000Y-142240000D01*
X159385000Y-133350000D02*
X156845000Y-133350000D01*
X156845000Y-133350000D02*
X146050000Y-133350000D01*
X146050000Y-145415000D02*
X146050000Y-133985000D01*
X78740000Y-146050000D02*
X145415000Y-146050000D01*
X75565000Y-142875000D02*
X78740000Y-146050000D01*
X75565000Y-90780000D02*
X75565000Y-142875000D01*
X146050000Y-133985000D02*
X146050000Y-133350000D01*
X72085000Y-87300000D02*
X75565000Y-90780000D01*
X72085000Y-85725000D02*
X72085000Y-87300000D01*
X146050000Y-145415000D02*
X146050000Y-146050000D01*
X145415000Y-146050000D02*
X146050000Y-146050000D01*
X143565500Y-95305500D02*
X143510000Y-95305500D01*
X146050000Y-97790000D02*
X143565500Y-95305500D01*
X146050000Y-133350000D02*
X146050000Y-97790000D01*
X154489999Y-150895001D02*
X153615000Y-151770000D01*
X153670000Y-146050000D02*
X154489999Y-146869999D01*
X154489999Y-146869999D02*
X154489999Y-150895001D01*
X146050000Y-146050000D02*
X153670000Y-146050000D01*
X156210000Y-130810000D02*
X159385000Y-130810000D01*
X156210000Y-130810000D02*
X146685000Y-130810000D01*
X145415000Y-131445000D02*
X145415000Y-130810000D01*
X144780000Y-145415000D02*
X145415000Y-144780000D01*
X76200000Y-142240000D02*
X79375000Y-145415000D01*
X76200000Y-87300000D02*
X76200000Y-142240000D01*
X72085000Y-83185000D02*
X76200000Y-87300000D01*
X79375000Y-145415000D02*
X144780000Y-145415000D01*
X145415000Y-130810000D02*
X145415000Y-98480500D01*
X145415000Y-98480500D02*
X142240000Y-95305500D01*
X145415000Y-143510000D02*
X145415000Y-131445000D01*
X145415000Y-144780000D02*
X145415000Y-143510000D01*
X77470000Y-140970000D02*
X80645000Y-144145000D01*
X77470000Y-83490000D02*
X77470000Y-140970000D01*
X72085000Y-78105000D02*
X77470000Y-83490000D01*
X80645000Y-144145000D02*
X121920000Y-144145000D01*
X121920000Y-146685000D02*
X121920000Y-149475000D01*
X144145000Y-140335000D02*
X144145000Y-100965000D01*
X144145000Y-143510000D02*
X144145000Y-140335000D01*
X143510000Y-144145000D02*
X144145000Y-143510000D01*
X121920000Y-144145000D02*
X143510000Y-144145000D01*
X119325000Y-151770000D02*
X120645000Y-151770000D01*
X121920000Y-150495000D02*
X121920000Y-149475000D01*
X120645000Y-151770000D02*
X121920000Y-150495000D01*
X130175000Y-73660000D02*
X130810000Y-74295000D01*
X127000000Y-73660000D02*
X130175000Y-73660000D01*
X130810000Y-74295000D02*
X130810000Y-76835000D01*
X120396000Y-67056000D02*
X127000000Y-73660000D01*
X119207000Y-67056000D02*
X120396000Y-67056000D01*
X137668000Y-78994000D02*
X136779000Y-78105000D01*
X137668000Y-85598000D02*
X137668000Y-78994000D01*
X138430000Y-86360000D02*
X137668000Y-85598000D01*
X147955000Y-86360000D02*
X138430000Y-86360000D01*
X148590000Y-86995000D02*
X147955000Y-86360000D01*
X136779000Y-78105000D02*
X132715000Y-78105000D01*
X148590000Y-88265000D02*
X148590000Y-86995000D01*
X76835000Y-141605000D02*
X80010000Y-144780000D01*
X76835000Y-85395000D02*
X76835000Y-141605000D01*
X72085000Y-80645000D02*
X76835000Y-85395000D01*
X80010000Y-144780000D02*
X133350000Y-144780000D01*
X133350000Y-144780000D02*
X139670000Y-144780000D01*
X144780000Y-133350000D02*
X144780000Y-99060000D01*
X144780000Y-144145000D02*
X144780000Y-133350000D01*
X144145000Y-144780000D02*
X144780000Y-144145000D01*
X139670000Y-144780000D02*
X144145000Y-144780000D01*
X132075000Y-151770000D02*
X130755000Y-151770000D01*
X133350000Y-150495000D02*
X132075000Y-151770000D01*
X133350000Y-146685000D02*
X133350000Y-150495000D01*
X130683012Y-80010000D02*
X129032000Y-78358988D01*
X135890000Y-80010000D02*
X130683012Y-80010000D01*
X151130000Y-86360000D02*
X151130000Y-88265000D01*
X150495000Y-85725000D02*
X151130000Y-86360000D01*
X139065000Y-85725000D02*
X150495000Y-85725000D01*
X138430000Y-85090000D02*
X139065000Y-85725000D01*
X138430000Y-80645000D02*
X138430000Y-85090000D01*
X159385000Y-113665000D02*
X154305000Y-113665000D01*
X152400000Y-113665000D02*
X154305000Y-113665000D01*
X151765000Y-113030000D02*
X152400000Y-113665000D01*
X151765000Y-100965000D02*
X151765000Y-113030000D01*
X117475000Y-62865000D02*
X118364000Y-61976000D01*
X117475000Y-79375000D02*
X117475000Y-62865000D01*
X116840000Y-80010000D02*
X117475000Y-79375000D01*
X118364000Y-61976000D02*
X119207000Y-61976000D01*
X116840000Y-89535000D02*
X116840000Y-80010000D01*
X118110000Y-90805000D02*
X116840000Y-89535000D01*
X146685000Y-128270000D02*
X159385000Y-128270000D01*
X152455500Y-92654500D02*
X153670000Y-91440000D01*
X153670000Y-91440000D02*
X153670000Y-90805000D01*
X147955000Y-92654500D02*
X152455500Y-92654500D01*
X143510000Y-128270000D02*
X143510000Y-102870000D01*
X143510000Y-142875000D02*
X143510000Y-128270000D01*
X142875000Y-143510000D02*
X143510000Y-142875000D01*
X81280000Y-143510000D02*
X142875000Y-143510000D01*
X78105000Y-140335000D02*
X81280000Y-143510000D01*
X78105000Y-81585000D02*
X78105000Y-140335000D01*
X72085000Y-75565000D02*
X78105000Y-81585000D01*
X151130000Y-114935000D02*
X151130000Y-100330000D01*
X152400000Y-116205000D02*
X151130000Y-114935000D01*
X159385000Y-116205000D02*
X152400000Y-116205000D01*
X151765000Y-99695000D02*
X154305000Y-99695000D01*
X151130000Y-100330000D02*
X151765000Y-99695000D01*
X120904000Y-64516000D02*
X119207000Y-64516000D01*
X121285000Y-64135000D02*
X120904000Y-64516000D01*
X121285000Y-61595000D02*
X121285000Y-64135000D01*
X120396000Y-60706000D02*
X121285000Y-61595000D01*
X117729000Y-60706000D02*
X120396000Y-60706000D01*
X116840000Y-61595000D02*
X117729000Y-60706000D01*
X116840000Y-78740000D02*
X116840000Y-61595000D01*
X113030000Y-82550000D02*
X116840000Y-78740000D01*
X113030000Y-88265000D02*
X113030000Y-82550000D01*
X123952000Y-83820000D02*
X123952000Y-85217000D01*
X123952000Y-85217000D02*
X124460000Y-85725000D01*
X124460000Y-85725000D02*
X132080000Y-85725000D01*
X132715000Y-85090000D02*
X132715000Y-83820000D01*
X132080000Y-85725000D02*
X132715000Y-85090000D01*
X132715000Y-83820000D02*
X135890000Y-83820000D01*
X131308007Y-77606993D02*
X132715000Y-76200000D01*
X127752007Y-77606993D02*
X131308007Y-77606993D01*
X126492000Y-78867000D02*
X127752007Y-77606993D01*
X126492000Y-83820000D02*
X126492000Y-78867000D01*
X137715000Y-69810000D02*
X137715000Y-73105000D01*
X137715000Y-73105000D02*
X136652000Y-74168000D01*
X136652000Y-74168000D02*
X133096000Y-74168000D01*
X132715000Y-74549000D02*
X132715000Y-74803000D01*
X133096000Y-74168000D02*
X132715000Y-74549000D01*
X132715000Y-76200000D02*
X132715000Y-74803000D01*
X158035000Y-69810000D02*
X158035000Y-64215000D01*
X159385000Y-62865000D02*
X167005000Y-62865000D01*
X158035000Y-64215000D02*
X159385000Y-62865000D01*
X144820000Y-73025000D02*
X148035000Y-69810000D01*
X139065000Y-73025000D02*
X144820000Y-73025000D01*
X135890000Y-76200000D02*
X139065000Y-73025000D01*
X132675000Y-69810000D02*
X136400558Y-73535558D01*
X127715000Y-69810000D02*
X132675000Y-69810000D01*
X146050000Y-83820000D02*
X140335000Y-83820000D01*
X140335000Y-83820000D02*
X139700000Y-83185000D01*
X139700000Y-76835000D02*
X137919442Y-75054442D01*
X139700000Y-83185000D02*
X139700000Y-76835000D01*
X159385000Y-106680000D02*
X153035000Y-106680000D01*
X159385000Y-104140000D02*
X158115000Y-104140000D01*
X158115000Y-104140000D02*
X157480000Y-103505000D01*
X157480000Y-103505000D02*
X157480000Y-99695000D01*
X157480000Y-99695000D02*
X156845000Y-99060000D01*
X156845000Y-99060000D02*
X149860000Y-99060000D01*
X149225000Y-99695000D02*
X149225000Y-106680000D01*
X149860000Y-99060000D02*
X149225000Y-99695000D01*
X162560000Y-73025000D02*
X167005000Y-73025000D01*
X161290000Y-74295000D02*
X162560000Y-73025000D01*
X161290000Y-79375000D02*
X161290000Y-74295000D01*
X160020000Y-80645000D02*
X161290000Y-79375000D01*
X160020000Y-83820000D02*
X160020000Y-80645000D01*
X169545000Y-76835000D02*
X168910000Y-76200000D01*
X169545000Y-93980000D02*
X169545000Y-76835000D01*
X168910000Y-76200000D02*
X167640000Y-76200000D01*
X168275000Y-95250000D02*
X169545000Y-93980000D01*
X153035000Y-95885000D02*
X153670000Y-95250000D01*
X153670000Y-95250000D02*
X168275000Y-95250000D01*
X153035000Y-96520000D02*
X153035000Y-95885000D01*
X154940000Y-83820000D02*
X157480000Y-83820000D01*
X165100000Y-83820000D02*
X165100000Y-76200000D01*
X142875000Y-151080000D02*
X142185000Y-151770000D01*
X142875000Y-146685000D02*
X142875000Y-151080000D01*
M02*
