G04 #@! TF.GenerationSoftware,KiCad,Pcbnew,(5.1.8)-1*
G04 #@! TF.CreationDate,2022-02-12T14:46:48+01:00*
G04 #@! TF.ProjectId,BulkyMIDI-32 Module,42756c6b-794d-4494-9449-2d3332204d6f,rev?*
G04 #@! TF.SameCoordinates,Original*
G04 #@! TF.FileFunction,Legend,Bot*
G04 #@! TF.FilePolarity,Positive*
%FSLAX46Y46*%
G04 Gerber Fmt 4.6, Leading zero omitted, Abs format (unit mm)*
G04 Created by KiCad (PCBNEW (5.1.8)-1) date 2022-02-12 14:46:48*
%MOMM*%
%LPD*%
G01*
G04 APERTURE LIST*
%ADD10C,0.150000*%
%ADD11C,0.010000*%
%ADD12C,0.500000*%
%ADD13C,0.120000*%
%ADD14C,0.100000*%
G04 APERTURE END LIST*
D10*
X84756428Y-58507380D02*
X85232619Y-58507380D01*
X85280238Y-58983571D01*
X85232619Y-58935952D01*
X85137380Y-58888333D01*
X84899285Y-58888333D01*
X84804047Y-58935952D01*
X84756428Y-58983571D01*
X84708809Y-59078809D01*
X84708809Y-59316904D01*
X84756428Y-59412142D01*
X84804047Y-59459761D01*
X84899285Y-59507380D01*
X85137380Y-59507380D01*
X85232619Y-59459761D01*
X85280238Y-59412142D01*
X84423095Y-58507380D02*
X84089761Y-59507380D01*
X83756428Y-58507380D01*
X82661190Y-59507380D02*
X82661190Y-58507380D01*
X82423095Y-58507380D01*
X82280238Y-58555000D01*
X82185000Y-58650238D01*
X82137380Y-58745476D01*
X82089761Y-58935952D01*
X82089761Y-59078809D01*
X82137380Y-59269285D01*
X82185000Y-59364523D01*
X82280238Y-59459761D01*
X82423095Y-59507380D01*
X82661190Y-59507380D01*
X81089761Y-59412142D02*
X81137380Y-59459761D01*
X81280238Y-59507380D01*
X81375476Y-59507380D01*
X81518333Y-59459761D01*
X81613571Y-59364523D01*
X81661190Y-59269285D01*
X81708809Y-59078809D01*
X81708809Y-58935952D01*
X81661190Y-58745476D01*
X81613571Y-58650238D01*
X81518333Y-58555000D01*
X81375476Y-58507380D01*
X81280238Y-58507380D01*
X81137380Y-58555000D01*
X81089761Y-58602619D01*
D11*
G36*
X125327626Y-118479431D02*
G01*
X124999627Y-118642340D01*
X124820135Y-118804814D01*
X124621350Y-119106571D01*
X124540926Y-119426402D01*
X124575357Y-119746629D01*
X124721139Y-120049579D01*
X124974768Y-120317575D01*
X125143223Y-120434322D01*
X125470999Y-120631395D01*
X125222362Y-120705889D01*
X124921468Y-120845814D01*
X124664610Y-121057677D01*
X124491735Y-121307882D01*
X124483116Y-121327620D01*
X124417201Y-121591574D01*
X124400334Y-121908286D01*
X124432582Y-122214241D01*
X124482043Y-122382414D01*
X124622972Y-122605016D01*
X124841128Y-122828181D01*
X125092793Y-123013721D01*
X125328631Y-123121920D01*
X125629426Y-123173898D01*
X125963232Y-123182884D01*
X126276324Y-123150363D01*
X126489189Y-123089836D01*
X126709155Y-122975466D01*
X126908504Y-122839328D01*
X127057286Y-122705197D01*
X127125551Y-122596849D01*
X127127000Y-122583518D01*
X127111279Y-122507537D01*
X127049149Y-122507633D01*
X126918156Y-122586738D01*
X126876105Y-122616289D01*
X126701506Y-122712126D01*
X126481036Y-122798086D01*
X126416583Y-122817109D01*
X126219106Y-122858300D01*
X126069631Y-122846880D01*
X125898011Y-122776826D01*
X125887629Y-122771695D01*
X125610860Y-122578959D01*
X125440294Y-122321886D01*
X125367732Y-122004105D01*
X125392248Y-121645561D01*
X125521989Y-121336072D01*
X125741424Y-121093700D01*
X126035024Y-120936505D01*
X126331422Y-120883346D01*
X126507004Y-120862429D01*
X126607755Y-120822100D01*
X126618999Y-120801383D01*
X126564021Y-120744178D01*
X126420957Y-120666356D01*
X126251236Y-120596423D01*
X126017993Y-120491159D01*
X125807804Y-120362474D01*
X125706398Y-120277504D01*
X125532538Y-120015150D01*
X125461468Y-119719733D01*
X125492682Y-119422845D01*
X125625676Y-119156079D01*
X125726042Y-119047538D01*
X125969258Y-118902177D01*
X126231958Y-118881981D01*
X126511855Y-118986996D01*
X126581209Y-119030750D01*
X126746973Y-119139573D01*
X126834267Y-119180593D01*
X126867950Y-119159849D01*
X126873000Y-119101639D01*
X126822064Y-118992340D01*
X126690829Y-118850858D01*
X126511652Y-118703635D01*
X126316892Y-118577115D01*
X126138909Y-118497742D01*
X126131370Y-118495579D01*
X125706955Y-118430020D01*
X125327626Y-118479431D01*
G37*
X125327626Y-118479431D02*
X124999627Y-118642340D01*
X124820135Y-118804814D01*
X124621350Y-119106571D01*
X124540926Y-119426402D01*
X124575357Y-119746629D01*
X124721139Y-120049579D01*
X124974768Y-120317575D01*
X125143223Y-120434322D01*
X125470999Y-120631395D01*
X125222362Y-120705889D01*
X124921468Y-120845814D01*
X124664610Y-121057677D01*
X124491735Y-121307882D01*
X124483116Y-121327620D01*
X124417201Y-121591574D01*
X124400334Y-121908286D01*
X124432582Y-122214241D01*
X124482043Y-122382414D01*
X124622972Y-122605016D01*
X124841128Y-122828181D01*
X125092793Y-123013721D01*
X125328631Y-123121920D01*
X125629426Y-123173898D01*
X125963232Y-123182884D01*
X126276324Y-123150363D01*
X126489189Y-123089836D01*
X126709155Y-122975466D01*
X126908504Y-122839328D01*
X127057286Y-122705197D01*
X127125551Y-122596849D01*
X127127000Y-122583518D01*
X127111279Y-122507537D01*
X127049149Y-122507633D01*
X126918156Y-122586738D01*
X126876105Y-122616289D01*
X126701506Y-122712126D01*
X126481036Y-122798086D01*
X126416583Y-122817109D01*
X126219106Y-122858300D01*
X126069631Y-122846880D01*
X125898011Y-122776826D01*
X125887629Y-122771695D01*
X125610860Y-122578959D01*
X125440294Y-122321886D01*
X125367732Y-122004105D01*
X125392248Y-121645561D01*
X125521989Y-121336072D01*
X125741424Y-121093700D01*
X126035024Y-120936505D01*
X126331422Y-120883346D01*
X126507004Y-120862429D01*
X126607755Y-120822100D01*
X126618999Y-120801383D01*
X126564021Y-120744178D01*
X126420957Y-120666356D01*
X126251236Y-120596423D01*
X126017993Y-120491159D01*
X125807804Y-120362474D01*
X125706398Y-120277504D01*
X125532538Y-120015150D01*
X125461468Y-119719733D01*
X125492682Y-119422845D01*
X125625676Y-119156079D01*
X125726042Y-119047538D01*
X125969258Y-118902177D01*
X126231958Y-118881981D01*
X126511855Y-118986996D01*
X126581209Y-119030750D01*
X126746973Y-119139573D01*
X126834267Y-119180593D01*
X126867950Y-119159849D01*
X126873000Y-119101639D01*
X126822064Y-118992340D01*
X126690829Y-118850858D01*
X126511652Y-118703635D01*
X126316892Y-118577115D01*
X126138909Y-118497742D01*
X126131370Y-118495579D01*
X125706955Y-118430020D01*
X125327626Y-118479431D01*
G36*
X145383224Y-120008030D02*
G01*
X144812444Y-121461561D01*
X144237368Y-120023905D01*
X143662291Y-118586250D01*
X142855896Y-118568477D01*
X142518578Y-118562998D01*
X142288728Y-118565355D01*
X142146953Y-118577456D01*
X142073859Y-118601211D01*
X142050054Y-118638529D01*
X142049500Y-118647852D01*
X142101932Y-118728029D01*
X142169466Y-118745000D01*
X142306424Y-118783581D01*
X142432022Y-118860463D01*
X142488673Y-118917136D01*
X142529447Y-118992024D01*
X142553783Y-119098882D01*
X142561120Y-119251464D01*
X142550899Y-119463526D01*
X142522560Y-119748822D01*
X142475541Y-120121106D01*
X142409284Y-120594133D01*
X142342888Y-121048647D01*
X142268575Y-121543892D01*
X142205684Y-121929238D01*
X142148394Y-122220611D01*
X142090884Y-122433934D01*
X142027334Y-122585135D01*
X141951923Y-122690137D01*
X141858831Y-122764867D01*
X141742237Y-122825248D01*
X141684375Y-122850366D01*
X141544787Y-122917799D01*
X141488328Y-122970030D01*
X141522522Y-123008766D01*
X141654890Y-123035715D01*
X141892953Y-123052584D01*
X142244233Y-123061081D01*
X142621000Y-123063000D01*
X143034033Y-123061660D01*
X143336346Y-123056737D01*
X143544200Y-123046877D01*
X143673858Y-123030723D01*
X143741579Y-123006922D01*
X143763625Y-122974117D01*
X143764000Y-122967750D01*
X143712943Y-122884253D01*
X143665864Y-122872500D01*
X143512631Y-122815717D01*
X143374437Y-122670822D01*
X143279710Y-122475995D01*
X143254290Y-122319761D01*
X143261952Y-122182063D01*
X143284139Y-121956247D01*
X143317819Y-121664227D01*
X143359959Y-121327917D01*
X143407528Y-120969230D01*
X143457492Y-120610081D01*
X143506819Y-120272382D01*
X143552476Y-119978048D01*
X143591430Y-119748992D01*
X143620649Y-119607128D01*
X143634673Y-119571098D01*
X143665808Y-119627920D01*
X143737356Y-119788367D01*
X143843245Y-120037874D01*
X143977401Y-120361879D01*
X144133751Y-120745819D01*
X144306223Y-121175132D01*
X144362885Y-121317348D01*
X144573420Y-121842678D01*
X144744373Y-122259114D01*
X144880423Y-122576803D01*
X144986250Y-122805888D01*
X145066532Y-122956515D01*
X145125948Y-123038829D01*
X145167985Y-123063000D01*
X145211393Y-123037309D01*
X145270948Y-122953478D01*
X145351300Y-122801366D01*
X145457100Y-122570831D01*
X145593000Y-122251734D01*
X145763652Y-121833933D01*
X145973706Y-121307289D01*
X145976244Y-121300875D01*
X146151671Y-120863270D01*
X146313096Y-120471507D01*
X146454601Y-120139091D01*
X146570266Y-119879527D01*
X146654172Y-119706322D01*
X146700400Y-119632980D01*
X146706820Y-119634000D01*
X146734275Y-119752547D01*
X146772674Y-119971990D01*
X146818609Y-120267037D01*
X146868675Y-120612397D01*
X146919466Y-120982779D01*
X146967576Y-121352890D01*
X147009598Y-121697440D01*
X147042128Y-121991138D01*
X147061757Y-122208691D01*
X147066001Y-122301101D01*
X147028061Y-122576439D01*
X146921207Y-122769659D01*
X146755885Y-122865096D01*
X146685000Y-122872500D01*
X146581572Y-122912204D01*
X146558000Y-122967750D01*
X146576398Y-123007419D01*
X146644113Y-123034608D01*
X146779932Y-123051485D01*
X147002640Y-123060215D01*
X147331023Y-123062968D01*
X147383500Y-123063000D01*
X147727305Y-123060877D01*
X147962945Y-123053063D01*
X148109204Y-123037392D01*
X148184869Y-123011695D01*
X148208725Y-122973805D01*
X148209000Y-122967750D01*
X148153646Y-122891238D01*
X148047364Y-122872500D01*
X147857538Y-122813777D01*
X147683092Y-122655764D01*
X147550430Y-122425688D01*
X147516455Y-122324985D01*
X147487762Y-122193259D01*
X147444050Y-121956891D01*
X147388881Y-121636876D01*
X147325820Y-121254204D01*
X147258431Y-120829868D01*
X147216650Y-120559067D01*
X146984840Y-119039384D01*
X147155961Y-118892192D01*
X147316711Y-118790837D01*
X147473886Y-118745202D01*
X147482291Y-118745000D01*
X147607315Y-118711243D01*
X147637500Y-118649750D01*
X147619266Y-118610413D01*
X147552144Y-118583335D01*
X147417504Y-118566406D01*
X147196717Y-118557518D01*
X146871152Y-118554564D01*
X146795752Y-118554500D01*
X145954003Y-118554500D01*
X145383224Y-120008030D01*
G37*
X145383224Y-120008030D02*
X144812444Y-121461561D01*
X144237368Y-120023905D01*
X143662291Y-118586250D01*
X142855896Y-118568477D01*
X142518578Y-118562998D01*
X142288728Y-118565355D01*
X142146953Y-118577456D01*
X142073859Y-118601211D01*
X142050054Y-118638529D01*
X142049500Y-118647852D01*
X142101932Y-118728029D01*
X142169466Y-118745000D01*
X142306424Y-118783581D01*
X142432022Y-118860463D01*
X142488673Y-118917136D01*
X142529447Y-118992024D01*
X142553783Y-119098882D01*
X142561120Y-119251464D01*
X142550899Y-119463526D01*
X142522560Y-119748822D01*
X142475541Y-120121106D01*
X142409284Y-120594133D01*
X142342888Y-121048647D01*
X142268575Y-121543892D01*
X142205684Y-121929238D01*
X142148394Y-122220611D01*
X142090884Y-122433934D01*
X142027334Y-122585135D01*
X141951923Y-122690137D01*
X141858831Y-122764867D01*
X141742237Y-122825248D01*
X141684375Y-122850366D01*
X141544787Y-122917799D01*
X141488328Y-122970030D01*
X141522522Y-123008766D01*
X141654890Y-123035715D01*
X141892953Y-123052584D01*
X142244233Y-123061081D01*
X142621000Y-123063000D01*
X143034033Y-123061660D01*
X143336346Y-123056737D01*
X143544200Y-123046877D01*
X143673858Y-123030723D01*
X143741579Y-123006922D01*
X143763625Y-122974117D01*
X143764000Y-122967750D01*
X143712943Y-122884253D01*
X143665864Y-122872500D01*
X143512631Y-122815717D01*
X143374437Y-122670822D01*
X143279710Y-122475995D01*
X143254290Y-122319761D01*
X143261952Y-122182063D01*
X143284139Y-121956247D01*
X143317819Y-121664227D01*
X143359959Y-121327917D01*
X143407528Y-120969230D01*
X143457492Y-120610081D01*
X143506819Y-120272382D01*
X143552476Y-119978048D01*
X143591430Y-119748992D01*
X143620649Y-119607128D01*
X143634673Y-119571098D01*
X143665808Y-119627920D01*
X143737356Y-119788367D01*
X143843245Y-120037874D01*
X143977401Y-120361879D01*
X144133751Y-120745819D01*
X144306223Y-121175132D01*
X144362885Y-121317348D01*
X144573420Y-121842678D01*
X144744373Y-122259114D01*
X144880423Y-122576803D01*
X144986250Y-122805888D01*
X145066532Y-122956515D01*
X145125948Y-123038829D01*
X145167985Y-123063000D01*
X145211393Y-123037309D01*
X145270948Y-122953478D01*
X145351300Y-122801366D01*
X145457100Y-122570831D01*
X145593000Y-122251734D01*
X145763652Y-121833933D01*
X145973706Y-121307289D01*
X145976244Y-121300875D01*
X146151671Y-120863270D01*
X146313096Y-120471507D01*
X146454601Y-120139091D01*
X146570266Y-119879527D01*
X146654172Y-119706322D01*
X146700400Y-119632980D01*
X146706820Y-119634000D01*
X146734275Y-119752547D01*
X146772674Y-119971990D01*
X146818609Y-120267037D01*
X146868675Y-120612397D01*
X146919466Y-120982779D01*
X146967576Y-121352890D01*
X147009598Y-121697440D01*
X147042128Y-121991138D01*
X147061757Y-122208691D01*
X147066001Y-122301101D01*
X147028061Y-122576439D01*
X146921207Y-122769659D01*
X146755885Y-122865096D01*
X146685000Y-122872500D01*
X146581572Y-122912204D01*
X146558000Y-122967750D01*
X146576398Y-123007419D01*
X146644113Y-123034608D01*
X146779932Y-123051485D01*
X147002640Y-123060215D01*
X147331023Y-123062968D01*
X147383500Y-123063000D01*
X147727305Y-123060877D01*
X147962945Y-123053063D01*
X148109204Y-123037392D01*
X148184869Y-123011695D01*
X148208725Y-122973805D01*
X148209000Y-122967750D01*
X148153646Y-122891238D01*
X148047364Y-122872500D01*
X147857538Y-122813777D01*
X147683092Y-122655764D01*
X147550430Y-122425688D01*
X147516455Y-122324985D01*
X147487762Y-122193259D01*
X147444050Y-121956891D01*
X147388881Y-121636876D01*
X147325820Y-121254204D01*
X147258431Y-120829868D01*
X147216650Y-120559067D01*
X146984840Y-119039384D01*
X147155961Y-118892192D01*
X147316711Y-118790837D01*
X147473886Y-118745202D01*
X147482291Y-118745000D01*
X147607315Y-118711243D01*
X147637500Y-118649750D01*
X147619266Y-118610413D01*
X147552144Y-118583335D01*
X147417504Y-118566406D01*
X147196717Y-118557518D01*
X146871152Y-118554564D01*
X146795752Y-118554500D01*
X145954003Y-118554500D01*
X145383224Y-120008030D01*
G36*
X139542719Y-118556575D02*
G01*
X139243915Y-118563537D01*
X139043124Y-118576492D01*
X138925879Y-118596546D01*
X138877715Y-118624803D01*
X138874500Y-118636993D01*
X138928441Y-118710805D01*
X139061241Y-118786218D01*
X139091282Y-118797876D01*
X139285114Y-118917079D01*
X139377032Y-119074108D01*
X139400854Y-119207512D01*
X139419744Y-119442381D01*
X139433774Y-119757148D01*
X139443019Y-120130248D01*
X139447552Y-120540114D01*
X139447448Y-120965182D01*
X139442781Y-121383885D01*
X139433625Y-121774656D01*
X139420053Y-122115931D01*
X139402140Y-122386143D01*
X139379959Y-122563727D01*
X139364884Y-122616354D01*
X139244568Y-122748226D01*
X139080070Y-122831915D01*
X138940822Y-122894743D01*
X138875243Y-122969400D01*
X138874500Y-122976935D01*
X138897832Y-123009378D01*
X138978082Y-123032925D01*
X139130633Y-123048803D01*
X139370866Y-123058239D01*
X139714164Y-123062458D01*
X139954000Y-123063000D01*
X140354001Y-123061550D01*
X140643715Y-123056219D01*
X140839831Y-123045535D01*
X140959039Y-123028025D01*
X141018029Y-123002216D01*
X141033500Y-122967750D01*
X140980277Y-122890242D01*
X140903614Y-122872500D01*
X140771160Y-122829445D01*
X140626388Y-122724975D01*
X140617864Y-122716636D01*
X140462000Y-122560772D01*
X140462000Y-120879270D01*
X140464208Y-120421781D01*
X140470426Y-119999615D01*
X140480048Y-119631416D01*
X140492466Y-119335832D01*
X140507073Y-119131507D01*
X140521867Y-119040308D01*
X140635959Y-118895966D01*
X140807617Y-118801167D01*
X140953820Y-118728563D01*
X141030263Y-118652079D01*
X141033500Y-118636993D01*
X141006345Y-118605564D01*
X140915235Y-118582730D01*
X140745705Y-118567385D01*
X140483288Y-118558426D01*
X140113520Y-118554745D01*
X139954000Y-118554500D01*
X139542719Y-118556575D01*
G37*
X139542719Y-118556575D02*
X139243915Y-118563537D01*
X139043124Y-118576492D01*
X138925879Y-118596546D01*
X138877715Y-118624803D01*
X138874500Y-118636993D01*
X138928441Y-118710805D01*
X139061241Y-118786218D01*
X139091282Y-118797876D01*
X139285114Y-118917079D01*
X139377032Y-119074108D01*
X139400854Y-119207512D01*
X139419744Y-119442381D01*
X139433774Y-119757148D01*
X139443019Y-120130248D01*
X139447552Y-120540114D01*
X139447448Y-120965182D01*
X139442781Y-121383885D01*
X139433625Y-121774656D01*
X139420053Y-122115931D01*
X139402140Y-122386143D01*
X139379959Y-122563727D01*
X139364884Y-122616354D01*
X139244568Y-122748226D01*
X139080070Y-122831915D01*
X138940822Y-122894743D01*
X138875243Y-122969400D01*
X138874500Y-122976935D01*
X138897832Y-123009378D01*
X138978082Y-123032925D01*
X139130633Y-123048803D01*
X139370866Y-123058239D01*
X139714164Y-123062458D01*
X139954000Y-123063000D01*
X140354001Y-123061550D01*
X140643715Y-123056219D01*
X140839831Y-123045535D01*
X140959039Y-123028025D01*
X141018029Y-123002216D01*
X141033500Y-122967750D01*
X140980277Y-122890242D01*
X140903614Y-122872500D01*
X140771160Y-122829445D01*
X140626388Y-122724975D01*
X140617864Y-122716636D01*
X140462000Y-122560772D01*
X140462000Y-120879270D01*
X140464208Y-120421781D01*
X140470426Y-119999615D01*
X140480048Y-119631416D01*
X140492466Y-119335832D01*
X140507073Y-119131507D01*
X140521867Y-119040308D01*
X140635959Y-118895966D01*
X140807617Y-118801167D01*
X140953820Y-118728563D01*
X141030263Y-118652079D01*
X141033500Y-118636993D01*
X141006345Y-118605564D01*
X140915235Y-118582730D01*
X140745705Y-118567385D01*
X140483288Y-118558426D01*
X140113520Y-118554745D01*
X139954000Y-118554500D01*
X139542719Y-118556575D01*
G36*
X136410535Y-118552695D02*
G01*
X136026606Y-118564923D01*
X135676974Y-118583263D01*
X135381779Y-118607658D01*
X135161163Y-118638055D01*
X135098471Y-118651839D01*
X134551244Y-118852175D01*
X134088178Y-119145405D01*
X133824481Y-119395380D01*
X133587472Y-119711005D01*
X133431020Y-120053680D01*
X133345399Y-120453158D01*
X133320863Y-120935750D01*
X133328027Y-121237551D01*
X133352065Y-121458577D01*
X133401693Y-121644793D01*
X133485629Y-121842162D01*
X133497437Y-121866746D01*
X133767885Y-122281541D01*
X134141344Y-122625308D01*
X134548880Y-122863917D01*
X134657573Y-122913590D01*
X134757970Y-122952495D01*
X134867049Y-122982153D01*
X135001791Y-123004084D01*
X135179175Y-123019809D01*
X135416181Y-123030850D01*
X135729788Y-123038726D01*
X136136977Y-123044958D01*
X136636125Y-123050857D01*
X137208419Y-123055421D01*
X137659435Y-123054622D01*
X137994789Y-123048299D01*
X138220098Y-123036293D01*
X138340975Y-123018444D01*
X138366500Y-123001660D01*
X138313592Y-122932311D01*
X138191992Y-122866508D01*
X138079329Y-122823307D01*
X137990273Y-122779470D01*
X137922051Y-122720627D01*
X137871892Y-122632407D01*
X137837021Y-122500440D01*
X137814668Y-122310356D01*
X137802060Y-122047783D01*
X137796424Y-121698351D01*
X137794988Y-121247690D01*
X137795000Y-120808750D01*
X137795242Y-120262976D01*
X137797778Y-119830262D01*
X137805330Y-119496668D01*
X137820618Y-119248252D01*
X137846361Y-119071077D01*
X137885280Y-118951201D01*
X137940094Y-118874685D01*
X137944280Y-118872000D01*
X136715500Y-118872000D01*
X136715500Y-120705724D01*
X136714724Y-121245878D01*
X136711924Y-121672766D01*
X136706394Y-122000117D01*
X136697428Y-122241659D01*
X136684318Y-122411120D01*
X136666359Y-122522227D01*
X136642845Y-122588710D01*
X136616923Y-122621261D01*
X136470697Y-122694270D01*
X136257841Y-122750532D01*
X136038672Y-122776969D01*
X135921750Y-122772017D01*
X135771679Y-122748813D01*
X135580333Y-122718634D01*
X135568167Y-122716696D01*
X135265291Y-122608965D01*
X134979090Y-122397195D01*
X134736303Y-122103949D01*
X134638972Y-121932659D01*
X134559112Y-121758814D01*
X134507439Y-121604138D01*
X134477924Y-121432658D01*
X134464540Y-121208406D01*
X134461258Y-120895409D01*
X134461250Y-120872250D01*
X134465098Y-120541479D01*
X134480157Y-120301614D01*
X134511702Y-120116703D01*
X134565008Y-119950790D01*
X134612974Y-119837982D01*
X134803311Y-119524644D01*
X135061877Y-119246375D01*
X135353646Y-119036131D01*
X135560235Y-118946677D01*
X135755082Y-118908025D01*
X136016893Y-118881042D01*
X136262493Y-118872000D01*
X136715500Y-118872000D01*
X137944280Y-118872000D01*
X138013524Y-118827588D01*
X138108291Y-118795971D01*
X138191875Y-118774813D01*
X138318315Y-118715686D01*
X138366500Y-118642866D01*
X138306442Y-118610765D01*
X138139693Y-118585163D01*
X137886396Y-118566004D01*
X137566691Y-118553233D01*
X137200718Y-118546795D01*
X136808619Y-118546634D01*
X136410535Y-118552695D01*
G37*
X136410535Y-118552695D02*
X136026606Y-118564923D01*
X135676974Y-118583263D01*
X135381779Y-118607658D01*
X135161163Y-118638055D01*
X135098471Y-118651839D01*
X134551244Y-118852175D01*
X134088178Y-119145405D01*
X133824481Y-119395380D01*
X133587472Y-119711005D01*
X133431020Y-120053680D01*
X133345399Y-120453158D01*
X133320863Y-120935750D01*
X133328027Y-121237551D01*
X133352065Y-121458577D01*
X133401693Y-121644793D01*
X133485629Y-121842162D01*
X133497437Y-121866746D01*
X133767885Y-122281541D01*
X134141344Y-122625308D01*
X134548880Y-122863917D01*
X134657573Y-122913590D01*
X134757970Y-122952495D01*
X134867049Y-122982153D01*
X135001791Y-123004084D01*
X135179175Y-123019809D01*
X135416181Y-123030850D01*
X135729788Y-123038726D01*
X136136977Y-123044958D01*
X136636125Y-123050857D01*
X137208419Y-123055421D01*
X137659435Y-123054622D01*
X137994789Y-123048299D01*
X138220098Y-123036293D01*
X138340975Y-123018444D01*
X138366500Y-123001660D01*
X138313592Y-122932311D01*
X138191992Y-122866508D01*
X138079329Y-122823307D01*
X137990273Y-122779470D01*
X137922051Y-122720627D01*
X137871892Y-122632407D01*
X137837021Y-122500440D01*
X137814668Y-122310356D01*
X137802060Y-122047783D01*
X137796424Y-121698351D01*
X137794988Y-121247690D01*
X137795000Y-120808750D01*
X137795242Y-120262976D01*
X137797778Y-119830262D01*
X137805330Y-119496668D01*
X137820618Y-119248252D01*
X137846361Y-119071077D01*
X137885280Y-118951201D01*
X137940094Y-118874685D01*
X137944280Y-118872000D01*
X136715500Y-118872000D01*
X136715500Y-120705724D01*
X136714724Y-121245878D01*
X136711924Y-121672766D01*
X136706394Y-122000117D01*
X136697428Y-122241659D01*
X136684318Y-122411120D01*
X136666359Y-122522227D01*
X136642845Y-122588710D01*
X136616923Y-122621261D01*
X136470697Y-122694270D01*
X136257841Y-122750532D01*
X136038672Y-122776969D01*
X135921750Y-122772017D01*
X135771679Y-122748813D01*
X135580333Y-122718634D01*
X135568167Y-122716696D01*
X135265291Y-122608965D01*
X134979090Y-122397195D01*
X134736303Y-122103949D01*
X134638972Y-121932659D01*
X134559112Y-121758814D01*
X134507439Y-121604138D01*
X134477924Y-121432658D01*
X134464540Y-121208406D01*
X134461258Y-120895409D01*
X134461250Y-120872250D01*
X134465098Y-120541479D01*
X134480157Y-120301614D01*
X134511702Y-120116703D01*
X134565008Y-119950790D01*
X134612974Y-119837982D01*
X134803311Y-119524644D01*
X135061877Y-119246375D01*
X135353646Y-119036131D01*
X135560235Y-118946677D01*
X135755082Y-118908025D01*
X136016893Y-118881042D01*
X136262493Y-118872000D01*
X136715500Y-118872000D01*
X137944280Y-118872000D01*
X138013524Y-118827588D01*
X138108291Y-118795971D01*
X138191875Y-118774813D01*
X138318315Y-118715686D01*
X138366500Y-118642866D01*
X138306442Y-118610765D01*
X138139693Y-118585163D01*
X137886396Y-118566004D01*
X137566691Y-118553233D01*
X137200718Y-118546795D01*
X136808619Y-118546634D01*
X136410535Y-118552695D01*
G36*
X131224219Y-118556575D02*
G01*
X130925415Y-118563537D01*
X130724624Y-118576492D01*
X130607379Y-118596546D01*
X130559215Y-118624803D01*
X130556000Y-118636993D01*
X130609941Y-118710805D01*
X130742741Y-118786218D01*
X130772782Y-118797876D01*
X130966614Y-118917079D01*
X131058532Y-119074108D01*
X131082354Y-119207512D01*
X131101244Y-119442381D01*
X131115274Y-119757148D01*
X131124519Y-120130248D01*
X131129052Y-120540114D01*
X131128948Y-120965182D01*
X131124281Y-121383885D01*
X131115125Y-121774656D01*
X131101553Y-122115931D01*
X131083640Y-122386143D01*
X131061459Y-122563727D01*
X131046384Y-122616354D01*
X130926068Y-122748226D01*
X130761570Y-122831915D01*
X130622322Y-122894743D01*
X130556743Y-122969400D01*
X130556000Y-122976935D01*
X130579332Y-123009378D01*
X130659582Y-123032925D01*
X130812133Y-123048803D01*
X131052366Y-123058239D01*
X131395664Y-123062458D01*
X131635500Y-123063000D01*
X132035501Y-123061550D01*
X132325215Y-123056219D01*
X132521331Y-123045535D01*
X132640539Y-123028025D01*
X132699529Y-123002216D01*
X132715000Y-122967750D01*
X132661777Y-122890242D01*
X132585114Y-122872500D01*
X132452660Y-122829445D01*
X132307888Y-122724975D01*
X132299364Y-122716636D01*
X132143500Y-122560772D01*
X132143500Y-120879270D01*
X132145708Y-120421781D01*
X132151926Y-119999615D01*
X132161548Y-119631416D01*
X132173966Y-119335832D01*
X132188573Y-119131507D01*
X132203367Y-119040308D01*
X132317459Y-118895966D01*
X132489117Y-118801167D01*
X132635320Y-118728563D01*
X132711763Y-118652079D01*
X132715000Y-118636993D01*
X132687845Y-118605564D01*
X132596735Y-118582730D01*
X132427205Y-118567385D01*
X132164788Y-118558426D01*
X131795020Y-118554745D01*
X131635500Y-118554500D01*
X131224219Y-118556575D01*
G37*
X131224219Y-118556575D02*
X130925415Y-118563537D01*
X130724624Y-118576492D01*
X130607379Y-118596546D01*
X130559215Y-118624803D01*
X130556000Y-118636993D01*
X130609941Y-118710805D01*
X130742741Y-118786218D01*
X130772782Y-118797876D01*
X130966614Y-118917079D01*
X131058532Y-119074108D01*
X131082354Y-119207512D01*
X131101244Y-119442381D01*
X131115274Y-119757148D01*
X131124519Y-120130248D01*
X131129052Y-120540114D01*
X131128948Y-120965182D01*
X131124281Y-121383885D01*
X131115125Y-121774656D01*
X131101553Y-122115931D01*
X131083640Y-122386143D01*
X131061459Y-122563727D01*
X131046384Y-122616354D01*
X130926068Y-122748226D01*
X130761570Y-122831915D01*
X130622322Y-122894743D01*
X130556743Y-122969400D01*
X130556000Y-122976935D01*
X130579332Y-123009378D01*
X130659582Y-123032925D01*
X130812133Y-123048803D01*
X131052366Y-123058239D01*
X131395664Y-123062458D01*
X131635500Y-123063000D01*
X132035501Y-123061550D01*
X132325215Y-123056219D01*
X132521331Y-123045535D01*
X132640539Y-123028025D01*
X132699529Y-123002216D01*
X132715000Y-122967750D01*
X132661777Y-122890242D01*
X132585114Y-122872500D01*
X132452660Y-122829445D01*
X132307888Y-122724975D01*
X132299364Y-122716636D01*
X132143500Y-122560772D01*
X132143500Y-120879270D01*
X132145708Y-120421781D01*
X132151926Y-119999615D01*
X132161548Y-119631416D01*
X132173966Y-119335832D01*
X132188573Y-119131507D01*
X132203367Y-119040308D01*
X132317459Y-118895966D01*
X132489117Y-118801167D01*
X132635320Y-118728563D01*
X132711763Y-118652079D01*
X132715000Y-118636993D01*
X132687845Y-118605564D01*
X132596735Y-118582730D01*
X132427205Y-118567385D01*
X132164788Y-118558426D01*
X131795020Y-118554745D01*
X131635500Y-118554500D01*
X131224219Y-118556575D01*
G36*
X121701582Y-118487091D02*
G01*
X121348988Y-118640997D01*
X121070204Y-118872111D01*
X120845142Y-119194677D01*
X120735947Y-119538060D01*
X120743530Y-119904508D01*
X120868798Y-120296269D01*
X121112660Y-120715592D01*
X121476026Y-121164724D01*
X121959805Y-121645915D01*
X122318269Y-121959369D01*
X122876816Y-122428000D01*
X120650000Y-122428000D01*
X120650000Y-123063000D01*
X122205750Y-123063000D01*
X122713671Y-123061552D01*
X123106321Y-123056812D01*
X123395400Y-123048183D01*
X123592608Y-123035067D01*
X123709646Y-123016867D01*
X123758213Y-122992986D01*
X123761209Y-122983625D01*
X123718450Y-122914533D01*
X123600035Y-122772160D01*
X123420457Y-122572677D01*
X123194209Y-122332256D01*
X122978702Y-122110500D01*
X122668509Y-121790693D01*
X122433817Y-121534566D01*
X122256765Y-121319705D01*
X122119490Y-121123696D01*
X122004128Y-120924126D01*
X121952410Y-120822750D01*
X121821547Y-120538832D01*
X121746188Y-120316222D01*
X121713354Y-120109272D01*
X121708662Y-119965500D01*
X121752012Y-119602760D01*
X121874273Y-119316436D01*
X122064830Y-119118059D01*
X122313071Y-119019162D01*
X122574835Y-119024325D01*
X122784648Y-119115244D01*
X122992019Y-119287206D01*
X123156250Y-119500154D01*
X123227717Y-119666914D01*
X123284859Y-119798780D01*
X123343030Y-119809394D01*
X123378095Y-119701985D01*
X123380500Y-119646467D01*
X123335389Y-119411821D01*
X123217358Y-119143034D01*
X123052363Y-118885671D01*
X122866360Y-118685296D01*
X122808089Y-118641609D01*
X122460450Y-118483508D01*
X122081842Y-118433298D01*
X121701582Y-118487091D01*
G37*
X121701582Y-118487091D02*
X121348988Y-118640997D01*
X121070204Y-118872111D01*
X120845142Y-119194677D01*
X120735947Y-119538060D01*
X120743530Y-119904508D01*
X120868798Y-120296269D01*
X121112660Y-120715592D01*
X121476026Y-121164724D01*
X121959805Y-121645915D01*
X122318269Y-121959369D01*
X122876816Y-122428000D01*
X120650000Y-122428000D01*
X120650000Y-123063000D01*
X122205750Y-123063000D01*
X122713671Y-123061552D01*
X123106321Y-123056812D01*
X123395400Y-123048183D01*
X123592608Y-123035067D01*
X123709646Y-123016867D01*
X123758213Y-122992986D01*
X123761209Y-122983625D01*
X123718450Y-122914533D01*
X123600035Y-122772160D01*
X123420457Y-122572677D01*
X123194209Y-122332256D01*
X122978702Y-122110500D01*
X122668509Y-121790693D01*
X122433817Y-121534566D01*
X122256765Y-121319705D01*
X122119490Y-121123696D01*
X122004128Y-120924126D01*
X121952410Y-120822750D01*
X121821547Y-120538832D01*
X121746188Y-120316222D01*
X121713354Y-120109272D01*
X121708662Y-119965500D01*
X121752012Y-119602760D01*
X121874273Y-119316436D01*
X122064830Y-119118059D01*
X122313071Y-119019162D01*
X122574835Y-119024325D01*
X122784648Y-119115244D01*
X122992019Y-119287206D01*
X123156250Y-119500154D01*
X123227717Y-119666914D01*
X123284859Y-119798780D01*
X123343030Y-119809394D01*
X123378095Y-119701985D01*
X123380500Y-119646467D01*
X123335389Y-119411821D01*
X123217358Y-119143034D01*
X123052363Y-118885671D01*
X122866360Y-118685296D01*
X122808089Y-118641609D01*
X122460450Y-118483508D01*
X122081842Y-118433298D01*
X121701582Y-118487091D01*
G36*
X127666750Y-121951750D02*
G01*
X129984500Y-121986364D01*
X129984500Y-121285000D01*
X127628364Y-121285000D01*
X127666750Y-121951750D01*
G37*
X127666750Y-121951750D02*
X129984500Y-121986364D01*
X129984500Y-121285000D01*
X127628364Y-121285000D01*
X127666750Y-121951750D01*
G36*
X109679884Y-112689038D02*
G01*
X109663517Y-116522500D01*
X109093000Y-116522500D01*
X109093000Y-117411500D01*
X109605237Y-117411500D01*
X109875571Y-117416526D01*
X110057567Y-117437169D01*
X110189681Y-117481776D01*
X110310368Y-117558694D01*
X110321238Y-117566918D01*
X110668708Y-117783871D01*
X111091586Y-117974496D01*
X111538398Y-118117991D01*
X111835657Y-118178933D01*
X112424005Y-118209883D01*
X112995366Y-118131499D01*
X113425312Y-117989788D01*
X113616439Y-117886519D01*
X113803834Y-117751975D01*
X113955342Y-117613275D01*
X114038803Y-117497539D01*
X114046000Y-117466340D01*
X114105393Y-117445121D01*
X114267171Y-117427722D01*
X114506737Y-117415922D01*
X114799493Y-117411501D01*
X114804227Y-117411500D01*
X115562453Y-117411500D01*
X115582102Y-118633875D01*
X115601750Y-119856250D01*
X115785265Y-120126807D01*
X115997567Y-120367064D01*
X116300043Y-120612059D01*
X116659077Y-120838152D01*
X117041056Y-121021701D01*
X117079044Y-121036737D01*
X117365458Y-121116201D01*
X117728979Y-121172402D01*
X118123193Y-121202293D01*
X118501685Y-121202828D01*
X118818042Y-121170960D01*
X118889939Y-121155622D01*
X119293014Y-121011917D01*
X119620055Y-120807694D01*
X119857185Y-120556225D01*
X119990529Y-120270780D01*
X120015000Y-120079613D01*
X119953308Y-119751860D01*
X119774793Y-119441743D01*
X119489296Y-119157672D01*
X119106660Y-118908060D01*
X118636724Y-118701317D01*
X118271284Y-118589242D01*
X117993931Y-118538022D01*
X117654471Y-118505572D01*
X117295198Y-118492886D01*
X116958404Y-118500955D01*
X116686385Y-118530771D01*
X116601456Y-118550067D01*
X116395500Y-118609134D01*
X116395500Y-117411500D01*
X148717000Y-117411500D01*
X148717000Y-116522500D01*
X116397046Y-116522500D01*
X115572743Y-116522500D01*
X114046000Y-116522500D01*
X113798206Y-116274705D01*
X113439685Y-115993141D01*
X112990416Y-115761299D01*
X112480136Y-115588749D01*
X111938582Y-115485063D01*
X111395493Y-115459812D01*
X111283750Y-115465389D01*
X111023577Y-115487099D01*
X110797754Y-115513050D01*
X110648620Y-115538234D01*
X110632875Y-115542391D01*
X110490000Y-115584812D01*
X110490000Y-113735906D01*
X110491568Y-113266199D01*
X110496000Y-112840594D01*
X110502892Y-112474820D01*
X110511836Y-112184605D01*
X110522429Y-111985678D01*
X110534264Y-111893765D01*
X110537625Y-111889337D01*
X110603954Y-111914835D01*
X110774074Y-111986759D01*
X111035798Y-112099782D01*
X111376940Y-112248579D01*
X111785313Y-112427823D01*
X112248731Y-112632187D01*
X112755008Y-112856346D01*
X113061750Y-112992559D01*
X115538250Y-114093442D01*
X115555497Y-115307971D01*
X115572743Y-116522500D01*
X116397046Y-116522500D01*
X116363750Y-111792432D01*
X109696250Y-108855576D01*
X109679884Y-112689038D01*
G37*
X109679884Y-112689038D02*
X109663517Y-116522500D01*
X109093000Y-116522500D01*
X109093000Y-117411500D01*
X109605237Y-117411500D01*
X109875571Y-117416526D01*
X110057567Y-117437169D01*
X110189681Y-117481776D01*
X110310368Y-117558694D01*
X110321238Y-117566918D01*
X110668708Y-117783871D01*
X111091586Y-117974496D01*
X111538398Y-118117991D01*
X111835657Y-118178933D01*
X112424005Y-118209883D01*
X112995366Y-118131499D01*
X113425312Y-117989788D01*
X113616439Y-117886519D01*
X113803834Y-117751975D01*
X113955342Y-117613275D01*
X114038803Y-117497539D01*
X114046000Y-117466340D01*
X114105393Y-117445121D01*
X114267171Y-117427722D01*
X114506737Y-117415922D01*
X114799493Y-117411501D01*
X114804227Y-117411500D01*
X115562453Y-117411500D01*
X115582102Y-118633875D01*
X115601750Y-119856250D01*
X115785265Y-120126807D01*
X115997567Y-120367064D01*
X116300043Y-120612059D01*
X116659077Y-120838152D01*
X117041056Y-121021701D01*
X117079044Y-121036737D01*
X117365458Y-121116201D01*
X117728979Y-121172402D01*
X118123193Y-121202293D01*
X118501685Y-121202828D01*
X118818042Y-121170960D01*
X118889939Y-121155622D01*
X119293014Y-121011917D01*
X119620055Y-120807694D01*
X119857185Y-120556225D01*
X119990529Y-120270780D01*
X120015000Y-120079613D01*
X119953308Y-119751860D01*
X119774793Y-119441743D01*
X119489296Y-119157672D01*
X119106660Y-118908060D01*
X118636724Y-118701317D01*
X118271284Y-118589242D01*
X117993931Y-118538022D01*
X117654471Y-118505572D01*
X117295198Y-118492886D01*
X116958404Y-118500955D01*
X116686385Y-118530771D01*
X116601456Y-118550067D01*
X116395500Y-118609134D01*
X116395500Y-117411500D01*
X148717000Y-117411500D01*
X148717000Y-116522500D01*
X116397046Y-116522500D01*
X115572743Y-116522500D01*
X114046000Y-116522500D01*
X113798206Y-116274705D01*
X113439685Y-115993141D01*
X112990416Y-115761299D01*
X112480136Y-115588749D01*
X111938582Y-115485063D01*
X111395493Y-115459812D01*
X111283750Y-115465389D01*
X111023577Y-115487099D01*
X110797754Y-115513050D01*
X110648620Y-115538234D01*
X110632875Y-115542391D01*
X110490000Y-115584812D01*
X110490000Y-113735906D01*
X110491568Y-113266199D01*
X110496000Y-112840594D01*
X110502892Y-112474820D01*
X110511836Y-112184605D01*
X110522429Y-111985678D01*
X110534264Y-111893765D01*
X110537625Y-111889337D01*
X110603954Y-111914835D01*
X110774074Y-111986759D01*
X111035798Y-112099782D01*
X111376940Y-112248579D01*
X111785313Y-112427823D01*
X112248731Y-112632187D01*
X112755008Y-112856346D01*
X113061750Y-112992559D01*
X115538250Y-114093442D01*
X115555497Y-115307971D01*
X115572743Y-116522500D01*
X116397046Y-116522500D01*
X116363750Y-111792432D01*
X109696250Y-108855576D01*
X109679884Y-112689038D01*
G36*
X135599216Y-110682112D02*
G01*
X135292959Y-110687747D01*
X135082788Y-110698596D01*
X134953262Y-110715855D01*
X134888941Y-110740716D01*
X134874000Y-110768866D01*
X134928175Y-110848540D01*
X135034366Y-110897481D01*
X135204701Y-110974848D01*
X135320116Y-111063115D01*
X135355925Y-111104623D01*
X135384190Y-111158943D01*
X135405801Y-111240401D01*
X135421646Y-111363322D01*
X135432615Y-111542031D01*
X135439595Y-111790855D01*
X135443477Y-112124119D01*
X135445149Y-112556148D01*
X135445500Y-113083658D01*
X135445337Y-113645629D01*
X135443174Y-114094136D01*
X135436498Y-114442715D01*
X135422799Y-114704900D01*
X135399565Y-114894227D01*
X135364286Y-115024232D01*
X135314450Y-115108448D01*
X135247544Y-115160412D01*
X135161059Y-115193660D01*
X135052483Y-115221725D01*
X135048625Y-115222686D01*
X134922186Y-115281813D01*
X134874000Y-115354633D01*
X134897203Y-115391315D01*
X134978385Y-115416702D01*
X135134913Y-115432585D01*
X135384150Y-115440754D01*
X135731250Y-115443000D01*
X136588500Y-115443000D01*
X136588500Y-114930885D01*
X136948425Y-115202817D01*
X137308350Y-115474750D01*
X138012050Y-115489297D01*
X138314513Y-115489456D01*
X138583665Y-115478537D01*
X138785745Y-115458542D01*
X138874500Y-115438177D01*
X139019663Y-115352907D01*
X139191142Y-115218864D01*
X139245043Y-115169629D01*
X139365306Y-115051750D01*
X139460377Y-114943794D01*
X139533540Y-114829331D01*
X139588079Y-114691932D01*
X139627278Y-114515169D01*
X139654422Y-114282611D01*
X139672795Y-113977830D01*
X139685682Y-113584396D01*
X139696365Y-113085880D01*
X139700000Y-112893745D01*
X139710908Y-112352724D01*
X139723153Y-111924636D01*
X139739916Y-111595429D01*
X139764379Y-111351049D01*
X139799725Y-111177444D01*
X139849133Y-111060561D01*
X139915787Y-110986346D01*
X140002866Y-110940747D01*
X140113554Y-110909710D01*
X140151085Y-110901303D01*
X140281810Y-110845682D01*
X140335000Y-110770704D01*
X140315587Y-110737853D01*
X140246872Y-110713782D01*
X140113142Y-110697251D01*
X139898686Y-110687022D01*
X139587792Y-110681852D01*
X139192000Y-110680500D01*
X138774216Y-110682112D01*
X138467959Y-110687747D01*
X138257788Y-110698596D01*
X138128262Y-110715855D01*
X138063941Y-110740716D01*
X138049000Y-110768866D01*
X138103175Y-110848540D01*
X138209366Y-110897481D01*
X138379701Y-110974848D01*
X138495116Y-111063115D01*
X138533486Y-111107959D01*
X138563132Y-111166702D01*
X138585172Y-111254979D01*
X138600727Y-111388422D01*
X138610916Y-111582666D01*
X138616858Y-111853344D01*
X138619673Y-112216090D01*
X138620481Y-112686537D01*
X138620500Y-112814028D01*
X138619407Y-113328104D01*
X138615524Y-113731259D01*
X138607947Y-114039554D01*
X138595773Y-114269054D01*
X138578096Y-114435822D01*
X138554013Y-114555921D01*
X138522619Y-114645416D01*
X138516688Y-114658325D01*
X138345626Y-114885314D01*
X138103359Y-115024675D01*
X137810885Y-115076108D01*
X137489209Y-115039318D01*
X137159330Y-114914005D01*
X136842251Y-114699871D01*
X136822007Y-114682365D01*
X136588500Y-114477343D01*
X136588500Y-112832921D01*
X136588989Y-112331811D01*
X136591189Y-111942169D01*
X136596201Y-111648464D01*
X136605124Y-111435168D01*
X136619059Y-111286748D01*
X136639107Y-111187676D01*
X136666366Y-111122420D01*
X136701939Y-111075451D01*
X136713885Y-111063115D01*
X136870040Y-110951234D01*
X136999635Y-110897481D01*
X137119551Y-110837532D01*
X137160000Y-110768866D01*
X137139139Y-110736566D01*
X137066259Y-110712889D01*
X136925921Y-110696641D01*
X136702684Y-110686627D01*
X136381105Y-110681655D01*
X136017000Y-110680500D01*
X135599216Y-110682112D01*
G37*
X135599216Y-110682112D02*
X135292959Y-110687747D01*
X135082788Y-110698596D01*
X134953262Y-110715855D01*
X134888941Y-110740716D01*
X134874000Y-110768866D01*
X134928175Y-110848540D01*
X135034366Y-110897481D01*
X135204701Y-110974848D01*
X135320116Y-111063115D01*
X135355925Y-111104623D01*
X135384190Y-111158943D01*
X135405801Y-111240401D01*
X135421646Y-111363322D01*
X135432615Y-111542031D01*
X135439595Y-111790855D01*
X135443477Y-112124119D01*
X135445149Y-112556148D01*
X135445500Y-113083658D01*
X135445337Y-113645629D01*
X135443174Y-114094136D01*
X135436498Y-114442715D01*
X135422799Y-114704900D01*
X135399565Y-114894227D01*
X135364286Y-115024232D01*
X135314450Y-115108448D01*
X135247544Y-115160412D01*
X135161059Y-115193660D01*
X135052483Y-115221725D01*
X135048625Y-115222686D01*
X134922186Y-115281813D01*
X134874000Y-115354633D01*
X134897203Y-115391315D01*
X134978385Y-115416702D01*
X135134913Y-115432585D01*
X135384150Y-115440754D01*
X135731250Y-115443000D01*
X136588500Y-115443000D01*
X136588500Y-114930885D01*
X136948425Y-115202817D01*
X137308350Y-115474750D01*
X138012050Y-115489297D01*
X138314513Y-115489456D01*
X138583665Y-115478537D01*
X138785745Y-115458542D01*
X138874500Y-115438177D01*
X139019663Y-115352907D01*
X139191142Y-115218864D01*
X139245043Y-115169629D01*
X139365306Y-115051750D01*
X139460377Y-114943794D01*
X139533540Y-114829331D01*
X139588079Y-114691932D01*
X139627278Y-114515169D01*
X139654422Y-114282611D01*
X139672795Y-113977830D01*
X139685682Y-113584396D01*
X139696365Y-113085880D01*
X139700000Y-112893745D01*
X139710908Y-112352724D01*
X139723153Y-111924636D01*
X139739916Y-111595429D01*
X139764379Y-111351049D01*
X139799725Y-111177444D01*
X139849133Y-111060561D01*
X139915787Y-110986346D01*
X140002866Y-110940747D01*
X140113554Y-110909710D01*
X140151085Y-110901303D01*
X140281810Y-110845682D01*
X140335000Y-110770704D01*
X140315587Y-110737853D01*
X140246872Y-110713782D01*
X140113142Y-110697251D01*
X139898686Y-110687022D01*
X139587792Y-110681852D01*
X139192000Y-110680500D01*
X138774216Y-110682112D01*
X138467959Y-110687747D01*
X138257788Y-110698596D01*
X138128262Y-110715855D01*
X138063941Y-110740716D01*
X138049000Y-110768866D01*
X138103175Y-110848540D01*
X138209366Y-110897481D01*
X138379701Y-110974848D01*
X138495116Y-111063115D01*
X138533486Y-111107959D01*
X138563132Y-111166702D01*
X138585172Y-111254979D01*
X138600727Y-111388422D01*
X138610916Y-111582666D01*
X138616858Y-111853344D01*
X138619673Y-112216090D01*
X138620481Y-112686537D01*
X138620500Y-112814028D01*
X138619407Y-113328104D01*
X138615524Y-113731259D01*
X138607947Y-114039554D01*
X138595773Y-114269054D01*
X138578096Y-114435822D01*
X138554013Y-114555921D01*
X138522619Y-114645416D01*
X138516688Y-114658325D01*
X138345626Y-114885314D01*
X138103359Y-115024675D01*
X137810885Y-115076108D01*
X137489209Y-115039318D01*
X137159330Y-114914005D01*
X136842251Y-114699871D01*
X136822007Y-114682365D01*
X136588500Y-114477343D01*
X136588500Y-112832921D01*
X136588989Y-112331811D01*
X136591189Y-111942169D01*
X136596201Y-111648464D01*
X136605124Y-111435168D01*
X136619059Y-111286748D01*
X136639107Y-111187676D01*
X136666366Y-111122420D01*
X136701939Y-111075451D01*
X136713885Y-111063115D01*
X136870040Y-110951234D01*
X136999635Y-110897481D01*
X137119551Y-110837532D01*
X137160000Y-110768866D01*
X137139139Y-110736566D01*
X137066259Y-110712889D01*
X136925921Y-110696641D01*
X136702684Y-110686627D01*
X136381105Y-110681655D01*
X136017000Y-110680500D01*
X135599216Y-110682112D01*
G36*
X146403605Y-108019542D02*
G01*
X145844835Y-108023412D01*
X145462625Y-108026382D01*
X144834063Y-108031510D01*
X144318977Y-108036547D01*
X143903846Y-108042302D01*
X143575150Y-108049586D01*
X143319369Y-108059207D01*
X143122981Y-108071975D01*
X142972466Y-108088700D01*
X142854303Y-108110190D01*
X142754972Y-108137256D01*
X142660952Y-108170707D01*
X142591219Y-108198290D01*
X142213529Y-108399055D01*
X141887798Y-108667044D01*
X141638104Y-108977538D01*
X141488524Y-109305815D01*
X141479844Y-109339314D01*
X141426012Y-109802254D01*
X141492613Y-110229210D01*
X141676894Y-110615087D01*
X141976102Y-110954789D01*
X142387483Y-111243222D01*
X142555666Y-111330262D01*
X142970250Y-111528609D01*
X142684500Y-111602225D01*
X142177329Y-111779027D01*
X141740359Y-112024890D01*
X141391167Y-112327569D01*
X141148858Y-112671821D01*
X141068074Y-112885651D01*
X141005699Y-113149410D01*
X140986226Y-113291537D01*
X140998888Y-113786783D01*
X141126398Y-114234679D01*
X141362663Y-114626631D01*
X141701590Y-114954043D01*
X142137083Y-115208321D01*
X142421314Y-115315707D01*
X142529474Y-115347613D01*
X142641018Y-115373715D01*
X142769427Y-115394592D01*
X142928185Y-115410822D01*
X143130776Y-115422984D01*
X143390683Y-115431654D01*
X143721389Y-115437412D01*
X144136377Y-115440836D01*
X144649130Y-115442503D01*
X145273132Y-115442992D01*
X145389939Y-115443000D01*
X146027984Y-115442784D01*
X146550535Y-115441783D01*
X146969097Y-115439463D01*
X147295175Y-115435291D01*
X147540275Y-115428736D01*
X147715902Y-115419265D01*
X147833562Y-115406344D01*
X147904761Y-115389442D01*
X147941002Y-115368025D01*
X147953793Y-115341561D01*
X147955000Y-115324252D01*
X147913265Y-115232459D01*
X147774388Y-115158407D01*
X147673705Y-115126747D01*
X147381279Y-115007594D01*
X147188233Y-114832085D01*
X147072044Y-114579477D01*
X147069454Y-114570288D01*
X147052644Y-114444738D01*
X147038250Y-114209116D01*
X147026270Y-113880327D01*
X147016699Y-113475276D01*
X147009537Y-113010868D01*
X147004781Y-112504009D01*
X147002429Y-111971603D01*
X147002436Y-111887000D01*
X145362789Y-111887000D01*
X145341270Y-113184221D01*
X145333094Y-113625746D01*
X145323922Y-113958871D01*
X145311809Y-114202192D01*
X145294808Y-114374305D01*
X145270975Y-114493805D01*
X145238362Y-114579289D01*
X145195026Y-114649353D01*
X145186803Y-114660596D01*
X144983636Y-114835550D01*
X144696000Y-114949729D01*
X144354019Y-114997108D01*
X143987817Y-114971661D01*
X143820031Y-114933981D01*
X143443606Y-114769862D01*
X143151885Y-114512991D01*
X142948977Y-114168770D01*
X142838994Y-113742601D01*
X142826908Y-113629055D01*
X142827642Y-113190239D01*
X142913545Y-112826201D01*
X143093350Y-112510296D01*
X143252763Y-112329956D01*
X143457430Y-112150287D01*
X143669263Y-112024794D01*
X143916653Y-111944869D01*
X144227990Y-111901902D01*
X144631668Y-111887285D01*
X144713637Y-111887000D01*
X145362789Y-111887000D01*
X147002436Y-111887000D01*
X147002478Y-111430554D01*
X147002714Y-111379000D01*
X145351500Y-111379000D01*
X144891125Y-111378645D01*
X144620571Y-111368873D01*
X144364263Y-111343681D01*
X144188131Y-111310920D01*
X143862821Y-111157642D01*
X143594253Y-110905253D01*
X143395694Y-110573969D01*
X143280410Y-110184006D01*
X143256355Y-109891099D01*
X143304779Y-109453486D01*
X143449448Y-109097196D01*
X143691421Y-108821250D01*
X144031761Y-108624671D01*
X144471526Y-108506480D01*
X144794746Y-108472129D01*
X145351500Y-108440384D01*
X145351500Y-111379000D01*
X147002714Y-111379000D01*
X147004926Y-110897770D01*
X147009770Y-110390153D01*
X147017009Y-109924610D01*
X147026639Y-109518045D01*
X147038659Y-109187363D01*
X147053066Y-108949470D01*
X147069858Y-108821270D01*
X147070251Y-108819821D01*
X147200136Y-108580259D01*
X147431464Y-108400170D01*
X147747474Y-108292585D01*
X147748625Y-108292367D01*
X147903160Y-108237294D01*
X147954675Y-108141298D01*
X147955000Y-108130040D01*
X147951437Y-108099008D01*
X147932950Y-108073800D01*
X147887849Y-108053929D01*
X147804443Y-108038908D01*
X147671038Y-108028251D01*
X147475944Y-108021472D01*
X147207468Y-108018085D01*
X146853919Y-108017604D01*
X146403605Y-108019542D01*
G37*
X146403605Y-108019542D02*
X145844835Y-108023412D01*
X145462625Y-108026382D01*
X144834063Y-108031510D01*
X144318977Y-108036547D01*
X143903846Y-108042302D01*
X143575150Y-108049586D01*
X143319369Y-108059207D01*
X143122981Y-108071975D01*
X142972466Y-108088700D01*
X142854303Y-108110190D01*
X142754972Y-108137256D01*
X142660952Y-108170707D01*
X142591219Y-108198290D01*
X142213529Y-108399055D01*
X141887798Y-108667044D01*
X141638104Y-108977538D01*
X141488524Y-109305815D01*
X141479844Y-109339314D01*
X141426012Y-109802254D01*
X141492613Y-110229210D01*
X141676894Y-110615087D01*
X141976102Y-110954789D01*
X142387483Y-111243222D01*
X142555666Y-111330262D01*
X142970250Y-111528609D01*
X142684500Y-111602225D01*
X142177329Y-111779027D01*
X141740359Y-112024890D01*
X141391167Y-112327569D01*
X141148858Y-112671821D01*
X141068074Y-112885651D01*
X141005699Y-113149410D01*
X140986226Y-113291537D01*
X140998888Y-113786783D01*
X141126398Y-114234679D01*
X141362663Y-114626631D01*
X141701590Y-114954043D01*
X142137083Y-115208321D01*
X142421314Y-115315707D01*
X142529474Y-115347613D01*
X142641018Y-115373715D01*
X142769427Y-115394592D01*
X142928185Y-115410822D01*
X143130776Y-115422984D01*
X143390683Y-115431654D01*
X143721389Y-115437412D01*
X144136377Y-115440836D01*
X144649130Y-115442503D01*
X145273132Y-115442992D01*
X145389939Y-115443000D01*
X146027984Y-115442784D01*
X146550535Y-115441783D01*
X146969097Y-115439463D01*
X147295175Y-115435291D01*
X147540275Y-115428736D01*
X147715902Y-115419265D01*
X147833562Y-115406344D01*
X147904761Y-115389442D01*
X147941002Y-115368025D01*
X147953793Y-115341561D01*
X147955000Y-115324252D01*
X147913265Y-115232459D01*
X147774388Y-115158407D01*
X147673705Y-115126747D01*
X147381279Y-115007594D01*
X147188233Y-114832085D01*
X147072044Y-114579477D01*
X147069454Y-114570288D01*
X147052644Y-114444738D01*
X147038250Y-114209116D01*
X147026270Y-113880327D01*
X147016699Y-113475276D01*
X147009537Y-113010868D01*
X147004781Y-112504009D01*
X147002429Y-111971603D01*
X147002436Y-111887000D01*
X145362789Y-111887000D01*
X145341270Y-113184221D01*
X145333094Y-113625746D01*
X145323922Y-113958871D01*
X145311809Y-114202192D01*
X145294808Y-114374305D01*
X145270975Y-114493805D01*
X145238362Y-114579289D01*
X145195026Y-114649353D01*
X145186803Y-114660596D01*
X144983636Y-114835550D01*
X144696000Y-114949729D01*
X144354019Y-114997108D01*
X143987817Y-114971661D01*
X143820031Y-114933981D01*
X143443606Y-114769862D01*
X143151885Y-114512991D01*
X142948977Y-114168770D01*
X142838994Y-113742601D01*
X142826908Y-113629055D01*
X142827642Y-113190239D01*
X142913545Y-112826201D01*
X143093350Y-112510296D01*
X143252763Y-112329956D01*
X143457430Y-112150287D01*
X143669263Y-112024794D01*
X143916653Y-111944869D01*
X144227990Y-111901902D01*
X144631668Y-111887285D01*
X144713637Y-111887000D01*
X145362789Y-111887000D01*
X147002436Y-111887000D01*
X147002478Y-111430554D01*
X147002714Y-111379000D01*
X145351500Y-111379000D01*
X144891125Y-111378645D01*
X144620571Y-111368873D01*
X144364263Y-111343681D01*
X144188131Y-111310920D01*
X143862821Y-111157642D01*
X143594253Y-110905253D01*
X143395694Y-110573969D01*
X143280410Y-110184006D01*
X143256355Y-109891099D01*
X143304779Y-109453486D01*
X143449448Y-109097196D01*
X143691421Y-108821250D01*
X144031761Y-108624671D01*
X144471526Y-108506480D01*
X144794746Y-108472129D01*
X145351500Y-108440384D01*
X145351500Y-111379000D01*
X147002714Y-111379000D01*
X147004926Y-110897770D01*
X147009770Y-110390153D01*
X147017009Y-109924610D01*
X147026639Y-109518045D01*
X147038659Y-109187363D01*
X147053066Y-108949470D01*
X147069858Y-108821270D01*
X147070251Y-108819821D01*
X147200136Y-108580259D01*
X147431464Y-108400170D01*
X147747474Y-108292585D01*
X147748625Y-108292367D01*
X147903160Y-108237294D01*
X147954675Y-108141298D01*
X147955000Y-108130040D01*
X147951437Y-108099008D01*
X147932950Y-108073800D01*
X147887849Y-108053929D01*
X147804443Y-108038908D01*
X147671038Y-108028251D01*
X147475944Y-108021472D01*
X147207468Y-108018085D01*
X146853919Y-108017604D01*
X146403605Y-108019542D01*
G36*
X132868716Y-110682112D02*
G01*
X132562459Y-110687747D01*
X132352288Y-110698596D01*
X132222762Y-110715855D01*
X132158441Y-110740716D01*
X132143500Y-110768866D01*
X132197675Y-110848540D01*
X132303866Y-110897481D01*
X132474201Y-110974848D01*
X132589616Y-111063115D01*
X132625644Y-111104906D01*
X132654032Y-111159600D01*
X132675685Y-111241631D01*
X132691512Y-111365437D01*
X132702419Y-111545452D01*
X132709314Y-111796112D01*
X132713104Y-112131852D01*
X132714697Y-112567109D01*
X132715000Y-113058149D01*
X132714806Y-113593909D01*
X132713541Y-114016902D01*
X132710185Y-114341360D01*
X132703719Y-114581516D01*
X132693121Y-114751603D01*
X132677372Y-114865853D01*
X132655450Y-114938499D01*
X132626336Y-114983774D01*
X132589010Y-115015910D01*
X132573871Y-115026649D01*
X132403750Y-115091238D01*
X132157004Y-115121529D01*
X131879368Y-115117233D01*
X131616578Y-115078067D01*
X131474791Y-115033523D01*
X131290607Y-114911826D01*
X131103944Y-114692396D01*
X131016456Y-114560144D01*
X130853978Y-114319234D01*
X130738339Y-114195420D01*
X130666377Y-114189059D01*
X130634925Y-114300506D01*
X130640820Y-114530116D01*
X130647319Y-114601625D01*
X130675025Y-114857883D01*
X130704272Y-115093769D01*
X130725284Y-115236625D01*
X130760634Y-115443000D01*
X132595067Y-115443000D01*
X133135679Y-115442167D01*
X133561964Y-115439256D01*
X133886589Y-115433643D01*
X134122221Y-115424704D01*
X134281524Y-115411818D01*
X134377164Y-115394361D01*
X134421808Y-115371711D01*
X134429500Y-115352795D01*
X134374636Y-115276628D01*
X134245585Y-115222196D01*
X134139537Y-115197158D01*
X134054746Y-115164810D01*
X133988970Y-115111927D01*
X133939967Y-115025287D01*
X133905496Y-114891664D01*
X133883314Y-114697836D01*
X133871181Y-114430578D01*
X133866853Y-114076667D01*
X133868091Y-113622878D01*
X133872651Y-113055988D01*
X133872930Y-113023954D01*
X133889750Y-111093250D01*
X134157324Y-110966250D01*
X134329769Y-110877124D01*
X134420918Y-110808110D01*
X134423451Y-110756806D01*
X134330046Y-110720809D01*
X134133383Y-110697717D01*
X133826140Y-110685128D01*
X133400996Y-110680639D01*
X133286500Y-110680500D01*
X132868716Y-110682112D01*
G37*
X132868716Y-110682112D02*
X132562459Y-110687747D01*
X132352288Y-110698596D01*
X132222762Y-110715855D01*
X132158441Y-110740716D01*
X132143500Y-110768866D01*
X132197675Y-110848540D01*
X132303866Y-110897481D01*
X132474201Y-110974848D01*
X132589616Y-111063115D01*
X132625644Y-111104906D01*
X132654032Y-111159600D01*
X132675685Y-111241631D01*
X132691512Y-111365437D01*
X132702419Y-111545452D01*
X132709314Y-111796112D01*
X132713104Y-112131852D01*
X132714697Y-112567109D01*
X132715000Y-113058149D01*
X132714806Y-113593909D01*
X132713541Y-114016902D01*
X132710185Y-114341360D01*
X132703719Y-114581516D01*
X132693121Y-114751603D01*
X132677372Y-114865853D01*
X132655450Y-114938499D01*
X132626336Y-114983774D01*
X132589010Y-115015910D01*
X132573871Y-115026649D01*
X132403750Y-115091238D01*
X132157004Y-115121529D01*
X131879368Y-115117233D01*
X131616578Y-115078067D01*
X131474791Y-115033523D01*
X131290607Y-114911826D01*
X131103944Y-114692396D01*
X131016456Y-114560144D01*
X130853978Y-114319234D01*
X130738339Y-114195420D01*
X130666377Y-114189059D01*
X130634925Y-114300506D01*
X130640820Y-114530116D01*
X130647319Y-114601625D01*
X130675025Y-114857883D01*
X130704272Y-115093769D01*
X130725284Y-115236625D01*
X130760634Y-115443000D01*
X132595067Y-115443000D01*
X133135679Y-115442167D01*
X133561964Y-115439256D01*
X133886589Y-115433643D01*
X134122221Y-115424704D01*
X134281524Y-115411818D01*
X134377164Y-115394361D01*
X134421808Y-115371711D01*
X134429500Y-115352795D01*
X134374636Y-115276628D01*
X134245585Y-115222196D01*
X134139537Y-115197158D01*
X134054746Y-115164810D01*
X133988970Y-115111927D01*
X133939967Y-115025287D01*
X133905496Y-114891664D01*
X133883314Y-114697836D01*
X133871181Y-114430578D01*
X133866853Y-114076667D01*
X133868091Y-113622878D01*
X133872651Y-113055988D01*
X133872930Y-113023954D01*
X133889750Y-111093250D01*
X134157324Y-110966250D01*
X134329769Y-110877124D01*
X134420918Y-110808110D01*
X134423451Y-110756806D01*
X134330046Y-110720809D01*
X134133383Y-110697717D01*
X133826140Y-110685128D01*
X133400996Y-110680639D01*
X133286500Y-110680500D01*
X132868716Y-110682112D01*
G36*
X126168903Y-110682077D02*
G01*
X125892125Y-110687881D01*
X125708017Y-110699520D01*
X125599425Y-110718602D01*
X125549196Y-110746735D01*
X125539500Y-110775750D01*
X125594814Y-110852287D01*
X125700361Y-110871000D01*
X125840071Y-110885514D01*
X125992482Y-110934387D01*
X126168516Y-111025618D01*
X126379099Y-111167204D01*
X126635152Y-111367142D01*
X126947599Y-111633429D01*
X127327362Y-111974063D01*
X127785366Y-112397042D01*
X127787910Y-112399414D01*
X127775970Y-112458937D01*
X127692907Y-112596677D01*
X127536567Y-112815442D01*
X127304797Y-113118043D01*
X126995441Y-113507290D01*
X126606348Y-113985993D01*
X126135362Y-114556962D01*
X126120570Y-114574793D01*
X125867175Y-114862930D01*
X125646892Y-115079265D01*
X125475567Y-115208650D01*
X125437945Y-115227476D01*
X125293222Y-115296285D01*
X125233436Y-115349485D01*
X125265882Y-115388833D01*
X125397856Y-115416086D01*
X125636651Y-115432999D01*
X125989565Y-115441329D01*
X126333250Y-115443000D01*
X126754748Y-115440844D01*
X127062837Y-115433726D01*
X127271050Y-115420669D01*
X127392915Y-115400697D01*
X127441963Y-115372833D01*
X127444500Y-115362807D01*
X127392976Y-115277288D01*
X127305733Y-115219932D01*
X127189461Y-115146388D01*
X127146584Y-115092552D01*
X127178406Y-115025255D01*
X127279135Y-114876399D01*
X127436743Y-114662295D01*
X127639201Y-114399254D01*
X127874482Y-114103588D01*
X127890347Y-114083971D01*
X128654492Y-113140088D01*
X128619250Y-115030250D01*
X128351677Y-115157250D01*
X128179232Y-115246375D01*
X128088083Y-115315389D01*
X128085550Y-115366693D01*
X128178955Y-115402690D01*
X128375618Y-115425782D01*
X128682861Y-115438371D01*
X129108005Y-115442860D01*
X129222500Y-115443000D01*
X129638768Y-115441467D01*
X129943775Y-115436044D01*
X130153234Y-115425491D01*
X130282858Y-115408566D01*
X130348358Y-115384030D01*
X130365500Y-115352795D01*
X130310515Y-115277464D01*
X130177968Y-115221412D01*
X130175079Y-115220767D01*
X130071135Y-115194349D01*
X129988042Y-115156810D01*
X129923468Y-115094847D01*
X129875078Y-114995157D01*
X129840542Y-114844438D01*
X129817527Y-114629388D01*
X129803698Y-114336704D01*
X129796725Y-113953085D01*
X129794274Y-113465227D01*
X129794000Y-113047620D01*
X129794391Y-112511657D01*
X129796172Y-112088211D01*
X129800259Y-111762801D01*
X129807567Y-111520944D01*
X129819011Y-111348160D01*
X129835506Y-111229965D01*
X129857966Y-111151879D01*
X129887307Y-111099420D01*
X129919385Y-111063115D01*
X130075540Y-110951234D01*
X130205135Y-110897481D01*
X130325051Y-110837532D01*
X130365500Y-110768866D01*
X130344639Y-110736566D01*
X130271759Y-110712889D01*
X130131421Y-110696641D01*
X129908184Y-110686627D01*
X129586605Y-110681655D01*
X129222500Y-110680500D01*
X128798087Y-110682424D01*
X128486463Y-110688881D01*
X128273466Y-110700891D01*
X128144933Y-110719476D01*
X128086702Y-110745660D01*
X128079500Y-110762993D01*
X128133503Y-110836278D01*
X128266870Y-110912220D01*
X128301708Y-110925838D01*
X128467908Y-111011652D01*
X128581565Y-111115678D01*
X128589476Y-111128692D01*
X128615661Y-111243716D01*
X128632932Y-111457627D01*
X128639730Y-111742521D01*
X128637144Y-111980807D01*
X128619250Y-112710421D01*
X127869808Y-112004571D01*
X127559141Y-111706451D01*
X127339036Y-111477811D01*
X127203395Y-111305755D01*
X127146118Y-111177388D01*
X127161107Y-111079813D01*
X127242263Y-111000136D01*
X127363751Y-110934500D01*
X127500533Y-110850852D01*
X127568519Y-110769960D01*
X127570126Y-110759875D01*
X127538912Y-110728430D01*
X127434962Y-110705833D01*
X127244699Y-110691021D01*
X126954542Y-110682930D01*
X126555500Y-110680500D01*
X126168903Y-110682077D01*
G37*
X126168903Y-110682077D02*
X125892125Y-110687881D01*
X125708017Y-110699520D01*
X125599425Y-110718602D01*
X125549196Y-110746735D01*
X125539500Y-110775750D01*
X125594814Y-110852287D01*
X125700361Y-110871000D01*
X125840071Y-110885514D01*
X125992482Y-110934387D01*
X126168516Y-111025618D01*
X126379099Y-111167204D01*
X126635152Y-111367142D01*
X126947599Y-111633429D01*
X127327362Y-111974063D01*
X127785366Y-112397042D01*
X127787910Y-112399414D01*
X127775970Y-112458937D01*
X127692907Y-112596677D01*
X127536567Y-112815442D01*
X127304797Y-113118043D01*
X126995441Y-113507290D01*
X126606348Y-113985993D01*
X126135362Y-114556962D01*
X126120570Y-114574793D01*
X125867175Y-114862930D01*
X125646892Y-115079265D01*
X125475567Y-115208650D01*
X125437945Y-115227476D01*
X125293222Y-115296285D01*
X125233436Y-115349485D01*
X125265882Y-115388833D01*
X125397856Y-115416086D01*
X125636651Y-115432999D01*
X125989565Y-115441329D01*
X126333250Y-115443000D01*
X126754748Y-115440844D01*
X127062837Y-115433726D01*
X127271050Y-115420669D01*
X127392915Y-115400697D01*
X127441963Y-115372833D01*
X127444500Y-115362807D01*
X127392976Y-115277288D01*
X127305733Y-115219932D01*
X127189461Y-115146388D01*
X127146584Y-115092552D01*
X127178406Y-115025255D01*
X127279135Y-114876399D01*
X127436743Y-114662295D01*
X127639201Y-114399254D01*
X127874482Y-114103588D01*
X127890347Y-114083971D01*
X128654492Y-113140088D01*
X128619250Y-115030250D01*
X128351677Y-115157250D01*
X128179232Y-115246375D01*
X128088083Y-115315389D01*
X128085550Y-115366693D01*
X128178955Y-115402690D01*
X128375618Y-115425782D01*
X128682861Y-115438371D01*
X129108005Y-115442860D01*
X129222500Y-115443000D01*
X129638768Y-115441467D01*
X129943775Y-115436044D01*
X130153234Y-115425491D01*
X130282858Y-115408566D01*
X130348358Y-115384030D01*
X130365500Y-115352795D01*
X130310515Y-115277464D01*
X130177968Y-115221412D01*
X130175079Y-115220767D01*
X130071135Y-115194349D01*
X129988042Y-115156810D01*
X129923468Y-115094847D01*
X129875078Y-114995157D01*
X129840542Y-114844438D01*
X129817527Y-114629388D01*
X129803698Y-114336704D01*
X129796725Y-113953085D01*
X129794274Y-113465227D01*
X129794000Y-113047620D01*
X129794391Y-112511657D01*
X129796172Y-112088211D01*
X129800259Y-111762801D01*
X129807567Y-111520944D01*
X129819011Y-111348160D01*
X129835506Y-111229965D01*
X129857966Y-111151879D01*
X129887307Y-111099420D01*
X129919385Y-111063115D01*
X130075540Y-110951234D01*
X130205135Y-110897481D01*
X130325051Y-110837532D01*
X130365500Y-110768866D01*
X130344639Y-110736566D01*
X130271759Y-110712889D01*
X130131421Y-110696641D01*
X129908184Y-110686627D01*
X129586605Y-110681655D01*
X129222500Y-110680500D01*
X128798087Y-110682424D01*
X128486463Y-110688881D01*
X128273466Y-110700891D01*
X128144933Y-110719476D01*
X128086702Y-110745660D01*
X128079500Y-110762993D01*
X128133503Y-110836278D01*
X128266870Y-110912220D01*
X128301708Y-110925838D01*
X128467908Y-111011652D01*
X128581565Y-111115678D01*
X128589476Y-111128692D01*
X128615661Y-111243716D01*
X128632932Y-111457627D01*
X128639730Y-111742521D01*
X128637144Y-111980807D01*
X128619250Y-112710421D01*
X127869808Y-112004571D01*
X127559141Y-111706451D01*
X127339036Y-111477811D01*
X127203395Y-111305755D01*
X127146118Y-111177388D01*
X127161107Y-111079813D01*
X127242263Y-111000136D01*
X127363751Y-110934500D01*
X127500533Y-110850852D01*
X127568519Y-110769960D01*
X127570126Y-110759875D01*
X127538912Y-110728430D01*
X127434962Y-110705833D01*
X127244699Y-110691021D01*
X126954542Y-110682930D01*
X126555500Y-110680500D01*
X126168903Y-110682077D01*
G36*
X120765970Y-110682888D02*
G01*
X120544949Y-110691671D01*
X120412008Y-110709279D01*
X120347720Y-110738139D01*
X120332500Y-110775750D01*
X120380831Y-110859992D01*
X120422878Y-110871000D01*
X120542751Y-110910769D01*
X120699099Y-111034427D01*
X120897867Y-111248497D01*
X121145000Y-111559503D01*
X121446441Y-111973967D01*
X121508931Y-112062927D01*
X122110500Y-112923238D01*
X122110500Y-113932005D01*
X122109796Y-114311334D01*
X122105778Y-114585001D01*
X122095592Y-114774342D01*
X122076382Y-114900693D01*
X122045292Y-114985391D01*
X121999467Y-115049773D01*
X121954637Y-115096636D01*
X121811479Y-115203915D01*
X121676058Y-115252277D01*
X121668887Y-115252500D01*
X121563195Y-115291530D01*
X121539000Y-115347750D01*
X121555077Y-115382169D01*
X121614147Y-115407362D01*
X121732473Y-115424683D01*
X121926314Y-115435488D01*
X122211932Y-115441131D01*
X122605588Y-115442968D01*
X122682000Y-115443000D01*
X123095033Y-115441660D01*
X123397346Y-115436737D01*
X123605200Y-115426877D01*
X123734858Y-115410723D01*
X123802579Y-115386922D01*
X123824625Y-115354117D01*
X123825000Y-115347750D01*
X123771777Y-115270242D01*
X123695114Y-115252500D01*
X123562660Y-115209445D01*
X123417888Y-115104975D01*
X123409364Y-115096636D01*
X123346981Y-115028473D01*
X123303934Y-114954768D01*
X123276642Y-114851969D01*
X123261528Y-114696522D01*
X123255011Y-114464875D01*
X123253514Y-114133476D01*
X123253500Y-114070967D01*
X123253500Y-113201162D01*
X123928910Y-112160878D01*
X124206536Y-111739488D01*
X124430059Y-111416357D01*
X124609346Y-111180033D01*
X124754263Y-111019061D01*
X124874675Y-110921990D01*
X124980450Y-110877366D01*
X125040064Y-110871000D01*
X125138229Y-110828877D01*
X125158500Y-110775750D01*
X125142253Y-110740901D01*
X125082529Y-110715525D01*
X124962858Y-110698210D01*
X124766768Y-110687542D01*
X124477788Y-110682111D01*
X124079446Y-110680505D01*
X124047250Y-110680500D01*
X123637938Y-110682064D01*
X123339604Y-110687628D01*
X123136259Y-110698499D01*
X123011910Y-110715985D01*
X122950566Y-110741392D01*
X122936000Y-110771333D01*
X122990054Y-110850028D01*
X123078875Y-110882458D01*
X123194376Y-110926674D01*
X123238885Y-111023213D01*
X123209755Y-111181866D01*
X123104337Y-111412425D01*
X122919984Y-111724683D01*
X122801396Y-111908410D01*
X122609737Y-112194210D01*
X122472138Y-112384286D01*
X122377100Y-112491687D01*
X122313122Y-112529458D01*
X122269628Y-112511660D01*
X122151698Y-112366006D01*
X122006471Y-112160273D01*
X121851255Y-111922569D01*
X121703358Y-111681002D01*
X121580090Y-111463679D01*
X121498759Y-111298708D01*
X121475500Y-111222071D01*
X121522079Y-111073214D01*
X121632635Y-110939942D01*
X121763396Y-110872371D01*
X121782126Y-110870999D01*
X121848035Y-110819749D01*
X121856500Y-110775750D01*
X121837395Y-110734683D01*
X121767127Y-110707056D01*
X121626267Y-110690438D01*
X121395386Y-110682402D01*
X121094500Y-110680500D01*
X120765970Y-110682888D01*
G37*
X120765970Y-110682888D02*
X120544949Y-110691671D01*
X120412008Y-110709279D01*
X120347720Y-110738139D01*
X120332500Y-110775750D01*
X120380831Y-110859992D01*
X120422878Y-110871000D01*
X120542751Y-110910769D01*
X120699099Y-111034427D01*
X120897867Y-111248497D01*
X121145000Y-111559503D01*
X121446441Y-111973967D01*
X121508931Y-112062927D01*
X122110500Y-112923238D01*
X122110500Y-113932005D01*
X122109796Y-114311334D01*
X122105778Y-114585001D01*
X122095592Y-114774342D01*
X122076382Y-114900693D01*
X122045292Y-114985391D01*
X121999467Y-115049773D01*
X121954637Y-115096636D01*
X121811479Y-115203915D01*
X121676058Y-115252277D01*
X121668887Y-115252500D01*
X121563195Y-115291530D01*
X121539000Y-115347750D01*
X121555077Y-115382169D01*
X121614147Y-115407362D01*
X121732473Y-115424683D01*
X121926314Y-115435488D01*
X122211932Y-115441131D01*
X122605588Y-115442968D01*
X122682000Y-115443000D01*
X123095033Y-115441660D01*
X123397346Y-115436737D01*
X123605200Y-115426877D01*
X123734858Y-115410723D01*
X123802579Y-115386922D01*
X123824625Y-115354117D01*
X123825000Y-115347750D01*
X123771777Y-115270242D01*
X123695114Y-115252500D01*
X123562660Y-115209445D01*
X123417888Y-115104975D01*
X123409364Y-115096636D01*
X123346981Y-115028473D01*
X123303934Y-114954768D01*
X123276642Y-114851969D01*
X123261528Y-114696522D01*
X123255011Y-114464875D01*
X123253514Y-114133476D01*
X123253500Y-114070967D01*
X123253500Y-113201162D01*
X123928910Y-112160878D01*
X124206536Y-111739488D01*
X124430059Y-111416357D01*
X124609346Y-111180033D01*
X124754263Y-111019061D01*
X124874675Y-110921990D01*
X124980450Y-110877366D01*
X125040064Y-110871000D01*
X125138229Y-110828877D01*
X125158500Y-110775750D01*
X125142253Y-110740901D01*
X125082529Y-110715525D01*
X124962858Y-110698210D01*
X124766768Y-110687542D01*
X124477788Y-110682111D01*
X124079446Y-110680505D01*
X124047250Y-110680500D01*
X123637938Y-110682064D01*
X123339604Y-110687628D01*
X123136259Y-110698499D01*
X123011910Y-110715985D01*
X122950566Y-110741392D01*
X122936000Y-110771333D01*
X122990054Y-110850028D01*
X123078875Y-110882458D01*
X123194376Y-110926674D01*
X123238885Y-111023213D01*
X123209755Y-111181866D01*
X123104337Y-111412425D01*
X122919984Y-111724683D01*
X122801396Y-111908410D01*
X122609737Y-112194210D01*
X122472138Y-112384286D01*
X122377100Y-112491687D01*
X122313122Y-112529458D01*
X122269628Y-112511660D01*
X122151698Y-112366006D01*
X122006471Y-112160273D01*
X121851255Y-111922569D01*
X121703358Y-111681002D01*
X121580090Y-111463679D01*
X121498759Y-111298708D01*
X121475500Y-111222071D01*
X121522079Y-111073214D01*
X121632635Y-110939942D01*
X121763396Y-110872371D01*
X121782126Y-110870999D01*
X121848035Y-110819749D01*
X121856500Y-110775750D01*
X121837395Y-110734683D01*
X121767127Y-110707056D01*
X121626267Y-110690438D01*
X121395386Y-110682402D01*
X121094500Y-110680500D01*
X120765970Y-110682888D01*
G36*
X135623043Y-126566571D02*
G01*
X135526768Y-126590809D01*
X135440184Y-126633641D01*
X135365373Y-126693419D01*
X135304418Y-126768494D01*
X135259399Y-126857220D01*
X135233136Y-126953530D01*
X135227286Y-127050795D01*
X135242140Y-127144654D01*
X135275840Y-127232511D01*
X135326528Y-127311770D01*
X135392345Y-127379836D01*
X135471434Y-127434112D01*
X135561934Y-127472002D01*
X135613200Y-127484426D01*
X135657698Y-127491947D01*
X135691999Y-127494919D01*
X135724960Y-127493094D01*
X135765434Y-127486225D01*
X135798531Y-127479250D01*
X135891947Y-127447741D01*
X135975619Y-127396617D01*
X136047665Y-127327429D01*
X136106200Y-127241728D01*
X136120148Y-127214489D01*
X136136586Y-127178122D01*
X136146894Y-127147582D01*
X136152460Y-127115450D01*
X136154669Y-127074307D01*
X136154948Y-127028222D01*
X136150861Y-126943865D01*
X136137446Y-126874586D01*
X136112256Y-126813961D01*
X136072846Y-126755567D01*
X136034298Y-126711302D01*
X135962406Y-126645484D01*
X135887313Y-126600053D01*
X135804562Y-126572850D01*
X135726928Y-126562576D01*
X135623043Y-126566571D01*
G37*
X135623043Y-126566571D02*
X135526768Y-126590809D01*
X135440184Y-126633641D01*
X135365373Y-126693419D01*
X135304418Y-126768494D01*
X135259399Y-126857220D01*
X135233136Y-126953530D01*
X135227286Y-127050795D01*
X135242140Y-127144654D01*
X135275840Y-127232511D01*
X135326528Y-127311770D01*
X135392345Y-127379836D01*
X135471434Y-127434112D01*
X135561934Y-127472002D01*
X135613200Y-127484426D01*
X135657698Y-127491947D01*
X135691999Y-127494919D01*
X135724960Y-127493094D01*
X135765434Y-127486225D01*
X135798531Y-127479250D01*
X135891947Y-127447741D01*
X135975619Y-127396617D01*
X136047665Y-127327429D01*
X136106200Y-127241728D01*
X136120148Y-127214489D01*
X136136586Y-127178122D01*
X136146894Y-127147582D01*
X136152460Y-127115450D01*
X136154669Y-127074307D01*
X136154948Y-127028222D01*
X136150861Y-126943865D01*
X136137446Y-126874586D01*
X136112256Y-126813961D01*
X136072846Y-126755567D01*
X136034298Y-126711302D01*
X135962406Y-126645484D01*
X135887313Y-126600053D01*
X135804562Y-126572850D01*
X135726928Y-126562576D01*
X135623043Y-126566571D01*
G36*
X127163493Y-129012245D02*
G01*
X127163474Y-129246662D01*
X127163448Y-129459603D01*
X127163375Y-129652168D01*
X127163218Y-129825459D01*
X127162936Y-129980576D01*
X127162491Y-130118620D01*
X127161844Y-130240692D01*
X127160955Y-130347894D01*
X127159787Y-130441326D01*
X127158299Y-130522090D01*
X127156454Y-130591286D01*
X127154211Y-130650015D01*
X127151531Y-130699379D01*
X127148377Y-130740478D01*
X127144708Y-130774413D01*
X127140487Y-130802286D01*
X127135673Y-130825198D01*
X127130227Y-130844249D01*
X127124112Y-130860540D01*
X127117288Y-130875173D01*
X127109715Y-130889249D01*
X127101355Y-130903868D01*
X127096161Y-130912974D01*
X127061896Y-130973689D01*
X127920045Y-130973689D01*
X127920045Y-130877733D01*
X127920776Y-130834370D01*
X127922728Y-130801205D01*
X127925537Y-130783424D01*
X127926779Y-130781778D01*
X127938201Y-130788662D01*
X127960916Y-130806505D01*
X127983615Y-130825879D01*
X128038200Y-130866614D01*
X128107679Y-130907617D01*
X128184730Y-130945123D01*
X128262035Y-130975364D01*
X128292887Y-130985012D01*
X128361384Y-130999578D01*
X128444236Y-131009539D01*
X128533629Y-131014583D01*
X128621752Y-131014396D01*
X128700793Y-131008666D01*
X128738489Y-131002858D01*
X128876586Y-130964797D01*
X129003887Y-130907073D01*
X129119708Y-130830211D01*
X129223363Y-130734739D01*
X129314167Y-130621179D01*
X129380969Y-130510381D01*
X129435836Y-130393625D01*
X129477837Y-130274276D01*
X129507833Y-130148283D01*
X129526689Y-130011594D01*
X129535268Y-129860158D01*
X129535994Y-129782711D01*
X129533900Y-129725934D01*
X128704783Y-129725934D01*
X128704576Y-129819002D01*
X128701663Y-129906692D01*
X128696000Y-129983772D01*
X128687545Y-130045009D01*
X128684962Y-130057350D01*
X128653160Y-130164633D01*
X128611502Y-130251658D01*
X128559637Y-130318642D01*
X128497219Y-130365805D01*
X128423900Y-130393365D01*
X128339331Y-130401541D01*
X128243165Y-130390551D01*
X128179689Y-130374829D01*
X128130546Y-130356639D01*
X128076417Y-130330791D01*
X128035756Y-130307089D01*
X127965200Y-130260721D01*
X127965200Y-129110530D01*
X128032608Y-129066962D01*
X128111133Y-129026040D01*
X128195319Y-128999389D01*
X128280443Y-128987465D01*
X128361784Y-128990722D01*
X128434620Y-129009615D01*
X128466574Y-129025184D01*
X128524499Y-129068181D01*
X128573456Y-129124953D01*
X128614610Y-129197575D01*
X128649126Y-129288121D01*
X128678167Y-129398666D01*
X128679448Y-129404533D01*
X128689619Y-129466788D01*
X128697261Y-129544594D01*
X128702330Y-129632720D01*
X128704783Y-129725934D01*
X129533900Y-129725934D01*
X129528143Y-129569895D01*
X129506198Y-129374059D01*
X129470214Y-129195332D01*
X129420241Y-129033845D01*
X129356332Y-128889726D01*
X129278538Y-128763106D01*
X129186911Y-128654115D01*
X129081503Y-128562883D01*
X129036338Y-128531932D01*
X128935389Y-128475785D01*
X128832099Y-128436174D01*
X128722011Y-128412014D01*
X128600670Y-128402219D01*
X128508164Y-128403265D01*
X128378510Y-128414231D01*
X128265916Y-128436046D01*
X128167125Y-128469714D01*
X128078879Y-128516236D01*
X128030014Y-128550448D01*
X128000647Y-128572362D01*
X127978957Y-128587333D01*
X127970747Y-128591733D01*
X127969132Y-128580904D01*
X127967841Y-128550251D01*
X127966862Y-128502526D01*
X127966183Y-128440479D01*
X127965790Y-128366862D01*
X127965670Y-128284427D01*
X127965812Y-128195925D01*
X127966203Y-128104107D01*
X127966829Y-128011724D01*
X127967680Y-127921528D01*
X127968740Y-127836271D01*
X127969999Y-127758703D01*
X127971444Y-127691576D01*
X127973062Y-127637641D01*
X127974839Y-127599650D01*
X127975331Y-127592667D01*
X127982908Y-127522251D01*
X127994469Y-127467102D01*
X128012208Y-127419981D01*
X128038318Y-127373647D01*
X128044585Y-127364067D01*
X128069017Y-127327378D01*
X127163689Y-127327378D01*
X127163493Y-129012245D01*
G37*
X127163493Y-129012245D02*
X127163474Y-129246662D01*
X127163448Y-129459603D01*
X127163375Y-129652168D01*
X127163218Y-129825459D01*
X127162936Y-129980576D01*
X127162491Y-130118620D01*
X127161844Y-130240692D01*
X127160955Y-130347894D01*
X127159787Y-130441326D01*
X127158299Y-130522090D01*
X127156454Y-130591286D01*
X127154211Y-130650015D01*
X127151531Y-130699379D01*
X127148377Y-130740478D01*
X127144708Y-130774413D01*
X127140487Y-130802286D01*
X127135673Y-130825198D01*
X127130227Y-130844249D01*
X127124112Y-130860540D01*
X127117288Y-130875173D01*
X127109715Y-130889249D01*
X127101355Y-130903868D01*
X127096161Y-130912974D01*
X127061896Y-130973689D01*
X127920045Y-130973689D01*
X127920045Y-130877733D01*
X127920776Y-130834370D01*
X127922728Y-130801205D01*
X127925537Y-130783424D01*
X127926779Y-130781778D01*
X127938201Y-130788662D01*
X127960916Y-130806505D01*
X127983615Y-130825879D01*
X128038200Y-130866614D01*
X128107679Y-130907617D01*
X128184730Y-130945123D01*
X128262035Y-130975364D01*
X128292887Y-130985012D01*
X128361384Y-130999578D01*
X128444236Y-131009539D01*
X128533629Y-131014583D01*
X128621752Y-131014396D01*
X128700793Y-131008666D01*
X128738489Y-131002858D01*
X128876586Y-130964797D01*
X129003887Y-130907073D01*
X129119708Y-130830211D01*
X129223363Y-130734739D01*
X129314167Y-130621179D01*
X129380969Y-130510381D01*
X129435836Y-130393625D01*
X129477837Y-130274276D01*
X129507833Y-130148283D01*
X129526689Y-130011594D01*
X129535268Y-129860158D01*
X129535994Y-129782711D01*
X129533900Y-129725934D01*
X128704783Y-129725934D01*
X128704576Y-129819002D01*
X128701663Y-129906692D01*
X128696000Y-129983772D01*
X128687545Y-130045009D01*
X128684962Y-130057350D01*
X128653160Y-130164633D01*
X128611502Y-130251658D01*
X128559637Y-130318642D01*
X128497219Y-130365805D01*
X128423900Y-130393365D01*
X128339331Y-130401541D01*
X128243165Y-130390551D01*
X128179689Y-130374829D01*
X128130546Y-130356639D01*
X128076417Y-130330791D01*
X128035756Y-130307089D01*
X127965200Y-130260721D01*
X127965200Y-129110530D01*
X128032608Y-129066962D01*
X128111133Y-129026040D01*
X128195319Y-128999389D01*
X128280443Y-128987465D01*
X128361784Y-128990722D01*
X128434620Y-129009615D01*
X128466574Y-129025184D01*
X128524499Y-129068181D01*
X128573456Y-129124953D01*
X128614610Y-129197575D01*
X128649126Y-129288121D01*
X128678167Y-129398666D01*
X128679448Y-129404533D01*
X128689619Y-129466788D01*
X128697261Y-129544594D01*
X128702330Y-129632720D01*
X128704783Y-129725934D01*
X129533900Y-129725934D01*
X129528143Y-129569895D01*
X129506198Y-129374059D01*
X129470214Y-129195332D01*
X129420241Y-129033845D01*
X129356332Y-128889726D01*
X129278538Y-128763106D01*
X129186911Y-128654115D01*
X129081503Y-128562883D01*
X129036338Y-128531932D01*
X128935389Y-128475785D01*
X128832099Y-128436174D01*
X128722011Y-128412014D01*
X128600670Y-128402219D01*
X128508164Y-128403265D01*
X128378510Y-128414231D01*
X128265916Y-128436046D01*
X128167125Y-128469714D01*
X128078879Y-128516236D01*
X128030014Y-128550448D01*
X128000647Y-128572362D01*
X127978957Y-128587333D01*
X127970747Y-128591733D01*
X127969132Y-128580904D01*
X127967841Y-128550251D01*
X127966862Y-128502526D01*
X127966183Y-128440479D01*
X127965790Y-128366862D01*
X127965670Y-128284427D01*
X127965812Y-128195925D01*
X127966203Y-128104107D01*
X127966829Y-128011724D01*
X127967680Y-127921528D01*
X127968740Y-127836271D01*
X127969999Y-127758703D01*
X127971444Y-127691576D01*
X127973062Y-127637641D01*
X127974839Y-127599650D01*
X127975331Y-127592667D01*
X127982908Y-127522251D01*
X127994469Y-127467102D01*
X128012208Y-127419981D01*
X128038318Y-127373647D01*
X128044585Y-127364067D01*
X128069017Y-127327378D01*
X127163689Y-127327378D01*
X127163493Y-129012245D01*
G36*
X130676426Y-128406552D02*
G01*
X130524508Y-128426567D01*
X130389244Y-128460202D01*
X130269761Y-128507725D01*
X130165185Y-128569405D01*
X130087576Y-128632965D01*
X130018735Y-128707099D01*
X129964994Y-128786871D01*
X129922090Y-128879091D01*
X129906616Y-128922161D01*
X129893756Y-128961142D01*
X129882554Y-128997289D01*
X129872880Y-129032434D01*
X129864604Y-129068410D01*
X129857597Y-129107050D01*
X129851728Y-129150185D01*
X129846869Y-129199649D01*
X129842890Y-129257273D01*
X129839660Y-129324891D01*
X129837051Y-129404334D01*
X129834933Y-129497436D01*
X129833176Y-129606027D01*
X129831651Y-129731942D01*
X129830228Y-129877012D01*
X129828975Y-130019778D01*
X129827649Y-130175968D01*
X129826444Y-130311239D01*
X129825234Y-130427246D01*
X129823894Y-130525645D01*
X129822300Y-130608093D01*
X129820325Y-130676246D01*
X129817844Y-130731760D01*
X129814731Y-130776292D01*
X129810862Y-130811498D01*
X129806111Y-130839034D01*
X129800352Y-130860556D01*
X129793461Y-130877722D01*
X129785311Y-130892186D01*
X129775777Y-130905606D01*
X129764734Y-130919638D01*
X129760434Y-130925071D01*
X129744614Y-130947910D01*
X129737578Y-130963463D01*
X129737556Y-130963922D01*
X129748433Y-130966121D01*
X129779418Y-130968147D01*
X129828043Y-130969942D01*
X129891837Y-130971451D01*
X129968331Y-130972616D01*
X130055056Y-130973380D01*
X130149543Y-130973686D01*
X130160450Y-130973689D01*
X130583343Y-130973689D01*
X130586605Y-130877622D01*
X130589867Y-130781556D01*
X130651956Y-130832543D01*
X130749286Y-130900057D01*
X130859187Y-130954749D01*
X130945651Y-130984978D01*
X131014722Y-130999666D01*
X131098075Y-131009659D01*
X131187841Y-131014646D01*
X131276155Y-131014313D01*
X131355149Y-131008351D01*
X131391378Y-131002638D01*
X131531397Y-130964776D01*
X131657822Y-130909932D01*
X131769740Y-130838924D01*
X131866238Y-130752568D01*
X131946400Y-130651679D01*
X132009313Y-130537076D01*
X132053688Y-130410984D01*
X132066022Y-130354401D01*
X132073632Y-130292202D01*
X132077261Y-130217363D01*
X132077755Y-130183467D01*
X132077690Y-130180282D01*
X131317752Y-130180282D01*
X131308459Y-130255333D01*
X131280272Y-130319160D01*
X131231803Y-130374798D01*
X131226746Y-130379211D01*
X131178452Y-130414037D01*
X131126743Y-130436620D01*
X131066011Y-130448540D01*
X130990648Y-130451383D01*
X130972541Y-130450978D01*
X130918722Y-130448325D01*
X130878692Y-130442909D01*
X130843676Y-130432745D01*
X130804897Y-130415850D01*
X130794255Y-130410672D01*
X130733604Y-130374844D01*
X130686785Y-130332212D01*
X130674048Y-130316973D01*
X130629378Y-130260462D01*
X130629378Y-130064586D01*
X130629914Y-129985939D01*
X130631604Y-129927988D01*
X130634572Y-129888875D01*
X130638943Y-129866741D01*
X130643028Y-129860274D01*
X130658953Y-129857111D01*
X130692736Y-129854488D01*
X130739660Y-129852655D01*
X130795007Y-129851857D01*
X130803894Y-129851842D01*
X130924670Y-129857096D01*
X131027340Y-129873263D01*
X131113894Y-129900961D01*
X131186319Y-129940808D01*
X131241249Y-129987758D01*
X131285796Y-130045645D01*
X131310520Y-130108693D01*
X131317752Y-130180282D01*
X132077690Y-130180282D01*
X132075822Y-130089712D01*
X132067478Y-130010812D01*
X132051232Y-129939590D01*
X132025595Y-129868864D01*
X132001599Y-129816493D01*
X131942980Y-129721196D01*
X131864883Y-129633170D01*
X131769685Y-129554017D01*
X131659762Y-129485340D01*
X131537490Y-129428741D01*
X131405245Y-129385821D01*
X131340578Y-129370882D01*
X131204396Y-129348777D01*
X131055951Y-129334194D01*
X130904495Y-129327813D01*
X130777936Y-129329445D01*
X130616050Y-129336224D01*
X130623470Y-129277245D01*
X130642762Y-129178092D01*
X130673896Y-129097372D01*
X130717731Y-129034466D01*
X130775129Y-128988756D01*
X130846952Y-128959622D01*
X130934059Y-128946447D01*
X131037314Y-128948611D01*
X131075289Y-128952612D01*
X131216480Y-128977780D01*
X131353293Y-129018814D01*
X131447822Y-129056815D01*
X131492982Y-129076190D01*
X131531415Y-129091760D01*
X131557766Y-129101405D01*
X131565454Y-129103452D01*
X131575198Y-129094374D01*
X131591917Y-129065405D01*
X131615768Y-129016217D01*
X131646907Y-128946484D01*
X131685493Y-128855879D01*
X131692090Y-128840089D01*
X131722147Y-128767772D01*
X131749126Y-128702425D01*
X131771864Y-128646906D01*
X131789194Y-128604072D01*
X131799952Y-128576781D01*
X131803059Y-128567942D01*
X131793060Y-128563187D01*
X131766783Y-128557910D01*
X131738511Y-128554231D01*
X131708354Y-128549474D01*
X131660567Y-128540028D01*
X131599388Y-128526820D01*
X131529054Y-128510776D01*
X131453806Y-128492820D01*
X131425245Y-128485797D01*
X131320184Y-128460209D01*
X131232520Y-128440147D01*
X131157932Y-128424969D01*
X131092097Y-128414035D01*
X131030693Y-128406704D01*
X130969398Y-128402335D01*
X130903890Y-128400287D01*
X130845872Y-128399889D01*
X130676426Y-128406552D01*
G37*
X130676426Y-128406552D02*
X130524508Y-128426567D01*
X130389244Y-128460202D01*
X130269761Y-128507725D01*
X130165185Y-128569405D01*
X130087576Y-128632965D01*
X130018735Y-128707099D01*
X129964994Y-128786871D01*
X129922090Y-128879091D01*
X129906616Y-128922161D01*
X129893756Y-128961142D01*
X129882554Y-128997289D01*
X129872880Y-129032434D01*
X129864604Y-129068410D01*
X129857597Y-129107050D01*
X129851728Y-129150185D01*
X129846869Y-129199649D01*
X129842890Y-129257273D01*
X129839660Y-129324891D01*
X129837051Y-129404334D01*
X129834933Y-129497436D01*
X129833176Y-129606027D01*
X129831651Y-129731942D01*
X129830228Y-129877012D01*
X129828975Y-130019778D01*
X129827649Y-130175968D01*
X129826444Y-130311239D01*
X129825234Y-130427246D01*
X129823894Y-130525645D01*
X129822300Y-130608093D01*
X129820325Y-130676246D01*
X129817844Y-130731760D01*
X129814731Y-130776292D01*
X129810862Y-130811498D01*
X129806111Y-130839034D01*
X129800352Y-130860556D01*
X129793461Y-130877722D01*
X129785311Y-130892186D01*
X129775777Y-130905606D01*
X129764734Y-130919638D01*
X129760434Y-130925071D01*
X129744614Y-130947910D01*
X129737578Y-130963463D01*
X129737556Y-130963922D01*
X129748433Y-130966121D01*
X129779418Y-130968147D01*
X129828043Y-130969942D01*
X129891837Y-130971451D01*
X129968331Y-130972616D01*
X130055056Y-130973380D01*
X130149543Y-130973686D01*
X130160450Y-130973689D01*
X130583343Y-130973689D01*
X130586605Y-130877622D01*
X130589867Y-130781556D01*
X130651956Y-130832543D01*
X130749286Y-130900057D01*
X130859187Y-130954749D01*
X130945651Y-130984978D01*
X131014722Y-130999666D01*
X131098075Y-131009659D01*
X131187841Y-131014646D01*
X131276155Y-131014313D01*
X131355149Y-131008351D01*
X131391378Y-131002638D01*
X131531397Y-130964776D01*
X131657822Y-130909932D01*
X131769740Y-130838924D01*
X131866238Y-130752568D01*
X131946400Y-130651679D01*
X132009313Y-130537076D01*
X132053688Y-130410984D01*
X132066022Y-130354401D01*
X132073632Y-130292202D01*
X132077261Y-130217363D01*
X132077755Y-130183467D01*
X132077690Y-130180282D01*
X131317752Y-130180282D01*
X131308459Y-130255333D01*
X131280272Y-130319160D01*
X131231803Y-130374798D01*
X131226746Y-130379211D01*
X131178452Y-130414037D01*
X131126743Y-130436620D01*
X131066011Y-130448540D01*
X130990648Y-130451383D01*
X130972541Y-130450978D01*
X130918722Y-130448325D01*
X130878692Y-130442909D01*
X130843676Y-130432745D01*
X130804897Y-130415850D01*
X130794255Y-130410672D01*
X130733604Y-130374844D01*
X130686785Y-130332212D01*
X130674048Y-130316973D01*
X130629378Y-130260462D01*
X130629378Y-130064586D01*
X130629914Y-129985939D01*
X130631604Y-129927988D01*
X130634572Y-129888875D01*
X130638943Y-129866741D01*
X130643028Y-129860274D01*
X130658953Y-129857111D01*
X130692736Y-129854488D01*
X130739660Y-129852655D01*
X130795007Y-129851857D01*
X130803894Y-129851842D01*
X130924670Y-129857096D01*
X131027340Y-129873263D01*
X131113894Y-129900961D01*
X131186319Y-129940808D01*
X131241249Y-129987758D01*
X131285796Y-130045645D01*
X131310520Y-130108693D01*
X131317752Y-130180282D01*
X132077690Y-130180282D01*
X132075822Y-130089712D01*
X132067478Y-130010812D01*
X132051232Y-129939590D01*
X132025595Y-129868864D01*
X132001599Y-129816493D01*
X131942980Y-129721196D01*
X131864883Y-129633170D01*
X131769685Y-129554017D01*
X131659762Y-129485340D01*
X131537490Y-129428741D01*
X131405245Y-129385821D01*
X131340578Y-129370882D01*
X131204396Y-129348777D01*
X131055951Y-129334194D01*
X130904495Y-129327813D01*
X130777936Y-129329445D01*
X130616050Y-129336224D01*
X130623470Y-129277245D01*
X130642762Y-129178092D01*
X130673896Y-129097372D01*
X130717731Y-129034466D01*
X130775129Y-128988756D01*
X130846952Y-128959622D01*
X130934059Y-128946447D01*
X131037314Y-128948611D01*
X131075289Y-128952612D01*
X131216480Y-128977780D01*
X131353293Y-129018814D01*
X131447822Y-129056815D01*
X131492982Y-129076190D01*
X131531415Y-129091760D01*
X131557766Y-129101405D01*
X131565454Y-129103452D01*
X131575198Y-129094374D01*
X131591917Y-129065405D01*
X131615768Y-129016217D01*
X131646907Y-128946484D01*
X131685493Y-128855879D01*
X131692090Y-128840089D01*
X131722147Y-128767772D01*
X131749126Y-128702425D01*
X131771864Y-128646906D01*
X131789194Y-128604072D01*
X131799952Y-128576781D01*
X131803059Y-128567942D01*
X131793060Y-128563187D01*
X131766783Y-128557910D01*
X131738511Y-128554231D01*
X131708354Y-128549474D01*
X131660567Y-128540028D01*
X131599388Y-128526820D01*
X131529054Y-128510776D01*
X131453806Y-128492820D01*
X131425245Y-128485797D01*
X131320184Y-128460209D01*
X131232520Y-128440147D01*
X131157932Y-128424969D01*
X131092097Y-128414035D01*
X131030693Y-128406704D01*
X130969398Y-128402335D01*
X130903890Y-128400287D01*
X130845872Y-128399889D01*
X130676426Y-128406552D01*
G36*
X133021571Y-127489071D02*
G01*
X132861430Y-127510245D01*
X132697490Y-127550385D01*
X132527687Y-127609889D01*
X132349957Y-127689154D01*
X132338690Y-127694699D01*
X132280995Y-127722725D01*
X132229448Y-127746802D01*
X132187809Y-127765249D01*
X132159838Y-127776386D01*
X132150267Y-127778933D01*
X132131050Y-127783941D01*
X132126439Y-127788147D01*
X132131542Y-127798580D01*
X132147582Y-127824868D01*
X132172712Y-127864257D01*
X132205086Y-127913991D01*
X132242857Y-127971315D01*
X132284178Y-128033476D01*
X132327202Y-128097718D01*
X132370083Y-128161285D01*
X132410974Y-128221425D01*
X132448029Y-128275380D01*
X132479400Y-128320397D01*
X132503241Y-128353721D01*
X132517706Y-128372597D01*
X132519691Y-128374787D01*
X132529809Y-128370138D01*
X132552150Y-128352962D01*
X132582720Y-128326440D01*
X132598464Y-128311964D01*
X132694953Y-128236682D01*
X132801664Y-128181241D01*
X132917168Y-128146141D01*
X133040038Y-128131880D01*
X133109439Y-128133051D01*
X133230577Y-128150212D01*
X133339795Y-128186094D01*
X133437418Y-128240959D01*
X133523772Y-128315070D01*
X133599185Y-128408688D01*
X133663982Y-128522076D01*
X133701399Y-128608667D01*
X133745252Y-128744366D01*
X133777572Y-128891850D01*
X133798443Y-129047314D01*
X133807949Y-129206956D01*
X133806173Y-129366973D01*
X133793197Y-129523561D01*
X133769106Y-129672918D01*
X133733982Y-129811240D01*
X133687908Y-129934724D01*
X133671627Y-129968978D01*
X133603380Y-130083064D01*
X133522921Y-130179557D01*
X133431430Y-130257670D01*
X133330089Y-130316617D01*
X133220080Y-130355612D01*
X133102585Y-130373868D01*
X133061117Y-130375211D01*
X132939559Y-130364290D01*
X132819122Y-130331474D01*
X132701334Y-130277439D01*
X132587723Y-130202865D01*
X132496315Y-130124539D01*
X132449785Y-130080008D01*
X132268517Y-130377271D01*
X132223420Y-130451433D01*
X132182181Y-130519646D01*
X132146265Y-130579459D01*
X132117134Y-130628420D01*
X132096250Y-130664079D01*
X132085076Y-130683984D01*
X132083625Y-130687079D01*
X132091854Y-130696718D01*
X132117433Y-130713999D01*
X132157127Y-130737283D01*
X132207703Y-130764934D01*
X132265926Y-130795315D01*
X132328563Y-130826790D01*
X132392379Y-130857722D01*
X132454140Y-130886473D01*
X132510612Y-130911408D01*
X132558562Y-130930889D01*
X132582014Y-130939318D01*
X132715779Y-130977133D01*
X132853673Y-131002136D01*
X133001378Y-131015140D01*
X133128167Y-131017468D01*
X133196122Y-131016373D01*
X133261723Y-131014275D01*
X133319153Y-131011434D01*
X133362597Y-131008106D01*
X133376702Y-131006422D01*
X133515716Y-130977587D01*
X133657243Y-130932468D01*
X133794725Y-130873750D01*
X133921606Y-130804120D01*
X133999111Y-130751441D01*
X134126519Y-130643239D01*
X134244822Y-130516671D01*
X134351828Y-130374866D01*
X134445348Y-130220951D01*
X134523190Y-130058053D01*
X134567044Y-129940756D01*
X134617292Y-129757128D01*
X134650791Y-129562581D01*
X134667551Y-129361325D01*
X134667584Y-129157568D01*
X134650899Y-128955521D01*
X134617507Y-128759392D01*
X134567420Y-128573391D01*
X134563603Y-128561803D01*
X134500719Y-128399750D01*
X134423972Y-128251832D01*
X134330758Y-128113865D01*
X134218473Y-127981661D01*
X134174608Y-127936399D01*
X134038466Y-127812457D01*
X133898509Y-127709915D01*
X133752589Y-127627656D01*
X133598558Y-127564564D01*
X133434268Y-127519523D01*
X133338711Y-127502033D01*
X133179977Y-127486466D01*
X133021571Y-127489071D01*
G37*
X133021571Y-127489071D02*
X132861430Y-127510245D01*
X132697490Y-127550385D01*
X132527687Y-127609889D01*
X132349957Y-127689154D01*
X132338690Y-127694699D01*
X132280995Y-127722725D01*
X132229448Y-127746802D01*
X132187809Y-127765249D01*
X132159838Y-127776386D01*
X132150267Y-127778933D01*
X132131050Y-127783941D01*
X132126439Y-127788147D01*
X132131542Y-127798580D01*
X132147582Y-127824868D01*
X132172712Y-127864257D01*
X132205086Y-127913991D01*
X132242857Y-127971315D01*
X132284178Y-128033476D01*
X132327202Y-128097718D01*
X132370083Y-128161285D01*
X132410974Y-128221425D01*
X132448029Y-128275380D01*
X132479400Y-128320397D01*
X132503241Y-128353721D01*
X132517706Y-128372597D01*
X132519691Y-128374787D01*
X132529809Y-128370138D01*
X132552150Y-128352962D01*
X132582720Y-128326440D01*
X132598464Y-128311964D01*
X132694953Y-128236682D01*
X132801664Y-128181241D01*
X132917168Y-128146141D01*
X133040038Y-128131880D01*
X133109439Y-128133051D01*
X133230577Y-128150212D01*
X133339795Y-128186094D01*
X133437418Y-128240959D01*
X133523772Y-128315070D01*
X133599185Y-128408688D01*
X133663982Y-128522076D01*
X133701399Y-128608667D01*
X133745252Y-128744366D01*
X133777572Y-128891850D01*
X133798443Y-129047314D01*
X133807949Y-129206956D01*
X133806173Y-129366973D01*
X133793197Y-129523561D01*
X133769106Y-129672918D01*
X133733982Y-129811240D01*
X133687908Y-129934724D01*
X133671627Y-129968978D01*
X133603380Y-130083064D01*
X133522921Y-130179557D01*
X133431430Y-130257670D01*
X133330089Y-130316617D01*
X133220080Y-130355612D01*
X133102585Y-130373868D01*
X133061117Y-130375211D01*
X132939559Y-130364290D01*
X132819122Y-130331474D01*
X132701334Y-130277439D01*
X132587723Y-130202865D01*
X132496315Y-130124539D01*
X132449785Y-130080008D01*
X132268517Y-130377271D01*
X132223420Y-130451433D01*
X132182181Y-130519646D01*
X132146265Y-130579459D01*
X132117134Y-130628420D01*
X132096250Y-130664079D01*
X132085076Y-130683984D01*
X132083625Y-130687079D01*
X132091854Y-130696718D01*
X132117433Y-130713999D01*
X132157127Y-130737283D01*
X132207703Y-130764934D01*
X132265926Y-130795315D01*
X132328563Y-130826790D01*
X132392379Y-130857722D01*
X132454140Y-130886473D01*
X132510612Y-130911408D01*
X132558562Y-130930889D01*
X132582014Y-130939318D01*
X132715779Y-130977133D01*
X132853673Y-131002136D01*
X133001378Y-131015140D01*
X133128167Y-131017468D01*
X133196122Y-131016373D01*
X133261723Y-131014275D01*
X133319153Y-131011434D01*
X133362597Y-131008106D01*
X133376702Y-131006422D01*
X133515716Y-130977587D01*
X133657243Y-130932468D01*
X133794725Y-130873750D01*
X133921606Y-130804120D01*
X133999111Y-130751441D01*
X134126519Y-130643239D01*
X134244822Y-130516671D01*
X134351828Y-130374866D01*
X134445348Y-130220951D01*
X134523190Y-130058053D01*
X134567044Y-129940756D01*
X134617292Y-129757128D01*
X134650791Y-129562581D01*
X134667551Y-129361325D01*
X134667584Y-129157568D01*
X134650899Y-128955521D01*
X134617507Y-128759392D01*
X134567420Y-128573391D01*
X134563603Y-128561803D01*
X134500719Y-128399750D01*
X134423972Y-128251832D01*
X134330758Y-128113865D01*
X134218473Y-127981661D01*
X134174608Y-127936399D01*
X134038466Y-127812457D01*
X133898509Y-127709915D01*
X133752589Y-127627656D01*
X133598558Y-127564564D01*
X133434268Y-127519523D01*
X133338711Y-127502033D01*
X133179977Y-127486466D01*
X133021571Y-127489071D01*
G36*
X136296400Y-127029054D02*
G01*
X136285535Y-127142993D01*
X136253918Y-127250616D01*
X136203015Y-127349615D01*
X136134293Y-127437684D01*
X136049219Y-127512516D01*
X135952232Y-127570384D01*
X135845964Y-127610005D01*
X135738950Y-127628573D01*
X135633300Y-127627434D01*
X135531125Y-127607930D01*
X135434534Y-127571406D01*
X135345638Y-127519205D01*
X135266546Y-127452673D01*
X135199369Y-127373152D01*
X135146217Y-127281987D01*
X135109199Y-127180523D01*
X135090427Y-127070102D01*
X135088489Y-127020206D01*
X135088489Y-126932267D01*
X135036560Y-126932267D01*
X135000253Y-126935111D01*
X134973355Y-126946911D01*
X134946249Y-126970649D01*
X134907867Y-127009031D01*
X134907867Y-129200602D01*
X134907876Y-129462739D01*
X134907908Y-129703241D01*
X134907972Y-129923048D01*
X134908076Y-130123101D01*
X134908227Y-130304344D01*
X134908434Y-130467716D01*
X134908706Y-130614160D01*
X134909050Y-130744617D01*
X134909474Y-130860029D01*
X134909987Y-130961338D01*
X134910597Y-131049484D01*
X134911312Y-131125410D01*
X134912140Y-131190057D01*
X134913089Y-131244367D01*
X134914167Y-131289280D01*
X134915383Y-131325740D01*
X134916745Y-131354687D01*
X134918261Y-131377063D01*
X134919938Y-131393809D01*
X134921786Y-131405868D01*
X134923813Y-131414180D01*
X134926025Y-131419687D01*
X134927108Y-131421537D01*
X134931271Y-131428549D01*
X134934805Y-131434996D01*
X134938635Y-131440900D01*
X134943682Y-131446286D01*
X134950871Y-131451178D01*
X134961123Y-131455598D01*
X134975364Y-131459572D01*
X134994514Y-131463121D01*
X135019499Y-131466270D01*
X135051240Y-131469042D01*
X135090662Y-131471461D01*
X135138686Y-131473551D01*
X135196237Y-131475335D01*
X135264237Y-131476837D01*
X135343610Y-131478080D01*
X135435279Y-131479089D01*
X135540166Y-131479885D01*
X135659196Y-131480494D01*
X135793290Y-131480939D01*
X135943373Y-131481243D01*
X136110367Y-131481430D01*
X136295196Y-131481524D01*
X136498783Y-131481548D01*
X136722050Y-131481525D01*
X136965922Y-131481480D01*
X137231321Y-131481437D01*
X137269704Y-131481432D01*
X137536682Y-131481389D01*
X137782002Y-131481318D01*
X138006583Y-131481213D01*
X138211345Y-131481066D01*
X138397206Y-131480869D01*
X138565088Y-131480616D01*
X138715908Y-131480300D01*
X138850587Y-131479913D01*
X138970044Y-131479447D01*
X139075199Y-131478897D01*
X139166971Y-131478253D01*
X139246279Y-131477511D01*
X139314043Y-131476661D01*
X139371182Y-131475697D01*
X139418617Y-131474611D01*
X139457266Y-131473397D01*
X139488049Y-131472047D01*
X139511885Y-131470555D01*
X139529694Y-131468911D01*
X139542395Y-131467111D01*
X139550908Y-131465145D01*
X139555266Y-131463477D01*
X139563728Y-131459906D01*
X139571497Y-131457270D01*
X139578602Y-131454634D01*
X139585073Y-131451062D01*
X139590939Y-131445621D01*
X139596229Y-131437375D01*
X139600974Y-131425390D01*
X139605202Y-131408731D01*
X139608943Y-131386463D01*
X139612227Y-131357652D01*
X139615083Y-131321363D01*
X139617540Y-131276661D01*
X139619629Y-131222611D01*
X139621378Y-131158279D01*
X139622817Y-131082730D01*
X139623976Y-130995030D01*
X139624883Y-130894243D01*
X139625569Y-130779434D01*
X139626063Y-130649670D01*
X139626395Y-130504015D01*
X139626593Y-130341535D01*
X139626687Y-130161295D01*
X139626708Y-129962360D01*
X139626685Y-129743796D01*
X139626646Y-129504668D01*
X139626622Y-129244040D01*
X139626622Y-129201889D01*
X139626636Y-128938992D01*
X139626661Y-128697732D01*
X139626671Y-128477165D01*
X139626642Y-128276352D01*
X139626548Y-128094349D01*
X139626362Y-127930216D01*
X139626059Y-127783011D01*
X139625614Y-127651792D01*
X139625034Y-127541867D01*
X139322197Y-127541867D01*
X139282407Y-127599711D01*
X139271236Y-127615479D01*
X139261166Y-127629441D01*
X139252138Y-127642784D01*
X139244097Y-127656693D01*
X139236986Y-127672356D01*
X139230747Y-127690958D01*
X139225325Y-127713686D01*
X139220662Y-127741727D01*
X139216701Y-127776267D01*
X139213385Y-127818492D01*
X139210659Y-127869589D01*
X139208464Y-127930744D01*
X139206745Y-128003144D01*
X139205444Y-128087975D01*
X139204505Y-128186422D01*
X139203870Y-128299674D01*
X139203484Y-128428916D01*
X139203288Y-128575334D01*
X139203227Y-128740116D01*
X139203243Y-128924447D01*
X139203280Y-129129513D01*
X139203289Y-129252133D01*
X139203265Y-129469082D01*
X139203231Y-129664642D01*
X139203243Y-129839999D01*
X139203358Y-129996341D01*
X139203630Y-130134857D01*
X139204118Y-130256734D01*
X139204876Y-130363160D01*
X139205962Y-130455322D01*
X139207431Y-130534409D01*
X139209340Y-130601608D01*
X139211744Y-130658107D01*
X139214701Y-130705093D01*
X139218266Y-130743755D01*
X139222495Y-130775280D01*
X139227446Y-130800855D01*
X139233173Y-130821670D01*
X139239733Y-130838911D01*
X139247183Y-130853765D01*
X139255579Y-130867422D01*
X139264976Y-130881069D01*
X139275432Y-130895893D01*
X139281523Y-130904783D01*
X139320296Y-130962400D01*
X138788732Y-130962400D01*
X138665483Y-130962365D01*
X138562987Y-130962215D01*
X138479420Y-130961878D01*
X138412956Y-130961286D01*
X138361771Y-130960367D01*
X138324041Y-130959051D01*
X138297940Y-130957269D01*
X138281644Y-130954951D01*
X138273328Y-130952026D01*
X138271168Y-130948424D01*
X138273339Y-130944075D01*
X138274535Y-130942645D01*
X138299685Y-130905573D01*
X138325583Y-130852772D01*
X138349192Y-130790770D01*
X138357461Y-130764357D01*
X138362078Y-130746416D01*
X138365979Y-130725355D01*
X138369248Y-130699089D01*
X138371966Y-130665532D01*
X138374215Y-130622599D01*
X138376077Y-130568204D01*
X138377636Y-130500262D01*
X138378972Y-130416688D01*
X138380169Y-130315395D01*
X138381308Y-130194300D01*
X138381685Y-130149600D01*
X138382702Y-130024449D01*
X138383460Y-129920082D01*
X138383903Y-129834707D01*
X138383970Y-129766533D01*
X138383605Y-129713765D01*
X138382748Y-129674614D01*
X138381341Y-129647285D01*
X138379325Y-129629986D01*
X138376643Y-129620926D01*
X138373236Y-129618312D01*
X138369044Y-129620351D01*
X138364571Y-129624667D01*
X138354216Y-129637602D01*
X138332158Y-129666676D01*
X138299957Y-129709759D01*
X138259174Y-129764718D01*
X138211370Y-129829423D01*
X138158105Y-129901742D01*
X138100940Y-129979544D01*
X138041437Y-130060698D01*
X137981155Y-130143072D01*
X137921655Y-130224536D01*
X137864498Y-130302957D01*
X137811245Y-130376204D01*
X137763457Y-130442147D01*
X137722693Y-130498654D01*
X137690516Y-130543593D01*
X137668485Y-130574834D01*
X137663917Y-130581466D01*
X137640996Y-130618369D01*
X137614188Y-130666359D01*
X137588789Y-130715897D01*
X137585568Y-130722577D01*
X137563890Y-130770772D01*
X137551304Y-130808334D01*
X137545574Y-130844160D01*
X137544456Y-130886200D01*
X137545090Y-130962400D01*
X136390651Y-130962400D01*
X136481815Y-130868669D01*
X136528612Y-130818775D01*
X136578899Y-130762295D01*
X136624944Y-130708026D01*
X136645369Y-130682673D01*
X136675807Y-130643128D01*
X136715862Y-130589916D01*
X136764361Y-130524667D01*
X136820135Y-130449011D01*
X136882011Y-130364577D01*
X136948819Y-130272994D01*
X137019387Y-130175892D01*
X137092545Y-130074901D01*
X137167121Y-129971650D01*
X137241944Y-129867768D01*
X137315843Y-129764885D01*
X137387646Y-129664631D01*
X137456184Y-129568636D01*
X137520284Y-129478527D01*
X137578775Y-129395936D01*
X137630486Y-129322492D01*
X137674247Y-129259824D01*
X137708885Y-129209561D01*
X137733230Y-129173334D01*
X137746111Y-129152771D01*
X137747869Y-129148668D01*
X137739910Y-129137342D01*
X137719115Y-129110162D01*
X137686847Y-129068829D01*
X137644470Y-129015044D01*
X137593347Y-128950506D01*
X137534841Y-128876918D01*
X137470314Y-128795978D01*
X137401131Y-128709388D01*
X137328653Y-128618848D01*
X137254246Y-128526060D01*
X137194517Y-128451702D01*
X136183511Y-128451702D01*
X136177602Y-128464659D01*
X136163272Y-128486908D01*
X136162225Y-128488391D01*
X136143438Y-128518544D01*
X136123791Y-128555375D01*
X136119892Y-128563511D01*
X136116356Y-128571940D01*
X136113230Y-128582059D01*
X136110486Y-128595260D01*
X136108092Y-128612938D01*
X136106019Y-128636484D01*
X136104235Y-128667293D01*
X136102712Y-128706757D01*
X136101419Y-128756269D01*
X136100326Y-128817223D01*
X136099403Y-128891011D01*
X136098619Y-128979028D01*
X136097945Y-129082665D01*
X136097350Y-129203316D01*
X136096805Y-129342374D01*
X136096279Y-129501232D01*
X136095745Y-129680089D01*
X136095206Y-129865207D01*
X136094772Y-130029145D01*
X136094509Y-130173303D01*
X136094484Y-130299079D01*
X136094765Y-130407871D01*
X136095419Y-130501077D01*
X136096514Y-130580097D01*
X136098118Y-130646328D01*
X136100297Y-130701170D01*
X136103119Y-130746021D01*
X136106651Y-130782278D01*
X136110961Y-130811341D01*
X136116117Y-130834609D01*
X136122185Y-130853479D01*
X136129233Y-130869351D01*
X136137329Y-130883622D01*
X136146540Y-130897691D01*
X136155040Y-130910158D01*
X136172176Y-130936452D01*
X136182322Y-130954037D01*
X136183511Y-130957257D01*
X136172604Y-130958334D01*
X136141411Y-130959335D01*
X136092223Y-130960235D01*
X136027333Y-130961010D01*
X135949030Y-130961637D01*
X135859607Y-130962091D01*
X135761356Y-130962349D01*
X135692445Y-130962400D01*
X135587452Y-130962180D01*
X135490610Y-130961548D01*
X135404107Y-130960549D01*
X135330132Y-130959227D01*
X135270874Y-130957626D01*
X135228520Y-130955791D01*
X135205260Y-130953765D01*
X135201378Y-130952493D01*
X135209076Y-130937591D01*
X135217074Y-130929560D01*
X135230246Y-130912434D01*
X135247485Y-130882183D01*
X135259407Y-130857622D01*
X135286045Y-130798711D01*
X135289120Y-129621845D01*
X135292195Y-128444978D01*
X135737853Y-128444978D01*
X135835670Y-128445142D01*
X135926064Y-128445611D01*
X136006630Y-128446347D01*
X136074962Y-128447316D01*
X136128656Y-128448480D01*
X136165305Y-128449803D01*
X136182504Y-128451249D01*
X136183511Y-128451702D01*
X137194517Y-128451702D01*
X137179270Y-128432722D01*
X137105090Y-128340537D01*
X137033069Y-128251204D01*
X136964569Y-128166424D01*
X136900955Y-128087898D01*
X136843588Y-128017326D01*
X136793833Y-127956409D01*
X136753052Y-127906847D01*
X136735888Y-127886178D01*
X136649596Y-127785516D01*
X136572997Y-127702259D01*
X136504183Y-127634438D01*
X136441248Y-127580089D01*
X136431867Y-127572722D01*
X136392356Y-127542117D01*
X137524116Y-127541867D01*
X137518827Y-127589844D01*
X137522130Y-127647188D01*
X137543661Y-127715463D01*
X137583635Y-127795212D01*
X137628943Y-127867495D01*
X137645161Y-127890140D01*
X137673214Y-127927696D01*
X137711430Y-127978021D01*
X137758137Y-128038973D01*
X137811661Y-128108411D01*
X137870331Y-128184194D01*
X137932475Y-128264180D01*
X137996421Y-128346228D01*
X138060495Y-128428196D01*
X138123027Y-128507943D01*
X138182343Y-128583327D01*
X138236771Y-128652207D01*
X138284639Y-128712442D01*
X138324275Y-128761889D01*
X138354006Y-128798408D01*
X138372161Y-128819858D01*
X138375220Y-128823156D01*
X138378079Y-128815149D01*
X138380293Y-128784855D01*
X138381857Y-128732556D01*
X138382767Y-128658531D01*
X138383020Y-128563063D01*
X138382613Y-128446434D01*
X138381704Y-128326445D01*
X138380382Y-128194333D01*
X138378857Y-128082594D01*
X138376881Y-127989025D01*
X138374206Y-127911419D01*
X138370582Y-127847574D01*
X138365761Y-127795283D01*
X138359494Y-127752344D01*
X138351532Y-127716551D01*
X138341627Y-127685700D01*
X138329531Y-127657586D01*
X138314993Y-127630005D01*
X138300311Y-127604966D01*
X138262314Y-127541867D01*
X139322197Y-127541867D01*
X139625034Y-127541867D01*
X139625001Y-127535617D01*
X139624195Y-127433544D01*
X139623170Y-127344633D01*
X139621900Y-127267941D01*
X139620360Y-127202527D01*
X139618524Y-127147449D01*
X139616367Y-127101765D01*
X139613863Y-127064534D01*
X139610987Y-127034813D01*
X139607713Y-127011662D01*
X139604015Y-126994139D01*
X139599869Y-126981301D01*
X139595247Y-126972208D01*
X139590126Y-126965918D01*
X139584478Y-126961488D01*
X139578279Y-126957978D01*
X139571504Y-126954445D01*
X139565508Y-126950876D01*
X139560275Y-126948300D01*
X139552099Y-126945972D01*
X139539886Y-126943878D01*
X139522541Y-126942007D01*
X139498969Y-126940347D01*
X139468077Y-126938884D01*
X139428768Y-126937608D01*
X139379950Y-126936504D01*
X139320527Y-126935561D01*
X139249404Y-126934767D01*
X139165488Y-126934109D01*
X139067683Y-126933575D01*
X138954894Y-126933153D01*
X138826029Y-126932829D01*
X138679991Y-126932592D01*
X138515686Y-126932430D01*
X138332020Y-126932330D01*
X138127897Y-126932280D01*
X137916753Y-126932267D01*
X136296400Y-126932267D01*
X136296400Y-127029054D01*
G37*
X136296400Y-127029054D02*
X136285535Y-127142993D01*
X136253918Y-127250616D01*
X136203015Y-127349615D01*
X136134293Y-127437684D01*
X136049219Y-127512516D01*
X135952232Y-127570384D01*
X135845964Y-127610005D01*
X135738950Y-127628573D01*
X135633300Y-127627434D01*
X135531125Y-127607930D01*
X135434534Y-127571406D01*
X135345638Y-127519205D01*
X135266546Y-127452673D01*
X135199369Y-127373152D01*
X135146217Y-127281987D01*
X135109199Y-127180523D01*
X135090427Y-127070102D01*
X135088489Y-127020206D01*
X135088489Y-126932267D01*
X135036560Y-126932267D01*
X135000253Y-126935111D01*
X134973355Y-126946911D01*
X134946249Y-126970649D01*
X134907867Y-127009031D01*
X134907867Y-129200602D01*
X134907876Y-129462739D01*
X134907908Y-129703241D01*
X134907972Y-129923048D01*
X134908076Y-130123101D01*
X134908227Y-130304344D01*
X134908434Y-130467716D01*
X134908706Y-130614160D01*
X134909050Y-130744617D01*
X134909474Y-130860029D01*
X134909987Y-130961338D01*
X134910597Y-131049484D01*
X134911312Y-131125410D01*
X134912140Y-131190057D01*
X134913089Y-131244367D01*
X134914167Y-131289280D01*
X134915383Y-131325740D01*
X134916745Y-131354687D01*
X134918261Y-131377063D01*
X134919938Y-131393809D01*
X134921786Y-131405868D01*
X134923813Y-131414180D01*
X134926025Y-131419687D01*
X134927108Y-131421537D01*
X134931271Y-131428549D01*
X134934805Y-131434996D01*
X134938635Y-131440900D01*
X134943682Y-131446286D01*
X134950871Y-131451178D01*
X134961123Y-131455598D01*
X134975364Y-131459572D01*
X134994514Y-131463121D01*
X135019499Y-131466270D01*
X135051240Y-131469042D01*
X135090662Y-131471461D01*
X135138686Y-131473551D01*
X135196237Y-131475335D01*
X135264237Y-131476837D01*
X135343610Y-131478080D01*
X135435279Y-131479089D01*
X135540166Y-131479885D01*
X135659196Y-131480494D01*
X135793290Y-131480939D01*
X135943373Y-131481243D01*
X136110367Y-131481430D01*
X136295196Y-131481524D01*
X136498783Y-131481548D01*
X136722050Y-131481525D01*
X136965922Y-131481480D01*
X137231321Y-131481437D01*
X137269704Y-131481432D01*
X137536682Y-131481389D01*
X137782002Y-131481318D01*
X138006583Y-131481213D01*
X138211345Y-131481066D01*
X138397206Y-131480869D01*
X138565088Y-131480616D01*
X138715908Y-131480300D01*
X138850587Y-131479913D01*
X138970044Y-131479447D01*
X139075199Y-131478897D01*
X139166971Y-131478253D01*
X139246279Y-131477511D01*
X139314043Y-131476661D01*
X139371182Y-131475697D01*
X139418617Y-131474611D01*
X139457266Y-131473397D01*
X139488049Y-131472047D01*
X139511885Y-131470555D01*
X139529694Y-131468911D01*
X139542395Y-131467111D01*
X139550908Y-131465145D01*
X139555266Y-131463477D01*
X139563728Y-131459906D01*
X139571497Y-131457270D01*
X139578602Y-131454634D01*
X139585073Y-131451062D01*
X139590939Y-131445621D01*
X139596229Y-131437375D01*
X139600974Y-131425390D01*
X139605202Y-131408731D01*
X139608943Y-131386463D01*
X139612227Y-131357652D01*
X139615083Y-131321363D01*
X139617540Y-131276661D01*
X139619629Y-131222611D01*
X139621378Y-131158279D01*
X139622817Y-131082730D01*
X139623976Y-130995030D01*
X139624883Y-130894243D01*
X139625569Y-130779434D01*
X139626063Y-130649670D01*
X139626395Y-130504015D01*
X139626593Y-130341535D01*
X139626687Y-130161295D01*
X139626708Y-129962360D01*
X139626685Y-129743796D01*
X139626646Y-129504668D01*
X139626622Y-129244040D01*
X139626622Y-129201889D01*
X139626636Y-128938992D01*
X139626661Y-128697732D01*
X139626671Y-128477165D01*
X139626642Y-128276352D01*
X139626548Y-128094349D01*
X139626362Y-127930216D01*
X139626059Y-127783011D01*
X139625614Y-127651792D01*
X139625034Y-127541867D01*
X139322197Y-127541867D01*
X139282407Y-127599711D01*
X139271236Y-127615479D01*
X139261166Y-127629441D01*
X139252138Y-127642784D01*
X139244097Y-127656693D01*
X139236986Y-127672356D01*
X139230747Y-127690958D01*
X139225325Y-127713686D01*
X139220662Y-127741727D01*
X139216701Y-127776267D01*
X139213385Y-127818492D01*
X139210659Y-127869589D01*
X139208464Y-127930744D01*
X139206745Y-128003144D01*
X139205444Y-128087975D01*
X139204505Y-128186422D01*
X139203870Y-128299674D01*
X139203484Y-128428916D01*
X139203288Y-128575334D01*
X139203227Y-128740116D01*
X139203243Y-128924447D01*
X139203280Y-129129513D01*
X139203289Y-129252133D01*
X139203265Y-129469082D01*
X139203231Y-129664642D01*
X139203243Y-129839999D01*
X139203358Y-129996341D01*
X139203630Y-130134857D01*
X139204118Y-130256734D01*
X139204876Y-130363160D01*
X139205962Y-130455322D01*
X139207431Y-130534409D01*
X139209340Y-130601608D01*
X139211744Y-130658107D01*
X139214701Y-130705093D01*
X139218266Y-130743755D01*
X139222495Y-130775280D01*
X139227446Y-130800855D01*
X139233173Y-130821670D01*
X139239733Y-130838911D01*
X139247183Y-130853765D01*
X139255579Y-130867422D01*
X139264976Y-130881069D01*
X139275432Y-130895893D01*
X139281523Y-130904783D01*
X139320296Y-130962400D01*
X138788732Y-130962400D01*
X138665483Y-130962365D01*
X138562987Y-130962215D01*
X138479420Y-130961878D01*
X138412956Y-130961286D01*
X138361771Y-130960367D01*
X138324041Y-130959051D01*
X138297940Y-130957269D01*
X138281644Y-130954951D01*
X138273328Y-130952026D01*
X138271168Y-130948424D01*
X138273339Y-130944075D01*
X138274535Y-130942645D01*
X138299685Y-130905573D01*
X138325583Y-130852772D01*
X138349192Y-130790770D01*
X138357461Y-130764357D01*
X138362078Y-130746416D01*
X138365979Y-130725355D01*
X138369248Y-130699089D01*
X138371966Y-130665532D01*
X138374215Y-130622599D01*
X138376077Y-130568204D01*
X138377636Y-130500262D01*
X138378972Y-130416688D01*
X138380169Y-130315395D01*
X138381308Y-130194300D01*
X138381685Y-130149600D01*
X138382702Y-130024449D01*
X138383460Y-129920082D01*
X138383903Y-129834707D01*
X138383970Y-129766533D01*
X138383605Y-129713765D01*
X138382748Y-129674614D01*
X138381341Y-129647285D01*
X138379325Y-129629986D01*
X138376643Y-129620926D01*
X138373236Y-129618312D01*
X138369044Y-129620351D01*
X138364571Y-129624667D01*
X138354216Y-129637602D01*
X138332158Y-129666676D01*
X138299957Y-129709759D01*
X138259174Y-129764718D01*
X138211370Y-129829423D01*
X138158105Y-129901742D01*
X138100940Y-129979544D01*
X138041437Y-130060698D01*
X137981155Y-130143072D01*
X137921655Y-130224536D01*
X137864498Y-130302957D01*
X137811245Y-130376204D01*
X137763457Y-130442147D01*
X137722693Y-130498654D01*
X137690516Y-130543593D01*
X137668485Y-130574834D01*
X137663917Y-130581466D01*
X137640996Y-130618369D01*
X137614188Y-130666359D01*
X137588789Y-130715897D01*
X137585568Y-130722577D01*
X137563890Y-130770772D01*
X137551304Y-130808334D01*
X137545574Y-130844160D01*
X137544456Y-130886200D01*
X137545090Y-130962400D01*
X136390651Y-130962400D01*
X136481815Y-130868669D01*
X136528612Y-130818775D01*
X136578899Y-130762295D01*
X136624944Y-130708026D01*
X136645369Y-130682673D01*
X136675807Y-130643128D01*
X136715862Y-130589916D01*
X136764361Y-130524667D01*
X136820135Y-130449011D01*
X136882011Y-130364577D01*
X136948819Y-130272994D01*
X137019387Y-130175892D01*
X137092545Y-130074901D01*
X137167121Y-129971650D01*
X137241944Y-129867768D01*
X137315843Y-129764885D01*
X137387646Y-129664631D01*
X137456184Y-129568636D01*
X137520284Y-129478527D01*
X137578775Y-129395936D01*
X137630486Y-129322492D01*
X137674247Y-129259824D01*
X137708885Y-129209561D01*
X137733230Y-129173334D01*
X137746111Y-129152771D01*
X137747869Y-129148668D01*
X137739910Y-129137342D01*
X137719115Y-129110162D01*
X137686847Y-129068829D01*
X137644470Y-129015044D01*
X137593347Y-128950506D01*
X137534841Y-128876918D01*
X137470314Y-128795978D01*
X137401131Y-128709388D01*
X137328653Y-128618848D01*
X137254246Y-128526060D01*
X137194517Y-128451702D01*
X136183511Y-128451702D01*
X136177602Y-128464659D01*
X136163272Y-128486908D01*
X136162225Y-128488391D01*
X136143438Y-128518544D01*
X136123791Y-128555375D01*
X136119892Y-128563511D01*
X136116356Y-128571940D01*
X136113230Y-128582059D01*
X136110486Y-128595260D01*
X136108092Y-128612938D01*
X136106019Y-128636484D01*
X136104235Y-128667293D01*
X136102712Y-128706757D01*
X136101419Y-128756269D01*
X136100326Y-128817223D01*
X136099403Y-128891011D01*
X136098619Y-128979028D01*
X136097945Y-129082665D01*
X136097350Y-129203316D01*
X136096805Y-129342374D01*
X136096279Y-129501232D01*
X136095745Y-129680089D01*
X136095206Y-129865207D01*
X136094772Y-130029145D01*
X136094509Y-130173303D01*
X136094484Y-130299079D01*
X136094765Y-130407871D01*
X136095419Y-130501077D01*
X136096514Y-130580097D01*
X136098118Y-130646328D01*
X136100297Y-130701170D01*
X136103119Y-130746021D01*
X136106651Y-130782278D01*
X136110961Y-130811341D01*
X136116117Y-130834609D01*
X136122185Y-130853479D01*
X136129233Y-130869351D01*
X136137329Y-130883622D01*
X136146540Y-130897691D01*
X136155040Y-130910158D01*
X136172176Y-130936452D01*
X136182322Y-130954037D01*
X136183511Y-130957257D01*
X136172604Y-130958334D01*
X136141411Y-130959335D01*
X136092223Y-130960235D01*
X136027333Y-130961010D01*
X135949030Y-130961637D01*
X135859607Y-130962091D01*
X135761356Y-130962349D01*
X135692445Y-130962400D01*
X135587452Y-130962180D01*
X135490610Y-130961548D01*
X135404107Y-130960549D01*
X135330132Y-130959227D01*
X135270874Y-130957626D01*
X135228520Y-130955791D01*
X135205260Y-130953765D01*
X135201378Y-130952493D01*
X135209076Y-130937591D01*
X135217074Y-130929560D01*
X135230246Y-130912434D01*
X135247485Y-130882183D01*
X135259407Y-130857622D01*
X135286045Y-130798711D01*
X135289120Y-129621845D01*
X135292195Y-128444978D01*
X135737853Y-128444978D01*
X135835670Y-128445142D01*
X135926064Y-128445611D01*
X136006630Y-128446347D01*
X136074962Y-128447316D01*
X136128656Y-128448480D01*
X136165305Y-128449803D01*
X136182504Y-128451249D01*
X136183511Y-128451702D01*
X137194517Y-128451702D01*
X137179270Y-128432722D01*
X137105090Y-128340537D01*
X137033069Y-128251204D01*
X136964569Y-128166424D01*
X136900955Y-128087898D01*
X136843588Y-128017326D01*
X136793833Y-127956409D01*
X136753052Y-127906847D01*
X136735888Y-127886178D01*
X136649596Y-127785516D01*
X136572997Y-127702259D01*
X136504183Y-127634438D01*
X136441248Y-127580089D01*
X136431867Y-127572722D01*
X136392356Y-127542117D01*
X137524116Y-127541867D01*
X137518827Y-127589844D01*
X137522130Y-127647188D01*
X137543661Y-127715463D01*
X137583635Y-127795212D01*
X137628943Y-127867495D01*
X137645161Y-127890140D01*
X137673214Y-127927696D01*
X137711430Y-127978021D01*
X137758137Y-128038973D01*
X137811661Y-128108411D01*
X137870331Y-128184194D01*
X137932475Y-128264180D01*
X137996421Y-128346228D01*
X138060495Y-128428196D01*
X138123027Y-128507943D01*
X138182343Y-128583327D01*
X138236771Y-128652207D01*
X138284639Y-128712442D01*
X138324275Y-128761889D01*
X138354006Y-128798408D01*
X138372161Y-128819858D01*
X138375220Y-128823156D01*
X138378079Y-128815149D01*
X138380293Y-128784855D01*
X138381857Y-128732556D01*
X138382767Y-128658531D01*
X138383020Y-128563063D01*
X138382613Y-128446434D01*
X138381704Y-128326445D01*
X138380382Y-128194333D01*
X138378857Y-128082594D01*
X138376881Y-127989025D01*
X138374206Y-127911419D01*
X138370582Y-127847574D01*
X138365761Y-127795283D01*
X138359494Y-127752344D01*
X138351532Y-127716551D01*
X138341627Y-127685700D01*
X138329531Y-127657586D01*
X138314993Y-127630005D01*
X138300311Y-127604966D01*
X138262314Y-127541867D01*
X139322197Y-127541867D01*
X139625034Y-127541867D01*
X139625001Y-127535617D01*
X139624195Y-127433544D01*
X139623170Y-127344633D01*
X139621900Y-127267941D01*
X139620360Y-127202527D01*
X139618524Y-127147449D01*
X139616367Y-127101765D01*
X139613863Y-127064534D01*
X139610987Y-127034813D01*
X139607713Y-127011662D01*
X139604015Y-126994139D01*
X139599869Y-126981301D01*
X139595247Y-126972208D01*
X139590126Y-126965918D01*
X139584478Y-126961488D01*
X139578279Y-126957978D01*
X139571504Y-126954445D01*
X139565508Y-126950876D01*
X139560275Y-126948300D01*
X139552099Y-126945972D01*
X139539886Y-126943878D01*
X139522541Y-126942007D01*
X139498969Y-126940347D01*
X139468077Y-126938884D01*
X139428768Y-126937608D01*
X139379950Y-126936504D01*
X139320527Y-126935561D01*
X139249404Y-126934767D01*
X139165488Y-126934109D01*
X139067683Y-126933575D01*
X138954894Y-126933153D01*
X138826029Y-126932829D01*
X138679991Y-126932592D01*
X138515686Y-126932430D01*
X138332020Y-126932330D01*
X138127897Y-126932280D01*
X137916753Y-126932267D01*
X136296400Y-126932267D01*
X136296400Y-127029054D01*
G36*
X127121177Y-131814533D02*
G01*
X127089798Y-131836776D01*
X127062089Y-131864485D01*
X127062089Y-132173920D01*
X127062162Y-132265799D01*
X127062505Y-132337840D01*
X127063308Y-132392780D01*
X127064759Y-132433360D01*
X127067048Y-132462317D01*
X127070364Y-132482391D01*
X127074895Y-132496321D01*
X127080831Y-132506845D01*
X127085486Y-132513100D01*
X127116217Y-132537673D01*
X127151504Y-132540341D01*
X127183755Y-132525271D01*
X127194412Y-132516374D01*
X127201536Y-132504557D01*
X127205833Y-132485526D01*
X127208009Y-132454992D01*
X127208772Y-132408662D01*
X127208845Y-132372871D01*
X127208845Y-132238045D01*
X127705556Y-132238045D01*
X127705556Y-132360700D01*
X127706069Y-132416787D01*
X127708124Y-132455333D01*
X127712492Y-132481361D01*
X127719944Y-132499897D01*
X127728953Y-132513100D01*
X127759856Y-132537604D01*
X127794804Y-132540506D01*
X127828262Y-132523089D01*
X127837396Y-132513959D01*
X127843848Y-132501855D01*
X127848103Y-132483001D01*
X127850648Y-132453620D01*
X127851971Y-132409937D01*
X127852557Y-132348175D01*
X127852625Y-132334000D01*
X127853109Y-132217631D01*
X127853359Y-132121727D01*
X127853277Y-132044177D01*
X127852769Y-131982869D01*
X127851738Y-131935690D01*
X127850087Y-131900530D01*
X127847721Y-131875276D01*
X127844543Y-131857817D01*
X127840456Y-131846041D01*
X127835366Y-131837835D01*
X127829734Y-131831645D01*
X127797872Y-131811844D01*
X127764643Y-131814533D01*
X127733265Y-131836776D01*
X127720567Y-131851126D01*
X127712474Y-131866978D01*
X127707958Y-131889554D01*
X127705994Y-131924078D01*
X127705556Y-131975776D01*
X127705556Y-132091289D01*
X127208845Y-132091289D01*
X127208845Y-131972756D01*
X127208338Y-131918148D01*
X127206302Y-131881275D01*
X127201965Y-131857307D01*
X127194553Y-131841415D01*
X127186267Y-131831645D01*
X127154406Y-131811844D01*
X127121177Y-131814533D01*
G37*
X127121177Y-131814533D02*
X127089798Y-131836776D01*
X127062089Y-131864485D01*
X127062089Y-132173920D01*
X127062162Y-132265799D01*
X127062505Y-132337840D01*
X127063308Y-132392780D01*
X127064759Y-132433360D01*
X127067048Y-132462317D01*
X127070364Y-132482391D01*
X127074895Y-132496321D01*
X127080831Y-132506845D01*
X127085486Y-132513100D01*
X127116217Y-132537673D01*
X127151504Y-132540341D01*
X127183755Y-132525271D01*
X127194412Y-132516374D01*
X127201536Y-132504557D01*
X127205833Y-132485526D01*
X127208009Y-132454992D01*
X127208772Y-132408662D01*
X127208845Y-132372871D01*
X127208845Y-132238045D01*
X127705556Y-132238045D01*
X127705556Y-132360700D01*
X127706069Y-132416787D01*
X127708124Y-132455333D01*
X127712492Y-132481361D01*
X127719944Y-132499897D01*
X127728953Y-132513100D01*
X127759856Y-132537604D01*
X127794804Y-132540506D01*
X127828262Y-132523089D01*
X127837396Y-132513959D01*
X127843848Y-132501855D01*
X127848103Y-132483001D01*
X127850648Y-132453620D01*
X127851971Y-132409937D01*
X127852557Y-132348175D01*
X127852625Y-132334000D01*
X127853109Y-132217631D01*
X127853359Y-132121727D01*
X127853277Y-132044177D01*
X127852769Y-131982869D01*
X127851738Y-131935690D01*
X127850087Y-131900530D01*
X127847721Y-131875276D01*
X127844543Y-131857817D01*
X127840456Y-131846041D01*
X127835366Y-131837835D01*
X127829734Y-131831645D01*
X127797872Y-131811844D01*
X127764643Y-131814533D01*
X127733265Y-131836776D01*
X127720567Y-131851126D01*
X127712474Y-131866978D01*
X127707958Y-131889554D01*
X127705994Y-131924078D01*
X127705556Y-131975776D01*
X127705556Y-132091289D01*
X127208845Y-132091289D01*
X127208845Y-131972756D01*
X127208338Y-131918148D01*
X127206302Y-131881275D01*
X127201965Y-131857307D01*
X127194553Y-131841415D01*
X127186267Y-131831645D01*
X127154406Y-131811844D01*
X127121177Y-131814533D01*
G36*
X128386935Y-131809163D02*
G01*
X128308228Y-131809542D01*
X128247137Y-131810333D01*
X128201183Y-131811670D01*
X128167886Y-131813683D01*
X128144764Y-131816506D01*
X128129338Y-131820269D01*
X128119129Y-131825105D01*
X128114187Y-131828822D01*
X128088543Y-131861358D01*
X128085441Y-131895138D01*
X128101289Y-131925826D01*
X128111652Y-131938089D01*
X128122804Y-131946450D01*
X128138965Y-131951657D01*
X128164358Y-131954457D01*
X128203202Y-131955596D01*
X128259720Y-131955821D01*
X128270820Y-131955822D01*
X128416756Y-131955822D01*
X128416756Y-132226756D01*
X128416852Y-132312154D01*
X128417289Y-132377864D01*
X128418288Y-132426774D01*
X128420072Y-132461773D01*
X128422863Y-132485749D01*
X128426883Y-132501593D01*
X128432355Y-132512191D01*
X128439334Y-132520267D01*
X128472266Y-132540112D01*
X128506646Y-132538548D01*
X128537824Y-132515906D01*
X128540114Y-132513100D01*
X128547571Y-132502492D01*
X128553253Y-132490081D01*
X128557399Y-132472850D01*
X128560250Y-132447784D01*
X128562046Y-132411867D01*
X128563028Y-132362083D01*
X128563436Y-132295417D01*
X128563511Y-132219589D01*
X128563511Y-131955822D01*
X128702873Y-131955822D01*
X128762678Y-131955418D01*
X128804082Y-131953840D01*
X128831252Y-131950547D01*
X128848354Y-131944992D01*
X128859557Y-131936631D01*
X128860917Y-131935178D01*
X128877275Y-131901939D01*
X128875828Y-131864362D01*
X128857022Y-131831645D01*
X128849750Y-131825298D01*
X128840373Y-131820266D01*
X128826391Y-131816396D01*
X128805304Y-131813537D01*
X128774611Y-131811535D01*
X128731811Y-131810239D01*
X128674405Y-131809498D01*
X128599890Y-131809158D01*
X128505767Y-131809068D01*
X128485740Y-131809067D01*
X128386935Y-131809163D01*
G37*
X128386935Y-131809163D02*
X128308228Y-131809542D01*
X128247137Y-131810333D01*
X128201183Y-131811670D01*
X128167886Y-131813683D01*
X128144764Y-131816506D01*
X128129338Y-131820269D01*
X128119129Y-131825105D01*
X128114187Y-131828822D01*
X128088543Y-131861358D01*
X128085441Y-131895138D01*
X128101289Y-131925826D01*
X128111652Y-131938089D01*
X128122804Y-131946450D01*
X128138965Y-131951657D01*
X128164358Y-131954457D01*
X128203202Y-131955596D01*
X128259720Y-131955821D01*
X128270820Y-131955822D01*
X128416756Y-131955822D01*
X128416756Y-132226756D01*
X128416852Y-132312154D01*
X128417289Y-132377864D01*
X128418288Y-132426774D01*
X128420072Y-132461773D01*
X128422863Y-132485749D01*
X128426883Y-132501593D01*
X128432355Y-132512191D01*
X128439334Y-132520267D01*
X128472266Y-132540112D01*
X128506646Y-132538548D01*
X128537824Y-132515906D01*
X128540114Y-132513100D01*
X128547571Y-132502492D01*
X128553253Y-132490081D01*
X128557399Y-132472850D01*
X128560250Y-132447784D01*
X128562046Y-132411867D01*
X128563028Y-132362083D01*
X128563436Y-132295417D01*
X128563511Y-132219589D01*
X128563511Y-131955822D01*
X128702873Y-131955822D01*
X128762678Y-131955418D01*
X128804082Y-131953840D01*
X128831252Y-131950547D01*
X128848354Y-131944992D01*
X128859557Y-131936631D01*
X128860917Y-131935178D01*
X128877275Y-131901939D01*
X128875828Y-131864362D01*
X128857022Y-131831645D01*
X128849750Y-131825298D01*
X128840373Y-131820266D01*
X128826391Y-131816396D01*
X128805304Y-131813537D01*
X128774611Y-131811535D01*
X128731811Y-131810239D01*
X128674405Y-131809498D01*
X128599890Y-131809158D01*
X128505767Y-131809068D01*
X128485740Y-131809067D01*
X128386935Y-131809163D01*
G36*
X129161386Y-131815877D02*
G01*
X129137673Y-131830647D01*
X129111022Y-131852227D01*
X129111022Y-132173773D01*
X129111107Y-132267830D01*
X129111471Y-132341932D01*
X129112276Y-132398704D01*
X129113687Y-132440768D01*
X129115867Y-132470748D01*
X129118979Y-132491267D01*
X129123186Y-132504949D01*
X129128652Y-132514416D01*
X129132528Y-132519082D01*
X129163966Y-132539575D01*
X129199767Y-132538739D01*
X129231127Y-132521264D01*
X129257778Y-132499684D01*
X129257778Y-131852227D01*
X129231127Y-131830647D01*
X129205406Y-131814949D01*
X129184400Y-131809067D01*
X129161386Y-131815877D01*
G37*
X129161386Y-131815877D02*
X129137673Y-131830647D01*
X129111022Y-131852227D01*
X129111022Y-132173773D01*
X129111107Y-132267830D01*
X129111471Y-132341932D01*
X129112276Y-132398704D01*
X129113687Y-132440768D01*
X129115867Y-132470748D01*
X129118979Y-132491267D01*
X129123186Y-132504949D01*
X129128652Y-132514416D01*
X129132528Y-132519082D01*
X129163966Y-132539575D01*
X129199767Y-132538739D01*
X129231127Y-132521264D01*
X129257778Y-132499684D01*
X129257778Y-131852227D01*
X129231127Y-131830647D01*
X129205406Y-131814949D01*
X129184400Y-131809067D01*
X129161386Y-131815877D01*
G36*
X129605335Y-131811034D02*
G01*
X129585745Y-131818035D01*
X129584990Y-131818377D01*
X129558387Y-131838678D01*
X129543730Y-131859561D01*
X129540862Y-131869352D01*
X129541004Y-131882361D01*
X129545039Y-131900895D01*
X129553854Y-131927257D01*
X129568331Y-131963752D01*
X129589355Y-132012687D01*
X129617812Y-132076365D01*
X129654585Y-132157093D01*
X129674825Y-132201216D01*
X129711375Y-132279985D01*
X129745685Y-132352423D01*
X129776448Y-132415880D01*
X129802352Y-132467708D01*
X129822090Y-132505259D01*
X129834350Y-132525884D01*
X129836776Y-132528733D01*
X129867817Y-132541302D01*
X129902879Y-132539619D01*
X129931000Y-132524332D01*
X129932146Y-132523089D01*
X129943332Y-132506154D01*
X129962096Y-132473170D01*
X129986125Y-132428380D01*
X130013103Y-132376032D01*
X130022799Y-132356742D01*
X130095986Y-132210150D01*
X130175760Y-132369393D01*
X130204233Y-132424415D01*
X130230650Y-132472132D01*
X130252852Y-132508893D01*
X130268681Y-132531044D01*
X130274046Y-132535741D01*
X130315743Y-132542102D01*
X130350151Y-132528733D01*
X130360272Y-132514446D01*
X130377786Y-132482692D01*
X130401265Y-132436597D01*
X130429280Y-132379285D01*
X130460401Y-132313880D01*
X130493201Y-132243507D01*
X130526250Y-132171291D01*
X130558119Y-132100355D01*
X130587381Y-132033825D01*
X130612605Y-131974826D01*
X130632364Y-131926481D01*
X130645228Y-131891915D01*
X130649769Y-131874253D01*
X130649723Y-131873613D01*
X130638674Y-131851388D01*
X130616590Y-131828753D01*
X130615290Y-131827768D01*
X130588147Y-131812425D01*
X130563042Y-131812574D01*
X130553632Y-131815466D01*
X130542166Y-131821718D01*
X130529990Y-131834014D01*
X130515643Y-131854908D01*
X130497664Y-131886949D01*
X130474593Y-131932688D01*
X130444970Y-131994677D01*
X130418255Y-132051898D01*
X130387520Y-132118226D01*
X130359979Y-132177874D01*
X130337062Y-132227725D01*
X130320202Y-132264664D01*
X130310827Y-132285573D01*
X130309460Y-132288845D01*
X130303311Y-132283497D01*
X130289178Y-132261109D01*
X130268943Y-132224946D01*
X130244485Y-132178277D01*
X130234752Y-132159022D01*
X130201783Y-132094004D01*
X130176357Y-132046654D01*
X130156388Y-132014219D01*
X130139790Y-131993946D01*
X130124476Y-131983082D01*
X130108360Y-131978875D01*
X130097857Y-131978400D01*
X130079330Y-131980042D01*
X130063096Y-131986831D01*
X130046965Y-132001566D01*
X130028749Y-132027044D01*
X130006261Y-132066061D01*
X129977311Y-132121414D01*
X129961338Y-132152903D01*
X129935430Y-132203087D01*
X129912833Y-132244704D01*
X129895542Y-132274242D01*
X129885550Y-132288189D01*
X129884191Y-132288770D01*
X129877739Y-132277793D01*
X129863292Y-132249290D01*
X129842297Y-132206244D01*
X129816203Y-132151638D01*
X129786454Y-132088454D01*
X129771820Y-132057071D01*
X129733750Y-131976078D01*
X129703095Y-131913756D01*
X129678263Y-131868071D01*
X129657663Y-131836989D01*
X129639702Y-131818478D01*
X129622790Y-131810504D01*
X129605335Y-131811034D01*
G37*
X129605335Y-131811034D02*
X129585745Y-131818035D01*
X129584990Y-131818377D01*
X129558387Y-131838678D01*
X129543730Y-131859561D01*
X129540862Y-131869352D01*
X129541004Y-131882361D01*
X129545039Y-131900895D01*
X129553854Y-131927257D01*
X129568331Y-131963752D01*
X129589355Y-132012687D01*
X129617812Y-132076365D01*
X129654585Y-132157093D01*
X129674825Y-132201216D01*
X129711375Y-132279985D01*
X129745685Y-132352423D01*
X129776448Y-132415880D01*
X129802352Y-132467708D01*
X129822090Y-132505259D01*
X129834350Y-132525884D01*
X129836776Y-132528733D01*
X129867817Y-132541302D01*
X129902879Y-132539619D01*
X129931000Y-132524332D01*
X129932146Y-132523089D01*
X129943332Y-132506154D01*
X129962096Y-132473170D01*
X129986125Y-132428380D01*
X130013103Y-132376032D01*
X130022799Y-132356742D01*
X130095986Y-132210150D01*
X130175760Y-132369393D01*
X130204233Y-132424415D01*
X130230650Y-132472132D01*
X130252852Y-132508893D01*
X130268681Y-132531044D01*
X130274046Y-132535741D01*
X130315743Y-132542102D01*
X130350151Y-132528733D01*
X130360272Y-132514446D01*
X130377786Y-132482692D01*
X130401265Y-132436597D01*
X130429280Y-132379285D01*
X130460401Y-132313880D01*
X130493201Y-132243507D01*
X130526250Y-132171291D01*
X130558119Y-132100355D01*
X130587381Y-132033825D01*
X130612605Y-131974826D01*
X130632364Y-131926481D01*
X130645228Y-131891915D01*
X130649769Y-131874253D01*
X130649723Y-131873613D01*
X130638674Y-131851388D01*
X130616590Y-131828753D01*
X130615290Y-131827768D01*
X130588147Y-131812425D01*
X130563042Y-131812574D01*
X130553632Y-131815466D01*
X130542166Y-131821718D01*
X130529990Y-131834014D01*
X130515643Y-131854908D01*
X130497664Y-131886949D01*
X130474593Y-131932688D01*
X130444970Y-131994677D01*
X130418255Y-132051898D01*
X130387520Y-132118226D01*
X130359979Y-132177874D01*
X130337062Y-132227725D01*
X130320202Y-132264664D01*
X130310827Y-132285573D01*
X130309460Y-132288845D01*
X130303311Y-132283497D01*
X130289178Y-132261109D01*
X130268943Y-132224946D01*
X130244485Y-132178277D01*
X130234752Y-132159022D01*
X130201783Y-132094004D01*
X130176357Y-132046654D01*
X130156388Y-132014219D01*
X130139790Y-131993946D01*
X130124476Y-131983082D01*
X130108360Y-131978875D01*
X130097857Y-131978400D01*
X130079330Y-131980042D01*
X130063096Y-131986831D01*
X130046965Y-132001566D01*
X130028749Y-132027044D01*
X130006261Y-132066061D01*
X129977311Y-132121414D01*
X129961338Y-132152903D01*
X129935430Y-132203087D01*
X129912833Y-132244704D01*
X129895542Y-132274242D01*
X129885550Y-132288189D01*
X129884191Y-132288770D01*
X129877739Y-132277793D01*
X129863292Y-132249290D01*
X129842297Y-132206244D01*
X129816203Y-132151638D01*
X129786454Y-132088454D01*
X129771820Y-132057071D01*
X129733750Y-131976078D01*
X129703095Y-131913756D01*
X129678263Y-131868071D01*
X129657663Y-131836989D01*
X129639702Y-131818478D01*
X129622790Y-131810504D01*
X129605335Y-131811034D01*
G36*
X132331691Y-131809275D02*
G01*
X132202712Y-131813636D01*
X132093009Y-131826861D01*
X132000774Y-131849741D01*
X131924198Y-131883070D01*
X131861473Y-131927638D01*
X131810788Y-131984236D01*
X131770337Y-132053658D01*
X131769541Y-132055351D01*
X131745399Y-132117483D01*
X131736797Y-132172509D01*
X131743769Y-132227887D01*
X131766346Y-132291073D01*
X131770628Y-132300689D01*
X131799828Y-132356966D01*
X131832644Y-132400451D01*
X131874998Y-132437417D01*
X131932810Y-132474135D01*
X131936169Y-132476052D01*
X131986496Y-132500227D01*
X132043379Y-132518282D01*
X132110473Y-132530839D01*
X132191435Y-132538522D01*
X132289918Y-132541953D01*
X132324714Y-132542251D01*
X132490406Y-132542845D01*
X132513803Y-132513100D01*
X132520743Y-132503319D01*
X132526158Y-132491897D01*
X132530235Y-132476095D01*
X132533163Y-132453175D01*
X132535133Y-132420396D01*
X132535775Y-132396089D01*
X132379156Y-132396089D01*
X132285274Y-132396089D01*
X132230336Y-132394483D01*
X132173940Y-132390255D01*
X132127655Y-132384292D01*
X132124861Y-132383790D01*
X132042652Y-132361736D01*
X131978886Y-132328600D01*
X131931548Y-132282847D01*
X131898618Y-132222939D01*
X131892892Y-132207061D01*
X131887279Y-132182333D01*
X131889709Y-132157902D01*
X131901533Y-132125400D01*
X131908660Y-132109434D01*
X131932000Y-132067006D01*
X131960120Y-132037240D01*
X131991060Y-132016511D01*
X132053034Y-131989537D01*
X132132349Y-131969998D01*
X132224747Y-131958746D01*
X132291667Y-131956270D01*
X132379156Y-131955822D01*
X132379156Y-132396089D01*
X132535775Y-132396089D01*
X132536332Y-132375021D01*
X132536950Y-132314311D01*
X132537175Y-132235526D01*
X132537200Y-132173920D01*
X132537200Y-131864485D01*
X132509491Y-131836776D01*
X132497194Y-131825544D01*
X132483897Y-131817853D01*
X132465328Y-131813040D01*
X132437214Y-131810446D01*
X132395283Y-131809410D01*
X132335263Y-131809270D01*
X132331691Y-131809275D01*
G37*
X132331691Y-131809275D02*
X132202712Y-131813636D01*
X132093009Y-131826861D01*
X132000774Y-131849741D01*
X131924198Y-131883070D01*
X131861473Y-131927638D01*
X131810788Y-131984236D01*
X131770337Y-132053658D01*
X131769541Y-132055351D01*
X131745399Y-132117483D01*
X131736797Y-132172509D01*
X131743769Y-132227887D01*
X131766346Y-132291073D01*
X131770628Y-132300689D01*
X131799828Y-132356966D01*
X131832644Y-132400451D01*
X131874998Y-132437417D01*
X131932810Y-132474135D01*
X131936169Y-132476052D01*
X131986496Y-132500227D01*
X132043379Y-132518282D01*
X132110473Y-132530839D01*
X132191435Y-132538522D01*
X132289918Y-132541953D01*
X132324714Y-132542251D01*
X132490406Y-132542845D01*
X132513803Y-132513100D01*
X132520743Y-132503319D01*
X132526158Y-132491897D01*
X132530235Y-132476095D01*
X132533163Y-132453175D01*
X132535133Y-132420396D01*
X132535775Y-132396089D01*
X132379156Y-132396089D01*
X132285274Y-132396089D01*
X132230336Y-132394483D01*
X132173940Y-132390255D01*
X132127655Y-132384292D01*
X132124861Y-132383790D01*
X132042652Y-132361736D01*
X131978886Y-132328600D01*
X131931548Y-132282847D01*
X131898618Y-132222939D01*
X131892892Y-132207061D01*
X131887279Y-132182333D01*
X131889709Y-132157902D01*
X131901533Y-132125400D01*
X131908660Y-132109434D01*
X131932000Y-132067006D01*
X131960120Y-132037240D01*
X131991060Y-132016511D01*
X132053034Y-131989537D01*
X132132349Y-131969998D01*
X132224747Y-131958746D01*
X132291667Y-131956270D01*
X132379156Y-131955822D01*
X132379156Y-132396089D01*
X132535775Y-132396089D01*
X132536332Y-132375021D01*
X132536950Y-132314311D01*
X132537175Y-132235526D01*
X132537200Y-132173920D01*
X132537200Y-131864485D01*
X132509491Y-131836776D01*
X132497194Y-131825544D01*
X132483897Y-131817853D01*
X132465328Y-131813040D01*
X132437214Y-131810446D01*
X132395283Y-131809410D01*
X132335263Y-131809270D01*
X132331691Y-131809275D01*
G36*
X133119657Y-131809260D02*
G01*
X133043299Y-131810174D01*
X132984783Y-131812311D01*
X132941745Y-131816175D01*
X132911817Y-131822267D01*
X132892632Y-131831090D01*
X132881824Y-131843146D01*
X132877027Y-131858939D01*
X132875873Y-131878970D01*
X132875867Y-131881335D01*
X132876869Y-131903992D01*
X132881604Y-131921503D01*
X132892667Y-131934574D01*
X132912652Y-131943913D01*
X132944154Y-131950227D01*
X132989768Y-131954222D01*
X133052087Y-131956606D01*
X133133707Y-131958086D01*
X133158723Y-131958414D01*
X133400800Y-131961467D01*
X133404186Y-132026378D01*
X133407571Y-132091289D01*
X133239424Y-132091289D01*
X133173734Y-132091531D01*
X133126828Y-132092556D01*
X133094917Y-132094811D01*
X133074209Y-132098742D01*
X133060916Y-132104798D01*
X133051245Y-132113424D01*
X133051183Y-132113493D01*
X133033644Y-132147112D01*
X133034278Y-132183448D01*
X133052686Y-132214423D01*
X133056329Y-132217607D01*
X133069259Y-132225812D01*
X133086976Y-132231521D01*
X133113430Y-132235162D01*
X133152568Y-132237167D01*
X133208338Y-132237964D01*
X133244006Y-132238045D01*
X133406445Y-132238045D01*
X133406445Y-132396089D01*
X133159839Y-132396089D01*
X133078420Y-132396231D01*
X133016590Y-132396814D01*
X132971363Y-132398068D01*
X132939752Y-132400227D01*
X132918769Y-132403523D01*
X132905427Y-132408189D01*
X132896739Y-132414457D01*
X132894550Y-132416733D01*
X132878386Y-132448280D01*
X132877203Y-132484168D01*
X132890464Y-132515285D01*
X132900957Y-132525271D01*
X132911871Y-132530769D01*
X132928783Y-132535022D01*
X132954367Y-132538180D01*
X132991299Y-132540392D01*
X133042254Y-132541806D01*
X133109906Y-132542572D01*
X133196931Y-132542838D01*
X133216606Y-132542845D01*
X133305089Y-132542787D01*
X133373773Y-132542467D01*
X133425436Y-132541667D01*
X133462855Y-132540167D01*
X133488810Y-132537749D01*
X133506078Y-132534194D01*
X133517438Y-132529282D01*
X133525668Y-132522795D01*
X133530183Y-132518138D01*
X133536979Y-132509889D01*
X133542288Y-132499669D01*
X133546294Y-132484800D01*
X133549179Y-132462602D01*
X133551126Y-132430393D01*
X133552319Y-132385496D01*
X133552939Y-132325228D01*
X133553171Y-132246911D01*
X133553200Y-132180994D01*
X133553129Y-132088628D01*
X133552792Y-132016117D01*
X133552002Y-131960737D01*
X133550574Y-131919765D01*
X133548321Y-131890478D01*
X133545057Y-131870153D01*
X133540596Y-131856066D01*
X133534752Y-131845495D01*
X133529803Y-131838811D01*
X133506406Y-131809067D01*
X133216226Y-131809067D01*
X133119657Y-131809260D01*
G37*
X133119657Y-131809260D02*
X133043299Y-131810174D01*
X132984783Y-131812311D01*
X132941745Y-131816175D01*
X132911817Y-131822267D01*
X132892632Y-131831090D01*
X132881824Y-131843146D01*
X132877027Y-131858939D01*
X132875873Y-131878970D01*
X132875867Y-131881335D01*
X132876869Y-131903992D01*
X132881604Y-131921503D01*
X132892667Y-131934574D01*
X132912652Y-131943913D01*
X132944154Y-131950227D01*
X132989768Y-131954222D01*
X133052087Y-131956606D01*
X133133707Y-131958086D01*
X133158723Y-131958414D01*
X133400800Y-131961467D01*
X133404186Y-132026378D01*
X133407571Y-132091289D01*
X133239424Y-132091289D01*
X133173734Y-132091531D01*
X133126828Y-132092556D01*
X133094917Y-132094811D01*
X133074209Y-132098742D01*
X133060916Y-132104798D01*
X133051245Y-132113424D01*
X133051183Y-132113493D01*
X133033644Y-132147112D01*
X133034278Y-132183448D01*
X133052686Y-132214423D01*
X133056329Y-132217607D01*
X133069259Y-132225812D01*
X133086976Y-132231521D01*
X133113430Y-132235162D01*
X133152568Y-132237167D01*
X133208338Y-132237964D01*
X133244006Y-132238045D01*
X133406445Y-132238045D01*
X133406445Y-132396089D01*
X133159839Y-132396089D01*
X133078420Y-132396231D01*
X133016590Y-132396814D01*
X132971363Y-132398068D01*
X132939752Y-132400227D01*
X132918769Y-132403523D01*
X132905427Y-132408189D01*
X132896739Y-132414457D01*
X132894550Y-132416733D01*
X132878386Y-132448280D01*
X132877203Y-132484168D01*
X132890464Y-132515285D01*
X132900957Y-132525271D01*
X132911871Y-132530769D01*
X132928783Y-132535022D01*
X132954367Y-132538180D01*
X132991299Y-132540392D01*
X133042254Y-132541806D01*
X133109906Y-132542572D01*
X133196931Y-132542838D01*
X133216606Y-132542845D01*
X133305089Y-132542787D01*
X133373773Y-132542467D01*
X133425436Y-132541667D01*
X133462855Y-132540167D01*
X133488810Y-132537749D01*
X133506078Y-132534194D01*
X133517438Y-132529282D01*
X133525668Y-132522795D01*
X133530183Y-132518138D01*
X133536979Y-132509889D01*
X133542288Y-132499669D01*
X133546294Y-132484800D01*
X133549179Y-132462602D01*
X133551126Y-132430393D01*
X133552319Y-132385496D01*
X133552939Y-132325228D01*
X133553171Y-132246911D01*
X133553200Y-132180994D01*
X133553129Y-132088628D01*
X133552792Y-132016117D01*
X133552002Y-131960737D01*
X133550574Y-131919765D01*
X133548321Y-131890478D01*
X133545057Y-131870153D01*
X133540596Y-131856066D01*
X133534752Y-131845495D01*
X133529803Y-131838811D01*
X133506406Y-131809067D01*
X133216226Y-131809067D01*
X133119657Y-131809260D01*
G36*
X134650114Y-131813448D02*
G01*
X134626548Y-131827273D01*
X134595735Y-131849881D01*
X134556078Y-131882338D01*
X134505980Y-131925708D01*
X134443843Y-131981058D01*
X134368072Y-132049451D01*
X134281334Y-132128084D01*
X134100711Y-132291878D01*
X134095067Y-132072029D01*
X134093029Y-131996351D01*
X134091063Y-131939994D01*
X134088734Y-131899706D01*
X134085606Y-131872235D01*
X134081245Y-131854329D01*
X134075216Y-131842737D01*
X134067084Y-131834208D01*
X134062772Y-131830623D01*
X134028241Y-131811670D01*
X133995383Y-131814441D01*
X133969318Y-131830633D01*
X133942667Y-131852199D01*
X133939352Y-132167151D01*
X133938435Y-132259779D01*
X133937968Y-132332544D01*
X133938113Y-132388161D01*
X133939032Y-132429342D01*
X133940887Y-132458803D01*
X133943839Y-132479255D01*
X133948050Y-132493413D01*
X133953682Y-132503991D01*
X133959927Y-132512474D01*
X133973439Y-132528207D01*
X133986883Y-132538636D01*
X134002124Y-132542639D01*
X134021026Y-132539094D01*
X134045455Y-132526879D01*
X134077273Y-132504871D01*
X134118348Y-132471949D01*
X134170542Y-132426991D01*
X134235722Y-132368875D01*
X134309556Y-132302099D01*
X134574845Y-132061458D01*
X134580489Y-132280589D01*
X134582531Y-132356128D01*
X134584502Y-132412354D01*
X134586839Y-132452524D01*
X134589981Y-132479896D01*
X134594364Y-132497728D01*
X134600424Y-132509279D01*
X134608600Y-132517807D01*
X134612784Y-132521282D01*
X134649765Y-132540372D01*
X134684708Y-132537493D01*
X134715136Y-132513100D01*
X134722097Y-132503286D01*
X134727523Y-132491826D01*
X134731603Y-132475968D01*
X134734529Y-132452963D01*
X134736492Y-132420062D01*
X134737683Y-132374516D01*
X134738292Y-132313573D01*
X134738511Y-132234486D01*
X134738534Y-132175956D01*
X134738460Y-132084407D01*
X134738113Y-132012687D01*
X134737301Y-131958045D01*
X134735833Y-131917732D01*
X134733519Y-131888998D01*
X134730167Y-131869093D01*
X134725588Y-131855268D01*
X134719589Y-131844772D01*
X134715136Y-131838811D01*
X134703850Y-131824691D01*
X134693301Y-131814029D01*
X134681893Y-131807892D01*
X134668030Y-131807343D01*
X134650114Y-131813448D01*
G37*
X134650114Y-131813448D02*
X134626548Y-131827273D01*
X134595735Y-131849881D01*
X134556078Y-131882338D01*
X134505980Y-131925708D01*
X134443843Y-131981058D01*
X134368072Y-132049451D01*
X134281334Y-132128084D01*
X134100711Y-132291878D01*
X134095067Y-132072029D01*
X134093029Y-131996351D01*
X134091063Y-131939994D01*
X134088734Y-131899706D01*
X134085606Y-131872235D01*
X134081245Y-131854329D01*
X134075216Y-131842737D01*
X134067084Y-131834208D01*
X134062772Y-131830623D01*
X134028241Y-131811670D01*
X133995383Y-131814441D01*
X133969318Y-131830633D01*
X133942667Y-131852199D01*
X133939352Y-132167151D01*
X133938435Y-132259779D01*
X133937968Y-132332544D01*
X133938113Y-132388161D01*
X133939032Y-132429342D01*
X133940887Y-132458803D01*
X133943839Y-132479255D01*
X133948050Y-132493413D01*
X133953682Y-132503991D01*
X133959927Y-132512474D01*
X133973439Y-132528207D01*
X133986883Y-132538636D01*
X134002124Y-132542639D01*
X134021026Y-132539094D01*
X134045455Y-132526879D01*
X134077273Y-132504871D01*
X134118348Y-132471949D01*
X134170542Y-132426991D01*
X134235722Y-132368875D01*
X134309556Y-132302099D01*
X134574845Y-132061458D01*
X134580489Y-132280589D01*
X134582531Y-132356128D01*
X134584502Y-132412354D01*
X134586839Y-132452524D01*
X134589981Y-132479896D01*
X134594364Y-132497728D01*
X134600424Y-132509279D01*
X134608600Y-132517807D01*
X134612784Y-132521282D01*
X134649765Y-132540372D01*
X134684708Y-132537493D01*
X134715136Y-132513100D01*
X134722097Y-132503286D01*
X134727523Y-132491826D01*
X134731603Y-132475968D01*
X134734529Y-132452963D01*
X134736492Y-132420062D01*
X134737683Y-132374516D01*
X134738292Y-132313573D01*
X134738511Y-132234486D01*
X134738534Y-132175956D01*
X134738460Y-132084407D01*
X134738113Y-132012687D01*
X134737301Y-131958045D01*
X134735833Y-131917732D01*
X134733519Y-131888998D01*
X134730167Y-131869093D01*
X134725588Y-131855268D01*
X134719589Y-131844772D01*
X134715136Y-131838811D01*
X134703850Y-131824691D01*
X134693301Y-131814029D01*
X134681893Y-131807892D01*
X134668030Y-131807343D01*
X134650114Y-131813448D01*
G36*
X135300081Y-131814599D02*
G01*
X135231565Y-131826095D01*
X135178943Y-131843967D01*
X135144708Y-131867499D01*
X135135379Y-131880924D01*
X135125893Y-131912148D01*
X135132277Y-131940395D01*
X135152430Y-131967182D01*
X135183745Y-131979713D01*
X135229183Y-131978696D01*
X135264326Y-131971906D01*
X135342419Y-131958971D01*
X135422226Y-131957742D01*
X135511555Y-131968241D01*
X135536229Y-131972690D01*
X135619291Y-131996108D01*
X135684273Y-132030945D01*
X135730461Y-132076604D01*
X135757145Y-132132494D01*
X135762663Y-132161388D01*
X135759051Y-132220012D01*
X135735729Y-132271879D01*
X135694824Y-132315978D01*
X135638459Y-132351299D01*
X135568760Y-132376829D01*
X135487852Y-132391559D01*
X135397860Y-132394478D01*
X135300910Y-132384575D01*
X135295436Y-132383641D01*
X135256875Y-132376459D01*
X135235494Y-132369521D01*
X135226227Y-132359227D01*
X135224006Y-132341976D01*
X135223956Y-132332841D01*
X135223956Y-132294489D01*
X135292431Y-132294489D01*
X135352900Y-132290347D01*
X135394165Y-132277147D01*
X135418175Y-132253730D01*
X135426877Y-132218936D01*
X135426983Y-132214394D01*
X135421892Y-132184654D01*
X135404433Y-132163419D01*
X135371939Y-132149366D01*
X135321743Y-132141173D01*
X135273123Y-132138161D01*
X135202456Y-132136433D01*
X135151198Y-132139070D01*
X135116239Y-132148800D01*
X135094470Y-132168353D01*
X135082780Y-132200456D01*
X135078060Y-132247838D01*
X135077200Y-132310071D01*
X135078609Y-132379535D01*
X135082848Y-132426786D01*
X135089936Y-132452012D01*
X135091311Y-132453988D01*
X135130228Y-132485508D01*
X135187286Y-132510470D01*
X135258869Y-132528340D01*
X135341358Y-132538586D01*
X135431139Y-132540673D01*
X135524592Y-132534068D01*
X135579556Y-132525956D01*
X135665766Y-132501554D01*
X135745892Y-132461662D01*
X135812977Y-132409887D01*
X135823173Y-132399539D01*
X135856302Y-132356035D01*
X135886194Y-132302118D01*
X135909357Y-132245592D01*
X135922298Y-132194259D01*
X135923858Y-132174544D01*
X135917218Y-132133419D01*
X135899568Y-132082252D01*
X135874297Y-132028394D01*
X135844789Y-131979195D01*
X135818719Y-131946334D01*
X135757765Y-131897452D01*
X135678969Y-131858545D01*
X135585157Y-131830494D01*
X135479150Y-131814179D01*
X135382000Y-131810192D01*
X135300081Y-131814599D01*
G37*
X135300081Y-131814599D02*
X135231565Y-131826095D01*
X135178943Y-131843967D01*
X135144708Y-131867499D01*
X135135379Y-131880924D01*
X135125893Y-131912148D01*
X135132277Y-131940395D01*
X135152430Y-131967182D01*
X135183745Y-131979713D01*
X135229183Y-131978696D01*
X135264326Y-131971906D01*
X135342419Y-131958971D01*
X135422226Y-131957742D01*
X135511555Y-131968241D01*
X135536229Y-131972690D01*
X135619291Y-131996108D01*
X135684273Y-132030945D01*
X135730461Y-132076604D01*
X135757145Y-132132494D01*
X135762663Y-132161388D01*
X135759051Y-132220012D01*
X135735729Y-132271879D01*
X135694824Y-132315978D01*
X135638459Y-132351299D01*
X135568760Y-132376829D01*
X135487852Y-132391559D01*
X135397860Y-132394478D01*
X135300910Y-132384575D01*
X135295436Y-132383641D01*
X135256875Y-132376459D01*
X135235494Y-132369521D01*
X135226227Y-132359227D01*
X135224006Y-132341976D01*
X135223956Y-132332841D01*
X135223956Y-132294489D01*
X135292431Y-132294489D01*
X135352900Y-132290347D01*
X135394165Y-132277147D01*
X135418175Y-132253730D01*
X135426877Y-132218936D01*
X135426983Y-132214394D01*
X135421892Y-132184654D01*
X135404433Y-132163419D01*
X135371939Y-132149366D01*
X135321743Y-132141173D01*
X135273123Y-132138161D01*
X135202456Y-132136433D01*
X135151198Y-132139070D01*
X135116239Y-132148800D01*
X135094470Y-132168353D01*
X135082780Y-132200456D01*
X135078060Y-132247838D01*
X135077200Y-132310071D01*
X135078609Y-132379535D01*
X135082848Y-132426786D01*
X135089936Y-132452012D01*
X135091311Y-132453988D01*
X135130228Y-132485508D01*
X135187286Y-132510470D01*
X135258869Y-132528340D01*
X135341358Y-132538586D01*
X135431139Y-132540673D01*
X135524592Y-132534068D01*
X135579556Y-132525956D01*
X135665766Y-132501554D01*
X135745892Y-132461662D01*
X135812977Y-132409887D01*
X135823173Y-132399539D01*
X135856302Y-132356035D01*
X135886194Y-132302118D01*
X135909357Y-132245592D01*
X135922298Y-132194259D01*
X135923858Y-132174544D01*
X135917218Y-132133419D01*
X135899568Y-132082252D01*
X135874297Y-132028394D01*
X135844789Y-131979195D01*
X135818719Y-131946334D01*
X135757765Y-131897452D01*
X135678969Y-131858545D01*
X135585157Y-131830494D01*
X135479150Y-131814179D01*
X135382000Y-131810192D01*
X135300081Y-131814599D01*
G36*
X136273822Y-131831645D02*
G01*
X136267242Y-131839218D01*
X136262079Y-131848987D01*
X136258164Y-131863571D01*
X136255324Y-131885585D01*
X136253387Y-131917648D01*
X136252183Y-131962375D01*
X136251539Y-132022385D01*
X136251284Y-132100294D01*
X136251245Y-132175956D01*
X136251314Y-132269802D01*
X136251638Y-132343689D01*
X136252386Y-132400232D01*
X136253732Y-132442049D01*
X136255846Y-132471757D01*
X136258900Y-132491973D01*
X136263066Y-132505314D01*
X136268516Y-132514398D01*
X136273822Y-132520267D01*
X136306826Y-132539947D01*
X136341991Y-132538181D01*
X136373455Y-132516717D01*
X136380684Y-132508337D01*
X136386334Y-132498614D01*
X136390599Y-132484861D01*
X136393673Y-132464389D01*
X136395752Y-132434512D01*
X136397030Y-132392541D01*
X136397701Y-132335789D01*
X136397959Y-132261567D01*
X136398000Y-132177537D01*
X136398000Y-131864485D01*
X136370291Y-131836776D01*
X136336137Y-131813463D01*
X136303006Y-131812623D01*
X136273822Y-131831645D01*
G37*
X136273822Y-131831645D02*
X136267242Y-131839218D01*
X136262079Y-131848987D01*
X136258164Y-131863571D01*
X136255324Y-131885585D01*
X136253387Y-131917648D01*
X136252183Y-131962375D01*
X136251539Y-132022385D01*
X136251284Y-132100294D01*
X136251245Y-132175956D01*
X136251314Y-132269802D01*
X136251638Y-132343689D01*
X136252386Y-132400232D01*
X136253732Y-132442049D01*
X136255846Y-132471757D01*
X136258900Y-132491973D01*
X136263066Y-132505314D01*
X136268516Y-132514398D01*
X136273822Y-132520267D01*
X136306826Y-132539947D01*
X136341991Y-132538181D01*
X136373455Y-132516717D01*
X136380684Y-132508337D01*
X136386334Y-132498614D01*
X136390599Y-132484861D01*
X136393673Y-132464389D01*
X136395752Y-132434512D01*
X136397030Y-132392541D01*
X136397701Y-132335789D01*
X136397959Y-132261567D01*
X136398000Y-132177537D01*
X136398000Y-131864485D01*
X136370291Y-131836776D01*
X136336137Y-131813463D01*
X136303006Y-131812623D01*
X136273822Y-131831645D01*
G36*
X137041703Y-131810351D02*
G01*
X136966888Y-131815581D01*
X136897306Y-131823750D01*
X136837002Y-131834550D01*
X136790020Y-131847673D01*
X136760406Y-131862813D01*
X136755860Y-131867269D01*
X136740054Y-131901850D01*
X136744847Y-131937351D01*
X136769364Y-131967725D01*
X136770534Y-131968596D01*
X136784954Y-131977954D01*
X136800008Y-131982876D01*
X136821005Y-131983473D01*
X136853257Y-131979861D01*
X136902073Y-131972154D01*
X136906000Y-131971505D01*
X136978739Y-131962569D01*
X137057217Y-131958161D01*
X137135927Y-131958119D01*
X137209361Y-131962279D01*
X137272011Y-131970479D01*
X137318370Y-131982557D01*
X137321416Y-131983771D01*
X137355048Y-132002615D01*
X137366864Y-132021685D01*
X137357614Y-132040439D01*
X137328047Y-132058337D01*
X137278911Y-132074837D01*
X137210957Y-132089396D01*
X137165645Y-132096406D01*
X137071456Y-132109889D01*
X136996544Y-132122214D01*
X136937717Y-132134449D01*
X136891785Y-132147661D01*
X136855555Y-132162917D01*
X136825838Y-132181285D01*
X136799442Y-132203831D01*
X136778230Y-132225971D01*
X136753065Y-132256819D01*
X136740681Y-132283345D01*
X136736808Y-132316026D01*
X136736667Y-132327995D01*
X136739576Y-132367712D01*
X136751202Y-132397259D01*
X136771323Y-132423486D01*
X136812216Y-132463576D01*
X136857817Y-132494149D01*
X136911513Y-132516203D01*
X136976692Y-132530735D01*
X137056744Y-132538741D01*
X137155057Y-132541218D01*
X137171289Y-132541177D01*
X137236849Y-132539818D01*
X137301866Y-132536730D01*
X137359252Y-132532356D01*
X137401922Y-132527140D01*
X137405372Y-132526541D01*
X137447796Y-132516491D01*
X137483780Y-132503796D01*
X137504150Y-132492190D01*
X137523107Y-132461572D01*
X137524427Y-132425918D01*
X137508085Y-132394144D01*
X137504429Y-132390551D01*
X137489315Y-132379876D01*
X137470415Y-132375276D01*
X137441162Y-132376059D01*
X137405651Y-132380127D01*
X137365970Y-132383762D01*
X137310345Y-132386828D01*
X137245406Y-132389053D01*
X137177785Y-132390164D01*
X137160000Y-132390237D01*
X137092128Y-132389964D01*
X137042454Y-132388646D01*
X137006610Y-132385827D01*
X136980224Y-132381050D01*
X136958926Y-132373857D01*
X136946126Y-132367867D01*
X136918000Y-132351233D01*
X136900068Y-132336168D01*
X136897447Y-132331897D01*
X136902976Y-132314263D01*
X136929260Y-132297192D01*
X136974478Y-132281458D01*
X137036808Y-132267838D01*
X137055171Y-132264804D01*
X137151090Y-132249738D01*
X137227641Y-132237146D01*
X137287780Y-132226111D01*
X137334460Y-132215720D01*
X137370637Y-132205056D01*
X137399265Y-132193205D01*
X137423298Y-132179251D01*
X137445692Y-132162281D01*
X137469402Y-132141378D01*
X137477380Y-132134049D01*
X137505353Y-132106699D01*
X137520160Y-132085029D01*
X137525952Y-132060232D01*
X137526889Y-132028983D01*
X137516575Y-131967705D01*
X137485752Y-131915640D01*
X137434595Y-131872958D01*
X137363283Y-131839825D01*
X137312400Y-131824964D01*
X137257100Y-131815366D01*
X137190853Y-131809936D01*
X137117706Y-131808367D01*
X137041703Y-131810351D01*
G37*
X137041703Y-131810351D02*
X136966888Y-131815581D01*
X136897306Y-131823750D01*
X136837002Y-131834550D01*
X136790020Y-131847673D01*
X136760406Y-131862813D01*
X136755860Y-131867269D01*
X136740054Y-131901850D01*
X136744847Y-131937351D01*
X136769364Y-131967725D01*
X136770534Y-131968596D01*
X136784954Y-131977954D01*
X136800008Y-131982876D01*
X136821005Y-131983473D01*
X136853257Y-131979861D01*
X136902073Y-131972154D01*
X136906000Y-131971505D01*
X136978739Y-131962569D01*
X137057217Y-131958161D01*
X137135927Y-131958119D01*
X137209361Y-131962279D01*
X137272011Y-131970479D01*
X137318370Y-131982557D01*
X137321416Y-131983771D01*
X137355048Y-132002615D01*
X137366864Y-132021685D01*
X137357614Y-132040439D01*
X137328047Y-132058337D01*
X137278911Y-132074837D01*
X137210957Y-132089396D01*
X137165645Y-132096406D01*
X137071456Y-132109889D01*
X136996544Y-132122214D01*
X136937717Y-132134449D01*
X136891785Y-132147661D01*
X136855555Y-132162917D01*
X136825838Y-132181285D01*
X136799442Y-132203831D01*
X136778230Y-132225971D01*
X136753065Y-132256819D01*
X136740681Y-132283345D01*
X136736808Y-132316026D01*
X136736667Y-132327995D01*
X136739576Y-132367712D01*
X136751202Y-132397259D01*
X136771323Y-132423486D01*
X136812216Y-132463576D01*
X136857817Y-132494149D01*
X136911513Y-132516203D01*
X136976692Y-132530735D01*
X137056744Y-132538741D01*
X137155057Y-132541218D01*
X137171289Y-132541177D01*
X137236849Y-132539818D01*
X137301866Y-132536730D01*
X137359252Y-132532356D01*
X137401922Y-132527140D01*
X137405372Y-132526541D01*
X137447796Y-132516491D01*
X137483780Y-132503796D01*
X137504150Y-132492190D01*
X137523107Y-132461572D01*
X137524427Y-132425918D01*
X137508085Y-132394144D01*
X137504429Y-132390551D01*
X137489315Y-132379876D01*
X137470415Y-132375276D01*
X137441162Y-132376059D01*
X137405651Y-132380127D01*
X137365970Y-132383762D01*
X137310345Y-132386828D01*
X137245406Y-132389053D01*
X137177785Y-132390164D01*
X137160000Y-132390237D01*
X137092128Y-132389964D01*
X137042454Y-132388646D01*
X137006610Y-132385827D01*
X136980224Y-132381050D01*
X136958926Y-132373857D01*
X136946126Y-132367867D01*
X136918000Y-132351233D01*
X136900068Y-132336168D01*
X136897447Y-132331897D01*
X136902976Y-132314263D01*
X136929260Y-132297192D01*
X136974478Y-132281458D01*
X137036808Y-132267838D01*
X137055171Y-132264804D01*
X137151090Y-132249738D01*
X137227641Y-132237146D01*
X137287780Y-132226111D01*
X137334460Y-132215720D01*
X137370637Y-132205056D01*
X137399265Y-132193205D01*
X137423298Y-132179251D01*
X137445692Y-132162281D01*
X137469402Y-132141378D01*
X137477380Y-132134049D01*
X137505353Y-132106699D01*
X137520160Y-132085029D01*
X137525952Y-132060232D01*
X137526889Y-132028983D01*
X137516575Y-131967705D01*
X137485752Y-131915640D01*
X137434595Y-131872958D01*
X137363283Y-131839825D01*
X137312400Y-131824964D01*
X137257100Y-131815366D01*
X137190853Y-131809936D01*
X137117706Y-131808367D01*
X137041703Y-131810351D01*
G36*
X138062794Y-131809146D02*
G01*
X137993386Y-131809518D01*
X137940997Y-131810385D01*
X137902847Y-131811946D01*
X137876159Y-131814403D01*
X137858153Y-131817957D01*
X137846049Y-131822810D01*
X137837069Y-131829161D01*
X137833818Y-131832084D01*
X137814043Y-131863142D01*
X137810482Y-131898828D01*
X137823491Y-131930510D01*
X137829506Y-131936913D01*
X137839235Y-131943121D01*
X137854901Y-131947910D01*
X137879408Y-131951514D01*
X137915661Y-131954164D01*
X137966565Y-131956095D01*
X138035026Y-131957539D01*
X138097617Y-131958418D01*
X138345334Y-131961467D01*
X138348719Y-132026378D01*
X138352105Y-132091289D01*
X138183958Y-132091289D01*
X138110959Y-132091919D01*
X138057517Y-132094553D01*
X138020628Y-132100309D01*
X137997288Y-132110304D01*
X137984494Y-132125656D01*
X137979242Y-132147482D01*
X137978445Y-132167738D01*
X137980923Y-132192592D01*
X137990277Y-132210906D01*
X138009383Y-132223637D01*
X138041118Y-132231741D01*
X138088359Y-132236176D01*
X138153983Y-132237899D01*
X138189801Y-132238045D01*
X138350978Y-132238045D01*
X138350978Y-132396089D01*
X138102622Y-132396089D01*
X138021213Y-132396202D01*
X137959342Y-132396712D01*
X137913968Y-132397870D01*
X137882054Y-132399930D01*
X137860559Y-132403146D01*
X137846443Y-132407772D01*
X137836668Y-132414059D01*
X137831689Y-132418667D01*
X137814610Y-132445560D01*
X137809111Y-132469467D01*
X137816963Y-132498667D01*
X137831689Y-132520267D01*
X137839546Y-132527066D01*
X137849688Y-132532346D01*
X137864844Y-132536298D01*
X137887741Y-132539113D01*
X137921109Y-132540982D01*
X137967675Y-132542098D01*
X138030167Y-132542651D01*
X138111314Y-132542833D01*
X138153422Y-132542845D01*
X138243598Y-132542765D01*
X138313924Y-132542398D01*
X138367129Y-132541552D01*
X138405940Y-132540036D01*
X138433087Y-132537659D01*
X138451298Y-132534229D01*
X138463300Y-132529554D01*
X138471822Y-132523444D01*
X138475156Y-132520267D01*
X138481755Y-132512670D01*
X138486927Y-132502870D01*
X138490846Y-132488239D01*
X138493684Y-132466152D01*
X138495615Y-132433982D01*
X138496812Y-132389103D01*
X138497448Y-132328889D01*
X138497697Y-132250713D01*
X138497734Y-132177923D01*
X138497700Y-132084707D01*
X138497465Y-132011431D01*
X138496830Y-131955458D01*
X138495594Y-131914151D01*
X138493556Y-131884872D01*
X138490517Y-131864984D01*
X138486277Y-131851850D01*
X138480635Y-131842832D01*
X138473391Y-131835293D01*
X138471606Y-131833612D01*
X138462945Y-131826172D01*
X138452882Y-131820409D01*
X138438625Y-131816112D01*
X138417383Y-131813064D01*
X138386364Y-131811051D01*
X138342777Y-131809860D01*
X138283831Y-131809275D01*
X138206734Y-131809083D01*
X138152001Y-131809067D01*
X138062794Y-131809146D01*
G37*
X138062794Y-131809146D02*
X137993386Y-131809518D01*
X137940997Y-131810385D01*
X137902847Y-131811946D01*
X137876159Y-131814403D01*
X137858153Y-131817957D01*
X137846049Y-131822810D01*
X137837069Y-131829161D01*
X137833818Y-131832084D01*
X137814043Y-131863142D01*
X137810482Y-131898828D01*
X137823491Y-131930510D01*
X137829506Y-131936913D01*
X137839235Y-131943121D01*
X137854901Y-131947910D01*
X137879408Y-131951514D01*
X137915661Y-131954164D01*
X137966565Y-131956095D01*
X138035026Y-131957539D01*
X138097617Y-131958418D01*
X138345334Y-131961467D01*
X138348719Y-132026378D01*
X138352105Y-132091289D01*
X138183958Y-132091289D01*
X138110959Y-132091919D01*
X138057517Y-132094553D01*
X138020628Y-132100309D01*
X137997288Y-132110304D01*
X137984494Y-132125656D01*
X137979242Y-132147482D01*
X137978445Y-132167738D01*
X137980923Y-132192592D01*
X137990277Y-132210906D01*
X138009383Y-132223637D01*
X138041118Y-132231741D01*
X138088359Y-132236176D01*
X138153983Y-132237899D01*
X138189801Y-132238045D01*
X138350978Y-132238045D01*
X138350978Y-132396089D01*
X138102622Y-132396089D01*
X138021213Y-132396202D01*
X137959342Y-132396712D01*
X137913968Y-132397870D01*
X137882054Y-132399930D01*
X137860559Y-132403146D01*
X137846443Y-132407772D01*
X137836668Y-132414059D01*
X137831689Y-132418667D01*
X137814610Y-132445560D01*
X137809111Y-132469467D01*
X137816963Y-132498667D01*
X137831689Y-132520267D01*
X137839546Y-132527066D01*
X137849688Y-132532346D01*
X137864844Y-132536298D01*
X137887741Y-132539113D01*
X137921109Y-132540982D01*
X137967675Y-132542098D01*
X138030167Y-132542651D01*
X138111314Y-132542833D01*
X138153422Y-132542845D01*
X138243598Y-132542765D01*
X138313924Y-132542398D01*
X138367129Y-132541552D01*
X138405940Y-132540036D01*
X138433087Y-132537659D01*
X138451298Y-132534229D01*
X138463300Y-132529554D01*
X138471822Y-132523444D01*
X138475156Y-132520267D01*
X138481755Y-132512670D01*
X138486927Y-132502870D01*
X138490846Y-132488239D01*
X138493684Y-132466152D01*
X138495615Y-132433982D01*
X138496812Y-132389103D01*
X138497448Y-132328889D01*
X138497697Y-132250713D01*
X138497734Y-132177923D01*
X138497700Y-132084707D01*
X138497465Y-132011431D01*
X138496830Y-131955458D01*
X138495594Y-131914151D01*
X138493556Y-131884872D01*
X138490517Y-131864984D01*
X138486277Y-131851850D01*
X138480635Y-131842832D01*
X138473391Y-131835293D01*
X138471606Y-131833612D01*
X138462945Y-131826172D01*
X138452882Y-131820409D01*
X138438625Y-131816112D01*
X138417383Y-131813064D01*
X138386364Y-131811051D01*
X138342777Y-131809860D01*
X138283831Y-131809275D01*
X138206734Y-131809083D01*
X138152001Y-131809067D01*
X138062794Y-131809146D01*
G36*
X139471371Y-131809066D02*
G01*
X139431889Y-131809467D01*
X139316200Y-131812259D01*
X139219311Y-131820550D01*
X139137919Y-131835232D01*
X139068723Y-131857193D01*
X139008420Y-131887322D01*
X138953708Y-131926510D01*
X138934167Y-131943532D01*
X138901750Y-131983363D01*
X138872520Y-132037413D01*
X138849991Y-132097323D01*
X138837679Y-132154739D01*
X138836400Y-132175956D01*
X138844417Y-132234769D01*
X138865899Y-132299013D01*
X138896999Y-132359821D01*
X138933866Y-132408330D01*
X138939854Y-132414182D01*
X138990579Y-132455321D01*
X139046125Y-132487435D01*
X139109696Y-132511365D01*
X139184494Y-132527953D01*
X139273722Y-132538041D01*
X139380582Y-132542469D01*
X139429528Y-132542845D01*
X139491762Y-132542545D01*
X139535528Y-132541292D01*
X139564931Y-132538554D01*
X139584079Y-132533801D01*
X139597077Y-132526501D01*
X139604045Y-132520267D01*
X139610626Y-132512694D01*
X139615788Y-132502924D01*
X139619703Y-132488340D01*
X139622543Y-132466326D01*
X139624480Y-132434264D01*
X139625684Y-132389536D01*
X139626328Y-132329526D01*
X139626583Y-132251617D01*
X139626622Y-132175956D01*
X139626870Y-132075041D01*
X139626817Y-131994427D01*
X139625857Y-131955822D01*
X139479867Y-131955822D01*
X139479867Y-132396089D01*
X139386734Y-132396004D01*
X139330693Y-132394396D01*
X139271999Y-132390256D01*
X139223028Y-132384464D01*
X139221538Y-132384226D01*
X139142392Y-132365090D01*
X139081002Y-132335287D01*
X139034305Y-132292878D01*
X139004635Y-132246961D01*
X138986353Y-132196026D01*
X138987771Y-132148200D01*
X139008988Y-132096933D01*
X139050489Y-132043899D01*
X139107998Y-132004600D01*
X139182750Y-131978331D01*
X139232708Y-131969035D01*
X139289416Y-131962507D01*
X139349519Y-131957782D01*
X139400639Y-131955817D01*
X139403667Y-131955808D01*
X139479867Y-131955822D01*
X139625857Y-131955822D01*
X139625260Y-131931851D01*
X139620998Y-131885055D01*
X139612830Y-131851778D01*
X139599556Y-131829759D01*
X139579974Y-131816739D01*
X139552883Y-131810457D01*
X139517082Y-131808653D01*
X139471371Y-131809066D01*
G37*
X139471371Y-131809066D02*
X139431889Y-131809467D01*
X139316200Y-131812259D01*
X139219311Y-131820550D01*
X139137919Y-131835232D01*
X139068723Y-131857193D01*
X139008420Y-131887322D01*
X138953708Y-131926510D01*
X138934167Y-131943532D01*
X138901750Y-131983363D01*
X138872520Y-132037413D01*
X138849991Y-132097323D01*
X138837679Y-132154739D01*
X138836400Y-132175956D01*
X138844417Y-132234769D01*
X138865899Y-132299013D01*
X138896999Y-132359821D01*
X138933866Y-132408330D01*
X138939854Y-132414182D01*
X138990579Y-132455321D01*
X139046125Y-132487435D01*
X139109696Y-132511365D01*
X139184494Y-132527953D01*
X139273722Y-132538041D01*
X139380582Y-132542469D01*
X139429528Y-132542845D01*
X139491762Y-132542545D01*
X139535528Y-132541292D01*
X139564931Y-132538554D01*
X139584079Y-132533801D01*
X139597077Y-132526501D01*
X139604045Y-132520267D01*
X139610626Y-132512694D01*
X139615788Y-132502924D01*
X139619703Y-132488340D01*
X139622543Y-132466326D01*
X139624480Y-132434264D01*
X139625684Y-132389536D01*
X139626328Y-132329526D01*
X139626583Y-132251617D01*
X139626622Y-132175956D01*
X139626870Y-132075041D01*
X139626817Y-131994427D01*
X139625857Y-131955822D01*
X139479867Y-131955822D01*
X139479867Y-132396089D01*
X139386734Y-132396004D01*
X139330693Y-132394396D01*
X139271999Y-132390256D01*
X139223028Y-132384464D01*
X139221538Y-132384226D01*
X139142392Y-132365090D01*
X139081002Y-132335287D01*
X139034305Y-132292878D01*
X139004635Y-132246961D01*
X138986353Y-132196026D01*
X138987771Y-132148200D01*
X139008988Y-132096933D01*
X139050489Y-132043899D01*
X139107998Y-132004600D01*
X139182750Y-131978331D01*
X139232708Y-131969035D01*
X139289416Y-131962507D01*
X139349519Y-131957782D01*
X139400639Y-131955817D01*
X139403667Y-131955808D01*
X139479867Y-131955822D01*
X139625857Y-131955822D01*
X139625260Y-131931851D01*
X139620998Y-131885055D01*
X139612830Y-131851778D01*
X139599556Y-131829759D01*
X139579974Y-131816739D01*
X139552883Y-131810457D01*
X139517082Y-131808653D01*
X139471371Y-131809066D01*
D10*
X81125500Y-56578500D02*
G75*
G03*
X81125500Y-56578500I-925000J0D01*
G01*
X87094500Y-56578500D02*
G75*
G03*
X87094500Y-56578500I-925000J0D01*
G01*
X83185000Y-56578500D02*
X81185000Y-56578500D01*
D12*
X83360000Y-56578500D02*
G75*
G03*
X83360000Y-56578500I-175000J0D01*
G01*
D10*
X84253500Y-56578500D02*
X85153500Y-56578500D01*
X82510000Y-57328500D02*
G75*
G03*
X82435000Y-55903500I675000J750000D01*
G01*
D13*
X102165000Y-151060000D02*
X101865000Y-151360000D01*
X102465000Y-151360000D02*
X101865000Y-151360000D01*
X102165000Y-151060000D02*
X102465000Y-151360000D01*
X103015000Y-150160000D02*
X103015000Y-149560000D01*
X99565000Y-150860000D02*
X102365000Y-150860000D01*
X98915000Y-149560000D02*
X98915000Y-150160000D01*
X102365000Y-148860000D02*
X99565000Y-148860000D01*
X99615000Y-148860000D02*
G75*
G03*
X98915000Y-149560000I0J-700000D01*
G01*
X98915000Y-150160000D02*
G75*
G03*
X99615000Y-150860000I700000J0D01*
G01*
X102315000Y-150860000D02*
G75*
G03*
X103015000Y-150160000I0J700000D01*
G01*
X103015000Y-149560000D02*
G75*
G03*
X102315000Y-148860000I-700000J0D01*
G01*
X97285000Y-148860000D02*
X94485000Y-148860000D01*
X93835000Y-149560000D02*
X93835000Y-150160000D01*
X94485000Y-150860000D02*
X97285000Y-150860000D01*
X97935000Y-150160000D02*
X97935000Y-149560000D01*
X97085000Y-151060000D02*
X97385000Y-151360000D01*
X97385000Y-151360000D02*
X96785000Y-151360000D01*
X97085000Y-151060000D02*
X96785000Y-151360000D01*
X97935000Y-149560000D02*
G75*
G03*
X97235000Y-148860000I-700000J0D01*
G01*
X97235000Y-150860000D02*
G75*
G03*
X97935000Y-150160000I0J700000D01*
G01*
X93835000Y-150160000D02*
G75*
G03*
X94535000Y-150860000I700000J0D01*
G01*
X94535000Y-148860000D02*
G75*
G03*
X93835000Y-149560000I0J-700000D01*
G01*
X143640000Y-142510000D02*
X140840000Y-142510000D01*
X140190000Y-143210000D02*
X140190000Y-143810000D01*
X140840000Y-144510000D02*
X143640000Y-144510000D01*
X144290000Y-143810000D02*
X144290000Y-143210000D01*
X143440000Y-144710000D02*
X143740000Y-145010000D01*
X143740000Y-145010000D02*
X143140000Y-145010000D01*
X143440000Y-144710000D02*
X143140000Y-145010000D01*
X140890000Y-142510000D02*
G75*
G03*
X140190000Y-143210000I0J-700000D01*
G01*
X140190000Y-143810000D02*
G75*
G03*
X140890000Y-144510000I700000J0D01*
G01*
X143590000Y-144510000D02*
G75*
G03*
X144290000Y-143810000I0J700000D01*
G01*
X144290000Y-143210000D02*
G75*
G03*
X143590000Y-142510000I-700000J0D01*
G01*
D10*
X79804047Y-56586428D02*
X80565952Y-56586428D01*
X80185000Y-56967380D02*
X80185000Y-56205476D01*
X85804047Y-56586428D02*
X86565952Y-56586428D01*
D14*
X101631666Y-146246904D02*
X101631666Y-146818333D01*
X101669761Y-146932619D01*
X101745952Y-147008809D01*
X101860238Y-147046904D01*
X101936428Y-147046904D01*
X101250714Y-147046904D02*
X101250714Y-146246904D01*
X100945952Y-146246904D01*
X100869761Y-146285000D01*
X100831666Y-146323095D01*
X100793571Y-146399285D01*
X100793571Y-146513571D01*
X100831666Y-146589761D01*
X100869761Y-146627857D01*
X100945952Y-146665952D01*
X101250714Y-146665952D01*
X100031666Y-147046904D02*
X100488809Y-147046904D01*
X100260238Y-147046904D02*
X100260238Y-146246904D01*
X100336428Y-146361190D01*
X100412619Y-146437380D01*
X100488809Y-146475476D01*
X103079285Y-148316904D02*
X103079285Y-147516904D01*
X102774523Y-147516904D01*
X102698333Y-147555000D01*
X102660238Y-147593095D01*
X102622142Y-147669285D01*
X102622142Y-147783571D01*
X102660238Y-147859761D01*
X102698333Y-147897857D01*
X102774523Y-147935952D01*
X103079285Y-147935952D01*
X101860238Y-148316904D02*
X102317380Y-148316904D01*
X102088809Y-148316904D02*
X102088809Y-147516904D01*
X102165000Y-147631190D01*
X102241190Y-147707380D01*
X102317380Y-147745476D01*
X101707857Y-148393095D02*
X101098333Y-148393095D01*
X100488809Y-147555000D02*
X100565000Y-147516904D01*
X100679285Y-147516904D01*
X100793571Y-147555000D01*
X100869761Y-147631190D01*
X100907857Y-147707380D01*
X100945952Y-147859761D01*
X100945952Y-147974047D01*
X100907857Y-148126428D01*
X100869761Y-148202619D01*
X100793571Y-148278809D01*
X100679285Y-148316904D01*
X100603095Y-148316904D01*
X100488809Y-148278809D01*
X100450714Y-148240714D01*
X100450714Y-147974047D01*
X100603095Y-147974047D01*
X100107857Y-148316904D02*
X100107857Y-147516904D01*
X99650714Y-148316904D01*
X99650714Y-147516904D01*
X99269761Y-148316904D02*
X99269761Y-147516904D01*
X99079285Y-147516904D01*
X98965000Y-147555000D01*
X98888809Y-147631190D01*
X98850714Y-147707380D01*
X98812619Y-147859761D01*
X98812619Y-147974047D01*
X98850714Y-148126428D01*
X98888809Y-148202619D01*
X98965000Y-148278809D01*
X99079285Y-148316904D01*
X99269761Y-148316904D01*
X96551666Y-146246904D02*
X96551666Y-146818333D01*
X96589761Y-146932619D01*
X96665952Y-147008809D01*
X96780238Y-147046904D01*
X96856428Y-147046904D01*
X96170714Y-147046904D02*
X96170714Y-146246904D01*
X95865952Y-146246904D01*
X95789761Y-146285000D01*
X95751666Y-146323095D01*
X95713571Y-146399285D01*
X95713571Y-146513571D01*
X95751666Y-146589761D01*
X95789761Y-146627857D01*
X95865952Y-146665952D01*
X96170714Y-146665952D01*
X95408809Y-146323095D02*
X95370714Y-146285000D01*
X95294523Y-146246904D01*
X95104047Y-146246904D01*
X95027857Y-146285000D01*
X94989761Y-146323095D01*
X94951666Y-146399285D01*
X94951666Y-146475476D01*
X94989761Y-146589761D01*
X95446904Y-147046904D01*
X94951666Y-147046904D01*
X97923095Y-148316904D02*
X97923095Y-147516904D01*
X97618333Y-147516904D01*
X97542142Y-147555000D01*
X97504047Y-147593095D01*
X97465952Y-147669285D01*
X97465952Y-147783571D01*
X97504047Y-147859761D01*
X97542142Y-147897857D01*
X97618333Y-147935952D01*
X97923095Y-147935952D01*
X97161190Y-147593095D02*
X97123095Y-147555000D01*
X97046904Y-147516904D01*
X96856428Y-147516904D01*
X96780238Y-147555000D01*
X96742142Y-147593095D01*
X96704047Y-147669285D01*
X96704047Y-147745476D01*
X96742142Y-147859761D01*
X97199285Y-148316904D01*
X96704047Y-148316904D01*
X96551666Y-148393095D02*
X95942142Y-148393095D01*
X95865952Y-147516904D02*
X95599285Y-148316904D01*
X95332619Y-147516904D01*
X94608809Y-148240714D02*
X94646904Y-148278809D01*
X94761190Y-148316904D01*
X94837380Y-148316904D01*
X94951666Y-148278809D01*
X95027857Y-148202619D01*
X95065952Y-148126428D01*
X95104047Y-147974047D01*
X95104047Y-147859761D01*
X95065952Y-147707380D01*
X95027857Y-147631190D01*
X94951666Y-147555000D01*
X94837380Y-147516904D01*
X94761190Y-147516904D01*
X94646904Y-147555000D01*
X94608809Y-147593095D01*
X93808809Y-148240714D02*
X93846904Y-148278809D01*
X93961190Y-148316904D01*
X94037380Y-148316904D01*
X94151666Y-148278809D01*
X94227857Y-148202619D01*
X94265952Y-148126428D01*
X94304047Y-147974047D01*
X94304047Y-147859761D01*
X94265952Y-147707380D01*
X94227857Y-147631190D01*
X94151666Y-147555000D01*
X94037380Y-147516904D01*
X93961190Y-147516904D01*
X93846904Y-147555000D01*
X93808809Y-147593095D01*
X142936666Y-139896904D02*
X142936666Y-140468333D01*
X142974761Y-140582619D01*
X143050952Y-140658809D01*
X143165238Y-140696904D01*
X143241428Y-140696904D01*
X142555714Y-140696904D02*
X142555714Y-139896904D01*
X142250952Y-139896904D01*
X142174761Y-139935000D01*
X142136666Y-139973095D01*
X142098571Y-140049285D01*
X142098571Y-140163571D01*
X142136666Y-140239761D01*
X142174761Y-140277857D01*
X142250952Y-140315952D01*
X142555714Y-140315952D01*
X141831904Y-139896904D02*
X141336666Y-139896904D01*
X141603333Y-140201666D01*
X141489047Y-140201666D01*
X141412857Y-140239761D01*
X141374761Y-140277857D01*
X141336666Y-140354047D01*
X141336666Y-140544523D01*
X141374761Y-140620714D01*
X141412857Y-140658809D01*
X141489047Y-140696904D01*
X141717619Y-140696904D01*
X141793809Y-140658809D01*
X141831904Y-140620714D01*
X144678095Y-141928809D02*
X144563809Y-141966904D01*
X144373333Y-141966904D01*
X144297142Y-141928809D01*
X144259047Y-141890714D01*
X144220952Y-141814523D01*
X144220952Y-141738333D01*
X144259047Y-141662142D01*
X144297142Y-141624047D01*
X144373333Y-141585952D01*
X144525714Y-141547857D01*
X144601904Y-141509761D01*
X144640000Y-141471666D01*
X144678095Y-141395476D01*
X144678095Y-141319285D01*
X144640000Y-141243095D01*
X144601904Y-141205000D01*
X144525714Y-141166904D01*
X144335238Y-141166904D01*
X144220952Y-141205000D01*
X143954285Y-141166904D02*
X143763809Y-141966904D01*
X143611428Y-141395476D01*
X143459047Y-141966904D01*
X143268571Y-141166904D01*
X142620952Y-141433571D02*
X142620952Y-141966904D01*
X142811428Y-141128809D02*
X143001904Y-141700238D01*
X142506666Y-141700238D01*
X142392380Y-142043095D02*
X141782857Y-142043095D01*
X141630476Y-141928809D02*
X141516190Y-141966904D01*
X141325714Y-141966904D01*
X141249523Y-141928809D01*
X141211428Y-141890714D01*
X141173333Y-141814523D01*
X141173333Y-141738333D01*
X141211428Y-141662142D01*
X141249523Y-141624047D01*
X141325714Y-141585952D01*
X141478095Y-141547857D01*
X141554285Y-141509761D01*
X141592380Y-141471666D01*
X141630476Y-141395476D01*
X141630476Y-141319285D01*
X141592380Y-141243095D01*
X141554285Y-141205000D01*
X141478095Y-141166904D01*
X141287619Y-141166904D01*
X141173333Y-141205000D01*
X140830476Y-141547857D02*
X140563809Y-141547857D01*
X140449523Y-141966904D02*
X140830476Y-141966904D01*
X140830476Y-141166904D01*
X140449523Y-141166904D01*
X139725714Y-141966904D02*
X140106666Y-141966904D01*
X140106666Y-141166904D01*
M02*
