G04 #@! TF.GenerationSoftware,KiCad,Pcbnew,(5.1.8)-1*
G04 #@! TF.CreationDate,2023-02-02T03:17:37+01:00*
G04 #@! TF.ProjectId,BulkyMIDI-32 Internal,42756c6b-794d-4494-9449-2d333220496e,rev?*
G04 #@! TF.SameCoordinates,Original*
G04 #@! TF.FileFunction,Copper,L1,Top*
G04 #@! TF.FilePolarity,Positive*
%FSLAX46Y46*%
G04 Gerber Fmt 4.6, Leading zero omitted, Abs format (unit mm)*
G04 Created by KiCad (PCBNEW (5.1.8)-1) date 2023-02-02 03:17:37*
%MOMM*%
%LPD*%
G01*
G04 APERTURE LIST*
G04 #@! TA.AperFunction,ComponentPad*
%ADD10O,1.600000X1.600000*%
G04 #@! TD*
G04 #@! TA.AperFunction,ComponentPad*
%ADD11C,1.600000*%
G04 #@! TD*
G04 #@! TA.AperFunction,SMDPad,CuDef*
%ADD12O,1.500000X1.500000*%
G04 #@! TD*
G04 #@! TA.AperFunction,SMDPad,CuDef*
%ADD13R,1.500000X1.500000*%
G04 #@! TD*
G04 #@! TA.AperFunction,ComponentPad*
%ADD14O,1.700000X1.700000*%
G04 #@! TD*
G04 #@! TA.AperFunction,ComponentPad*
%ADD15R,1.700000X1.700000*%
G04 #@! TD*
G04 #@! TA.AperFunction,WasherPad*
%ADD16C,3.500000*%
G04 #@! TD*
G04 #@! TA.AperFunction,ComponentPad*
%ADD17C,1.700000*%
G04 #@! TD*
G04 #@! TA.AperFunction,ComponentPad*
%ADD18C,1.524000*%
G04 #@! TD*
G04 #@! TA.AperFunction,ComponentPad*
%ADD19C,3.500000*%
G04 #@! TD*
G04 #@! TA.AperFunction,ComponentPad*
%ADD20R,2.200000X1.740000*%
G04 #@! TD*
G04 #@! TA.AperFunction,ComponentPad*
%ADD21O,2.200000X1.740000*%
G04 #@! TD*
G04 #@! TA.AperFunction,ComponentPad*
%ADD22R,1.600000X1.600000*%
G04 #@! TD*
G04 #@! TA.AperFunction,SMDPad,CuDef*
%ADD23R,3.000000X4.400000*%
G04 #@! TD*
G04 #@! TA.AperFunction,SMDPad,CuDef*
%ADD24R,4.400000X3.000000*%
G04 #@! TD*
G04 #@! TA.AperFunction,ComponentPad*
%ADD25R,2.500000X3.500000*%
G04 #@! TD*
G04 #@! TA.AperFunction,ComponentPad*
%ADD26O,3.500000X1.750000*%
G04 #@! TD*
G04 #@! TA.AperFunction,ComponentPad*
%ADD27C,1.500000*%
G04 #@! TD*
G04 #@! TA.AperFunction,ComponentPad*
%ADD28R,1.500000X1.500000*%
G04 #@! TD*
G04 #@! TA.AperFunction,ComponentPad*
%ADD29R,1.600000X2.400000*%
G04 #@! TD*
G04 #@! TA.AperFunction,ComponentPad*
%ADD30O,1.600000X2.400000*%
G04 #@! TD*
G04 #@! TA.AperFunction,ViaPad*
%ADD31C,0.800000*%
G04 #@! TD*
G04 #@! TA.AperFunction,Conductor*
%ADD32C,0.381000*%
G04 #@! TD*
G04 #@! TA.AperFunction,Conductor*
%ADD33C,0.250000*%
G04 #@! TD*
G04 APERTURE END LIST*
D10*
X155060000Y-86019000D03*
D11*
X144900000Y-86019000D03*
D10*
X167125000Y-61254000D03*
D11*
X156965000Y-61254000D03*
D10*
X158870000Y-115864000D03*
D11*
X158870000Y-105704000D03*
D12*
X132835000Y-92369000D03*
X132835000Y-94274000D03*
D13*
X134740000Y-92369000D03*
X134740000Y-94274000D03*
D12*
X183635000Y-77129000D03*
X183635000Y-79034000D03*
D13*
X185540000Y-77129000D03*
X185540000Y-79034000D03*
D12*
X132835000Y-114594000D03*
X132835000Y-116499000D03*
D13*
X134740000Y-114594000D03*
X134740000Y-116499000D03*
D14*
X123310000Y-92369000D03*
X125850000Y-89829000D03*
X125850000Y-105069000D03*
X123310000Y-105069000D03*
X123310000Y-89829000D03*
X125850000Y-92369000D03*
X123310000Y-87289000D03*
D15*
X125850000Y-87289000D03*
D14*
X125850000Y-115229000D03*
X123310000Y-115229000D03*
X125850000Y-99989000D03*
X123310000Y-99989000D03*
X125850000Y-120309000D03*
X123310000Y-120309000D03*
X125850000Y-102529000D03*
X123310000Y-102529000D03*
X125850000Y-97449000D03*
X123310000Y-97449000D03*
X125850000Y-110149000D03*
X123310000Y-110149000D03*
X125850000Y-133009000D03*
X123310000Y-133009000D03*
X125850000Y-127929000D03*
X123310000Y-127929000D03*
X125850000Y-130469000D03*
X123310000Y-130469000D03*
X125850000Y-107609000D03*
X123310000Y-107609000D03*
X125850000Y-125389000D03*
X123310000Y-125389000D03*
X125850000Y-94909000D03*
X123310000Y-94909000D03*
X125850000Y-122849000D03*
X123310000Y-122849000D03*
X125850000Y-112689000D03*
X123310000Y-112689000D03*
X125850000Y-117769000D03*
X123310000Y-117769000D03*
X125850000Y-135549000D03*
X123310000Y-135549000D03*
D16*
X173580000Y-140419000D03*
X173580000Y-82419000D03*
D10*
X162680000Y-105704000D03*
D11*
X162680000Y-115864000D03*
D10*
X175380000Y-121579000D03*
D11*
X165220000Y-121579000D03*
D10*
X139185000Y-72684000D03*
D11*
X139185000Y-62524000D03*
D10*
X130295000Y-76865000D03*
D11*
X120135000Y-76865000D03*
D10*
X129660000Y-105704000D03*
D11*
X129660000Y-95544000D03*
D10*
X155060000Y-115864000D03*
D11*
X155060000Y-105704000D03*
D17*
X199510000Y-131439000D03*
X196970000Y-131439000D03*
X194430000Y-131439000D03*
X191890000Y-131439000D03*
X189350000Y-131439000D03*
X186810000Y-131439000D03*
X186175000Y-104769000D03*
X186175000Y-107309000D03*
X186175000Y-109849000D03*
X186175000Y-112389000D03*
X186175000Y-114929000D03*
X186175000Y-117469000D03*
X186175000Y-120009000D03*
X186175000Y-122549000D03*
X186175000Y-125089000D03*
D18*
X117391800Y-137825000D03*
X117391800Y-135285000D03*
X117391800Y-132745000D03*
X117391800Y-130205000D03*
X117391800Y-127665000D03*
X117391800Y-125125000D03*
X117391800Y-122585000D03*
X117391800Y-120045000D03*
X117391800Y-117505000D03*
D14*
X117391800Y-84485000D03*
X117391800Y-81945000D03*
X117391800Y-79405000D03*
X117391800Y-76865000D03*
X117391800Y-74325000D03*
D15*
X117391800Y-64165000D03*
D14*
X117391800Y-66705000D03*
X117391800Y-69245000D03*
X117391800Y-71785000D03*
D19*
X116960000Y-60100000D03*
X116960000Y-142000000D03*
X193600000Y-146000000D03*
X193600000Y-56100000D03*
D20*
X191001000Y-68874000D03*
D21*
X191001000Y-66334000D03*
X191001000Y-63794000D03*
X191001000Y-61254000D03*
D11*
X130295000Y-62524000D03*
X135295000Y-62524000D03*
X188715000Y-134914000D03*
X188715000Y-139914000D03*
D22*
X193795000Y-136184000D03*
D11*
X193795000Y-138684000D03*
D22*
X183635000Y-61254000D03*
D11*
X183635000Y-64754000D03*
D22*
X126485000Y-73319000D03*
D10*
X126485000Y-65699000D03*
D14*
X191890000Y-96814000D03*
X191890000Y-94274000D03*
X191890000Y-91734000D03*
D15*
X191890000Y-89194000D03*
D23*
X110000400Y-54284400D03*
X115004200Y-147807200D03*
X110000400Y-147807200D03*
D24*
X103802800Y-148493000D03*
D23*
X115004200Y-54284400D03*
D24*
X199408400Y-53624000D03*
X199408400Y-148493000D03*
X103802800Y-53624000D03*
D15*
X181730000Y-112689000D03*
D14*
X181730000Y-115229000D03*
X181730000Y-117769000D03*
X181730000Y-120309000D03*
X181730000Y-122849000D03*
X181730000Y-125389000D03*
D25*
X106353001Y-94335000D03*
D26*
X111359001Y-89335000D03*
X111359001Y-99335000D03*
X111359001Y-91835000D03*
X111359001Y-96835000D03*
X191840999Y-75264000D03*
X191840999Y-80264000D03*
X191840999Y-72764000D03*
X191840999Y-82764000D03*
D25*
X196846999Y-77764000D03*
X106353001Y-107675000D03*
D26*
X111359001Y-102675000D03*
X111359001Y-112675000D03*
X111359001Y-105175000D03*
X111359001Y-110175000D03*
D11*
X158870000Y-66969000D03*
X158870000Y-71969000D03*
D15*
X181730000Y-96814000D03*
D14*
X181730000Y-99354000D03*
X181730000Y-101894000D03*
X181730000Y-104434000D03*
D22*
X167125000Y-54904000D03*
D11*
X167125000Y-56904000D03*
X148790000Y-62524000D03*
X153790000Y-62524000D03*
X142995000Y-71969000D03*
X142995000Y-66969000D03*
D27*
X159505000Y-56809000D03*
X162045000Y-56809000D03*
D28*
X156965000Y-56809000D03*
D29*
X146170000Y-73319000D03*
D30*
X153790000Y-65699000D03*
X148710000Y-73319000D03*
X151250000Y-65699000D03*
X151250000Y-73319000D03*
X148710000Y-65699000D03*
X153790000Y-73319000D03*
X146170000Y-65699000D03*
D29*
X130295000Y-73319000D03*
D30*
X135375000Y-65699000D03*
X132835000Y-73319000D03*
X132835000Y-65699000D03*
X135375000Y-73319000D03*
X130295000Y-65699000D03*
D29*
X162045000Y-73319000D03*
D30*
X177285000Y-65699000D03*
X164585000Y-73319000D03*
X174745000Y-65699000D03*
X167125000Y-73319000D03*
X172205000Y-65699000D03*
X169665000Y-73319000D03*
X169665000Y-65699000D03*
X172205000Y-73319000D03*
X167125000Y-65699000D03*
X174745000Y-73319000D03*
X164585000Y-65699000D03*
X177285000Y-73319000D03*
X162045000Y-65699000D03*
D31*
X123310000Y-84749000D03*
X124580000Y-61889000D03*
X122519500Y-63159000D03*
X113695000Y-126659000D03*
X120135000Y-103074000D03*
X120680000Y-108244000D03*
X121405000Y-106973978D03*
X129025000Y-98719000D03*
X139185000Y-79214010D03*
X129025000Y-101259000D03*
X180550000Y-93004000D03*
X178465000Y-93639000D03*
X125370500Y-71414000D03*
X121405000Y-71414000D03*
X181820000Y-79034000D03*
X125370500Y-78399000D03*
X158235000Y-78489010D03*
X147439994Y-78489010D03*
X177830000Y-78489010D03*
X127755000Y-70689000D03*
X184360000Y-75224000D03*
X146170000Y-77640164D03*
X157690010Y-77640164D03*
X177178716Y-77640164D03*
X130450500Y-93094000D03*
X122519518Y-83479000D03*
X122519518Y-82209000D03*
X132200000Y-90554000D03*
X128545500Y-91099000D03*
X128545500Y-92369000D03*
X127755000Y-112054000D03*
X129205001Y-113959000D03*
X148710000Y-69509000D03*
D32*
X196076000Y-53624000D02*
X193600000Y-56100000D01*
X199408400Y-53624000D02*
X196076000Y-53624000D01*
X115004200Y-147807200D02*
X110000400Y-147807200D01*
X115004200Y-54284400D02*
X110000400Y-54284400D01*
X107729800Y-147807200D02*
X107044000Y-148493000D01*
X110000400Y-147807200D02*
X107729800Y-147807200D01*
X103802800Y-148493000D02*
X107044000Y-148493000D01*
X103802800Y-53624000D02*
X106790000Y-53624000D01*
X107450400Y-54284400D02*
X110000400Y-54284400D01*
X106790000Y-53624000D02*
X107450400Y-54284400D01*
X196915400Y-146000000D02*
X199408400Y-148493000D01*
X193600000Y-146000000D02*
X196915400Y-146000000D01*
X115004200Y-143955800D02*
X116960000Y-142000000D01*
X115004200Y-147807200D02*
X115004200Y-143955800D01*
X115004200Y-58144200D02*
X116960000Y-60100000D01*
X115004200Y-54284400D02*
X115004200Y-58144200D01*
X123310000Y-89829000D02*
X123310000Y-87289000D01*
X183635000Y-61254000D02*
X191001000Y-61254000D01*
X199510000Y-61889000D02*
X198875000Y-61254000D01*
X198875000Y-61254000D02*
X191001000Y-61254000D01*
X199510000Y-127294000D02*
X199510000Y-61889000D01*
X199510000Y-131439000D02*
X199510000Y-127294000D01*
X162045000Y-65699000D02*
X158870000Y-65699000D01*
X158870000Y-66969000D02*
X158870000Y-65699000D01*
X199510000Y-133644000D02*
X199510000Y-131439000D01*
X198240000Y-134914000D02*
X199510000Y-133644000D01*
X193795000Y-136184000D02*
X193795000Y-134914000D01*
X193795000Y-134914000D02*
X198240000Y-134914000D01*
X188715000Y-134914000D02*
X193795000Y-134914000D01*
X166490000Y-127929000D02*
X198875000Y-127929000D01*
X165220000Y-126659000D02*
X166490000Y-127929000D01*
X198875000Y-127929000D02*
X199510000Y-127294000D01*
X165220000Y-121579000D02*
X165220000Y-126659000D01*
X123310000Y-84749000D02*
X123310000Y-87289000D01*
X125215000Y-59349000D02*
X123310018Y-61253982D01*
X137915000Y-60619000D02*
X136645000Y-59349000D01*
X136645000Y-59349000D02*
X125215000Y-59349000D01*
X123310018Y-61253982D02*
X123310018Y-84183297D01*
X123310018Y-84183297D02*
X123310000Y-84183315D01*
X123310000Y-84183315D02*
X123310000Y-84749000D01*
X143630000Y-60619000D02*
X137915000Y-60619000D01*
X158870000Y-65699000D02*
X158870000Y-63794000D01*
X176015000Y-61254000D02*
X180460000Y-61254000D01*
X167125000Y-61254000D02*
X176015000Y-61254000D01*
X161410000Y-61254000D02*
X158870000Y-63794000D01*
X167125000Y-61254000D02*
X161410000Y-61254000D01*
X143630000Y-60619000D02*
X146170000Y-60619000D01*
X146170000Y-60619000D02*
X153790000Y-52999000D01*
X153790000Y-52999000D02*
X179825000Y-52999000D01*
X181095000Y-54269000D02*
X181095000Y-61254000D01*
X179825000Y-52999000D02*
X181095000Y-54269000D01*
X181095000Y-61254000D02*
X180460000Y-61254000D01*
X183635000Y-61254000D02*
X181095000Y-61254000D01*
X146170000Y-65699000D02*
X146170000Y-60619000D01*
X144265000Y-65699000D02*
X142995000Y-66969000D01*
X146170000Y-65699000D02*
X144265000Y-65699000D01*
X155060000Y-77129000D02*
X153790000Y-75859000D01*
X155060000Y-86019000D02*
X155060000Y-77129000D01*
X153790000Y-73319000D02*
X153790000Y-75859000D01*
D33*
X188715000Y-129834000D02*
X189350000Y-130469000D01*
X134740000Y-129834000D02*
X188715000Y-129834000D01*
X189350000Y-130469000D02*
X189350000Y-131439000D01*
X114420000Y-136184000D02*
X114801000Y-136565000D01*
X114420000Y-115229000D02*
X114420000Y-136184000D01*
X114801000Y-136565000D02*
X119246000Y-136565000D01*
X118865000Y-110784000D02*
X114420000Y-115229000D01*
X118865000Y-100624000D02*
X118865000Y-110784000D01*
X119246000Y-136565000D02*
X120135000Y-137454000D01*
X119500000Y-99989000D02*
X118865000Y-100624000D01*
X127120000Y-137454000D02*
X134740000Y-129834000D01*
X120135000Y-137454000D02*
X127120000Y-137454000D01*
X123310000Y-99989000D02*
X119500000Y-99989000D01*
X124580000Y-134279000D02*
X123310000Y-135549000D01*
X129025000Y-134279000D02*
X124580000Y-134279000D01*
X134105000Y-129199000D02*
X129025000Y-134279000D01*
X191255000Y-129199000D02*
X134105000Y-129199000D01*
X191890000Y-129834000D02*
X191255000Y-129199000D01*
X191890000Y-131439000D02*
X191890000Y-129834000D01*
X194430000Y-129199000D02*
X194430000Y-131439000D01*
X193795000Y-128564000D02*
X194430000Y-129199000D01*
X133470000Y-128564000D02*
X193795000Y-128564000D01*
X131565000Y-130469000D02*
X133470000Y-128564000D01*
X125850000Y-130469000D02*
X131565000Y-130469000D01*
D32*
X125850000Y-107609000D02*
X127120000Y-107609000D01*
X127120000Y-107609000D02*
X127755000Y-106974000D01*
X127755000Y-87924000D02*
X127120000Y-87289000D01*
X127120000Y-87289000D02*
X125850000Y-87289000D01*
X130295000Y-61254000D02*
X130295000Y-62524000D01*
X130295000Y-61254000D02*
X129660000Y-60619000D01*
X130930000Y-60619000D02*
X129660000Y-60619000D01*
X137915000Y-62524000D02*
X136010000Y-60619000D01*
X139185000Y-62524000D02*
X137915000Y-62524000D01*
X136010000Y-60619000D02*
X130930000Y-60619000D01*
X125850000Y-86019000D02*
X125850000Y-87289000D01*
X124580000Y-84749000D02*
X125850000Y-86019000D01*
X124580000Y-61889000D02*
X124580000Y-84749000D01*
X125850000Y-60619000D02*
X124580000Y-61889000D01*
X129660000Y-60619000D02*
X125850000Y-60619000D01*
X130295000Y-62524000D02*
X130295000Y-65699000D01*
X127755000Y-106974000D02*
X127755000Y-102529000D01*
X127755000Y-102529000D02*
X127755000Y-87924000D01*
X121513500Y-64165000D02*
X122519500Y-63159000D01*
X117391800Y-64165000D02*
X121513500Y-64165000D01*
X184270000Y-106339000D02*
X184270000Y-99354000D01*
X181730000Y-108879000D02*
X184270000Y-106339000D01*
X153790000Y-108879000D02*
X181730000Y-108879000D01*
X148075000Y-103164000D02*
X153790000Y-108879000D01*
X128390000Y-103164000D02*
X148075000Y-103164000D01*
X184270000Y-99354000D02*
X181730000Y-96814000D01*
X127755000Y-102529000D02*
X128390000Y-103164000D01*
D33*
X130295000Y-76865000D02*
X130295000Y-73319000D01*
X126485000Y-73319000D02*
X130295000Y-73319000D01*
X116589000Y-81945000D02*
X117391800Y-81945000D01*
X115690000Y-82844000D02*
X116589000Y-81945000D01*
X115690000Y-93004000D02*
X115690000Y-82844000D01*
X116325000Y-93639000D02*
X115690000Y-93004000D01*
X124580000Y-93639000D02*
X116325000Y-93639000D01*
X125850000Y-92369000D02*
X124580000Y-93639000D01*
X117391800Y-90260800D02*
X117391800Y-84485000D01*
X124580000Y-91099000D02*
X118230000Y-91099000D01*
X118230000Y-91099000D02*
X117391800Y-90260800D01*
X125850000Y-89829000D02*
X124580000Y-91099000D01*
X124580000Y-96179000D02*
X125850000Y-94909000D01*
X118865000Y-96179000D02*
X124580000Y-96179000D01*
X118230000Y-96814000D02*
X118865000Y-96179000D01*
X118230000Y-110149000D02*
X118230000Y-96814000D01*
X113695000Y-114684000D02*
X118230000Y-110149000D01*
X113695000Y-126659000D02*
X113695000Y-114684000D01*
X118865000Y-114594000D02*
X120679999Y-112779001D01*
X118865000Y-121579000D02*
X118865000Y-114594000D01*
X117859000Y-122585000D02*
X118865000Y-121579000D01*
X117391800Y-122585000D02*
X117859000Y-122585000D01*
X120679999Y-108153999D02*
X120679999Y-108243999D01*
X120679999Y-108243999D02*
X120680000Y-108244000D01*
X120679999Y-112779001D02*
X120679999Y-108153999D01*
X120135000Y-101849000D02*
X120135000Y-103074000D01*
X120725000Y-101259000D02*
X120135000Y-101849000D01*
X124580000Y-101259000D02*
X120725000Y-101259000D01*
X125850000Y-99989000D02*
X124580000Y-101259000D01*
X121405000Y-113324000D02*
X121405000Y-106973978D01*
X119583900Y-115145100D02*
X121405000Y-113324000D01*
X119583900Y-124119000D02*
X119583900Y-115145100D01*
X118577900Y-125125000D02*
X119583900Y-124119000D01*
X117391800Y-125125000D02*
X118577900Y-125125000D01*
X120770000Y-105069000D02*
X123310000Y-105069000D01*
X119954998Y-105884002D02*
X120770000Y-105069000D01*
X119954998Y-112234002D02*
X119954998Y-105884002D01*
X115690000Y-116499000D02*
X119954998Y-112234002D01*
X115690000Y-129834000D02*
X115690000Y-116499000D01*
X116061000Y-130205000D02*
X115690000Y-129834000D01*
X117391800Y-130205000D02*
X116061000Y-130205000D01*
X115055000Y-132374000D02*
X115426000Y-132745000D01*
X119500000Y-111419000D02*
X115055000Y-115864000D01*
X119500000Y-104434000D02*
X119500000Y-111419000D01*
X120135000Y-103799000D02*
X119500000Y-104434000D01*
X115426000Y-132745000D02*
X117391800Y-132745000D01*
X115055000Y-115864000D02*
X115055000Y-132374000D01*
X124580000Y-103799000D02*
X120135000Y-103799000D01*
X125850000Y-105069000D02*
X124580000Y-103799000D01*
X165855000Y-115864000D02*
X162680000Y-115864000D01*
X167125000Y-117134000D02*
X165855000Y-115864000D01*
X167125000Y-122214000D02*
X167125000Y-117134000D01*
X168395000Y-123484000D02*
X167125000Y-122214000D01*
X177285000Y-123484000D02*
X168395000Y-123484000D01*
X177920000Y-122849000D02*
X177285000Y-123484000D01*
X181730000Y-122849000D02*
X177920000Y-122849000D01*
X176650000Y-120309000D02*
X181730000Y-120309000D01*
X175380000Y-121579000D02*
X176650000Y-120309000D01*
D32*
X190920000Y-109849000D02*
X186175000Y-109849000D01*
X191890000Y-108879000D02*
X190920000Y-109849000D01*
X191890000Y-96814000D02*
X191890000Y-108879000D01*
X188715000Y-103799000D02*
X187745000Y-104769000D01*
X188715000Y-89829000D02*
X188715000Y-103799000D01*
X189350000Y-89194000D02*
X188715000Y-89829000D01*
X187745000Y-104769000D02*
X186175000Y-104769000D01*
X191890000Y-89194000D02*
X189350000Y-89194000D01*
D33*
X135375000Y-65699000D02*
X138550000Y-65699000D01*
X138550000Y-65699000D02*
X139185000Y-66334000D01*
X138550000Y-98719000D02*
X129025000Y-98719000D01*
X139185000Y-98084000D02*
X138550000Y-98719000D01*
X180460000Y-99354000D02*
X181730000Y-99354000D01*
X179825000Y-75859000D02*
X179825000Y-98719000D01*
X179825000Y-98719000D02*
X180460000Y-99354000D01*
X179190000Y-75224000D02*
X179825000Y-75859000D01*
X172205000Y-74589000D02*
X172840000Y-75224000D01*
X172205000Y-73319000D02*
X172205000Y-74589000D01*
X139185000Y-66334000D02*
X139185000Y-68874000D01*
X172840000Y-75224000D02*
X179190000Y-75224000D01*
X139185000Y-69509000D02*
X139185000Y-72684000D01*
X139185000Y-68874000D02*
X139185000Y-69509000D01*
X172205000Y-70779000D02*
X172205000Y-72187630D01*
X171660002Y-70234002D02*
X172205000Y-70779000D01*
X139910002Y-70234002D02*
X171660002Y-70234002D01*
X172205000Y-72187630D02*
X172205000Y-73319000D01*
X139185000Y-69509000D02*
X139910002Y-70234002D01*
X139185000Y-80939000D02*
X139185000Y-98084000D01*
X139185000Y-80939000D02*
X139185000Y-79214010D01*
X181730000Y-101894000D02*
X179825000Y-101894000D01*
X179825000Y-101894000D02*
X179190000Y-101259000D01*
X179190000Y-101259000D02*
X179190000Y-76494000D01*
X179190000Y-76494000D02*
X178555000Y-75859000D01*
X171570000Y-75859000D02*
X170935000Y-75224000D01*
X170935000Y-75224000D02*
X170935000Y-72049000D01*
X170935000Y-72049000D02*
X170300000Y-71414000D01*
X170300000Y-71414000D02*
X162680000Y-71414000D01*
X162045000Y-72049000D02*
X162045000Y-73319000D01*
X162680000Y-71414000D02*
X162045000Y-72049000D01*
X178555000Y-75859000D02*
X171570000Y-75859000D01*
X160995000Y-73319000D02*
X162045000Y-73319000D01*
X159505000Y-73319000D02*
X160995000Y-73319000D01*
X156965000Y-75859000D02*
X159505000Y-73319000D01*
X156965000Y-106974000D02*
X156965000Y-75859000D01*
X156330000Y-107609000D02*
X156965000Y-106974000D01*
X154425000Y-107609000D02*
X156330000Y-107609000D01*
X129025000Y-101259000D02*
X148075000Y-101259000D01*
X148075000Y-101259000D02*
X154425000Y-107609000D01*
X177739999Y-104614001D02*
X176650000Y-105704000D01*
X178555000Y-91734000D02*
X177739999Y-92549001D01*
X170935000Y-76494000D02*
X177920000Y-76494000D01*
X177920000Y-76494000D02*
X178555000Y-77129000D01*
X169665000Y-75224000D02*
X170935000Y-76494000D01*
X169665000Y-73319000D02*
X169665000Y-75224000D01*
X177739999Y-92549001D02*
X177739999Y-104614001D01*
X178555000Y-77129000D02*
X178555000Y-91734000D01*
X176650000Y-105704000D02*
X162680000Y-105704000D01*
X178465000Y-93639000D02*
X178465000Y-97994000D01*
X158870000Y-105704000D02*
X158870000Y-106974000D01*
X158870000Y-106974000D02*
X159505000Y-107609000D01*
X159505000Y-107609000D02*
X177285000Y-107609000D01*
X178465000Y-106429000D02*
X178465000Y-97994000D01*
X177285000Y-107609000D02*
X178465000Y-106429000D01*
X181095000Y-92459000D02*
X180550000Y-93004000D01*
X181095000Y-70779000D02*
X181095000Y-92459000D01*
X177285000Y-65699000D02*
X178555000Y-65699000D01*
X178555000Y-65699000D02*
X181095000Y-68239000D01*
X181095000Y-68239000D02*
X181095000Y-70779000D01*
X164585000Y-73319000D02*
X167125000Y-73319000D01*
D32*
X185240000Y-112389000D02*
X186175000Y-112389000D01*
X184270000Y-111419000D02*
X185240000Y-112389000D01*
X185205000Y-107309000D02*
X184270000Y-108244000D01*
X184270000Y-108244000D02*
X184270000Y-111419000D01*
X186175000Y-107309000D02*
X185205000Y-107309000D01*
X191890000Y-94274000D02*
X190620000Y-94274000D01*
X190620000Y-94274000D02*
X189985000Y-94909000D01*
X189985000Y-94909000D02*
X189985000Y-106339000D01*
X189015000Y-107309000D02*
X186175000Y-107309000D01*
X189985000Y-106339000D02*
X189015000Y-107309000D01*
X189985000Y-94909000D02*
X189985000Y-92369000D01*
X190620000Y-91734000D02*
X191890000Y-91734000D01*
X189985000Y-92369000D02*
X190620000Y-91734000D01*
D33*
X126485000Y-65699000D02*
X126485000Y-70779000D01*
X126485000Y-70779000D02*
X127120000Y-71414000D01*
X127120000Y-71414000D02*
X132200000Y-71414000D01*
X132835000Y-72049000D02*
X132835000Y-73319000D01*
X132200000Y-71414000D02*
X132835000Y-72049000D01*
X127120000Y-71414000D02*
X125370500Y-71414000D01*
X119764000Y-71785000D02*
X120135000Y-71414000D01*
X117391800Y-71785000D02*
X119764000Y-71785000D01*
X121405000Y-71414000D02*
X120135000Y-71414000D01*
X117391800Y-79405000D02*
X119129000Y-79405000D01*
X120135000Y-78399000D02*
X120135000Y-76865000D01*
X119129000Y-79405000D02*
X120135000Y-78399000D01*
X183635000Y-79034000D02*
X181820000Y-79034000D01*
X125460510Y-78489010D02*
X147439994Y-78489010D01*
X125370500Y-78399000D02*
X125460510Y-78489010D01*
X158235000Y-78489010D02*
X177830000Y-78489010D01*
X185540000Y-77129000D02*
X185540000Y-75859000D01*
X184905000Y-75224000D02*
X184360000Y-75224000D01*
X185540000Y-75859000D02*
X184905000Y-75224000D01*
X135478151Y-70689000D02*
X137376575Y-72587425D01*
X127755000Y-70689000D02*
X135478151Y-70689000D01*
X137984314Y-77640164D02*
X137376575Y-77032425D01*
X146170000Y-77640164D02*
X137984314Y-77640164D01*
X137376575Y-72587425D02*
X137376575Y-77032425D01*
X177178716Y-77640164D02*
X157690010Y-77640164D01*
X129660000Y-106974000D02*
X129660000Y-105704000D01*
X128480001Y-108153999D02*
X129660000Y-106974000D01*
X128480001Y-115319001D02*
X128480001Y-108153999D01*
X129660000Y-116499000D02*
X128480001Y-115319001D01*
X132835000Y-116499000D02*
X129660000Y-116499000D01*
X136010000Y-113324000D02*
X134740000Y-114594000D01*
X157600000Y-113324000D02*
X136010000Y-113324000D01*
X158870000Y-114594000D02*
X157600000Y-113324000D01*
X158870000Y-115864000D02*
X158870000Y-114594000D01*
X117391800Y-74325000D02*
X121141000Y-74325000D01*
X121794517Y-74978517D02*
X121794517Y-79578999D01*
X121141000Y-74325000D02*
X121794517Y-74978517D01*
X131630500Y-94274000D02*
X130450500Y-93094000D01*
X132835000Y-94274000D02*
X131630500Y-94274000D01*
X121794517Y-82753999D02*
X122519518Y-83479000D01*
X121794517Y-79578999D02*
X121794517Y-82753999D01*
X122519518Y-67448518D02*
X122519518Y-79034000D01*
X121776000Y-66705000D02*
X122519518Y-67448518D01*
X117391800Y-66705000D02*
X121776000Y-66705000D01*
X122519518Y-79034000D02*
X122519518Y-82209000D01*
X134740000Y-91099000D02*
X134740000Y-92369000D01*
X134195000Y-90554000D02*
X134740000Y-91099000D01*
X132200000Y-90554000D02*
X134195000Y-90554000D01*
X136010000Y-94274000D02*
X134740000Y-94274000D01*
X136645000Y-91099000D02*
X136645000Y-93639000D01*
X135375000Y-89829000D02*
X136645000Y-91099000D01*
X129815500Y-89829000D02*
X135375000Y-89829000D01*
X136645000Y-93639000D02*
X136010000Y-94274000D01*
X128545500Y-91099000D02*
X129815500Y-89829000D01*
X128545500Y-92369000D02*
X132835000Y-92369000D01*
X189270000Y-72764000D02*
X191840999Y-72764000D01*
X184190000Y-72764000D02*
X189270000Y-72764000D01*
X183635000Y-73319000D02*
X184190000Y-72764000D01*
X183635000Y-77129000D02*
X183635000Y-73319000D01*
X189270000Y-82764000D02*
X191840999Y-82764000D01*
X188715000Y-82209000D02*
X189270000Y-82764000D01*
X188715000Y-79669000D02*
X188715000Y-82209000D01*
X188080000Y-79034000D02*
X188715000Y-79669000D01*
X185540000Y-79034000D02*
X188080000Y-79034000D01*
X127755000Y-117134000D02*
X127755000Y-112054000D01*
X129025000Y-118404000D02*
X127755000Y-117134000D01*
X134105000Y-118404000D02*
X129025000Y-118404000D01*
X134740000Y-117769000D02*
X134105000Y-118404000D01*
X134740000Y-116499000D02*
X134740000Y-117769000D01*
X129840001Y-114594000D02*
X132835000Y-114594000D01*
X129205001Y-113959000D02*
X129840001Y-114594000D01*
X148710000Y-65699000D02*
X151250000Y-65699000D01*
X156965000Y-58714000D02*
X163315000Y-58714000D01*
X156965000Y-56174000D02*
X156965000Y-58714000D01*
X156965000Y-58714000D02*
X156965000Y-61254000D01*
X163315000Y-58714000D02*
X163950000Y-58079000D01*
X163950000Y-55539000D02*
X164585000Y-54904000D01*
X163950000Y-58079000D02*
X163950000Y-55539000D01*
X167125000Y-54904000D02*
X164585000Y-54904000D01*
X151885000Y-67604000D02*
X151250000Y-66969000D01*
X151250000Y-66969000D02*
X151250000Y-65699000D01*
X156330000Y-67604000D02*
X151885000Y-67604000D01*
X156965000Y-66969000D02*
X156330000Y-67604000D01*
X156965000Y-61254000D02*
X156965000Y-66969000D01*
X153790000Y-65699000D02*
X153790000Y-62524000D01*
X155060000Y-117769000D02*
X155060000Y-115864000D01*
X153790000Y-127929000D02*
X155060000Y-126659000D01*
X132835000Y-127929000D02*
X153790000Y-127929000D01*
X131565000Y-129199000D02*
X132835000Y-127929000D01*
X155060000Y-126659000D02*
X155060000Y-117769000D01*
X122040000Y-129199000D02*
X131565000Y-129199000D01*
X121405000Y-129834000D02*
X122040000Y-129199000D01*
X121405000Y-134279000D02*
X121405000Y-129834000D01*
X120399000Y-135285000D02*
X121405000Y-134279000D01*
X117391800Y-135285000D02*
X120399000Y-135285000D01*
X145699999Y-85219001D02*
X144900000Y-86019000D01*
X148710000Y-82209000D02*
X145699999Y-85219001D01*
X148710000Y-73319000D02*
X148710000Y-82209000D01*
X147440000Y-68239000D02*
X148710000Y-69509000D01*
X147440000Y-61254000D02*
X147440000Y-68239000D01*
X153790000Y-54904000D02*
X147440000Y-61254000D01*
X157600000Y-54904000D02*
X153790000Y-54904000D01*
X159505000Y-56809000D02*
X157600000Y-54904000D01*
X166490000Y-69509000D02*
X148710000Y-69509000D01*
X168395000Y-67604000D02*
X166490000Y-69509000D01*
X169030000Y-63794000D02*
X168395000Y-64429000D01*
X171570000Y-63794000D02*
X169030000Y-63794000D01*
X168395000Y-64429000D02*
X168395000Y-67604000D01*
X172205000Y-64429000D02*
X171570000Y-63794000D01*
X172205000Y-65699000D02*
X172205000Y-64429000D01*
X151250000Y-101894000D02*
X155060000Y-105704000D01*
X151250000Y-73319000D02*
X151250000Y-101894000D01*
X169665000Y-65699000D02*
X169665000Y-66969000D01*
X169665000Y-66969000D02*
X170300000Y-67604000D01*
X174745000Y-67604000D02*
X174745000Y-65699000D01*
X170300000Y-67604000D02*
X174745000Y-67604000D01*
X174745000Y-73319000D02*
X174745000Y-67604000D01*
M02*
