G04 #@! TF.GenerationSoftware,KiCad,Pcbnew,(5.1.8)-1*
G04 #@! TF.CreationDate,2023-02-02T03:17:37+01:00*
G04 #@! TF.ProjectId,BulkyMIDI-32 Internal,42756c6b-794d-4494-9449-2d333220496e,rev?*
G04 #@! TF.SameCoordinates,Original*
G04 #@! TF.FileFunction,OtherDrawing,Comment*
%FSLAX46Y46*%
G04 Gerber Fmt 4.6, Leading zero omitted, Abs format (unit mm)*
G04 Created by KiCad (PCBNEW (5.1.8)-1) date 2023-02-02 03:17:37*
%MOMM*%
%LPD*%
G01*
G04 APERTURE LIST*
%ADD10C,0.050000*%
%ADD11C,0.120000*%
G04 APERTURE END LIST*
D10*
X113400000Y-52100000D02*
X113400000Y-150000000D01*
X111600000Y-52100000D02*
X111600000Y-150000000D01*
D11*
X151885000Y-146979000D02*
X151885000Y-132374000D01*
X151885000Y-132374000D02*
X137280000Y-132374000D01*
X137280000Y-132374000D02*
X137280000Y-146979000D01*
X137280000Y-146979000D02*
X151885000Y-146979000D01*
X177285000Y-128564000D02*
X164585000Y-128564000D01*
X164585000Y-128564000D02*
X164585000Y-136184000D01*
X164585000Y-136184000D02*
X177285000Y-136184000D01*
X177285000Y-102910000D02*
X165855000Y-102910000D01*
X165855000Y-102910000D02*
X165855000Y-118785000D01*
X165855000Y-118785000D02*
X177285000Y-118785000D01*
X148964000Y-83733000D02*
X160140000Y-83733000D01*
X160140000Y-83733000D02*
X160140000Y-80939000D01*
X160140000Y-80939000D02*
X148964000Y-80939000D01*
X137788000Y-80939000D02*
X137788000Y-83733000D01*
X137788000Y-83733000D02*
X148964000Y-83733000D01*
X148964000Y-80939000D02*
X137788000Y-80939000D01*
D10*
X101587800Y-98218000D02*
X101587800Y-103518000D01*
X101587800Y-98218000D02*
X111587800Y-98218000D01*
X101587800Y-103518000D02*
X111587800Y-103518000D01*
M02*
