G04 #@! TF.GenerationSoftware,KiCad,Pcbnew,(5.1.8)-1*
G04 #@! TF.CreationDate,2023-02-02T03:17:37+01:00*
G04 #@! TF.ProjectId,BulkyMIDI-32 Internal,42756c6b-794d-4494-9449-2d333220496e,rev?*
G04 #@! TF.SameCoordinates,Original*
G04 #@! TF.FileFunction,Legend,Top*
G04 #@! TF.FilePolarity,Positive*
%FSLAX46Y46*%
G04 Gerber Fmt 4.6, Leading zero omitted, Abs format (unit mm)*
G04 Created by KiCad (PCBNEW (5.1.8)-1) date 2023-02-02 03:17:37*
%MOMM*%
%LPD*%
G01*
G04 APERTURE LIST*
%ADD10C,0.100000*%
%ADD11C,0.010000*%
%ADD12C,0.120000*%
%ADD13C,0.150000*%
%ADD14C,0.050000*%
G04 APERTURE END LIST*
D10*
X139542047Y-90630904D02*
X139542047Y-91202333D01*
X139503952Y-91316619D01*
X139427761Y-91392809D01*
X139313476Y-91430904D01*
X139237285Y-91430904D01*
X140151571Y-91697571D02*
X139961095Y-91697571D01*
X139961095Y-90554714D01*
X140151571Y-90554714D01*
X140494428Y-91430904D02*
X140646809Y-91430904D01*
X140723000Y-91392809D01*
X140761095Y-91354714D01*
X140837285Y-91240428D01*
X140875380Y-91088047D01*
X140875380Y-90783285D01*
X140837285Y-90707095D01*
X140799190Y-90669000D01*
X140723000Y-90630904D01*
X140570619Y-90630904D01*
X140494428Y-90669000D01*
X140456333Y-90707095D01*
X140418238Y-90783285D01*
X140418238Y-90973761D01*
X140456333Y-91049952D01*
X140494428Y-91088047D01*
X140570619Y-91126142D01*
X140723000Y-91126142D01*
X140799190Y-91088047D01*
X140837285Y-91049952D01*
X140875380Y-90973761D01*
X141218238Y-91126142D02*
X141827761Y-91126142D01*
X142627761Y-91430904D02*
X142170619Y-91430904D01*
X142399190Y-91430904D02*
X142399190Y-90630904D01*
X142323000Y-90745190D01*
X142246809Y-90821380D01*
X142170619Y-90859476D01*
X143389666Y-91430904D02*
X142932523Y-91430904D01*
X143161095Y-91430904D02*
X143161095Y-90630904D01*
X143084904Y-90745190D01*
X143008714Y-90821380D01*
X142932523Y-90859476D01*
X143656333Y-91697571D02*
X143846809Y-91697571D01*
X143846809Y-90554714D01*
X143656333Y-90554714D01*
X144875380Y-91430904D02*
X144875380Y-90630904D01*
X145142047Y-91202333D01*
X145408714Y-90630904D01*
X145408714Y-91430904D01*
X145789666Y-91430904D02*
X145789666Y-90630904D01*
X146170619Y-91430904D02*
X146170619Y-90630904D01*
X146361095Y-90630904D01*
X146475380Y-90669000D01*
X146551571Y-90745190D01*
X146589666Y-90821380D01*
X146627761Y-90973761D01*
X146627761Y-91088047D01*
X146589666Y-91240428D01*
X146551571Y-91316619D01*
X146475380Y-91392809D01*
X146361095Y-91430904D01*
X146170619Y-91430904D01*
X146970619Y-91430904D02*
X146970619Y-90630904D01*
X147846809Y-90897571D02*
X148151571Y-90897571D01*
X147961095Y-90630904D02*
X147961095Y-91316619D01*
X147999190Y-91392809D01*
X148075380Y-91430904D01*
X148151571Y-91430904D01*
X148532523Y-91430904D02*
X148456333Y-91392809D01*
X148418238Y-91354714D01*
X148380142Y-91278523D01*
X148380142Y-91049952D01*
X148418238Y-90973761D01*
X148456333Y-90935666D01*
X148532523Y-90897571D01*
X148646809Y-90897571D01*
X148723000Y-90935666D01*
X148761095Y-90973761D01*
X148799190Y-91049952D01*
X148799190Y-91278523D01*
X148761095Y-91354714D01*
X148723000Y-91392809D01*
X148646809Y-91430904D01*
X148532523Y-91430904D01*
X149751571Y-91430904D02*
X149751571Y-90897571D01*
X149751571Y-90973761D02*
X149789666Y-90935666D01*
X149865857Y-90897571D01*
X149980142Y-90897571D01*
X150056333Y-90935666D01*
X150094428Y-91011857D01*
X150094428Y-91430904D01*
X150094428Y-91011857D02*
X150132523Y-90935666D01*
X150208714Y-90897571D01*
X150323000Y-90897571D01*
X150399190Y-90935666D01*
X150437285Y-91011857D01*
X150437285Y-91430904D01*
X150818238Y-91430904D02*
X150818238Y-90897571D01*
X150818238Y-90630904D02*
X150780142Y-90669000D01*
X150818238Y-90707095D01*
X150856333Y-90669000D01*
X150818238Y-90630904D01*
X150818238Y-90707095D01*
X151199190Y-90897571D02*
X151199190Y-91430904D01*
X151199190Y-90973761D02*
X151237285Y-90935666D01*
X151313476Y-90897571D01*
X151427761Y-90897571D01*
X151503952Y-90935666D01*
X151542047Y-91011857D01*
X151542047Y-91430904D01*
X151923000Y-91430904D02*
X151923000Y-90897571D01*
X151923000Y-90630904D02*
X151884904Y-90669000D01*
X151923000Y-90707095D01*
X151961095Y-90669000D01*
X151923000Y-90630904D01*
X151923000Y-90707095D01*
X152303952Y-90897571D02*
X152303952Y-91583285D01*
X152265857Y-91659476D01*
X152189666Y-91697571D01*
X152151571Y-91697571D01*
X152303952Y-90630904D02*
X152265857Y-90669000D01*
X152303952Y-90707095D01*
X152342047Y-90669000D01*
X152303952Y-90630904D01*
X152303952Y-90707095D01*
X153027761Y-91430904D02*
X153027761Y-91011857D01*
X152989666Y-90935666D01*
X152913476Y-90897571D01*
X152761095Y-90897571D01*
X152684904Y-90935666D01*
X153027761Y-91392809D02*
X152951571Y-91430904D01*
X152761095Y-91430904D01*
X152684904Y-91392809D01*
X152646809Y-91316619D01*
X152646809Y-91240428D01*
X152684904Y-91164238D01*
X152761095Y-91126142D01*
X152951571Y-91126142D01*
X153027761Y-91088047D01*
X153751571Y-91392809D02*
X153675380Y-91430904D01*
X153523000Y-91430904D01*
X153446809Y-91392809D01*
X153408714Y-91354714D01*
X153370619Y-91278523D01*
X153370619Y-91049952D01*
X153408714Y-90973761D01*
X153446809Y-90935666D01*
X153523000Y-90897571D01*
X153675380Y-90897571D01*
X153751571Y-90935666D01*
X154094428Y-91430904D02*
X154094428Y-90630904D01*
X154170619Y-91126142D02*
X154399190Y-91430904D01*
X154399190Y-90897571D02*
X154094428Y-91202333D01*
X154742047Y-91354714D02*
X154780142Y-91392809D01*
X154742047Y-91430904D01*
X154703952Y-91392809D01*
X154742047Y-91354714D01*
X154742047Y-91430904D01*
X154742047Y-90935666D02*
X154780142Y-90973761D01*
X154742047Y-91011857D01*
X154703952Y-90973761D01*
X154742047Y-90935666D01*
X154742047Y-91011857D01*
X139199190Y-91930904D02*
X139656333Y-91930904D01*
X139427761Y-92730904D02*
X139427761Y-91930904D01*
X139846809Y-92197571D02*
X140037285Y-92730904D01*
X140227761Y-92197571D02*
X140037285Y-92730904D01*
X139961095Y-92921380D01*
X139923000Y-92959476D01*
X139846809Y-92997571D01*
X140532523Y-92197571D02*
X140532523Y-92997571D01*
X140532523Y-92235666D02*
X140608714Y-92197571D01*
X140761095Y-92197571D01*
X140837285Y-92235666D01*
X140875380Y-92273761D01*
X140913476Y-92349952D01*
X140913476Y-92578523D01*
X140875380Y-92654714D01*
X140837285Y-92692809D01*
X140761095Y-92730904D01*
X140608714Y-92730904D01*
X140532523Y-92692809D01*
X141561095Y-92692809D02*
X141484904Y-92730904D01*
X141332523Y-92730904D01*
X141256333Y-92692809D01*
X141218238Y-92616619D01*
X141218238Y-92311857D01*
X141256333Y-92235666D01*
X141332523Y-92197571D01*
X141484904Y-92197571D01*
X141561095Y-92235666D01*
X141599190Y-92311857D01*
X141599190Y-92388047D01*
X141218238Y-92464238D01*
X142513476Y-92502333D02*
X142894428Y-92502333D01*
X142437285Y-92730904D02*
X142703952Y-91930904D01*
X142970619Y-92730904D01*
X143237285Y-92654714D02*
X143275380Y-92692809D01*
X143237285Y-92730904D01*
X143199190Y-92692809D01*
X143237285Y-92654714D01*
X143237285Y-92730904D01*
X143237285Y-92235666D02*
X143275380Y-92273761D01*
X143237285Y-92311857D01*
X143199190Y-92273761D01*
X143237285Y-92235666D01*
X143237285Y-92311857D01*
X144608714Y-92730904D02*
X144227761Y-92730904D01*
X144227761Y-91930904D01*
X144875380Y-92730904D02*
X144875380Y-92197571D01*
X144875380Y-91930904D02*
X144837285Y-91969000D01*
X144875380Y-92007095D01*
X144913476Y-91969000D01*
X144875380Y-91930904D01*
X144875380Y-92007095D01*
X145256333Y-92197571D02*
X145256333Y-92730904D01*
X145256333Y-92273761D02*
X145294428Y-92235666D01*
X145370619Y-92197571D01*
X145484904Y-92197571D01*
X145561095Y-92235666D01*
X145599190Y-92311857D01*
X145599190Y-92730904D01*
X145980142Y-92730904D02*
X145980142Y-91930904D01*
X146056333Y-92426142D02*
X146284904Y-92730904D01*
X146284904Y-92197571D02*
X145980142Y-92502333D01*
X147237285Y-92197571D02*
X147237285Y-92997571D01*
X147237285Y-92235666D02*
X147313476Y-92197571D01*
X147465857Y-92197571D01*
X147542047Y-92235666D01*
X147580142Y-92273761D01*
X147618238Y-92349952D01*
X147618238Y-92578523D01*
X147580142Y-92654714D01*
X147542047Y-92692809D01*
X147465857Y-92730904D01*
X147313476Y-92730904D01*
X147237285Y-92692809D01*
X148303952Y-92730904D02*
X148303952Y-92311857D01*
X148265857Y-92235666D01*
X148189666Y-92197571D01*
X148037285Y-92197571D01*
X147961095Y-92235666D01*
X148303952Y-92692809D02*
X148227761Y-92730904D01*
X148037285Y-92730904D01*
X147961095Y-92692809D01*
X147923000Y-92616619D01*
X147923000Y-92540428D01*
X147961095Y-92464238D01*
X148037285Y-92426142D01*
X148227761Y-92426142D01*
X148303952Y-92388047D01*
X149027761Y-92730904D02*
X149027761Y-91930904D01*
X149027761Y-92692809D02*
X148951571Y-92730904D01*
X148799190Y-92730904D01*
X148723000Y-92692809D01*
X148684904Y-92654714D01*
X148646809Y-92578523D01*
X148646809Y-92349952D01*
X148684904Y-92273761D01*
X148723000Y-92235666D01*
X148799190Y-92197571D01*
X148951571Y-92197571D01*
X149027761Y-92235666D01*
X149370619Y-92692809D02*
X149446809Y-92730904D01*
X149599190Y-92730904D01*
X149675380Y-92692809D01*
X149713476Y-92616619D01*
X149713476Y-92578523D01*
X149675380Y-92502333D01*
X149599190Y-92464238D01*
X149484904Y-92464238D01*
X149408714Y-92426142D01*
X149370619Y-92349952D01*
X149370619Y-92311857D01*
X149408714Y-92235666D01*
X149484904Y-92197571D01*
X149599190Y-92197571D01*
X149675380Y-92235666D01*
X150665857Y-92730904D02*
X150665857Y-91930904D01*
X151008714Y-92730904D02*
X151008714Y-92311857D01*
X150970619Y-92235666D01*
X150894428Y-92197571D01*
X150780142Y-92197571D01*
X150703952Y-92235666D01*
X150665857Y-92273761D01*
X151503952Y-92730904D02*
X151427761Y-92692809D01*
X151389666Y-92654714D01*
X151351571Y-92578523D01*
X151351571Y-92349952D01*
X151389666Y-92273761D01*
X151427761Y-92235666D01*
X151503952Y-92197571D01*
X151618238Y-92197571D01*
X151694428Y-92235666D01*
X151732523Y-92273761D01*
X151770619Y-92349952D01*
X151770619Y-92578523D01*
X151732523Y-92654714D01*
X151694428Y-92692809D01*
X151618238Y-92730904D01*
X151503952Y-92730904D01*
X152113476Y-92730904D02*
X152113476Y-92197571D01*
X152113476Y-92349952D02*
X152151571Y-92273761D01*
X152189666Y-92235666D01*
X152265857Y-92197571D01*
X152342047Y-92197571D01*
X152608714Y-92730904D02*
X152608714Y-92197571D01*
X152608714Y-91930904D02*
X152570619Y-91969000D01*
X152608714Y-92007095D01*
X152646809Y-91969000D01*
X152608714Y-91930904D01*
X152608714Y-92007095D01*
X152913476Y-92197571D02*
X153332523Y-92197571D01*
X152913476Y-92730904D01*
X153332523Y-92730904D01*
X153751571Y-92730904D02*
X153675380Y-92692809D01*
X153637285Y-92654714D01*
X153599190Y-92578523D01*
X153599190Y-92349952D01*
X153637285Y-92273761D01*
X153675380Y-92235666D01*
X153751571Y-92197571D01*
X153865857Y-92197571D01*
X153942047Y-92235666D01*
X153980142Y-92273761D01*
X154018238Y-92349952D01*
X154018238Y-92578523D01*
X153980142Y-92654714D01*
X153942047Y-92692809D01*
X153865857Y-92730904D01*
X153751571Y-92730904D01*
X154361095Y-92197571D02*
X154361095Y-92730904D01*
X154361095Y-92273761D02*
X154399190Y-92235666D01*
X154475380Y-92197571D01*
X154589666Y-92197571D01*
X154665857Y-92235666D01*
X154703952Y-92311857D01*
X154703952Y-92730904D01*
X154970619Y-92197571D02*
X155275380Y-92197571D01*
X155084904Y-91930904D02*
X155084904Y-92616619D01*
X155123000Y-92692809D01*
X155199190Y-92730904D01*
X155275380Y-92730904D01*
X155884904Y-92730904D02*
X155884904Y-92311857D01*
X155846809Y-92235666D01*
X155770619Y-92197571D01*
X155618238Y-92197571D01*
X155542047Y-92235666D01*
X155884904Y-92692809D02*
X155808714Y-92730904D01*
X155618238Y-92730904D01*
X155542047Y-92692809D01*
X155503952Y-92616619D01*
X155503952Y-92540428D01*
X155542047Y-92464238D01*
X155618238Y-92426142D01*
X155808714Y-92426142D01*
X155884904Y-92388047D01*
X156380142Y-92730904D02*
X156303952Y-92692809D01*
X156265857Y-92616619D01*
X156265857Y-91930904D01*
X156799190Y-92730904D02*
X156723000Y-92692809D01*
X156684904Y-92616619D01*
X156684904Y-91930904D01*
X157027761Y-92197571D02*
X157218238Y-92730904D01*
X157408714Y-92197571D02*
X157218238Y-92730904D01*
X157142047Y-92921380D01*
X157103952Y-92959476D01*
X157027761Y-92997571D01*
X139199190Y-93230904D02*
X139656333Y-93230904D01*
X139427761Y-94030904D02*
X139427761Y-93230904D01*
X139846809Y-93497571D02*
X140037285Y-94030904D01*
X140227761Y-93497571D02*
X140037285Y-94030904D01*
X139961095Y-94221380D01*
X139923000Y-94259476D01*
X139846809Y-94297571D01*
X140532523Y-93497571D02*
X140532523Y-94297571D01*
X140532523Y-93535666D02*
X140608714Y-93497571D01*
X140761095Y-93497571D01*
X140837285Y-93535666D01*
X140875380Y-93573761D01*
X140913476Y-93649952D01*
X140913476Y-93878523D01*
X140875380Y-93954714D01*
X140837285Y-93992809D01*
X140761095Y-94030904D01*
X140608714Y-94030904D01*
X140532523Y-93992809D01*
X141561095Y-93992809D02*
X141484904Y-94030904D01*
X141332523Y-94030904D01*
X141256333Y-93992809D01*
X141218238Y-93916619D01*
X141218238Y-93611857D01*
X141256333Y-93535666D01*
X141332523Y-93497571D01*
X141484904Y-93497571D01*
X141561095Y-93535666D01*
X141599190Y-93611857D01*
X141599190Y-93688047D01*
X141218238Y-93764238D01*
X142818238Y-93611857D02*
X142932523Y-93649952D01*
X142970619Y-93688047D01*
X143008714Y-93764238D01*
X143008714Y-93878523D01*
X142970619Y-93954714D01*
X142932523Y-93992809D01*
X142856333Y-94030904D01*
X142551571Y-94030904D01*
X142551571Y-93230904D01*
X142818238Y-93230904D01*
X142894428Y-93269000D01*
X142932523Y-93307095D01*
X142970619Y-93383285D01*
X142970619Y-93459476D01*
X142932523Y-93535666D01*
X142894428Y-93573761D01*
X142818238Y-93611857D01*
X142551571Y-93611857D01*
X143351571Y-93954714D02*
X143389666Y-93992809D01*
X143351571Y-94030904D01*
X143313476Y-93992809D01*
X143351571Y-93954714D01*
X143351571Y-94030904D01*
X143351571Y-93535666D02*
X143389666Y-93573761D01*
X143351571Y-93611857D01*
X143313476Y-93573761D01*
X143351571Y-93535666D01*
X143351571Y-93611857D01*
X144723000Y-94030904D02*
X144342047Y-94030904D01*
X144342047Y-93230904D01*
X144989666Y-94030904D02*
X144989666Y-93497571D01*
X144989666Y-93230904D02*
X144951571Y-93269000D01*
X144989666Y-93307095D01*
X145027761Y-93269000D01*
X144989666Y-93230904D01*
X144989666Y-93307095D01*
X145370619Y-93497571D02*
X145370619Y-94030904D01*
X145370619Y-93573761D02*
X145408714Y-93535666D01*
X145484904Y-93497571D01*
X145599190Y-93497571D01*
X145675380Y-93535666D01*
X145713476Y-93611857D01*
X145713476Y-94030904D01*
X146094428Y-94030904D02*
X146094428Y-93230904D01*
X146170619Y-93726142D02*
X146399190Y-94030904D01*
X146399190Y-93497571D02*
X146094428Y-93802333D01*
X147351571Y-93497571D02*
X147351571Y-94297571D01*
X147351571Y-93535666D02*
X147427761Y-93497571D01*
X147580142Y-93497571D01*
X147656333Y-93535666D01*
X147694428Y-93573761D01*
X147732523Y-93649952D01*
X147732523Y-93878523D01*
X147694428Y-93954714D01*
X147656333Y-93992809D01*
X147580142Y-94030904D01*
X147427761Y-94030904D01*
X147351571Y-93992809D01*
X148418238Y-94030904D02*
X148418238Y-93611857D01*
X148380142Y-93535666D01*
X148303952Y-93497571D01*
X148151571Y-93497571D01*
X148075380Y-93535666D01*
X148418238Y-93992809D02*
X148342047Y-94030904D01*
X148151571Y-94030904D01*
X148075380Y-93992809D01*
X148037285Y-93916619D01*
X148037285Y-93840428D01*
X148075380Y-93764238D01*
X148151571Y-93726142D01*
X148342047Y-93726142D01*
X148418238Y-93688047D01*
X149142047Y-94030904D02*
X149142047Y-93230904D01*
X149142047Y-93992809D02*
X149065857Y-94030904D01*
X148913476Y-94030904D01*
X148837285Y-93992809D01*
X148799190Y-93954714D01*
X148761095Y-93878523D01*
X148761095Y-93649952D01*
X148799190Y-93573761D01*
X148837285Y-93535666D01*
X148913476Y-93497571D01*
X149065857Y-93497571D01*
X149142047Y-93535666D01*
X149484904Y-93992809D02*
X149561095Y-94030904D01*
X149713476Y-94030904D01*
X149789666Y-93992809D01*
X149827761Y-93916619D01*
X149827761Y-93878523D01*
X149789666Y-93802333D01*
X149713476Y-93764238D01*
X149599190Y-93764238D01*
X149523000Y-93726142D01*
X149484904Y-93649952D01*
X149484904Y-93611857D01*
X149523000Y-93535666D01*
X149599190Y-93497571D01*
X149713476Y-93497571D01*
X149789666Y-93535666D01*
X150703952Y-93497571D02*
X150894428Y-94030904D01*
X151084904Y-93497571D01*
X151694428Y-93992809D02*
X151618238Y-94030904D01*
X151465857Y-94030904D01*
X151389666Y-93992809D01*
X151351571Y-93916619D01*
X151351571Y-93611857D01*
X151389666Y-93535666D01*
X151465857Y-93497571D01*
X151618238Y-93497571D01*
X151694428Y-93535666D01*
X151732523Y-93611857D01*
X151732523Y-93688047D01*
X151351571Y-93764238D01*
X152075380Y-94030904D02*
X152075380Y-93497571D01*
X152075380Y-93649952D02*
X152113476Y-93573761D01*
X152151571Y-93535666D01*
X152227761Y-93497571D01*
X152303952Y-93497571D01*
X152456333Y-93497571D02*
X152761095Y-93497571D01*
X152570619Y-93230904D02*
X152570619Y-93916619D01*
X152608714Y-93992809D01*
X152684904Y-94030904D01*
X152761095Y-94030904D01*
X153027761Y-94030904D02*
X153027761Y-93497571D01*
X153027761Y-93230904D02*
X152989666Y-93269000D01*
X153027761Y-93307095D01*
X153065857Y-93269000D01*
X153027761Y-93230904D01*
X153027761Y-93307095D01*
X153751571Y-93992809D02*
X153675380Y-94030904D01*
X153523000Y-94030904D01*
X153446809Y-93992809D01*
X153408714Y-93954714D01*
X153370619Y-93878523D01*
X153370619Y-93649952D01*
X153408714Y-93573761D01*
X153446809Y-93535666D01*
X153523000Y-93497571D01*
X153675380Y-93497571D01*
X153751571Y-93535666D01*
X154437285Y-94030904D02*
X154437285Y-93611857D01*
X154399190Y-93535666D01*
X154323000Y-93497571D01*
X154170619Y-93497571D01*
X154094428Y-93535666D01*
X154437285Y-93992809D02*
X154361095Y-94030904D01*
X154170619Y-94030904D01*
X154094428Y-93992809D01*
X154056333Y-93916619D01*
X154056333Y-93840428D01*
X154094428Y-93764238D01*
X154170619Y-93726142D01*
X154361095Y-93726142D01*
X154437285Y-93688047D01*
X154932523Y-94030904D02*
X154856333Y-93992809D01*
X154818238Y-93916619D01*
X154818238Y-93230904D01*
X155351571Y-94030904D02*
X155275380Y-93992809D01*
X155237285Y-93916619D01*
X155237285Y-93230904D01*
X155580142Y-93497571D02*
X155770619Y-94030904D01*
X155961095Y-93497571D02*
X155770619Y-94030904D01*
X155694428Y-94221380D01*
X155656333Y-94259476D01*
X155580142Y-94297571D01*
X150984761Y-117315904D02*
X150984761Y-117506380D01*
X150794285Y-117430190D02*
X150984761Y-117506380D01*
X151175238Y-117430190D01*
X150870476Y-117658761D02*
X150984761Y-117506380D01*
X151099047Y-117658761D01*
X152051428Y-117887333D02*
X152432380Y-117887333D01*
X151975238Y-118115904D02*
X152241904Y-117315904D01*
X152508571Y-118115904D01*
X153118095Y-118115904D02*
X153118095Y-117315904D01*
X153118095Y-118077809D02*
X153041904Y-118115904D01*
X152889523Y-118115904D01*
X152813333Y-118077809D01*
X152775238Y-118039714D01*
X152737142Y-117963523D01*
X152737142Y-117734952D01*
X152775238Y-117658761D01*
X152813333Y-117620666D01*
X152889523Y-117582571D01*
X153041904Y-117582571D01*
X153118095Y-117620666D01*
X153499047Y-117582571D02*
X153499047Y-118268285D01*
X153460952Y-118344476D01*
X153384761Y-118382571D01*
X153346666Y-118382571D01*
X153499047Y-117315904D02*
X153460952Y-117354000D01*
X153499047Y-117392095D01*
X153537142Y-117354000D01*
X153499047Y-117315904D01*
X153499047Y-117392095D01*
X154222857Y-117582571D02*
X154222857Y-118115904D01*
X153880000Y-117582571D02*
X153880000Y-118001619D01*
X153918095Y-118077809D01*
X153994285Y-118115904D01*
X154108571Y-118115904D01*
X154184761Y-118077809D01*
X154222857Y-118039714D01*
X154565714Y-118077809D02*
X154641904Y-118115904D01*
X154794285Y-118115904D01*
X154870476Y-118077809D01*
X154908571Y-118001619D01*
X154908571Y-117963523D01*
X154870476Y-117887333D01*
X154794285Y-117849238D01*
X154680000Y-117849238D01*
X154603809Y-117811142D01*
X154565714Y-117734952D01*
X154565714Y-117696857D01*
X154603809Y-117620666D01*
X154680000Y-117582571D01*
X154794285Y-117582571D01*
X154870476Y-117620666D01*
X155137142Y-117582571D02*
X155441904Y-117582571D01*
X155251428Y-117315904D02*
X155251428Y-118001619D01*
X155289523Y-118077809D01*
X155365714Y-118115904D01*
X155441904Y-118115904D01*
X156241904Y-117582571D02*
X156432380Y-118115904D01*
X156622857Y-117582571D01*
X157270476Y-118115904D02*
X157270476Y-117696857D01*
X157232380Y-117620666D01*
X157156190Y-117582571D01*
X157003809Y-117582571D01*
X156927619Y-117620666D01*
X157270476Y-118077809D02*
X157194285Y-118115904D01*
X157003809Y-118115904D01*
X156927619Y-118077809D01*
X156889523Y-118001619D01*
X156889523Y-117925428D01*
X156927619Y-117849238D01*
X157003809Y-117811142D01*
X157194285Y-117811142D01*
X157270476Y-117773047D01*
X157765714Y-118115904D02*
X157689523Y-118077809D01*
X157651428Y-118001619D01*
X157651428Y-117315904D01*
X158413333Y-117582571D02*
X158413333Y-118115904D01*
X158070476Y-117582571D02*
X158070476Y-118001619D01*
X158108571Y-118077809D01*
X158184761Y-118115904D01*
X158299047Y-118115904D01*
X158375238Y-118077809D01*
X158413333Y-118039714D01*
X159099047Y-118077809D02*
X159022857Y-118115904D01*
X158870476Y-118115904D01*
X158794285Y-118077809D01*
X158756190Y-118001619D01*
X158756190Y-117696857D01*
X158794285Y-117620666D01*
X158870476Y-117582571D01*
X159022857Y-117582571D01*
X159099047Y-117620666D01*
X159137142Y-117696857D01*
X159137142Y-117773047D01*
X158756190Y-117849238D01*
X159975238Y-117582571D02*
X160280000Y-117582571D01*
X160089523Y-118115904D02*
X160089523Y-117430190D01*
X160127619Y-117354000D01*
X160203809Y-117315904D01*
X160280000Y-117315904D01*
X160660952Y-118115904D02*
X160584761Y-118077809D01*
X160546666Y-118039714D01*
X160508571Y-117963523D01*
X160508571Y-117734952D01*
X160546666Y-117658761D01*
X160584761Y-117620666D01*
X160660952Y-117582571D01*
X160775238Y-117582571D01*
X160851428Y-117620666D01*
X160889523Y-117658761D01*
X160927619Y-117734952D01*
X160927619Y-117963523D01*
X160889523Y-118039714D01*
X160851428Y-118077809D01*
X160775238Y-118115904D01*
X160660952Y-118115904D01*
X161270476Y-118115904D02*
X161270476Y-117582571D01*
X161270476Y-117734952D02*
X161308571Y-117658761D01*
X161346666Y-117620666D01*
X161422857Y-117582571D01*
X161499047Y-117582571D01*
X162260952Y-117582571D02*
X162565714Y-117582571D01*
X162375238Y-117315904D02*
X162375238Y-118001619D01*
X162413333Y-118077809D01*
X162489523Y-118115904D01*
X162565714Y-118115904D01*
X162756190Y-117582571D02*
X162946666Y-118115904D01*
X163137142Y-117582571D02*
X162946666Y-118115904D01*
X162870476Y-118306380D01*
X162832380Y-118344476D01*
X162756190Y-118382571D01*
X163441904Y-117582571D02*
X163441904Y-118382571D01*
X163441904Y-117620666D02*
X163518095Y-117582571D01*
X163670476Y-117582571D01*
X163746666Y-117620666D01*
X163784761Y-117658761D01*
X163822857Y-117734952D01*
X163822857Y-117963523D01*
X163784761Y-118039714D01*
X163746666Y-118077809D01*
X163670476Y-118115904D01*
X163518095Y-118115904D01*
X163441904Y-118077809D01*
X164470476Y-118077809D02*
X164394285Y-118115904D01*
X164241904Y-118115904D01*
X164165714Y-118077809D01*
X164127619Y-118001619D01*
X164127619Y-117696857D01*
X164165714Y-117620666D01*
X164241904Y-117582571D01*
X164394285Y-117582571D01*
X164470476Y-117620666D01*
X164508571Y-117696857D01*
X164508571Y-117773047D01*
X164127619Y-117849238D01*
X165575238Y-118115904D02*
X165499047Y-118077809D01*
X165460952Y-118039714D01*
X165422857Y-117963523D01*
X165422857Y-117734952D01*
X165460952Y-117658761D01*
X165499047Y-117620666D01*
X165575238Y-117582571D01*
X165689523Y-117582571D01*
X165765714Y-117620666D01*
X165803809Y-117658761D01*
X165841904Y-117734952D01*
X165841904Y-117963523D01*
X165803809Y-118039714D01*
X165765714Y-118077809D01*
X165689523Y-118115904D01*
X165575238Y-118115904D01*
X166070476Y-117582571D02*
X166375238Y-117582571D01*
X166184761Y-118115904D02*
X166184761Y-117430190D01*
X166222857Y-117354000D01*
X166299047Y-117315904D01*
X166375238Y-117315904D01*
X151251428Y-119415904D02*
X150870476Y-119415904D01*
X150870476Y-118615904D01*
X151518095Y-118996857D02*
X151784761Y-118996857D01*
X151899047Y-119415904D02*
X151518095Y-119415904D01*
X151518095Y-118615904D01*
X151899047Y-118615904D01*
X152241904Y-119415904D02*
X152241904Y-118615904D01*
X152432380Y-118615904D01*
X152546666Y-118654000D01*
X152622857Y-118730190D01*
X152660952Y-118806380D01*
X152699047Y-118958761D01*
X152699047Y-119073047D01*
X152660952Y-119225428D01*
X152622857Y-119301619D01*
X152546666Y-119377809D01*
X152432380Y-119415904D01*
X152241904Y-119415904D01*
X153651428Y-119415904D02*
X153651428Y-118882571D01*
X153651428Y-118615904D02*
X153613333Y-118654000D01*
X153651428Y-118692095D01*
X153689523Y-118654000D01*
X153651428Y-118615904D01*
X153651428Y-118692095D01*
X154032380Y-118882571D02*
X154032380Y-119415904D01*
X154032380Y-118958761D02*
X154070476Y-118920666D01*
X154146666Y-118882571D01*
X154260952Y-118882571D01*
X154337142Y-118920666D01*
X154375238Y-118996857D01*
X154375238Y-119415904D01*
X154718095Y-119377809D02*
X154794285Y-119415904D01*
X154946666Y-119415904D01*
X155022857Y-119377809D01*
X155060952Y-119301619D01*
X155060952Y-119263523D01*
X155022857Y-119187333D01*
X154946666Y-119149238D01*
X154832380Y-119149238D01*
X154756190Y-119111142D01*
X154718095Y-119034952D01*
X154718095Y-118996857D01*
X154756190Y-118920666D01*
X154832380Y-118882571D01*
X154946666Y-118882571D01*
X155022857Y-118920666D01*
X155289523Y-118882571D02*
X155594285Y-118882571D01*
X155403809Y-118615904D02*
X155403809Y-119301619D01*
X155441904Y-119377809D01*
X155518095Y-119415904D01*
X155594285Y-119415904D01*
X156203809Y-119415904D02*
X156203809Y-118996857D01*
X156165714Y-118920666D01*
X156089523Y-118882571D01*
X155937142Y-118882571D01*
X155860952Y-118920666D01*
X156203809Y-119377809D02*
X156127619Y-119415904D01*
X155937142Y-119415904D01*
X155860952Y-119377809D01*
X155822857Y-119301619D01*
X155822857Y-119225428D01*
X155860952Y-119149238D01*
X155937142Y-119111142D01*
X156127619Y-119111142D01*
X156203809Y-119073047D01*
X156699047Y-119415904D02*
X156622857Y-119377809D01*
X156584761Y-119301619D01*
X156584761Y-118615904D01*
X157118095Y-119415904D02*
X157041904Y-119377809D01*
X157003809Y-119301619D01*
X157003809Y-118615904D01*
X157727619Y-119377809D02*
X157651428Y-119415904D01*
X157499047Y-119415904D01*
X157422857Y-119377809D01*
X157384761Y-119301619D01*
X157384761Y-118996857D01*
X157422857Y-118920666D01*
X157499047Y-118882571D01*
X157651428Y-118882571D01*
X157727619Y-118920666D01*
X157765714Y-118996857D01*
X157765714Y-119073047D01*
X157384761Y-119149238D01*
X158451428Y-119415904D02*
X158451428Y-118615904D01*
X158451428Y-119377809D02*
X158375238Y-119415904D01*
X158222857Y-119415904D01*
X158146666Y-119377809D01*
X158108571Y-119339714D01*
X158070476Y-119263523D01*
X158070476Y-119034952D01*
X158108571Y-118958761D01*
X158146666Y-118920666D01*
X158222857Y-118882571D01*
X158375238Y-118882571D01*
X158451428Y-118920666D01*
X159556190Y-119415904D02*
X159480000Y-119377809D01*
X159441904Y-119339714D01*
X159403809Y-119263523D01*
X159403809Y-119034952D01*
X159441904Y-118958761D01*
X159480000Y-118920666D01*
X159556190Y-118882571D01*
X159670476Y-118882571D01*
X159746666Y-118920666D01*
X159784761Y-118958761D01*
X159822857Y-119034952D01*
X159822857Y-119263523D01*
X159784761Y-119339714D01*
X159746666Y-119377809D01*
X159670476Y-119415904D01*
X159556190Y-119415904D01*
X160165714Y-118882571D02*
X160165714Y-119415904D01*
X160165714Y-118958761D02*
X160203809Y-118920666D01*
X160280000Y-118882571D01*
X160394285Y-118882571D01*
X160470476Y-118920666D01*
X160508571Y-118996857D01*
X160508571Y-119415904D01*
X161384761Y-118882571D02*
X161689523Y-118882571D01*
X161499047Y-119415904D02*
X161499047Y-118730190D01*
X161537142Y-118654000D01*
X161613333Y-118615904D01*
X161689523Y-118615904D01*
X161956190Y-119415904D02*
X161956190Y-118882571D01*
X161956190Y-119034952D02*
X161994285Y-118958761D01*
X162032380Y-118920666D01*
X162108571Y-118882571D01*
X162184761Y-118882571D01*
X162565714Y-119415904D02*
X162489523Y-119377809D01*
X162451428Y-119339714D01*
X162413333Y-119263523D01*
X162413333Y-119034952D01*
X162451428Y-118958761D01*
X162489523Y-118920666D01*
X162565714Y-118882571D01*
X162680000Y-118882571D01*
X162756190Y-118920666D01*
X162794285Y-118958761D01*
X162832380Y-119034952D01*
X162832380Y-119263523D01*
X162794285Y-119339714D01*
X162756190Y-119377809D01*
X162680000Y-119415904D01*
X162565714Y-119415904D01*
X163175238Y-118882571D02*
X163175238Y-119415904D01*
X163175238Y-118958761D02*
X163213333Y-118920666D01*
X163289523Y-118882571D01*
X163403809Y-118882571D01*
X163480000Y-118920666D01*
X163518095Y-118996857D01*
X163518095Y-119415904D01*
X163784761Y-118882571D02*
X164089523Y-118882571D01*
X163899047Y-118615904D02*
X163899047Y-119301619D01*
X163937142Y-119377809D01*
X164013333Y-119415904D01*
X164089523Y-119415904D01*
X164965714Y-118882571D02*
X164965714Y-119682571D01*
X164965714Y-118920666D02*
X165041904Y-118882571D01*
X165194285Y-118882571D01*
X165270476Y-118920666D01*
X165308571Y-118958761D01*
X165346666Y-119034952D01*
X165346666Y-119263523D01*
X165308571Y-119339714D01*
X165270476Y-119377809D01*
X165194285Y-119415904D01*
X165041904Y-119415904D01*
X164965714Y-119377809D01*
X166032380Y-119415904D02*
X166032380Y-118996857D01*
X165994285Y-118920666D01*
X165918095Y-118882571D01*
X165765714Y-118882571D01*
X165689523Y-118920666D01*
X166032380Y-119377809D02*
X165956190Y-119415904D01*
X165765714Y-119415904D01*
X165689523Y-119377809D01*
X165651428Y-119301619D01*
X165651428Y-119225428D01*
X165689523Y-119149238D01*
X165765714Y-119111142D01*
X165956190Y-119111142D01*
X166032380Y-119073047D01*
X166413333Y-118882571D02*
X166413333Y-119415904D01*
X166413333Y-118958761D02*
X166451428Y-118920666D01*
X166527619Y-118882571D01*
X166641904Y-118882571D01*
X166718095Y-118920666D01*
X166756190Y-118996857D01*
X166756190Y-119415904D01*
X167441904Y-119377809D02*
X167365714Y-119415904D01*
X167213333Y-119415904D01*
X167137142Y-119377809D01*
X167099047Y-119301619D01*
X167099047Y-118996857D01*
X167137142Y-118920666D01*
X167213333Y-118882571D01*
X167365714Y-118882571D01*
X167441904Y-118920666D01*
X167480000Y-118996857D01*
X167480000Y-119073047D01*
X167099047Y-119149238D01*
X167937142Y-119415904D02*
X167860952Y-119377809D01*
X167822857Y-119301619D01*
X167822857Y-118615904D01*
X168241904Y-119339714D02*
X168280000Y-119377809D01*
X168241904Y-119415904D01*
X168203809Y-119377809D01*
X168241904Y-119339714D01*
X168241904Y-119415904D01*
X190024523Y-93874000D02*
X189948333Y-93835904D01*
X189834047Y-93835904D01*
X189719761Y-93874000D01*
X189643571Y-93950190D01*
X189605476Y-94026380D01*
X189567380Y-94178761D01*
X189567380Y-94293047D01*
X189605476Y-94445428D01*
X189643571Y-94521619D01*
X189719761Y-94597809D01*
X189834047Y-94635904D01*
X189910238Y-94635904D01*
X190024523Y-94597809D01*
X190062619Y-94559714D01*
X190062619Y-94293047D01*
X189910238Y-94293047D01*
X190024523Y-91334000D02*
X189948333Y-91295904D01*
X189834047Y-91295904D01*
X189719761Y-91334000D01*
X189643571Y-91410190D01*
X189605476Y-91486380D01*
X189567380Y-91638761D01*
X189567380Y-91753047D01*
X189605476Y-91905428D01*
X189643571Y-91981619D01*
X189719761Y-92057809D01*
X189834047Y-92095904D01*
X189910238Y-92095904D01*
X190024523Y-92057809D01*
X190062619Y-92019714D01*
X190062619Y-91753047D01*
X189910238Y-91753047D01*
X189986428Y-89555904D02*
X189605476Y-89555904D01*
X189605476Y-88755904D01*
X190062619Y-97175904D02*
X189795952Y-96794952D01*
X189605476Y-97175904D02*
X189605476Y-96375904D01*
X189910238Y-96375904D01*
X189986428Y-96414000D01*
X190024523Y-96452095D01*
X190062619Y-96528285D01*
X190062619Y-96642571D01*
X190024523Y-96718761D01*
X189986428Y-96756857D01*
X189910238Y-96794952D01*
X189605476Y-96794952D01*
X130409761Y-52560904D02*
X130409761Y-53132333D01*
X130371666Y-53246619D01*
X130295476Y-53322809D01*
X130181190Y-53360904D01*
X130105000Y-53360904D01*
X131171666Y-53360904D02*
X130790714Y-53360904D01*
X130790714Y-52560904D01*
X131895476Y-53284714D02*
X131857380Y-53322809D01*
X131743095Y-53360904D01*
X131666904Y-53360904D01*
X131552619Y-53322809D01*
X131476428Y-53246619D01*
X131438333Y-53170428D01*
X131400238Y-53018047D01*
X131400238Y-52903761D01*
X131438333Y-52751380D01*
X131476428Y-52675190D01*
X131552619Y-52599000D01*
X131666904Y-52560904D01*
X131743095Y-52560904D01*
X131857380Y-52599000D01*
X131895476Y-52637095D01*
X132466904Y-52560904D02*
X132466904Y-53132333D01*
X132428809Y-53246619D01*
X132352619Y-53322809D01*
X132238333Y-53360904D01*
X132162142Y-53360904D01*
X133228809Y-53360904D02*
X132847857Y-53360904D01*
X132847857Y-52560904D01*
X133952619Y-53284714D02*
X133914523Y-53322809D01*
X133800238Y-53360904D01*
X133724047Y-53360904D01*
X133609761Y-53322809D01*
X133533571Y-53246619D01*
X133495476Y-53170428D01*
X133457380Y-53018047D01*
X133457380Y-52903761D01*
X133495476Y-52751380D01*
X133533571Y-52675190D01*
X133609761Y-52599000D01*
X133724047Y-52560904D01*
X133800238Y-52560904D01*
X133914523Y-52599000D01*
X133952619Y-52637095D01*
X134524047Y-52560904D02*
X134524047Y-53132333D01*
X134485952Y-53246619D01*
X134409761Y-53322809D01*
X134295476Y-53360904D01*
X134219285Y-53360904D01*
X135285952Y-53360904D02*
X134905000Y-53360904D01*
X134905000Y-52560904D01*
X136009761Y-53284714D02*
X135971666Y-53322809D01*
X135857380Y-53360904D01*
X135781190Y-53360904D01*
X135666904Y-53322809D01*
X135590714Y-53246619D01*
X135552619Y-53170428D01*
X135514523Y-53018047D01*
X135514523Y-52903761D01*
X135552619Y-52751380D01*
X135590714Y-52675190D01*
X135666904Y-52599000D01*
X135781190Y-52560904D01*
X135857380Y-52560904D01*
X135971666Y-52599000D01*
X136009761Y-52637095D01*
X136581190Y-52560904D02*
X136581190Y-53132333D01*
X136543095Y-53246619D01*
X136466904Y-53322809D01*
X136352619Y-53360904D01*
X136276428Y-53360904D01*
X137343095Y-53360904D02*
X136962142Y-53360904D01*
X136962142Y-52560904D01*
X138066904Y-53284714D02*
X138028809Y-53322809D01*
X137914523Y-53360904D01*
X137838333Y-53360904D01*
X137724047Y-53322809D01*
X137647857Y-53246619D01*
X137609761Y-53170428D01*
X137571666Y-53018047D01*
X137571666Y-52903761D01*
X137609761Y-52751380D01*
X137647857Y-52675190D01*
X137724047Y-52599000D01*
X137838333Y-52560904D01*
X137914523Y-52560904D01*
X138028809Y-52599000D01*
X138066904Y-52637095D01*
X194342523Y-63394000D02*
X194266333Y-63355904D01*
X194152047Y-63355904D01*
X194037761Y-63394000D01*
X193961571Y-63470190D01*
X193923476Y-63546380D01*
X193885380Y-63698761D01*
X193885380Y-63813047D01*
X193923476Y-63965428D01*
X193961571Y-64041619D01*
X194037761Y-64117809D01*
X194152047Y-64155904D01*
X194228238Y-64155904D01*
X194342523Y-64117809D01*
X194380619Y-64079714D01*
X194380619Y-63813047D01*
X194228238Y-63813047D01*
X194723476Y-64155904D02*
X194723476Y-63355904D01*
X195180619Y-64155904D01*
X195180619Y-63355904D01*
X195561571Y-64155904D02*
X195561571Y-63355904D01*
X195752047Y-63355904D01*
X195866333Y-63394000D01*
X195942523Y-63470190D01*
X195980619Y-63546380D01*
X196018714Y-63698761D01*
X196018714Y-63813047D01*
X195980619Y-63965428D01*
X195942523Y-64041619D01*
X195866333Y-64117809D01*
X195752047Y-64155904D01*
X195561571Y-64155904D01*
X193923476Y-61311142D02*
X194533000Y-61311142D01*
X194228238Y-61615904D02*
X194228238Y-61006380D01*
X195294904Y-60815904D02*
X194913952Y-60815904D01*
X194875857Y-61196857D01*
X194913952Y-61158761D01*
X194990142Y-61120666D01*
X195180619Y-61120666D01*
X195256809Y-61158761D01*
X195294904Y-61196857D01*
X195333000Y-61273047D01*
X195333000Y-61463523D01*
X195294904Y-61539714D01*
X195256809Y-61577809D01*
X195180619Y-61615904D01*
X194990142Y-61615904D01*
X194913952Y-61577809D01*
X194875857Y-61539714D01*
X195561571Y-60815904D02*
X195828238Y-61615904D01*
X196094904Y-60815904D01*
D11*
G36*
X133883500Y-133164270D02*
G01*
X133883499Y-133446541D01*
X134185125Y-133465895D01*
X134486750Y-133485250D01*
X134525458Y-134088500D01*
X135083041Y-134088500D01*
X135102395Y-133786875D01*
X135121750Y-133485250D01*
X135423375Y-133465895D01*
X135724999Y-133446541D01*
X135725000Y-133164270D01*
X135725000Y-132882000D01*
X136995000Y-132882000D01*
X136995000Y-137263500D01*
X135725000Y-137263500D01*
X135725000Y-134787000D01*
X135153500Y-134787000D01*
X135153500Y-135428636D01*
X134486750Y-135390250D01*
X134467395Y-135088625D01*
X134448041Y-134787000D01*
X133883500Y-134787000D01*
X133883500Y-137263500D01*
X132613500Y-137263500D01*
X132613500Y-132882000D01*
X133883500Y-132882000D01*
X133883500Y-133164270D01*
G37*
X133883500Y-133164270D02*
X133883499Y-133446541D01*
X134185125Y-133465895D01*
X134486750Y-133485250D01*
X134525458Y-134088500D01*
X135083041Y-134088500D01*
X135102395Y-133786875D01*
X135121750Y-133485250D01*
X135423375Y-133465895D01*
X135724999Y-133446541D01*
X135725000Y-133164270D01*
X135725000Y-132882000D01*
X136995000Y-132882000D01*
X136995000Y-137263500D01*
X135725000Y-137263500D01*
X135725000Y-134787000D01*
X135153500Y-134787000D01*
X135153500Y-135428636D01*
X134486750Y-135390250D01*
X134467395Y-135088625D01*
X134448041Y-134787000D01*
X133883500Y-134787000D01*
X133883500Y-137263500D01*
X132613500Y-137263500D01*
X132613500Y-132882000D01*
X133883500Y-132882000D01*
X133883500Y-133164270D01*
G36*
X140170000Y-133517000D02*
G01*
X139535000Y-133517000D01*
X139535000Y-136628500D01*
X140170000Y-136628500D01*
X140170000Y-137263500D01*
X137630000Y-137263500D01*
X137630000Y-136628500D01*
X138265000Y-136628500D01*
X138265000Y-133517000D01*
X137630000Y-133517000D01*
X137630000Y-132882000D01*
X140170000Y-132882000D01*
X140170000Y-133517000D01*
G37*
X140170000Y-133517000D02*
X139535000Y-133517000D01*
X139535000Y-136628500D01*
X140170000Y-136628500D01*
X140170000Y-137263500D01*
X137630000Y-137263500D01*
X137630000Y-136628500D01*
X138265000Y-136628500D01*
X138265000Y-133517000D01*
X137630000Y-133517000D01*
X137630000Y-132882000D01*
X140170000Y-132882000D01*
X140170000Y-133517000D01*
G36*
X143281500Y-133446541D02*
G01*
X143583125Y-133465895D01*
X143884750Y-133485250D01*
X143903967Y-133783532D01*
X143923185Y-134081814D01*
X144221467Y-134101032D01*
X144519750Y-134120250D01*
X144519750Y-136025250D01*
X143916500Y-136063958D01*
X143916500Y-136628500D01*
X143281500Y-136628500D01*
X143281500Y-137263500D01*
X140741500Y-137263500D01*
X140741500Y-133517000D01*
X142011500Y-133517000D01*
X142011500Y-136628500D01*
X142583000Y-136628500D01*
X142583000Y-135993500D01*
X143218000Y-135993500D01*
X143218000Y-134152000D01*
X142583000Y-134152000D01*
X142583000Y-133517000D01*
X142011500Y-133517000D01*
X140741500Y-133517000D01*
X140741500Y-132882000D01*
X143281500Y-132882000D01*
X143281500Y-133446541D01*
G37*
X143281500Y-133446541D02*
X143583125Y-133465895D01*
X143884750Y-133485250D01*
X143903967Y-133783532D01*
X143923185Y-134081814D01*
X144221467Y-134101032D01*
X144519750Y-134120250D01*
X144519750Y-136025250D01*
X143916500Y-136063958D01*
X143916500Y-136628500D01*
X143281500Y-136628500D01*
X143281500Y-137263500D01*
X140741500Y-137263500D01*
X140741500Y-133517000D01*
X142011500Y-133517000D01*
X142011500Y-136628500D01*
X142583000Y-136628500D01*
X142583000Y-135993500D01*
X143218000Y-135993500D01*
X143218000Y-134152000D01*
X142583000Y-134152000D01*
X142583000Y-133517000D01*
X142011500Y-133517000D01*
X140741500Y-133517000D01*
X140741500Y-132882000D01*
X143281500Y-132882000D01*
X143281500Y-133446541D01*
G36*
X147663000Y-133517000D02*
G01*
X147028000Y-133517000D01*
X147028000Y-136628500D01*
X147663000Y-136628500D01*
X147663000Y-137263500D01*
X145123000Y-137263500D01*
X145123000Y-136628500D01*
X145758000Y-136628500D01*
X145758000Y-133517000D01*
X145123000Y-133517000D01*
X145123000Y-132882000D01*
X147663000Y-132882000D01*
X147663000Y-133517000D01*
G37*
X147663000Y-133517000D02*
X147028000Y-133517000D01*
X147028000Y-136628500D01*
X147663000Y-136628500D01*
X147663000Y-137263500D01*
X145123000Y-137263500D01*
X145123000Y-136628500D01*
X145758000Y-136628500D01*
X145758000Y-133517000D01*
X145123000Y-133517000D01*
X145123000Y-132882000D01*
X147663000Y-132882000D01*
X147663000Y-133517000D01*
G36*
X155791000Y-133446541D02*
G01*
X156092625Y-133465895D01*
X156394250Y-133485250D01*
X156394250Y-134755250D01*
X155791000Y-134793958D01*
X155791000Y-135351541D01*
X156092625Y-135370895D01*
X156394250Y-135390250D01*
X156430598Y-136628500D01*
X155791000Y-136628500D01*
X155791000Y-137263500D01*
X153257958Y-137263500D01*
X153219250Y-136660250D01*
X152917625Y-136640895D01*
X152616000Y-136621541D01*
X152616000Y-135993500D01*
X153886000Y-135993500D01*
X153886000Y-136628500D01*
X155092500Y-136628500D01*
X155092500Y-135426598D01*
X153854250Y-135390250D01*
X153854250Y-134755250D01*
X154473375Y-134737075D01*
X155092500Y-134718901D01*
X155092500Y-133517000D01*
X153886000Y-133517000D01*
X153886000Y-134152000D01*
X152616000Y-134152000D01*
X152616000Y-133453500D01*
X153251000Y-133453500D01*
X153251000Y-132882000D01*
X155791000Y-132882000D01*
X155791000Y-133446541D01*
G37*
X155791000Y-133446541D02*
X156092625Y-133465895D01*
X156394250Y-133485250D01*
X156394250Y-134755250D01*
X155791000Y-134793958D01*
X155791000Y-135351541D01*
X156092625Y-135370895D01*
X156394250Y-135390250D01*
X156430598Y-136628500D01*
X155791000Y-136628500D01*
X155791000Y-137263500D01*
X153257958Y-137263500D01*
X153219250Y-136660250D01*
X152917625Y-136640895D01*
X152616000Y-136621541D01*
X152616000Y-135993500D01*
X153886000Y-135993500D01*
X153886000Y-136628500D01*
X155092500Y-136628500D01*
X155092500Y-135426598D01*
X153854250Y-135390250D01*
X153854250Y-134755250D01*
X154473375Y-134737075D01*
X155092500Y-134718901D01*
X155092500Y-133517000D01*
X153886000Y-133517000D01*
X153886000Y-134152000D01*
X152616000Y-134152000D01*
X152616000Y-133453500D01*
X153251000Y-133453500D01*
X153251000Y-132882000D01*
X155791000Y-132882000D01*
X155791000Y-133446541D01*
G36*
X160172500Y-133446541D02*
G01*
X160474125Y-133465895D01*
X160775750Y-133485250D01*
X160775750Y-134755250D01*
X160477467Y-134774467D01*
X160179185Y-134793685D01*
X160159967Y-135091967D01*
X160140750Y-135390250D01*
X159525011Y-135408383D01*
X158909273Y-135426517D01*
X158890011Y-135725883D01*
X158870750Y-136025250D01*
X158267500Y-136063958D01*
X158267500Y-136628500D01*
X160807500Y-136628500D01*
X160807500Y-137263500D01*
X156997500Y-137263500D01*
X156997500Y-135993500D01*
X157632500Y-135993500D01*
X157632500Y-135358500D01*
X158839000Y-135358500D01*
X158839000Y-134723500D01*
X159474000Y-134723500D01*
X159474000Y-133517000D01*
X158267500Y-133517000D01*
X158267500Y-134152000D01*
X156997500Y-134152000D01*
X156997500Y-133453500D01*
X157632500Y-133453500D01*
X157632500Y-132882000D01*
X160172500Y-132882000D01*
X160172500Y-133446541D01*
G37*
X160172500Y-133446541D02*
X160474125Y-133465895D01*
X160775750Y-133485250D01*
X160775750Y-134755250D01*
X160477467Y-134774467D01*
X160179185Y-134793685D01*
X160159967Y-135091967D01*
X160140750Y-135390250D01*
X159525011Y-135408383D01*
X158909273Y-135426517D01*
X158890011Y-135725883D01*
X158870750Y-136025250D01*
X158267500Y-136063958D01*
X158267500Y-136628500D01*
X160807500Y-136628500D01*
X160807500Y-137263500D01*
X156997500Y-137263500D01*
X156997500Y-135993500D01*
X157632500Y-135993500D01*
X157632500Y-135358500D01*
X158839000Y-135358500D01*
X158839000Y-134723500D01*
X159474000Y-134723500D01*
X159474000Y-133517000D01*
X158267500Y-133517000D01*
X158267500Y-134152000D01*
X156997500Y-134152000D01*
X156997500Y-133453500D01*
X157632500Y-133453500D01*
X157632500Y-132882000D01*
X160172500Y-132882000D01*
X160172500Y-133446541D01*
G36*
X167030500Y-126913000D02*
G01*
X168675697Y-126913000D01*
X168694473Y-127341625D01*
X168713250Y-127770250D01*
X169142923Y-127789050D01*
X169572597Y-127807850D01*
X169555673Y-129471800D01*
X169538750Y-131135750D01*
X168745000Y-131173560D01*
X168745000Y-130278500D01*
X167856000Y-130278500D01*
X167856000Y-128564000D01*
X167030500Y-128564000D01*
X167030500Y-135358500D01*
X166141500Y-135358500D01*
X166141500Y-136184000D01*
X162776000Y-136184000D01*
X162776000Y-135358500D01*
X161950500Y-135358500D01*
X161950500Y-132882000D01*
X162770197Y-132882000D01*
X162788973Y-132453375D01*
X162807750Y-132024750D01*
X164061875Y-132007532D01*
X165316000Y-131990315D01*
X165316000Y-126087500D01*
X167030500Y-126087500D01*
X167030500Y-126913000D01*
G37*
X167030500Y-126913000D02*
X168675697Y-126913000D01*
X168694473Y-127341625D01*
X168713250Y-127770250D01*
X169142923Y-127789050D01*
X169572597Y-127807850D01*
X169555673Y-129471800D01*
X169538750Y-131135750D01*
X168745000Y-131173560D01*
X168745000Y-130278500D01*
X167856000Y-130278500D01*
X167856000Y-128564000D01*
X167030500Y-128564000D01*
X167030500Y-135358500D01*
X166141500Y-135358500D01*
X166141500Y-136184000D01*
X162776000Y-136184000D01*
X162776000Y-135358500D01*
X161950500Y-135358500D01*
X161950500Y-132882000D01*
X162770197Y-132882000D01*
X162788973Y-132453375D01*
X162807750Y-132024750D01*
X164061875Y-132007532D01*
X165316000Y-131990315D01*
X165316000Y-126087500D01*
X167030500Y-126087500D01*
X167030500Y-126913000D01*
G36*
X152012750Y-134755250D02*
G01*
X152012750Y-135390250D01*
X150123625Y-135407069D01*
X148234500Y-135423889D01*
X148234500Y-134721610D01*
X152012750Y-134755250D01*
G37*
X152012750Y-134755250D02*
X152012750Y-135390250D01*
X150123625Y-135407069D01*
X148234500Y-135423889D01*
X148234500Y-134721610D01*
X152012750Y-134755250D01*
G36*
X136741000Y-125833500D02*
G01*
X137566500Y-125833500D01*
X137566500Y-127484500D01*
X136741000Y-127484500D01*
X136741000Y-128310000D01*
X137566500Y-128310000D01*
X137566500Y-129961000D01*
X136741000Y-129961000D01*
X136741000Y-130786500D01*
X132613500Y-130786500D01*
X132613500Y-128310000D01*
X134264500Y-128310000D01*
X134264500Y-129961000D01*
X135915500Y-129961000D01*
X135915500Y-128310000D01*
X134264500Y-128310000D01*
X132613500Y-128310000D01*
X132613500Y-125833500D01*
X134264500Y-125833500D01*
X134264500Y-127484500D01*
X135915500Y-127484500D01*
X135915500Y-125833500D01*
X134264500Y-125833500D01*
X132613500Y-125833500D01*
X132613500Y-125008000D01*
X136741000Y-125008000D01*
X136741000Y-125833500D01*
G37*
X136741000Y-125833500D02*
X137566500Y-125833500D01*
X137566500Y-127484500D01*
X136741000Y-127484500D01*
X136741000Y-128310000D01*
X137566500Y-128310000D01*
X137566500Y-129961000D01*
X136741000Y-129961000D01*
X136741000Y-130786500D01*
X132613500Y-130786500D01*
X132613500Y-128310000D01*
X134264500Y-128310000D01*
X134264500Y-129961000D01*
X135915500Y-129961000D01*
X135915500Y-128310000D01*
X134264500Y-128310000D01*
X132613500Y-128310000D01*
X132613500Y-125833500D01*
X134264500Y-125833500D01*
X134264500Y-127484500D01*
X135915500Y-127484500D01*
X135915500Y-125833500D01*
X134264500Y-125833500D01*
X132613500Y-125833500D01*
X132613500Y-125008000D01*
X136741000Y-125008000D01*
X136741000Y-125833500D01*
G36*
X140043000Y-129961000D02*
G01*
X141694000Y-129961000D01*
X141694000Y-125008000D01*
X143345000Y-125008000D01*
X143345000Y-129961000D01*
X142519500Y-129961000D01*
X142519500Y-130786500D01*
X139217500Y-130786500D01*
X139217500Y-129961000D01*
X138392000Y-129961000D01*
X138392000Y-125008000D01*
X140043000Y-125008000D01*
X140043000Y-129961000D01*
G37*
X140043000Y-129961000D02*
X141694000Y-129961000D01*
X141694000Y-125008000D01*
X143345000Y-125008000D01*
X143345000Y-129961000D01*
X142519500Y-129961000D01*
X142519500Y-130786500D01*
X139217500Y-130786500D01*
X139217500Y-129961000D01*
X138392000Y-129961000D01*
X138392000Y-125008000D01*
X140043000Y-125008000D01*
X140043000Y-129961000D01*
G36*
X145821500Y-129961000D02*
G01*
X149123500Y-129961000D01*
X149123500Y-130786500D01*
X144170500Y-130786500D01*
X144170500Y-125008000D01*
X145821500Y-125008000D01*
X145821500Y-129961000D01*
G37*
X145821500Y-129961000D02*
X149123500Y-129961000D01*
X149123500Y-130786500D01*
X144170500Y-130786500D01*
X144170500Y-125008000D01*
X145821500Y-125008000D01*
X145821500Y-129961000D01*
G36*
X151600000Y-126659000D02*
G01*
X152425500Y-126659000D01*
X152425500Y-125833500D01*
X153251000Y-125833500D01*
X153251000Y-125008000D01*
X154902000Y-125008000D01*
X154902000Y-125833500D01*
X154076500Y-125833500D01*
X154076500Y-126659000D01*
X153251000Y-126659000D01*
X153251000Y-127484500D01*
X152425500Y-127484500D01*
X152425500Y-128310000D01*
X153251000Y-128310000D01*
X153251000Y-129135500D01*
X154076500Y-129135500D01*
X154076500Y-129961000D01*
X154902000Y-129961000D01*
X154902000Y-130786500D01*
X153251000Y-130786500D01*
X153251000Y-129961000D01*
X152425500Y-129961000D01*
X152425500Y-129135500D01*
X151600000Y-129135500D01*
X151600000Y-130786500D01*
X149949000Y-130786500D01*
X149949000Y-125008000D01*
X151600000Y-125008000D01*
X151600000Y-126659000D01*
G37*
X151600000Y-126659000D02*
X152425500Y-126659000D01*
X152425500Y-125833500D01*
X153251000Y-125833500D01*
X153251000Y-125008000D01*
X154902000Y-125008000D01*
X154902000Y-125833500D01*
X154076500Y-125833500D01*
X154076500Y-126659000D01*
X153251000Y-126659000D01*
X153251000Y-127484500D01*
X152425500Y-127484500D01*
X152425500Y-128310000D01*
X153251000Y-128310000D01*
X153251000Y-129135500D01*
X154076500Y-129135500D01*
X154076500Y-129961000D01*
X154902000Y-129961000D01*
X154902000Y-130786500D01*
X153251000Y-130786500D01*
X153251000Y-129961000D01*
X152425500Y-129961000D01*
X152425500Y-129135500D01*
X151600000Y-129135500D01*
X151600000Y-130786500D01*
X149949000Y-130786500D01*
X149949000Y-125008000D01*
X151600000Y-125008000D01*
X151600000Y-126659000D01*
G36*
X157378500Y-127484500D02*
G01*
X159029500Y-127484500D01*
X159029500Y-125008000D01*
X160680500Y-125008000D01*
X160680500Y-127484500D01*
X159855000Y-127484500D01*
X159855000Y-128310000D01*
X159029500Y-128310000D01*
X159029500Y-130786500D01*
X157378500Y-130786500D01*
X157378500Y-128310000D01*
X156553000Y-128310000D01*
X156553000Y-127484500D01*
X155727500Y-127484500D01*
X155727500Y-125008000D01*
X157378500Y-125008000D01*
X157378500Y-127484500D01*
G37*
X157378500Y-127484500D02*
X159029500Y-127484500D01*
X159029500Y-125008000D01*
X160680500Y-125008000D01*
X160680500Y-127484500D01*
X159855000Y-127484500D01*
X159855000Y-128310000D01*
X159029500Y-128310000D01*
X159029500Y-130786500D01*
X157378500Y-130786500D01*
X157378500Y-128310000D01*
X156553000Y-128310000D01*
X156553000Y-127484500D01*
X155727500Y-127484500D01*
X155727500Y-125008000D01*
X157378500Y-125008000D01*
X157378500Y-127484500D01*
D12*
X146710000Y-84649000D02*
X146710000Y-87389000D01*
X146710000Y-87389000D02*
X153250000Y-87389000D01*
X153250000Y-87389000D02*
X153250000Y-84649000D01*
X153250000Y-84649000D02*
X146710000Y-84649000D01*
X145940000Y-86019000D02*
X146710000Y-86019000D01*
X154020000Y-86019000D02*
X153250000Y-86019000D01*
X158775000Y-59884000D02*
X158775000Y-62624000D01*
X158775000Y-62624000D02*
X165315000Y-62624000D01*
X165315000Y-62624000D02*
X165315000Y-59884000D01*
X165315000Y-59884000D02*
X158775000Y-59884000D01*
X158005000Y-61254000D02*
X158775000Y-61254000D01*
X166085000Y-61254000D02*
X165315000Y-61254000D01*
X160240000Y-107514000D02*
X157500000Y-107514000D01*
X157500000Y-107514000D02*
X157500000Y-114054000D01*
X157500000Y-114054000D02*
X160240000Y-114054000D01*
X160240000Y-114054000D02*
X160240000Y-107514000D01*
X158870000Y-106744000D02*
X158870000Y-107514000D01*
X158870000Y-114824000D02*
X158870000Y-114054000D01*
D13*
X132073000Y-91416500D02*
X132073000Y-91162500D01*
X136010000Y-95480500D02*
X136010000Y-91162500D01*
X135629000Y-91416500D02*
X135629000Y-91162500D01*
X135629000Y-91162500D02*
X132073000Y-91162500D01*
X131692000Y-91162500D02*
X131692000Y-95480500D01*
X132073000Y-95226500D02*
X132073000Y-95480500D01*
X132073000Y-95480500D02*
X135629000Y-95480500D01*
X135629000Y-95226500D02*
X135629000Y-95480500D01*
X182873000Y-76176500D02*
X182873000Y-75922500D01*
X186810000Y-80240500D02*
X186810000Y-75922500D01*
X186429000Y-76176500D02*
X186429000Y-75922500D01*
X186429000Y-75922500D02*
X182873000Y-75922500D01*
X182492000Y-75922500D02*
X182492000Y-80240500D01*
X182873000Y-79986500D02*
X182873000Y-80240500D01*
X182873000Y-80240500D02*
X186429000Y-80240500D01*
X186429000Y-79986500D02*
X186429000Y-80240500D01*
X132073000Y-113641500D02*
X132073000Y-113387500D01*
X136010000Y-117705500D02*
X136010000Y-113387500D01*
X135629000Y-113641500D02*
X135629000Y-113387500D01*
X135629000Y-113387500D02*
X132073000Y-113387500D01*
X131692000Y-113387500D02*
X131692000Y-117705500D01*
X132073000Y-117451500D02*
X132073000Y-117705500D01*
X132073000Y-117705500D02*
X135629000Y-117705500D01*
X135629000Y-117451500D02*
X135629000Y-117705500D01*
D12*
X174080000Y-144167000D02*
G75*
G03*
X177140000Y-141107000I0J3060000D01*
G01*
X121020000Y-141107000D02*
G75*
G03*
X124080000Y-144167000I3060000J0D01*
G01*
X177140000Y-81919000D02*
G75*
G03*
X174080000Y-78859000I-3060000J0D01*
G01*
X124080000Y-78859000D02*
G75*
G03*
X121020000Y-81919000I0J-3060000D01*
G01*
X174080000Y-144167000D02*
X124080000Y-144167000D01*
X140670000Y-144167000D02*
X137490000Y-144167000D01*
X159020000Y-144167000D02*
X155490000Y-144167000D01*
X177140000Y-135479000D02*
X177140000Y-141107000D01*
X179640000Y-135479000D02*
X177140000Y-135479000D01*
X179640000Y-129359000D02*
X179640000Y-135479000D01*
X177140000Y-129359000D02*
X179640000Y-129359000D01*
X177140000Y-118229000D02*
X177140000Y-129359000D01*
X178640000Y-118229000D02*
X177140000Y-118229000D01*
X178640000Y-103609000D02*
X178640000Y-118229000D01*
X177140000Y-103609000D02*
X178640000Y-103609000D01*
X177140000Y-93579000D02*
X177140000Y-103609000D01*
X178340000Y-93579000D02*
X177140000Y-93579000D01*
X178340000Y-85459000D02*
X178340000Y-93579000D01*
X177140000Y-85459000D02*
X178340000Y-85459000D01*
X177140000Y-81919000D02*
X177140000Y-85459000D01*
X154640000Y-76359000D02*
X143520000Y-76359000D01*
X143520000Y-76359000D02*
X143520000Y-78859000D01*
X154640000Y-78859000D02*
X154640000Y-76359000D01*
X174080000Y-78859000D02*
X154640000Y-78859000D01*
X121020000Y-141107000D02*
X121020000Y-81919000D01*
X124080000Y-78859000D02*
X143520000Y-78859000D01*
X121980000Y-136879000D02*
X127180000Y-136879000D01*
X127180000Y-88559000D02*
X127180000Y-136879000D01*
X127180000Y-85959000D02*
X127180000Y-87289000D01*
X125850000Y-85959000D02*
X127180000Y-85959000D01*
X124580000Y-88559000D02*
X127180000Y-88559000D01*
X124580000Y-85959000D02*
X124580000Y-88559000D01*
X121980000Y-85959000D02*
X124580000Y-85959000D01*
X121980000Y-85959000D02*
X121980000Y-136879000D01*
X161310000Y-114054000D02*
X164050000Y-114054000D01*
X164050000Y-114054000D02*
X164050000Y-107514000D01*
X164050000Y-107514000D02*
X161310000Y-107514000D01*
X161310000Y-107514000D02*
X161310000Y-114054000D01*
X162680000Y-114824000D02*
X162680000Y-114054000D01*
X162680000Y-106744000D02*
X162680000Y-107514000D01*
X167030000Y-120209000D02*
X167030000Y-122949000D01*
X167030000Y-122949000D02*
X173570000Y-122949000D01*
X173570000Y-122949000D02*
X173570000Y-120209000D01*
X173570000Y-120209000D02*
X167030000Y-120209000D01*
X166260000Y-121579000D02*
X167030000Y-121579000D01*
X174340000Y-121579000D02*
X173570000Y-121579000D01*
X140555000Y-64334000D02*
X137815000Y-64334000D01*
X137815000Y-64334000D02*
X137815000Y-70874000D01*
X137815000Y-70874000D02*
X140555000Y-70874000D01*
X140555000Y-70874000D02*
X140555000Y-64334000D01*
X139185000Y-63564000D02*
X139185000Y-64334000D01*
X139185000Y-71644000D02*
X139185000Y-70874000D01*
X121945000Y-75495000D02*
X121945000Y-78235000D01*
X121945000Y-78235000D02*
X128485000Y-78235000D01*
X128485000Y-78235000D02*
X128485000Y-75495000D01*
X128485000Y-75495000D02*
X121945000Y-75495000D01*
X121175000Y-76865000D02*
X121945000Y-76865000D01*
X129255000Y-76865000D02*
X128485000Y-76865000D01*
X131030000Y-97354000D02*
X128290000Y-97354000D01*
X128290000Y-97354000D02*
X128290000Y-103894000D01*
X128290000Y-103894000D02*
X131030000Y-103894000D01*
X131030000Y-103894000D02*
X131030000Y-97354000D01*
X129660000Y-96584000D02*
X129660000Y-97354000D01*
X129660000Y-104664000D02*
X129660000Y-103894000D01*
X156430000Y-107514000D02*
X153690000Y-107514000D01*
X153690000Y-107514000D02*
X153690000Y-114054000D01*
X153690000Y-114054000D02*
X156430000Y-114054000D01*
X156430000Y-114054000D02*
X156430000Y-107514000D01*
X155060000Y-106744000D02*
X155060000Y-107514000D01*
X155060000Y-114824000D02*
X155060000Y-114054000D01*
X184660000Y-102834000D02*
X184660000Y-131434000D01*
X186160000Y-132934000D02*
X200160000Y-132934000D01*
X201660000Y-131434000D02*
X201660000Y-102834000D01*
X200160000Y-101334000D02*
X186160000Y-101334000D01*
X203160000Y-104234000D02*
X203160000Y-108934000D01*
X203160000Y-108934000D02*
X189160000Y-108934000D01*
X189160000Y-108934000D02*
X189160000Y-104234000D01*
X189160000Y-104234000D02*
X203160000Y-104234000D01*
X186160000Y-132934000D02*
G75*
G02*
X184660000Y-131434000I0J1500000D01*
G01*
X201660000Y-131434000D02*
G75*
G02*
X200160000Y-132934000I-1500000J0D01*
G01*
X200160000Y-101334000D02*
G75*
G02*
X201660000Y-102834000I0J-1500000D01*
G01*
X184660000Y-102834000D02*
G75*
G02*
X186160000Y-101334000I1500000J0D01*
G01*
D14*
X111676800Y-129295000D02*
X113454800Y-129295000D01*
X111676800Y-123495000D02*
X113454800Y-123495000D01*
X113454800Y-78495000D02*
X111676800Y-78495000D01*
X113454800Y-72695000D02*
X111676800Y-72695000D01*
X113454800Y-52045000D02*
X111676800Y-52045000D01*
X113454800Y-149945000D02*
X111676800Y-149945000D01*
X111676800Y-52045000D02*
X111676800Y-149945000D01*
X113454800Y-52045000D02*
X113454800Y-149945000D01*
X114343800Y-100995000D02*
X112565800Y-100995000D01*
D13*
X202803000Y-60746000D02*
X202803000Y-61762000D01*
X196583000Y-61762000D02*
X202803000Y-61762000D01*
X193281000Y-61762000D02*
X192389000Y-61762000D01*
X193281000Y-60746000D02*
X192389000Y-60746000D01*
X203057000Y-61000000D02*
X202803000Y-60746000D01*
X202803000Y-60746000D02*
X196583000Y-60746000D01*
X202803000Y-61762000D02*
X203057000Y-61508000D01*
X203057000Y-61508000D02*
X203057000Y-61000000D01*
X193281000Y-64302000D02*
X192389000Y-64302000D01*
X193281000Y-63286000D02*
X192389000Y-63286000D01*
X202803000Y-63286000D02*
X202803000Y-64302000D01*
X203057000Y-63540000D02*
X202803000Y-63286000D01*
X202803000Y-64302000D02*
X203057000Y-64048000D01*
X203057000Y-64048000D02*
X203057000Y-63540000D01*
X202803000Y-63286000D02*
X196583000Y-63286000D01*
X196583000Y-64302000D02*
X202803000Y-64302000D01*
X193281000Y-68366000D02*
X192389000Y-68366000D01*
X193281000Y-65826000D02*
X192389000Y-65826000D01*
X196583000Y-66842000D02*
X202803000Y-66842000D01*
X193281000Y-66842000D02*
X192389000Y-66842000D01*
X202803000Y-65826000D02*
X196583000Y-65826000D01*
X202803000Y-69382000D02*
X202803000Y-68366000D01*
X202803000Y-66842000D02*
X203057000Y-66588000D01*
X202803000Y-65826000D02*
X202803000Y-66842000D01*
X203057000Y-66080000D02*
X202803000Y-65826000D01*
X203057000Y-66588000D02*
X203057000Y-66080000D01*
X202803000Y-69382000D02*
X196583000Y-69382000D01*
X203057000Y-69128000D02*
X202803000Y-69382000D01*
X203057000Y-68874000D02*
X203057000Y-69128000D01*
X203057000Y-68620000D02*
X203057000Y-68874000D01*
X202803000Y-68366000D02*
X203057000Y-68620000D01*
X196583000Y-68366000D02*
X202803000Y-68366000D01*
X192389000Y-69382000D02*
X193281000Y-69382000D01*
X204581000Y-68112000D02*
X204581000Y-62016000D01*
X203057000Y-61254000D02*
X203819000Y-61254000D01*
X203057000Y-68874000D02*
X203819000Y-68874000D01*
D12*
X196581000Y-59984000D02*
X196581000Y-70144000D01*
X193281000Y-59984000D02*
X196581000Y-59984000D01*
X193281000Y-70144000D02*
X193281000Y-59984000D01*
X193281000Y-70144000D02*
X196581000Y-70144000D01*
D13*
X204581000Y-68112000D02*
G75*
G02*
X203819000Y-68874000I-762000J0D01*
G01*
X203819000Y-61254000D02*
G75*
G02*
X204581000Y-62016000I0J-762000D01*
G01*
D12*
X129175000Y-61404000D02*
X136415000Y-61404000D01*
X129175000Y-63644000D02*
X136415000Y-63644000D01*
X129175000Y-61404000D02*
X129175000Y-63644000D01*
X136415000Y-61404000D02*
X136415000Y-63644000D01*
X189835000Y-133794000D02*
X189835000Y-141034000D01*
X187595000Y-133794000D02*
X187595000Y-141034000D01*
X189835000Y-133794000D02*
X187595000Y-133794000D01*
X189835000Y-141034000D02*
X187595000Y-141034000D01*
X197065000Y-137434000D02*
G75*
G03*
X197065000Y-137434000I-3270000J0D01*
G01*
X197025000Y-137434000D02*
X190565000Y-137434000D01*
X197025000Y-137474000D02*
X190565000Y-137474000D01*
X197025000Y-137514000D02*
X190565000Y-137514000D01*
X197023000Y-137554000D02*
X190567000Y-137554000D01*
X197022000Y-137594000D02*
X190568000Y-137594000D01*
X197019000Y-137634000D02*
X190571000Y-137634000D01*
X197017000Y-137674000D02*
X194835000Y-137674000D01*
X192755000Y-137674000D02*
X190573000Y-137674000D01*
X197013000Y-137714000D02*
X194835000Y-137714000D01*
X192755000Y-137714000D02*
X190577000Y-137714000D01*
X197010000Y-137754000D02*
X194835000Y-137754000D01*
X192755000Y-137754000D02*
X190580000Y-137754000D01*
X197006000Y-137794000D02*
X194835000Y-137794000D01*
X192755000Y-137794000D02*
X190584000Y-137794000D01*
X197001000Y-137834000D02*
X194835000Y-137834000D01*
X192755000Y-137834000D02*
X190589000Y-137834000D01*
X196996000Y-137874000D02*
X194835000Y-137874000D01*
X192755000Y-137874000D02*
X190594000Y-137874000D01*
X196990000Y-137914000D02*
X194835000Y-137914000D01*
X192755000Y-137914000D02*
X190600000Y-137914000D01*
X196984000Y-137954000D02*
X194835000Y-137954000D01*
X192755000Y-137954000D02*
X190606000Y-137954000D01*
X196977000Y-137994000D02*
X194835000Y-137994000D01*
X192755000Y-137994000D02*
X190613000Y-137994000D01*
X196970000Y-138034000D02*
X194835000Y-138034000D01*
X192755000Y-138034000D02*
X190620000Y-138034000D01*
X196962000Y-138074000D02*
X194835000Y-138074000D01*
X192755000Y-138074000D02*
X190628000Y-138074000D01*
X196954000Y-138114000D02*
X194835000Y-138114000D01*
X192755000Y-138114000D02*
X190636000Y-138114000D01*
X196945000Y-138155000D02*
X194835000Y-138155000D01*
X192755000Y-138155000D02*
X190645000Y-138155000D01*
X196936000Y-138195000D02*
X194835000Y-138195000D01*
X192755000Y-138195000D02*
X190654000Y-138195000D01*
X196926000Y-138235000D02*
X194835000Y-138235000D01*
X192755000Y-138235000D02*
X190664000Y-138235000D01*
X196916000Y-138275000D02*
X194835000Y-138275000D01*
X192755000Y-138275000D02*
X190674000Y-138275000D01*
X196905000Y-138315000D02*
X194835000Y-138315000D01*
X192755000Y-138315000D02*
X190685000Y-138315000D01*
X196893000Y-138355000D02*
X194835000Y-138355000D01*
X192755000Y-138355000D02*
X190697000Y-138355000D01*
X196881000Y-138395000D02*
X194835000Y-138395000D01*
X192755000Y-138395000D02*
X190709000Y-138395000D01*
X196869000Y-138435000D02*
X194835000Y-138435000D01*
X192755000Y-138435000D02*
X190721000Y-138435000D01*
X196856000Y-138475000D02*
X194835000Y-138475000D01*
X192755000Y-138475000D02*
X190734000Y-138475000D01*
X196842000Y-138515000D02*
X194835000Y-138515000D01*
X192755000Y-138515000D02*
X190748000Y-138515000D01*
X196828000Y-138555000D02*
X194835000Y-138555000D01*
X192755000Y-138555000D02*
X190762000Y-138555000D01*
X196813000Y-138595000D02*
X194835000Y-138595000D01*
X192755000Y-138595000D02*
X190777000Y-138595000D01*
X196797000Y-138635000D02*
X194835000Y-138635000D01*
X192755000Y-138635000D02*
X190793000Y-138635000D01*
X196781000Y-138675000D02*
X194835000Y-138675000D01*
X192755000Y-138675000D02*
X190809000Y-138675000D01*
X196765000Y-138715000D02*
X194835000Y-138715000D01*
X192755000Y-138715000D02*
X190825000Y-138715000D01*
X196747000Y-138755000D02*
X194835000Y-138755000D01*
X192755000Y-138755000D02*
X190843000Y-138755000D01*
X196729000Y-138795000D02*
X194835000Y-138795000D01*
X192755000Y-138795000D02*
X190861000Y-138795000D01*
X196711000Y-138835000D02*
X194835000Y-138835000D01*
X192755000Y-138835000D02*
X190879000Y-138835000D01*
X196691000Y-138875000D02*
X194835000Y-138875000D01*
X192755000Y-138875000D02*
X190899000Y-138875000D01*
X196671000Y-138915000D02*
X194835000Y-138915000D01*
X192755000Y-138915000D02*
X190919000Y-138915000D01*
X196651000Y-138955000D02*
X194835000Y-138955000D01*
X192755000Y-138955000D02*
X190939000Y-138955000D01*
X196629000Y-138995000D02*
X194835000Y-138995000D01*
X192755000Y-138995000D02*
X190961000Y-138995000D01*
X196607000Y-139035000D02*
X194835000Y-139035000D01*
X192755000Y-139035000D02*
X190983000Y-139035000D01*
X196585000Y-139075000D02*
X194835000Y-139075000D01*
X192755000Y-139075000D02*
X191005000Y-139075000D01*
X196561000Y-139115000D02*
X194835000Y-139115000D01*
X192755000Y-139115000D02*
X191029000Y-139115000D01*
X196537000Y-139155000D02*
X194835000Y-139155000D01*
X192755000Y-139155000D02*
X191053000Y-139155000D01*
X196511000Y-139195000D02*
X194835000Y-139195000D01*
X192755000Y-139195000D02*
X191079000Y-139195000D01*
X196485000Y-139235000D02*
X194835000Y-139235000D01*
X192755000Y-139235000D02*
X191105000Y-139235000D01*
X196459000Y-139275000D02*
X194835000Y-139275000D01*
X192755000Y-139275000D02*
X191131000Y-139275000D01*
X196431000Y-139315000D02*
X194835000Y-139315000D01*
X192755000Y-139315000D02*
X191159000Y-139315000D01*
X196402000Y-139355000D02*
X194835000Y-139355000D01*
X192755000Y-139355000D02*
X191188000Y-139355000D01*
X196373000Y-139395000D02*
X194835000Y-139395000D01*
X192755000Y-139395000D02*
X191217000Y-139395000D01*
X196343000Y-139435000D02*
X194835000Y-139435000D01*
X192755000Y-139435000D02*
X191247000Y-139435000D01*
X196311000Y-139475000D02*
X194835000Y-139475000D01*
X192755000Y-139475000D02*
X191279000Y-139475000D01*
X196279000Y-139515000D02*
X194835000Y-139515000D01*
X192755000Y-139515000D02*
X191311000Y-139515000D01*
X196245000Y-139555000D02*
X194835000Y-139555000D01*
X192755000Y-139555000D02*
X191345000Y-139555000D01*
X196211000Y-139595000D02*
X194835000Y-139595000D01*
X192755000Y-139595000D02*
X191379000Y-139595000D01*
X196175000Y-139635000D02*
X194835000Y-139635000D01*
X192755000Y-139635000D02*
X191415000Y-139635000D01*
X196138000Y-139675000D02*
X194835000Y-139675000D01*
X192755000Y-139675000D02*
X191452000Y-139675000D01*
X196100000Y-139715000D02*
X194835000Y-139715000D01*
X192755000Y-139715000D02*
X191490000Y-139715000D01*
X196060000Y-139755000D02*
X191530000Y-139755000D01*
X196019000Y-139795000D02*
X191571000Y-139795000D01*
X195977000Y-139835000D02*
X191613000Y-139835000D01*
X195932000Y-139875000D02*
X191658000Y-139875000D01*
X195887000Y-139915000D02*
X191703000Y-139915000D01*
X195839000Y-139955000D02*
X191751000Y-139955000D01*
X195790000Y-139995000D02*
X191800000Y-139995000D01*
X195739000Y-140035000D02*
X191851000Y-140035000D01*
X195685000Y-140075000D02*
X191905000Y-140075000D01*
X195629000Y-140115000D02*
X191961000Y-140115000D01*
X195571000Y-140155000D02*
X192019000Y-140155000D01*
X195509000Y-140195000D02*
X192081000Y-140195000D01*
X195445000Y-140235000D02*
X192145000Y-140235000D01*
X195376000Y-140275000D02*
X192214000Y-140275000D01*
X195304000Y-140315000D02*
X192286000Y-140315000D01*
X195227000Y-140355000D02*
X192363000Y-140355000D01*
X195145000Y-140395000D02*
X192445000Y-140395000D01*
X195057000Y-140435000D02*
X192533000Y-140435000D01*
X194960000Y-140475000D02*
X192630000Y-140475000D01*
X194854000Y-140515000D02*
X192736000Y-140515000D01*
X194735000Y-140555000D02*
X192855000Y-140555000D01*
X194597000Y-140595000D02*
X192993000Y-140595000D01*
X194428000Y-140635000D02*
X193162000Y-140635000D01*
X194197000Y-140675000D02*
X193393000Y-140675000D01*
X195634000Y-133933759D02*
X195634000Y-134563759D01*
X195949000Y-134248759D02*
X195319000Y-134248759D01*
X187755000Y-63004000D02*
G75*
G03*
X187755000Y-63004000I-4120000J0D01*
G01*
X187715000Y-63004000D02*
X179555000Y-63004000D01*
X187715000Y-63044000D02*
X179555000Y-63044000D01*
X187715000Y-63084000D02*
X179555000Y-63084000D01*
X187714000Y-63124000D02*
X179556000Y-63124000D01*
X187712000Y-63164000D02*
X179558000Y-63164000D01*
X187711000Y-63204000D02*
X179559000Y-63204000D01*
X187709000Y-63244000D02*
X179561000Y-63244000D01*
X187706000Y-63284000D02*
X179564000Y-63284000D01*
X187703000Y-63324000D02*
X179567000Y-63324000D01*
X187700000Y-63364000D02*
X179570000Y-63364000D01*
X187696000Y-63404000D02*
X179574000Y-63404000D01*
X187692000Y-63444000D02*
X179578000Y-63444000D01*
X187687000Y-63484000D02*
X179583000Y-63484000D01*
X187683000Y-63524000D02*
X179587000Y-63524000D01*
X187677000Y-63564000D02*
X179593000Y-63564000D01*
X187672000Y-63604000D02*
X179598000Y-63604000D01*
X187665000Y-63644000D02*
X179605000Y-63644000D01*
X187659000Y-63684000D02*
X179611000Y-63684000D01*
X187652000Y-63725000D02*
X184675000Y-63725000D01*
X182595000Y-63725000D02*
X179618000Y-63725000D01*
X187645000Y-63765000D02*
X184675000Y-63765000D01*
X182595000Y-63765000D02*
X179625000Y-63765000D01*
X187637000Y-63805000D02*
X184675000Y-63805000D01*
X182595000Y-63805000D02*
X179633000Y-63805000D01*
X187629000Y-63845000D02*
X184675000Y-63845000D01*
X182595000Y-63845000D02*
X179641000Y-63845000D01*
X187620000Y-63885000D02*
X184675000Y-63885000D01*
X182595000Y-63885000D02*
X179650000Y-63885000D01*
X187611000Y-63925000D02*
X184675000Y-63925000D01*
X182595000Y-63925000D02*
X179659000Y-63925000D01*
X187602000Y-63965000D02*
X184675000Y-63965000D01*
X182595000Y-63965000D02*
X179668000Y-63965000D01*
X187592000Y-64005000D02*
X184675000Y-64005000D01*
X182595000Y-64005000D02*
X179678000Y-64005000D01*
X187582000Y-64045000D02*
X184675000Y-64045000D01*
X182595000Y-64045000D02*
X179688000Y-64045000D01*
X187571000Y-64085000D02*
X184675000Y-64085000D01*
X182595000Y-64085000D02*
X179699000Y-64085000D01*
X187560000Y-64125000D02*
X184675000Y-64125000D01*
X182595000Y-64125000D02*
X179710000Y-64125000D01*
X187549000Y-64165000D02*
X184675000Y-64165000D01*
X182595000Y-64165000D02*
X179721000Y-64165000D01*
X187537000Y-64205000D02*
X184675000Y-64205000D01*
X182595000Y-64205000D02*
X179733000Y-64205000D01*
X187524000Y-64245000D02*
X184675000Y-64245000D01*
X182595000Y-64245000D02*
X179746000Y-64245000D01*
X187512000Y-64285000D02*
X184675000Y-64285000D01*
X182595000Y-64285000D02*
X179758000Y-64285000D01*
X187498000Y-64325000D02*
X184675000Y-64325000D01*
X182595000Y-64325000D02*
X179772000Y-64325000D01*
X187485000Y-64365000D02*
X184675000Y-64365000D01*
X182595000Y-64365000D02*
X179785000Y-64365000D01*
X187470000Y-64405000D02*
X184675000Y-64405000D01*
X182595000Y-64405000D02*
X179800000Y-64405000D01*
X187456000Y-64445000D02*
X184675000Y-64445000D01*
X182595000Y-64445000D02*
X179814000Y-64445000D01*
X187440000Y-64485000D02*
X184675000Y-64485000D01*
X182595000Y-64485000D02*
X179830000Y-64485000D01*
X187425000Y-64525000D02*
X184675000Y-64525000D01*
X182595000Y-64525000D02*
X179845000Y-64525000D01*
X187409000Y-64565000D02*
X184675000Y-64565000D01*
X182595000Y-64565000D02*
X179861000Y-64565000D01*
X187392000Y-64605000D02*
X184675000Y-64605000D01*
X182595000Y-64605000D02*
X179878000Y-64605000D01*
X187375000Y-64645000D02*
X184675000Y-64645000D01*
X182595000Y-64645000D02*
X179895000Y-64645000D01*
X187357000Y-64685000D02*
X184675000Y-64685000D01*
X182595000Y-64685000D02*
X179913000Y-64685000D01*
X187339000Y-64725000D02*
X184675000Y-64725000D01*
X182595000Y-64725000D02*
X179931000Y-64725000D01*
X187321000Y-64765000D02*
X184675000Y-64765000D01*
X182595000Y-64765000D02*
X179949000Y-64765000D01*
X187301000Y-64805000D02*
X184675000Y-64805000D01*
X182595000Y-64805000D02*
X179969000Y-64805000D01*
X187282000Y-64845000D02*
X184675000Y-64845000D01*
X182595000Y-64845000D02*
X179988000Y-64845000D01*
X187262000Y-64885000D02*
X184675000Y-64885000D01*
X182595000Y-64885000D02*
X180008000Y-64885000D01*
X187241000Y-64925000D02*
X184675000Y-64925000D01*
X182595000Y-64925000D02*
X180029000Y-64925000D01*
X187219000Y-64965000D02*
X184675000Y-64965000D01*
X182595000Y-64965000D02*
X180051000Y-64965000D01*
X187197000Y-65005000D02*
X184675000Y-65005000D01*
X182595000Y-65005000D02*
X180073000Y-65005000D01*
X187175000Y-65045000D02*
X184675000Y-65045000D01*
X182595000Y-65045000D02*
X180095000Y-65045000D01*
X187152000Y-65085000D02*
X184675000Y-65085000D01*
X182595000Y-65085000D02*
X180118000Y-65085000D01*
X187128000Y-65125000D02*
X184675000Y-65125000D01*
X182595000Y-65125000D02*
X180142000Y-65125000D01*
X187104000Y-65165000D02*
X184675000Y-65165000D01*
X182595000Y-65165000D02*
X180166000Y-65165000D01*
X187079000Y-65205000D02*
X184675000Y-65205000D01*
X182595000Y-65205000D02*
X180191000Y-65205000D01*
X187053000Y-65245000D02*
X184675000Y-65245000D01*
X182595000Y-65245000D02*
X180217000Y-65245000D01*
X187027000Y-65285000D02*
X184675000Y-65285000D01*
X182595000Y-65285000D02*
X180243000Y-65285000D01*
X187000000Y-65325000D02*
X184675000Y-65325000D01*
X182595000Y-65325000D02*
X180270000Y-65325000D01*
X186973000Y-65365000D02*
X184675000Y-65365000D01*
X182595000Y-65365000D02*
X180297000Y-65365000D01*
X186944000Y-65405000D02*
X184675000Y-65405000D01*
X182595000Y-65405000D02*
X180326000Y-65405000D01*
X186915000Y-65445000D02*
X184675000Y-65445000D01*
X182595000Y-65445000D02*
X180355000Y-65445000D01*
X186885000Y-65485000D02*
X184675000Y-65485000D01*
X182595000Y-65485000D02*
X180385000Y-65485000D01*
X186855000Y-65525000D02*
X184675000Y-65525000D01*
X182595000Y-65525000D02*
X180415000Y-65525000D01*
X186824000Y-65565000D02*
X184675000Y-65565000D01*
X182595000Y-65565000D02*
X180446000Y-65565000D01*
X186791000Y-65605000D02*
X184675000Y-65605000D01*
X182595000Y-65605000D02*
X180479000Y-65605000D01*
X186759000Y-65645000D02*
X184675000Y-65645000D01*
X182595000Y-65645000D02*
X180511000Y-65645000D01*
X186725000Y-65685000D02*
X184675000Y-65685000D01*
X182595000Y-65685000D02*
X180545000Y-65685000D01*
X186690000Y-65725000D02*
X184675000Y-65725000D01*
X182595000Y-65725000D02*
X180580000Y-65725000D01*
X186654000Y-65765000D02*
X184675000Y-65765000D01*
X182595000Y-65765000D02*
X180616000Y-65765000D01*
X186618000Y-65805000D02*
X180652000Y-65805000D01*
X186580000Y-65845000D02*
X180690000Y-65845000D01*
X186542000Y-65885000D02*
X180728000Y-65885000D01*
X186502000Y-65925000D02*
X180768000Y-65925000D01*
X186461000Y-65965000D02*
X180809000Y-65965000D01*
X186419000Y-66005000D02*
X180851000Y-66005000D01*
X186376000Y-66045000D02*
X180894000Y-66045000D01*
X186332000Y-66085000D02*
X180938000Y-66085000D01*
X186286000Y-66125000D02*
X180984000Y-66125000D01*
X186239000Y-66165000D02*
X181031000Y-66165000D01*
X186191000Y-66205000D02*
X181079000Y-66205000D01*
X186140000Y-66245000D02*
X181130000Y-66245000D01*
X186089000Y-66285000D02*
X181181000Y-66285000D01*
X186035000Y-66325000D02*
X181235000Y-66325000D01*
X185980000Y-66365000D02*
X181290000Y-66365000D01*
X185922000Y-66405000D02*
X181348000Y-66405000D01*
X185863000Y-66445000D02*
X181407000Y-66445000D01*
X185801000Y-66485000D02*
X181469000Y-66485000D01*
X185737000Y-66525000D02*
X181533000Y-66525000D01*
X185669000Y-66565000D02*
X181601000Y-66565000D01*
X185599000Y-66605000D02*
X181671000Y-66605000D01*
X185525000Y-66645000D02*
X181745000Y-66645000D01*
X185448000Y-66685000D02*
X181822000Y-66685000D01*
X185366000Y-66725000D02*
X181904000Y-66725000D01*
X185280000Y-66765000D02*
X181990000Y-66765000D01*
X185187000Y-66805000D02*
X182083000Y-66805000D01*
X185088000Y-66845000D02*
X182182000Y-66845000D01*
X184981000Y-66885000D02*
X182289000Y-66885000D01*
X184864000Y-66925000D02*
X182406000Y-66925000D01*
X184733000Y-66965000D02*
X182537000Y-66965000D01*
X184583000Y-67005000D02*
X182687000Y-67005000D01*
X184403000Y-67045000D02*
X182867000Y-67045000D01*
X184168000Y-67085000D02*
X183102000Y-67085000D01*
X185950000Y-58594302D02*
X185950000Y-59394302D01*
X186350000Y-58994302D02*
X185550000Y-58994302D01*
X125365000Y-71629000D02*
X127605000Y-71629000D01*
X127605000Y-71629000D02*
X127605000Y-67389000D01*
X127605000Y-67389000D02*
X125365000Y-67389000D01*
X125365000Y-67389000D02*
X125365000Y-71629000D01*
X126485000Y-72279000D02*
X126485000Y-71629000D01*
X126485000Y-66739000D02*
X126485000Y-67389000D01*
X125365000Y-70909000D02*
X127605000Y-70909000D01*
X125365000Y-70789000D02*
X127605000Y-70789000D01*
X125365000Y-71029000D02*
X127605000Y-71029000D01*
X190620000Y-87924000D02*
X191890000Y-87924000D01*
X190620000Y-89194000D02*
X190620000Y-87924000D01*
X192932929Y-97194000D02*
X193330000Y-97194000D01*
X192932929Y-96434000D02*
X193330000Y-96434000D01*
X201990000Y-97194000D02*
X195990000Y-97194000D01*
X201990000Y-96434000D02*
X201990000Y-97194000D01*
X195990000Y-96434000D02*
X201990000Y-96434000D01*
X193330000Y-95544000D02*
X195990000Y-95544000D01*
X192932929Y-94654000D02*
X193330000Y-94654000D01*
X192932929Y-93894000D02*
X193330000Y-93894000D01*
X201990000Y-94654000D02*
X195990000Y-94654000D01*
X201990000Y-93894000D02*
X201990000Y-94654000D01*
X195990000Y-93894000D02*
X201990000Y-93894000D01*
X193330000Y-93004000D02*
X195990000Y-93004000D01*
X192932929Y-92114000D02*
X193330000Y-92114000D01*
X192932929Y-91354000D02*
X193330000Y-91354000D01*
X201990000Y-92114000D02*
X195990000Y-92114000D01*
X201990000Y-91354000D02*
X201990000Y-92114000D01*
X195990000Y-91354000D02*
X201990000Y-91354000D01*
X193330000Y-90464000D02*
X195990000Y-90464000D01*
X193000000Y-89574000D02*
X193330000Y-89574000D01*
X193000000Y-88814000D02*
X193330000Y-88814000D01*
X195990000Y-89474000D02*
X201990000Y-89474000D01*
X195990000Y-89354000D02*
X201990000Y-89354000D01*
X195990000Y-89234000D02*
X201990000Y-89234000D01*
X195990000Y-89114000D02*
X201990000Y-89114000D01*
X195990000Y-88994000D02*
X201990000Y-88994000D01*
X195990000Y-88874000D02*
X201990000Y-88874000D01*
X201990000Y-89574000D02*
X195990000Y-89574000D01*
X201990000Y-88814000D02*
X201990000Y-89574000D01*
X195990000Y-88814000D02*
X201990000Y-88814000D01*
X195990000Y-87864000D02*
X193330000Y-87864000D01*
X195990000Y-98144000D02*
X195990000Y-87864000D01*
X193330000Y-98144000D02*
X195990000Y-98144000D01*
X193330000Y-87864000D02*
X193330000Y-98144000D01*
X180400000Y-111359000D02*
X181730000Y-111359000D01*
X180400000Y-112689000D02*
X180400000Y-111359000D01*
X180400000Y-113959000D02*
X183060000Y-113959000D01*
X183060000Y-113959000D02*
X183060000Y-126719000D01*
X180400000Y-113959000D02*
X180400000Y-126719000D01*
X180400000Y-126719000D02*
X183060000Y-126719000D01*
D13*
X114045001Y-88239000D02*
X114045001Y-100431000D01*
X101853001Y-88239000D02*
X114045001Y-88239000D01*
X114045001Y-100431000D02*
X101853001Y-100431000D01*
X99821001Y-96875000D02*
X99821001Y-91795000D01*
X101345001Y-89255000D02*
X101853001Y-89255000D01*
X101345001Y-99415000D02*
X101345001Y-89255000D01*
X101599001Y-99415000D02*
X101345001Y-99415000D01*
X101853001Y-99415000D02*
X101599001Y-99415000D01*
X100583001Y-96875000D02*
X100583001Y-91795000D01*
X101345001Y-91795000D02*
X99821001Y-91795000D01*
X99821001Y-96875000D02*
X101345001Y-96875000D01*
X101853001Y-88239000D02*
X101853001Y-89255000D01*
X101853001Y-99415000D02*
X101853001Y-100431000D01*
X106425001Y-90525000D02*
X106425001Y-92557000D01*
X102869001Y-90525000D02*
X106425001Y-90525000D01*
X102869001Y-98145000D02*
X102869001Y-90525000D01*
X106425001Y-98145000D02*
X102869001Y-98145000D01*
X106425001Y-96113000D02*
X106425001Y-98145000D01*
X196774999Y-75986000D02*
X196774999Y-73954000D01*
X196774999Y-73954000D02*
X200330999Y-73954000D01*
X200330999Y-73954000D02*
X200330999Y-81574000D01*
X200330999Y-81574000D02*
X196774999Y-81574000D01*
X196774999Y-81574000D02*
X196774999Y-79542000D01*
X201346999Y-72684000D02*
X201346999Y-71668000D01*
X201346999Y-83860000D02*
X201346999Y-82844000D01*
X203378999Y-75224000D02*
X201854999Y-75224000D01*
X201854999Y-80304000D02*
X203378999Y-80304000D01*
X202616999Y-75224000D02*
X202616999Y-80304000D01*
X201346999Y-72684000D02*
X201600999Y-72684000D01*
X201600999Y-72684000D02*
X201854999Y-72684000D01*
X201854999Y-72684000D02*
X201854999Y-82844000D01*
X201854999Y-82844000D02*
X201346999Y-82844000D01*
X203378999Y-75224000D02*
X203378999Y-80304000D01*
X189154999Y-71668000D02*
X201346999Y-71668000D01*
X201346999Y-83860000D02*
X189154999Y-83860000D01*
X189154999Y-83860000D02*
X189154999Y-71668000D01*
X114045001Y-101579000D02*
X114045001Y-113771000D01*
X101853001Y-101579000D02*
X114045001Y-101579000D01*
X114045001Y-113771000D02*
X101853001Y-113771000D01*
X99821001Y-110215000D02*
X99821001Y-105135000D01*
X101345001Y-102595000D02*
X101853001Y-102595000D01*
X101345001Y-112755000D02*
X101345001Y-102595000D01*
X101599001Y-112755000D02*
X101345001Y-112755000D01*
X101853001Y-112755000D02*
X101599001Y-112755000D01*
X100583001Y-110215000D02*
X100583001Y-105135000D01*
X101345001Y-105135000D02*
X99821001Y-105135000D01*
X99821001Y-110215000D02*
X101345001Y-110215000D01*
X101853001Y-101579000D02*
X101853001Y-102595000D01*
X101853001Y-112755000D02*
X101853001Y-113771000D01*
X106425001Y-103865000D02*
X106425001Y-105897000D01*
X102869001Y-103865000D02*
X106425001Y-103865000D01*
X102869001Y-111485000D02*
X102869001Y-103865000D01*
X106425001Y-111485000D02*
X102869001Y-111485000D01*
X106425001Y-109453000D02*
X106425001Y-111485000D01*
D12*
X157815000Y-72089000D02*
X157500000Y-72089000D01*
X160240000Y-72089000D02*
X159925000Y-72089000D01*
X157815000Y-66849000D02*
X157500000Y-66849000D01*
X160240000Y-66849000D02*
X159925000Y-66849000D01*
X157500000Y-66849000D02*
X157500000Y-72089000D01*
X160240000Y-66849000D02*
X160240000Y-72089000D01*
X180400000Y-95484000D02*
X181730000Y-95484000D01*
X180400000Y-96814000D02*
X180400000Y-95484000D01*
X180400000Y-98084000D02*
X183060000Y-98084000D01*
X183060000Y-98084000D02*
X183060000Y-105764000D01*
X180400000Y-98084000D02*
X180400000Y-105764000D01*
X180400000Y-105764000D02*
X183060000Y-105764000D01*
X168850000Y-53349225D02*
X168350000Y-53349225D01*
X168600000Y-53099225D02*
X168600000Y-53599225D01*
X167409000Y-58505000D02*
X166841000Y-58505000D01*
X167643000Y-58465000D02*
X166607000Y-58465000D01*
X167802000Y-58425000D02*
X166448000Y-58425000D01*
X167930000Y-58385000D02*
X166320000Y-58385000D01*
X168040000Y-58345000D02*
X166210000Y-58345000D01*
X168136000Y-58305000D02*
X166114000Y-58305000D01*
X168223000Y-58265000D02*
X166027000Y-58265000D01*
X168303000Y-58225000D02*
X165947000Y-58225000D01*
X168376000Y-58185000D02*
X165874000Y-58185000D01*
X168444000Y-58145000D02*
X165806000Y-58145000D01*
X168508000Y-58105000D02*
X165742000Y-58105000D01*
X168568000Y-58065000D02*
X165682000Y-58065000D01*
X168625000Y-58025000D02*
X165625000Y-58025000D01*
X168679000Y-57985000D02*
X165571000Y-57985000D01*
X168730000Y-57945000D02*
X165520000Y-57945000D01*
X166085000Y-57905000D02*
X165472000Y-57905000D01*
X168778000Y-57905000D02*
X168165000Y-57905000D01*
X166085000Y-57865000D02*
X165426000Y-57865000D01*
X168824000Y-57865000D02*
X168165000Y-57865000D01*
X166085000Y-57825000D02*
X165382000Y-57825000D01*
X168868000Y-57825000D02*
X168165000Y-57825000D01*
X166085000Y-57785000D02*
X165340000Y-57785000D01*
X168910000Y-57785000D02*
X168165000Y-57785000D01*
X166085000Y-57745000D02*
X165299000Y-57745000D01*
X168951000Y-57745000D02*
X168165000Y-57745000D01*
X166085000Y-57705000D02*
X165261000Y-57705000D01*
X168989000Y-57705000D02*
X168165000Y-57705000D01*
X166085000Y-57665000D02*
X165224000Y-57665000D01*
X169026000Y-57665000D02*
X168165000Y-57665000D01*
X166085000Y-57625000D02*
X165188000Y-57625000D01*
X169062000Y-57625000D02*
X168165000Y-57625000D01*
X166085000Y-57585000D02*
X165154000Y-57585000D01*
X169096000Y-57585000D02*
X168165000Y-57585000D01*
X166085000Y-57545000D02*
X165121000Y-57545000D01*
X169129000Y-57545000D02*
X168165000Y-57545000D01*
X166085000Y-57505000D02*
X165090000Y-57505000D01*
X169160000Y-57505000D02*
X168165000Y-57505000D01*
X166085000Y-57465000D02*
X165060000Y-57465000D01*
X169190000Y-57465000D02*
X168165000Y-57465000D01*
X166085000Y-57425000D02*
X165030000Y-57425000D01*
X169220000Y-57425000D02*
X168165000Y-57425000D01*
X166085000Y-57385000D02*
X165003000Y-57385000D01*
X169247000Y-57385000D02*
X168165000Y-57385000D01*
X166085000Y-57345000D02*
X164976000Y-57345000D01*
X169274000Y-57345000D02*
X168165000Y-57345000D01*
X166085000Y-57305000D02*
X164950000Y-57305000D01*
X169300000Y-57305000D02*
X168165000Y-57305000D01*
X166085000Y-57265000D02*
X164925000Y-57265000D01*
X169325000Y-57265000D02*
X168165000Y-57265000D01*
X166085000Y-57225000D02*
X164901000Y-57225000D01*
X169349000Y-57225000D02*
X168165000Y-57225000D01*
X166085000Y-57185000D02*
X164878000Y-57185000D01*
X169372000Y-57185000D02*
X168165000Y-57185000D01*
X166085000Y-57145000D02*
X164857000Y-57145000D01*
X169393000Y-57145000D02*
X168165000Y-57145000D01*
X166085000Y-57105000D02*
X164835000Y-57105000D01*
X169415000Y-57105000D02*
X168165000Y-57105000D01*
X166085000Y-57065000D02*
X164815000Y-57065000D01*
X169435000Y-57065000D02*
X168165000Y-57065000D01*
X166085000Y-57025000D02*
X164796000Y-57025000D01*
X169454000Y-57025000D02*
X168165000Y-57025000D01*
X166085000Y-56985000D02*
X164777000Y-56985000D01*
X169473000Y-56985000D02*
X168165000Y-56985000D01*
X166085000Y-56945000D02*
X164760000Y-56945000D01*
X169490000Y-56945000D02*
X168165000Y-56945000D01*
X166085000Y-56905000D02*
X164743000Y-56905000D01*
X169507000Y-56905000D02*
X168165000Y-56905000D01*
X166085000Y-56865000D02*
X164727000Y-56865000D01*
X169523000Y-56865000D02*
X168165000Y-56865000D01*
X166085000Y-56825000D02*
X164711000Y-56825000D01*
X169539000Y-56825000D02*
X168165000Y-56825000D01*
X166085000Y-56785000D02*
X164697000Y-56785000D01*
X169553000Y-56785000D02*
X168165000Y-56785000D01*
X166085000Y-56745000D02*
X164683000Y-56745000D01*
X169567000Y-56745000D02*
X168165000Y-56745000D01*
X166085000Y-56705000D02*
X164670000Y-56705000D01*
X169580000Y-56705000D02*
X168165000Y-56705000D01*
X166085000Y-56665000D02*
X164657000Y-56665000D01*
X169593000Y-56665000D02*
X168165000Y-56665000D01*
X166085000Y-56625000D02*
X164645000Y-56625000D01*
X169605000Y-56625000D02*
X168165000Y-56625000D01*
X166085000Y-56584000D02*
X164634000Y-56584000D01*
X169616000Y-56584000D02*
X168165000Y-56584000D01*
X166085000Y-56544000D02*
X164624000Y-56544000D01*
X169626000Y-56544000D02*
X168165000Y-56544000D01*
X166085000Y-56504000D02*
X164614000Y-56504000D01*
X169636000Y-56504000D02*
X168165000Y-56504000D01*
X166085000Y-56464000D02*
X164605000Y-56464000D01*
X169645000Y-56464000D02*
X168165000Y-56464000D01*
X166085000Y-56424000D02*
X164597000Y-56424000D01*
X169653000Y-56424000D02*
X168165000Y-56424000D01*
X166085000Y-56384000D02*
X164589000Y-56384000D01*
X169661000Y-56384000D02*
X168165000Y-56384000D01*
X166085000Y-56344000D02*
X164582000Y-56344000D01*
X169668000Y-56344000D02*
X168165000Y-56344000D01*
X166085000Y-56304000D02*
X164575000Y-56304000D01*
X169675000Y-56304000D02*
X168165000Y-56304000D01*
X166085000Y-56264000D02*
X164569000Y-56264000D01*
X169681000Y-56264000D02*
X168165000Y-56264000D01*
X166085000Y-56224000D02*
X164564000Y-56224000D01*
X169686000Y-56224000D02*
X168165000Y-56224000D01*
X166085000Y-56184000D02*
X164560000Y-56184000D01*
X169690000Y-56184000D02*
X168165000Y-56184000D01*
X166085000Y-56144000D02*
X164556000Y-56144000D01*
X169694000Y-56144000D02*
X168165000Y-56144000D01*
X166085000Y-56104000D02*
X164552000Y-56104000D01*
X169698000Y-56104000D02*
X168165000Y-56104000D01*
X166085000Y-56064000D02*
X164549000Y-56064000D01*
X169701000Y-56064000D02*
X168165000Y-56064000D01*
X166085000Y-56024000D02*
X164547000Y-56024000D01*
X169703000Y-56024000D02*
X168165000Y-56024000D01*
X166085000Y-55984000D02*
X164546000Y-55984000D01*
X169704000Y-55984000D02*
X168165000Y-55984000D01*
X169705000Y-55944000D02*
X168165000Y-55944000D01*
X166085000Y-55944000D02*
X164545000Y-55944000D01*
X169705000Y-55904000D02*
X168165000Y-55904000D01*
X166085000Y-55904000D02*
X164545000Y-55904000D01*
X169745000Y-55904000D02*
G75*
G03*
X169745000Y-55904000I-2620000J0D01*
G01*
X153760000Y-63579000D02*
X153760000Y-63894000D01*
X153760000Y-61154000D02*
X153760000Y-61469000D01*
X148820000Y-63579000D02*
X148820000Y-63894000D01*
X148820000Y-61154000D02*
X148820000Y-61469000D01*
X148820000Y-63894000D02*
X153760000Y-63894000D01*
X148820000Y-61154000D02*
X153760000Y-61154000D01*
X144365000Y-66999000D02*
X144365000Y-71939000D01*
X141625000Y-66999000D02*
X141625000Y-71939000D01*
X144365000Y-66999000D02*
X144050000Y-66999000D01*
X141940000Y-66999000D02*
X141625000Y-66999000D01*
X144365000Y-71939000D02*
X144050000Y-71939000D01*
X141940000Y-71939000D02*
X141625000Y-71939000D01*
X157705000Y-58659000D02*
X161305000Y-58659000D01*
X157180816Y-57931795D02*
G75*
G03*
X157705000Y-58659000I2324184J1122795D01*
G01*
X157148600Y-55710193D02*
G75*
G02*
X159505000Y-54209000I2356400J-1098807D01*
G01*
X161861400Y-55710193D02*
G75*
G03*
X159505000Y-54209000I-2356400J-1098807D01*
G01*
X161829184Y-57931795D02*
G75*
G02*
X161305000Y-58659000I-2324184J1122795D01*
G01*
X144780000Y-64259000D02*
X144780000Y-74759000D01*
X155180000Y-64259000D02*
X144780000Y-64259000D01*
X155180000Y-74759000D02*
X155180000Y-64259000D01*
X144780000Y-74759000D02*
X155180000Y-74759000D01*
X144840000Y-67259000D02*
X144840000Y-68509000D01*
X155120000Y-67259000D02*
X144840000Y-67259000D01*
X155120000Y-71759000D02*
X155120000Y-67259000D01*
X144840000Y-71759000D02*
X155120000Y-71759000D01*
X144840000Y-70509000D02*
X144840000Y-71759000D01*
X144840000Y-68509000D02*
G75*
G02*
X144840000Y-70509000I0J-1000000D01*
G01*
X128905000Y-64259000D02*
X128905000Y-74759000D01*
X136765000Y-64259000D02*
X128905000Y-64259000D01*
X136765000Y-74759000D02*
X136765000Y-64259000D01*
X128905000Y-74759000D02*
X136765000Y-74759000D01*
X128965000Y-67259000D02*
X128965000Y-68509000D01*
X136705000Y-67259000D02*
X128965000Y-67259000D01*
X136705000Y-71759000D02*
X136705000Y-67259000D01*
X128965000Y-71759000D02*
X136705000Y-71759000D01*
X128965000Y-70509000D02*
X128965000Y-71759000D01*
X128965000Y-68509000D02*
G75*
G02*
X128965000Y-70509000I0J-1000000D01*
G01*
X160655000Y-64259000D02*
X160655000Y-74759000D01*
X178675000Y-64259000D02*
X160655000Y-64259000D01*
X178675000Y-74759000D02*
X178675000Y-64259000D01*
X160655000Y-74759000D02*
X178675000Y-74759000D01*
X160715000Y-67259000D02*
X160715000Y-68509000D01*
X178615000Y-67259000D02*
X160715000Y-67259000D01*
X178615000Y-71759000D02*
X178615000Y-67259000D01*
X160715000Y-71759000D02*
X178615000Y-71759000D01*
X160715000Y-70509000D02*
X160715000Y-71759000D01*
X160715000Y-68509000D02*
G75*
G02*
X160715000Y-70509000I0J-1000000D01*
G01*
D10*
X148436904Y-86533285D02*
X148055952Y-86799952D01*
X148436904Y-86990428D02*
X147636904Y-86990428D01*
X147636904Y-86685666D01*
X147675000Y-86609476D01*
X147713095Y-86571380D01*
X147789285Y-86533285D01*
X147903571Y-86533285D01*
X147979761Y-86571380D01*
X148017857Y-86609476D01*
X148055952Y-86685666D01*
X148055952Y-86990428D01*
X147713095Y-86228523D02*
X147675000Y-86190428D01*
X147636904Y-86114238D01*
X147636904Y-85923761D01*
X147675000Y-85847571D01*
X147713095Y-85809476D01*
X147789285Y-85771380D01*
X147865476Y-85771380D01*
X147979761Y-85809476D01*
X148436904Y-86266619D01*
X148436904Y-85771380D01*
X147713095Y-85466619D02*
X147675000Y-85428523D01*
X147636904Y-85352333D01*
X147636904Y-85161857D01*
X147675000Y-85085666D01*
X147713095Y-85047571D01*
X147789285Y-85009476D01*
X147865476Y-85009476D01*
X147979761Y-85047571D01*
X148436904Y-85504714D01*
X148436904Y-85009476D01*
D13*
X150654761Y-86471380D02*
X150083333Y-86471380D01*
X150369047Y-86471380D02*
X150369047Y-85471380D01*
X150273809Y-85614238D01*
X150178571Y-85709476D01*
X150083333Y-85757095D01*
X151273809Y-85471380D02*
X151369047Y-85471380D01*
X151464285Y-85519000D01*
X151511904Y-85566619D01*
X151559523Y-85661857D01*
X151607142Y-85852333D01*
X151607142Y-86090428D01*
X151559523Y-86280904D01*
X151511904Y-86376142D01*
X151464285Y-86423761D01*
X151369047Y-86471380D01*
X151273809Y-86471380D01*
X151178571Y-86423761D01*
X151130952Y-86376142D01*
X151083333Y-86280904D01*
X151035714Y-86090428D01*
X151035714Y-85852333D01*
X151083333Y-85661857D01*
X151130952Y-85566619D01*
X151178571Y-85519000D01*
X151273809Y-85471380D01*
X152035714Y-86471380D02*
X152035714Y-85471380D01*
X152130952Y-86090428D02*
X152416666Y-86471380D01*
X152416666Y-85804714D02*
X152035714Y-86185666D01*
D10*
X160501904Y-61768285D02*
X160120952Y-62034952D01*
X160501904Y-62225428D02*
X159701904Y-62225428D01*
X159701904Y-61920666D01*
X159740000Y-61844476D01*
X159778095Y-61806380D01*
X159854285Y-61768285D01*
X159968571Y-61768285D01*
X160044761Y-61806380D01*
X160082857Y-61844476D01*
X160120952Y-61920666D01*
X160120952Y-62225428D01*
X159778095Y-61463523D02*
X159740000Y-61425428D01*
X159701904Y-61349238D01*
X159701904Y-61158761D01*
X159740000Y-61082571D01*
X159778095Y-61044476D01*
X159854285Y-61006380D01*
X159930476Y-61006380D01*
X160044761Y-61044476D01*
X160501904Y-61501619D01*
X160501904Y-61006380D01*
X160501904Y-60244476D02*
X160501904Y-60701619D01*
X160501904Y-60473047D02*
X159701904Y-60473047D01*
X159816190Y-60549238D01*
X159892380Y-60625428D01*
X159930476Y-60701619D01*
D13*
X162243571Y-61706380D02*
X161672142Y-61706380D01*
X161957857Y-61706380D02*
X161957857Y-60706380D01*
X161862619Y-60849238D01*
X161767380Y-60944476D01*
X161672142Y-60992095D01*
X162862619Y-60706380D02*
X162957857Y-60706380D01*
X163053095Y-60754000D01*
X163100714Y-60801619D01*
X163148333Y-60896857D01*
X163195952Y-61087333D01*
X163195952Y-61325428D01*
X163148333Y-61515904D01*
X163100714Y-61611142D01*
X163053095Y-61658761D01*
X162957857Y-61706380D01*
X162862619Y-61706380D01*
X162767380Y-61658761D01*
X162719761Y-61611142D01*
X162672142Y-61515904D01*
X162624523Y-61325428D01*
X162624523Y-61087333D01*
X162672142Y-60896857D01*
X162719761Y-60801619D01*
X162767380Y-60754000D01*
X162862619Y-60706380D01*
X163815000Y-60706380D02*
X163910238Y-60706380D01*
X164005476Y-60754000D01*
X164053095Y-60801619D01*
X164100714Y-60896857D01*
X164148333Y-61087333D01*
X164148333Y-61325428D01*
X164100714Y-61515904D01*
X164053095Y-61611142D01*
X164005476Y-61658761D01*
X163910238Y-61706380D01*
X163815000Y-61706380D01*
X163719761Y-61658761D01*
X163672142Y-61611142D01*
X163624523Y-61515904D01*
X163576904Y-61325428D01*
X163576904Y-61087333D01*
X163624523Y-60896857D01*
X163672142Y-60801619D01*
X163719761Y-60754000D01*
X163815000Y-60706380D01*
X164576904Y-61706380D02*
X164576904Y-60706380D01*
X164672142Y-61325428D02*
X164957857Y-61706380D01*
X164957857Y-61039714D02*
X164576904Y-61420666D01*
D10*
X158736666Y-109240904D02*
X158470000Y-108859952D01*
X158279523Y-109240904D02*
X158279523Y-108440904D01*
X158584285Y-108440904D01*
X158660476Y-108479000D01*
X158698571Y-108517095D01*
X158736666Y-108593285D01*
X158736666Y-108707571D01*
X158698571Y-108783761D01*
X158660476Y-108821857D01*
X158584285Y-108859952D01*
X158279523Y-108859952D01*
X159422380Y-108440904D02*
X159270000Y-108440904D01*
X159193809Y-108479000D01*
X159155714Y-108517095D01*
X159079523Y-108631380D01*
X159041428Y-108783761D01*
X159041428Y-109088523D01*
X159079523Y-109164714D01*
X159117619Y-109202809D01*
X159193809Y-109240904D01*
X159346190Y-109240904D01*
X159422380Y-109202809D01*
X159460476Y-109164714D01*
X159498571Y-109088523D01*
X159498571Y-108898047D01*
X159460476Y-108821857D01*
X159422380Y-108783761D01*
X159346190Y-108745666D01*
X159193809Y-108745666D01*
X159117619Y-108783761D01*
X159079523Y-108821857D01*
X159041428Y-108898047D01*
D13*
X158417619Y-113292095D02*
X158370000Y-113244476D01*
X158322380Y-113149238D01*
X158322380Y-112911142D01*
X158370000Y-112815904D01*
X158417619Y-112768285D01*
X158512857Y-112720666D01*
X158608095Y-112720666D01*
X158750952Y-112768285D01*
X159322380Y-113339714D01*
X159322380Y-112720666D01*
X158417619Y-112339714D02*
X158370000Y-112292095D01*
X158322380Y-112196857D01*
X158322380Y-111958761D01*
X158370000Y-111863523D01*
X158417619Y-111815904D01*
X158512857Y-111768285D01*
X158608095Y-111768285D01*
X158750952Y-111815904D01*
X159322380Y-112387333D01*
X159322380Y-111768285D01*
X158322380Y-111149238D02*
X158322380Y-111054000D01*
X158370000Y-110958761D01*
X158417619Y-110911142D01*
X158512857Y-110863523D01*
X158703333Y-110815904D01*
X158941428Y-110815904D01*
X159131904Y-110863523D01*
X159227142Y-110911142D01*
X159274761Y-110958761D01*
X159322380Y-111054000D01*
X159322380Y-111149238D01*
X159274761Y-111244476D01*
X159227142Y-111292095D01*
X159131904Y-111339714D01*
X158941428Y-111387333D01*
X158703333Y-111387333D01*
X158512857Y-111339714D01*
X158417619Y-111292095D01*
X158370000Y-111244476D01*
X158322380Y-111149238D01*
D10*
X130606666Y-96756857D02*
X130873333Y-96756857D01*
X130987619Y-97175904D02*
X130606666Y-97175904D01*
X130606666Y-96375904D01*
X130987619Y-96375904D01*
X131254285Y-96375904D02*
X131787619Y-97175904D01*
X131787619Y-96375904D02*
X131254285Y-97175904D01*
X131978095Y-96375904D02*
X132435238Y-96375904D01*
X132206666Y-97175904D02*
X132206666Y-96375904D01*
X132511428Y-97252095D02*
X133120952Y-97252095D01*
X133197142Y-96375904D02*
X133654285Y-96375904D01*
X133425714Y-97175904D02*
X133425714Y-96375904D01*
X134378095Y-97175904D02*
X134111428Y-96794952D01*
X133920952Y-97175904D02*
X133920952Y-96375904D01*
X134225714Y-96375904D01*
X134301904Y-96414000D01*
X134340000Y-96452095D01*
X134378095Y-96528285D01*
X134378095Y-96642571D01*
X134340000Y-96718761D01*
X134301904Y-96756857D01*
X134225714Y-96794952D01*
X133920952Y-96794952D01*
X134682857Y-97137809D02*
X134797142Y-97175904D01*
X134987619Y-97175904D01*
X135063809Y-97137809D01*
X135101904Y-97099714D01*
X135140000Y-97023523D01*
X135140000Y-96947333D01*
X135101904Y-96871142D01*
X135063809Y-96833047D01*
X134987619Y-96794952D01*
X134835238Y-96756857D01*
X134759047Y-96718761D01*
X134720952Y-96680666D01*
X134682857Y-96604476D01*
X134682857Y-96528285D01*
X134720952Y-96452095D01*
X134759047Y-96414000D01*
X134835238Y-96375904D01*
X135025714Y-96375904D01*
X135140000Y-96414000D01*
X135292380Y-97252095D02*
X135901904Y-97252095D01*
X136054285Y-97137809D02*
X136168571Y-97175904D01*
X136359047Y-97175904D01*
X136435238Y-97137809D01*
X136473333Y-97099714D01*
X136511428Y-97023523D01*
X136511428Y-96947333D01*
X136473333Y-96871142D01*
X136435238Y-96833047D01*
X136359047Y-96794952D01*
X136206666Y-96756857D01*
X136130476Y-96718761D01*
X136092380Y-96680666D01*
X136054285Y-96604476D01*
X136054285Y-96528285D01*
X136092380Y-96452095D01*
X136130476Y-96414000D01*
X136206666Y-96375904D01*
X136397142Y-96375904D01*
X136511428Y-96414000D01*
X136778095Y-96375904D02*
X136968571Y-97175904D01*
X137120952Y-96604476D01*
X137273333Y-97175904D01*
X137463809Y-96375904D01*
X137730476Y-96947333D02*
X138111428Y-96947333D01*
X137654285Y-97175904D02*
X137920952Y-96375904D01*
X138187619Y-97175904D01*
X138454285Y-97175904D02*
X138454285Y-96375904D01*
X138759047Y-96375904D01*
X138835238Y-96414000D01*
X138873333Y-96452095D01*
X138911428Y-96528285D01*
X138911428Y-96642571D01*
X138873333Y-96718761D01*
X138835238Y-96756857D01*
X138759047Y-96794952D01*
X138454285Y-96794952D01*
X133584333Y-89898904D02*
X133584333Y-90470333D01*
X133546238Y-90584619D01*
X133470047Y-90660809D01*
X133355761Y-90698904D01*
X133279571Y-90698904D01*
X134003380Y-90698904D02*
X134155761Y-90698904D01*
X134231952Y-90660809D01*
X134270047Y-90622714D01*
X134346238Y-90508428D01*
X134384333Y-90356047D01*
X134384333Y-90051285D01*
X134346238Y-89975095D01*
X134308142Y-89937000D01*
X134231952Y-89898904D01*
X134079571Y-89898904D01*
X134003380Y-89937000D01*
X133965285Y-89975095D01*
X133927190Y-90051285D01*
X133927190Y-90241761D01*
X133965285Y-90317952D01*
X134003380Y-90356047D01*
X134079571Y-90394142D01*
X134231952Y-90394142D01*
X134308142Y-90356047D01*
X134346238Y-90317952D01*
X134384333Y-90241761D01*
X180905000Y-81300904D02*
X180905000Y-80500904D01*
X181285952Y-81300904D02*
X181285952Y-80500904D01*
X181743095Y-81300904D01*
X181743095Y-80500904D01*
X182009761Y-80500904D02*
X182466904Y-80500904D01*
X182238333Y-81300904D02*
X182238333Y-80500904D01*
X182543095Y-81377095D02*
X183152619Y-81377095D01*
X183228809Y-80500904D02*
X183685952Y-80500904D01*
X183457380Y-81300904D02*
X183457380Y-80500904D01*
X184409761Y-81300904D02*
X184143095Y-80919952D01*
X183952619Y-81300904D02*
X183952619Y-80500904D01*
X184257380Y-80500904D01*
X184333571Y-80539000D01*
X184371666Y-80577095D01*
X184409761Y-80653285D01*
X184409761Y-80767571D01*
X184371666Y-80843761D01*
X184333571Y-80881857D01*
X184257380Y-80919952D01*
X183952619Y-80919952D01*
X184714523Y-81262809D02*
X184828809Y-81300904D01*
X185019285Y-81300904D01*
X185095476Y-81262809D01*
X185133571Y-81224714D01*
X185171666Y-81148523D01*
X185171666Y-81072333D01*
X185133571Y-80996142D01*
X185095476Y-80958047D01*
X185019285Y-80919952D01*
X184866904Y-80881857D01*
X184790714Y-80843761D01*
X184752619Y-80805666D01*
X184714523Y-80729476D01*
X184714523Y-80653285D01*
X184752619Y-80577095D01*
X184790714Y-80539000D01*
X184866904Y-80500904D01*
X185057380Y-80500904D01*
X185171666Y-80539000D01*
X185324047Y-81377095D02*
X185933571Y-81377095D01*
X186085952Y-81262809D02*
X186200238Y-81300904D01*
X186390714Y-81300904D01*
X186466904Y-81262809D01*
X186505000Y-81224714D01*
X186543095Y-81148523D01*
X186543095Y-81072333D01*
X186505000Y-80996142D01*
X186466904Y-80958047D01*
X186390714Y-80919952D01*
X186238333Y-80881857D01*
X186162142Y-80843761D01*
X186124047Y-80805666D01*
X186085952Y-80729476D01*
X186085952Y-80653285D01*
X186124047Y-80577095D01*
X186162142Y-80539000D01*
X186238333Y-80500904D01*
X186428809Y-80500904D01*
X186543095Y-80539000D01*
X186809761Y-80500904D02*
X187000238Y-81300904D01*
X187152619Y-80729476D01*
X187305000Y-81300904D01*
X187495476Y-80500904D01*
X187762142Y-81072333D02*
X188143095Y-81072333D01*
X187685952Y-81300904D02*
X187952619Y-80500904D01*
X188219285Y-81300904D01*
X188485952Y-81300904D02*
X188485952Y-80500904D01*
X188790714Y-80500904D01*
X188866904Y-80539000D01*
X188905000Y-80577095D01*
X188943095Y-80653285D01*
X188943095Y-80767571D01*
X188905000Y-80843761D01*
X188866904Y-80881857D01*
X188790714Y-80919952D01*
X188485952Y-80919952D01*
X183876380Y-73642904D02*
X183876380Y-74214333D01*
X183838285Y-74328619D01*
X183762095Y-74404809D01*
X183647809Y-74442904D01*
X183571619Y-74442904D01*
X184676380Y-74442904D02*
X184219238Y-74442904D01*
X184447809Y-74442904D02*
X184447809Y-73642904D01*
X184371619Y-73757190D01*
X184295428Y-73833380D01*
X184219238Y-73871476D01*
X185171619Y-73642904D02*
X185247809Y-73642904D01*
X185324000Y-73681000D01*
X185362095Y-73719095D01*
X185400190Y-73795285D01*
X185438285Y-73947666D01*
X185438285Y-74138142D01*
X185400190Y-74290523D01*
X185362095Y-74366714D01*
X185324000Y-74404809D01*
X185247809Y-74442904D01*
X185171619Y-74442904D01*
X185095428Y-74404809D01*
X185057333Y-74366714D01*
X185019238Y-74290523D01*
X184981142Y-74138142D01*
X184981142Y-73947666D01*
X185019238Y-73795285D01*
X185057333Y-73719095D01*
X185095428Y-73681000D01*
X185171619Y-73642904D01*
X129997142Y-118600904D02*
X130454285Y-118600904D01*
X130225714Y-119400904D02*
X130225714Y-118600904D01*
X130720952Y-119400904D02*
X130720952Y-118600904D01*
X130720952Y-118981857D02*
X131178095Y-118981857D01*
X131178095Y-119400904D02*
X131178095Y-118600904D01*
X132016190Y-119400904D02*
X131749523Y-119019952D01*
X131559047Y-119400904D02*
X131559047Y-118600904D01*
X131863809Y-118600904D01*
X131940000Y-118639000D01*
X131978095Y-118677095D01*
X132016190Y-118753285D01*
X132016190Y-118867571D01*
X131978095Y-118943761D01*
X131940000Y-118981857D01*
X131863809Y-119019952D01*
X131559047Y-119019952D01*
X132359047Y-118600904D02*
X132359047Y-119248523D01*
X132397142Y-119324714D01*
X132435238Y-119362809D01*
X132511428Y-119400904D01*
X132663809Y-119400904D01*
X132740000Y-119362809D01*
X132778095Y-119324714D01*
X132816190Y-119248523D01*
X132816190Y-118600904D01*
X133006666Y-119477095D02*
X133616190Y-119477095D01*
X133692380Y-118600904D02*
X134149523Y-118600904D01*
X133920952Y-119400904D02*
X133920952Y-118600904D01*
X134873333Y-119400904D02*
X134606666Y-119019952D01*
X134416190Y-119400904D02*
X134416190Y-118600904D01*
X134720952Y-118600904D01*
X134797142Y-118639000D01*
X134835238Y-118677095D01*
X134873333Y-118753285D01*
X134873333Y-118867571D01*
X134835238Y-118943761D01*
X134797142Y-118981857D01*
X134720952Y-119019952D01*
X134416190Y-119019952D01*
X135178095Y-119362809D02*
X135292380Y-119400904D01*
X135482857Y-119400904D01*
X135559047Y-119362809D01*
X135597142Y-119324714D01*
X135635238Y-119248523D01*
X135635238Y-119172333D01*
X135597142Y-119096142D01*
X135559047Y-119058047D01*
X135482857Y-119019952D01*
X135330476Y-118981857D01*
X135254285Y-118943761D01*
X135216190Y-118905666D01*
X135178095Y-118829476D01*
X135178095Y-118753285D01*
X135216190Y-118677095D01*
X135254285Y-118639000D01*
X135330476Y-118600904D01*
X135520952Y-118600904D01*
X135635238Y-118639000D01*
X135787619Y-119477095D02*
X136397142Y-119477095D01*
X136549523Y-119362809D02*
X136663809Y-119400904D01*
X136854285Y-119400904D01*
X136930476Y-119362809D01*
X136968571Y-119324714D01*
X137006666Y-119248523D01*
X137006666Y-119172333D01*
X136968571Y-119096142D01*
X136930476Y-119058047D01*
X136854285Y-119019952D01*
X136701904Y-118981857D01*
X136625714Y-118943761D01*
X136587619Y-118905666D01*
X136549523Y-118829476D01*
X136549523Y-118753285D01*
X136587619Y-118677095D01*
X136625714Y-118639000D01*
X136701904Y-118600904D01*
X136892380Y-118600904D01*
X137006666Y-118639000D01*
X137273333Y-118600904D02*
X137463809Y-119400904D01*
X137616190Y-118829476D01*
X137768571Y-119400904D01*
X137959047Y-118600904D01*
X138225714Y-119172333D02*
X138606666Y-119172333D01*
X138149523Y-119400904D02*
X138416190Y-118600904D01*
X138682857Y-119400904D01*
X138949523Y-119400904D02*
X138949523Y-118600904D01*
X139254285Y-118600904D01*
X139330476Y-118639000D01*
X139368571Y-118677095D01*
X139406666Y-118753285D01*
X139406666Y-118867571D01*
X139368571Y-118943761D01*
X139330476Y-118981857D01*
X139254285Y-119019952D01*
X138949523Y-119019952D01*
X133076380Y-112250904D02*
X133076380Y-112822333D01*
X133038285Y-112936619D01*
X132962095Y-113012809D01*
X132847809Y-113050904D01*
X132771619Y-113050904D01*
X133876380Y-113050904D02*
X133419238Y-113050904D01*
X133647809Y-113050904D02*
X133647809Y-112250904D01*
X133571619Y-112365190D01*
X133495428Y-112441380D01*
X133419238Y-112479476D01*
X134638285Y-113050904D02*
X134181142Y-113050904D01*
X134409714Y-113050904D02*
X134409714Y-112250904D01*
X134333523Y-112365190D01*
X134257333Y-112441380D01*
X134181142Y-112479476D01*
D13*
X119746666Y-112133285D02*
X119746666Y-111657095D01*
X120032380Y-112228523D02*
X119032380Y-111895190D01*
X120032380Y-111561857D01*
X120032380Y-110704714D02*
X120032380Y-111276142D01*
X120032380Y-110990428D02*
X119032380Y-110990428D01*
X119175238Y-111085666D01*
X119270476Y-111180904D01*
X119318095Y-111276142D01*
X123120238Y-81391380D02*
X122786904Y-80915190D01*
X122548809Y-81391380D02*
X122548809Y-80391380D01*
X122929761Y-80391380D01*
X123025000Y-80439000D01*
X123072619Y-80486619D01*
X123120238Y-80581857D01*
X123120238Y-80724714D01*
X123072619Y-80819952D01*
X123025000Y-80867571D01*
X122929761Y-80915190D01*
X122548809Y-80915190D01*
X123977380Y-81391380D02*
X123977380Y-80867571D01*
X123929761Y-80772333D01*
X123834523Y-80724714D01*
X123644047Y-80724714D01*
X123548809Y-80772333D01*
X123977380Y-81343761D02*
X123882142Y-81391380D01*
X123644047Y-81391380D01*
X123548809Y-81343761D01*
X123501190Y-81248523D01*
X123501190Y-81153285D01*
X123548809Y-81058047D01*
X123644047Y-81010428D01*
X123882142Y-81010428D01*
X123977380Y-80962809D01*
X124405952Y-81343761D02*
X124501190Y-81391380D01*
X124691666Y-81391380D01*
X124786904Y-81343761D01*
X124834523Y-81248523D01*
X124834523Y-81200904D01*
X124786904Y-81105666D01*
X124691666Y-81058047D01*
X124548809Y-81058047D01*
X124453571Y-81010428D01*
X124405952Y-80915190D01*
X124405952Y-80867571D01*
X124453571Y-80772333D01*
X124548809Y-80724714D01*
X124691666Y-80724714D01*
X124786904Y-80772333D01*
X125263095Y-80724714D02*
X125263095Y-81724714D01*
X125263095Y-80772333D02*
X125358333Y-80724714D01*
X125548809Y-80724714D01*
X125644047Y-80772333D01*
X125691666Y-80819952D01*
X125739285Y-80915190D01*
X125739285Y-81200904D01*
X125691666Y-81296142D01*
X125644047Y-81343761D01*
X125548809Y-81391380D01*
X125358333Y-81391380D01*
X125263095Y-81343761D01*
X126167857Y-81391380D02*
X126167857Y-80391380D01*
X126167857Y-80772333D02*
X126263095Y-80724714D01*
X126453571Y-80724714D01*
X126548809Y-80772333D01*
X126596428Y-80819952D01*
X126644047Y-80915190D01*
X126644047Y-81200904D01*
X126596428Y-81296142D01*
X126548809Y-81343761D01*
X126453571Y-81391380D01*
X126263095Y-81391380D01*
X126167857Y-81343761D01*
X127453571Y-81343761D02*
X127358333Y-81391380D01*
X127167857Y-81391380D01*
X127072619Y-81343761D01*
X127025000Y-81248523D01*
X127025000Y-80867571D01*
X127072619Y-80772333D01*
X127167857Y-80724714D01*
X127358333Y-80724714D01*
X127453571Y-80772333D01*
X127501190Y-80867571D01*
X127501190Y-80962809D01*
X127025000Y-81058047D01*
X127929761Y-81391380D02*
X127929761Y-80724714D01*
X127929761Y-80915190D02*
X127977380Y-80819952D01*
X128025000Y-80772333D01*
X128120238Y-80724714D01*
X128215476Y-80724714D01*
X128548809Y-81391380D02*
X128548809Y-80724714D01*
X128548809Y-80915190D02*
X128596428Y-80819952D01*
X128644047Y-80772333D01*
X128739285Y-80724714D01*
X128834523Y-80724714D01*
X129072619Y-80724714D02*
X129310714Y-81391380D01*
X129548809Y-80724714D02*
X129310714Y-81391380D01*
X129215476Y-81629476D01*
X129167857Y-81677095D01*
X129072619Y-81724714D01*
X130691666Y-81391380D02*
X130691666Y-80391380D01*
X131072619Y-80391380D01*
X131167857Y-80439000D01*
X131215476Y-80486619D01*
X131263095Y-80581857D01*
X131263095Y-80724714D01*
X131215476Y-80819952D01*
X131167857Y-80867571D01*
X131072619Y-80915190D01*
X130691666Y-80915190D01*
X131691666Y-81391380D02*
X131691666Y-80391380D01*
X132834523Y-80391380D02*
X133453571Y-80391380D01*
X133120238Y-80772333D01*
X133263095Y-80772333D01*
X133358333Y-80819952D01*
X133405952Y-80867571D01*
X133453571Y-80962809D01*
X133453571Y-81200904D01*
X133405952Y-81296142D01*
X133358333Y-81343761D01*
X133263095Y-81391380D01*
X132977380Y-81391380D01*
X132882142Y-81343761D01*
X132834523Y-81296142D01*
X133834523Y-81105666D02*
X134310714Y-81105666D01*
X133739285Y-81391380D02*
X134072619Y-80391380D01*
X134405952Y-81391380D01*
X134739285Y-81010428D02*
X135501190Y-81010428D01*
X135120238Y-81391380D02*
X135120238Y-80629476D01*
D10*
X162546666Y-109240904D02*
X162280000Y-108859952D01*
X162089523Y-109240904D02*
X162089523Y-108440904D01*
X162394285Y-108440904D01*
X162470476Y-108479000D01*
X162508571Y-108517095D01*
X162546666Y-108593285D01*
X162546666Y-108707571D01*
X162508571Y-108783761D01*
X162470476Y-108821857D01*
X162394285Y-108859952D01*
X162089523Y-108859952D01*
X163308571Y-109240904D02*
X162851428Y-109240904D01*
X163080000Y-109240904D02*
X163080000Y-108440904D01*
X163003809Y-108555190D01*
X162927619Y-108631380D01*
X162851428Y-108669476D01*
D13*
X162227619Y-113292095D02*
X162180000Y-113244476D01*
X162132380Y-113149238D01*
X162132380Y-112911142D01*
X162180000Y-112815904D01*
X162227619Y-112768285D01*
X162322857Y-112720666D01*
X162418095Y-112720666D01*
X162560952Y-112768285D01*
X163132380Y-113339714D01*
X163132380Y-112720666D01*
X162227619Y-112339714D02*
X162180000Y-112292095D01*
X162132380Y-112196857D01*
X162132380Y-111958761D01*
X162180000Y-111863523D01*
X162227619Y-111815904D01*
X162322857Y-111768285D01*
X162418095Y-111768285D01*
X162560952Y-111815904D01*
X163132380Y-112387333D01*
X163132380Y-111768285D01*
X162132380Y-111149238D02*
X162132380Y-111054000D01*
X162180000Y-110958761D01*
X162227619Y-110911142D01*
X162322857Y-110863523D01*
X162513333Y-110815904D01*
X162751428Y-110815904D01*
X162941904Y-110863523D01*
X163037142Y-110911142D01*
X163084761Y-110958761D01*
X163132380Y-111054000D01*
X163132380Y-111149238D01*
X163084761Y-111244476D01*
X163037142Y-111292095D01*
X162941904Y-111339714D01*
X162751428Y-111387333D01*
X162513333Y-111387333D01*
X162322857Y-111339714D01*
X162227619Y-111292095D01*
X162180000Y-111244476D01*
X162132380Y-111149238D01*
D10*
X168756904Y-121712333D02*
X168375952Y-121979000D01*
X168756904Y-122169476D02*
X167956904Y-122169476D01*
X167956904Y-121864714D01*
X167995000Y-121788523D01*
X168033095Y-121750428D01*
X168109285Y-121712333D01*
X168223571Y-121712333D01*
X168299761Y-121750428D01*
X168337857Y-121788523D01*
X168375952Y-121864714D01*
X168375952Y-122169476D01*
X168033095Y-121407571D02*
X167995000Y-121369476D01*
X167956904Y-121293285D01*
X167956904Y-121102809D01*
X167995000Y-121026619D01*
X168033095Y-120988523D01*
X168109285Y-120950428D01*
X168185476Y-120950428D01*
X168299761Y-120988523D01*
X168756904Y-121445666D01*
X168756904Y-120950428D01*
D13*
X170331904Y-121126619D02*
X170379523Y-121079000D01*
X170474761Y-121031380D01*
X170712857Y-121031380D01*
X170808095Y-121079000D01*
X170855714Y-121126619D01*
X170903333Y-121221857D01*
X170903333Y-121317095D01*
X170855714Y-121459952D01*
X170284285Y-122031380D01*
X170903333Y-122031380D01*
X171284285Y-121126619D02*
X171331904Y-121079000D01*
X171427142Y-121031380D01*
X171665238Y-121031380D01*
X171760476Y-121079000D01*
X171808095Y-121126619D01*
X171855714Y-121221857D01*
X171855714Y-121317095D01*
X171808095Y-121459952D01*
X171236666Y-122031380D01*
X171855714Y-122031380D01*
X172474761Y-121031380D02*
X172570000Y-121031380D01*
X172665238Y-121079000D01*
X172712857Y-121126619D01*
X172760476Y-121221857D01*
X172808095Y-121412333D01*
X172808095Y-121650428D01*
X172760476Y-121840904D01*
X172712857Y-121936142D01*
X172665238Y-121983761D01*
X172570000Y-122031380D01*
X172474761Y-122031380D01*
X172379523Y-121983761D01*
X172331904Y-121936142D01*
X172284285Y-121840904D01*
X172236666Y-121650428D01*
X172236666Y-121412333D01*
X172284285Y-121221857D01*
X172331904Y-121126619D01*
X172379523Y-121079000D01*
X172474761Y-121031380D01*
D10*
X139051666Y-66060904D02*
X138785000Y-65679952D01*
X138594523Y-66060904D02*
X138594523Y-65260904D01*
X138899285Y-65260904D01*
X138975476Y-65299000D01*
X139013571Y-65337095D01*
X139051666Y-65413285D01*
X139051666Y-65527571D01*
X139013571Y-65603761D01*
X138975476Y-65641857D01*
X138899285Y-65679952D01*
X138594523Y-65679952D01*
X139318333Y-65260904D02*
X139813571Y-65260904D01*
X139546904Y-65565666D01*
X139661190Y-65565666D01*
X139737380Y-65603761D01*
X139775476Y-65641857D01*
X139813571Y-65718047D01*
X139813571Y-65908523D01*
X139775476Y-65984714D01*
X139737380Y-66022809D01*
X139661190Y-66060904D01*
X139432619Y-66060904D01*
X139356428Y-66022809D01*
X139318333Y-65984714D01*
D13*
X139637380Y-68993047D02*
X139637380Y-69564476D01*
X139637380Y-69278761D02*
X138637380Y-69278761D01*
X138780238Y-69374000D01*
X138875476Y-69469238D01*
X138923095Y-69564476D01*
X139637380Y-68564476D02*
X138637380Y-68564476D01*
X139256428Y-68469238D02*
X139637380Y-68183523D01*
X138970714Y-68183523D02*
X139351666Y-68564476D01*
D10*
X123671904Y-76998333D02*
X123290952Y-77265000D01*
X123671904Y-77455476D02*
X122871904Y-77455476D01*
X122871904Y-77150714D01*
X122910000Y-77074523D01*
X122948095Y-77036428D01*
X123024285Y-76998333D01*
X123138571Y-76998333D01*
X123214761Y-77036428D01*
X123252857Y-77074523D01*
X123290952Y-77150714D01*
X123290952Y-77455476D01*
X123138571Y-76312619D02*
X123671904Y-76312619D01*
X122833809Y-76503095D02*
X123405238Y-76693571D01*
X123405238Y-76198333D01*
D13*
X125246904Y-76412619D02*
X125294523Y-76365000D01*
X125389761Y-76317380D01*
X125627857Y-76317380D01*
X125723095Y-76365000D01*
X125770714Y-76412619D01*
X125818333Y-76507857D01*
X125818333Y-76603095D01*
X125770714Y-76745952D01*
X125199285Y-77317380D01*
X125818333Y-77317380D01*
X126199285Y-76412619D02*
X126246904Y-76365000D01*
X126342142Y-76317380D01*
X126580238Y-76317380D01*
X126675476Y-76365000D01*
X126723095Y-76412619D01*
X126770714Y-76507857D01*
X126770714Y-76603095D01*
X126723095Y-76745952D01*
X126151666Y-77317380D01*
X126770714Y-77317380D01*
X127389761Y-76317380D02*
X127485000Y-76317380D01*
X127580238Y-76365000D01*
X127627857Y-76412619D01*
X127675476Y-76507857D01*
X127723095Y-76698333D01*
X127723095Y-76936428D01*
X127675476Y-77126904D01*
X127627857Y-77222142D01*
X127580238Y-77269761D01*
X127485000Y-77317380D01*
X127389761Y-77317380D01*
X127294523Y-77269761D01*
X127246904Y-77222142D01*
X127199285Y-77126904D01*
X127151666Y-76936428D01*
X127151666Y-76698333D01*
X127199285Y-76507857D01*
X127246904Y-76412619D01*
X127294523Y-76365000D01*
X127389761Y-76317380D01*
D10*
X129526666Y-99080904D02*
X129260000Y-98699952D01*
X129069523Y-99080904D02*
X129069523Y-98280904D01*
X129374285Y-98280904D01*
X129450476Y-98319000D01*
X129488571Y-98357095D01*
X129526666Y-98433285D01*
X129526666Y-98547571D01*
X129488571Y-98623761D01*
X129450476Y-98661857D01*
X129374285Y-98699952D01*
X129069523Y-98699952D01*
X130250476Y-98280904D02*
X129869523Y-98280904D01*
X129831428Y-98661857D01*
X129869523Y-98623761D01*
X129945714Y-98585666D01*
X130136190Y-98585666D01*
X130212380Y-98623761D01*
X130250476Y-98661857D01*
X130288571Y-98738047D01*
X130288571Y-98928523D01*
X130250476Y-99004714D01*
X130212380Y-99042809D01*
X130136190Y-99080904D01*
X129945714Y-99080904D01*
X129869523Y-99042809D01*
X129831428Y-99004714D01*
D13*
X129207619Y-103132095D02*
X129160000Y-103084476D01*
X129112380Y-102989238D01*
X129112380Y-102751142D01*
X129160000Y-102655904D01*
X129207619Y-102608285D01*
X129302857Y-102560666D01*
X129398095Y-102560666D01*
X129540952Y-102608285D01*
X130112380Y-103179714D01*
X130112380Y-102560666D01*
X129207619Y-102179714D02*
X129160000Y-102132095D01*
X129112380Y-102036857D01*
X129112380Y-101798761D01*
X129160000Y-101703523D01*
X129207619Y-101655904D01*
X129302857Y-101608285D01*
X129398095Y-101608285D01*
X129540952Y-101655904D01*
X130112380Y-102227333D01*
X130112380Y-101608285D01*
X129112380Y-100989238D02*
X129112380Y-100894000D01*
X129160000Y-100798761D01*
X129207619Y-100751142D01*
X129302857Y-100703523D01*
X129493333Y-100655904D01*
X129731428Y-100655904D01*
X129921904Y-100703523D01*
X130017142Y-100751142D01*
X130064761Y-100798761D01*
X130112380Y-100894000D01*
X130112380Y-100989238D01*
X130064761Y-101084476D01*
X130017142Y-101132095D01*
X129921904Y-101179714D01*
X129731428Y-101227333D01*
X129493333Y-101227333D01*
X129302857Y-101179714D01*
X129207619Y-101132095D01*
X129160000Y-101084476D01*
X129112380Y-100989238D01*
D10*
X154926666Y-109240904D02*
X154660000Y-108859952D01*
X154469523Y-109240904D02*
X154469523Y-108440904D01*
X154774285Y-108440904D01*
X154850476Y-108479000D01*
X154888571Y-108517095D01*
X154926666Y-108593285D01*
X154926666Y-108707571D01*
X154888571Y-108783761D01*
X154850476Y-108821857D01*
X154774285Y-108859952D01*
X154469523Y-108859952D01*
X155193333Y-108440904D02*
X155726666Y-108440904D01*
X155383809Y-109240904D01*
D13*
X154607619Y-113601619D02*
X154560000Y-113554000D01*
X154512380Y-113458761D01*
X154512380Y-113220666D01*
X154560000Y-113125428D01*
X154607619Y-113077809D01*
X154702857Y-113030190D01*
X154798095Y-113030190D01*
X154940952Y-113077809D01*
X155512380Y-113649238D01*
X155512380Y-113030190D01*
X155512380Y-112601619D02*
X154512380Y-112601619D01*
X155131428Y-112506380D02*
X155512380Y-112220666D01*
X154845714Y-112220666D02*
X155226666Y-112601619D01*
X154607619Y-111839714D02*
X154560000Y-111792095D01*
X154512380Y-111696857D01*
X154512380Y-111458761D01*
X154560000Y-111363523D01*
X154607619Y-111315904D01*
X154702857Y-111268285D01*
X154798095Y-111268285D01*
X154940952Y-111315904D01*
X155512380Y-111887333D01*
X155512380Y-111268285D01*
X154512380Y-110696857D02*
X154750476Y-110696857D01*
X154655238Y-110934952D02*
X154750476Y-110696857D01*
X154655238Y-110458761D01*
X154940952Y-110839714D02*
X154750476Y-110696857D01*
X154940952Y-110554000D01*
X190326666Y-125848285D02*
X190326666Y-125372095D01*
X190612380Y-125943523D02*
X189612380Y-125610190D01*
X190612380Y-125276857D01*
X189707619Y-124991142D02*
X189660000Y-124943523D01*
X189612380Y-124848285D01*
X189612380Y-124610190D01*
X189660000Y-124514952D01*
X189707619Y-124467333D01*
X189802857Y-124419714D01*
X189898095Y-124419714D01*
X190040952Y-124467333D01*
X190612380Y-125038761D01*
X190612380Y-124419714D01*
X192160000Y-121095904D02*
X192112380Y-121191142D01*
X192112380Y-121334000D01*
X192160000Y-121476857D01*
X192255238Y-121572095D01*
X192350476Y-121619714D01*
X192540952Y-121667333D01*
X192683809Y-121667333D01*
X192874285Y-121619714D01*
X192969523Y-121572095D01*
X193064761Y-121476857D01*
X193112380Y-121334000D01*
X193112380Y-121238761D01*
X193064761Y-121095904D01*
X193017142Y-121048285D01*
X192683809Y-121048285D01*
X192683809Y-121238761D01*
X192636190Y-120429238D02*
X193112380Y-120429238D01*
X192112380Y-120762571D02*
X192636190Y-120429238D01*
X192112380Y-120095904D01*
X192731428Y-119762571D02*
X192731428Y-119000666D01*
X193112380Y-118524476D02*
X192112380Y-118524476D01*
X192112380Y-118143523D01*
X192160000Y-118048285D01*
X192207619Y-118000666D01*
X192302857Y-117953047D01*
X192445714Y-117953047D01*
X192540952Y-118000666D01*
X192588571Y-118048285D01*
X192636190Y-118143523D01*
X192636190Y-118524476D01*
X193017142Y-116953047D02*
X193064761Y-117000666D01*
X193112380Y-117143523D01*
X193112380Y-117238761D01*
X193064761Y-117381619D01*
X192969523Y-117476857D01*
X192874285Y-117524476D01*
X192683809Y-117572095D01*
X192540952Y-117572095D01*
X192350476Y-117524476D01*
X192255238Y-117476857D01*
X192160000Y-117381619D01*
X192112380Y-117238761D01*
X192112380Y-117143523D01*
X192160000Y-117000666D01*
X192207619Y-116953047D01*
X193112380Y-116524476D02*
X192112380Y-116524476D01*
X192826666Y-116191142D01*
X192112380Y-115857809D01*
X193112380Y-115857809D01*
X192112380Y-114905428D02*
X192112380Y-115381619D01*
X192588571Y-115429238D01*
X192540952Y-115381619D01*
X192493333Y-115286380D01*
X192493333Y-115048285D01*
X192540952Y-114953047D01*
X192588571Y-114905428D01*
X192683809Y-114857809D01*
X192921904Y-114857809D01*
X193017142Y-114905428D01*
X193064761Y-114953047D01*
X193112380Y-115048285D01*
X193112380Y-115286380D01*
X193064761Y-115381619D01*
X193017142Y-115429238D01*
X193112380Y-113905428D02*
X193112380Y-114476857D01*
X193112380Y-114191142D02*
X192112380Y-114191142D01*
X192255238Y-114286380D01*
X192350476Y-114381619D01*
X192398095Y-114476857D01*
X192112380Y-113286380D02*
X192112380Y-113191142D01*
X192160000Y-113095904D01*
X192207619Y-113048285D01*
X192302857Y-113000666D01*
X192493333Y-112953047D01*
X192731428Y-112953047D01*
X192921904Y-113000666D01*
X193017142Y-113048285D01*
X193064761Y-113095904D01*
X193112380Y-113191142D01*
X193112380Y-113286380D01*
X193064761Y-113381619D01*
X193017142Y-113429238D01*
X192921904Y-113476857D01*
X192731428Y-113524476D01*
X192493333Y-113524476D01*
X192302857Y-113476857D01*
X192207619Y-113429238D01*
X192160000Y-113381619D01*
X192112380Y-113286380D01*
X192207619Y-112572095D02*
X192160000Y-112524476D01*
X192112380Y-112429238D01*
X192112380Y-112191142D01*
X192160000Y-112095904D01*
X192207619Y-112048285D01*
X192302857Y-112000666D01*
X192398095Y-112000666D01*
X192540952Y-112048285D01*
X193112380Y-112619714D01*
X193112380Y-112000666D01*
X119384180Y-94978333D02*
X120098466Y-94978333D01*
X120241323Y-95025952D01*
X120336561Y-95121190D01*
X120384180Y-95264047D01*
X120384180Y-95359285D01*
X120384180Y-93978333D02*
X120384180Y-94549761D01*
X120384180Y-94264047D02*
X119384180Y-94264047D01*
X119527038Y-94359285D01*
X119622276Y-94454523D01*
X119669895Y-94549761D01*
X119860371Y-104828333D02*
X119860371Y-105161666D01*
X120384180Y-105161666D02*
X119384180Y-105161666D01*
X119384180Y-104685476D01*
X120384180Y-104304523D02*
X119717514Y-104304523D01*
X119907990Y-104304523D02*
X119812752Y-104256904D01*
X119765133Y-104209285D01*
X119717514Y-104114047D01*
X119717514Y-104018809D01*
X120384180Y-103542619D02*
X120336561Y-103637857D01*
X120288942Y-103685476D01*
X120193704Y-103733095D01*
X119907990Y-103733095D01*
X119812752Y-103685476D01*
X119765133Y-103637857D01*
X119717514Y-103542619D01*
X119717514Y-103399761D01*
X119765133Y-103304523D01*
X119812752Y-103256904D01*
X119907990Y-103209285D01*
X120193704Y-103209285D01*
X120288942Y-103256904D01*
X120336561Y-103304523D01*
X120384180Y-103399761D01*
X120384180Y-103542619D01*
X119717514Y-102780714D02*
X120384180Y-102780714D01*
X119812752Y-102780714D02*
X119765133Y-102733095D01*
X119717514Y-102637857D01*
X119717514Y-102495000D01*
X119765133Y-102399761D01*
X119860371Y-102352142D01*
X120384180Y-102352142D01*
X119717514Y-102018809D02*
X119717514Y-101637857D01*
X119384180Y-101875952D02*
X120241323Y-101875952D01*
X120336561Y-101828333D01*
X120384180Y-101733095D01*
X120384180Y-101637857D01*
X120384180Y-100542619D02*
X119384180Y-100542619D01*
X119384180Y-100161666D01*
X119431800Y-100066428D01*
X119479419Y-100018809D01*
X119574657Y-99971190D01*
X119717514Y-99971190D01*
X119812752Y-100018809D01*
X119860371Y-100066428D01*
X119907990Y-100161666D01*
X119907990Y-100542619D01*
X120384180Y-99114047D02*
X119860371Y-99114047D01*
X119765133Y-99161666D01*
X119717514Y-99256904D01*
X119717514Y-99447380D01*
X119765133Y-99542619D01*
X120336561Y-99114047D02*
X120384180Y-99209285D01*
X120384180Y-99447380D01*
X120336561Y-99542619D01*
X120241323Y-99590238D01*
X120146085Y-99590238D01*
X120050847Y-99542619D01*
X120003228Y-99447380D01*
X120003228Y-99209285D01*
X119955609Y-99114047D01*
X119717514Y-98637857D02*
X120384180Y-98637857D01*
X119812752Y-98637857D02*
X119765133Y-98590238D01*
X119717514Y-98495000D01*
X119717514Y-98352142D01*
X119765133Y-98256904D01*
X119860371Y-98209285D01*
X120384180Y-98209285D01*
X120336561Y-97352142D02*
X120384180Y-97447380D01*
X120384180Y-97637857D01*
X120336561Y-97733095D01*
X120241323Y-97780714D01*
X119860371Y-97780714D01*
X119765133Y-97733095D01*
X119717514Y-97637857D01*
X119717514Y-97447380D01*
X119765133Y-97352142D01*
X119860371Y-97304523D01*
X119955609Y-97304523D01*
X120050847Y-97780714D01*
X120384180Y-96733095D02*
X120336561Y-96828333D01*
X120241323Y-96875952D01*
X119384180Y-96875952D01*
D10*
X188022904Y-65330666D02*
X188594333Y-65330666D01*
X188708619Y-65368761D01*
X188784809Y-65444952D01*
X188822904Y-65559238D01*
X188822904Y-65635428D01*
X188022904Y-65025904D02*
X188022904Y-64492571D01*
X188822904Y-64835428D01*
D13*
X132628333Y-60631142D02*
X132580714Y-60678761D01*
X132437857Y-60726380D01*
X132342619Y-60726380D01*
X132199761Y-60678761D01*
X132104523Y-60583523D01*
X132056904Y-60488285D01*
X132009285Y-60297809D01*
X132009285Y-60154952D01*
X132056904Y-59964476D01*
X132104523Y-59869238D01*
X132199761Y-59774000D01*
X132342619Y-59726380D01*
X132437857Y-59726380D01*
X132580714Y-59774000D01*
X132628333Y-59821619D01*
X132961666Y-59726380D02*
X133580714Y-59726380D01*
X133247380Y-60107333D01*
X133390238Y-60107333D01*
X133485476Y-60154952D01*
X133533095Y-60202571D01*
X133580714Y-60297809D01*
X133580714Y-60535904D01*
X133533095Y-60631142D01*
X133485476Y-60678761D01*
X133390238Y-60726380D01*
X133104523Y-60726380D01*
X133009285Y-60678761D01*
X132961666Y-60631142D01*
X189072142Y-137620666D02*
X189119761Y-137668285D01*
X189167380Y-137811142D01*
X189167380Y-137906380D01*
X189119761Y-138049238D01*
X189024523Y-138144476D01*
X188929285Y-138192095D01*
X188738809Y-138239714D01*
X188595952Y-138239714D01*
X188405476Y-138192095D01*
X188310238Y-138144476D01*
X188215000Y-138049238D01*
X188167380Y-137906380D01*
X188167380Y-137811142D01*
X188215000Y-137668285D01*
X188262619Y-137620666D01*
X188500714Y-136763523D02*
X189167380Y-136763523D01*
X188119761Y-137001619D02*
X188834047Y-137239714D01*
X188834047Y-136620666D01*
D10*
X197682619Y-134564714D02*
X197644523Y-134602809D01*
X197530238Y-134640904D01*
X197454047Y-134640904D01*
X197339761Y-134602809D01*
X197263571Y-134526619D01*
X197225476Y-134450428D01*
X197187380Y-134298047D01*
X197187380Y-134183761D01*
X197225476Y-134031380D01*
X197263571Y-133955190D01*
X197339761Y-133879000D01*
X197454047Y-133840904D01*
X197530238Y-133840904D01*
X197644523Y-133879000D01*
X197682619Y-133917095D01*
X198406428Y-133840904D02*
X198025476Y-133840904D01*
X197987380Y-134221857D01*
X198025476Y-134183761D01*
X198101666Y-134145666D01*
X198292142Y-134145666D01*
X198368333Y-134183761D01*
X198406428Y-134221857D01*
X198444523Y-134298047D01*
X198444523Y-134488523D01*
X198406428Y-134564714D01*
X198368333Y-134602809D01*
X198292142Y-134640904D01*
X198101666Y-134640904D01*
X198025476Y-134602809D01*
X197987380Y-134564714D01*
X197644523Y-135910904D02*
X197187380Y-135910904D01*
X197415952Y-135910904D02*
X197415952Y-135110904D01*
X197339761Y-135225190D01*
X197263571Y-135301380D01*
X197187380Y-135339476D01*
X198139761Y-135110904D02*
X198215952Y-135110904D01*
X198292142Y-135149000D01*
X198330238Y-135187095D01*
X198368333Y-135263285D01*
X198406428Y-135415666D01*
X198406428Y-135606142D01*
X198368333Y-135758523D01*
X198330238Y-135834714D01*
X198292142Y-135872809D01*
X198215952Y-135910904D01*
X198139761Y-135910904D01*
X198063571Y-135872809D01*
X198025476Y-135834714D01*
X197987380Y-135758523D01*
X197949285Y-135606142D01*
X197949285Y-135415666D01*
X197987380Y-135263285D01*
X198025476Y-135187095D01*
X198063571Y-135149000D01*
X198139761Y-135110904D01*
X198901666Y-135110904D02*
X198977857Y-135110904D01*
X199054047Y-135149000D01*
X199092142Y-135187095D01*
X199130238Y-135263285D01*
X199168333Y-135415666D01*
X199168333Y-135606142D01*
X199130238Y-135758523D01*
X199092142Y-135834714D01*
X199054047Y-135872809D01*
X198977857Y-135910904D01*
X198901666Y-135910904D01*
X198825476Y-135872809D01*
X198787380Y-135834714D01*
X198749285Y-135758523D01*
X198711190Y-135606142D01*
X198711190Y-135415666D01*
X198749285Y-135263285D01*
X198787380Y-135187095D01*
X198825476Y-135149000D01*
X198901666Y-135110904D01*
X199854047Y-135377571D02*
X199854047Y-135910904D01*
X199511190Y-135377571D02*
X199511190Y-135796619D01*
X199549285Y-135872809D01*
X199625476Y-135910904D01*
X199739761Y-135910904D01*
X199815952Y-135872809D01*
X199854047Y-135834714D01*
X200501666Y-135491857D02*
X200235000Y-135491857D01*
X200235000Y-135910904D02*
X200235000Y-135110904D01*
X200615952Y-135110904D01*
X188581666Y-57729714D02*
X188543571Y-57767809D01*
X188429285Y-57805904D01*
X188353095Y-57805904D01*
X188238809Y-57767809D01*
X188162619Y-57691619D01*
X188124523Y-57615428D01*
X188086428Y-57463047D01*
X188086428Y-57348761D01*
X188124523Y-57196380D01*
X188162619Y-57120190D01*
X188238809Y-57044000D01*
X188353095Y-57005904D01*
X188429285Y-57005904D01*
X188543571Y-57044000D01*
X188581666Y-57082095D01*
X189267380Y-57005904D02*
X189115000Y-57005904D01*
X189038809Y-57044000D01*
X189000714Y-57082095D01*
X188924523Y-57196380D01*
X188886428Y-57348761D01*
X188886428Y-57653523D01*
X188924523Y-57729714D01*
X188962619Y-57767809D01*
X189038809Y-57805904D01*
X189191190Y-57805904D01*
X189267380Y-57767809D01*
X189305476Y-57729714D01*
X189343571Y-57653523D01*
X189343571Y-57463047D01*
X189305476Y-57386857D01*
X189267380Y-57348761D01*
X189191190Y-57310666D01*
X189038809Y-57310666D01*
X188962619Y-57348761D01*
X188924523Y-57386857D01*
X188886428Y-57463047D01*
X187400714Y-58542571D02*
X187400714Y-59075904D01*
X187210238Y-58237809D02*
X187019761Y-58809238D01*
X187515000Y-58809238D01*
X187743571Y-58275904D02*
X188276904Y-58275904D01*
X187934047Y-59075904D01*
X188734047Y-58275904D02*
X188810238Y-58275904D01*
X188886428Y-58314000D01*
X188924523Y-58352095D01*
X188962619Y-58428285D01*
X189000714Y-58580666D01*
X189000714Y-58771142D01*
X188962619Y-58923523D01*
X188924523Y-58999714D01*
X188886428Y-59037809D01*
X188810238Y-59075904D01*
X188734047Y-59075904D01*
X188657857Y-59037809D01*
X188619761Y-58999714D01*
X188581666Y-58923523D01*
X188543571Y-58771142D01*
X188543571Y-58580666D01*
X188581666Y-58428285D01*
X188619761Y-58352095D01*
X188657857Y-58314000D01*
X188734047Y-58275904D01*
X189686428Y-58542571D02*
X189686428Y-59075904D01*
X189343571Y-58542571D02*
X189343571Y-58961619D01*
X189381666Y-59037809D01*
X189457857Y-59075904D01*
X189572142Y-59075904D01*
X189648333Y-59037809D01*
X189686428Y-58999714D01*
X190334047Y-58656857D02*
X190067380Y-58656857D01*
X190067380Y-59075904D02*
X190067380Y-58275904D01*
X190448333Y-58275904D01*
D13*
X126937380Y-70247095D02*
X125937380Y-70247095D01*
X125937380Y-70009000D01*
X125985000Y-69866142D01*
X126080238Y-69770904D01*
X126175476Y-69723285D01*
X126365952Y-69675666D01*
X126508809Y-69675666D01*
X126699285Y-69723285D01*
X126794523Y-69770904D01*
X126889761Y-69866142D01*
X126937380Y-70009000D01*
X126937380Y-70247095D01*
X126937380Y-68723285D02*
X126937380Y-69294714D01*
X126937380Y-69009000D02*
X125937380Y-69009000D01*
X126080238Y-69104238D01*
X126175476Y-69199476D01*
X126223095Y-69294714D01*
X125032380Y-73580904D02*
X124032380Y-73580904D01*
X125032380Y-73009476D02*
X124460952Y-73438047D01*
X124032380Y-73009476D02*
X124603809Y-73580904D01*
X191556666Y-86106380D02*
X191556666Y-86820666D01*
X191509047Y-86963523D01*
X191413809Y-87058761D01*
X191270952Y-87106380D01*
X191175714Y-87106380D01*
X192461428Y-86439714D02*
X192461428Y-87106380D01*
X192223333Y-86058761D02*
X191985238Y-86773047D01*
X192604285Y-86773047D01*
D10*
X188213333Y-94623047D02*
X188213333Y-94242095D01*
X188441904Y-94699238D02*
X187641904Y-94432571D01*
X188441904Y-94165904D01*
X187641904Y-93899238D02*
X188289523Y-93899238D01*
X188365714Y-93861142D01*
X188403809Y-93823047D01*
X188441904Y-93746857D01*
X188441904Y-93594476D01*
X188403809Y-93518285D01*
X188365714Y-93480190D01*
X188289523Y-93442095D01*
X187641904Y-93442095D01*
X188441904Y-93061142D02*
X187641904Y-93061142D01*
X187641904Y-92870666D01*
X187680000Y-92756380D01*
X187756190Y-92680190D01*
X187832380Y-92642095D01*
X187984761Y-92604000D01*
X188099047Y-92604000D01*
X188251428Y-92642095D01*
X188327619Y-92680190D01*
X188403809Y-92756380D01*
X188441904Y-92870666D01*
X188441904Y-93061142D01*
X188441904Y-92261142D02*
X187641904Y-92261142D01*
X187641904Y-91727809D02*
X187641904Y-91575428D01*
X187680000Y-91499238D01*
X187756190Y-91423047D01*
X187908571Y-91384952D01*
X188175238Y-91384952D01*
X188327619Y-91423047D01*
X188403809Y-91499238D01*
X188441904Y-91575428D01*
X188441904Y-91727809D01*
X188403809Y-91804000D01*
X188327619Y-91880190D01*
X188175238Y-91918285D01*
X187908571Y-91918285D01*
X187756190Y-91880190D01*
X187680000Y-91804000D01*
X187641904Y-91727809D01*
D13*
X181396666Y-109601380D02*
X181396666Y-110315666D01*
X181349047Y-110458523D01*
X181253809Y-110553761D01*
X181110952Y-110601380D01*
X181015714Y-110601380D01*
X181825238Y-109696619D02*
X181872857Y-109649000D01*
X181968095Y-109601380D01*
X182206190Y-109601380D01*
X182301428Y-109649000D01*
X182349047Y-109696619D01*
X182396666Y-109791857D01*
X182396666Y-109887095D01*
X182349047Y-110029952D01*
X181777619Y-110601380D01*
X182396666Y-110601380D01*
D10*
X179551904Y-126614238D02*
X178751904Y-126614238D01*
X179323333Y-126347571D01*
X178751904Y-126080904D01*
X179551904Y-126080904D01*
X179551904Y-125699952D02*
X178751904Y-125699952D01*
X179551904Y-125319000D02*
X178751904Y-125319000D01*
X178751904Y-125128523D01*
X178790000Y-125014238D01*
X178866190Y-124938047D01*
X178942380Y-124899952D01*
X179094761Y-124861857D01*
X179209047Y-124861857D01*
X179361428Y-124899952D01*
X179437619Y-124938047D01*
X179513809Y-125014238D01*
X179551904Y-125128523D01*
X179551904Y-125319000D01*
X179551904Y-124519000D02*
X178751904Y-124519000D01*
X178751904Y-123376142D02*
X178751904Y-123223761D01*
X178790000Y-123147571D01*
X178866190Y-123071380D01*
X179018571Y-123033285D01*
X179285238Y-123033285D01*
X179437619Y-123071380D01*
X179513809Y-123147571D01*
X179551904Y-123223761D01*
X179551904Y-123376142D01*
X179513809Y-123452333D01*
X179437619Y-123528523D01*
X179285238Y-123566619D01*
X179018571Y-123566619D01*
X178866190Y-123528523D01*
X178790000Y-123452333D01*
X178751904Y-123376142D01*
X178751904Y-122690428D02*
X179399523Y-122690428D01*
X179475714Y-122652333D01*
X179513809Y-122614238D01*
X179551904Y-122538047D01*
X179551904Y-122385666D01*
X179513809Y-122309476D01*
X179475714Y-122271380D01*
X179399523Y-122233285D01*
X178751904Y-122233285D01*
X178751904Y-121966619D02*
X178751904Y-121509476D01*
X179551904Y-121738047D02*
X178751904Y-121738047D01*
D13*
X102602334Y-88816904D02*
X102602334Y-89388333D01*
X102564239Y-89502619D01*
X102488048Y-89578809D01*
X102373762Y-89616904D01*
X102297572Y-89616904D01*
X102907096Y-88816904D02*
X103402334Y-88816904D01*
X103135667Y-89121666D01*
X103249953Y-89121666D01*
X103326143Y-89159761D01*
X103364239Y-89197857D01*
X103402334Y-89274047D01*
X103402334Y-89464523D01*
X103364239Y-89540714D01*
X103326143Y-89578809D01*
X103249953Y-89616904D01*
X103021381Y-89616904D01*
X102945191Y-89578809D01*
X102907096Y-89540714D01*
D10*
X102610476Y-87231857D02*
X102877142Y-87231857D01*
X102991428Y-87650904D02*
X102610476Y-87650904D01*
X102610476Y-86850904D01*
X102991428Y-86850904D01*
X103258095Y-86850904D02*
X103791428Y-87650904D01*
X103791428Y-86850904D02*
X103258095Y-87650904D01*
X103981904Y-86850904D02*
X104439047Y-86850904D01*
X104210476Y-87650904D02*
X104210476Y-86850904D01*
X104515238Y-87727095D02*
X105124761Y-87727095D01*
X105315238Y-87650904D02*
X105315238Y-86850904D01*
X105581904Y-87422333D01*
X105848571Y-86850904D01*
X105848571Y-87650904D01*
X106229523Y-87650904D02*
X106229523Y-86850904D01*
X106610476Y-87650904D02*
X106610476Y-86850904D01*
X106800952Y-86850904D01*
X106915238Y-86889000D01*
X106991428Y-86965190D01*
X107029523Y-87041380D01*
X107067619Y-87193761D01*
X107067619Y-87308047D01*
X107029523Y-87460428D01*
X106991428Y-87536619D01*
X106915238Y-87612809D01*
X106800952Y-87650904D01*
X106610476Y-87650904D01*
X107410476Y-87650904D02*
X107410476Y-86850904D01*
D13*
X200597665Y-83282095D02*
X200597665Y-82710666D01*
X200635760Y-82596380D01*
X200711951Y-82520190D01*
X200826237Y-82482095D01*
X200902427Y-82482095D01*
X199835760Y-83282095D02*
X200216713Y-83282095D01*
X200254808Y-82901142D01*
X200216713Y-82939238D01*
X200140522Y-82977333D01*
X199950046Y-82977333D01*
X199873856Y-82939238D01*
X199835760Y-82901142D01*
X199797665Y-82824952D01*
X199797665Y-82634476D01*
X199835760Y-82558285D01*
X199873856Y-82520190D01*
X199950046Y-82482095D01*
X200140522Y-82482095D01*
X200216713Y-82520190D01*
X200254808Y-82558285D01*
D10*
X194068333Y-85110904D02*
X194068333Y-84310904D01*
X194449285Y-85110904D02*
X194449285Y-84310904D01*
X194906428Y-85110904D01*
X194906428Y-84310904D01*
X195173095Y-84310904D02*
X195630238Y-84310904D01*
X195401666Y-85110904D02*
X195401666Y-84310904D01*
X195706428Y-85187095D02*
X196315952Y-85187095D01*
X196506428Y-85110904D02*
X196506428Y-84310904D01*
X196773095Y-84882333D01*
X197039761Y-84310904D01*
X197039761Y-85110904D01*
X197420714Y-85110904D02*
X197420714Y-84310904D01*
X197801666Y-85110904D02*
X197801666Y-84310904D01*
X197992142Y-84310904D01*
X198106428Y-84349000D01*
X198182619Y-84425190D01*
X198220714Y-84501380D01*
X198258809Y-84653761D01*
X198258809Y-84768047D01*
X198220714Y-84920428D01*
X198182619Y-84996619D01*
X198106428Y-85072809D01*
X197992142Y-85110904D01*
X197801666Y-85110904D01*
X198601666Y-85110904D02*
X198601666Y-84310904D01*
D13*
X102602334Y-102156904D02*
X102602334Y-102728333D01*
X102564239Y-102842619D01*
X102488048Y-102918809D01*
X102373762Y-102956904D01*
X102297572Y-102956904D01*
X103097572Y-102499761D02*
X103021381Y-102461666D01*
X102983286Y-102423571D01*
X102945191Y-102347380D01*
X102945191Y-102309285D01*
X102983286Y-102233095D01*
X103021381Y-102195000D01*
X103097572Y-102156904D01*
X103249953Y-102156904D01*
X103326143Y-102195000D01*
X103364239Y-102233095D01*
X103402334Y-102309285D01*
X103402334Y-102347380D01*
X103364239Y-102423571D01*
X103326143Y-102461666D01*
X103249953Y-102499761D01*
X103097572Y-102499761D01*
X103021381Y-102537857D01*
X102983286Y-102575952D01*
X102945191Y-102652142D01*
X102945191Y-102804523D01*
X102983286Y-102880714D01*
X103021381Y-102918809D01*
X103097572Y-102956904D01*
X103249953Y-102956904D01*
X103326143Y-102918809D01*
X103364239Y-102880714D01*
X103402334Y-102804523D01*
X103402334Y-102652142D01*
X103364239Y-102575952D01*
X103326143Y-102537857D01*
X103249953Y-102499761D01*
D10*
X102496190Y-114155904D02*
X102953333Y-114155904D01*
X102724761Y-114955904D02*
X102724761Y-114155904D01*
X103220000Y-114955904D02*
X103220000Y-114155904D01*
X103220000Y-114536857D02*
X103677142Y-114536857D01*
X103677142Y-114955904D02*
X103677142Y-114155904D01*
X104515238Y-114955904D02*
X104248571Y-114574952D01*
X104058095Y-114955904D02*
X104058095Y-114155904D01*
X104362857Y-114155904D01*
X104439047Y-114194000D01*
X104477142Y-114232095D01*
X104515238Y-114308285D01*
X104515238Y-114422571D01*
X104477142Y-114498761D01*
X104439047Y-114536857D01*
X104362857Y-114574952D01*
X104058095Y-114574952D01*
X104858095Y-114155904D02*
X104858095Y-114803523D01*
X104896190Y-114879714D01*
X104934285Y-114917809D01*
X105010476Y-114955904D01*
X105162857Y-114955904D01*
X105239047Y-114917809D01*
X105277142Y-114879714D01*
X105315238Y-114803523D01*
X105315238Y-114155904D01*
D13*
X159227142Y-69635666D02*
X159274761Y-69683285D01*
X159322380Y-69826142D01*
X159322380Y-69921380D01*
X159274761Y-70064238D01*
X159179523Y-70159476D01*
X159084285Y-70207095D01*
X158893809Y-70254714D01*
X158750952Y-70254714D01*
X158560476Y-70207095D01*
X158465238Y-70159476D01*
X158370000Y-70064238D01*
X158322380Y-69921380D01*
X158322380Y-69826142D01*
X158370000Y-69683285D01*
X158417619Y-69635666D01*
X159322380Y-68683285D02*
X159322380Y-69254714D01*
X159322380Y-68969000D02*
X158322380Y-68969000D01*
X158465238Y-69064238D01*
X158560476Y-69159476D01*
X158608095Y-69254714D01*
X181396666Y-93726380D02*
X181396666Y-94440666D01*
X181349047Y-94583523D01*
X181253809Y-94678761D01*
X181110952Y-94726380D01*
X181015714Y-94726380D01*
X182301428Y-93726380D02*
X182110952Y-93726380D01*
X182015714Y-93774000D01*
X181968095Y-93821619D01*
X181872857Y-93964476D01*
X181825238Y-94154952D01*
X181825238Y-94535904D01*
X181872857Y-94631142D01*
X181920476Y-94678761D01*
X182015714Y-94726380D01*
X182206190Y-94726380D01*
X182301428Y-94678761D01*
X182349047Y-94631142D01*
X182396666Y-94535904D01*
X182396666Y-94297809D01*
X182349047Y-94202571D01*
X182301428Y-94154952D01*
X182206190Y-94107333D01*
X182015714Y-94107333D01*
X181920476Y-94154952D01*
X181872857Y-94202571D01*
X181825238Y-94297809D01*
D10*
X179882380Y-107297809D02*
X179996666Y-107335904D01*
X180187142Y-107335904D01*
X180263333Y-107297809D01*
X180301428Y-107259714D01*
X180339523Y-107183523D01*
X180339523Y-107107333D01*
X180301428Y-107031142D01*
X180263333Y-106993047D01*
X180187142Y-106954952D01*
X180034761Y-106916857D01*
X179958571Y-106878761D01*
X179920476Y-106840666D01*
X179882380Y-106764476D01*
X179882380Y-106688285D01*
X179920476Y-106612095D01*
X179958571Y-106574000D01*
X180034761Y-106535904D01*
X180225238Y-106535904D01*
X180339523Y-106574000D01*
X180682380Y-106916857D02*
X180949047Y-106916857D01*
X181063333Y-107335904D02*
X180682380Y-107335904D01*
X180682380Y-106535904D01*
X181063333Y-106535904D01*
X181863333Y-107335904D02*
X181596666Y-106954952D01*
X181406190Y-107335904D02*
X181406190Y-106535904D01*
X181710952Y-106535904D01*
X181787142Y-106574000D01*
X181825238Y-106612095D01*
X181863333Y-106688285D01*
X181863333Y-106802571D01*
X181825238Y-106878761D01*
X181787142Y-106916857D01*
X181710952Y-106954952D01*
X181406190Y-106954952D01*
X182206190Y-107335904D02*
X182206190Y-106535904D01*
X182549047Y-107107333D02*
X182930000Y-107107333D01*
X182472857Y-107335904D02*
X182739523Y-106535904D01*
X183006190Y-107335904D01*
X183653809Y-107335904D02*
X183272857Y-107335904D01*
X183272857Y-106535904D01*
X170801666Y-53284714D02*
X170763571Y-53322809D01*
X170649285Y-53360904D01*
X170573095Y-53360904D01*
X170458809Y-53322809D01*
X170382619Y-53246619D01*
X170344523Y-53170428D01*
X170306428Y-53018047D01*
X170306428Y-52903761D01*
X170344523Y-52751380D01*
X170382619Y-52675190D01*
X170458809Y-52599000D01*
X170573095Y-52560904D01*
X170649285Y-52560904D01*
X170763571Y-52599000D01*
X170801666Y-52637095D01*
X171258809Y-52903761D02*
X171182619Y-52865666D01*
X171144523Y-52827571D01*
X171106428Y-52751380D01*
X171106428Y-52713285D01*
X171144523Y-52637095D01*
X171182619Y-52599000D01*
X171258809Y-52560904D01*
X171411190Y-52560904D01*
X171487380Y-52599000D01*
X171525476Y-52637095D01*
X171563571Y-52713285D01*
X171563571Y-52751380D01*
X171525476Y-52827571D01*
X171487380Y-52865666D01*
X171411190Y-52903761D01*
X171258809Y-52903761D01*
X171182619Y-52941857D01*
X171144523Y-52979952D01*
X171106428Y-53056142D01*
X171106428Y-53208523D01*
X171144523Y-53284714D01*
X171182619Y-53322809D01*
X171258809Y-53360904D01*
X171411190Y-53360904D01*
X171487380Y-53322809D01*
X171525476Y-53284714D01*
X171563571Y-53208523D01*
X171563571Y-53056142D01*
X171525476Y-52979952D01*
X171487380Y-52941857D01*
X171411190Y-52903761D01*
X170458809Y-54630904D02*
X170001666Y-54630904D01*
X170230238Y-54630904D02*
X170230238Y-53830904D01*
X170154047Y-53945190D01*
X170077857Y-54021380D01*
X170001666Y-54059476D01*
X171144523Y-54097571D02*
X171144523Y-54630904D01*
X170801666Y-54097571D02*
X170801666Y-54516619D01*
X170839761Y-54592809D01*
X170915952Y-54630904D01*
X171030238Y-54630904D01*
X171106428Y-54592809D01*
X171144523Y-54554714D01*
X171792142Y-54211857D02*
X171525476Y-54211857D01*
X171525476Y-54630904D02*
X171525476Y-53830904D01*
X171906428Y-53830904D01*
D13*
X151083333Y-62881142D02*
X151035714Y-62928761D01*
X150892857Y-62976380D01*
X150797619Y-62976380D01*
X150654761Y-62928761D01*
X150559523Y-62833523D01*
X150511904Y-62738285D01*
X150464285Y-62547809D01*
X150464285Y-62404952D01*
X150511904Y-62214476D01*
X150559523Y-62119238D01*
X150654761Y-62024000D01*
X150797619Y-61976380D01*
X150892857Y-61976380D01*
X151035714Y-62024000D01*
X151083333Y-62071619D01*
X151559523Y-62976380D02*
X151750000Y-62976380D01*
X151845238Y-62928761D01*
X151892857Y-62881142D01*
X151988095Y-62738285D01*
X152035714Y-62547809D01*
X152035714Y-62166857D01*
X151988095Y-62071619D01*
X151940476Y-62024000D01*
X151845238Y-61976380D01*
X151654761Y-61976380D01*
X151559523Y-62024000D01*
X151511904Y-62071619D01*
X151464285Y-62166857D01*
X151464285Y-62404952D01*
X151511904Y-62500190D01*
X151559523Y-62547809D01*
X151654761Y-62595428D01*
X151845238Y-62595428D01*
X151940476Y-62547809D01*
X151988095Y-62500190D01*
X152035714Y-62404952D01*
X143352142Y-70111857D02*
X143399761Y-70159476D01*
X143447380Y-70302333D01*
X143447380Y-70397571D01*
X143399761Y-70540428D01*
X143304523Y-70635666D01*
X143209285Y-70683285D01*
X143018809Y-70730904D01*
X142875952Y-70730904D01*
X142685476Y-70683285D01*
X142590238Y-70635666D01*
X142495000Y-70540428D01*
X142447380Y-70397571D01*
X142447380Y-70302333D01*
X142495000Y-70159476D01*
X142542619Y-70111857D01*
X143447380Y-69159476D02*
X143447380Y-69730904D01*
X143447380Y-69445190D02*
X142447380Y-69445190D01*
X142590238Y-69540428D01*
X142685476Y-69635666D01*
X142733095Y-69730904D01*
X142447380Y-68540428D02*
X142447380Y-68445190D01*
X142495000Y-68349952D01*
X142542619Y-68302333D01*
X142637857Y-68254714D01*
X142828333Y-68207095D01*
X143066428Y-68207095D01*
X143256904Y-68254714D01*
X143352142Y-68302333D01*
X143399761Y-68349952D01*
X143447380Y-68445190D01*
X143447380Y-68540428D01*
X143399761Y-68635666D01*
X143352142Y-68683285D01*
X143256904Y-68730904D01*
X143066428Y-68778523D01*
X142828333Y-68778523D01*
X142637857Y-68730904D01*
X142542619Y-68683285D01*
X142495000Y-68635666D01*
X142447380Y-68540428D01*
D10*
X156888809Y-53437095D02*
X156812619Y-53399000D01*
X156736428Y-53322809D01*
X156622142Y-53208523D01*
X156545952Y-53170428D01*
X156469761Y-53170428D01*
X156507857Y-53360904D02*
X156431666Y-53322809D01*
X156355476Y-53246619D01*
X156317380Y-53094238D01*
X156317380Y-52827571D01*
X156355476Y-52675190D01*
X156431666Y-52599000D01*
X156507857Y-52560904D01*
X156660238Y-52560904D01*
X156736428Y-52599000D01*
X156812619Y-52675190D01*
X156850714Y-52827571D01*
X156850714Y-53094238D01*
X156812619Y-53246619D01*
X156736428Y-53322809D01*
X156660238Y-53360904D01*
X156507857Y-53360904D01*
X157612619Y-53360904D02*
X157155476Y-53360904D01*
X157384047Y-53360904D02*
X157384047Y-52560904D01*
X157307857Y-52675190D01*
X157231666Y-52751380D01*
X157155476Y-52789476D01*
X158603571Y-52637095D02*
X158641666Y-52599000D01*
X158717857Y-52560904D01*
X158908333Y-52560904D01*
X158984523Y-52599000D01*
X159022619Y-52637095D01*
X159060714Y-52713285D01*
X159060714Y-52789476D01*
X159022619Y-52903761D01*
X158565476Y-53360904D01*
X159060714Y-53360904D01*
X159403571Y-53360904D02*
X159403571Y-52560904D01*
X159860714Y-53360904D01*
X159860714Y-52560904D01*
X160165476Y-52560904D02*
X160660714Y-52560904D01*
X160394047Y-52865666D01*
X160508333Y-52865666D01*
X160584523Y-52903761D01*
X160622619Y-52941857D01*
X160660714Y-53018047D01*
X160660714Y-53208523D01*
X160622619Y-53284714D01*
X160584523Y-53322809D01*
X160508333Y-53360904D01*
X160279761Y-53360904D01*
X160203571Y-53322809D01*
X160165476Y-53284714D01*
X161041666Y-53360904D02*
X161194047Y-53360904D01*
X161270238Y-53322809D01*
X161308333Y-53284714D01*
X161384523Y-53170428D01*
X161422619Y-53018047D01*
X161422619Y-52713285D01*
X161384523Y-52637095D01*
X161346428Y-52599000D01*
X161270238Y-52560904D01*
X161117857Y-52560904D01*
X161041666Y-52599000D01*
X161003571Y-52637095D01*
X160965476Y-52713285D01*
X160965476Y-52903761D01*
X161003571Y-52979952D01*
X161041666Y-53018047D01*
X161117857Y-53056142D01*
X161270238Y-53056142D01*
X161346428Y-53018047D01*
X161384523Y-52979952D01*
X161422619Y-52903761D01*
X161917857Y-52560904D02*
X161994047Y-52560904D01*
X162070238Y-52599000D01*
X162108333Y-52637095D01*
X162146428Y-52713285D01*
X162184523Y-52865666D01*
X162184523Y-53056142D01*
X162146428Y-53208523D01*
X162108333Y-53284714D01*
X162070238Y-53322809D01*
X161994047Y-53360904D01*
X161917857Y-53360904D01*
X161841666Y-53322809D01*
X161803571Y-53284714D01*
X161765476Y-53208523D01*
X161727380Y-53056142D01*
X161727380Y-52865666D01*
X161765476Y-52713285D01*
X161803571Y-52637095D01*
X161841666Y-52599000D01*
X161917857Y-52560904D01*
X162870238Y-52560904D02*
X162717857Y-52560904D01*
X162641666Y-52599000D01*
X162603571Y-52637095D01*
X162527380Y-52751380D01*
X162489285Y-52903761D01*
X162489285Y-53208523D01*
X162527380Y-53284714D01*
X162565476Y-53322809D01*
X162641666Y-53360904D01*
X162794047Y-53360904D01*
X162870238Y-53322809D01*
X162908333Y-53284714D01*
X162946428Y-53208523D01*
X162946428Y-53018047D01*
X162908333Y-52941857D01*
X162870238Y-52903761D01*
X162794047Y-52865666D01*
X162641666Y-52865666D01*
X162565476Y-52903761D01*
X162527380Y-52941857D01*
X162489285Y-53018047D01*
X149370476Y-67800904D02*
X149370476Y-68448523D01*
X149408571Y-68524714D01*
X149446666Y-68562809D01*
X149522857Y-68600904D01*
X149675238Y-68600904D01*
X149751428Y-68562809D01*
X149789523Y-68524714D01*
X149827619Y-68448523D01*
X149827619Y-67800904D01*
X150551428Y-68067571D02*
X150551428Y-68600904D01*
X150360952Y-67762809D02*
X150170476Y-68334238D01*
X150665714Y-68334238D01*
D13*
X147313333Y-70596380D02*
X147313333Y-69596380D01*
X147884761Y-70596380D01*
X147884761Y-69596380D01*
X148360952Y-70072571D02*
X148694285Y-70072571D01*
X148837142Y-70596380D02*
X148360952Y-70596380D01*
X148360952Y-69596380D01*
X148837142Y-69596380D01*
X149741904Y-69596380D02*
X149265714Y-69596380D01*
X149218095Y-70072571D01*
X149265714Y-70024952D01*
X149360952Y-69977333D01*
X149599047Y-69977333D01*
X149694285Y-70024952D01*
X149741904Y-70072571D01*
X149789523Y-70167809D01*
X149789523Y-70405904D01*
X149741904Y-70501142D01*
X149694285Y-70548761D01*
X149599047Y-70596380D01*
X149360952Y-70596380D01*
X149265714Y-70548761D01*
X149218095Y-70501142D01*
X150694285Y-69596380D02*
X150218095Y-69596380D01*
X150170476Y-70072571D01*
X150218095Y-70024952D01*
X150313333Y-69977333D01*
X150551428Y-69977333D01*
X150646666Y-70024952D01*
X150694285Y-70072571D01*
X150741904Y-70167809D01*
X150741904Y-70405904D01*
X150694285Y-70501142D01*
X150646666Y-70548761D01*
X150551428Y-70596380D01*
X150313333Y-70596380D01*
X150218095Y-70548761D01*
X150170476Y-70501142D01*
X151646666Y-69596380D02*
X151170476Y-69596380D01*
X151122857Y-70072571D01*
X151170476Y-70024952D01*
X151265714Y-69977333D01*
X151503809Y-69977333D01*
X151599047Y-70024952D01*
X151646666Y-70072571D01*
X151694285Y-70167809D01*
X151694285Y-70405904D01*
X151646666Y-70501142D01*
X151599047Y-70548761D01*
X151503809Y-70596380D01*
X151265714Y-70596380D01*
X151170476Y-70548761D01*
X151122857Y-70501142D01*
X152122857Y-70596380D02*
X152122857Y-69596380D01*
X152503809Y-69596380D01*
X152599047Y-69644000D01*
X152646666Y-69691619D01*
X152694285Y-69786857D01*
X152694285Y-69929714D01*
X152646666Y-70024952D01*
X152599047Y-70072571D01*
X152503809Y-70120190D01*
X152122857Y-70120190D01*
D10*
X132225476Y-67800904D02*
X132225476Y-68448523D01*
X132263571Y-68524714D01*
X132301666Y-68562809D01*
X132377857Y-68600904D01*
X132530238Y-68600904D01*
X132606428Y-68562809D01*
X132644523Y-68524714D01*
X132682619Y-68448523D01*
X132682619Y-67800904D01*
X133025476Y-67877095D02*
X133063571Y-67839000D01*
X133139761Y-67800904D01*
X133330238Y-67800904D01*
X133406428Y-67839000D01*
X133444523Y-67877095D01*
X133482619Y-67953285D01*
X133482619Y-68029476D01*
X133444523Y-68143761D01*
X132987380Y-68600904D01*
X133482619Y-68600904D01*
X130682619Y-70505904D02*
X130682619Y-69705904D01*
X130682619Y-70086857D02*
X131139761Y-70086857D01*
X131139761Y-70505904D02*
X131139761Y-69705904D01*
X131939761Y-70505904D02*
X131482619Y-70505904D01*
X131711190Y-70505904D02*
X131711190Y-69705904D01*
X131635000Y-69820190D01*
X131558809Y-69896380D01*
X131482619Y-69934476D01*
X132701666Y-70505904D02*
X132244523Y-70505904D01*
X132473095Y-70505904D02*
X132473095Y-69705904D01*
X132396904Y-69820190D01*
X132320714Y-69896380D01*
X132244523Y-69934476D01*
X133425476Y-70505904D02*
X133044523Y-70505904D01*
X133044523Y-69705904D01*
X134111190Y-70505904D02*
X133654047Y-70505904D01*
X133882619Y-70505904D02*
X133882619Y-69705904D01*
X133806428Y-69820190D01*
X133730238Y-69896380D01*
X133654047Y-69934476D01*
X134454047Y-70505904D02*
X134454047Y-69705904D01*
X134720714Y-70277333D01*
X134987380Y-69705904D01*
X134987380Y-70505904D01*
X169055476Y-67800904D02*
X169055476Y-68448523D01*
X169093571Y-68524714D01*
X169131666Y-68562809D01*
X169207857Y-68600904D01*
X169360238Y-68600904D01*
X169436428Y-68562809D01*
X169474523Y-68524714D01*
X169512619Y-68448523D01*
X169512619Y-67800904D01*
X170312619Y-68600904D02*
X169855476Y-68600904D01*
X170084047Y-68600904D02*
X170084047Y-67800904D01*
X170007857Y-67915190D01*
X169931666Y-67991380D01*
X169855476Y-68029476D01*
X167131666Y-69705904D02*
X167665000Y-69705904D01*
X167322142Y-70505904D01*
X168312619Y-69972571D02*
X168312619Y-70505904D01*
X168122142Y-69667809D02*
X167931666Y-70239238D01*
X168426904Y-70239238D01*
X168731666Y-70505904D02*
X168731666Y-69705904D01*
X168731666Y-70086857D02*
X169188809Y-70086857D01*
X169188809Y-70505904D02*
X169188809Y-69705904D01*
X170026904Y-70429714D02*
X169988809Y-70467809D01*
X169874523Y-70505904D01*
X169798333Y-70505904D01*
X169684047Y-70467809D01*
X169607857Y-70391619D01*
X169569761Y-70315428D01*
X169531666Y-70163047D01*
X169531666Y-70048761D01*
X169569761Y-69896380D01*
X169607857Y-69820190D01*
X169684047Y-69744000D01*
X169798333Y-69705904D01*
X169874523Y-69705904D01*
X169988809Y-69744000D01*
X170026904Y-69782095D01*
X170255476Y-69705904D02*
X170712619Y-69705904D01*
X170484047Y-70505904D02*
X170484047Y-69705904D01*
X171398333Y-70505904D02*
X170941190Y-70505904D01*
X171169761Y-70505904D02*
X171169761Y-69705904D01*
X171093571Y-69820190D01*
X171017380Y-69896380D01*
X170941190Y-69934476D01*
X172084047Y-69972571D02*
X172084047Y-70505904D01*
X171893571Y-69667809D02*
X171703095Y-70239238D01*
X172198333Y-70239238D01*
M02*
