G04 #@! TF.GenerationSoftware,KiCad,Pcbnew,(5.1.8)-1*
G04 #@! TF.CreationDate,2023-02-02T03:17:37+01:00*
G04 #@! TF.ProjectId,BulkyMIDI-32 Internal,42756c6b-794d-4494-9449-2d333220496e,rev?*
G04 #@! TF.SameCoordinates,Original*
G04 #@! TF.FileFunction,Soldermask,Top*
G04 #@! TF.FilePolarity,Negative*
%FSLAX46Y46*%
G04 Gerber Fmt 4.6, Leading zero omitted, Abs format (unit mm)*
G04 Created by KiCad (PCBNEW (5.1.8)-1) date 2023-02-02 03:17:37*
%MOMM*%
%LPD*%
G01*
G04 APERTURE LIST*
%ADD10O,1.600000X1.600000*%
%ADD11C,1.600000*%
%ADD12O,1.500000X1.500000*%
%ADD13R,1.500000X1.500000*%
%ADD14O,1.700000X1.700000*%
%ADD15R,1.700000X1.700000*%
%ADD16C,5.100000*%
%ADD17C,1.700000*%
%ADD18C,1.524000*%
%ADD19R,2.200000X1.740000*%
%ADD20O,2.200000X1.740000*%
%ADD21R,1.600000X1.600000*%
%ADD22R,3.000000X4.400000*%
%ADD23R,4.400000X3.000000*%
%ADD24R,2.500000X3.500000*%
%ADD25O,3.500000X1.750000*%
%ADD26C,1.500000*%
%ADD27R,1.600000X2.400000*%
%ADD28O,1.600000X2.400000*%
G04 APERTURE END LIST*
D10*
X155060000Y-86019000D03*
D11*
X144900000Y-86019000D03*
D10*
X167125000Y-61254000D03*
D11*
X156965000Y-61254000D03*
D10*
X158870000Y-115864000D03*
D11*
X158870000Y-105704000D03*
D12*
X132835000Y-92369000D03*
X132835000Y-94274000D03*
D13*
X134740000Y-92369000D03*
X134740000Y-94274000D03*
D12*
X183635000Y-77129000D03*
X183635000Y-79034000D03*
D13*
X185540000Y-77129000D03*
X185540000Y-79034000D03*
D12*
X132835000Y-114594000D03*
X132835000Y-116499000D03*
D13*
X134740000Y-114594000D03*
X134740000Y-116499000D03*
D14*
X123310000Y-92369000D03*
X125850000Y-89829000D03*
X125850000Y-105069000D03*
X123310000Y-105069000D03*
X123310000Y-89829000D03*
X125850000Y-92369000D03*
X123310000Y-87289000D03*
D15*
X125850000Y-87289000D03*
D14*
X125850000Y-115229000D03*
X123310000Y-115229000D03*
X125850000Y-99989000D03*
X123310000Y-99989000D03*
X125850000Y-120309000D03*
X123310000Y-120309000D03*
X125850000Y-102529000D03*
X123310000Y-102529000D03*
X125850000Y-97449000D03*
X123310000Y-97449000D03*
X125850000Y-110149000D03*
X123310000Y-110149000D03*
X125850000Y-133009000D03*
X123310000Y-133009000D03*
X125850000Y-127929000D03*
X123310000Y-127929000D03*
X125850000Y-130469000D03*
X123310000Y-130469000D03*
X125850000Y-107609000D03*
X123310000Y-107609000D03*
X125850000Y-125389000D03*
X123310000Y-125389000D03*
X125850000Y-94909000D03*
X123310000Y-94909000D03*
X125850000Y-122849000D03*
X123310000Y-122849000D03*
X125850000Y-112689000D03*
X123310000Y-112689000D03*
X125850000Y-117769000D03*
X123310000Y-117769000D03*
X125850000Y-135549000D03*
X123310000Y-135549000D03*
D16*
X173580000Y-140419000D03*
X173580000Y-82419000D03*
D10*
X162680000Y-105704000D03*
D11*
X162680000Y-115864000D03*
D10*
X175380000Y-121579000D03*
D11*
X165220000Y-121579000D03*
D10*
X139185000Y-72684000D03*
D11*
X139185000Y-62524000D03*
D10*
X130295000Y-76865000D03*
D11*
X120135000Y-76865000D03*
D10*
X129660000Y-105704000D03*
D11*
X129660000Y-95544000D03*
D10*
X155060000Y-115864000D03*
D11*
X155060000Y-105704000D03*
D17*
X199510000Y-131439000D03*
X196970000Y-131439000D03*
X194430000Y-131439000D03*
X191890000Y-131439000D03*
X189350000Y-131439000D03*
X186810000Y-131439000D03*
X186175000Y-104769000D03*
X186175000Y-107309000D03*
X186175000Y-109849000D03*
X186175000Y-112389000D03*
X186175000Y-114929000D03*
X186175000Y-117469000D03*
X186175000Y-120009000D03*
X186175000Y-122549000D03*
X186175000Y-125089000D03*
D18*
X117391800Y-137825000D03*
X117391800Y-135285000D03*
X117391800Y-132745000D03*
X117391800Y-130205000D03*
X117391800Y-127665000D03*
X117391800Y-125125000D03*
X117391800Y-122585000D03*
X117391800Y-120045000D03*
X117391800Y-117505000D03*
D14*
X117391800Y-84485000D03*
X117391800Y-81945000D03*
X117391800Y-79405000D03*
X117391800Y-76865000D03*
X117391800Y-74325000D03*
D15*
X117391800Y-64165000D03*
D14*
X117391800Y-66705000D03*
X117391800Y-69245000D03*
X117391800Y-71785000D03*
D16*
X116960000Y-60100000D03*
X116960000Y-142000000D03*
X193600000Y-146000000D03*
X193600000Y-56100000D03*
D19*
X191001000Y-68874000D03*
D20*
X191001000Y-66334000D03*
X191001000Y-63794000D03*
X191001000Y-61254000D03*
D11*
X130295000Y-62524000D03*
X135295000Y-62524000D03*
X188715000Y-134914000D03*
X188715000Y-139914000D03*
D21*
X193795000Y-136184000D03*
D11*
X193795000Y-138684000D03*
D21*
X183635000Y-61254000D03*
D11*
X183635000Y-64754000D03*
D21*
X126485000Y-73319000D03*
D10*
X126485000Y-65699000D03*
D14*
X191890000Y-96814000D03*
X191890000Y-94274000D03*
X191890000Y-91734000D03*
D15*
X191890000Y-89194000D03*
D22*
X110000400Y-54284400D03*
X115004200Y-147807200D03*
X110000400Y-147807200D03*
D23*
X103802800Y-148493000D03*
D22*
X115004200Y-54284400D03*
D23*
X199408400Y-53624000D03*
X199408400Y-148493000D03*
X103802800Y-53624000D03*
D15*
X181730000Y-112689000D03*
D14*
X181730000Y-115229000D03*
X181730000Y-117769000D03*
X181730000Y-120309000D03*
X181730000Y-122849000D03*
X181730000Y-125389000D03*
D24*
X106353001Y-94335000D03*
D25*
X111359001Y-89335000D03*
X111359001Y-99335000D03*
X111359001Y-91835000D03*
X111359001Y-96835000D03*
X191840999Y-75264000D03*
X191840999Y-80264000D03*
X191840999Y-72764000D03*
X191840999Y-82764000D03*
D24*
X196846999Y-77764000D03*
X106353001Y-107675000D03*
D25*
X111359001Y-102675000D03*
X111359001Y-112675000D03*
X111359001Y-105175000D03*
X111359001Y-110175000D03*
D11*
X158870000Y-66969000D03*
X158870000Y-71969000D03*
D15*
X181730000Y-96814000D03*
D14*
X181730000Y-99354000D03*
X181730000Y-101894000D03*
X181730000Y-104434000D03*
D21*
X167125000Y-54904000D03*
D11*
X167125000Y-56904000D03*
X148790000Y-62524000D03*
X153790000Y-62524000D03*
X142995000Y-71969000D03*
X142995000Y-66969000D03*
D26*
X159505000Y-56809000D03*
X162045000Y-56809000D03*
D13*
X156965000Y-56809000D03*
D27*
X146170000Y-73319000D03*
D28*
X153790000Y-65699000D03*
X148710000Y-73319000D03*
X151250000Y-65699000D03*
X151250000Y-73319000D03*
X148710000Y-65699000D03*
X153790000Y-73319000D03*
X146170000Y-65699000D03*
D27*
X130295000Y-73319000D03*
D28*
X135375000Y-65699000D03*
X132835000Y-73319000D03*
X132835000Y-65699000D03*
X135375000Y-73319000D03*
X130295000Y-65699000D03*
D27*
X162045000Y-73319000D03*
D28*
X177285000Y-65699000D03*
X164585000Y-73319000D03*
X174745000Y-65699000D03*
X167125000Y-73319000D03*
X172205000Y-65699000D03*
X169665000Y-73319000D03*
X169665000Y-65699000D03*
X172205000Y-73319000D03*
X167125000Y-65699000D03*
X174745000Y-73319000D03*
X164585000Y-65699000D03*
X177285000Y-73319000D03*
X162045000Y-65699000D03*
M02*
