M48
INCH,TZ
T1C0.0157
T2C0.0300
T3C0.0315
T4C0.0394
T5C0.0472
T6C0.1200
%
G90
G05
T1
X44762Y-49866
X47297Y-40580
X47512Y-42616
X47797Y-28116
X47797Y-42116
X48236Y-24866
X48236Y-32366
X48236Y-32866
X48547Y-33366
X49047Y-24366
X49358Y-28116
X49358Y-30866
X50297Y-27830
X50297Y-44116
X50608Y-35866
X50608Y-36366
X50797Y-38866
X50797Y-39866
X50868Y-44866
X51358Y-36651
X52047Y-35651
X54797Y-31187
X57547Y-30567
X58047Y-30901
X58547Y-27366
X62083Y-30567
X62297Y-30901
X69755Y-30567
X70012Y-30901
X70262Y-36866
X71083Y-36616
X71583Y-31116
X72583Y-29616
T2
X46217Y-46262
X46217Y-47262
X46217Y-48262
X46217Y-49262
X46217Y-50262
X46217Y-51262
X46217Y-52262
X46217Y-53262
X46217Y-54262
T3
X57547Y-25866
X57547Y-28866
X58547Y-25866
X58547Y-28866
X59547Y-25866
X59547Y-28866
X60547Y-25866
X60547Y-28866
X61797Y-24116
X65797Y-24116
X64047Y-41616
X64047Y-45616
X47297Y-30262
X51297Y-30262
X65047Y-47866
X69047Y-47866
X76297Y-53616
X76297Y-54600
X72297Y-24116
X72297Y-25494
X49797Y-25866
X49797Y-28866
X61047Y-41616
X61047Y-45616
X51047Y-37616
X51047Y-41616
X63797Y-25866
X63797Y-28866
X64797Y-25866
X64797Y-28866
X65797Y-25866
X65797Y-28866
X66797Y-25866
X66797Y-28866
X67797Y-25866
X67797Y-28866
X68797Y-25866
X68797Y-28866
X69797Y-25866
X69797Y-28866
X61797Y-22366
X62797Y-22366
X63797Y-22366
X51297Y-25866
X51297Y-28866
X52297Y-25866
X52297Y-28866
X53297Y-25866
X53297Y-28866
X65797Y-21616
X65797Y-22403
X74297Y-53116
X74297Y-55084
X62547Y-41616
X62547Y-45616
X58579Y-24616
X60547Y-24616
X51297Y-24616
X53266Y-24616
X57047Y-33866
X61047Y-33866
X56297Y-26366
X56297Y-28334
X62547Y-26366
X62547Y-28334
X54797Y-24616
X54797Y-28616
T4
X71547Y-44366
X71547Y-45366
X71547Y-46366
X71547Y-47366
X71547Y-48366
X71547Y-49366
X75547Y-35116
X75547Y-36116
X75547Y-37116
X75547Y-38116
X48547Y-34366
X48547Y-35366
X48547Y-36366
X48547Y-37366
X48547Y-38366
X48547Y-39366
X48547Y-40366
X48547Y-41366
X48547Y-42366
X48547Y-43366
X48547Y-44366
X48547Y-45366
X48547Y-46366
X48547Y-47366
X48547Y-48366
X48547Y-49366
X48547Y-50366
X48547Y-51366
X48547Y-52366
X48547Y-53366
X49547Y-34366
X49547Y-35366
X49547Y-36366
X49547Y-37366
X49547Y-38366
X49547Y-39366
X49547Y-40366
X49547Y-41366
X49547Y-42366
X49547Y-43366
X49547Y-44366
X49547Y-45366
X49547Y-46366
X49547Y-47366
X49547Y-48366
X49547Y-49366
X49547Y-50366
X49547Y-51366
X49547Y-52366
X49547Y-53366
X71547Y-38116
X71547Y-39116
X71547Y-40116
X71547Y-41116
X73297Y-41248
X73297Y-42248
X73297Y-43248
X73297Y-44248
X73297Y-45248
X73297Y-46248
X73297Y-47248
X73297Y-48248
X73297Y-49248
X73547Y-51748
X74547Y-51748
X75547Y-51748
X76547Y-51748
X77547Y-51748
X78547Y-51748
X46217Y-25262
X46217Y-26262
X46217Y-27262
X46217Y-28262
X46217Y-29262
X46217Y-30262
X46217Y-31262
X46217Y-32262
X46217Y-33262
T5
X75197Y-24116
X75197Y-25116
X75197Y-26116
X75197Y-27116
T6
X46047Y-55906
X76220Y-22087
X46047Y-23661
X76220Y-57480
T5
G00X41871Y-42431
M15
G01X41871Y-42352
M16
G05
G00X43803Y-40423
M15
G01X43881Y-40423
M16
G05
G00X43803Y-41407
M15
G01X43881Y-41407
M16
G05
G00X43803Y-43376
M15
G01X43881Y-43376
M16
G05
G00X43803Y-44360
M15
G01X43881Y-44360
M16
G05
G00X41871Y-37179
M15
G01X41871Y-37100
M16
G05
G00X43803Y-35171
M15
G01X43881Y-35171
M16
G05
G00X43803Y-36156
M15
G01X43881Y-36156
M16
G05
G00X43803Y-38124
M15
G01X43881Y-38124
M16
G05
G00X43803Y-39108
M15
G01X43881Y-39108
M16
G05
G00X75567Y-28647
M15
G01X75489Y-28647
M16
G05
G00X75567Y-29631
M15
G01X75489Y-29631
M16
G05
G00X75567Y-31600
M15
G01X75489Y-31600
M16
G05
G00X75567Y-32584
M15
G01X75489Y-32584
M16
G05
G00X77499Y-30576
M15
G01X77499Y-30655
M16
G05
T0
M30
