G04 #@! TF.GenerationSoftware,KiCad,Pcbnew,(5.1.8)-1*
G04 #@! TF.CreationDate,2023-02-02T03:20:21+01:00*
G04 #@! TF.ProjectId,BulkyMIDI-32 Internal Panel,42756c6b-794d-4494-9449-2d333220496e,rev?*
G04 #@! TF.SameCoordinates,Original*
G04 #@! TF.FileFunction,Profile,NP*
%FSLAX46Y46*%
G04 Gerber Fmt 4.6, Leading zero omitted, Abs format (unit mm)*
G04 Created by KiCad (PCBNEW (5.1.8)-1) date 2023-02-02 03:20:21*
%MOMM*%
%LPD*%
G01*
G04 APERTURE LIST*
G04 #@! TA.AperFunction,Profile*
%ADD10C,0.050000*%
G04 #@! TD*
G04 APERTURE END LIST*
D10*
X137251300Y-93000000D02*
X164248700Y-93000000D01*
X137251300Y-93000000D02*
X137251300Y-100000000D01*
X164248700Y-100000000D02*
X164248700Y-93000000D01*
X101800000Y-95320000D02*
X100750000Y-95320000D01*
X100750000Y-95320000D02*
X100750000Y-100000000D01*
X200750000Y-83980000D02*
X200750000Y-79300000D01*
X199700000Y-83980000D02*
X200750000Y-83980000D01*
X199700000Y-95320000D02*
X200750000Y-95320000D01*
X200750000Y-100000000D02*
X200750000Y-95320000D01*
X199700000Y-100000000D02*
X200750000Y-100000000D01*
X101800000Y-83980000D02*
X100750000Y-83980000D01*
X100750000Y-79300000D02*
X100750000Y-83980000D01*
X101800000Y-79300000D02*
X100750000Y-79300000D01*
X178690000Y-79300000D02*
X200750000Y-79300000D01*
X173610000Y-79300000D02*
X150750000Y-79300000D01*
X127890000Y-79300000D02*
X150750000Y-79300000D01*
X122810000Y-79300000D02*
X101800000Y-79300000D01*
X178690000Y-79300000D02*
X173610000Y-79300000D01*
X127890000Y-79300000D02*
X122810000Y-79300000D01*
X183610000Y-100000000D02*
X164248700Y-100000000D01*
X117890000Y-100000000D02*
X137251300Y-100000000D01*
X188690000Y-100000000D02*
X188690000Y-101800000D01*
X183610000Y-100000000D02*
X183610000Y-101800000D01*
X183610000Y-101800000D02*
X188690000Y-101800000D01*
X117890000Y-100000000D02*
X117890000Y-101800000D01*
X112810000Y-100000000D02*
X112810000Y-101800000D01*
X112810000Y-101800000D02*
X117890000Y-101800000D01*
X100750000Y-100000000D02*
X112810000Y-100000000D01*
X101800000Y-83980000D02*
X101800000Y-95320000D01*
X199700000Y-95320000D02*
X199700000Y-83980000D01*
X188690000Y-100000000D02*
X199700000Y-100000000D01*
M02*
