G04 #@! TF.GenerationSoftware,KiCad,Pcbnew,(5.1.8)-1*
G04 #@! TF.CreationDate,2023-02-02T03:20:21+01:00*
G04 #@! TF.ProjectId,BulkyMIDI-32 Internal Panel,42756c6b-794d-4494-9449-2d333220496e,rev?*
G04 #@! TF.SameCoordinates,Original*
G04 #@! TF.FileFunction,Legend,Top*
G04 #@! TF.FilePolarity,Positive*
%FSLAX46Y46*%
G04 Gerber Fmt 4.6, Leading zero omitted, Abs format (unit mm)*
G04 Created by KiCad (PCBNEW (5.1.8)-1) date 2023-02-02 03:20:21*
%MOMM*%
%LPD*%
G01*
G04 APERTURE LIST*
%ADD10C,0.120000*%
%ADD11C,0.150000*%
%ADD12C,0.100000*%
G04 APERTURE END LIST*
D10*
X129920000Y-91900000D02*
X129920000Y-87400000D01*
X125920000Y-93150000D02*
X127420000Y-93150000D01*
X123420000Y-87400000D02*
X123420000Y-91900000D01*
X127420000Y-86150000D02*
X125920000Y-86150000D01*
X119760000Y-91900000D02*
X119760000Y-87400000D01*
X115760000Y-93150000D02*
X117260000Y-93150000D01*
X113260000Y-87400000D02*
X113260000Y-91900000D01*
X117260000Y-86150000D02*
X115760000Y-86150000D01*
X180732500Y-89292000D02*
X179732500Y-89292000D01*
X180232500Y-89792000D02*
X180232500Y-88792000D01*
X174132500Y-85792000D02*
X174132500Y-83392000D01*
X174132500Y-90592000D02*
X174132500Y-87992000D01*
X174132500Y-95192000D02*
X174132500Y-92792000D01*
X187432500Y-93392000D02*
X187732500Y-93092000D01*
X188032500Y-93392000D02*
X187432500Y-93392000D01*
X187732500Y-93092000D02*
X188032500Y-93392000D01*
X186332500Y-95192000D02*
X186332500Y-83392000D01*
X182232500Y-95192000D02*
X186332500Y-95192000D01*
X182232500Y-83392000D02*
X186332500Y-83392000D01*
X174132500Y-83392000D02*
X178232500Y-83392000D01*
X178232500Y-95192000D02*
X174132500Y-95192000D01*
X183232500Y-89292000D02*
G75*
G03*
X183232500Y-89292000I-3000000J0D01*
G01*
D11*
X132454300Y-85825000D02*
X132454300Y-79825000D01*
X132454300Y-85825000D02*
X132454300Y-91825000D01*
X170454300Y-79825000D02*
X132484300Y-79825000D01*
X170454300Y-91825000D02*
X170454300Y-79825000D01*
X132484300Y-91825000D02*
X170454300Y-91825000D01*
D10*
X193070000Y-92210000D02*
X196160000Y-92210000D01*
X197115000Y-89650000D02*
G75*
G03*
X197115000Y-89650000I-2500000J0D01*
G01*
X194615462Y-86660000D02*
G75*
G03*
X193070170Y-92210000I-462J-2990000D01*
G01*
X194614538Y-86660000D02*
G75*
G02*
X196159830Y-92210000I462J-2990000D01*
G01*
X106250500Y-88634000D02*
X106250500Y-90412000D01*
X104345500Y-88634000D02*
X106250500Y-88634000D01*
X104345500Y-90412000D02*
X104345500Y-88634000D01*
X106250500Y-90412000D02*
X104345500Y-90412000D01*
D11*
X105996500Y-90031000D02*
X105996500Y-89777000D01*
X105996500Y-89777000D02*
X105742500Y-89777000D01*
X105742500Y-89777000D02*
X105742500Y-89269000D01*
X105742500Y-89269000D02*
X105996500Y-89269000D01*
X105996500Y-89269000D02*
X105996500Y-89015000D01*
X108536500Y-90031000D02*
X108536500Y-89777000D01*
X108536500Y-89777000D02*
X107774500Y-89777000D01*
X107774500Y-89777000D02*
X107774500Y-89269000D01*
X107774500Y-89269000D02*
X108536500Y-89269000D01*
X108536500Y-89269000D02*
X108536500Y-89015000D01*
X104345500Y-90920000D02*
X104345500Y-91936000D01*
X106885500Y-88380000D02*
X109425500Y-88380000D01*
X106885500Y-87364000D02*
X106885500Y-88380000D01*
X106885500Y-90920000D02*
X104345500Y-90920000D01*
X106885500Y-91936000D02*
X106885500Y-90920000D01*
X104345500Y-86475000D02*
X104345500Y-85840000D01*
X104345500Y-85840000D02*
X106885500Y-85840000D01*
X106885500Y-85840000D02*
X106885500Y-86475000D01*
X106885500Y-92825000D02*
X106885500Y-93460000D01*
X106885500Y-93460000D02*
X109425500Y-93460000D01*
X109425500Y-93460000D02*
X109425500Y-92825000D01*
X109425500Y-88380000D02*
X109425500Y-87745000D01*
X102635500Y-93900000D02*
X102635500Y-85400000D01*
X102635500Y-85400000D02*
X111135500Y-85400000D01*
X102635500Y-93900000D02*
X111135500Y-93900000D01*
X111135500Y-93900000D02*
X111135500Y-85400000D01*
X125884285Y-96007380D02*
X125550952Y-95531190D01*
X125312857Y-96007380D02*
X125312857Y-95007380D01*
X125693809Y-95007380D01*
X125789047Y-95055000D01*
X125836666Y-95102619D01*
X125884285Y-95197857D01*
X125884285Y-95340714D01*
X125836666Y-95435952D01*
X125789047Y-95483571D01*
X125693809Y-95531190D01*
X125312857Y-95531190D01*
X126503333Y-95007380D02*
X126693809Y-95007380D01*
X126789047Y-95055000D01*
X126884285Y-95150238D01*
X126931904Y-95340714D01*
X126931904Y-95674047D01*
X126884285Y-95864523D01*
X126789047Y-95959761D01*
X126693809Y-96007380D01*
X126503333Y-96007380D01*
X126408095Y-95959761D01*
X126312857Y-95864523D01*
X126265238Y-95674047D01*
X126265238Y-95340714D01*
X126312857Y-95150238D01*
X126408095Y-95055000D01*
X126503333Y-95007380D01*
X127360476Y-96007380D02*
X127360476Y-95007380D01*
X127693809Y-95721666D01*
X128027142Y-95007380D01*
X128027142Y-96007380D01*
D12*
X126993809Y-90716666D02*
X127031904Y-90602380D01*
X127031904Y-90411904D01*
X126993809Y-90335714D01*
X126955714Y-90297619D01*
X126879523Y-90259523D01*
X126803333Y-90259523D01*
X126727142Y-90297619D01*
X126689047Y-90335714D01*
X126650952Y-90411904D01*
X126612857Y-90564285D01*
X126574761Y-90640476D01*
X126536666Y-90678571D01*
X126460476Y-90716666D01*
X126384285Y-90716666D01*
X126308095Y-90678571D01*
X126270000Y-90640476D01*
X126231904Y-90564285D01*
X126231904Y-90373809D01*
X126270000Y-90259523D01*
X126231904Y-89992857D02*
X127031904Y-89802380D01*
X126460476Y-89650000D01*
X127031904Y-89497619D01*
X126231904Y-89307142D01*
X126308095Y-89040476D02*
X126270000Y-89002380D01*
X126231904Y-88926190D01*
X126231904Y-88735714D01*
X126270000Y-88659523D01*
X126308095Y-88621428D01*
X126384285Y-88583333D01*
X126460476Y-88583333D01*
X126574761Y-88621428D01*
X127031904Y-89078571D01*
X127031904Y-88583333D01*
D11*
X114367142Y-95959761D02*
X114510000Y-96007380D01*
X114748095Y-96007380D01*
X114843333Y-95959761D01*
X114890952Y-95912142D01*
X114938571Y-95816904D01*
X114938571Y-95721666D01*
X114890952Y-95626428D01*
X114843333Y-95578809D01*
X114748095Y-95531190D01*
X114557619Y-95483571D01*
X114462380Y-95435952D01*
X114414761Y-95388333D01*
X114367142Y-95293095D01*
X114367142Y-95197857D01*
X114414761Y-95102619D01*
X114462380Y-95055000D01*
X114557619Y-95007380D01*
X114795714Y-95007380D01*
X114938571Y-95055000D01*
X115557619Y-95531190D02*
X115557619Y-96007380D01*
X115224285Y-95007380D02*
X115557619Y-95531190D01*
X115890952Y-95007380D01*
X116224285Y-96007380D02*
X116224285Y-95007380D01*
X116795714Y-96007380D01*
X116795714Y-95007380D01*
X117129047Y-95007380D02*
X117700476Y-95007380D01*
X117414761Y-96007380D02*
X117414761Y-95007380D01*
X118033809Y-96007380D02*
X118033809Y-95007380D01*
X118033809Y-95483571D02*
X118605238Y-95483571D01*
X118605238Y-96007380D02*
X118605238Y-95007380D01*
D12*
X116833809Y-90716666D02*
X116871904Y-90602380D01*
X116871904Y-90411904D01*
X116833809Y-90335714D01*
X116795714Y-90297619D01*
X116719523Y-90259523D01*
X116643333Y-90259523D01*
X116567142Y-90297619D01*
X116529047Y-90335714D01*
X116490952Y-90411904D01*
X116452857Y-90564285D01*
X116414761Y-90640476D01*
X116376666Y-90678571D01*
X116300476Y-90716666D01*
X116224285Y-90716666D01*
X116148095Y-90678571D01*
X116110000Y-90640476D01*
X116071904Y-90564285D01*
X116071904Y-90373809D01*
X116110000Y-90259523D01*
X116071904Y-89992857D02*
X116871904Y-89802380D01*
X116300476Y-89650000D01*
X116871904Y-89497619D01*
X116071904Y-89307142D01*
X116871904Y-88583333D02*
X116871904Y-89040476D01*
X116871904Y-88811904D02*
X116071904Y-88811904D01*
X116186190Y-88888095D01*
X116262380Y-88964285D01*
X116300476Y-89040476D01*
D11*
X175120714Y-85323571D02*
X175454047Y-85323571D01*
X175596904Y-85847380D02*
X175120714Y-85847380D01*
X175120714Y-84847380D01*
X175596904Y-84847380D01*
X176025476Y-85847380D02*
X176025476Y-84847380D01*
X176596904Y-85847380D01*
X176596904Y-84847380D01*
X177644523Y-85752142D02*
X177596904Y-85799761D01*
X177454047Y-85847380D01*
X177358809Y-85847380D01*
X177215952Y-85799761D01*
X177120714Y-85704523D01*
X177073095Y-85609285D01*
X177025476Y-85418809D01*
X177025476Y-85275952D01*
X177073095Y-85085476D01*
X177120714Y-84990238D01*
X177215952Y-84895000D01*
X177358809Y-84847380D01*
X177454047Y-84847380D01*
X177596904Y-84895000D01*
X177644523Y-84942619D01*
X178596904Y-85847380D02*
X178025476Y-85847380D01*
X178311190Y-85847380D02*
X178311190Y-84847380D01*
X178215952Y-84990238D01*
X178120714Y-85085476D01*
X178025476Y-85133095D01*
X136111680Y-86674190D02*
X135111680Y-86674190D01*
X136016442Y-85626571D02*
X136064061Y-85674190D01*
X136111680Y-85817047D01*
X136111680Y-85912285D01*
X136064061Y-86055142D01*
X135968823Y-86150380D01*
X135873585Y-86198000D01*
X135683109Y-86245619D01*
X135540252Y-86245619D01*
X135349776Y-86198000D01*
X135254538Y-86150380D01*
X135159300Y-86055142D01*
X135111680Y-85912285D01*
X135111680Y-85817047D01*
X135159300Y-85674190D01*
X135206919Y-85626571D01*
X136111680Y-84674190D02*
X136111680Y-85245619D01*
X136111680Y-84959904D02*
X135111680Y-84959904D01*
X135254538Y-85055142D01*
X135349776Y-85150380D01*
X135397395Y-85245619D01*
X147541919Y-85277380D02*
X147732395Y-85277380D01*
X147827633Y-85325000D01*
X147922871Y-85420238D01*
X147970490Y-85610714D01*
X147970490Y-85944047D01*
X147922871Y-86134523D01*
X147827633Y-86229761D01*
X147732395Y-86277380D01*
X147541919Y-86277380D01*
X147446680Y-86229761D01*
X147351442Y-86134523D01*
X147303823Y-85944047D01*
X147303823Y-85610714D01*
X147351442Y-85420238D01*
X147446680Y-85325000D01*
X147541919Y-85277380D01*
X148875252Y-86277380D02*
X148399061Y-86277380D01*
X148399061Y-85277380D01*
X149208585Y-85753571D02*
X149541919Y-85753571D01*
X149684776Y-86277380D02*
X149208585Y-86277380D01*
X149208585Y-85277380D01*
X149684776Y-85277380D01*
X150113347Y-86277380D02*
X150113347Y-85277380D01*
X150351442Y-85277380D01*
X150494300Y-85325000D01*
X150589538Y-85420238D01*
X150637157Y-85515476D01*
X150684776Y-85705952D01*
X150684776Y-85848809D01*
X150637157Y-86039285D01*
X150589538Y-86134523D01*
X150494300Y-86229761D01*
X150351442Y-86277380D01*
X150113347Y-86277380D01*
X191107380Y-90388095D02*
X190107380Y-90388095D01*
X190107380Y-90150000D01*
X190155000Y-90007142D01*
X190250238Y-89911904D01*
X190345476Y-89864285D01*
X190535952Y-89816666D01*
X190678809Y-89816666D01*
X190869285Y-89864285D01*
X190964523Y-89911904D01*
X191059761Y-90007142D01*
X191107380Y-90150000D01*
X191107380Y-90388095D01*
X191107380Y-88864285D02*
X191107380Y-89435714D01*
X191107380Y-89150000D02*
X190107380Y-89150000D01*
X190250238Y-89245238D01*
X190345476Y-89340476D01*
X190393095Y-89435714D01*
D12*
X102743333Y-95243809D02*
X102857619Y-95281904D01*
X103048095Y-95281904D01*
X103124285Y-95243809D01*
X103162380Y-95205714D01*
X103200476Y-95129523D01*
X103200476Y-95053333D01*
X103162380Y-94977142D01*
X103124285Y-94939047D01*
X103048095Y-94900952D01*
X102895714Y-94862857D01*
X102819523Y-94824761D01*
X102781428Y-94786666D01*
X102743333Y-94710476D01*
X102743333Y-94634285D01*
X102781428Y-94558095D01*
X102819523Y-94520000D01*
X102895714Y-94481904D01*
X103086190Y-94481904D01*
X103200476Y-94520000D01*
X103467142Y-94481904D02*
X103657619Y-95281904D01*
X103810000Y-94710476D01*
X103962380Y-95281904D01*
X104152857Y-94481904D01*
X104381428Y-94481904D02*
X104876666Y-94481904D01*
X104610000Y-94786666D01*
X104724285Y-94786666D01*
X104800476Y-94824761D01*
X104838571Y-94862857D01*
X104876666Y-94939047D01*
X104876666Y-95129523D01*
X104838571Y-95205714D01*
X104800476Y-95243809D01*
X104724285Y-95281904D01*
X104495714Y-95281904D01*
X104419523Y-95243809D01*
X104381428Y-95205714D01*
X102775142Y-84867904D02*
X102775142Y-84067904D01*
X103156095Y-84867904D02*
X103156095Y-84067904D01*
X103613238Y-84867904D01*
X103613238Y-84067904D01*
X103994190Y-84867904D02*
X103994190Y-84067904D01*
X104298952Y-84067904D01*
X104375142Y-84106000D01*
X104413238Y-84144095D01*
X104451333Y-84220285D01*
X104451333Y-84334571D01*
X104413238Y-84410761D01*
X104375142Y-84448857D01*
X104298952Y-84486952D01*
X103994190Y-84486952D01*
X104794190Y-84067904D02*
X104794190Y-84715523D01*
X104832285Y-84791714D01*
X104870380Y-84829809D01*
X104946571Y-84867904D01*
X105098952Y-84867904D01*
X105175142Y-84829809D01*
X105213238Y-84791714D01*
X105251333Y-84715523D01*
X105251333Y-84067904D01*
X105518000Y-84067904D02*
X105975142Y-84067904D01*
X105746571Y-84867904D02*
X105746571Y-84067904D01*
M02*
