M48
INCH,TZ
T1C0.0157
T2C0.0300
T3C0.0354
T4C0.0394
T5C0.0433
T6C0.0591
T7C0.1200
%
G90
G05
T1
X71870Y-35370
T2
X52659Y-32289
X52659Y-33289
X52659Y-34289
X52659Y-35289
X41081Y-34222
X41081Y-36368
X42081Y-34222
X42081Y-36368
X43081Y-34222
X43081Y-36368
T3
X76620Y-34795
X76620Y-35795
T4
X68202Y-34170
X68202Y-36139
X73910Y-34170
X73910Y-35154
X73910Y-36139
X44850Y-38754
X45850Y-38754
X46850Y-38754
X47850Y-38754
X48850Y-38754
X49850Y-38754
X50850Y-38754
X51850Y-38754
X52850Y-38754
X65850Y-38754
X66850Y-38754
X67850Y-38754
X68850Y-38754
X69850Y-38754
X70850Y-38754
X71850Y-38754
X72850Y-38754
X73850Y-38754
T5
X44984Y-34016
X44984Y-36575
X46756Y-34016
X46756Y-36575
X48984Y-34016
X48984Y-36575
X50756Y-34016
X50756Y-36575
T7
X75910Y-32510
X42790Y-32510
X42790Y-38081
X75910Y-38081
T6
G00X71214Y-32950
M15
G01X70702Y-32950
M16
G05
G00X71214Y-37359
M15
G01X70702Y-37359
M16
G05
T0
M30
