G04 #@! TF.GenerationSoftware,KiCad,Pcbnew,(5.1.8)-1*
G04 #@! TF.CreationDate,2023-02-02T03:20:21+01:00*
G04 #@! TF.ProjectId,BulkyMIDI-32 Internal Panel,42756c6b-794d-4494-9449-2d333220496e,rev?*
G04 #@! TF.SameCoordinates,Original*
G04 #@! TF.FileFunction,Soldermask,Bot*
G04 #@! TF.FilePolarity,Negative*
%FSLAX46Y46*%
G04 Gerber Fmt 4.6, Leading zero omitted, Abs format (unit mm)*
G04 Created by KiCad (PCBNEW (5.1.8)-1) date 2023-02-02 03:20:21*
%MOMM*%
%LPD*%
G01*
G04 APERTURE LIST*
%ADD10O,1.700000X1.700000*%
%ADD11R,1.700000X1.700000*%
%ADD12C,2.000000*%
%ADD13R,3.200000X2.000000*%
%ADD14R,2.000000X2.000000*%
%ADD15R,1.000000X1.500000*%
%ADD16C,5.100000*%
%ADD17R,1.524000X1.524000*%
%ADD18C,1.524000*%
%ADD19R,1.800000X1.800000*%
%ADD20C,1.800000*%
%ADD21R,4.400000X3.000000*%
G04 APERTURE END LIST*
D10*
X187580000Y-98436000D03*
X185040000Y-98436000D03*
X182500000Y-98436000D03*
X179960000Y-98436000D03*
X177420000Y-98436000D03*
X174880000Y-98436000D03*
X172340000Y-98436000D03*
X169800000Y-98436000D03*
X167260000Y-98436000D03*
X134240000Y-98436000D03*
X131700000Y-98436000D03*
X129160000Y-98436000D03*
X126620000Y-98436000D03*
X124080000Y-98436000D03*
X121540000Y-98436000D03*
X119000000Y-98436000D03*
X116460000Y-98436000D03*
D11*
X113920000Y-98436000D03*
D12*
X124420000Y-86400000D03*
X128920000Y-86400000D03*
X124420000Y-92900000D03*
X128920000Y-92900000D03*
X114260000Y-86400000D03*
X118760000Y-86400000D03*
X114260000Y-92900000D03*
X118760000Y-92900000D03*
X173232500Y-86792000D03*
X173232500Y-91792000D03*
D13*
X180232500Y-83692000D03*
X180232500Y-94892000D03*
D12*
X187732500Y-86792000D03*
X187732500Y-89292000D03*
D14*
X187732500Y-91792000D03*
D15*
X181250000Y-87935000D03*
X182550000Y-87935000D03*
X183850000Y-87935000D03*
X181250000Y-91745000D03*
X182550000Y-91745000D03*
X183850000Y-91745000D03*
D16*
X108687500Y-96725000D03*
X108687500Y-82575000D03*
D17*
X133754300Y-89635000D03*
D18*
X133754300Y-87095000D03*
X133754300Y-84555000D03*
X133754300Y-82015000D03*
D19*
X194615000Y-90920000D03*
D20*
X194615000Y-88380000D03*
D16*
X192812500Y-96725000D03*
X192812500Y-82575000D03*
D18*
X104345500Y-92375000D03*
X106885500Y-92375000D03*
D17*
X109425500Y-92375000D03*
D18*
X109425500Y-86925000D03*
X106885500Y-86925000D03*
X104345500Y-86925000D03*
D21*
X102934500Y-81648500D03*
X102934500Y-97650500D03*
X198565500Y-81648500D03*
X198565500Y-97650500D03*
M02*
