G04 #@! TF.GenerationSoftware,KiCad,Pcbnew,(5.1.8)-1*
G04 #@! TF.CreationDate,2022-02-10T23:24:45+01:00*
G04 #@! TF.ProjectId,BulkyMIDI-32 Gameport IDC,42756c6b-794d-4494-9449-2d3332204761,rev?*
G04 #@! TF.SameCoordinates,Original*
G04 #@! TF.FileFunction,Legend,Bot*
G04 #@! TF.FilePolarity,Positive*
%FSLAX46Y46*%
G04 Gerber Fmt 4.6, Leading zero omitted, Abs format (unit mm)*
G04 Created by KiCad (PCBNEW (5.1.8)-1) date 2022-02-10 23:24:45*
%MOMM*%
%LPD*%
G01*
G04 APERTURE LIST*
%ADD10C,0.150000*%
G04 APERTURE END LIST*
D10*
X131389047Y-68651380D02*
X131389047Y-67651380D01*
X131055714Y-68365666D01*
X130722380Y-67651380D01*
X130722380Y-68651380D01*
X130246190Y-68651380D02*
X130246190Y-67651380D01*
X129770000Y-68651380D02*
X129770000Y-67651380D01*
X129531904Y-67651380D01*
X129389047Y-67699000D01*
X129293809Y-67794238D01*
X129246190Y-67889476D01*
X129198571Y-68079952D01*
X129198571Y-68222809D01*
X129246190Y-68413285D01*
X129293809Y-68508523D01*
X129389047Y-68603761D01*
X129531904Y-68651380D01*
X129770000Y-68651380D01*
X128770000Y-68651380D02*
X128770000Y-67651380D01*
X127341428Y-67651380D02*
X127150952Y-67651380D01*
X127055714Y-67699000D01*
X126960476Y-67794238D01*
X126912857Y-67984714D01*
X126912857Y-68318047D01*
X126960476Y-68508523D01*
X127055714Y-68603761D01*
X127150952Y-68651380D01*
X127341428Y-68651380D01*
X127436666Y-68603761D01*
X127531904Y-68508523D01*
X127579523Y-68318047D01*
X127579523Y-67984714D01*
X127531904Y-67794238D01*
X127436666Y-67699000D01*
X127341428Y-67651380D01*
X126484285Y-67651380D02*
X126484285Y-68460904D01*
X126436666Y-68556142D01*
X126389047Y-68603761D01*
X126293809Y-68651380D01*
X126103333Y-68651380D01*
X126008095Y-68603761D01*
X125960476Y-68556142D01*
X125912857Y-68460904D01*
X125912857Y-67651380D01*
X125579523Y-67651380D02*
X125008095Y-67651380D01*
X125293809Y-68651380D02*
X125293809Y-67651380D01*
X110402380Y-68651380D02*
X110402380Y-67651380D01*
X110069047Y-68365666D01*
X109735714Y-67651380D01*
X109735714Y-68651380D01*
X109259523Y-68651380D02*
X109259523Y-67651380D01*
X108783333Y-68651380D02*
X108783333Y-67651380D01*
X108545238Y-67651380D01*
X108402380Y-67699000D01*
X108307142Y-67794238D01*
X108259523Y-67889476D01*
X108211904Y-68079952D01*
X108211904Y-68222809D01*
X108259523Y-68413285D01*
X108307142Y-68508523D01*
X108402380Y-68603761D01*
X108545238Y-68651380D01*
X108783333Y-68651380D01*
X107783333Y-68651380D02*
X107783333Y-67651380D01*
X106545238Y-68651380D02*
X106545238Y-67651380D01*
X106069047Y-68651380D02*
X106069047Y-67651380D01*
X105497619Y-68651380D01*
X105497619Y-67651380D01*
X124931428Y-72041857D02*
X124717142Y-72113285D01*
X124645714Y-72184714D01*
X124574285Y-72327571D01*
X124574285Y-72541857D01*
X124645714Y-72684714D01*
X124717142Y-72756142D01*
X124860000Y-72827571D01*
X125431428Y-72827571D01*
X125431428Y-71327571D01*
X124931428Y-71327571D01*
X124788571Y-71399000D01*
X124717142Y-71470428D01*
X124645714Y-71613285D01*
X124645714Y-71756142D01*
X124717142Y-71899000D01*
X124788571Y-71970428D01*
X124931428Y-72041857D01*
X125431428Y-72041857D01*
X123288571Y-71827571D02*
X123288571Y-72827571D01*
X123931428Y-71827571D02*
X123931428Y-72613285D01*
X123860000Y-72756142D01*
X123717142Y-72827571D01*
X123502857Y-72827571D01*
X123360000Y-72756142D01*
X123288571Y-72684714D01*
X122360000Y-72827571D02*
X122502857Y-72756142D01*
X122574285Y-72613285D01*
X122574285Y-71327571D01*
X121788571Y-72827571D02*
X121788571Y-71327571D01*
X121645714Y-72256142D02*
X121217142Y-72827571D01*
X121217142Y-71827571D02*
X121788571Y-72399000D01*
X120717142Y-71827571D02*
X120360000Y-72827571D01*
X120002857Y-71827571D02*
X120360000Y-72827571D01*
X120502857Y-73184714D01*
X120574285Y-73256142D01*
X120717142Y-73327571D01*
X119431428Y-72827571D02*
X119431428Y-71327571D01*
X118931428Y-72399000D01*
X118431428Y-71327571D01*
X118431428Y-72827571D01*
X117717142Y-72827571D02*
X117717142Y-71327571D01*
X117002857Y-72827571D02*
X117002857Y-71327571D01*
X116645714Y-71327571D01*
X116431428Y-71399000D01*
X116288571Y-71541857D01*
X116217142Y-71684714D01*
X116145714Y-71970428D01*
X116145714Y-72184714D01*
X116217142Y-72470428D01*
X116288571Y-72613285D01*
X116431428Y-72756142D01*
X116645714Y-72827571D01*
X117002857Y-72827571D01*
X115502857Y-72827571D02*
X115502857Y-71327571D01*
X114788571Y-72256142D02*
X113645714Y-72256142D01*
X113074285Y-71327571D02*
X112145714Y-71327571D01*
X112645714Y-71899000D01*
X112431428Y-71899000D01*
X112288571Y-71970428D01*
X112217142Y-72041857D01*
X112145714Y-72184714D01*
X112145714Y-72541857D01*
X112217142Y-72684714D01*
X112288571Y-72756142D01*
X112431428Y-72827571D01*
X112860000Y-72827571D01*
X113002857Y-72756142D01*
X113074285Y-72684714D01*
X111574285Y-71470428D02*
X111502857Y-71399000D01*
X111360000Y-71327571D01*
X111002857Y-71327571D01*
X110860000Y-71399000D01*
X110788571Y-71470428D01*
X110717142Y-71613285D01*
X110717142Y-71756142D01*
X110788571Y-71970428D01*
X111645714Y-72827571D01*
X110717142Y-72827571D01*
X129538571Y-73799000D02*
X129681428Y-73727571D01*
X129895714Y-73727571D01*
X130110000Y-73799000D01*
X130252857Y-73941857D01*
X130324285Y-74084714D01*
X130395714Y-74370428D01*
X130395714Y-74584714D01*
X130324285Y-74870428D01*
X130252857Y-75013285D01*
X130110000Y-75156142D01*
X129895714Y-75227571D01*
X129752857Y-75227571D01*
X129538571Y-75156142D01*
X129467142Y-75084714D01*
X129467142Y-74584714D01*
X129752857Y-74584714D01*
X128181428Y-75227571D02*
X128181428Y-74441857D01*
X128252857Y-74299000D01*
X128395714Y-74227571D01*
X128681428Y-74227571D01*
X128824285Y-74299000D01*
X128181428Y-75156142D02*
X128324285Y-75227571D01*
X128681428Y-75227571D01*
X128824285Y-75156142D01*
X128895714Y-75013285D01*
X128895714Y-74870428D01*
X128824285Y-74727571D01*
X128681428Y-74656142D01*
X128324285Y-74656142D01*
X128181428Y-74584714D01*
X127467142Y-75227571D02*
X127467142Y-74227571D01*
X127467142Y-74370428D02*
X127395714Y-74299000D01*
X127252857Y-74227571D01*
X127038571Y-74227571D01*
X126895714Y-74299000D01*
X126824285Y-74441857D01*
X126824285Y-75227571D01*
X126824285Y-74441857D02*
X126752857Y-74299000D01*
X126610000Y-74227571D01*
X126395714Y-74227571D01*
X126252857Y-74299000D01*
X126181428Y-74441857D01*
X126181428Y-75227571D01*
X124895714Y-75156142D02*
X125038571Y-75227571D01*
X125324285Y-75227571D01*
X125467142Y-75156142D01*
X125538571Y-75013285D01*
X125538571Y-74441857D01*
X125467142Y-74299000D01*
X125324285Y-74227571D01*
X125038571Y-74227571D01*
X124895714Y-74299000D01*
X124824285Y-74441857D01*
X124824285Y-74584714D01*
X125538571Y-74727571D01*
X124181428Y-74227571D02*
X124181428Y-75727571D01*
X124181428Y-74299000D02*
X124038571Y-74227571D01*
X123752857Y-74227571D01*
X123610000Y-74299000D01*
X123538571Y-74370428D01*
X123467142Y-74513285D01*
X123467142Y-74941857D01*
X123538571Y-75084714D01*
X123610000Y-75156142D01*
X123752857Y-75227571D01*
X124038571Y-75227571D01*
X124181428Y-75156142D01*
X122610000Y-75227571D02*
X122752857Y-75156142D01*
X122824285Y-75084714D01*
X122895714Y-74941857D01*
X122895714Y-74513285D01*
X122824285Y-74370428D01*
X122752857Y-74299000D01*
X122610000Y-74227571D01*
X122395714Y-74227571D01*
X122252857Y-74299000D01*
X122181428Y-74370428D01*
X122110000Y-74513285D01*
X122110000Y-74941857D01*
X122181428Y-75084714D01*
X122252857Y-75156142D01*
X122395714Y-75227571D01*
X122610000Y-75227571D01*
X121467142Y-75227571D02*
X121467142Y-74227571D01*
X121467142Y-74513285D02*
X121395714Y-74370428D01*
X121324285Y-74299000D01*
X121181428Y-74227571D01*
X121038571Y-74227571D01*
X120752857Y-74227571D02*
X120181428Y-74227571D01*
X120538571Y-73727571D02*
X120538571Y-75013285D01*
X120467142Y-75156142D01*
X120324285Y-75227571D01*
X120181428Y-75227571D01*
X118538571Y-75227571D02*
X118538571Y-73727571D01*
X117824285Y-75227571D02*
X117824285Y-73727571D01*
X117467142Y-73727571D01*
X117252857Y-73799000D01*
X117110000Y-73941857D01*
X117038571Y-74084714D01*
X116967142Y-74370428D01*
X116967142Y-74584714D01*
X117038571Y-74870428D01*
X117110000Y-75013285D01*
X117252857Y-75156142D01*
X117467142Y-75227571D01*
X117824285Y-75227571D01*
X115467142Y-75084714D02*
X115538571Y-75156142D01*
X115752857Y-75227571D01*
X115895714Y-75227571D01*
X116110000Y-75156142D01*
X116252857Y-75013285D01*
X116324285Y-74870428D01*
X116395714Y-74584714D01*
X116395714Y-74370428D01*
X116324285Y-74084714D01*
X116252857Y-73941857D01*
X116110000Y-73799000D01*
X115895714Y-73727571D01*
X115752857Y-73727571D01*
X115538571Y-73799000D01*
X115467142Y-73870428D01*
X113252857Y-75799000D02*
X113324285Y-75727571D01*
X113467142Y-75513285D01*
X113538571Y-75370428D01*
X113610000Y-75156142D01*
X113681428Y-74799000D01*
X113681428Y-74513285D01*
X113610000Y-74156142D01*
X113538571Y-73941857D01*
X113467142Y-73799000D01*
X113324285Y-73584714D01*
X113252857Y-73513285D01*
X112681428Y-75227571D02*
X112681428Y-74227571D01*
X112681428Y-74513285D02*
X112610000Y-74370428D01*
X112538571Y-74299000D01*
X112395714Y-74227571D01*
X112252857Y-74227571D01*
X111181428Y-75156142D02*
X111324285Y-75227571D01*
X111610000Y-75227571D01*
X111752857Y-75156142D01*
X111824285Y-75013285D01*
X111824285Y-74441857D01*
X111752857Y-74299000D01*
X111610000Y-74227571D01*
X111324285Y-74227571D01*
X111181428Y-74299000D01*
X111110000Y-74441857D01*
X111110000Y-74584714D01*
X111824285Y-74727571D01*
X110610000Y-74227571D02*
X110252857Y-75227571D01*
X109895714Y-74227571D01*
X109324285Y-75084714D02*
X109252857Y-75156142D01*
X109324285Y-75227571D01*
X109395714Y-75156142D01*
X109324285Y-75084714D01*
X109324285Y-75227571D01*
X107538571Y-74799000D02*
X106824285Y-74799000D01*
X107681428Y-75227571D02*
X107181428Y-73727571D01*
X106681428Y-75227571D01*
X106324285Y-75799000D02*
X106252857Y-75727571D01*
X106110000Y-75513285D01*
X106038571Y-75370428D01*
X105967142Y-75156142D01*
X105895714Y-74799000D01*
X105895714Y-74513285D01*
X105967142Y-74156142D01*
X106038571Y-73941857D01*
X106110000Y-73799000D01*
X106252857Y-73584714D01*
X106324285Y-73513285D01*
X126217142Y-76627571D02*
X126217142Y-77841857D01*
X126288571Y-77984714D01*
X126360000Y-78056142D01*
X126502857Y-78127571D01*
X126717142Y-78127571D01*
X126860000Y-78056142D01*
X126217142Y-77556142D02*
X126360000Y-77627571D01*
X126645714Y-77627571D01*
X126788571Y-77556142D01*
X126860000Y-77484714D01*
X126931428Y-77341857D01*
X126931428Y-76913285D01*
X126860000Y-76770428D01*
X126788571Y-76699000D01*
X126645714Y-76627571D01*
X126360000Y-76627571D01*
X126217142Y-76699000D01*
X125502857Y-77627571D02*
X125502857Y-76627571D01*
X125502857Y-76127571D02*
X125574285Y-76199000D01*
X125502857Y-76270428D01*
X125431428Y-76199000D01*
X125502857Y-76127571D01*
X125502857Y-76270428D01*
X125002857Y-76627571D02*
X124431428Y-76627571D01*
X124788571Y-76127571D02*
X124788571Y-77413285D01*
X124717142Y-77556142D01*
X124574285Y-77627571D01*
X124431428Y-77627571D01*
X123931428Y-77627571D02*
X123931428Y-76127571D01*
X123288571Y-77627571D02*
X123288571Y-76841857D01*
X123360000Y-76699000D01*
X123502857Y-76627571D01*
X123717142Y-76627571D01*
X123860000Y-76699000D01*
X123931428Y-76770428D01*
X121931428Y-76627571D02*
X121931428Y-77627571D01*
X122574285Y-76627571D02*
X122574285Y-77413285D01*
X122502857Y-77556142D01*
X122360000Y-77627571D01*
X122145714Y-77627571D01*
X122002857Y-77556142D01*
X121931428Y-77484714D01*
X121217142Y-77627571D02*
X121217142Y-76127571D01*
X121217142Y-76699000D02*
X121074285Y-76627571D01*
X120788571Y-76627571D01*
X120645714Y-76699000D01*
X120574285Y-76770428D01*
X120502857Y-76913285D01*
X120502857Y-77341857D01*
X120574285Y-77484714D01*
X120645714Y-77556142D01*
X120788571Y-77627571D01*
X121074285Y-77627571D01*
X121217142Y-77556142D01*
X119860000Y-77484714D02*
X119788571Y-77556142D01*
X119860000Y-77627571D01*
X119931428Y-77556142D01*
X119860000Y-77484714D01*
X119860000Y-77627571D01*
X118502857Y-77556142D02*
X118645714Y-77627571D01*
X118931428Y-77627571D01*
X119074285Y-77556142D01*
X119145714Y-77484714D01*
X119217142Y-77341857D01*
X119217142Y-76913285D01*
X119145714Y-76770428D01*
X119074285Y-76699000D01*
X118931428Y-76627571D01*
X118645714Y-76627571D01*
X118502857Y-76699000D01*
X117645714Y-77627571D02*
X117788571Y-77556142D01*
X117860000Y-77484714D01*
X117931428Y-77341857D01*
X117931428Y-76913285D01*
X117860000Y-76770428D01*
X117788571Y-76699000D01*
X117645714Y-76627571D01*
X117431428Y-76627571D01*
X117288571Y-76699000D01*
X117217142Y-76770428D01*
X117145714Y-76913285D01*
X117145714Y-77341857D01*
X117217142Y-77484714D01*
X117288571Y-77556142D01*
X117431428Y-77627571D01*
X117645714Y-77627571D01*
X116502857Y-77627571D02*
X116502857Y-76627571D01*
X116502857Y-76770428D02*
X116431428Y-76699000D01*
X116288571Y-76627571D01*
X116074285Y-76627571D01*
X115931428Y-76699000D01*
X115860000Y-76841857D01*
X115860000Y-77627571D01*
X115860000Y-76841857D02*
X115788571Y-76699000D01*
X115645714Y-76627571D01*
X115431428Y-76627571D01*
X115288571Y-76699000D01*
X115217142Y-76841857D01*
X115217142Y-77627571D01*
X113431428Y-76056142D02*
X114717142Y-77984714D01*
X113145714Y-76627571D02*
X112574285Y-76627571D01*
X112931428Y-76127571D02*
X112931428Y-77413285D01*
X112860000Y-77556142D01*
X112717142Y-77627571D01*
X112574285Y-77627571D01*
X111502857Y-77556142D02*
X111645714Y-77627571D01*
X111931428Y-77627571D01*
X112074285Y-77556142D01*
X112145714Y-77413285D01*
X112145714Y-76841857D01*
X112074285Y-76699000D01*
X111931428Y-76627571D01*
X111645714Y-76627571D01*
X111502857Y-76699000D01*
X111431428Y-76841857D01*
X111431428Y-76984714D01*
X112145714Y-77127571D01*
X110788571Y-77627571D02*
X110788571Y-76127571D01*
X110788571Y-76699000D02*
X110645714Y-76627571D01*
X110360000Y-76627571D01*
X110217142Y-76699000D01*
X110145714Y-76770428D01*
X110074285Y-76913285D01*
X110074285Y-77341857D01*
X110145714Y-77484714D01*
X110217142Y-77556142D01*
X110360000Y-77627571D01*
X110645714Y-77627571D01*
X110788571Y-77556142D01*
X109217142Y-77627571D02*
X109360000Y-77556142D01*
X109431428Y-77413285D01*
X109431428Y-76127571D01*
M02*
