G04 #@! TF.GenerationSoftware,KiCad,Pcbnew,(5.1.8)-1*
G04 #@! TF.CreationDate,2022-07-15T00:53:09+02:00*
G04 #@! TF.ProjectId,BulkyMIDI-32 Audio Switch FP1,42756c6b-794d-4494-9449-2d3332204175,rev?*
G04 #@! TF.SameCoordinates,Original*
G04 #@! TF.FileFunction,Copper,L2,Bot*
G04 #@! TF.FilePolarity,Positive*
%FSLAX46Y46*%
G04 Gerber Fmt 4.6, Leading zero omitted, Abs format (unit mm)*
G04 Created by KiCad (PCBNEW (5.1.8)-1) date 2022-07-15 00:53:09*
%MOMM*%
%LPD*%
G01*
G04 APERTURE LIST*
G04 #@! TA.AperFunction,ComponentPad*
%ADD10C,3.500000*%
G04 #@! TD*
G04 #@! TA.AperFunction,Conductor*
%ADD11C,0.254000*%
G04 #@! TD*
G04 #@! TA.AperFunction,Conductor*
%ADD12C,0.100000*%
G04 #@! TD*
G04 APERTURE END LIST*
D10*
X99815000Y-129199000D03*
X182365000Y-129199000D03*
X182365000Y-115949000D03*
X99815000Y-115949000D03*
D11*
X190430000Y-133514000D02*
X91750000Y-133514000D01*
X91750000Y-130868609D01*
X98324997Y-130868609D01*
X98511073Y-131209766D01*
X98928409Y-131425513D01*
X99379815Y-131555696D01*
X99847946Y-131595313D01*
X100314811Y-131542842D01*
X100762468Y-131400297D01*
X101118927Y-131209766D01*
X101305003Y-130868609D01*
X180874997Y-130868609D01*
X181061073Y-131209766D01*
X181478409Y-131425513D01*
X181929815Y-131555696D01*
X182397946Y-131595313D01*
X182864811Y-131542842D01*
X183312468Y-131400297D01*
X183668927Y-131209766D01*
X183855003Y-130868609D01*
X182365000Y-129378605D01*
X180874997Y-130868609D01*
X101305003Y-130868609D01*
X99815000Y-129378605D01*
X98324997Y-130868609D01*
X91750000Y-130868609D01*
X91750000Y-129231946D01*
X97418687Y-129231946D01*
X97471158Y-129698811D01*
X97613703Y-130146468D01*
X97804234Y-130502927D01*
X98145391Y-130689003D01*
X99635395Y-129199000D01*
X99994605Y-129199000D01*
X101484609Y-130689003D01*
X101825766Y-130502927D01*
X102041513Y-130085591D01*
X102171696Y-129634185D01*
X102205736Y-129231946D01*
X179968687Y-129231946D01*
X180021158Y-129698811D01*
X180163703Y-130146468D01*
X180354234Y-130502927D01*
X180695391Y-130689003D01*
X182185395Y-129199000D01*
X182544605Y-129199000D01*
X184034609Y-130689003D01*
X184375766Y-130502927D01*
X184591513Y-130085591D01*
X184721696Y-129634185D01*
X184761313Y-129166054D01*
X184708842Y-128699189D01*
X184566297Y-128251532D01*
X184375766Y-127895073D01*
X184034609Y-127708997D01*
X182544605Y-129199000D01*
X182185395Y-129199000D01*
X180695391Y-127708997D01*
X180354234Y-127895073D01*
X180138487Y-128312409D01*
X180008304Y-128763815D01*
X179968687Y-129231946D01*
X102205736Y-129231946D01*
X102211313Y-129166054D01*
X102158842Y-128699189D01*
X102016297Y-128251532D01*
X101825766Y-127895073D01*
X101484609Y-127708997D01*
X99994605Y-129199000D01*
X99635395Y-129199000D01*
X98145391Y-127708997D01*
X97804234Y-127895073D01*
X97588487Y-128312409D01*
X97458304Y-128763815D01*
X97418687Y-129231946D01*
X91750000Y-129231946D01*
X91750000Y-127529391D01*
X98324997Y-127529391D01*
X99815000Y-129019395D01*
X101305003Y-127529391D01*
X180874997Y-127529391D01*
X182365000Y-129019395D01*
X183855003Y-127529391D01*
X183668927Y-127188234D01*
X183251591Y-126972487D01*
X182800185Y-126842304D01*
X182332054Y-126802687D01*
X181865189Y-126855158D01*
X181417532Y-126997703D01*
X181061073Y-127188234D01*
X180874997Y-127529391D01*
X101305003Y-127529391D01*
X101118927Y-127188234D01*
X100701591Y-126972487D01*
X100250185Y-126842304D01*
X99782054Y-126802687D01*
X99315189Y-126855158D01*
X98867532Y-126997703D01*
X98511073Y-127188234D01*
X98324997Y-127529391D01*
X91750000Y-127529391D01*
X91750000Y-124501116D01*
X109947423Y-124501116D01*
X109947423Y-125006884D01*
X110046094Y-125502934D01*
X110239643Y-125970204D01*
X110520633Y-126390735D01*
X110878265Y-126748367D01*
X111298796Y-127029357D01*
X111766066Y-127222906D01*
X112262116Y-127321577D01*
X112767884Y-127321577D01*
X113263934Y-127222906D01*
X113731204Y-127029357D01*
X114151735Y-126748367D01*
X114509367Y-126390735D01*
X114790357Y-125970204D01*
X114983906Y-125502934D01*
X115082577Y-125006884D01*
X115082577Y-124501116D01*
X121377423Y-124501116D01*
X121377423Y-125006884D01*
X121476094Y-125502934D01*
X121669643Y-125970204D01*
X121950633Y-126390735D01*
X122308265Y-126748367D01*
X122728796Y-127029357D01*
X123196066Y-127222906D01*
X123692116Y-127321577D01*
X124197884Y-127321577D01*
X124693934Y-127222906D01*
X125161204Y-127029357D01*
X125581735Y-126748367D01*
X125939367Y-126390735D01*
X126220357Y-125970204D01*
X126413906Y-125502934D01*
X126512577Y-125006884D01*
X126512577Y-124501116D01*
X132807423Y-124501116D01*
X132807423Y-125006884D01*
X132906094Y-125502934D01*
X133099643Y-125970204D01*
X133380633Y-126390735D01*
X133738265Y-126748367D01*
X134158796Y-127029357D01*
X134626066Y-127222906D01*
X135122116Y-127321577D01*
X135627884Y-127321577D01*
X136123934Y-127222906D01*
X136591204Y-127029357D01*
X137011735Y-126748367D01*
X137369367Y-126390735D01*
X137650357Y-125970204D01*
X137843906Y-125502934D01*
X137942577Y-125006884D01*
X137942577Y-124501116D01*
X144237423Y-124501116D01*
X144237423Y-125006884D01*
X144336094Y-125502934D01*
X144529643Y-125970204D01*
X144810633Y-126390735D01*
X145168265Y-126748367D01*
X145588796Y-127029357D01*
X146056066Y-127222906D01*
X146552116Y-127321577D01*
X147057884Y-127321577D01*
X147553934Y-127222906D01*
X148021204Y-127029357D01*
X148441735Y-126748367D01*
X148799367Y-126390735D01*
X149080357Y-125970204D01*
X149273906Y-125502934D01*
X149372577Y-125006884D01*
X149372577Y-124501116D01*
X155667423Y-124501116D01*
X155667423Y-125006884D01*
X155766094Y-125502934D01*
X155959643Y-125970204D01*
X156240633Y-126390735D01*
X156598265Y-126748367D01*
X157018796Y-127029357D01*
X157486066Y-127222906D01*
X157982116Y-127321577D01*
X158487884Y-127321577D01*
X158983934Y-127222906D01*
X159451204Y-127029357D01*
X159871735Y-126748367D01*
X160229367Y-126390735D01*
X160510357Y-125970204D01*
X160703906Y-125502934D01*
X160802577Y-125006884D01*
X160802577Y-124501116D01*
X167097423Y-124501116D01*
X167097423Y-125006884D01*
X167196094Y-125502934D01*
X167389643Y-125970204D01*
X167670633Y-126390735D01*
X168028265Y-126748367D01*
X168448796Y-127029357D01*
X168916066Y-127222906D01*
X169412116Y-127321577D01*
X169917884Y-127321577D01*
X170413934Y-127222906D01*
X170881204Y-127029357D01*
X171301735Y-126748367D01*
X171659367Y-126390735D01*
X171940357Y-125970204D01*
X172133906Y-125502934D01*
X172232577Y-125006884D01*
X172232577Y-124501116D01*
X172133906Y-124005066D01*
X171940357Y-123537796D01*
X171659367Y-123117265D01*
X171301735Y-122759633D01*
X170881204Y-122478643D01*
X170413934Y-122285094D01*
X169917884Y-122186423D01*
X169412116Y-122186423D01*
X168916066Y-122285094D01*
X168448796Y-122478643D01*
X168028265Y-122759633D01*
X167670633Y-123117265D01*
X167389643Y-123537796D01*
X167196094Y-124005066D01*
X167097423Y-124501116D01*
X160802577Y-124501116D01*
X160703906Y-124005066D01*
X160510357Y-123537796D01*
X160229367Y-123117265D01*
X159871735Y-122759633D01*
X159451204Y-122478643D01*
X158983934Y-122285094D01*
X158487884Y-122186423D01*
X157982116Y-122186423D01*
X157486066Y-122285094D01*
X157018796Y-122478643D01*
X156598265Y-122759633D01*
X156240633Y-123117265D01*
X155959643Y-123537796D01*
X155766094Y-124005066D01*
X155667423Y-124501116D01*
X149372577Y-124501116D01*
X149273906Y-124005066D01*
X149080357Y-123537796D01*
X148799367Y-123117265D01*
X148441735Y-122759633D01*
X148021204Y-122478643D01*
X147553934Y-122285094D01*
X147057884Y-122186423D01*
X146552116Y-122186423D01*
X146056066Y-122285094D01*
X145588796Y-122478643D01*
X145168265Y-122759633D01*
X144810633Y-123117265D01*
X144529643Y-123537796D01*
X144336094Y-124005066D01*
X144237423Y-124501116D01*
X137942577Y-124501116D01*
X137843906Y-124005066D01*
X137650357Y-123537796D01*
X137369367Y-123117265D01*
X137011735Y-122759633D01*
X136591204Y-122478643D01*
X136123934Y-122285094D01*
X135627884Y-122186423D01*
X135122116Y-122186423D01*
X134626066Y-122285094D01*
X134158796Y-122478643D01*
X133738265Y-122759633D01*
X133380633Y-123117265D01*
X133099643Y-123537796D01*
X132906094Y-124005066D01*
X132807423Y-124501116D01*
X126512577Y-124501116D01*
X126413906Y-124005066D01*
X126220357Y-123537796D01*
X125939367Y-123117265D01*
X125581735Y-122759633D01*
X125161204Y-122478643D01*
X124693934Y-122285094D01*
X124197884Y-122186423D01*
X123692116Y-122186423D01*
X123196066Y-122285094D01*
X122728796Y-122478643D01*
X122308265Y-122759633D01*
X121950633Y-123117265D01*
X121669643Y-123537796D01*
X121476094Y-124005066D01*
X121377423Y-124501116D01*
X115082577Y-124501116D01*
X114983906Y-124005066D01*
X114790357Y-123537796D01*
X114509367Y-123117265D01*
X114151735Y-122759633D01*
X113731204Y-122478643D01*
X113263934Y-122285094D01*
X112767884Y-122186423D01*
X112262116Y-122186423D01*
X111766066Y-122285094D01*
X111298796Y-122478643D01*
X110878265Y-122759633D01*
X110520633Y-123117265D01*
X110239643Y-123537796D01*
X110046094Y-124005066D01*
X109947423Y-124501116D01*
X91750000Y-124501116D01*
X91750000Y-121326116D01*
X97247423Y-121326116D01*
X97247423Y-121831884D01*
X97346094Y-122327934D01*
X97539643Y-122795204D01*
X97820633Y-123215735D01*
X98178265Y-123573367D01*
X98598796Y-123854357D01*
X99066066Y-124047906D01*
X99562116Y-124146577D01*
X100067884Y-124146577D01*
X100563934Y-124047906D01*
X101031204Y-123854357D01*
X101451735Y-123573367D01*
X101809367Y-123215735D01*
X102090357Y-122795204D01*
X102283906Y-122327934D01*
X102382577Y-121831884D01*
X102382577Y-121326116D01*
X102283906Y-120830066D01*
X102090357Y-120362796D01*
X101809367Y-119942265D01*
X101451735Y-119584633D01*
X101031204Y-119303643D01*
X100563934Y-119110094D01*
X100067884Y-119011423D01*
X99562116Y-119011423D01*
X99066066Y-119110094D01*
X98598796Y-119303643D01*
X98178265Y-119584633D01*
X97820633Y-119942265D01*
X97539643Y-120362796D01*
X97346094Y-120830066D01*
X97247423Y-121326116D01*
X91750000Y-121326116D01*
X91750000Y-117618609D01*
X98324997Y-117618609D01*
X98511073Y-117959766D01*
X98928409Y-118175513D01*
X99379815Y-118305696D01*
X99847946Y-118345313D01*
X100314811Y-118292842D01*
X100762468Y-118150297D01*
X101118927Y-117959766D01*
X101305003Y-117618609D01*
X99815000Y-116128605D01*
X98324997Y-117618609D01*
X91750000Y-117618609D01*
X91750000Y-115981946D01*
X97418687Y-115981946D01*
X97471158Y-116448811D01*
X97613703Y-116896468D01*
X97804234Y-117252927D01*
X98145391Y-117439003D01*
X99635395Y-115949000D01*
X99994605Y-115949000D01*
X101484609Y-117439003D01*
X101825766Y-117252927D01*
X102017978Y-116881116D01*
X109947423Y-116881116D01*
X109947423Y-117386884D01*
X110046094Y-117882934D01*
X110239643Y-118350204D01*
X110520633Y-118770735D01*
X110878265Y-119128367D01*
X111298796Y-119409357D01*
X111766066Y-119602906D01*
X112262116Y-119701577D01*
X112767884Y-119701577D01*
X113263934Y-119602906D01*
X113731204Y-119409357D01*
X114151735Y-119128367D01*
X114509367Y-118770735D01*
X114790357Y-118350204D01*
X114983906Y-117882934D01*
X115082577Y-117386884D01*
X115082577Y-116881116D01*
X121377423Y-116881116D01*
X121377423Y-117386884D01*
X121476094Y-117882934D01*
X121669643Y-118350204D01*
X121950633Y-118770735D01*
X122308265Y-119128367D01*
X122728796Y-119409357D01*
X123196066Y-119602906D01*
X123692116Y-119701577D01*
X124197884Y-119701577D01*
X124693934Y-119602906D01*
X125161204Y-119409357D01*
X125581735Y-119128367D01*
X125939367Y-118770735D01*
X126220357Y-118350204D01*
X126413906Y-117882934D01*
X126512577Y-117386884D01*
X126512577Y-116881116D01*
X132807423Y-116881116D01*
X132807423Y-117386884D01*
X132906094Y-117882934D01*
X133099643Y-118350204D01*
X133380633Y-118770735D01*
X133738265Y-119128367D01*
X134158796Y-119409357D01*
X134626066Y-119602906D01*
X135122116Y-119701577D01*
X135627884Y-119701577D01*
X136123934Y-119602906D01*
X136591204Y-119409357D01*
X137011735Y-119128367D01*
X137369367Y-118770735D01*
X137650357Y-118350204D01*
X137843906Y-117882934D01*
X137942577Y-117386884D01*
X137942577Y-116881116D01*
X144237423Y-116881116D01*
X144237423Y-117386884D01*
X144336094Y-117882934D01*
X144529643Y-118350204D01*
X144810633Y-118770735D01*
X145168265Y-119128367D01*
X145588796Y-119409357D01*
X146056066Y-119602906D01*
X146552116Y-119701577D01*
X147057884Y-119701577D01*
X147553934Y-119602906D01*
X148021204Y-119409357D01*
X148441735Y-119128367D01*
X148799367Y-118770735D01*
X149080357Y-118350204D01*
X149273906Y-117882934D01*
X149372577Y-117386884D01*
X149372577Y-116881116D01*
X155667423Y-116881116D01*
X155667423Y-117386884D01*
X155766094Y-117882934D01*
X155959643Y-118350204D01*
X156240633Y-118770735D01*
X156598265Y-119128367D01*
X157018796Y-119409357D01*
X157486066Y-119602906D01*
X157982116Y-119701577D01*
X158487884Y-119701577D01*
X158983934Y-119602906D01*
X159451204Y-119409357D01*
X159871735Y-119128367D01*
X160229367Y-118770735D01*
X160510357Y-118350204D01*
X160703906Y-117882934D01*
X160802577Y-117386884D01*
X160802577Y-116881116D01*
X167097423Y-116881116D01*
X167097423Y-117386884D01*
X167196094Y-117882934D01*
X167389643Y-118350204D01*
X167670633Y-118770735D01*
X168028265Y-119128367D01*
X168448796Y-119409357D01*
X168916066Y-119602906D01*
X169412116Y-119701577D01*
X169917884Y-119701577D01*
X170413934Y-119602906D01*
X170881204Y-119409357D01*
X171301735Y-119128367D01*
X171659367Y-118770735D01*
X171940357Y-118350204D01*
X172133906Y-117882934D01*
X172186483Y-117618609D01*
X180874997Y-117618609D01*
X181061073Y-117959766D01*
X181478409Y-118175513D01*
X181929815Y-118305696D01*
X182397946Y-118345313D01*
X182864811Y-118292842D01*
X183312468Y-118150297D01*
X183668927Y-117959766D01*
X183855003Y-117618609D01*
X182365000Y-116128605D01*
X180874997Y-117618609D01*
X172186483Y-117618609D01*
X172232577Y-117386884D01*
X172232577Y-116881116D01*
X172133906Y-116385066D01*
X171966929Y-115981946D01*
X179968687Y-115981946D01*
X180021158Y-116448811D01*
X180163703Y-116896468D01*
X180354234Y-117252927D01*
X180695391Y-117439003D01*
X182185395Y-115949000D01*
X182544605Y-115949000D01*
X184034609Y-117439003D01*
X184375766Y-117252927D01*
X184591513Y-116835591D01*
X184721696Y-116384185D01*
X184761313Y-115916054D01*
X184708842Y-115449189D01*
X184566297Y-115001532D01*
X184375766Y-114645073D01*
X184034609Y-114458997D01*
X182544605Y-115949000D01*
X182185395Y-115949000D01*
X180695391Y-114458997D01*
X180354234Y-114645073D01*
X180138487Y-115062409D01*
X180008304Y-115513815D01*
X179968687Y-115981946D01*
X171966929Y-115981946D01*
X171940357Y-115917796D01*
X171659367Y-115497265D01*
X171301735Y-115139633D01*
X170881204Y-114858643D01*
X170413934Y-114665094D01*
X169917884Y-114566423D01*
X169412116Y-114566423D01*
X168916066Y-114665094D01*
X168448796Y-114858643D01*
X168028265Y-115139633D01*
X167670633Y-115497265D01*
X167389643Y-115917796D01*
X167196094Y-116385066D01*
X167097423Y-116881116D01*
X160802577Y-116881116D01*
X160703906Y-116385066D01*
X160510357Y-115917796D01*
X160229367Y-115497265D01*
X159871735Y-115139633D01*
X159451204Y-114858643D01*
X158983934Y-114665094D01*
X158487884Y-114566423D01*
X157982116Y-114566423D01*
X157486066Y-114665094D01*
X157018796Y-114858643D01*
X156598265Y-115139633D01*
X156240633Y-115497265D01*
X155959643Y-115917796D01*
X155766094Y-116385066D01*
X155667423Y-116881116D01*
X149372577Y-116881116D01*
X149273906Y-116385066D01*
X149080357Y-115917796D01*
X148799367Y-115497265D01*
X148441735Y-115139633D01*
X148021204Y-114858643D01*
X147553934Y-114665094D01*
X147057884Y-114566423D01*
X146552116Y-114566423D01*
X146056066Y-114665094D01*
X145588796Y-114858643D01*
X145168265Y-115139633D01*
X144810633Y-115497265D01*
X144529643Y-115917796D01*
X144336094Y-116385066D01*
X144237423Y-116881116D01*
X137942577Y-116881116D01*
X137843906Y-116385066D01*
X137650357Y-115917796D01*
X137369367Y-115497265D01*
X137011735Y-115139633D01*
X136591204Y-114858643D01*
X136123934Y-114665094D01*
X135627884Y-114566423D01*
X135122116Y-114566423D01*
X134626066Y-114665094D01*
X134158796Y-114858643D01*
X133738265Y-115139633D01*
X133380633Y-115497265D01*
X133099643Y-115917796D01*
X132906094Y-116385066D01*
X132807423Y-116881116D01*
X126512577Y-116881116D01*
X126413906Y-116385066D01*
X126220357Y-115917796D01*
X125939367Y-115497265D01*
X125581735Y-115139633D01*
X125161204Y-114858643D01*
X124693934Y-114665094D01*
X124197884Y-114566423D01*
X123692116Y-114566423D01*
X123196066Y-114665094D01*
X122728796Y-114858643D01*
X122308265Y-115139633D01*
X121950633Y-115497265D01*
X121669643Y-115917796D01*
X121476094Y-116385066D01*
X121377423Y-116881116D01*
X115082577Y-116881116D01*
X114983906Y-116385066D01*
X114790357Y-115917796D01*
X114509367Y-115497265D01*
X114151735Y-115139633D01*
X113731204Y-114858643D01*
X113263934Y-114665094D01*
X112767884Y-114566423D01*
X112262116Y-114566423D01*
X111766066Y-114665094D01*
X111298796Y-114858643D01*
X110878265Y-115139633D01*
X110520633Y-115497265D01*
X110239643Y-115917796D01*
X110046094Y-116385066D01*
X109947423Y-116881116D01*
X102017978Y-116881116D01*
X102041513Y-116835591D01*
X102171696Y-116384185D01*
X102211313Y-115916054D01*
X102158842Y-115449189D01*
X102016297Y-115001532D01*
X101825766Y-114645073D01*
X101484609Y-114458997D01*
X99994605Y-115949000D01*
X99635395Y-115949000D01*
X98145391Y-114458997D01*
X97804234Y-114645073D01*
X97588487Y-115062409D01*
X97458304Y-115513815D01*
X97418687Y-115981946D01*
X91750000Y-115981946D01*
X91750000Y-114279391D01*
X98324997Y-114279391D01*
X99815000Y-115769395D01*
X101305003Y-114279391D01*
X180874997Y-114279391D01*
X182365000Y-115769395D01*
X183855003Y-114279391D01*
X183668927Y-113938234D01*
X183251591Y-113722487D01*
X182800185Y-113592304D01*
X182332054Y-113552687D01*
X181865189Y-113605158D01*
X181417532Y-113747703D01*
X181061073Y-113938234D01*
X180874997Y-114279391D01*
X101305003Y-114279391D01*
X101118927Y-113938234D01*
X100701591Y-113722487D01*
X100250185Y-113592304D01*
X99782054Y-113552687D01*
X99315189Y-113605158D01*
X98867532Y-113747703D01*
X98511073Y-113938234D01*
X98324997Y-114279391D01*
X91750000Y-114279391D01*
X91750000Y-111634000D01*
X190430001Y-111634000D01*
X190430000Y-133514000D01*
G04 #@! TA.AperFunction,Conductor*
D12*
G36*
X190430000Y-133514000D02*
G01*
X91750000Y-133514000D01*
X91750000Y-130868609D01*
X98324997Y-130868609D01*
X98511073Y-131209766D01*
X98928409Y-131425513D01*
X99379815Y-131555696D01*
X99847946Y-131595313D01*
X100314811Y-131542842D01*
X100762468Y-131400297D01*
X101118927Y-131209766D01*
X101305003Y-130868609D01*
X180874997Y-130868609D01*
X181061073Y-131209766D01*
X181478409Y-131425513D01*
X181929815Y-131555696D01*
X182397946Y-131595313D01*
X182864811Y-131542842D01*
X183312468Y-131400297D01*
X183668927Y-131209766D01*
X183855003Y-130868609D01*
X182365000Y-129378605D01*
X180874997Y-130868609D01*
X101305003Y-130868609D01*
X99815000Y-129378605D01*
X98324997Y-130868609D01*
X91750000Y-130868609D01*
X91750000Y-129231946D01*
X97418687Y-129231946D01*
X97471158Y-129698811D01*
X97613703Y-130146468D01*
X97804234Y-130502927D01*
X98145391Y-130689003D01*
X99635395Y-129199000D01*
X99994605Y-129199000D01*
X101484609Y-130689003D01*
X101825766Y-130502927D01*
X102041513Y-130085591D01*
X102171696Y-129634185D01*
X102205736Y-129231946D01*
X179968687Y-129231946D01*
X180021158Y-129698811D01*
X180163703Y-130146468D01*
X180354234Y-130502927D01*
X180695391Y-130689003D01*
X182185395Y-129199000D01*
X182544605Y-129199000D01*
X184034609Y-130689003D01*
X184375766Y-130502927D01*
X184591513Y-130085591D01*
X184721696Y-129634185D01*
X184761313Y-129166054D01*
X184708842Y-128699189D01*
X184566297Y-128251532D01*
X184375766Y-127895073D01*
X184034609Y-127708997D01*
X182544605Y-129199000D01*
X182185395Y-129199000D01*
X180695391Y-127708997D01*
X180354234Y-127895073D01*
X180138487Y-128312409D01*
X180008304Y-128763815D01*
X179968687Y-129231946D01*
X102205736Y-129231946D01*
X102211313Y-129166054D01*
X102158842Y-128699189D01*
X102016297Y-128251532D01*
X101825766Y-127895073D01*
X101484609Y-127708997D01*
X99994605Y-129199000D01*
X99635395Y-129199000D01*
X98145391Y-127708997D01*
X97804234Y-127895073D01*
X97588487Y-128312409D01*
X97458304Y-128763815D01*
X97418687Y-129231946D01*
X91750000Y-129231946D01*
X91750000Y-127529391D01*
X98324997Y-127529391D01*
X99815000Y-129019395D01*
X101305003Y-127529391D01*
X180874997Y-127529391D01*
X182365000Y-129019395D01*
X183855003Y-127529391D01*
X183668927Y-127188234D01*
X183251591Y-126972487D01*
X182800185Y-126842304D01*
X182332054Y-126802687D01*
X181865189Y-126855158D01*
X181417532Y-126997703D01*
X181061073Y-127188234D01*
X180874997Y-127529391D01*
X101305003Y-127529391D01*
X101118927Y-127188234D01*
X100701591Y-126972487D01*
X100250185Y-126842304D01*
X99782054Y-126802687D01*
X99315189Y-126855158D01*
X98867532Y-126997703D01*
X98511073Y-127188234D01*
X98324997Y-127529391D01*
X91750000Y-127529391D01*
X91750000Y-124501116D01*
X109947423Y-124501116D01*
X109947423Y-125006884D01*
X110046094Y-125502934D01*
X110239643Y-125970204D01*
X110520633Y-126390735D01*
X110878265Y-126748367D01*
X111298796Y-127029357D01*
X111766066Y-127222906D01*
X112262116Y-127321577D01*
X112767884Y-127321577D01*
X113263934Y-127222906D01*
X113731204Y-127029357D01*
X114151735Y-126748367D01*
X114509367Y-126390735D01*
X114790357Y-125970204D01*
X114983906Y-125502934D01*
X115082577Y-125006884D01*
X115082577Y-124501116D01*
X121377423Y-124501116D01*
X121377423Y-125006884D01*
X121476094Y-125502934D01*
X121669643Y-125970204D01*
X121950633Y-126390735D01*
X122308265Y-126748367D01*
X122728796Y-127029357D01*
X123196066Y-127222906D01*
X123692116Y-127321577D01*
X124197884Y-127321577D01*
X124693934Y-127222906D01*
X125161204Y-127029357D01*
X125581735Y-126748367D01*
X125939367Y-126390735D01*
X126220357Y-125970204D01*
X126413906Y-125502934D01*
X126512577Y-125006884D01*
X126512577Y-124501116D01*
X132807423Y-124501116D01*
X132807423Y-125006884D01*
X132906094Y-125502934D01*
X133099643Y-125970204D01*
X133380633Y-126390735D01*
X133738265Y-126748367D01*
X134158796Y-127029357D01*
X134626066Y-127222906D01*
X135122116Y-127321577D01*
X135627884Y-127321577D01*
X136123934Y-127222906D01*
X136591204Y-127029357D01*
X137011735Y-126748367D01*
X137369367Y-126390735D01*
X137650357Y-125970204D01*
X137843906Y-125502934D01*
X137942577Y-125006884D01*
X137942577Y-124501116D01*
X144237423Y-124501116D01*
X144237423Y-125006884D01*
X144336094Y-125502934D01*
X144529643Y-125970204D01*
X144810633Y-126390735D01*
X145168265Y-126748367D01*
X145588796Y-127029357D01*
X146056066Y-127222906D01*
X146552116Y-127321577D01*
X147057884Y-127321577D01*
X147553934Y-127222906D01*
X148021204Y-127029357D01*
X148441735Y-126748367D01*
X148799367Y-126390735D01*
X149080357Y-125970204D01*
X149273906Y-125502934D01*
X149372577Y-125006884D01*
X149372577Y-124501116D01*
X155667423Y-124501116D01*
X155667423Y-125006884D01*
X155766094Y-125502934D01*
X155959643Y-125970204D01*
X156240633Y-126390735D01*
X156598265Y-126748367D01*
X157018796Y-127029357D01*
X157486066Y-127222906D01*
X157982116Y-127321577D01*
X158487884Y-127321577D01*
X158983934Y-127222906D01*
X159451204Y-127029357D01*
X159871735Y-126748367D01*
X160229367Y-126390735D01*
X160510357Y-125970204D01*
X160703906Y-125502934D01*
X160802577Y-125006884D01*
X160802577Y-124501116D01*
X167097423Y-124501116D01*
X167097423Y-125006884D01*
X167196094Y-125502934D01*
X167389643Y-125970204D01*
X167670633Y-126390735D01*
X168028265Y-126748367D01*
X168448796Y-127029357D01*
X168916066Y-127222906D01*
X169412116Y-127321577D01*
X169917884Y-127321577D01*
X170413934Y-127222906D01*
X170881204Y-127029357D01*
X171301735Y-126748367D01*
X171659367Y-126390735D01*
X171940357Y-125970204D01*
X172133906Y-125502934D01*
X172232577Y-125006884D01*
X172232577Y-124501116D01*
X172133906Y-124005066D01*
X171940357Y-123537796D01*
X171659367Y-123117265D01*
X171301735Y-122759633D01*
X170881204Y-122478643D01*
X170413934Y-122285094D01*
X169917884Y-122186423D01*
X169412116Y-122186423D01*
X168916066Y-122285094D01*
X168448796Y-122478643D01*
X168028265Y-122759633D01*
X167670633Y-123117265D01*
X167389643Y-123537796D01*
X167196094Y-124005066D01*
X167097423Y-124501116D01*
X160802577Y-124501116D01*
X160703906Y-124005066D01*
X160510357Y-123537796D01*
X160229367Y-123117265D01*
X159871735Y-122759633D01*
X159451204Y-122478643D01*
X158983934Y-122285094D01*
X158487884Y-122186423D01*
X157982116Y-122186423D01*
X157486066Y-122285094D01*
X157018796Y-122478643D01*
X156598265Y-122759633D01*
X156240633Y-123117265D01*
X155959643Y-123537796D01*
X155766094Y-124005066D01*
X155667423Y-124501116D01*
X149372577Y-124501116D01*
X149273906Y-124005066D01*
X149080357Y-123537796D01*
X148799367Y-123117265D01*
X148441735Y-122759633D01*
X148021204Y-122478643D01*
X147553934Y-122285094D01*
X147057884Y-122186423D01*
X146552116Y-122186423D01*
X146056066Y-122285094D01*
X145588796Y-122478643D01*
X145168265Y-122759633D01*
X144810633Y-123117265D01*
X144529643Y-123537796D01*
X144336094Y-124005066D01*
X144237423Y-124501116D01*
X137942577Y-124501116D01*
X137843906Y-124005066D01*
X137650357Y-123537796D01*
X137369367Y-123117265D01*
X137011735Y-122759633D01*
X136591204Y-122478643D01*
X136123934Y-122285094D01*
X135627884Y-122186423D01*
X135122116Y-122186423D01*
X134626066Y-122285094D01*
X134158796Y-122478643D01*
X133738265Y-122759633D01*
X133380633Y-123117265D01*
X133099643Y-123537796D01*
X132906094Y-124005066D01*
X132807423Y-124501116D01*
X126512577Y-124501116D01*
X126413906Y-124005066D01*
X126220357Y-123537796D01*
X125939367Y-123117265D01*
X125581735Y-122759633D01*
X125161204Y-122478643D01*
X124693934Y-122285094D01*
X124197884Y-122186423D01*
X123692116Y-122186423D01*
X123196066Y-122285094D01*
X122728796Y-122478643D01*
X122308265Y-122759633D01*
X121950633Y-123117265D01*
X121669643Y-123537796D01*
X121476094Y-124005066D01*
X121377423Y-124501116D01*
X115082577Y-124501116D01*
X114983906Y-124005066D01*
X114790357Y-123537796D01*
X114509367Y-123117265D01*
X114151735Y-122759633D01*
X113731204Y-122478643D01*
X113263934Y-122285094D01*
X112767884Y-122186423D01*
X112262116Y-122186423D01*
X111766066Y-122285094D01*
X111298796Y-122478643D01*
X110878265Y-122759633D01*
X110520633Y-123117265D01*
X110239643Y-123537796D01*
X110046094Y-124005066D01*
X109947423Y-124501116D01*
X91750000Y-124501116D01*
X91750000Y-121326116D01*
X97247423Y-121326116D01*
X97247423Y-121831884D01*
X97346094Y-122327934D01*
X97539643Y-122795204D01*
X97820633Y-123215735D01*
X98178265Y-123573367D01*
X98598796Y-123854357D01*
X99066066Y-124047906D01*
X99562116Y-124146577D01*
X100067884Y-124146577D01*
X100563934Y-124047906D01*
X101031204Y-123854357D01*
X101451735Y-123573367D01*
X101809367Y-123215735D01*
X102090357Y-122795204D01*
X102283906Y-122327934D01*
X102382577Y-121831884D01*
X102382577Y-121326116D01*
X102283906Y-120830066D01*
X102090357Y-120362796D01*
X101809367Y-119942265D01*
X101451735Y-119584633D01*
X101031204Y-119303643D01*
X100563934Y-119110094D01*
X100067884Y-119011423D01*
X99562116Y-119011423D01*
X99066066Y-119110094D01*
X98598796Y-119303643D01*
X98178265Y-119584633D01*
X97820633Y-119942265D01*
X97539643Y-120362796D01*
X97346094Y-120830066D01*
X97247423Y-121326116D01*
X91750000Y-121326116D01*
X91750000Y-117618609D01*
X98324997Y-117618609D01*
X98511073Y-117959766D01*
X98928409Y-118175513D01*
X99379815Y-118305696D01*
X99847946Y-118345313D01*
X100314811Y-118292842D01*
X100762468Y-118150297D01*
X101118927Y-117959766D01*
X101305003Y-117618609D01*
X99815000Y-116128605D01*
X98324997Y-117618609D01*
X91750000Y-117618609D01*
X91750000Y-115981946D01*
X97418687Y-115981946D01*
X97471158Y-116448811D01*
X97613703Y-116896468D01*
X97804234Y-117252927D01*
X98145391Y-117439003D01*
X99635395Y-115949000D01*
X99994605Y-115949000D01*
X101484609Y-117439003D01*
X101825766Y-117252927D01*
X102017978Y-116881116D01*
X109947423Y-116881116D01*
X109947423Y-117386884D01*
X110046094Y-117882934D01*
X110239643Y-118350204D01*
X110520633Y-118770735D01*
X110878265Y-119128367D01*
X111298796Y-119409357D01*
X111766066Y-119602906D01*
X112262116Y-119701577D01*
X112767884Y-119701577D01*
X113263934Y-119602906D01*
X113731204Y-119409357D01*
X114151735Y-119128367D01*
X114509367Y-118770735D01*
X114790357Y-118350204D01*
X114983906Y-117882934D01*
X115082577Y-117386884D01*
X115082577Y-116881116D01*
X121377423Y-116881116D01*
X121377423Y-117386884D01*
X121476094Y-117882934D01*
X121669643Y-118350204D01*
X121950633Y-118770735D01*
X122308265Y-119128367D01*
X122728796Y-119409357D01*
X123196066Y-119602906D01*
X123692116Y-119701577D01*
X124197884Y-119701577D01*
X124693934Y-119602906D01*
X125161204Y-119409357D01*
X125581735Y-119128367D01*
X125939367Y-118770735D01*
X126220357Y-118350204D01*
X126413906Y-117882934D01*
X126512577Y-117386884D01*
X126512577Y-116881116D01*
X132807423Y-116881116D01*
X132807423Y-117386884D01*
X132906094Y-117882934D01*
X133099643Y-118350204D01*
X133380633Y-118770735D01*
X133738265Y-119128367D01*
X134158796Y-119409357D01*
X134626066Y-119602906D01*
X135122116Y-119701577D01*
X135627884Y-119701577D01*
X136123934Y-119602906D01*
X136591204Y-119409357D01*
X137011735Y-119128367D01*
X137369367Y-118770735D01*
X137650357Y-118350204D01*
X137843906Y-117882934D01*
X137942577Y-117386884D01*
X137942577Y-116881116D01*
X144237423Y-116881116D01*
X144237423Y-117386884D01*
X144336094Y-117882934D01*
X144529643Y-118350204D01*
X144810633Y-118770735D01*
X145168265Y-119128367D01*
X145588796Y-119409357D01*
X146056066Y-119602906D01*
X146552116Y-119701577D01*
X147057884Y-119701577D01*
X147553934Y-119602906D01*
X148021204Y-119409357D01*
X148441735Y-119128367D01*
X148799367Y-118770735D01*
X149080357Y-118350204D01*
X149273906Y-117882934D01*
X149372577Y-117386884D01*
X149372577Y-116881116D01*
X155667423Y-116881116D01*
X155667423Y-117386884D01*
X155766094Y-117882934D01*
X155959643Y-118350204D01*
X156240633Y-118770735D01*
X156598265Y-119128367D01*
X157018796Y-119409357D01*
X157486066Y-119602906D01*
X157982116Y-119701577D01*
X158487884Y-119701577D01*
X158983934Y-119602906D01*
X159451204Y-119409357D01*
X159871735Y-119128367D01*
X160229367Y-118770735D01*
X160510357Y-118350204D01*
X160703906Y-117882934D01*
X160802577Y-117386884D01*
X160802577Y-116881116D01*
X167097423Y-116881116D01*
X167097423Y-117386884D01*
X167196094Y-117882934D01*
X167389643Y-118350204D01*
X167670633Y-118770735D01*
X168028265Y-119128367D01*
X168448796Y-119409357D01*
X168916066Y-119602906D01*
X169412116Y-119701577D01*
X169917884Y-119701577D01*
X170413934Y-119602906D01*
X170881204Y-119409357D01*
X171301735Y-119128367D01*
X171659367Y-118770735D01*
X171940357Y-118350204D01*
X172133906Y-117882934D01*
X172186483Y-117618609D01*
X180874997Y-117618609D01*
X181061073Y-117959766D01*
X181478409Y-118175513D01*
X181929815Y-118305696D01*
X182397946Y-118345313D01*
X182864811Y-118292842D01*
X183312468Y-118150297D01*
X183668927Y-117959766D01*
X183855003Y-117618609D01*
X182365000Y-116128605D01*
X180874997Y-117618609D01*
X172186483Y-117618609D01*
X172232577Y-117386884D01*
X172232577Y-116881116D01*
X172133906Y-116385066D01*
X171966929Y-115981946D01*
X179968687Y-115981946D01*
X180021158Y-116448811D01*
X180163703Y-116896468D01*
X180354234Y-117252927D01*
X180695391Y-117439003D01*
X182185395Y-115949000D01*
X182544605Y-115949000D01*
X184034609Y-117439003D01*
X184375766Y-117252927D01*
X184591513Y-116835591D01*
X184721696Y-116384185D01*
X184761313Y-115916054D01*
X184708842Y-115449189D01*
X184566297Y-115001532D01*
X184375766Y-114645073D01*
X184034609Y-114458997D01*
X182544605Y-115949000D01*
X182185395Y-115949000D01*
X180695391Y-114458997D01*
X180354234Y-114645073D01*
X180138487Y-115062409D01*
X180008304Y-115513815D01*
X179968687Y-115981946D01*
X171966929Y-115981946D01*
X171940357Y-115917796D01*
X171659367Y-115497265D01*
X171301735Y-115139633D01*
X170881204Y-114858643D01*
X170413934Y-114665094D01*
X169917884Y-114566423D01*
X169412116Y-114566423D01*
X168916066Y-114665094D01*
X168448796Y-114858643D01*
X168028265Y-115139633D01*
X167670633Y-115497265D01*
X167389643Y-115917796D01*
X167196094Y-116385066D01*
X167097423Y-116881116D01*
X160802577Y-116881116D01*
X160703906Y-116385066D01*
X160510357Y-115917796D01*
X160229367Y-115497265D01*
X159871735Y-115139633D01*
X159451204Y-114858643D01*
X158983934Y-114665094D01*
X158487884Y-114566423D01*
X157982116Y-114566423D01*
X157486066Y-114665094D01*
X157018796Y-114858643D01*
X156598265Y-115139633D01*
X156240633Y-115497265D01*
X155959643Y-115917796D01*
X155766094Y-116385066D01*
X155667423Y-116881116D01*
X149372577Y-116881116D01*
X149273906Y-116385066D01*
X149080357Y-115917796D01*
X148799367Y-115497265D01*
X148441735Y-115139633D01*
X148021204Y-114858643D01*
X147553934Y-114665094D01*
X147057884Y-114566423D01*
X146552116Y-114566423D01*
X146056066Y-114665094D01*
X145588796Y-114858643D01*
X145168265Y-115139633D01*
X144810633Y-115497265D01*
X144529643Y-115917796D01*
X144336094Y-116385066D01*
X144237423Y-116881116D01*
X137942577Y-116881116D01*
X137843906Y-116385066D01*
X137650357Y-115917796D01*
X137369367Y-115497265D01*
X137011735Y-115139633D01*
X136591204Y-114858643D01*
X136123934Y-114665094D01*
X135627884Y-114566423D01*
X135122116Y-114566423D01*
X134626066Y-114665094D01*
X134158796Y-114858643D01*
X133738265Y-115139633D01*
X133380633Y-115497265D01*
X133099643Y-115917796D01*
X132906094Y-116385066D01*
X132807423Y-116881116D01*
X126512577Y-116881116D01*
X126413906Y-116385066D01*
X126220357Y-115917796D01*
X125939367Y-115497265D01*
X125581735Y-115139633D01*
X125161204Y-114858643D01*
X124693934Y-114665094D01*
X124197884Y-114566423D01*
X123692116Y-114566423D01*
X123196066Y-114665094D01*
X122728796Y-114858643D01*
X122308265Y-115139633D01*
X121950633Y-115497265D01*
X121669643Y-115917796D01*
X121476094Y-116385066D01*
X121377423Y-116881116D01*
X115082577Y-116881116D01*
X114983906Y-116385066D01*
X114790357Y-115917796D01*
X114509367Y-115497265D01*
X114151735Y-115139633D01*
X113731204Y-114858643D01*
X113263934Y-114665094D01*
X112767884Y-114566423D01*
X112262116Y-114566423D01*
X111766066Y-114665094D01*
X111298796Y-114858643D01*
X110878265Y-115139633D01*
X110520633Y-115497265D01*
X110239643Y-115917796D01*
X110046094Y-116385066D01*
X109947423Y-116881116D01*
X102017978Y-116881116D01*
X102041513Y-116835591D01*
X102171696Y-116384185D01*
X102211313Y-115916054D01*
X102158842Y-115449189D01*
X102016297Y-115001532D01*
X101825766Y-114645073D01*
X101484609Y-114458997D01*
X99994605Y-115949000D01*
X99635395Y-115949000D01*
X98145391Y-114458997D01*
X97804234Y-114645073D01*
X97588487Y-115062409D01*
X97458304Y-115513815D01*
X97418687Y-115981946D01*
X91750000Y-115981946D01*
X91750000Y-114279391D01*
X98324997Y-114279391D01*
X99815000Y-115769395D01*
X101305003Y-114279391D01*
X180874997Y-114279391D01*
X182365000Y-115769395D01*
X183855003Y-114279391D01*
X183668927Y-113938234D01*
X183251591Y-113722487D01*
X182800185Y-113592304D01*
X182332054Y-113552687D01*
X181865189Y-113605158D01*
X181417532Y-113747703D01*
X181061073Y-113938234D01*
X180874997Y-114279391D01*
X101305003Y-114279391D01*
X101118927Y-113938234D01*
X100701591Y-113722487D01*
X100250185Y-113592304D01*
X99782054Y-113552687D01*
X99315189Y-113605158D01*
X98867532Y-113747703D01*
X98511073Y-113938234D01*
X98324997Y-114279391D01*
X91750000Y-114279391D01*
X91750000Y-111634000D01*
X190430001Y-111634000D01*
X190430000Y-133514000D01*
G37*
G04 #@! TD.AperFunction*
M02*
