G04 #@! TF.GenerationSoftware,KiCad,Pcbnew,(5.1.8)-1*
G04 #@! TF.CreationDate,2022-01-25T00:29:58+01:00*
G04 #@! TF.ProjectId,BulkyMIDI-32 Faceplate,42756c6b-794d-4494-9449-2d3332204661,rev?*
G04 #@! TF.SameCoordinates,Original*
G04 #@! TF.FileFunction,Legend,Bot*
G04 #@! TF.FilePolarity,Positive*
%FSLAX46Y46*%
G04 Gerber Fmt 4.6, Leading zero omitted, Abs format (unit mm)*
G04 Created by KiCad (PCBNEW (5.1.8)-1) date 2022-01-25 00:29:58*
%MOMM*%
%LPD*%
G01*
G04 APERTURE LIST*
%ADD10C,0.150000*%
%ADD11C,0.500000*%
%ADD12C,0.120000*%
%ADD13C,0.010000*%
G04 APERTURE END LIST*
D10*
X105881428Y-66072857D02*
X105667142Y-66144285D01*
X105595714Y-66215714D01*
X105524285Y-66358571D01*
X105524285Y-66572857D01*
X105595714Y-66715714D01*
X105667142Y-66787142D01*
X105810000Y-66858571D01*
X106381428Y-66858571D01*
X106381428Y-65358571D01*
X105881428Y-65358571D01*
X105738571Y-65430000D01*
X105667142Y-65501428D01*
X105595714Y-65644285D01*
X105595714Y-65787142D01*
X105667142Y-65930000D01*
X105738571Y-66001428D01*
X105881428Y-66072857D01*
X106381428Y-66072857D01*
X104238571Y-65858571D02*
X104238571Y-66858571D01*
X104881428Y-65858571D02*
X104881428Y-66644285D01*
X104810000Y-66787142D01*
X104667142Y-66858571D01*
X104452857Y-66858571D01*
X104310000Y-66787142D01*
X104238571Y-66715714D01*
X103310000Y-66858571D02*
X103452857Y-66787142D01*
X103524285Y-66644285D01*
X103524285Y-65358571D01*
X102738571Y-66858571D02*
X102738571Y-65358571D01*
X102595714Y-66287142D02*
X102167142Y-66858571D01*
X102167142Y-65858571D02*
X102738571Y-66430000D01*
X101667142Y-65858571D02*
X101310000Y-66858571D01*
X100952857Y-65858571D02*
X101310000Y-66858571D01*
X101452857Y-67215714D01*
X101524285Y-67287142D01*
X101667142Y-67358571D01*
X100381428Y-66858571D02*
X100381428Y-65358571D01*
X99881428Y-66430000D01*
X99381428Y-65358571D01*
X99381428Y-66858571D01*
X98667142Y-66858571D02*
X98667142Y-65358571D01*
X97952857Y-66858571D02*
X97952857Y-65358571D01*
X97595714Y-65358571D01*
X97381428Y-65430000D01*
X97238571Y-65572857D01*
X97167142Y-65715714D01*
X97095714Y-66001428D01*
X97095714Y-66215714D01*
X97167142Y-66501428D01*
X97238571Y-66644285D01*
X97381428Y-66787142D01*
X97595714Y-66858571D01*
X97952857Y-66858571D01*
X96452857Y-66858571D02*
X96452857Y-65358571D01*
X95738571Y-66287142D02*
X94595714Y-66287142D01*
X94024285Y-65358571D02*
X93095714Y-65358571D01*
X93595714Y-65930000D01*
X93381428Y-65930000D01*
X93238571Y-66001428D01*
X93167142Y-66072857D01*
X93095714Y-66215714D01*
X93095714Y-66572857D01*
X93167142Y-66715714D01*
X93238571Y-66787142D01*
X93381428Y-66858571D01*
X93810000Y-66858571D01*
X93952857Y-66787142D01*
X94024285Y-66715714D01*
X92524285Y-65501428D02*
X92452857Y-65430000D01*
X92310000Y-65358571D01*
X91952857Y-65358571D01*
X91810000Y-65430000D01*
X91738571Y-65501428D01*
X91667142Y-65644285D01*
X91667142Y-65787142D01*
X91738571Y-66001428D01*
X92595714Y-66858571D01*
X91667142Y-66858571D01*
X108452857Y-68472857D02*
X108952857Y-68472857D01*
X108952857Y-69258571D02*
X108952857Y-67758571D01*
X108238571Y-67758571D01*
X107024285Y-69258571D02*
X107024285Y-68472857D01*
X107095714Y-68330000D01*
X107238571Y-68258571D01*
X107524285Y-68258571D01*
X107667142Y-68330000D01*
X107024285Y-69187142D02*
X107167142Y-69258571D01*
X107524285Y-69258571D01*
X107667142Y-69187142D01*
X107738571Y-69044285D01*
X107738571Y-68901428D01*
X107667142Y-68758571D01*
X107524285Y-68687142D01*
X107167142Y-68687142D01*
X107024285Y-68615714D01*
X105667142Y-69187142D02*
X105810000Y-69258571D01*
X106095714Y-69258571D01*
X106238571Y-69187142D01*
X106310000Y-69115714D01*
X106381428Y-68972857D01*
X106381428Y-68544285D01*
X106310000Y-68401428D01*
X106238571Y-68330000D01*
X106095714Y-68258571D01*
X105810000Y-68258571D01*
X105667142Y-68330000D01*
X104452857Y-69187142D02*
X104595714Y-69258571D01*
X104881428Y-69258571D01*
X105024285Y-69187142D01*
X105095714Y-69044285D01*
X105095714Y-68472857D01*
X105024285Y-68330000D01*
X104881428Y-68258571D01*
X104595714Y-68258571D01*
X104452857Y-68330000D01*
X104381428Y-68472857D01*
X104381428Y-68615714D01*
X105095714Y-68758571D01*
X103738571Y-68258571D02*
X103738571Y-69758571D01*
X103738571Y-68330000D02*
X103595714Y-68258571D01*
X103310000Y-68258571D01*
X103167142Y-68330000D01*
X103095714Y-68401428D01*
X103024285Y-68544285D01*
X103024285Y-68972857D01*
X103095714Y-69115714D01*
X103167142Y-69187142D01*
X103310000Y-69258571D01*
X103595714Y-69258571D01*
X103738571Y-69187142D01*
X102167142Y-69258571D02*
X102310000Y-69187142D01*
X102381428Y-69044285D01*
X102381428Y-67758571D01*
X100952857Y-69258571D02*
X100952857Y-68472857D01*
X101024285Y-68330000D01*
X101167142Y-68258571D01*
X101452857Y-68258571D01*
X101595714Y-68330000D01*
X100952857Y-69187142D02*
X101095714Y-69258571D01*
X101452857Y-69258571D01*
X101595714Y-69187142D01*
X101667142Y-69044285D01*
X101667142Y-68901428D01*
X101595714Y-68758571D01*
X101452857Y-68687142D01*
X101095714Y-68687142D01*
X100952857Y-68615714D01*
X100452857Y-68258571D02*
X99881428Y-68258571D01*
X100238571Y-67758571D02*
X100238571Y-69044285D01*
X100167142Y-69187142D01*
X100024285Y-69258571D01*
X99881428Y-69258571D01*
X98810000Y-69187142D02*
X98952857Y-69258571D01*
X99238571Y-69258571D01*
X99381428Y-69187142D01*
X99452857Y-69044285D01*
X99452857Y-68472857D01*
X99381428Y-68330000D01*
X99238571Y-68258571D01*
X98952857Y-68258571D01*
X98810000Y-68330000D01*
X98738571Y-68472857D01*
X98738571Y-68615714D01*
X99452857Y-68758571D01*
X96524285Y-69830000D02*
X96595714Y-69758571D01*
X96738571Y-69544285D01*
X96810000Y-69401428D01*
X96881428Y-69187142D01*
X96952857Y-68830000D01*
X96952857Y-68544285D01*
X96881428Y-68187142D01*
X96810000Y-67972857D01*
X96738571Y-67830000D01*
X96595714Y-67615714D01*
X96524285Y-67544285D01*
X95952857Y-69258571D02*
X95952857Y-68258571D01*
X95952857Y-68544285D02*
X95881428Y-68401428D01*
X95810000Y-68330000D01*
X95667142Y-68258571D01*
X95524285Y-68258571D01*
X94452857Y-69187142D02*
X94595714Y-69258571D01*
X94881428Y-69258571D01*
X95024285Y-69187142D01*
X95095714Y-69044285D01*
X95095714Y-68472857D01*
X95024285Y-68330000D01*
X94881428Y-68258571D01*
X94595714Y-68258571D01*
X94452857Y-68330000D01*
X94381428Y-68472857D01*
X94381428Y-68615714D01*
X95095714Y-68758571D01*
X93881428Y-68258571D02*
X93524285Y-69258571D01*
X93167142Y-68258571D01*
X92595714Y-69115714D02*
X92524285Y-69187142D01*
X92595714Y-69258571D01*
X92667142Y-69187142D01*
X92595714Y-69115714D01*
X92595714Y-69258571D01*
X90810000Y-68830000D02*
X90095714Y-68830000D01*
X90952857Y-69258571D02*
X90452857Y-67758571D01*
X89952857Y-69258571D01*
X89595714Y-69830000D02*
X89524285Y-69758571D01*
X89381428Y-69544285D01*
X89310000Y-69401428D01*
X89238571Y-69187142D01*
X89167142Y-68830000D01*
X89167142Y-68544285D01*
X89238571Y-68187142D01*
X89310000Y-67972857D01*
X89381428Y-67830000D01*
X89524285Y-67615714D01*
X89595714Y-67544285D01*
X107167142Y-70658571D02*
X107167142Y-71872857D01*
X107238571Y-72015714D01*
X107310000Y-72087142D01*
X107452857Y-72158571D01*
X107667142Y-72158571D01*
X107810000Y-72087142D01*
X107167142Y-71587142D02*
X107310000Y-71658571D01*
X107595714Y-71658571D01*
X107738571Y-71587142D01*
X107810000Y-71515714D01*
X107881428Y-71372857D01*
X107881428Y-70944285D01*
X107810000Y-70801428D01*
X107738571Y-70730000D01*
X107595714Y-70658571D01*
X107310000Y-70658571D01*
X107167142Y-70730000D01*
X106452857Y-71658571D02*
X106452857Y-70658571D01*
X106452857Y-70158571D02*
X106524285Y-70230000D01*
X106452857Y-70301428D01*
X106381428Y-70230000D01*
X106452857Y-70158571D01*
X106452857Y-70301428D01*
X105952857Y-70658571D02*
X105381428Y-70658571D01*
X105738571Y-70158571D02*
X105738571Y-71444285D01*
X105667142Y-71587142D01*
X105524285Y-71658571D01*
X105381428Y-71658571D01*
X104881428Y-71658571D02*
X104881428Y-70158571D01*
X104238571Y-71658571D02*
X104238571Y-70872857D01*
X104310000Y-70730000D01*
X104452857Y-70658571D01*
X104667142Y-70658571D01*
X104810000Y-70730000D01*
X104881428Y-70801428D01*
X102881428Y-70658571D02*
X102881428Y-71658571D01*
X103524285Y-70658571D02*
X103524285Y-71444285D01*
X103452857Y-71587142D01*
X103310000Y-71658571D01*
X103095714Y-71658571D01*
X102952857Y-71587142D01*
X102881428Y-71515714D01*
X102167142Y-71658571D02*
X102167142Y-70158571D01*
X102167142Y-70730000D02*
X102024285Y-70658571D01*
X101738571Y-70658571D01*
X101595714Y-70730000D01*
X101524285Y-70801428D01*
X101452857Y-70944285D01*
X101452857Y-71372857D01*
X101524285Y-71515714D01*
X101595714Y-71587142D01*
X101738571Y-71658571D01*
X102024285Y-71658571D01*
X102167142Y-71587142D01*
X100810000Y-71515714D02*
X100738571Y-71587142D01*
X100810000Y-71658571D01*
X100881428Y-71587142D01*
X100810000Y-71515714D01*
X100810000Y-71658571D01*
X99452857Y-71587142D02*
X99595714Y-71658571D01*
X99881428Y-71658571D01*
X100024285Y-71587142D01*
X100095714Y-71515714D01*
X100167142Y-71372857D01*
X100167142Y-70944285D01*
X100095714Y-70801428D01*
X100024285Y-70730000D01*
X99881428Y-70658571D01*
X99595714Y-70658571D01*
X99452857Y-70730000D01*
X98595714Y-71658571D02*
X98738571Y-71587142D01*
X98810000Y-71515714D01*
X98881428Y-71372857D01*
X98881428Y-70944285D01*
X98810000Y-70801428D01*
X98738571Y-70730000D01*
X98595714Y-70658571D01*
X98381428Y-70658571D01*
X98238571Y-70730000D01*
X98167142Y-70801428D01*
X98095714Y-70944285D01*
X98095714Y-71372857D01*
X98167142Y-71515714D01*
X98238571Y-71587142D01*
X98381428Y-71658571D01*
X98595714Y-71658571D01*
X97452857Y-71658571D02*
X97452857Y-70658571D01*
X97452857Y-70801428D02*
X97381428Y-70730000D01*
X97238571Y-70658571D01*
X97024285Y-70658571D01*
X96881428Y-70730000D01*
X96810000Y-70872857D01*
X96810000Y-71658571D01*
X96810000Y-70872857D02*
X96738571Y-70730000D01*
X96595714Y-70658571D01*
X96381428Y-70658571D01*
X96238571Y-70730000D01*
X96167142Y-70872857D01*
X96167142Y-71658571D01*
X94381428Y-70087142D02*
X95667142Y-72015714D01*
X94095714Y-70658571D02*
X93524285Y-70658571D01*
X93881428Y-70158571D02*
X93881428Y-71444285D01*
X93810000Y-71587142D01*
X93667142Y-71658571D01*
X93524285Y-71658571D01*
X92452857Y-71587142D02*
X92595714Y-71658571D01*
X92881428Y-71658571D01*
X93024285Y-71587142D01*
X93095714Y-71444285D01*
X93095714Y-70872857D01*
X93024285Y-70730000D01*
X92881428Y-70658571D01*
X92595714Y-70658571D01*
X92452857Y-70730000D01*
X92381428Y-70872857D01*
X92381428Y-71015714D01*
X93095714Y-71158571D01*
X91738571Y-71658571D02*
X91738571Y-70158571D01*
X91738571Y-70730000D02*
X91595714Y-70658571D01*
X91310000Y-70658571D01*
X91167142Y-70730000D01*
X91095714Y-70801428D01*
X91024285Y-70944285D01*
X91024285Y-71372857D01*
X91095714Y-71515714D01*
X91167142Y-71587142D01*
X91310000Y-71658571D01*
X91595714Y-71658571D01*
X91738571Y-71587142D01*
X90167142Y-71658571D02*
X90310000Y-71587142D01*
X90381428Y-71444285D01*
X90381428Y-70158571D01*
X84253500Y-56578500D02*
X85153500Y-56578500D01*
D11*
X83360000Y-56578500D02*
G75*
G03*
X83360000Y-56578500I-175000J0D01*
G01*
D10*
X83185000Y-56578500D02*
X81185000Y-56578500D01*
X87094500Y-56578500D02*
G75*
G03*
X87094500Y-56578500I-925000J0D01*
G01*
X81125500Y-56578500D02*
G75*
G03*
X81125500Y-56578500I-925000J0D01*
G01*
X82510000Y-57328500D02*
G75*
G03*
X82435000Y-55903500I675000J750000D01*
G01*
D12*
X146135000Y-151100000D02*
X142735000Y-151100000D01*
X147775000Y-151100000D02*
X147235000Y-151100000D01*
X140575000Y-148270000D02*
X140575000Y-147760000D01*
X141095000Y-147760000D02*
X140575000Y-147760000D01*
X141095000Y-148270000D02*
X141095000Y-147760000D01*
X141635000Y-151100000D02*
X141095000Y-151100000D01*
X148295000Y-148270000D02*
X148295000Y-147760000D01*
X147775000Y-148270000D02*
X147775000Y-147760000D01*
X141095000Y-151100000D02*
X141095000Y-150870000D01*
X148295000Y-154770000D02*
X148295000Y-150870000D01*
X148295000Y-147760000D02*
X147775000Y-147760000D01*
X140575000Y-154770000D02*
X140575000Y-150870000D01*
X148295000Y-154770000D02*
X140575000Y-154770000D01*
X147775000Y-151100000D02*
X147775000Y-150870000D01*
X157565000Y-151100000D02*
X154165000Y-151100000D01*
X159205000Y-151100000D02*
X158665000Y-151100000D01*
X152005000Y-148270000D02*
X152005000Y-147760000D01*
X152525000Y-147760000D02*
X152005000Y-147760000D01*
X152525000Y-148270000D02*
X152525000Y-147760000D01*
X153065000Y-151100000D02*
X152525000Y-151100000D01*
X159725000Y-148270000D02*
X159725000Y-147760000D01*
X159205000Y-148270000D02*
X159205000Y-147760000D01*
X152525000Y-151100000D02*
X152525000Y-150870000D01*
X159725000Y-154770000D02*
X159725000Y-150870000D01*
X159725000Y-147760000D02*
X159205000Y-147760000D01*
X152005000Y-154770000D02*
X152005000Y-150870000D01*
X159725000Y-154770000D02*
X152005000Y-154770000D01*
X159205000Y-151100000D02*
X159205000Y-150870000D01*
D13*
G36*
X101968043Y-76401571D02*
G01*
X101871768Y-76425809D01*
X101785184Y-76468641D01*
X101710373Y-76528419D01*
X101649418Y-76603494D01*
X101604399Y-76692220D01*
X101578136Y-76788530D01*
X101572286Y-76885795D01*
X101587140Y-76979654D01*
X101620840Y-77067511D01*
X101671528Y-77146770D01*
X101737345Y-77214836D01*
X101816434Y-77269112D01*
X101906934Y-77307002D01*
X101958200Y-77319426D01*
X102002698Y-77326947D01*
X102036999Y-77329919D01*
X102069960Y-77328094D01*
X102110434Y-77321225D01*
X102143531Y-77314250D01*
X102236947Y-77282741D01*
X102320619Y-77231617D01*
X102392665Y-77162429D01*
X102451200Y-77076728D01*
X102465148Y-77049489D01*
X102481586Y-77013122D01*
X102491894Y-76982582D01*
X102497460Y-76950450D01*
X102499669Y-76909307D01*
X102499948Y-76863222D01*
X102495861Y-76778865D01*
X102482446Y-76709586D01*
X102457256Y-76648961D01*
X102417846Y-76590567D01*
X102379298Y-76546302D01*
X102307406Y-76480484D01*
X102232313Y-76435053D01*
X102149562Y-76407850D01*
X102071928Y-76397576D01*
X101968043Y-76401571D01*
G37*
X101968043Y-76401571D02*
X101871768Y-76425809D01*
X101785184Y-76468641D01*
X101710373Y-76528419D01*
X101649418Y-76603494D01*
X101604399Y-76692220D01*
X101578136Y-76788530D01*
X101572286Y-76885795D01*
X101587140Y-76979654D01*
X101620840Y-77067511D01*
X101671528Y-77146770D01*
X101737345Y-77214836D01*
X101816434Y-77269112D01*
X101906934Y-77307002D01*
X101958200Y-77319426D01*
X102002698Y-77326947D01*
X102036999Y-77329919D01*
X102069960Y-77328094D01*
X102110434Y-77321225D01*
X102143531Y-77314250D01*
X102236947Y-77282741D01*
X102320619Y-77231617D01*
X102392665Y-77162429D01*
X102451200Y-77076728D01*
X102465148Y-77049489D01*
X102481586Y-77013122D01*
X102491894Y-76982582D01*
X102497460Y-76950450D01*
X102499669Y-76909307D01*
X102499948Y-76863222D01*
X102495861Y-76778865D01*
X102482446Y-76709586D01*
X102457256Y-76648961D01*
X102417846Y-76590567D01*
X102379298Y-76546302D01*
X102307406Y-76480484D01*
X102232313Y-76435053D01*
X102149562Y-76407850D01*
X102071928Y-76397576D01*
X101968043Y-76401571D01*
G36*
X93508493Y-78847245D02*
G01*
X93508474Y-79081662D01*
X93508448Y-79294603D01*
X93508375Y-79487168D01*
X93508218Y-79660459D01*
X93507936Y-79815576D01*
X93507491Y-79953620D01*
X93506844Y-80075692D01*
X93505955Y-80182894D01*
X93504787Y-80276326D01*
X93503299Y-80357090D01*
X93501454Y-80426286D01*
X93499211Y-80485015D01*
X93496531Y-80534379D01*
X93493377Y-80575478D01*
X93489708Y-80609413D01*
X93485487Y-80637286D01*
X93480673Y-80660198D01*
X93475227Y-80679249D01*
X93469112Y-80695540D01*
X93462288Y-80710173D01*
X93454715Y-80724249D01*
X93446355Y-80738868D01*
X93441161Y-80747974D01*
X93406896Y-80808689D01*
X94265045Y-80808689D01*
X94265045Y-80712733D01*
X94265776Y-80669370D01*
X94267728Y-80636205D01*
X94270537Y-80618424D01*
X94271779Y-80616778D01*
X94283201Y-80623662D01*
X94305916Y-80641505D01*
X94328615Y-80660879D01*
X94383200Y-80701614D01*
X94452679Y-80742617D01*
X94529730Y-80780123D01*
X94607035Y-80810364D01*
X94637887Y-80820012D01*
X94706384Y-80834578D01*
X94789236Y-80844539D01*
X94878629Y-80849583D01*
X94966752Y-80849396D01*
X95045793Y-80843666D01*
X95083489Y-80837858D01*
X95221586Y-80799797D01*
X95348887Y-80742073D01*
X95464708Y-80665211D01*
X95568363Y-80569739D01*
X95659167Y-80456179D01*
X95725969Y-80345381D01*
X95780836Y-80228625D01*
X95822837Y-80109276D01*
X95852833Y-79983283D01*
X95871689Y-79846594D01*
X95880268Y-79695158D01*
X95880994Y-79617711D01*
X95878900Y-79560934D01*
X95049783Y-79560934D01*
X95049576Y-79654002D01*
X95046663Y-79741692D01*
X95041000Y-79818772D01*
X95032545Y-79880009D01*
X95029962Y-79892350D01*
X94998160Y-79999633D01*
X94956502Y-80086658D01*
X94904637Y-80153642D01*
X94842219Y-80200805D01*
X94768900Y-80228365D01*
X94684331Y-80236541D01*
X94588165Y-80225551D01*
X94524689Y-80209829D01*
X94475546Y-80191639D01*
X94421417Y-80165791D01*
X94380756Y-80142089D01*
X94310200Y-80095721D01*
X94310200Y-78945530D01*
X94377608Y-78901962D01*
X94456133Y-78861040D01*
X94540319Y-78834389D01*
X94625443Y-78822465D01*
X94706784Y-78825722D01*
X94779620Y-78844615D01*
X94811574Y-78860184D01*
X94869499Y-78903181D01*
X94918456Y-78959953D01*
X94959610Y-79032575D01*
X94994126Y-79123121D01*
X95023167Y-79233666D01*
X95024448Y-79239533D01*
X95034619Y-79301788D01*
X95042261Y-79379594D01*
X95047330Y-79467720D01*
X95049783Y-79560934D01*
X95878900Y-79560934D01*
X95873143Y-79404895D01*
X95851198Y-79209059D01*
X95815214Y-79030332D01*
X95765241Y-78868845D01*
X95701332Y-78724726D01*
X95623538Y-78598106D01*
X95531911Y-78489115D01*
X95426503Y-78397883D01*
X95381338Y-78366932D01*
X95280389Y-78310785D01*
X95177099Y-78271174D01*
X95067011Y-78247014D01*
X94945670Y-78237219D01*
X94853164Y-78238265D01*
X94723510Y-78249231D01*
X94610916Y-78271046D01*
X94512125Y-78304714D01*
X94423879Y-78351236D01*
X94375014Y-78385448D01*
X94345647Y-78407362D01*
X94323957Y-78422333D01*
X94315747Y-78426733D01*
X94314132Y-78415904D01*
X94312841Y-78385251D01*
X94311862Y-78337526D01*
X94311183Y-78275479D01*
X94310790Y-78201862D01*
X94310670Y-78119427D01*
X94310812Y-78030925D01*
X94311203Y-77939107D01*
X94311829Y-77846724D01*
X94312680Y-77756528D01*
X94313740Y-77671271D01*
X94314999Y-77593703D01*
X94316444Y-77526576D01*
X94318062Y-77472641D01*
X94319839Y-77434650D01*
X94320331Y-77427667D01*
X94327908Y-77357251D01*
X94339469Y-77302102D01*
X94357208Y-77254981D01*
X94383318Y-77208647D01*
X94389585Y-77199067D01*
X94414017Y-77162378D01*
X93508689Y-77162378D01*
X93508493Y-78847245D01*
G37*
X93508493Y-78847245D02*
X93508474Y-79081662D01*
X93508448Y-79294603D01*
X93508375Y-79487168D01*
X93508218Y-79660459D01*
X93507936Y-79815576D01*
X93507491Y-79953620D01*
X93506844Y-80075692D01*
X93505955Y-80182894D01*
X93504787Y-80276326D01*
X93503299Y-80357090D01*
X93501454Y-80426286D01*
X93499211Y-80485015D01*
X93496531Y-80534379D01*
X93493377Y-80575478D01*
X93489708Y-80609413D01*
X93485487Y-80637286D01*
X93480673Y-80660198D01*
X93475227Y-80679249D01*
X93469112Y-80695540D01*
X93462288Y-80710173D01*
X93454715Y-80724249D01*
X93446355Y-80738868D01*
X93441161Y-80747974D01*
X93406896Y-80808689D01*
X94265045Y-80808689D01*
X94265045Y-80712733D01*
X94265776Y-80669370D01*
X94267728Y-80636205D01*
X94270537Y-80618424D01*
X94271779Y-80616778D01*
X94283201Y-80623662D01*
X94305916Y-80641505D01*
X94328615Y-80660879D01*
X94383200Y-80701614D01*
X94452679Y-80742617D01*
X94529730Y-80780123D01*
X94607035Y-80810364D01*
X94637887Y-80820012D01*
X94706384Y-80834578D01*
X94789236Y-80844539D01*
X94878629Y-80849583D01*
X94966752Y-80849396D01*
X95045793Y-80843666D01*
X95083489Y-80837858D01*
X95221586Y-80799797D01*
X95348887Y-80742073D01*
X95464708Y-80665211D01*
X95568363Y-80569739D01*
X95659167Y-80456179D01*
X95725969Y-80345381D01*
X95780836Y-80228625D01*
X95822837Y-80109276D01*
X95852833Y-79983283D01*
X95871689Y-79846594D01*
X95880268Y-79695158D01*
X95880994Y-79617711D01*
X95878900Y-79560934D01*
X95049783Y-79560934D01*
X95049576Y-79654002D01*
X95046663Y-79741692D01*
X95041000Y-79818772D01*
X95032545Y-79880009D01*
X95029962Y-79892350D01*
X94998160Y-79999633D01*
X94956502Y-80086658D01*
X94904637Y-80153642D01*
X94842219Y-80200805D01*
X94768900Y-80228365D01*
X94684331Y-80236541D01*
X94588165Y-80225551D01*
X94524689Y-80209829D01*
X94475546Y-80191639D01*
X94421417Y-80165791D01*
X94380756Y-80142089D01*
X94310200Y-80095721D01*
X94310200Y-78945530D01*
X94377608Y-78901962D01*
X94456133Y-78861040D01*
X94540319Y-78834389D01*
X94625443Y-78822465D01*
X94706784Y-78825722D01*
X94779620Y-78844615D01*
X94811574Y-78860184D01*
X94869499Y-78903181D01*
X94918456Y-78959953D01*
X94959610Y-79032575D01*
X94994126Y-79123121D01*
X95023167Y-79233666D01*
X95024448Y-79239533D01*
X95034619Y-79301788D01*
X95042261Y-79379594D01*
X95047330Y-79467720D01*
X95049783Y-79560934D01*
X95878900Y-79560934D01*
X95873143Y-79404895D01*
X95851198Y-79209059D01*
X95815214Y-79030332D01*
X95765241Y-78868845D01*
X95701332Y-78724726D01*
X95623538Y-78598106D01*
X95531911Y-78489115D01*
X95426503Y-78397883D01*
X95381338Y-78366932D01*
X95280389Y-78310785D01*
X95177099Y-78271174D01*
X95067011Y-78247014D01*
X94945670Y-78237219D01*
X94853164Y-78238265D01*
X94723510Y-78249231D01*
X94610916Y-78271046D01*
X94512125Y-78304714D01*
X94423879Y-78351236D01*
X94375014Y-78385448D01*
X94345647Y-78407362D01*
X94323957Y-78422333D01*
X94315747Y-78426733D01*
X94314132Y-78415904D01*
X94312841Y-78385251D01*
X94311862Y-78337526D01*
X94311183Y-78275479D01*
X94310790Y-78201862D01*
X94310670Y-78119427D01*
X94310812Y-78030925D01*
X94311203Y-77939107D01*
X94311829Y-77846724D01*
X94312680Y-77756528D01*
X94313740Y-77671271D01*
X94314999Y-77593703D01*
X94316444Y-77526576D01*
X94318062Y-77472641D01*
X94319839Y-77434650D01*
X94320331Y-77427667D01*
X94327908Y-77357251D01*
X94339469Y-77302102D01*
X94357208Y-77254981D01*
X94383318Y-77208647D01*
X94389585Y-77199067D01*
X94414017Y-77162378D01*
X93508689Y-77162378D01*
X93508493Y-78847245D01*
G36*
X97021426Y-78241552D02*
G01*
X96869508Y-78261567D01*
X96734244Y-78295202D01*
X96614761Y-78342725D01*
X96510185Y-78404405D01*
X96432576Y-78467965D01*
X96363735Y-78542099D01*
X96309994Y-78621871D01*
X96267090Y-78714091D01*
X96251616Y-78757161D01*
X96238756Y-78796142D01*
X96227554Y-78832289D01*
X96217880Y-78867434D01*
X96209604Y-78903410D01*
X96202597Y-78942050D01*
X96196728Y-78985185D01*
X96191869Y-79034649D01*
X96187890Y-79092273D01*
X96184660Y-79159891D01*
X96182051Y-79239334D01*
X96179933Y-79332436D01*
X96178176Y-79441027D01*
X96176651Y-79566942D01*
X96175228Y-79712012D01*
X96173975Y-79854778D01*
X96172649Y-80010968D01*
X96171444Y-80146239D01*
X96170234Y-80262246D01*
X96168894Y-80360645D01*
X96167300Y-80443093D01*
X96165325Y-80511246D01*
X96162844Y-80566760D01*
X96159731Y-80611292D01*
X96155862Y-80646498D01*
X96151111Y-80674034D01*
X96145352Y-80695556D01*
X96138461Y-80712722D01*
X96130311Y-80727186D01*
X96120777Y-80740606D01*
X96109734Y-80754638D01*
X96105434Y-80760071D01*
X96089614Y-80782910D01*
X96082578Y-80798463D01*
X96082556Y-80798922D01*
X96093433Y-80801121D01*
X96124418Y-80803147D01*
X96173043Y-80804942D01*
X96236837Y-80806451D01*
X96313331Y-80807616D01*
X96400056Y-80808380D01*
X96494543Y-80808686D01*
X96505450Y-80808689D01*
X96928343Y-80808689D01*
X96931605Y-80712622D01*
X96934867Y-80616556D01*
X96996956Y-80667543D01*
X97094286Y-80735057D01*
X97204187Y-80789749D01*
X97290651Y-80819978D01*
X97359722Y-80834666D01*
X97443075Y-80844659D01*
X97532841Y-80849646D01*
X97621155Y-80849313D01*
X97700149Y-80843351D01*
X97736378Y-80837638D01*
X97876397Y-80799776D01*
X98002822Y-80744932D01*
X98114740Y-80673924D01*
X98211238Y-80587568D01*
X98291400Y-80486679D01*
X98354313Y-80372076D01*
X98398688Y-80245984D01*
X98411022Y-80189401D01*
X98418632Y-80127202D01*
X98422261Y-80052363D01*
X98422755Y-80018467D01*
X98422690Y-80015282D01*
X97662752Y-80015282D01*
X97653459Y-80090333D01*
X97625272Y-80154160D01*
X97576803Y-80209798D01*
X97571746Y-80214211D01*
X97523452Y-80249037D01*
X97471743Y-80271620D01*
X97411011Y-80283540D01*
X97335648Y-80286383D01*
X97317541Y-80285978D01*
X97263722Y-80283325D01*
X97223692Y-80277909D01*
X97188676Y-80267745D01*
X97149897Y-80250850D01*
X97139255Y-80245672D01*
X97078604Y-80209844D01*
X97031785Y-80167212D01*
X97019048Y-80151973D01*
X96974378Y-80095462D01*
X96974378Y-79899586D01*
X96974914Y-79820939D01*
X96976604Y-79762988D01*
X96979572Y-79723875D01*
X96983943Y-79701741D01*
X96988028Y-79695274D01*
X97003953Y-79692111D01*
X97037736Y-79689488D01*
X97084660Y-79687655D01*
X97140007Y-79686857D01*
X97148894Y-79686842D01*
X97269670Y-79692096D01*
X97372340Y-79708263D01*
X97458894Y-79735961D01*
X97531319Y-79775808D01*
X97586249Y-79822758D01*
X97630796Y-79880645D01*
X97655520Y-79943693D01*
X97662752Y-80015282D01*
X98422690Y-80015282D01*
X98420822Y-79924712D01*
X98412478Y-79845812D01*
X98396232Y-79774590D01*
X98370595Y-79703864D01*
X98346599Y-79651493D01*
X98287980Y-79556196D01*
X98209883Y-79468170D01*
X98114685Y-79389017D01*
X98004762Y-79320340D01*
X97882490Y-79263741D01*
X97750245Y-79220821D01*
X97685578Y-79205882D01*
X97549396Y-79183777D01*
X97400951Y-79169194D01*
X97249495Y-79162813D01*
X97122936Y-79164445D01*
X96961050Y-79171224D01*
X96968470Y-79112245D01*
X96987762Y-79013092D01*
X97018896Y-78932372D01*
X97062731Y-78869466D01*
X97120129Y-78823756D01*
X97191952Y-78794622D01*
X97279059Y-78781447D01*
X97382314Y-78783611D01*
X97420289Y-78787612D01*
X97561480Y-78812780D01*
X97698293Y-78853814D01*
X97792822Y-78891815D01*
X97837982Y-78911190D01*
X97876415Y-78926760D01*
X97902766Y-78936405D01*
X97910454Y-78938452D01*
X97920198Y-78929374D01*
X97936917Y-78900405D01*
X97960768Y-78851217D01*
X97991907Y-78781484D01*
X98030493Y-78690879D01*
X98037090Y-78675089D01*
X98067147Y-78602772D01*
X98094126Y-78537425D01*
X98116864Y-78481906D01*
X98134194Y-78439072D01*
X98144952Y-78411781D01*
X98148059Y-78402942D01*
X98138060Y-78398187D01*
X98111783Y-78392910D01*
X98083511Y-78389231D01*
X98053354Y-78384474D01*
X98005567Y-78375028D01*
X97944388Y-78361820D01*
X97874054Y-78345776D01*
X97798806Y-78327820D01*
X97770245Y-78320797D01*
X97665184Y-78295209D01*
X97577520Y-78275147D01*
X97502932Y-78259969D01*
X97437097Y-78249035D01*
X97375693Y-78241704D01*
X97314398Y-78237335D01*
X97248890Y-78235287D01*
X97190872Y-78234889D01*
X97021426Y-78241552D01*
G37*
X97021426Y-78241552D02*
X96869508Y-78261567D01*
X96734244Y-78295202D01*
X96614761Y-78342725D01*
X96510185Y-78404405D01*
X96432576Y-78467965D01*
X96363735Y-78542099D01*
X96309994Y-78621871D01*
X96267090Y-78714091D01*
X96251616Y-78757161D01*
X96238756Y-78796142D01*
X96227554Y-78832289D01*
X96217880Y-78867434D01*
X96209604Y-78903410D01*
X96202597Y-78942050D01*
X96196728Y-78985185D01*
X96191869Y-79034649D01*
X96187890Y-79092273D01*
X96184660Y-79159891D01*
X96182051Y-79239334D01*
X96179933Y-79332436D01*
X96178176Y-79441027D01*
X96176651Y-79566942D01*
X96175228Y-79712012D01*
X96173975Y-79854778D01*
X96172649Y-80010968D01*
X96171444Y-80146239D01*
X96170234Y-80262246D01*
X96168894Y-80360645D01*
X96167300Y-80443093D01*
X96165325Y-80511246D01*
X96162844Y-80566760D01*
X96159731Y-80611292D01*
X96155862Y-80646498D01*
X96151111Y-80674034D01*
X96145352Y-80695556D01*
X96138461Y-80712722D01*
X96130311Y-80727186D01*
X96120777Y-80740606D01*
X96109734Y-80754638D01*
X96105434Y-80760071D01*
X96089614Y-80782910D01*
X96082578Y-80798463D01*
X96082556Y-80798922D01*
X96093433Y-80801121D01*
X96124418Y-80803147D01*
X96173043Y-80804942D01*
X96236837Y-80806451D01*
X96313331Y-80807616D01*
X96400056Y-80808380D01*
X96494543Y-80808686D01*
X96505450Y-80808689D01*
X96928343Y-80808689D01*
X96931605Y-80712622D01*
X96934867Y-80616556D01*
X96996956Y-80667543D01*
X97094286Y-80735057D01*
X97204187Y-80789749D01*
X97290651Y-80819978D01*
X97359722Y-80834666D01*
X97443075Y-80844659D01*
X97532841Y-80849646D01*
X97621155Y-80849313D01*
X97700149Y-80843351D01*
X97736378Y-80837638D01*
X97876397Y-80799776D01*
X98002822Y-80744932D01*
X98114740Y-80673924D01*
X98211238Y-80587568D01*
X98291400Y-80486679D01*
X98354313Y-80372076D01*
X98398688Y-80245984D01*
X98411022Y-80189401D01*
X98418632Y-80127202D01*
X98422261Y-80052363D01*
X98422755Y-80018467D01*
X98422690Y-80015282D01*
X97662752Y-80015282D01*
X97653459Y-80090333D01*
X97625272Y-80154160D01*
X97576803Y-80209798D01*
X97571746Y-80214211D01*
X97523452Y-80249037D01*
X97471743Y-80271620D01*
X97411011Y-80283540D01*
X97335648Y-80286383D01*
X97317541Y-80285978D01*
X97263722Y-80283325D01*
X97223692Y-80277909D01*
X97188676Y-80267745D01*
X97149897Y-80250850D01*
X97139255Y-80245672D01*
X97078604Y-80209844D01*
X97031785Y-80167212D01*
X97019048Y-80151973D01*
X96974378Y-80095462D01*
X96974378Y-79899586D01*
X96974914Y-79820939D01*
X96976604Y-79762988D01*
X96979572Y-79723875D01*
X96983943Y-79701741D01*
X96988028Y-79695274D01*
X97003953Y-79692111D01*
X97037736Y-79689488D01*
X97084660Y-79687655D01*
X97140007Y-79686857D01*
X97148894Y-79686842D01*
X97269670Y-79692096D01*
X97372340Y-79708263D01*
X97458894Y-79735961D01*
X97531319Y-79775808D01*
X97586249Y-79822758D01*
X97630796Y-79880645D01*
X97655520Y-79943693D01*
X97662752Y-80015282D01*
X98422690Y-80015282D01*
X98420822Y-79924712D01*
X98412478Y-79845812D01*
X98396232Y-79774590D01*
X98370595Y-79703864D01*
X98346599Y-79651493D01*
X98287980Y-79556196D01*
X98209883Y-79468170D01*
X98114685Y-79389017D01*
X98004762Y-79320340D01*
X97882490Y-79263741D01*
X97750245Y-79220821D01*
X97685578Y-79205882D01*
X97549396Y-79183777D01*
X97400951Y-79169194D01*
X97249495Y-79162813D01*
X97122936Y-79164445D01*
X96961050Y-79171224D01*
X96968470Y-79112245D01*
X96987762Y-79013092D01*
X97018896Y-78932372D01*
X97062731Y-78869466D01*
X97120129Y-78823756D01*
X97191952Y-78794622D01*
X97279059Y-78781447D01*
X97382314Y-78783611D01*
X97420289Y-78787612D01*
X97561480Y-78812780D01*
X97698293Y-78853814D01*
X97792822Y-78891815D01*
X97837982Y-78911190D01*
X97876415Y-78926760D01*
X97902766Y-78936405D01*
X97910454Y-78938452D01*
X97920198Y-78929374D01*
X97936917Y-78900405D01*
X97960768Y-78851217D01*
X97991907Y-78781484D01*
X98030493Y-78690879D01*
X98037090Y-78675089D01*
X98067147Y-78602772D01*
X98094126Y-78537425D01*
X98116864Y-78481906D01*
X98134194Y-78439072D01*
X98144952Y-78411781D01*
X98148059Y-78402942D01*
X98138060Y-78398187D01*
X98111783Y-78392910D01*
X98083511Y-78389231D01*
X98053354Y-78384474D01*
X98005567Y-78375028D01*
X97944388Y-78361820D01*
X97874054Y-78345776D01*
X97798806Y-78327820D01*
X97770245Y-78320797D01*
X97665184Y-78295209D01*
X97577520Y-78275147D01*
X97502932Y-78259969D01*
X97437097Y-78249035D01*
X97375693Y-78241704D01*
X97314398Y-78237335D01*
X97248890Y-78235287D01*
X97190872Y-78234889D01*
X97021426Y-78241552D01*
G36*
X99366571Y-77324071D02*
G01*
X99206430Y-77345245D01*
X99042490Y-77385385D01*
X98872687Y-77444889D01*
X98694957Y-77524154D01*
X98683690Y-77529699D01*
X98625995Y-77557725D01*
X98574448Y-77581802D01*
X98532809Y-77600249D01*
X98504838Y-77611386D01*
X98495267Y-77613933D01*
X98476050Y-77618941D01*
X98471439Y-77623147D01*
X98476542Y-77633580D01*
X98492582Y-77659868D01*
X98517712Y-77699257D01*
X98550086Y-77748991D01*
X98587857Y-77806315D01*
X98629178Y-77868476D01*
X98672202Y-77932718D01*
X98715083Y-77996285D01*
X98755974Y-78056425D01*
X98793029Y-78110380D01*
X98824400Y-78155397D01*
X98848241Y-78188721D01*
X98862706Y-78207597D01*
X98864691Y-78209787D01*
X98874809Y-78205138D01*
X98897150Y-78187962D01*
X98927720Y-78161440D01*
X98943464Y-78146964D01*
X99039953Y-78071682D01*
X99146664Y-78016241D01*
X99262168Y-77981141D01*
X99385038Y-77966880D01*
X99454439Y-77968051D01*
X99575577Y-77985212D01*
X99684795Y-78021094D01*
X99782418Y-78075959D01*
X99868772Y-78150070D01*
X99944185Y-78243688D01*
X100008982Y-78357076D01*
X100046399Y-78443667D01*
X100090252Y-78579366D01*
X100122572Y-78726850D01*
X100143443Y-78882314D01*
X100152949Y-79041956D01*
X100151173Y-79201973D01*
X100138197Y-79358561D01*
X100114106Y-79507918D01*
X100078982Y-79646240D01*
X100032908Y-79769724D01*
X100016627Y-79803978D01*
X99948380Y-79918064D01*
X99867921Y-80014557D01*
X99776430Y-80092670D01*
X99675089Y-80151617D01*
X99565080Y-80190612D01*
X99447585Y-80208868D01*
X99406117Y-80210211D01*
X99284559Y-80199290D01*
X99164122Y-80166474D01*
X99046334Y-80112439D01*
X98932723Y-80037865D01*
X98841315Y-79959539D01*
X98794785Y-79915008D01*
X98613517Y-80212271D01*
X98568420Y-80286433D01*
X98527181Y-80354646D01*
X98491265Y-80414459D01*
X98462134Y-80463420D01*
X98441250Y-80499079D01*
X98430076Y-80518984D01*
X98428625Y-80522079D01*
X98436854Y-80531718D01*
X98462433Y-80548999D01*
X98502127Y-80572283D01*
X98552703Y-80599934D01*
X98610926Y-80630315D01*
X98673563Y-80661790D01*
X98737379Y-80692722D01*
X98799140Y-80721473D01*
X98855612Y-80746408D01*
X98903562Y-80765889D01*
X98927014Y-80774318D01*
X99060779Y-80812133D01*
X99198673Y-80837136D01*
X99346378Y-80850140D01*
X99473167Y-80852468D01*
X99541122Y-80851373D01*
X99606723Y-80849275D01*
X99664153Y-80846434D01*
X99707597Y-80843106D01*
X99721702Y-80841422D01*
X99860716Y-80812587D01*
X100002243Y-80767468D01*
X100139725Y-80708750D01*
X100266606Y-80639120D01*
X100344111Y-80586441D01*
X100471519Y-80478239D01*
X100589822Y-80351671D01*
X100696828Y-80209866D01*
X100790348Y-80055951D01*
X100868190Y-79893053D01*
X100912044Y-79775756D01*
X100962292Y-79592128D01*
X100995791Y-79397581D01*
X101012551Y-79196325D01*
X101012584Y-78992568D01*
X100995899Y-78790521D01*
X100962507Y-78594392D01*
X100912420Y-78408391D01*
X100908603Y-78396803D01*
X100845719Y-78234750D01*
X100768972Y-78086832D01*
X100675758Y-77948865D01*
X100563473Y-77816661D01*
X100519608Y-77771399D01*
X100383466Y-77647457D01*
X100243509Y-77544915D01*
X100097589Y-77462656D01*
X99943558Y-77399564D01*
X99779268Y-77354523D01*
X99683711Y-77337033D01*
X99524977Y-77321466D01*
X99366571Y-77324071D01*
G37*
X99366571Y-77324071D02*
X99206430Y-77345245D01*
X99042490Y-77385385D01*
X98872687Y-77444889D01*
X98694957Y-77524154D01*
X98683690Y-77529699D01*
X98625995Y-77557725D01*
X98574448Y-77581802D01*
X98532809Y-77600249D01*
X98504838Y-77611386D01*
X98495267Y-77613933D01*
X98476050Y-77618941D01*
X98471439Y-77623147D01*
X98476542Y-77633580D01*
X98492582Y-77659868D01*
X98517712Y-77699257D01*
X98550086Y-77748991D01*
X98587857Y-77806315D01*
X98629178Y-77868476D01*
X98672202Y-77932718D01*
X98715083Y-77996285D01*
X98755974Y-78056425D01*
X98793029Y-78110380D01*
X98824400Y-78155397D01*
X98848241Y-78188721D01*
X98862706Y-78207597D01*
X98864691Y-78209787D01*
X98874809Y-78205138D01*
X98897150Y-78187962D01*
X98927720Y-78161440D01*
X98943464Y-78146964D01*
X99039953Y-78071682D01*
X99146664Y-78016241D01*
X99262168Y-77981141D01*
X99385038Y-77966880D01*
X99454439Y-77968051D01*
X99575577Y-77985212D01*
X99684795Y-78021094D01*
X99782418Y-78075959D01*
X99868772Y-78150070D01*
X99944185Y-78243688D01*
X100008982Y-78357076D01*
X100046399Y-78443667D01*
X100090252Y-78579366D01*
X100122572Y-78726850D01*
X100143443Y-78882314D01*
X100152949Y-79041956D01*
X100151173Y-79201973D01*
X100138197Y-79358561D01*
X100114106Y-79507918D01*
X100078982Y-79646240D01*
X100032908Y-79769724D01*
X100016627Y-79803978D01*
X99948380Y-79918064D01*
X99867921Y-80014557D01*
X99776430Y-80092670D01*
X99675089Y-80151617D01*
X99565080Y-80190612D01*
X99447585Y-80208868D01*
X99406117Y-80210211D01*
X99284559Y-80199290D01*
X99164122Y-80166474D01*
X99046334Y-80112439D01*
X98932723Y-80037865D01*
X98841315Y-79959539D01*
X98794785Y-79915008D01*
X98613517Y-80212271D01*
X98568420Y-80286433D01*
X98527181Y-80354646D01*
X98491265Y-80414459D01*
X98462134Y-80463420D01*
X98441250Y-80499079D01*
X98430076Y-80518984D01*
X98428625Y-80522079D01*
X98436854Y-80531718D01*
X98462433Y-80548999D01*
X98502127Y-80572283D01*
X98552703Y-80599934D01*
X98610926Y-80630315D01*
X98673563Y-80661790D01*
X98737379Y-80692722D01*
X98799140Y-80721473D01*
X98855612Y-80746408D01*
X98903562Y-80765889D01*
X98927014Y-80774318D01*
X99060779Y-80812133D01*
X99198673Y-80837136D01*
X99346378Y-80850140D01*
X99473167Y-80852468D01*
X99541122Y-80851373D01*
X99606723Y-80849275D01*
X99664153Y-80846434D01*
X99707597Y-80843106D01*
X99721702Y-80841422D01*
X99860716Y-80812587D01*
X100002243Y-80767468D01*
X100139725Y-80708750D01*
X100266606Y-80639120D01*
X100344111Y-80586441D01*
X100471519Y-80478239D01*
X100589822Y-80351671D01*
X100696828Y-80209866D01*
X100790348Y-80055951D01*
X100868190Y-79893053D01*
X100912044Y-79775756D01*
X100962292Y-79592128D01*
X100995791Y-79397581D01*
X101012551Y-79196325D01*
X101012584Y-78992568D01*
X100995899Y-78790521D01*
X100962507Y-78594392D01*
X100912420Y-78408391D01*
X100908603Y-78396803D01*
X100845719Y-78234750D01*
X100768972Y-78086832D01*
X100675758Y-77948865D01*
X100563473Y-77816661D01*
X100519608Y-77771399D01*
X100383466Y-77647457D01*
X100243509Y-77544915D01*
X100097589Y-77462656D01*
X99943558Y-77399564D01*
X99779268Y-77354523D01*
X99683711Y-77337033D01*
X99524977Y-77321466D01*
X99366571Y-77324071D01*
G36*
X102641400Y-76864054D02*
G01*
X102630535Y-76977993D01*
X102598918Y-77085616D01*
X102548015Y-77184615D01*
X102479293Y-77272684D01*
X102394219Y-77347516D01*
X102297232Y-77405384D01*
X102190964Y-77445005D01*
X102083950Y-77463573D01*
X101978300Y-77462434D01*
X101876125Y-77442930D01*
X101779534Y-77406406D01*
X101690638Y-77354205D01*
X101611546Y-77287673D01*
X101544369Y-77208152D01*
X101491217Y-77116987D01*
X101454199Y-77015523D01*
X101435427Y-76905102D01*
X101433489Y-76855206D01*
X101433489Y-76767267D01*
X101381560Y-76767267D01*
X101345253Y-76770111D01*
X101318355Y-76781911D01*
X101291249Y-76805649D01*
X101252867Y-76844031D01*
X101252867Y-79035602D01*
X101252876Y-79297739D01*
X101252908Y-79538241D01*
X101252972Y-79758048D01*
X101253076Y-79958101D01*
X101253227Y-80139344D01*
X101253434Y-80302716D01*
X101253706Y-80449160D01*
X101254050Y-80579617D01*
X101254474Y-80695029D01*
X101254987Y-80796338D01*
X101255597Y-80884484D01*
X101256312Y-80960410D01*
X101257140Y-81025057D01*
X101258089Y-81079367D01*
X101259167Y-81124280D01*
X101260383Y-81160740D01*
X101261745Y-81189687D01*
X101263261Y-81212063D01*
X101264938Y-81228809D01*
X101266786Y-81240868D01*
X101268813Y-81249180D01*
X101271025Y-81254687D01*
X101272108Y-81256537D01*
X101276271Y-81263549D01*
X101279805Y-81269996D01*
X101283635Y-81275900D01*
X101288682Y-81281286D01*
X101295871Y-81286178D01*
X101306123Y-81290598D01*
X101320364Y-81294572D01*
X101339514Y-81298121D01*
X101364499Y-81301270D01*
X101396240Y-81304042D01*
X101435662Y-81306461D01*
X101483686Y-81308551D01*
X101541237Y-81310335D01*
X101609237Y-81311837D01*
X101688610Y-81313080D01*
X101780279Y-81314089D01*
X101885166Y-81314885D01*
X102004196Y-81315494D01*
X102138290Y-81315939D01*
X102288373Y-81316243D01*
X102455367Y-81316430D01*
X102640196Y-81316524D01*
X102843783Y-81316548D01*
X103067050Y-81316525D01*
X103310922Y-81316480D01*
X103576321Y-81316437D01*
X103614704Y-81316432D01*
X103881682Y-81316389D01*
X104127002Y-81316318D01*
X104351583Y-81316213D01*
X104556345Y-81316066D01*
X104742206Y-81315869D01*
X104910088Y-81315616D01*
X105060908Y-81315300D01*
X105195587Y-81314913D01*
X105315044Y-81314447D01*
X105420199Y-81313897D01*
X105511971Y-81313253D01*
X105591279Y-81312511D01*
X105659043Y-81311661D01*
X105716182Y-81310697D01*
X105763617Y-81309611D01*
X105802266Y-81308397D01*
X105833049Y-81307047D01*
X105856885Y-81305555D01*
X105874694Y-81303911D01*
X105887395Y-81302111D01*
X105895908Y-81300145D01*
X105900266Y-81298477D01*
X105908728Y-81294906D01*
X105916497Y-81292270D01*
X105923602Y-81289634D01*
X105930073Y-81286062D01*
X105935939Y-81280621D01*
X105941229Y-81272375D01*
X105945974Y-81260390D01*
X105950202Y-81243731D01*
X105953943Y-81221463D01*
X105957227Y-81192652D01*
X105960083Y-81156363D01*
X105962540Y-81111661D01*
X105964629Y-81057611D01*
X105966378Y-80993279D01*
X105967817Y-80917730D01*
X105968976Y-80830030D01*
X105969883Y-80729243D01*
X105970569Y-80614434D01*
X105971063Y-80484670D01*
X105971395Y-80339015D01*
X105971593Y-80176535D01*
X105971687Y-79996295D01*
X105971708Y-79797360D01*
X105971685Y-79578796D01*
X105971646Y-79339668D01*
X105971622Y-79079040D01*
X105971622Y-79036889D01*
X105971636Y-78773992D01*
X105971661Y-78532732D01*
X105971671Y-78312165D01*
X105971642Y-78111352D01*
X105971548Y-77929349D01*
X105971362Y-77765216D01*
X105971059Y-77618011D01*
X105970614Y-77486792D01*
X105970034Y-77376867D01*
X105667197Y-77376867D01*
X105627407Y-77434711D01*
X105616236Y-77450479D01*
X105606166Y-77464441D01*
X105597138Y-77477784D01*
X105589097Y-77491693D01*
X105581986Y-77507356D01*
X105575747Y-77525958D01*
X105570325Y-77548686D01*
X105565662Y-77576727D01*
X105561701Y-77611267D01*
X105558385Y-77653492D01*
X105555659Y-77704589D01*
X105553464Y-77765744D01*
X105551745Y-77838144D01*
X105550444Y-77922975D01*
X105549505Y-78021422D01*
X105548870Y-78134674D01*
X105548484Y-78263916D01*
X105548288Y-78410334D01*
X105548227Y-78575116D01*
X105548243Y-78759447D01*
X105548280Y-78964513D01*
X105548289Y-79087133D01*
X105548265Y-79304082D01*
X105548231Y-79499642D01*
X105548243Y-79674999D01*
X105548358Y-79831341D01*
X105548630Y-79969857D01*
X105549118Y-80091734D01*
X105549876Y-80198160D01*
X105550962Y-80290322D01*
X105552431Y-80369409D01*
X105554340Y-80436608D01*
X105556744Y-80493107D01*
X105559701Y-80540093D01*
X105563266Y-80578755D01*
X105567495Y-80610280D01*
X105572446Y-80635855D01*
X105578173Y-80656670D01*
X105584733Y-80673911D01*
X105592183Y-80688765D01*
X105600579Y-80702422D01*
X105609976Y-80716069D01*
X105620432Y-80730893D01*
X105626523Y-80739783D01*
X105665296Y-80797400D01*
X105133732Y-80797400D01*
X105010483Y-80797365D01*
X104907987Y-80797215D01*
X104824420Y-80796878D01*
X104757956Y-80796286D01*
X104706771Y-80795367D01*
X104669041Y-80794051D01*
X104642940Y-80792269D01*
X104626644Y-80789951D01*
X104618328Y-80787026D01*
X104616168Y-80783424D01*
X104618339Y-80779075D01*
X104619535Y-80777645D01*
X104644685Y-80740573D01*
X104670583Y-80687772D01*
X104694192Y-80625770D01*
X104702461Y-80599357D01*
X104707078Y-80581416D01*
X104710979Y-80560355D01*
X104714248Y-80534089D01*
X104716966Y-80500532D01*
X104719215Y-80457599D01*
X104721077Y-80403204D01*
X104722636Y-80335262D01*
X104723972Y-80251688D01*
X104725169Y-80150395D01*
X104726308Y-80029300D01*
X104726685Y-79984600D01*
X104727702Y-79859449D01*
X104728460Y-79755082D01*
X104728903Y-79669707D01*
X104728970Y-79601533D01*
X104728605Y-79548765D01*
X104727748Y-79509614D01*
X104726341Y-79482285D01*
X104724325Y-79464986D01*
X104721643Y-79455926D01*
X104718236Y-79453312D01*
X104714044Y-79455351D01*
X104709571Y-79459667D01*
X104699216Y-79472602D01*
X104677158Y-79501676D01*
X104644957Y-79544759D01*
X104604174Y-79599718D01*
X104556370Y-79664423D01*
X104503105Y-79736742D01*
X104445940Y-79814544D01*
X104386437Y-79895698D01*
X104326155Y-79978072D01*
X104266655Y-80059536D01*
X104209498Y-80137957D01*
X104156245Y-80211204D01*
X104108457Y-80277147D01*
X104067693Y-80333654D01*
X104035516Y-80378593D01*
X104013485Y-80409834D01*
X104008917Y-80416466D01*
X103985996Y-80453369D01*
X103959188Y-80501359D01*
X103933789Y-80550897D01*
X103930568Y-80557577D01*
X103908890Y-80605772D01*
X103896304Y-80643334D01*
X103890574Y-80679160D01*
X103889456Y-80721200D01*
X103890090Y-80797400D01*
X102735651Y-80797400D01*
X102826815Y-80703669D01*
X102873612Y-80653775D01*
X102923899Y-80597295D01*
X102969944Y-80543026D01*
X102990369Y-80517673D01*
X103020807Y-80478128D01*
X103060862Y-80424916D01*
X103109361Y-80359667D01*
X103165135Y-80284011D01*
X103227011Y-80199577D01*
X103293819Y-80107994D01*
X103364387Y-80010892D01*
X103437545Y-79909901D01*
X103512121Y-79806650D01*
X103586944Y-79702768D01*
X103660843Y-79599885D01*
X103732646Y-79499631D01*
X103801184Y-79403636D01*
X103865284Y-79313527D01*
X103923775Y-79230936D01*
X103975486Y-79157492D01*
X104019247Y-79094824D01*
X104053885Y-79044561D01*
X104078230Y-79008334D01*
X104091111Y-78987771D01*
X104092869Y-78983668D01*
X104084910Y-78972342D01*
X104064115Y-78945162D01*
X104031847Y-78903829D01*
X103989470Y-78850044D01*
X103938347Y-78785506D01*
X103879841Y-78711918D01*
X103815314Y-78630978D01*
X103746131Y-78544388D01*
X103673653Y-78453848D01*
X103599246Y-78361060D01*
X103539517Y-78286702D01*
X102528511Y-78286702D01*
X102522602Y-78299659D01*
X102508272Y-78321908D01*
X102507225Y-78323391D01*
X102488438Y-78353544D01*
X102468791Y-78390375D01*
X102464892Y-78398511D01*
X102461356Y-78406940D01*
X102458230Y-78417059D01*
X102455486Y-78430260D01*
X102453092Y-78447938D01*
X102451019Y-78471484D01*
X102449235Y-78502293D01*
X102447712Y-78541757D01*
X102446419Y-78591269D01*
X102445326Y-78652223D01*
X102444403Y-78726011D01*
X102443619Y-78814028D01*
X102442945Y-78917665D01*
X102442350Y-79038316D01*
X102441805Y-79177374D01*
X102441279Y-79336232D01*
X102440745Y-79515089D01*
X102440206Y-79700207D01*
X102439772Y-79864145D01*
X102439509Y-80008303D01*
X102439484Y-80134079D01*
X102439765Y-80242871D01*
X102440419Y-80336077D01*
X102441514Y-80415097D01*
X102443118Y-80481328D01*
X102445297Y-80536170D01*
X102448119Y-80581021D01*
X102451651Y-80617278D01*
X102455961Y-80646341D01*
X102461117Y-80669609D01*
X102467185Y-80688479D01*
X102474233Y-80704351D01*
X102482329Y-80718622D01*
X102491540Y-80732691D01*
X102500040Y-80745158D01*
X102517176Y-80771452D01*
X102527322Y-80789037D01*
X102528511Y-80792257D01*
X102517604Y-80793334D01*
X102486411Y-80794335D01*
X102437223Y-80795235D01*
X102372333Y-80796010D01*
X102294030Y-80796637D01*
X102204607Y-80797091D01*
X102106356Y-80797349D01*
X102037445Y-80797400D01*
X101932452Y-80797180D01*
X101835610Y-80796548D01*
X101749107Y-80795549D01*
X101675132Y-80794227D01*
X101615874Y-80792626D01*
X101573520Y-80790791D01*
X101550260Y-80788765D01*
X101546378Y-80787493D01*
X101554076Y-80772591D01*
X101562074Y-80764560D01*
X101575246Y-80747434D01*
X101592485Y-80717183D01*
X101604407Y-80692622D01*
X101631045Y-80633711D01*
X101634120Y-79456845D01*
X101637195Y-78279978D01*
X102082853Y-78279978D01*
X102180670Y-78280142D01*
X102271064Y-78280611D01*
X102351630Y-78281347D01*
X102419962Y-78282316D01*
X102473656Y-78283480D01*
X102510305Y-78284803D01*
X102527504Y-78286249D01*
X102528511Y-78286702D01*
X103539517Y-78286702D01*
X103524270Y-78267722D01*
X103450090Y-78175537D01*
X103378069Y-78086204D01*
X103309569Y-78001424D01*
X103245955Y-77922898D01*
X103188588Y-77852326D01*
X103138833Y-77791409D01*
X103098052Y-77741847D01*
X103080888Y-77721178D01*
X102994596Y-77620516D01*
X102917997Y-77537259D01*
X102849183Y-77469438D01*
X102786248Y-77415089D01*
X102776867Y-77407722D01*
X102737356Y-77377117D01*
X103869116Y-77376867D01*
X103863827Y-77424844D01*
X103867130Y-77482188D01*
X103888661Y-77550463D01*
X103928635Y-77630212D01*
X103973943Y-77702495D01*
X103990161Y-77725140D01*
X104018214Y-77762696D01*
X104056430Y-77813021D01*
X104103137Y-77873973D01*
X104156661Y-77943411D01*
X104215331Y-78019194D01*
X104277475Y-78099180D01*
X104341421Y-78181228D01*
X104405495Y-78263196D01*
X104468027Y-78342943D01*
X104527343Y-78418327D01*
X104581771Y-78487207D01*
X104629639Y-78547442D01*
X104669275Y-78596889D01*
X104699006Y-78633408D01*
X104717161Y-78654858D01*
X104720220Y-78658156D01*
X104723079Y-78650149D01*
X104725293Y-78619855D01*
X104726857Y-78567556D01*
X104727767Y-78493531D01*
X104728020Y-78398063D01*
X104727613Y-78281434D01*
X104726704Y-78161445D01*
X104725382Y-78029333D01*
X104723857Y-77917594D01*
X104721881Y-77824025D01*
X104719206Y-77746419D01*
X104715582Y-77682574D01*
X104710761Y-77630283D01*
X104704494Y-77587344D01*
X104696532Y-77551551D01*
X104686627Y-77520700D01*
X104674531Y-77492586D01*
X104659993Y-77465005D01*
X104645311Y-77439966D01*
X104607314Y-77376867D01*
X105667197Y-77376867D01*
X105970034Y-77376867D01*
X105970001Y-77370617D01*
X105969195Y-77268544D01*
X105968170Y-77179633D01*
X105966900Y-77102941D01*
X105965360Y-77037527D01*
X105963524Y-76982449D01*
X105961367Y-76936765D01*
X105958863Y-76899534D01*
X105955987Y-76869813D01*
X105952713Y-76846662D01*
X105949015Y-76829139D01*
X105944869Y-76816301D01*
X105940247Y-76807208D01*
X105935126Y-76800918D01*
X105929478Y-76796488D01*
X105923279Y-76792978D01*
X105916504Y-76789445D01*
X105910508Y-76785876D01*
X105905275Y-76783300D01*
X105897099Y-76780972D01*
X105884886Y-76778878D01*
X105867541Y-76777007D01*
X105843969Y-76775347D01*
X105813077Y-76773884D01*
X105773768Y-76772608D01*
X105724950Y-76771504D01*
X105665527Y-76770561D01*
X105594404Y-76769767D01*
X105510488Y-76769109D01*
X105412683Y-76768575D01*
X105299894Y-76768153D01*
X105171029Y-76767829D01*
X105024991Y-76767592D01*
X104860686Y-76767430D01*
X104677020Y-76767330D01*
X104472897Y-76767280D01*
X104261753Y-76767267D01*
X102641400Y-76767267D01*
X102641400Y-76864054D01*
G37*
X102641400Y-76864054D02*
X102630535Y-76977993D01*
X102598918Y-77085616D01*
X102548015Y-77184615D01*
X102479293Y-77272684D01*
X102394219Y-77347516D01*
X102297232Y-77405384D01*
X102190964Y-77445005D01*
X102083950Y-77463573D01*
X101978300Y-77462434D01*
X101876125Y-77442930D01*
X101779534Y-77406406D01*
X101690638Y-77354205D01*
X101611546Y-77287673D01*
X101544369Y-77208152D01*
X101491217Y-77116987D01*
X101454199Y-77015523D01*
X101435427Y-76905102D01*
X101433489Y-76855206D01*
X101433489Y-76767267D01*
X101381560Y-76767267D01*
X101345253Y-76770111D01*
X101318355Y-76781911D01*
X101291249Y-76805649D01*
X101252867Y-76844031D01*
X101252867Y-79035602D01*
X101252876Y-79297739D01*
X101252908Y-79538241D01*
X101252972Y-79758048D01*
X101253076Y-79958101D01*
X101253227Y-80139344D01*
X101253434Y-80302716D01*
X101253706Y-80449160D01*
X101254050Y-80579617D01*
X101254474Y-80695029D01*
X101254987Y-80796338D01*
X101255597Y-80884484D01*
X101256312Y-80960410D01*
X101257140Y-81025057D01*
X101258089Y-81079367D01*
X101259167Y-81124280D01*
X101260383Y-81160740D01*
X101261745Y-81189687D01*
X101263261Y-81212063D01*
X101264938Y-81228809D01*
X101266786Y-81240868D01*
X101268813Y-81249180D01*
X101271025Y-81254687D01*
X101272108Y-81256537D01*
X101276271Y-81263549D01*
X101279805Y-81269996D01*
X101283635Y-81275900D01*
X101288682Y-81281286D01*
X101295871Y-81286178D01*
X101306123Y-81290598D01*
X101320364Y-81294572D01*
X101339514Y-81298121D01*
X101364499Y-81301270D01*
X101396240Y-81304042D01*
X101435662Y-81306461D01*
X101483686Y-81308551D01*
X101541237Y-81310335D01*
X101609237Y-81311837D01*
X101688610Y-81313080D01*
X101780279Y-81314089D01*
X101885166Y-81314885D01*
X102004196Y-81315494D01*
X102138290Y-81315939D01*
X102288373Y-81316243D01*
X102455367Y-81316430D01*
X102640196Y-81316524D01*
X102843783Y-81316548D01*
X103067050Y-81316525D01*
X103310922Y-81316480D01*
X103576321Y-81316437D01*
X103614704Y-81316432D01*
X103881682Y-81316389D01*
X104127002Y-81316318D01*
X104351583Y-81316213D01*
X104556345Y-81316066D01*
X104742206Y-81315869D01*
X104910088Y-81315616D01*
X105060908Y-81315300D01*
X105195587Y-81314913D01*
X105315044Y-81314447D01*
X105420199Y-81313897D01*
X105511971Y-81313253D01*
X105591279Y-81312511D01*
X105659043Y-81311661D01*
X105716182Y-81310697D01*
X105763617Y-81309611D01*
X105802266Y-81308397D01*
X105833049Y-81307047D01*
X105856885Y-81305555D01*
X105874694Y-81303911D01*
X105887395Y-81302111D01*
X105895908Y-81300145D01*
X105900266Y-81298477D01*
X105908728Y-81294906D01*
X105916497Y-81292270D01*
X105923602Y-81289634D01*
X105930073Y-81286062D01*
X105935939Y-81280621D01*
X105941229Y-81272375D01*
X105945974Y-81260390D01*
X105950202Y-81243731D01*
X105953943Y-81221463D01*
X105957227Y-81192652D01*
X105960083Y-81156363D01*
X105962540Y-81111661D01*
X105964629Y-81057611D01*
X105966378Y-80993279D01*
X105967817Y-80917730D01*
X105968976Y-80830030D01*
X105969883Y-80729243D01*
X105970569Y-80614434D01*
X105971063Y-80484670D01*
X105971395Y-80339015D01*
X105971593Y-80176535D01*
X105971687Y-79996295D01*
X105971708Y-79797360D01*
X105971685Y-79578796D01*
X105971646Y-79339668D01*
X105971622Y-79079040D01*
X105971622Y-79036889D01*
X105971636Y-78773992D01*
X105971661Y-78532732D01*
X105971671Y-78312165D01*
X105971642Y-78111352D01*
X105971548Y-77929349D01*
X105971362Y-77765216D01*
X105971059Y-77618011D01*
X105970614Y-77486792D01*
X105970034Y-77376867D01*
X105667197Y-77376867D01*
X105627407Y-77434711D01*
X105616236Y-77450479D01*
X105606166Y-77464441D01*
X105597138Y-77477784D01*
X105589097Y-77491693D01*
X105581986Y-77507356D01*
X105575747Y-77525958D01*
X105570325Y-77548686D01*
X105565662Y-77576727D01*
X105561701Y-77611267D01*
X105558385Y-77653492D01*
X105555659Y-77704589D01*
X105553464Y-77765744D01*
X105551745Y-77838144D01*
X105550444Y-77922975D01*
X105549505Y-78021422D01*
X105548870Y-78134674D01*
X105548484Y-78263916D01*
X105548288Y-78410334D01*
X105548227Y-78575116D01*
X105548243Y-78759447D01*
X105548280Y-78964513D01*
X105548289Y-79087133D01*
X105548265Y-79304082D01*
X105548231Y-79499642D01*
X105548243Y-79674999D01*
X105548358Y-79831341D01*
X105548630Y-79969857D01*
X105549118Y-80091734D01*
X105549876Y-80198160D01*
X105550962Y-80290322D01*
X105552431Y-80369409D01*
X105554340Y-80436608D01*
X105556744Y-80493107D01*
X105559701Y-80540093D01*
X105563266Y-80578755D01*
X105567495Y-80610280D01*
X105572446Y-80635855D01*
X105578173Y-80656670D01*
X105584733Y-80673911D01*
X105592183Y-80688765D01*
X105600579Y-80702422D01*
X105609976Y-80716069D01*
X105620432Y-80730893D01*
X105626523Y-80739783D01*
X105665296Y-80797400D01*
X105133732Y-80797400D01*
X105010483Y-80797365D01*
X104907987Y-80797215D01*
X104824420Y-80796878D01*
X104757956Y-80796286D01*
X104706771Y-80795367D01*
X104669041Y-80794051D01*
X104642940Y-80792269D01*
X104626644Y-80789951D01*
X104618328Y-80787026D01*
X104616168Y-80783424D01*
X104618339Y-80779075D01*
X104619535Y-80777645D01*
X104644685Y-80740573D01*
X104670583Y-80687772D01*
X104694192Y-80625770D01*
X104702461Y-80599357D01*
X104707078Y-80581416D01*
X104710979Y-80560355D01*
X104714248Y-80534089D01*
X104716966Y-80500532D01*
X104719215Y-80457599D01*
X104721077Y-80403204D01*
X104722636Y-80335262D01*
X104723972Y-80251688D01*
X104725169Y-80150395D01*
X104726308Y-80029300D01*
X104726685Y-79984600D01*
X104727702Y-79859449D01*
X104728460Y-79755082D01*
X104728903Y-79669707D01*
X104728970Y-79601533D01*
X104728605Y-79548765D01*
X104727748Y-79509614D01*
X104726341Y-79482285D01*
X104724325Y-79464986D01*
X104721643Y-79455926D01*
X104718236Y-79453312D01*
X104714044Y-79455351D01*
X104709571Y-79459667D01*
X104699216Y-79472602D01*
X104677158Y-79501676D01*
X104644957Y-79544759D01*
X104604174Y-79599718D01*
X104556370Y-79664423D01*
X104503105Y-79736742D01*
X104445940Y-79814544D01*
X104386437Y-79895698D01*
X104326155Y-79978072D01*
X104266655Y-80059536D01*
X104209498Y-80137957D01*
X104156245Y-80211204D01*
X104108457Y-80277147D01*
X104067693Y-80333654D01*
X104035516Y-80378593D01*
X104013485Y-80409834D01*
X104008917Y-80416466D01*
X103985996Y-80453369D01*
X103959188Y-80501359D01*
X103933789Y-80550897D01*
X103930568Y-80557577D01*
X103908890Y-80605772D01*
X103896304Y-80643334D01*
X103890574Y-80679160D01*
X103889456Y-80721200D01*
X103890090Y-80797400D01*
X102735651Y-80797400D01*
X102826815Y-80703669D01*
X102873612Y-80653775D01*
X102923899Y-80597295D01*
X102969944Y-80543026D01*
X102990369Y-80517673D01*
X103020807Y-80478128D01*
X103060862Y-80424916D01*
X103109361Y-80359667D01*
X103165135Y-80284011D01*
X103227011Y-80199577D01*
X103293819Y-80107994D01*
X103364387Y-80010892D01*
X103437545Y-79909901D01*
X103512121Y-79806650D01*
X103586944Y-79702768D01*
X103660843Y-79599885D01*
X103732646Y-79499631D01*
X103801184Y-79403636D01*
X103865284Y-79313527D01*
X103923775Y-79230936D01*
X103975486Y-79157492D01*
X104019247Y-79094824D01*
X104053885Y-79044561D01*
X104078230Y-79008334D01*
X104091111Y-78987771D01*
X104092869Y-78983668D01*
X104084910Y-78972342D01*
X104064115Y-78945162D01*
X104031847Y-78903829D01*
X103989470Y-78850044D01*
X103938347Y-78785506D01*
X103879841Y-78711918D01*
X103815314Y-78630978D01*
X103746131Y-78544388D01*
X103673653Y-78453848D01*
X103599246Y-78361060D01*
X103539517Y-78286702D01*
X102528511Y-78286702D01*
X102522602Y-78299659D01*
X102508272Y-78321908D01*
X102507225Y-78323391D01*
X102488438Y-78353544D01*
X102468791Y-78390375D01*
X102464892Y-78398511D01*
X102461356Y-78406940D01*
X102458230Y-78417059D01*
X102455486Y-78430260D01*
X102453092Y-78447938D01*
X102451019Y-78471484D01*
X102449235Y-78502293D01*
X102447712Y-78541757D01*
X102446419Y-78591269D01*
X102445326Y-78652223D01*
X102444403Y-78726011D01*
X102443619Y-78814028D01*
X102442945Y-78917665D01*
X102442350Y-79038316D01*
X102441805Y-79177374D01*
X102441279Y-79336232D01*
X102440745Y-79515089D01*
X102440206Y-79700207D01*
X102439772Y-79864145D01*
X102439509Y-80008303D01*
X102439484Y-80134079D01*
X102439765Y-80242871D01*
X102440419Y-80336077D01*
X102441514Y-80415097D01*
X102443118Y-80481328D01*
X102445297Y-80536170D01*
X102448119Y-80581021D01*
X102451651Y-80617278D01*
X102455961Y-80646341D01*
X102461117Y-80669609D01*
X102467185Y-80688479D01*
X102474233Y-80704351D01*
X102482329Y-80718622D01*
X102491540Y-80732691D01*
X102500040Y-80745158D01*
X102517176Y-80771452D01*
X102527322Y-80789037D01*
X102528511Y-80792257D01*
X102517604Y-80793334D01*
X102486411Y-80794335D01*
X102437223Y-80795235D01*
X102372333Y-80796010D01*
X102294030Y-80796637D01*
X102204607Y-80797091D01*
X102106356Y-80797349D01*
X102037445Y-80797400D01*
X101932452Y-80797180D01*
X101835610Y-80796548D01*
X101749107Y-80795549D01*
X101675132Y-80794227D01*
X101615874Y-80792626D01*
X101573520Y-80790791D01*
X101550260Y-80788765D01*
X101546378Y-80787493D01*
X101554076Y-80772591D01*
X101562074Y-80764560D01*
X101575246Y-80747434D01*
X101592485Y-80717183D01*
X101604407Y-80692622D01*
X101631045Y-80633711D01*
X101634120Y-79456845D01*
X101637195Y-78279978D01*
X102082853Y-78279978D01*
X102180670Y-78280142D01*
X102271064Y-78280611D01*
X102351630Y-78281347D01*
X102419962Y-78282316D01*
X102473656Y-78283480D01*
X102510305Y-78284803D01*
X102527504Y-78286249D01*
X102528511Y-78286702D01*
X103539517Y-78286702D01*
X103524270Y-78267722D01*
X103450090Y-78175537D01*
X103378069Y-78086204D01*
X103309569Y-78001424D01*
X103245955Y-77922898D01*
X103188588Y-77852326D01*
X103138833Y-77791409D01*
X103098052Y-77741847D01*
X103080888Y-77721178D01*
X102994596Y-77620516D01*
X102917997Y-77537259D01*
X102849183Y-77469438D01*
X102786248Y-77415089D01*
X102776867Y-77407722D01*
X102737356Y-77377117D01*
X103869116Y-77376867D01*
X103863827Y-77424844D01*
X103867130Y-77482188D01*
X103888661Y-77550463D01*
X103928635Y-77630212D01*
X103973943Y-77702495D01*
X103990161Y-77725140D01*
X104018214Y-77762696D01*
X104056430Y-77813021D01*
X104103137Y-77873973D01*
X104156661Y-77943411D01*
X104215331Y-78019194D01*
X104277475Y-78099180D01*
X104341421Y-78181228D01*
X104405495Y-78263196D01*
X104468027Y-78342943D01*
X104527343Y-78418327D01*
X104581771Y-78487207D01*
X104629639Y-78547442D01*
X104669275Y-78596889D01*
X104699006Y-78633408D01*
X104717161Y-78654858D01*
X104720220Y-78658156D01*
X104723079Y-78650149D01*
X104725293Y-78619855D01*
X104726857Y-78567556D01*
X104727767Y-78493531D01*
X104728020Y-78398063D01*
X104727613Y-78281434D01*
X104726704Y-78161445D01*
X104725382Y-78029333D01*
X104723857Y-77917594D01*
X104721881Y-77824025D01*
X104719206Y-77746419D01*
X104715582Y-77682574D01*
X104710761Y-77630283D01*
X104704494Y-77587344D01*
X104696532Y-77551551D01*
X104686627Y-77520700D01*
X104674531Y-77492586D01*
X104659993Y-77465005D01*
X104645311Y-77439966D01*
X104607314Y-77376867D01*
X105667197Y-77376867D01*
X105970034Y-77376867D01*
X105970001Y-77370617D01*
X105969195Y-77268544D01*
X105968170Y-77179633D01*
X105966900Y-77102941D01*
X105965360Y-77037527D01*
X105963524Y-76982449D01*
X105961367Y-76936765D01*
X105958863Y-76899534D01*
X105955987Y-76869813D01*
X105952713Y-76846662D01*
X105949015Y-76829139D01*
X105944869Y-76816301D01*
X105940247Y-76807208D01*
X105935126Y-76800918D01*
X105929478Y-76796488D01*
X105923279Y-76792978D01*
X105916504Y-76789445D01*
X105910508Y-76785876D01*
X105905275Y-76783300D01*
X105897099Y-76780972D01*
X105884886Y-76778878D01*
X105867541Y-76777007D01*
X105843969Y-76775347D01*
X105813077Y-76773884D01*
X105773768Y-76772608D01*
X105724950Y-76771504D01*
X105665527Y-76770561D01*
X105594404Y-76769767D01*
X105510488Y-76769109D01*
X105412683Y-76768575D01*
X105299894Y-76768153D01*
X105171029Y-76767829D01*
X105024991Y-76767592D01*
X104860686Y-76767430D01*
X104677020Y-76767330D01*
X104472897Y-76767280D01*
X104261753Y-76767267D01*
X102641400Y-76767267D01*
X102641400Y-76864054D01*
G36*
X93466177Y-81649533D02*
G01*
X93434798Y-81671776D01*
X93407089Y-81699485D01*
X93407089Y-82008920D01*
X93407162Y-82100799D01*
X93407505Y-82172840D01*
X93408308Y-82227780D01*
X93409759Y-82268360D01*
X93412048Y-82297317D01*
X93415364Y-82317391D01*
X93419895Y-82331321D01*
X93425831Y-82341845D01*
X93430486Y-82348100D01*
X93461217Y-82372673D01*
X93496504Y-82375341D01*
X93528755Y-82360271D01*
X93539412Y-82351374D01*
X93546536Y-82339557D01*
X93550833Y-82320526D01*
X93553009Y-82289992D01*
X93553772Y-82243662D01*
X93553845Y-82207871D01*
X93553845Y-82073045D01*
X94050556Y-82073045D01*
X94050556Y-82195700D01*
X94051069Y-82251787D01*
X94053124Y-82290333D01*
X94057492Y-82316361D01*
X94064944Y-82334897D01*
X94073953Y-82348100D01*
X94104856Y-82372604D01*
X94139804Y-82375506D01*
X94173262Y-82358089D01*
X94182396Y-82348959D01*
X94188848Y-82336855D01*
X94193103Y-82318001D01*
X94195648Y-82288620D01*
X94196971Y-82244937D01*
X94197557Y-82183175D01*
X94197625Y-82169000D01*
X94198109Y-82052631D01*
X94198359Y-81956727D01*
X94198277Y-81879177D01*
X94197769Y-81817869D01*
X94196738Y-81770690D01*
X94195087Y-81735530D01*
X94192721Y-81710276D01*
X94189543Y-81692817D01*
X94185456Y-81681041D01*
X94180366Y-81672835D01*
X94174734Y-81666645D01*
X94142872Y-81646844D01*
X94109643Y-81649533D01*
X94078265Y-81671776D01*
X94065567Y-81686126D01*
X94057474Y-81701978D01*
X94052958Y-81724554D01*
X94050994Y-81759078D01*
X94050556Y-81810776D01*
X94050556Y-81926289D01*
X93553845Y-81926289D01*
X93553845Y-81807756D01*
X93553338Y-81753148D01*
X93551302Y-81716275D01*
X93546965Y-81692307D01*
X93539553Y-81676415D01*
X93531267Y-81666645D01*
X93499406Y-81646844D01*
X93466177Y-81649533D01*
G37*
X93466177Y-81649533D02*
X93434798Y-81671776D01*
X93407089Y-81699485D01*
X93407089Y-82008920D01*
X93407162Y-82100799D01*
X93407505Y-82172840D01*
X93408308Y-82227780D01*
X93409759Y-82268360D01*
X93412048Y-82297317D01*
X93415364Y-82317391D01*
X93419895Y-82331321D01*
X93425831Y-82341845D01*
X93430486Y-82348100D01*
X93461217Y-82372673D01*
X93496504Y-82375341D01*
X93528755Y-82360271D01*
X93539412Y-82351374D01*
X93546536Y-82339557D01*
X93550833Y-82320526D01*
X93553009Y-82289992D01*
X93553772Y-82243662D01*
X93553845Y-82207871D01*
X93553845Y-82073045D01*
X94050556Y-82073045D01*
X94050556Y-82195700D01*
X94051069Y-82251787D01*
X94053124Y-82290333D01*
X94057492Y-82316361D01*
X94064944Y-82334897D01*
X94073953Y-82348100D01*
X94104856Y-82372604D01*
X94139804Y-82375506D01*
X94173262Y-82358089D01*
X94182396Y-82348959D01*
X94188848Y-82336855D01*
X94193103Y-82318001D01*
X94195648Y-82288620D01*
X94196971Y-82244937D01*
X94197557Y-82183175D01*
X94197625Y-82169000D01*
X94198109Y-82052631D01*
X94198359Y-81956727D01*
X94198277Y-81879177D01*
X94197769Y-81817869D01*
X94196738Y-81770690D01*
X94195087Y-81735530D01*
X94192721Y-81710276D01*
X94189543Y-81692817D01*
X94185456Y-81681041D01*
X94180366Y-81672835D01*
X94174734Y-81666645D01*
X94142872Y-81646844D01*
X94109643Y-81649533D01*
X94078265Y-81671776D01*
X94065567Y-81686126D01*
X94057474Y-81701978D01*
X94052958Y-81724554D01*
X94050994Y-81759078D01*
X94050556Y-81810776D01*
X94050556Y-81926289D01*
X93553845Y-81926289D01*
X93553845Y-81807756D01*
X93553338Y-81753148D01*
X93551302Y-81716275D01*
X93546965Y-81692307D01*
X93539553Y-81676415D01*
X93531267Y-81666645D01*
X93499406Y-81646844D01*
X93466177Y-81649533D01*
G36*
X94731935Y-81644163D02*
G01*
X94653228Y-81644542D01*
X94592137Y-81645333D01*
X94546183Y-81646670D01*
X94512886Y-81648683D01*
X94489764Y-81651506D01*
X94474338Y-81655269D01*
X94464129Y-81660105D01*
X94459187Y-81663822D01*
X94433543Y-81696358D01*
X94430441Y-81730138D01*
X94446289Y-81760826D01*
X94456652Y-81773089D01*
X94467804Y-81781450D01*
X94483965Y-81786657D01*
X94509358Y-81789457D01*
X94548202Y-81790596D01*
X94604720Y-81790821D01*
X94615820Y-81790822D01*
X94761756Y-81790822D01*
X94761756Y-82061756D01*
X94761852Y-82147154D01*
X94762289Y-82212864D01*
X94763288Y-82261774D01*
X94765072Y-82296773D01*
X94767863Y-82320749D01*
X94771883Y-82336593D01*
X94777355Y-82347191D01*
X94784334Y-82355267D01*
X94817266Y-82375112D01*
X94851646Y-82373548D01*
X94882824Y-82350906D01*
X94885114Y-82348100D01*
X94892571Y-82337492D01*
X94898253Y-82325081D01*
X94902399Y-82307850D01*
X94905250Y-82282784D01*
X94907046Y-82246867D01*
X94908028Y-82197083D01*
X94908436Y-82130417D01*
X94908511Y-82054589D01*
X94908511Y-81790822D01*
X95047873Y-81790822D01*
X95107678Y-81790418D01*
X95149082Y-81788840D01*
X95176252Y-81785547D01*
X95193354Y-81779992D01*
X95204557Y-81771631D01*
X95205917Y-81770178D01*
X95222275Y-81736939D01*
X95220828Y-81699362D01*
X95202022Y-81666645D01*
X95194750Y-81660298D01*
X95185373Y-81655266D01*
X95171391Y-81651396D01*
X95150304Y-81648537D01*
X95119611Y-81646535D01*
X95076811Y-81645239D01*
X95019405Y-81644498D01*
X94944890Y-81644158D01*
X94850767Y-81644068D01*
X94830740Y-81644067D01*
X94731935Y-81644163D01*
G37*
X94731935Y-81644163D02*
X94653228Y-81644542D01*
X94592137Y-81645333D01*
X94546183Y-81646670D01*
X94512886Y-81648683D01*
X94489764Y-81651506D01*
X94474338Y-81655269D01*
X94464129Y-81660105D01*
X94459187Y-81663822D01*
X94433543Y-81696358D01*
X94430441Y-81730138D01*
X94446289Y-81760826D01*
X94456652Y-81773089D01*
X94467804Y-81781450D01*
X94483965Y-81786657D01*
X94509358Y-81789457D01*
X94548202Y-81790596D01*
X94604720Y-81790821D01*
X94615820Y-81790822D01*
X94761756Y-81790822D01*
X94761756Y-82061756D01*
X94761852Y-82147154D01*
X94762289Y-82212864D01*
X94763288Y-82261774D01*
X94765072Y-82296773D01*
X94767863Y-82320749D01*
X94771883Y-82336593D01*
X94777355Y-82347191D01*
X94784334Y-82355267D01*
X94817266Y-82375112D01*
X94851646Y-82373548D01*
X94882824Y-82350906D01*
X94885114Y-82348100D01*
X94892571Y-82337492D01*
X94898253Y-82325081D01*
X94902399Y-82307850D01*
X94905250Y-82282784D01*
X94907046Y-82246867D01*
X94908028Y-82197083D01*
X94908436Y-82130417D01*
X94908511Y-82054589D01*
X94908511Y-81790822D01*
X95047873Y-81790822D01*
X95107678Y-81790418D01*
X95149082Y-81788840D01*
X95176252Y-81785547D01*
X95193354Y-81779992D01*
X95204557Y-81771631D01*
X95205917Y-81770178D01*
X95222275Y-81736939D01*
X95220828Y-81699362D01*
X95202022Y-81666645D01*
X95194750Y-81660298D01*
X95185373Y-81655266D01*
X95171391Y-81651396D01*
X95150304Y-81648537D01*
X95119611Y-81646535D01*
X95076811Y-81645239D01*
X95019405Y-81644498D01*
X94944890Y-81644158D01*
X94850767Y-81644068D01*
X94830740Y-81644067D01*
X94731935Y-81644163D01*
G36*
X95506386Y-81650877D02*
G01*
X95482673Y-81665647D01*
X95456022Y-81687227D01*
X95456022Y-82008773D01*
X95456107Y-82102830D01*
X95456471Y-82176932D01*
X95457276Y-82233704D01*
X95458687Y-82275768D01*
X95460867Y-82305748D01*
X95463979Y-82326267D01*
X95468186Y-82339949D01*
X95473652Y-82349416D01*
X95477528Y-82354082D01*
X95508966Y-82374575D01*
X95544767Y-82373739D01*
X95576127Y-82356264D01*
X95602778Y-82334684D01*
X95602778Y-81687227D01*
X95576127Y-81665647D01*
X95550406Y-81649949D01*
X95529400Y-81644067D01*
X95506386Y-81650877D01*
G37*
X95506386Y-81650877D02*
X95482673Y-81665647D01*
X95456022Y-81687227D01*
X95456022Y-82008773D01*
X95456107Y-82102830D01*
X95456471Y-82176932D01*
X95457276Y-82233704D01*
X95458687Y-82275768D01*
X95460867Y-82305748D01*
X95463979Y-82326267D01*
X95468186Y-82339949D01*
X95473652Y-82349416D01*
X95477528Y-82354082D01*
X95508966Y-82374575D01*
X95544767Y-82373739D01*
X95576127Y-82356264D01*
X95602778Y-82334684D01*
X95602778Y-81687227D01*
X95576127Y-81665647D01*
X95550406Y-81649949D01*
X95529400Y-81644067D01*
X95506386Y-81650877D01*
G36*
X95950335Y-81646034D02*
G01*
X95930745Y-81653035D01*
X95929990Y-81653377D01*
X95903387Y-81673678D01*
X95888730Y-81694561D01*
X95885862Y-81704352D01*
X95886004Y-81717361D01*
X95890039Y-81735895D01*
X95898854Y-81762257D01*
X95913331Y-81798752D01*
X95934355Y-81847687D01*
X95962812Y-81911365D01*
X95999585Y-81992093D01*
X96019825Y-82036216D01*
X96056375Y-82114985D01*
X96090685Y-82187423D01*
X96121448Y-82250880D01*
X96147352Y-82302708D01*
X96167090Y-82340259D01*
X96179350Y-82360884D01*
X96181776Y-82363733D01*
X96212817Y-82376302D01*
X96247879Y-82374619D01*
X96276000Y-82359332D01*
X96277146Y-82358089D01*
X96288332Y-82341154D01*
X96307096Y-82308170D01*
X96331125Y-82263380D01*
X96358103Y-82211032D01*
X96367799Y-82191742D01*
X96440986Y-82045150D01*
X96520760Y-82204393D01*
X96549233Y-82259415D01*
X96575650Y-82307132D01*
X96597852Y-82343893D01*
X96613681Y-82366044D01*
X96619046Y-82370741D01*
X96660743Y-82377102D01*
X96695151Y-82363733D01*
X96705272Y-82349446D01*
X96722786Y-82317692D01*
X96746265Y-82271597D01*
X96774280Y-82214285D01*
X96805401Y-82148880D01*
X96838201Y-82078507D01*
X96871250Y-82006291D01*
X96903119Y-81935355D01*
X96932381Y-81868825D01*
X96957605Y-81809826D01*
X96977364Y-81761481D01*
X96990228Y-81726915D01*
X96994769Y-81709253D01*
X96994723Y-81708613D01*
X96983674Y-81686388D01*
X96961590Y-81663753D01*
X96960290Y-81662768D01*
X96933147Y-81647425D01*
X96908042Y-81647574D01*
X96898632Y-81650466D01*
X96887166Y-81656718D01*
X96874990Y-81669014D01*
X96860643Y-81689908D01*
X96842664Y-81721949D01*
X96819593Y-81767688D01*
X96789970Y-81829677D01*
X96763255Y-81886898D01*
X96732520Y-81953226D01*
X96704979Y-82012874D01*
X96682062Y-82062725D01*
X96665202Y-82099664D01*
X96655827Y-82120573D01*
X96654460Y-82123845D01*
X96648311Y-82118497D01*
X96634178Y-82096109D01*
X96613943Y-82059946D01*
X96589485Y-82013277D01*
X96579752Y-81994022D01*
X96546783Y-81929004D01*
X96521357Y-81881654D01*
X96501388Y-81849219D01*
X96484790Y-81828946D01*
X96469476Y-81818082D01*
X96453360Y-81813875D01*
X96442857Y-81813400D01*
X96424330Y-81815042D01*
X96408096Y-81821831D01*
X96391965Y-81836566D01*
X96373749Y-81862044D01*
X96351261Y-81901061D01*
X96322311Y-81956414D01*
X96306338Y-81987903D01*
X96280430Y-82038087D01*
X96257833Y-82079704D01*
X96240542Y-82109242D01*
X96230550Y-82123189D01*
X96229191Y-82123770D01*
X96222739Y-82112793D01*
X96208292Y-82084290D01*
X96187297Y-82041244D01*
X96161203Y-81986638D01*
X96131454Y-81923454D01*
X96116820Y-81892071D01*
X96078750Y-81811078D01*
X96048095Y-81748756D01*
X96023263Y-81703071D01*
X96002663Y-81671989D01*
X95984702Y-81653478D01*
X95967790Y-81645504D01*
X95950335Y-81646034D01*
G37*
X95950335Y-81646034D02*
X95930745Y-81653035D01*
X95929990Y-81653377D01*
X95903387Y-81673678D01*
X95888730Y-81694561D01*
X95885862Y-81704352D01*
X95886004Y-81717361D01*
X95890039Y-81735895D01*
X95898854Y-81762257D01*
X95913331Y-81798752D01*
X95934355Y-81847687D01*
X95962812Y-81911365D01*
X95999585Y-81992093D01*
X96019825Y-82036216D01*
X96056375Y-82114985D01*
X96090685Y-82187423D01*
X96121448Y-82250880D01*
X96147352Y-82302708D01*
X96167090Y-82340259D01*
X96179350Y-82360884D01*
X96181776Y-82363733D01*
X96212817Y-82376302D01*
X96247879Y-82374619D01*
X96276000Y-82359332D01*
X96277146Y-82358089D01*
X96288332Y-82341154D01*
X96307096Y-82308170D01*
X96331125Y-82263380D01*
X96358103Y-82211032D01*
X96367799Y-82191742D01*
X96440986Y-82045150D01*
X96520760Y-82204393D01*
X96549233Y-82259415D01*
X96575650Y-82307132D01*
X96597852Y-82343893D01*
X96613681Y-82366044D01*
X96619046Y-82370741D01*
X96660743Y-82377102D01*
X96695151Y-82363733D01*
X96705272Y-82349446D01*
X96722786Y-82317692D01*
X96746265Y-82271597D01*
X96774280Y-82214285D01*
X96805401Y-82148880D01*
X96838201Y-82078507D01*
X96871250Y-82006291D01*
X96903119Y-81935355D01*
X96932381Y-81868825D01*
X96957605Y-81809826D01*
X96977364Y-81761481D01*
X96990228Y-81726915D01*
X96994769Y-81709253D01*
X96994723Y-81708613D01*
X96983674Y-81686388D01*
X96961590Y-81663753D01*
X96960290Y-81662768D01*
X96933147Y-81647425D01*
X96908042Y-81647574D01*
X96898632Y-81650466D01*
X96887166Y-81656718D01*
X96874990Y-81669014D01*
X96860643Y-81689908D01*
X96842664Y-81721949D01*
X96819593Y-81767688D01*
X96789970Y-81829677D01*
X96763255Y-81886898D01*
X96732520Y-81953226D01*
X96704979Y-82012874D01*
X96682062Y-82062725D01*
X96665202Y-82099664D01*
X96655827Y-82120573D01*
X96654460Y-82123845D01*
X96648311Y-82118497D01*
X96634178Y-82096109D01*
X96613943Y-82059946D01*
X96589485Y-82013277D01*
X96579752Y-81994022D01*
X96546783Y-81929004D01*
X96521357Y-81881654D01*
X96501388Y-81849219D01*
X96484790Y-81828946D01*
X96469476Y-81818082D01*
X96453360Y-81813875D01*
X96442857Y-81813400D01*
X96424330Y-81815042D01*
X96408096Y-81821831D01*
X96391965Y-81836566D01*
X96373749Y-81862044D01*
X96351261Y-81901061D01*
X96322311Y-81956414D01*
X96306338Y-81987903D01*
X96280430Y-82038087D01*
X96257833Y-82079704D01*
X96240542Y-82109242D01*
X96230550Y-82123189D01*
X96229191Y-82123770D01*
X96222739Y-82112793D01*
X96208292Y-82084290D01*
X96187297Y-82041244D01*
X96161203Y-81986638D01*
X96131454Y-81923454D01*
X96116820Y-81892071D01*
X96078750Y-81811078D01*
X96048095Y-81748756D01*
X96023263Y-81703071D01*
X96002663Y-81671989D01*
X95984702Y-81653478D01*
X95967790Y-81645504D01*
X95950335Y-81646034D01*
G36*
X98676691Y-81644275D02*
G01*
X98547712Y-81648636D01*
X98438009Y-81661861D01*
X98345774Y-81684741D01*
X98269198Y-81718070D01*
X98206473Y-81762638D01*
X98155788Y-81819236D01*
X98115337Y-81888658D01*
X98114541Y-81890351D01*
X98090399Y-81952483D01*
X98081797Y-82007509D01*
X98088769Y-82062887D01*
X98111346Y-82126073D01*
X98115628Y-82135689D01*
X98144828Y-82191966D01*
X98177644Y-82235451D01*
X98219998Y-82272417D01*
X98277810Y-82309135D01*
X98281169Y-82311052D01*
X98331496Y-82335227D01*
X98388379Y-82353282D01*
X98455473Y-82365839D01*
X98536435Y-82373522D01*
X98634918Y-82376953D01*
X98669714Y-82377251D01*
X98835406Y-82377845D01*
X98858803Y-82348100D01*
X98865743Y-82338319D01*
X98871158Y-82326897D01*
X98875235Y-82311095D01*
X98878163Y-82288175D01*
X98880133Y-82255396D01*
X98880775Y-82231089D01*
X98724156Y-82231089D01*
X98630274Y-82231089D01*
X98575336Y-82229483D01*
X98518940Y-82225255D01*
X98472655Y-82219292D01*
X98469861Y-82218790D01*
X98387652Y-82196736D01*
X98323886Y-82163600D01*
X98276548Y-82117847D01*
X98243618Y-82057939D01*
X98237892Y-82042061D01*
X98232279Y-82017333D01*
X98234709Y-81992902D01*
X98246533Y-81960400D01*
X98253660Y-81944434D01*
X98277000Y-81902006D01*
X98305120Y-81872240D01*
X98336060Y-81851511D01*
X98398034Y-81824537D01*
X98477349Y-81804998D01*
X98569747Y-81793746D01*
X98636667Y-81791270D01*
X98724156Y-81790822D01*
X98724156Y-82231089D01*
X98880775Y-82231089D01*
X98881332Y-82210021D01*
X98881950Y-82149311D01*
X98882175Y-82070526D01*
X98882200Y-82008920D01*
X98882200Y-81699485D01*
X98854491Y-81671776D01*
X98842194Y-81660544D01*
X98828897Y-81652853D01*
X98810328Y-81648040D01*
X98782214Y-81645446D01*
X98740283Y-81644410D01*
X98680263Y-81644270D01*
X98676691Y-81644275D01*
G37*
X98676691Y-81644275D02*
X98547712Y-81648636D01*
X98438009Y-81661861D01*
X98345774Y-81684741D01*
X98269198Y-81718070D01*
X98206473Y-81762638D01*
X98155788Y-81819236D01*
X98115337Y-81888658D01*
X98114541Y-81890351D01*
X98090399Y-81952483D01*
X98081797Y-82007509D01*
X98088769Y-82062887D01*
X98111346Y-82126073D01*
X98115628Y-82135689D01*
X98144828Y-82191966D01*
X98177644Y-82235451D01*
X98219998Y-82272417D01*
X98277810Y-82309135D01*
X98281169Y-82311052D01*
X98331496Y-82335227D01*
X98388379Y-82353282D01*
X98455473Y-82365839D01*
X98536435Y-82373522D01*
X98634918Y-82376953D01*
X98669714Y-82377251D01*
X98835406Y-82377845D01*
X98858803Y-82348100D01*
X98865743Y-82338319D01*
X98871158Y-82326897D01*
X98875235Y-82311095D01*
X98878163Y-82288175D01*
X98880133Y-82255396D01*
X98880775Y-82231089D01*
X98724156Y-82231089D01*
X98630274Y-82231089D01*
X98575336Y-82229483D01*
X98518940Y-82225255D01*
X98472655Y-82219292D01*
X98469861Y-82218790D01*
X98387652Y-82196736D01*
X98323886Y-82163600D01*
X98276548Y-82117847D01*
X98243618Y-82057939D01*
X98237892Y-82042061D01*
X98232279Y-82017333D01*
X98234709Y-81992902D01*
X98246533Y-81960400D01*
X98253660Y-81944434D01*
X98277000Y-81902006D01*
X98305120Y-81872240D01*
X98336060Y-81851511D01*
X98398034Y-81824537D01*
X98477349Y-81804998D01*
X98569747Y-81793746D01*
X98636667Y-81791270D01*
X98724156Y-81790822D01*
X98724156Y-82231089D01*
X98880775Y-82231089D01*
X98881332Y-82210021D01*
X98881950Y-82149311D01*
X98882175Y-82070526D01*
X98882200Y-82008920D01*
X98882200Y-81699485D01*
X98854491Y-81671776D01*
X98842194Y-81660544D01*
X98828897Y-81652853D01*
X98810328Y-81648040D01*
X98782214Y-81645446D01*
X98740283Y-81644410D01*
X98680263Y-81644270D01*
X98676691Y-81644275D01*
G36*
X99464657Y-81644260D02*
G01*
X99388299Y-81645174D01*
X99329783Y-81647311D01*
X99286745Y-81651175D01*
X99256817Y-81657267D01*
X99237632Y-81666090D01*
X99226824Y-81678146D01*
X99222027Y-81693939D01*
X99220873Y-81713970D01*
X99220867Y-81716335D01*
X99221869Y-81738992D01*
X99226604Y-81756503D01*
X99237667Y-81769574D01*
X99257652Y-81778913D01*
X99289154Y-81785227D01*
X99334768Y-81789222D01*
X99397087Y-81791606D01*
X99478707Y-81793086D01*
X99503723Y-81793414D01*
X99745800Y-81796467D01*
X99749186Y-81861378D01*
X99752571Y-81926289D01*
X99584424Y-81926289D01*
X99518734Y-81926531D01*
X99471828Y-81927556D01*
X99439917Y-81929811D01*
X99419209Y-81933742D01*
X99405916Y-81939798D01*
X99396245Y-81948424D01*
X99396183Y-81948493D01*
X99378644Y-81982112D01*
X99379278Y-82018448D01*
X99397686Y-82049423D01*
X99401329Y-82052607D01*
X99414259Y-82060812D01*
X99431976Y-82066521D01*
X99458430Y-82070162D01*
X99497568Y-82072167D01*
X99553338Y-82072964D01*
X99589006Y-82073045D01*
X99751445Y-82073045D01*
X99751445Y-82231089D01*
X99504839Y-82231089D01*
X99423420Y-82231231D01*
X99361590Y-82231814D01*
X99316363Y-82233068D01*
X99284752Y-82235227D01*
X99263769Y-82238523D01*
X99250427Y-82243189D01*
X99241739Y-82249457D01*
X99239550Y-82251733D01*
X99223386Y-82283280D01*
X99222203Y-82319168D01*
X99235464Y-82350285D01*
X99245957Y-82360271D01*
X99256871Y-82365769D01*
X99273783Y-82370022D01*
X99299367Y-82373180D01*
X99336299Y-82375392D01*
X99387254Y-82376806D01*
X99454906Y-82377572D01*
X99541931Y-82377838D01*
X99561606Y-82377845D01*
X99650089Y-82377787D01*
X99718773Y-82377467D01*
X99770436Y-82376667D01*
X99807855Y-82375167D01*
X99833810Y-82372749D01*
X99851078Y-82369194D01*
X99862438Y-82364282D01*
X99870668Y-82357795D01*
X99875183Y-82353138D01*
X99881979Y-82344889D01*
X99887288Y-82334669D01*
X99891294Y-82319800D01*
X99894179Y-82297602D01*
X99896126Y-82265393D01*
X99897319Y-82220496D01*
X99897939Y-82160228D01*
X99898171Y-82081911D01*
X99898200Y-82015994D01*
X99898129Y-81923628D01*
X99897792Y-81851117D01*
X99897002Y-81795737D01*
X99895574Y-81754765D01*
X99893321Y-81725478D01*
X99890057Y-81705153D01*
X99885596Y-81691066D01*
X99879752Y-81680495D01*
X99874803Y-81673811D01*
X99851406Y-81644067D01*
X99561226Y-81644067D01*
X99464657Y-81644260D01*
G37*
X99464657Y-81644260D02*
X99388299Y-81645174D01*
X99329783Y-81647311D01*
X99286745Y-81651175D01*
X99256817Y-81657267D01*
X99237632Y-81666090D01*
X99226824Y-81678146D01*
X99222027Y-81693939D01*
X99220873Y-81713970D01*
X99220867Y-81716335D01*
X99221869Y-81738992D01*
X99226604Y-81756503D01*
X99237667Y-81769574D01*
X99257652Y-81778913D01*
X99289154Y-81785227D01*
X99334768Y-81789222D01*
X99397087Y-81791606D01*
X99478707Y-81793086D01*
X99503723Y-81793414D01*
X99745800Y-81796467D01*
X99749186Y-81861378D01*
X99752571Y-81926289D01*
X99584424Y-81926289D01*
X99518734Y-81926531D01*
X99471828Y-81927556D01*
X99439917Y-81929811D01*
X99419209Y-81933742D01*
X99405916Y-81939798D01*
X99396245Y-81948424D01*
X99396183Y-81948493D01*
X99378644Y-81982112D01*
X99379278Y-82018448D01*
X99397686Y-82049423D01*
X99401329Y-82052607D01*
X99414259Y-82060812D01*
X99431976Y-82066521D01*
X99458430Y-82070162D01*
X99497568Y-82072167D01*
X99553338Y-82072964D01*
X99589006Y-82073045D01*
X99751445Y-82073045D01*
X99751445Y-82231089D01*
X99504839Y-82231089D01*
X99423420Y-82231231D01*
X99361590Y-82231814D01*
X99316363Y-82233068D01*
X99284752Y-82235227D01*
X99263769Y-82238523D01*
X99250427Y-82243189D01*
X99241739Y-82249457D01*
X99239550Y-82251733D01*
X99223386Y-82283280D01*
X99222203Y-82319168D01*
X99235464Y-82350285D01*
X99245957Y-82360271D01*
X99256871Y-82365769D01*
X99273783Y-82370022D01*
X99299367Y-82373180D01*
X99336299Y-82375392D01*
X99387254Y-82376806D01*
X99454906Y-82377572D01*
X99541931Y-82377838D01*
X99561606Y-82377845D01*
X99650089Y-82377787D01*
X99718773Y-82377467D01*
X99770436Y-82376667D01*
X99807855Y-82375167D01*
X99833810Y-82372749D01*
X99851078Y-82369194D01*
X99862438Y-82364282D01*
X99870668Y-82357795D01*
X99875183Y-82353138D01*
X99881979Y-82344889D01*
X99887288Y-82334669D01*
X99891294Y-82319800D01*
X99894179Y-82297602D01*
X99896126Y-82265393D01*
X99897319Y-82220496D01*
X99897939Y-82160228D01*
X99898171Y-82081911D01*
X99898200Y-82015994D01*
X99898129Y-81923628D01*
X99897792Y-81851117D01*
X99897002Y-81795737D01*
X99895574Y-81754765D01*
X99893321Y-81725478D01*
X99890057Y-81705153D01*
X99885596Y-81691066D01*
X99879752Y-81680495D01*
X99874803Y-81673811D01*
X99851406Y-81644067D01*
X99561226Y-81644067D01*
X99464657Y-81644260D01*
G36*
X100995114Y-81648448D02*
G01*
X100971548Y-81662273D01*
X100940735Y-81684881D01*
X100901078Y-81717338D01*
X100850980Y-81760708D01*
X100788843Y-81816058D01*
X100713072Y-81884451D01*
X100626334Y-81963084D01*
X100445711Y-82126878D01*
X100440067Y-81907029D01*
X100438029Y-81831351D01*
X100436063Y-81774994D01*
X100433734Y-81734706D01*
X100430606Y-81707235D01*
X100426245Y-81689329D01*
X100420216Y-81677737D01*
X100412084Y-81669208D01*
X100407772Y-81665623D01*
X100373241Y-81646670D01*
X100340383Y-81649441D01*
X100314318Y-81665633D01*
X100287667Y-81687199D01*
X100284352Y-82002151D01*
X100283435Y-82094779D01*
X100282968Y-82167544D01*
X100283113Y-82223161D01*
X100284032Y-82264342D01*
X100285887Y-82293803D01*
X100288839Y-82314255D01*
X100293050Y-82328413D01*
X100298682Y-82338991D01*
X100304927Y-82347474D01*
X100318439Y-82363207D01*
X100331883Y-82373636D01*
X100347124Y-82377639D01*
X100366026Y-82374094D01*
X100390455Y-82361879D01*
X100422273Y-82339871D01*
X100463348Y-82306949D01*
X100515542Y-82261991D01*
X100580722Y-82203875D01*
X100654556Y-82137099D01*
X100919845Y-81896458D01*
X100925489Y-82115589D01*
X100927531Y-82191128D01*
X100929502Y-82247354D01*
X100931839Y-82287524D01*
X100934981Y-82314896D01*
X100939364Y-82332728D01*
X100945424Y-82344279D01*
X100953600Y-82352807D01*
X100957784Y-82356282D01*
X100994765Y-82375372D01*
X101029708Y-82372493D01*
X101060136Y-82348100D01*
X101067097Y-82338286D01*
X101072523Y-82326826D01*
X101076603Y-82310968D01*
X101079529Y-82287963D01*
X101081492Y-82255062D01*
X101082683Y-82209516D01*
X101083292Y-82148573D01*
X101083511Y-82069486D01*
X101083534Y-82010956D01*
X101083460Y-81919407D01*
X101083113Y-81847687D01*
X101082301Y-81793045D01*
X101080833Y-81752732D01*
X101078519Y-81723998D01*
X101075167Y-81704093D01*
X101070588Y-81690268D01*
X101064589Y-81679772D01*
X101060136Y-81673811D01*
X101048850Y-81659691D01*
X101038301Y-81649029D01*
X101026893Y-81642892D01*
X101013030Y-81642343D01*
X100995114Y-81648448D01*
G37*
X100995114Y-81648448D02*
X100971548Y-81662273D01*
X100940735Y-81684881D01*
X100901078Y-81717338D01*
X100850980Y-81760708D01*
X100788843Y-81816058D01*
X100713072Y-81884451D01*
X100626334Y-81963084D01*
X100445711Y-82126878D01*
X100440067Y-81907029D01*
X100438029Y-81831351D01*
X100436063Y-81774994D01*
X100433734Y-81734706D01*
X100430606Y-81707235D01*
X100426245Y-81689329D01*
X100420216Y-81677737D01*
X100412084Y-81669208D01*
X100407772Y-81665623D01*
X100373241Y-81646670D01*
X100340383Y-81649441D01*
X100314318Y-81665633D01*
X100287667Y-81687199D01*
X100284352Y-82002151D01*
X100283435Y-82094779D01*
X100282968Y-82167544D01*
X100283113Y-82223161D01*
X100284032Y-82264342D01*
X100285887Y-82293803D01*
X100288839Y-82314255D01*
X100293050Y-82328413D01*
X100298682Y-82338991D01*
X100304927Y-82347474D01*
X100318439Y-82363207D01*
X100331883Y-82373636D01*
X100347124Y-82377639D01*
X100366026Y-82374094D01*
X100390455Y-82361879D01*
X100422273Y-82339871D01*
X100463348Y-82306949D01*
X100515542Y-82261991D01*
X100580722Y-82203875D01*
X100654556Y-82137099D01*
X100919845Y-81896458D01*
X100925489Y-82115589D01*
X100927531Y-82191128D01*
X100929502Y-82247354D01*
X100931839Y-82287524D01*
X100934981Y-82314896D01*
X100939364Y-82332728D01*
X100945424Y-82344279D01*
X100953600Y-82352807D01*
X100957784Y-82356282D01*
X100994765Y-82375372D01*
X101029708Y-82372493D01*
X101060136Y-82348100D01*
X101067097Y-82338286D01*
X101072523Y-82326826D01*
X101076603Y-82310968D01*
X101079529Y-82287963D01*
X101081492Y-82255062D01*
X101082683Y-82209516D01*
X101083292Y-82148573D01*
X101083511Y-82069486D01*
X101083534Y-82010956D01*
X101083460Y-81919407D01*
X101083113Y-81847687D01*
X101082301Y-81793045D01*
X101080833Y-81752732D01*
X101078519Y-81723998D01*
X101075167Y-81704093D01*
X101070588Y-81690268D01*
X101064589Y-81679772D01*
X101060136Y-81673811D01*
X101048850Y-81659691D01*
X101038301Y-81649029D01*
X101026893Y-81642892D01*
X101013030Y-81642343D01*
X100995114Y-81648448D01*
G36*
X101645081Y-81649599D02*
G01*
X101576565Y-81661095D01*
X101523943Y-81678967D01*
X101489708Y-81702499D01*
X101480379Y-81715924D01*
X101470893Y-81747148D01*
X101477277Y-81775395D01*
X101497430Y-81802182D01*
X101528745Y-81814713D01*
X101574183Y-81813696D01*
X101609326Y-81806906D01*
X101687419Y-81793971D01*
X101767226Y-81792742D01*
X101856555Y-81803241D01*
X101881229Y-81807690D01*
X101964291Y-81831108D01*
X102029273Y-81865945D01*
X102075461Y-81911604D01*
X102102145Y-81967494D01*
X102107663Y-81996388D01*
X102104051Y-82055012D01*
X102080729Y-82106879D01*
X102039824Y-82150978D01*
X101983459Y-82186299D01*
X101913760Y-82211829D01*
X101832852Y-82226559D01*
X101742860Y-82229478D01*
X101645910Y-82219575D01*
X101640436Y-82218641D01*
X101601875Y-82211459D01*
X101580494Y-82204521D01*
X101571227Y-82194227D01*
X101569006Y-82176976D01*
X101568956Y-82167841D01*
X101568956Y-82129489D01*
X101637431Y-82129489D01*
X101697900Y-82125347D01*
X101739165Y-82112147D01*
X101763175Y-82088730D01*
X101771877Y-82053936D01*
X101771983Y-82049394D01*
X101766892Y-82019654D01*
X101749433Y-81998419D01*
X101716939Y-81984366D01*
X101666743Y-81976173D01*
X101618123Y-81973161D01*
X101547456Y-81971433D01*
X101496198Y-81974070D01*
X101461239Y-81983800D01*
X101439470Y-82003353D01*
X101427780Y-82035456D01*
X101423060Y-82082838D01*
X101422200Y-82145071D01*
X101423609Y-82214535D01*
X101427848Y-82261786D01*
X101434936Y-82287012D01*
X101436311Y-82288988D01*
X101475228Y-82320508D01*
X101532286Y-82345470D01*
X101603869Y-82363340D01*
X101686358Y-82373586D01*
X101776139Y-82375673D01*
X101869592Y-82369068D01*
X101924556Y-82360956D01*
X102010766Y-82336554D01*
X102090892Y-82296662D01*
X102157977Y-82244887D01*
X102168173Y-82234539D01*
X102201302Y-82191035D01*
X102231194Y-82137118D01*
X102254357Y-82080592D01*
X102267298Y-82029259D01*
X102268858Y-82009544D01*
X102262218Y-81968419D01*
X102244568Y-81917252D01*
X102219297Y-81863394D01*
X102189789Y-81814195D01*
X102163719Y-81781334D01*
X102102765Y-81732452D01*
X102023969Y-81693545D01*
X101930157Y-81665494D01*
X101824150Y-81649179D01*
X101727000Y-81645192D01*
X101645081Y-81649599D01*
G37*
X101645081Y-81649599D02*
X101576565Y-81661095D01*
X101523943Y-81678967D01*
X101489708Y-81702499D01*
X101480379Y-81715924D01*
X101470893Y-81747148D01*
X101477277Y-81775395D01*
X101497430Y-81802182D01*
X101528745Y-81814713D01*
X101574183Y-81813696D01*
X101609326Y-81806906D01*
X101687419Y-81793971D01*
X101767226Y-81792742D01*
X101856555Y-81803241D01*
X101881229Y-81807690D01*
X101964291Y-81831108D01*
X102029273Y-81865945D01*
X102075461Y-81911604D01*
X102102145Y-81967494D01*
X102107663Y-81996388D01*
X102104051Y-82055012D01*
X102080729Y-82106879D01*
X102039824Y-82150978D01*
X101983459Y-82186299D01*
X101913760Y-82211829D01*
X101832852Y-82226559D01*
X101742860Y-82229478D01*
X101645910Y-82219575D01*
X101640436Y-82218641D01*
X101601875Y-82211459D01*
X101580494Y-82204521D01*
X101571227Y-82194227D01*
X101569006Y-82176976D01*
X101568956Y-82167841D01*
X101568956Y-82129489D01*
X101637431Y-82129489D01*
X101697900Y-82125347D01*
X101739165Y-82112147D01*
X101763175Y-82088730D01*
X101771877Y-82053936D01*
X101771983Y-82049394D01*
X101766892Y-82019654D01*
X101749433Y-81998419D01*
X101716939Y-81984366D01*
X101666743Y-81976173D01*
X101618123Y-81973161D01*
X101547456Y-81971433D01*
X101496198Y-81974070D01*
X101461239Y-81983800D01*
X101439470Y-82003353D01*
X101427780Y-82035456D01*
X101423060Y-82082838D01*
X101422200Y-82145071D01*
X101423609Y-82214535D01*
X101427848Y-82261786D01*
X101434936Y-82287012D01*
X101436311Y-82288988D01*
X101475228Y-82320508D01*
X101532286Y-82345470D01*
X101603869Y-82363340D01*
X101686358Y-82373586D01*
X101776139Y-82375673D01*
X101869592Y-82369068D01*
X101924556Y-82360956D01*
X102010766Y-82336554D01*
X102090892Y-82296662D01*
X102157977Y-82244887D01*
X102168173Y-82234539D01*
X102201302Y-82191035D01*
X102231194Y-82137118D01*
X102254357Y-82080592D01*
X102267298Y-82029259D01*
X102268858Y-82009544D01*
X102262218Y-81968419D01*
X102244568Y-81917252D01*
X102219297Y-81863394D01*
X102189789Y-81814195D01*
X102163719Y-81781334D01*
X102102765Y-81732452D01*
X102023969Y-81693545D01*
X101930157Y-81665494D01*
X101824150Y-81649179D01*
X101727000Y-81645192D01*
X101645081Y-81649599D01*
G36*
X102618822Y-81666645D02*
G01*
X102612242Y-81674218D01*
X102607079Y-81683987D01*
X102603164Y-81698571D01*
X102600324Y-81720585D01*
X102598387Y-81752648D01*
X102597183Y-81797375D01*
X102596539Y-81857385D01*
X102596284Y-81935294D01*
X102596245Y-82010956D01*
X102596314Y-82104802D01*
X102596638Y-82178689D01*
X102597386Y-82235232D01*
X102598732Y-82277049D01*
X102600846Y-82306757D01*
X102603900Y-82326973D01*
X102608066Y-82340314D01*
X102613516Y-82349398D01*
X102618822Y-82355267D01*
X102651826Y-82374947D01*
X102686991Y-82373181D01*
X102718455Y-82351717D01*
X102725684Y-82343337D01*
X102731334Y-82333614D01*
X102735599Y-82319861D01*
X102738673Y-82299389D01*
X102740752Y-82269512D01*
X102742030Y-82227541D01*
X102742701Y-82170789D01*
X102742959Y-82096567D01*
X102743000Y-82012537D01*
X102743000Y-81699485D01*
X102715291Y-81671776D01*
X102681137Y-81648463D01*
X102648006Y-81647623D01*
X102618822Y-81666645D01*
G37*
X102618822Y-81666645D02*
X102612242Y-81674218D01*
X102607079Y-81683987D01*
X102603164Y-81698571D01*
X102600324Y-81720585D01*
X102598387Y-81752648D01*
X102597183Y-81797375D01*
X102596539Y-81857385D01*
X102596284Y-81935294D01*
X102596245Y-82010956D01*
X102596314Y-82104802D01*
X102596638Y-82178689D01*
X102597386Y-82235232D01*
X102598732Y-82277049D01*
X102600846Y-82306757D01*
X102603900Y-82326973D01*
X102608066Y-82340314D01*
X102613516Y-82349398D01*
X102618822Y-82355267D01*
X102651826Y-82374947D01*
X102686991Y-82373181D01*
X102718455Y-82351717D01*
X102725684Y-82343337D01*
X102731334Y-82333614D01*
X102735599Y-82319861D01*
X102738673Y-82299389D01*
X102740752Y-82269512D01*
X102742030Y-82227541D01*
X102742701Y-82170789D01*
X102742959Y-82096567D01*
X102743000Y-82012537D01*
X102743000Y-81699485D01*
X102715291Y-81671776D01*
X102681137Y-81648463D01*
X102648006Y-81647623D01*
X102618822Y-81666645D01*
G36*
X103386703Y-81645351D02*
G01*
X103311888Y-81650581D01*
X103242306Y-81658750D01*
X103182002Y-81669550D01*
X103135020Y-81682673D01*
X103105406Y-81697813D01*
X103100860Y-81702269D01*
X103085054Y-81736850D01*
X103089847Y-81772351D01*
X103114364Y-81802725D01*
X103115534Y-81803596D01*
X103129954Y-81812954D01*
X103145008Y-81817876D01*
X103166005Y-81818473D01*
X103198257Y-81814861D01*
X103247073Y-81807154D01*
X103251000Y-81806505D01*
X103323739Y-81797569D01*
X103402217Y-81793161D01*
X103480927Y-81793119D01*
X103554361Y-81797279D01*
X103617011Y-81805479D01*
X103663370Y-81817557D01*
X103666416Y-81818771D01*
X103700048Y-81837615D01*
X103711864Y-81856685D01*
X103702614Y-81875439D01*
X103673047Y-81893337D01*
X103623911Y-81909837D01*
X103555957Y-81924396D01*
X103510645Y-81931406D01*
X103416456Y-81944889D01*
X103341544Y-81957214D01*
X103282717Y-81969449D01*
X103236785Y-81982661D01*
X103200555Y-81997917D01*
X103170838Y-82016285D01*
X103144442Y-82038831D01*
X103123230Y-82060971D01*
X103098065Y-82091819D01*
X103085681Y-82118345D01*
X103081808Y-82151026D01*
X103081667Y-82162995D01*
X103084576Y-82202712D01*
X103096202Y-82232259D01*
X103116323Y-82258486D01*
X103157216Y-82298576D01*
X103202817Y-82329149D01*
X103256513Y-82351203D01*
X103321692Y-82365735D01*
X103401744Y-82373741D01*
X103500057Y-82376218D01*
X103516289Y-82376177D01*
X103581849Y-82374818D01*
X103646866Y-82371730D01*
X103704252Y-82367356D01*
X103746922Y-82362140D01*
X103750372Y-82361541D01*
X103792796Y-82351491D01*
X103828780Y-82338796D01*
X103849150Y-82327190D01*
X103868107Y-82296572D01*
X103869427Y-82260918D01*
X103853085Y-82229144D01*
X103849429Y-82225551D01*
X103834315Y-82214876D01*
X103815415Y-82210276D01*
X103786162Y-82211059D01*
X103750651Y-82215127D01*
X103710970Y-82218762D01*
X103655345Y-82221828D01*
X103590406Y-82224053D01*
X103522785Y-82225164D01*
X103505000Y-82225237D01*
X103437128Y-82224964D01*
X103387454Y-82223646D01*
X103351610Y-82220827D01*
X103325224Y-82216050D01*
X103303926Y-82208857D01*
X103291126Y-82202867D01*
X103263000Y-82186233D01*
X103245068Y-82171168D01*
X103242447Y-82166897D01*
X103247976Y-82149263D01*
X103274260Y-82132192D01*
X103319478Y-82116458D01*
X103381808Y-82102838D01*
X103400171Y-82099804D01*
X103496090Y-82084738D01*
X103572641Y-82072146D01*
X103632780Y-82061111D01*
X103679460Y-82050720D01*
X103715637Y-82040056D01*
X103744265Y-82028205D01*
X103768298Y-82014251D01*
X103790692Y-81997281D01*
X103814402Y-81976378D01*
X103822380Y-81969049D01*
X103850353Y-81941699D01*
X103865160Y-81920029D01*
X103870952Y-81895232D01*
X103871889Y-81863983D01*
X103861575Y-81802705D01*
X103830752Y-81750640D01*
X103779595Y-81707958D01*
X103708283Y-81674825D01*
X103657400Y-81659964D01*
X103602100Y-81650366D01*
X103535853Y-81644936D01*
X103462706Y-81643367D01*
X103386703Y-81645351D01*
G37*
X103386703Y-81645351D02*
X103311888Y-81650581D01*
X103242306Y-81658750D01*
X103182002Y-81669550D01*
X103135020Y-81682673D01*
X103105406Y-81697813D01*
X103100860Y-81702269D01*
X103085054Y-81736850D01*
X103089847Y-81772351D01*
X103114364Y-81802725D01*
X103115534Y-81803596D01*
X103129954Y-81812954D01*
X103145008Y-81817876D01*
X103166005Y-81818473D01*
X103198257Y-81814861D01*
X103247073Y-81807154D01*
X103251000Y-81806505D01*
X103323739Y-81797569D01*
X103402217Y-81793161D01*
X103480927Y-81793119D01*
X103554361Y-81797279D01*
X103617011Y-81805479D01*
X103663370Y-81817557D01*
X103666416Y-81818771D01*
X103700048Y-81837615D01*
X103711864Y-81856685D01*
X103702614Y-81875439D01*
X103673047Y-81893337D01*
X103623911Y-81909837D01*
X103555957Y-81924396D01*
X103510645Y-81931406D01*
X103416456Y-81944889D01*
X103341544Y-81957214D01*
X103282717Y-81969449D01*
X103236785Y-81982661D01*
X103200555Y-81997917D01*
X103170838Y-82016285D01*
X103144442Y-82038831D01*
X103123230Y-82060971D01*
X103098065Y-82091819D01*
X103085681Y-82118345D01*
X103081808Y-82151026D01*
X103081667Y-82162995D01*
X103084576Y-82202712D01*
X103096202Y-82232259D01*
X103116323Y-82258486D01*
X103157216Y-82298576D01*
X103202817Y-82329149D01*
X103256513Y-82351203D01*
X103321692Y-82365735D01*
X103401744Y-82373741D01*
X103500057Y-82376218D01*
X103516289Y-82376177D01*
X103581849Y-82374818D01*
X103646866Y-82371730D01*
X103704252Y-82367356D01*
X103746922Y-82362140D01*
X103750372Y-82361541D01*
X103792796Y-82351491D01*
X103828780Y-82338796D01*
X103849150Y-82327190D01*
X103868107Y-82296572D01*
X103869427Y-82260918D01*
X103853085Y-82229144D01*
X103849429Y-82225551D01*
X103834315Y-82214876D01*
X103815415Y-82210276D01*
X103786162Y-82211059D01*
X103750651Y-82215127D01*
X103710970Y-82218762D01*
X103655345Y-82221828D01*
X103590406Y-82224053D01*
X103522785Y-82225164D01*
X103505000Y-82225237D01*
X103437128Y-82224964D01*
X103387454Y-82223646D01*
X103351610Y-82220827D01*
X103325224Y-82216050D01*
X103303926Y-82208857D01*
X103291126Y-82202867D01*
X103263000Y-82186233D01*
X103245068Y-82171168D01*
X103242447Y-82166897D01*
X103247976Y-82149263D01*
X103274260Y-82132192D01*
X103319478Y-82116458D01*
X103381808Y-82102838D01*
X103400171Y-82099804D01*
X103496090Y-82084738D01*
X103572641Y-82072146D01*
X103632780Y-82061111D01*
X103679460Y-82050720D01*
X103715637Y-82040056D01*
X103744265Y-82028205D01*
X103768298Y-82014251D01*
X103790692Y-81997281D01*
X103814402Y-81976378D01*
X103822380Y-81969049D01*
X103850353Y-81941699D01*
X103865160Y-81920029D01*
X103870952Y-81895232D01*
X103871889Y-81863983D01*
X103861575Y-81802705D01*
X103830752Y-81750640D01*
X103779595Y-81707958D01*
X103708283Y-81674825D01*
X103657400Y-81659964D01*
X103602100Y-81650366D01*
X103535853Y-81644936D01*
X103462706Y-81643367D01*
X103386703Y-81645351D01*
G36*
X104407794Y-81644146D02*
G01*
X104338386Y-81644518D01*
X104285997Y-81645385D01*
X104247847Y-81646946D01*
X104221159Y-81649403D01*
X104203153Y-81652957D01*
X104191049Y-81657810D01*
X104182069Y-81664161D01*
X104178818Y-81667084D01*
X104159043Y-81698142D01*
X104155482Y-81733828D01*
X104168491Y-81765510D01*
X104174506Y-81771913D01*
X104184235Y-81778121D01*
X104199901Y-81782910D01*
X104224408Y-81786514D01*
X104260661Y-81789164D01*
X104311565Y-81791095D01*
X104380026Y-81792539D01*
X104442617Y-81793418D01*
X104690334Y-81796467D01*
X104693719Y-81861378D01*
X104697105Y-81926289D01*
X104528958Y-81926289D01*
X104455959Y-81926919D01*
X104402517Y-81929553D01*
X104365628Y-81935309D01*
X104342288Y-81945304D01*
X104329494Y-81960656D01*
X104324242Y-81982482D01*
X104323445Y-82002738D01*
X104325923Y-82027592D01*
X104335277Y-82045906D01*
X104354383Y-82058637D01*
X104386118Y-82066741D01*
X104433359Y-82071176D01*
X104498983Y-82072899D01*
X104534801Y-82073045D01*
X104695978Y-82073045D01*
X104695978Y-82231089D01*
X104447622Y-82231089D01*
X104366213Y-82231202D01*
X104304342Y-82231712D01*
X104258968Y-82232870D01*
X104227054Y-82234930D01*
X104205559Y-82238146D01*
X104191443Y-82242772D01*
X104181668Y-82249059D01*
X104176689Y-82253667D01*
X104159610Y-82280560D01*
X104154111Y-82304467D01*
X104161963Y-82333667D01*
X104176689Y-82355267D01*
X104184546Y-82362066D01*
X104194688Y-82367346D01*
X104209844Y-82371298D01*
X104232741Y-82374113D01*
X104266109Y-82375982D01*
X104312675Y-82377098D01*
X104375167Y-82377651D01*
X104456314Y-82377833D01*
X104498422Y-82377845D01*
X104588598Y-82377765D01*
X104658924Y-82377398D01*
X104712129Y-82376552D01*
X104750940Y-82375036D01*
X104778087Y-82372659D01*
X104796298Y-82369229D01*
X104808300Y-82364554D01*
X104816822Y-82358444D01*
X104820156Y-82355267D01*
X104826755Y-82347670D01*
X104831927Y-82337870D01*
X104835846Y-82323239D01*
X104838684Y-82301152D01*
X104840615Y-82268982D01*
X104841812Y-82224103D01*
X104842448Y-82163889D01*
X104842697Y-82085713D01*
X104842734Y-82012923D01*
X104842700Y-81919707D01*
X104842465Y-81846431D01*
X104841830Y-81790458D01*
X104840594Y-81749151D01*
X104838556Y-81719872D01*
X104835517Y-81699984D01*
X104831277Y-81686850D01*
X104825635Y-81677832D01*
X104818391Y-81670293D01*
X104816606Y-81668612D01*
X104807945Y-81661172D01*
X104797882Y-81655409D01*
X104783625Y-81651112D01*
X104762383Y-81648064D01*
X104731364Y-81646051D01*
X104687777Y-81644860D01*
X104628831Y-81644275D01*
X104551734Y-81644083D01*
X104497001Y-81644067D01*
X104407794Y-81644146D01*
G37*
X104407794Y-81644146D02*
X104338386Y-81644518D01*
X104285997Y-81645385D01*
X104247847Y-81646946D01*
X104221159Y-81649403D01*
X104203153Y-81652957D01*
X104191049Y-81657810D01*
X104182069Y-81664161D01*
X104178818Y-81667084D01*
X104159043Y-81698142D01*
X104155482Y-81733828D01*
X104168491Y-81765510D01*
X104174506Y-81771913D01*
X104184235Y-81778121D01*
X104199901Y-81782910D01*
X104224408Y-81786514D01*
X104260661Y-81789164D01*
X104311565Y-81791095D01*
X104380026Y-81792539D01*
X104442617Y-81793418D01*
X104690334Y-81796467D01*
X104693719Y-81861378D01*
X104697105Y-81926289D01*
X104528958Y-81926289D01*
X104455959Y-81926919D01*
X104402517Y-81929553D01*
X104365628Y-81935309D01*
X104342288Y-81945304D01*
X104329494Y-81960656D01*
X104324242Y-81982482D01*
X104323445Y-82002738D01*
X104325923Y-82027592D01*
X104335277Y-82045906D01*
X104354383Y-82058637D01*
X104386118Y-82066741D01*
X104433359Y-82071176D01*
X104498983Y-82072899D01*
X104534801Y-82073045D01*
X104695978Y-82073045D01*
X104695978Y-82231089D01*
X104447622Y-82231089D01*
X104366213Y-82231202D01*
X104304342Y-82231712D01*
X104258968Y-82232870D01*
X104227054Y-82234930D01*
X104205559Y-82238146D01*
X104191443Y-82242772D01*
X104181668Y-82249059D01*
X104176689Y-82253667D01*
X104159610Y-82280560D01*
X104154111Y-82304467D01*
X104161963Y-82333667D01*
X104176689Y-82355267D01*
X104184546Y-82362066D01*
X104194688Y-82367346D01*
X104209844Y-82371298D01*
X104232741Y-82374113D01*
X104266109Y-82375982D01*
X104312675Y-82377098D01*
X104375167Y-82377651D01*
X104456314Y-82377833D01*
X104498422Y-82377845D01*
X104588598Y-82377765D01*
X104658924Y-82377398D01*
X104712129Y-82376552D01*
X104750940Y-82375036D01*
X104778087Y-82372659D01*
X104796298Y-82369229D01*
X104808300Y-82364554D01*
X104816822Y-82358444D01*
X104820156Y-82355267D01*
X104826755Y-82347670D01*
X104831927Y-82337870D01*
X104835846Y-82323239D01*
X104838684Y-82301152D01*
X104840615Y-82268982D01*
X104841812Y-82224103D01*
X104842448Y-82163889D01*
X104842697Y-82085713D01*
X104842734Y-82012923D01*
X104842700Y-81919707D01*
X104842465Y-81846431D01*
X104841830Y-81790458D01*
X104840594Y-81749151D01*
X104838556Y-81719872D01*
X104835517Y-81699984D01*
X104831277Y-81686850D01*
X104825635Y-81677832D01*
X104818391Y-81670293D01*
X104816606Y-81668612D01*
X104807945Y-81661172D01*
X104797882Y-81655409D01*
X104783625Y-81651112D01*
X104762383Y-81648064D01*
X104731364Y-81646051D01*
X104687777Y-81644860D01*
X104628831Y-81644275D01*
X104551734Y-81644083D01*
X104497001Y-81644067D01*
X104407794Y-81644146D01*
G36*
X105816371Y-81644066D02*
G01*
X105776889Y-81644467D01*
X105661200Y-81647259D01*
X105564311Y-81655550D01*
X105482919Y-81670232D01*
X105413723Y-81692193D01*
X105353420Y-81722322D01*
X105298708Y-81761510D01*
X105279167Y-81778532D01*
X105246750Y-81818363D01*
X105217520Y-81872413D01*
X105194991Y-81932323D01*
X105182679Y-81989739D01*
X105181400Y-82010956D01*
X105189417Y-82069769D01*
X105210899Y-82134013D01*
X105241999Y-82194821D01*
X105278866Y-82243330D01*
X105284854Y-82249182D01*
X105335579Y-82290321D01*
X105391125Y-82322435D01*
X105454696Y-82346365D01*
X105529494Y-82362953D01*
X105618722Y-82373041D01*
X105725582Y-82377469D01*
X105774528Y-82377845D01*
X105836762Y-82377545D01*
X105880528Y-82376292D01*
X105909931Y-82373554D01*
X105929079Y-82368801D01*
X105942077Y-82361501D01*
X105949045Y-82355267D01*
X105955626Y-82347694D01*
X105960788Y-82337924D01*
X105964703Y-82323340D01*
X105967543Y-82301326D01*
X105969480Y-82269264D01*
X105970684Y-82224536D01*
X105971328Y-82164526D01*
X105971583Y-82086617D01*
X105971622Y-82010956D01*
X105971870Y-81910041D01*
X105971817Y-81829427D01*
X105970857Y-81790822D01*
X105824867Y-81790822D01*
X105824867Y-82231089D01*
X105731734Y-82231004D01*
X105675693Y-82229396D01*
X105616999Y-82225256D01*
X105568028Y-82219464D01*
X105566538Y-82219226D01*
X105487392Y-82200090D01*
X105426002Y-82170287D01*
X105379305Y-82127878D01*
X105349635Y-82081961D01*
X105331353Y-82031026D01*
X105332771Y-81983200D01*
X105353988Y-81931933D01*
X105395489Y-81878899D01*
X105452998Y-81839600D01*
X105527750Y-81813331D01*
X105577708Y-81804035D01*
X105634416Y-81797507D01*
X105694519Y-81792782D01*
X105745639Y-81790817D01*
X105748667Y-81790808D01*
X105824867Y-81790822D01*
X105970857Y-81790822D01*
X105970260Y-81766851D01*
X105965998Y-81720055D01*
X105957830Y-81686778D01*
X105944556Y-81664759D01*
X105924974Y-81651739D01*
X105897883Y-81645457D01*
X105862082Y-81643653D01*
X105816371Y-81644066D01*
G37*
X105816371Y-81644066D02*
X105776889Y-81644467D01*
X105661200Y-81647259D01*
X105564311Y-81655550D01*
X105482919Y-81670232D01*
X105413723Y-81692193D01*
X105353420Y-81722322D01*
X105298708Y-81761510D01*
X105279167Y-81778532D01*
X105246750Y-81818363D01*
X105217520Y-81872413D01*
X105194991Y-81932323D01*
X105182679Y-81989739D01*
X105181400Y-82010956D01*
X105189417Y-82069769D01*
X105210899Y-82134013D01*
X105241999Y-82194821D01*
X105278866Y-82243330D01*
X105284854Y-82249182D01*
X105335579Y-82290321D01*
X105391125Y-82322435D01*
X105454696Y-82346365D01*
X105529494Y-82362953D01*
X105618722Y-82373041D01*
X105725582Y-82377469D01*
X105774528Y-82377845D01*
X105836762Y-82377545D01*
X105880528Y-82376292D01*
X105909931Y-82373554D01*
X105929079Y-82368801D01*
X105942077Y-82361501D01*
X105949045Y-82355267D01*
X105955626Y-82347694D01*
X105960788Y-82337924D01*
X105964703Y-82323340D01*
X105967543Y-82301326D01*
X105969480Y-82269264D01*
X105970684Y-82224536D01*
X105971328Y-82164526D01*
X105971583Y-82086617D01*
X105971622Y-82010956D01*
X105971870Y-81910041D01*
X105971817Y-81829427D01*
X105970857Y-81790822D01*
X105824867Y-81790822D01*
X105824867Y-82231089D01*
X105731734Y-82231004D01*
X105675693Y-82229396D01*
X105616999Y-82225256D01*
X105568028Y-82219464D01*
X105566538Y-82219226D01*
X105487392Y-82200090D01*
X105426002Y-82170287D01*
X105379305Y-82127878D01*
X105349635Y-82081961D01*
X105331353Y-82031026D01*
X105332771Y-81983200D01*
X105353988Y-81931933D01*
X105395489Y-81878899D01*
X105452998Y-81839600D01*
X105527750Y-81813331D01*
X105577708Y-81804035D01*
X105634416Y-81797507D01*
X105694519Y-81792782D01*
X105745639Y-81790817D01*
X105748667Y-81790808D01*
X105824867Y-81790822D01*
X105970857Y-81790822D01*
X105970260Y-81766851D01*
X105965998Y-81720055D01*
X105957830Y-81686778D01*
X105944556Y-81664759D01*
X105924974Y-81651739D01*
X105897883Y-81645457D01*
X105862082Y-81643653D01*
X105816371Y-81644066D01*
D12*
X73415000Y-61535000D02*
X72085000Y-61535000D01*
X73415000Y-62865000D02*
X73415000Y-61535000D01*
X73415000Y-64135000D02*
X70755000Y-64135000D01*
X70755000Y-64135000D02*
X70755000Y-87055000D01*
X73415000Y-64135000D02*
X73415000Y-87055000D01*
X73415000Y-87055000D02*
X70755000Y-87055000D01*
D10*
X79819547Y-56586428D02*
X80581452Y-56586428D01*
X80200500Y-56967380D02*
X80200500Y-56205476D01*
X85788547Y-56586428D02*
X86550452Y-56586428D01*
X145768333Y-150794761D02*
X145625476Y-150842380D01*
X145387380Y-150842380D01*
X145292142Y-150794761D01*
X145244523Y-150747142D01*
X145196904Y-150651904D01*
X145196904Y-150556666D01*
X145244523Y-150461428D01*
X145292142Y-150413809D01*
X145387380Y-150366190D01*
X145577857Y-150318571D01*
X145673095Y-150270952D01*
X145720714Y-150223333D01*
X145768333Y-150128095D01*
X145768333Y-150032857D01*
X145720714Y-149937619D01*
X145673095Y-149890000D01*
X145577857Y-149842380D01*
X145339761Y-149842380D01*
X145196904Y-149890000D01*
X144863571Y-149842380D02*
X144625476Y-150842380D01*
X144435000Y-150128095D01*
X144244523Y-150842380D01*
X144006428Y-149842380D01*
X143101666Y-150842380D02*
X143673095Y-150842380D01*
X143387380Y-150842380D02*
X143387380Y-149842380D01*
X143482619Y-149985238D01*
X143577857Y-150080476D01*
X143673095Y-150128095D01*
X157198333Y-150794761D02*
X157055476Y-150842380D01*
X156817380Y-150842380D01*
X156722142Y-150794761D01*
X156674523Y-150747142D01*
X156626904Y-150651904D01*
X156626904Y-150556666D01*
X156674523Y-150461428D01*
X156722142Y-150413809D01*
X156817380Y-150366190D01*
X157007857Y-150318571D01*
X157103095Y-150270952D01*
X157150714Y-150223333D01*
X157198333Y-150128095D01*
X157198333Y-150032857D01*
X157150714Y-149937619D01*
X157103095Y-149890000D01*
X157007857Y-149842380D01*
X156769761Y-149842380D01*
X156626904Y-149890000D01*
X156293571Y-149842380D02*
X156055476Y-150842380D01*
X155865000Y-150128095D01*
X155674523Y-150842380D01*
X155436428Y-149842380D01*
X154626904Y-150175714D02*
X154626904Y-150842380D01*
X154865000Y-149794761D02*
X155103095Y-150509047D01*
X154484047Y-150509047D01*
X72418333Y-59987380D02*
X72418333Y-60701666D01*
X72465952Y-60844523D01*
X72561190Y-60939761D01*
X72704047Y-60987380D01*
X72799285Y-60987380D01*
X71513571Y-60320714D02*
X71513571Y-60987380D01*
X71751666Y-59939761D02*
X71989761Y-60654047D01*
X71370714Y-60654047D01*
M02*
