G04 #@! TF.GenerationSoftware,KiCad,Pcbnew,(5.1.8)-1*
G04 #@! TF.CreationDate,2022-01-25T00:29:58+01:00*
G04 #@! TF.ProjectId,BulkyMIDI-32 Faceplate,42756c6b-794d-4494-9449-2d3332204661,rev?*
G04 #@! TF.SameCoordinates,Original*
G04 #@! TF.FileFunction,Profile,NP*
%FSLAX46Y46*%
G04 Gerber Fmt 4.6, Leading zero omitted, Abs format (unit mm)*
G04 Created by KiCad (PCBNEW (5.1.8)-1) date 2022-01-25 00:29:58*
%MOMM*%
%LPD*%
G01*
G04 APERTURE LIST*
G04 #@! TA.AperFunction,Profile*
%ADD10C,0.150000*%
G04 #@! TD*
G04 APERTURE END LIST*
D10*
X112268000Y-154610000D02*
X168910000Y-154610000D01*
X112268000Y-154610000D02*
X112268000Y-141732000D01*
X76200000Y-154610000D02*
X76200000Y-141732000D01*
X76200000Y-141732000D02*
X112268000Y-141732000D01*
X163830000Y-54610000D02*
X168910000Y-54610000D01*
X121920000Y-56515000D02*
X124460000Y-56515000D01*
X121920000Y-56515000D02*
X121920000Y-54610000D01*
X144780000Y-56515000D02*
X140970000Y-56515000D01*
X163830000Y-56515000D02*
X163830000Y-54610000D01*
X161290000Y-56515000D02*
X163830000Y-56515000D01*
X124460000Y-56515000D02*
X124460000Y-68580000D01*
X140970000Y-56515000D02*
X140970000Y-68580000D01*
X144780000Y-56515000D02*
X144780000Y-68580000D01*
X161290000Y-56515000D02*
X161290000Y-68580000D01*
X140970000Y-68580000D02*
X124460000Y-68580000D01*
X161290000Y-68580000D02*
X144780000Y-68580000D01*
X71450000Y-154610000D02*
X76200000Y-154610000D01*
X170180000Y-55880000D02*
X170180000Y-153340000D01*
X70180000Y-153340000D02*
X70180000Y-55880000D01*
X121920000Y-54610000D02*
X71450000Y-54610000D01*
X71450000Y-54610000D02*
G75*
G03*
X70180000Y-55880000I0J-1270000D01*
G01*
X170180000Y-55880000D02*
G75*
G03*
X168910000Y-54610000I-1270000J0D01*
G01*
X168910000Y-154610000D02*
G75*
G03*
X170180000Y-153340000I0J1270000D01*
G01*
X70180000Y-153340000D02*
G75*
G03*
X71450000Y-154610000I1270000J0D01*
G01*
M02*
