G04 #@! TF.GenerationSoftware,KiCad,Pcbnew,(5.1.8)-1*
G04 #@! TF.CreationDate,2022-02-07T22:32:00+01:00*
G04 #@! TF.ProjectId,BulkyMIDI-32 Faceplate,42756c6b-794d-4494-9449-2d3332204661,rev?*
G04 #@! TF.SameCoordinates,Original*
G04 #@! TF.FileFunction,Copper,L1,Top*
G04 #@! TF.FilePolarity,Positive*
%FSLAX46Y46*%
G04 Gerber Fmt 4.6, Leading zero omitted, Abs format (unit mm)*
G04 Created by KiCad (PCBNEW (5.1.8)-1) date 2022-02-07 22:32:00*
%MOMM*%
%LPD*%
G01*
G04 APERTURE LIST*
G04 #@! TA.AperFunction,ComponentPad*
%ADD10C,2.100000*%
G04 #@! TD*
G04 #@! TA.AperFunction,ComponentPad*
%ADD11C,1.750000*%
G04 #@! TD*
G04 #@! TA.AperFunction,WasherPad*
%ADD12C,3.500000*%
G04 #@! TD*
G04 #@! TA.AperFunction,ComponentPad*
%ADD13R,1.700000X1.700000*%
G04 #@! TD*
G04 #@! TA.AperFunction,ComponentPad*
%ADD14O,1.700000X1.700000*%
G04 #@! TD*
G04 #@! TA.AperFunction,Conductor*
%ADD15C,0.254000*%
G04 #@! TD*
G04 #@! TA.AperFunction,Conductor*
%ADD16C,0.100000*%
G04 #@! TD*
G04 APERTURE END LIST*
D10*
X147935000Y-149580000D03*
D11*
X146685000Y-152070000D03*
X142185000Y-152070000D03*
D10*
X140925000Y-149580000D03*
X159365000Y-149580000D03*
D11*
X158115000Y-152070000D03*
X153615000Y-152070000D03*
D10*
X152355000Y-149580000D03*
D12*
X73355000Y-151435000D03*
X167005000Y-57785000D03*
D13*
X72085000Y-62865000D03*
D14*
X72085000Y-65405000D03*
X72085000Y-67945000D03*
X72085000Y-70485000D03*
X72085000Y-73025000D03*
X72085000Y-75565000D03*
X72085000Y-78105000D03*
X72085000Y-80645000D03*
X72085000Y-83185000D03*
X72085000Y-85725000D03*
D12*
X167005000Y-151435000D03*
X73355000Y-57785000D03*
D15*
X121210000Y-56480122D02*
X121206565Y-56515000D01*
X121220273Y-56654184D01*
X121260872Y-56788020D01*
X121326800Y-56911363D01*
X121415525Y-57019475D01*
X121500633Y-57089321D01*
X121523637Y-57108200D01*
X121646980Y-57174128D01*
X121780816Y-57214727D01*
X121920000Y-57228435D01*
X121954877Y-57225000D01*
X123750000Y-57225000D01*
X123750001Y-68545113D01*
X123746565Y-68580000D01*
X123760273Y-68719184D01*
X123800872Y-68853020D01*
X123866800Y-68976363D01*
X123955525Y-69084475D01*
X124063637Y-69173200D01*
X124186980Y-69239128D01*
X124320816Y-69279727D01*
X124425123Y-69290000D01*
X124460000Y-69293435D01*
X124494877Y-69290000D01*
X140935123Y-69290000D01*
X140970000Y-69293435D01*
X141004877Y-69290000D01*
X141006685Y-69289822D01*
X141109184Y-69279727D01*
X141243020Y-69239128D01*
X141366363Y-69173200D01*
X141474475Y-69084475D01*
X141563200Y-68976363D01*
X141629128Y-68853020D01*
X141669727Y-68719184D01*
X141680000Y-68614877D01*
X141683435Y-68580000D01*
X141680000Y-68545123D01*
X141680000Y-57225000D01*
X144070000Y-57225000D01*
X144070001Y-68545113D01*
X144066565Y-68580000D01*
X144080273Y-68719184D01*
X144120872Y-68853020D01*
X144186800Y-68976363D01*
X144275525Y-69084475D01*
X144383637Y-69173200D01*
X144506980Y-69239128D01*
X144640816Y-69279727D01*
X144745123Y-69290000D01*
X144780000Y-69293435D01*
X144814877Y-69290000D01*
X161255123Y-69290000D01*
X161290000Y-69293435D01*
X161324877Y-69290000D01*
X161326685Y-69289822D01*
X161429184Y-69279727D01*
X161563020Y-69239128D01*
X161686363Y-69173200D01*
X161794475Y-69084475D01*
X161883200Y-68976363D01*
X161949128Y-68853020D01*
X161989727Y-68719184D01*
X162000000Y-68614877D01*
X162003435Y-68580000D01*
X162000000Y-68545123D01*
X162000000Y-57550098D01*
X164620000Y-57550098D01*
X164620000Y-58019902D01*
X164711654Y-58480679D01*
X164891440Y-58914721D01*
X165152450Y-59305349D01*
X165484651Y-59637550D01*
X165875279Y-59898560D01*
X166309321Y-60078346D01*
X166770098Y-60170000D01*
X167239902Y-60170000D01*
X167700679Y-60078346D01*
X168134721Y-59898560D01*
X168525349Y-59637550D01*
X168857550Y-59305349D01*
X169118560Y-58914721D01*
X169298346Y-58480679D01*
X169390000Y-58019902D01*
X169390000Y-57550098D01*
X169298346Y-57089321D01*
X169118560Y-56655279D01*
X168857550Y-56264651D01*
X168525349Y-55932450D01*
X168134721Y-55671440D01*
X167700679Y-55491654D01*
X167239902Y-55400000D01*
X166770098Y-55400000D01*
X166309321Y-55491654D01*
X165875279Y-55671440D01*
X165484651Y-55932450D01*
X165152450Y-56264651D01*
X164891440Y-56655279D01*
X164711654Y-57089321D01*
X164620000Y-57550098D01*
X162000000Y-57550098D01*
X162000000Y-57225000D01*
X163795123Y-57225000D01*
X163830000Y-57228435D01*
X163864877Y-57225000D01*
X163969184Y-57214727D01*
X164103020Y-57174128D01*
X164226363Y-57108200D01*
X164334475Y-57019475D01*
X164423200Y-56911363D01*
X164489128Y-56788020D01*
X164529727Y-56654184D01*
X164543435Y-56515000D01*
X164540000Y-56480123D01*
X164540000Y-55320000D01*
X168875280Y-55320000D01*
X169018109Y-55334005D01*
X169122101Y-55365402D01*
X169218014Y-55416399D01*
X169302194Y-55485055D01*
X169371440Y-55568758D01*
X169423105Y-55664311D01*
X169455227Y-55768078D01*
X169470000Y-55908641D01*
X169470001Y-153305269D01*
X169455995Y-153448109D01*
X169424599Y-153552099D01*
X169373601Y-153648013D01*
X169304941Y-153732199D01*
X169221243Y-153801439D01*
X169125689Y-153853105D01*
X169021922Y-153885227D01*
X168881359Y-153900000D01*
X112978000Y-153900000D01*
X112978000Y-153116240D01*
X141318365Y-153116240D01*
X141399025Y-153367868D01*
X141667329Y-153496267D01*
X141955526Y-153569855D01*
X142252543Y-153585804D01*
X142546963Y-153543501D01*
X142827474Y-153444572D01*
X142970975Y-153367868D01*
X143051635Y-153116240D01*
X142185000Y-152249605D01*
X141318365Y-153116240D01*
X112978000Y-153116240D01*
X112978000Y-149414042D01*
X139240000Y-149414042D01*
X139240000Y-149745958D01*
X139304754Y-150071496D01*
X139431772Y-150378147D01*
X139616175Y-150654125D01*
X139850875Y-150888825D01*
X140126853Y-151073228D01*
X140433504Y-151200246D01*
X140759042Y-151265000D01*
X140946483Y-151265000D01*
X140887132Y-151284025D01*
X140758733Y-151552329D01*
X140685145Y-151840526D01*
X140669196Y-152137543D01*
X140711499Y-152431963D01*
X140810428Y-152712474D01*
X140887132Y-152855975D01*
X141138760Y-152936635D01*
X142005395Y-152070000D01*
X142364605Y-152070000D01*
X143231240Y-152936635D01*
X143482868Y-152855975D01*
X143611267Y-152587671D01*
X143684855Y-152299474D01*
X143700804Y-152002457D01*
X143689140Y-151921278D01*
X145175000Y-151921278D01*
X145175000Y-152218722D01*
X145233029Y-152510451D01*
X145346856Y-152785253D01*
X145512107Y-153032569D01*
X145722431Y-153242893D01*
X145969747Y-153408144D01*
X146244549Y-153521971D01*
X146536278Y-153580000D01*
X146833722Y-153580000D01*
X147125451Y-153521971D01*
X147400253Y-153408144D01*
X147647569Y-153242893D01*
X147774222Y-153116240D01*
X152748365Y-153116240D01*
X152829025Y-153367868D01*
X153097329Y-153496267D01*
X153385526Y-153569855D01*
X153682543Y-153585804D01*
X153976963Y-153543501D01*
X154257474Y-153444572D01*
X154400975Y-153367868D01*
X154481635Y-153116240D01*
X153615000Y-152249605D01*
X152748365Y-153116240D01*
X147774222Y-153116240D01*
X147857893Y-153032569D01*
X148023144Y-152785253D01*
X148136971Y-152510451D01*
X148195000Y-152218722D01*
X148195000Y-151921278D01*
X148136971Y-151629549D01*
X148023144Y-151354747D01*
X147963177Y-151265000D01*
X148100958Y-151265000D01*
X148426496Y-151200246D01*
X148733147Y-151073228D01*
X149009125Y-150888825D01*
X149243825Y-150654125D01*
X149428228Y-150378147D01*
X149555246Y-150071496D01*
X149620000Y-149745958D01*
X149620000Y-149414042D01*
X150670000Y-149414042D01*
X150670000Y-149745958D01*
X150734754Y-150071496D01*
X150861772Y-150378147D01*
X151046175Y-150654125D01*
X151280875Y-150888825D01*
X151556853Y-151073228D01*
X151863504Y-151200246D01*
X152189042Y-151265000D01*
X152376483Y-151265000D01*
X152317132Y-151284025D01*
X152188733Y-151552329D01*
X152115145Y-151840526D01*
X152099196Y-152137543D01*
X152141499Y-152431963D01*
X152240428Y-152712474D01*
X152317132Y-152855975D01*
X152568760Y-152936635D01*
X153435395Y-152070000D01*
X153794605Y-152070000D01*
X154661240Y-152936635D01*
X154912868Y-152855975D01*
X155041267Y-152587671D01*
X155114855Y-152299474D01*
X155130804Y-152002457D01*
X155119140Y-151921278D01*
X156605000Y-151921278D01*
X156605000Y-152218722D01*
X156663029Y-152510451D01*
X156776856Y-152785253D01*
X156942107Y-153032569D01*
X157152431Y-153242893D01*
X157399747Y-153408144D01*
X157674549Y-153521971D01*
X157966278Y-153580000D01*
X158263722Y-153580000D01*
X158555451Y-153521971D01*
X158830253Y-153408144D01*
X159077569Y-153242893D01*
X159287893Y-153032569D01*
X159453144Y-152785253D01*
X159566971Y-152510451D01*
X159625000Y-152218722D01*
X159625000Y-151921278D01*
X159566971Y-151629549D01*
X159453144Y-151354747D01*
X159393177Y-151265000D01*
X159530958Y-151265000D01*
X159856496Y-151200246D01*
X159856853Y-151200098D01*
X164620000Y-151200098D01*
X164620000Y-151669902D01*
X164711654Y-152130679D01*
X164891440Y-152564721D01*
X165152450Y-152955349D01*
X165484651Y-153287550D01*
X165875279Y-153548560D01*
X166309321Y-153728346D01*
X166770098Y-153820000D01*
X167239902Y-153820000D01*
X167700679Y-153728346D01*
X168134721Y-153548560D01*
X168525349Y-153287550D01*
X168857550Y-152955349D01*
X169118560Y-152564721D01*
X169298346Y-152130679D01*
X169390000Y-151669902D01*
X169390000Y-151200098D01*
X169298346Y-150739321D01*
X169118560Y-150305279D01*
X168857550Y-149914651D01*
X168525349Y-149582450D01*
X168134721Y-149321440D01*
X167700679Y-149141654D01*
X167239902Y-149050000D01*
X166770098Y-149050000D01*
X166309321Y-149141654D01*
X165875279Y-149321440D01*
X165484651Y-149582450D01*
X165152450Y-149914651D01*
X164891440Y-150305279D01*
X164711654Y-150739321D01*
X164620000Y-151200098D01*
X159856853Y-151200098D01*
X160163147Y-151073228D01*
X160439125Y-150888825D01*
X160673825Y-150654125D01*
X160858228Y-150378147D01*
X160985246Y-150071496D01*
X161050000Y-149745958D01*
X161050000Y-149414042D01*
X160985246Y-149088504D01*
X160858228Y-148781853D01*
X160673825Y-148505875D01*
X160439125Y-148271175D01*
X160163147Y-148086772D01*
X159856496Y-147959754D01*
X159530958Y-147895000D01*
X159199042Y-147895000D01*
X158873504Y-147959754D01*
X158566853Y-148086772D01*
X158290875Y-148271175D01*
X158056175Y-148505875D01*
X157871772Y-148781853D01*
X157744754Y-149088504D01*
X157680000Y-149414042D01*
X157680000Y-149745958D01*
X157744754Y-150071496D01*
X157871772Y-150378147D01*
X157993283Y-150560000D01*
X157966278Y-150560000D01*
X157674549Y-150618029D01*
X157399747Y-150731856D01*
X157152431Y-150897107D01*
X156942107Y-151107431D01*
X156776856Y-151354747D01*
X156663029Y-151629549D01*
X156605000Y-151921278D01*
X155119140Y-151921278D01*
X155088501Y-151708037D01*
X154989572Y-151427526D01*
X154912868Y-151284025D01*
X154661240Y-151203365D01*
X153794605Y-152070000D01*
X153435395Y-152070000D01*
X153421253Y-152055858D01*
X153600858Y-151876253D01*
X153615000Y-151890395D01*
X154481635Y-151023760D01*
X154400975Y-150772132D01*
X154132671Y-150643733D01*
X153844474Y-150570145D01*
X153724252Y-150563689D01*
X153848228Y-150378147D01*
X153975246Y-150071496D01*
X154040000Y-149745958D01*
X154040000Y-149414042D01*
X153975246Y-149088504D01*
X153848228Y-148781853D01*
X153663825Y-148505875D01*
X153429125Y-148271175D01*
X153153147Y-148086772D01*
X152846496Y-147959754D01*
X152520958Y-147895000D01*
X152189042Y-147895000D01*
X151863504Y-147959754D01*
X151556853Y-148086772D01*
X151280875Y-148271175D01*
X151046175Y-148505875D01*
X150861772Y-148781853D01*
X150734754Y-149088504D01*
X150670000Y-149414042D01*
X149620000Y-149414042D01*
X149555246Y-149088504D01*
X149428228Y-148781853D01*
X149243825Y-148505875D01*
X149009125Y-148271175D01*
X148733147Y-148086772D01*
X148426496Y-147959754D01*
X148100958Y-147895000D01*
X147769042Y-147895000D01*
X147443504Y-147959754D01*
X147136853Y-148086772D01*
X146860875Y-148271175D01*
X146626175Y-148505875D01*
X146441772Y-148781853D01*
X146314754Y-149088504D01*
X146250000Y-149414042D01*
X146250000Y-149745958D01*
X146314754Y-150071496D01*
X146441772Y-150378147D01*
X146563283Y-150560000D01*
X146536278Y-150560000D01*
X146244549Y-150618029D01*
X145969747Y-150731856D01*
X145722431Y-150897107D01*
X145512107Y-151107431D01*
X145346856Y-151354747D01*
X145233029Y-151629549D01*
X145175000Y-151921278D01*
X143689140Y-151921278D01*
X143658501Y-151708037D01*
X143559572Y-151427526D01*
X143482868Y-151284025D01*
X143231240Y-151203365D01*
X142364605Y-152070000D01*
X142005395Y-152070000D01*
X141991253Y-152055858D01*
X142170858Y-151876253D01*
X142185000Y-151890395D01*
X143051635Y-151023760D01*
X142970975Y-150772132D01*
X142702671Y-150643733D01*
X142414474Y-150570145D01*
X142294252Y-150563689D01*
X142418228Y-150378147D01*
X142545246Y-150071496D01*
X142610000Y-149745958D01*
X142610000Y-149414042D01*
X142545246Y-149088504D01*
X142418228Y-148781853D01*
X142233825Y-148505875D01*
X141999125Y-148271175D01*
X141723147Y-148086772D01*
X141416496Y-147959754D01*
X141090958Y-147895000D01*
X140759042Y-147895000D01*
X140433504Y-147959754D01*
X140126853Y-148086772D01*
X139850875Y-148271175D01*
X139616175Y-148505875D01*
X139431772Y-148781853D01*
X139304754Y-149088504D01*
X139240000Y-149414042D01*
X112978000Y-149414042D01*
X112978000Y-141766877D01*
X112981435Y-141732000D01*
X112967727Y-141592816D01*
X112927128Y-141458980D01*
X112861200Y-141335637D01*
X112772475Y-141227525D01*
X112664363Y-141138800D01*
X112541020Y-141072872D01*
X112407184Y-141032273D01*
X112302877Y-141022000D01*
X112268000Y-141018565D01*
X112233123Y-141022000D01*
X76234877Y-141022000D01*
X76200000Y-141018565D01*
X76165123Y-141022000D01*
X76060816Y-141032273D01*
X75926980Y-141072872D01*
X75803637Y-141138800D01*
X75695525Y-141227525D01*
X75606800Y-141335637D01*
X75540872Y-141458980D01*
X75500273Y-141592816D01*
X75486565Y-141732000D01*
X75490001Y-141766887D01*
X75490000Y-150357041D01*
X75468560Y-150305279D01*
X75207550Y-149914651D01*
X74875349Y-149582450D01*
X74484721Y-149321440D01*
X74050679Y-149141654D01*
X73589902Y-149050000D01*
X73120098Y-149050000D01*
X72659321Y-149141654D01*
X72225279Y-149321440D01*
X71834651Y-149582450D01*
X71502450Y-149914651D01*
X71241440Y-150305279D01*
X71061654Y-150739321D01*
X70970000Y-151200098D01*
X70970000Y-151669902D01*
X71061654Y-152130679D01*
X71241440Y-152564721D01*
X71502450Y-152955349D01*
X71834651Y-153287550D01*
X72225279Y-153548560D01*
X72659321Y-153728346D01*
X73120098Y-153820000D01*
X73589902Y-153820000D01*
X74050679Y-153728346D01*
X74484721Y-153548560D01*
X74875349Y-153287550D01*
X75207550Y-152955349D01*
X75468560Y-152564721D01*
X75490000Y-152512960D01*
X75490000Y-153900000D01*
X71484720Y-153900000D01*
X71341891Y-153885995D01*
X71237901Y-153854599D01*
X71141987Y-153803601D01*
X71057801Y-153734941D01*
X70988561Y-153651243D01*
X70936895Y-153555689D01*
X70904773Y-153451922D01*
X70890000Y-153311359D01*
X70890000Y-86609485D01*
X70931525Y-86671632D01*
X71138368Y-86878475D01*
X71381589Y-87040990D01*
X71651842Y-87152932D01*
X71938740Y-87210000D01*
X72231260Y-87210000D01*
X72518158Y-87152932D01*
X72788411Y-87040990D01*
X73031632Y-86878475D01*
X73238475Y-86671632D01*
X73400990Y-86428411D01*
X73512932Y-86158158D01*
X73570000Y-85871260D01*
X73570000Y-85578740D01*
X73512932Y-85291842D01*
X73400990Y-85021589D01*
X73238475Y-84778368D01*
X73031632Y-84571525D01*
X72857240Y-84455000D01*
X73031632Y-84338475D01*
X73238475Y-84131632D01*
X73400990Y-83888411D01*
X73512932Y-83618158D01*
X73570000Y-83331260D01*
X73570000Y-83038740D01*
X73512932Y-82751842D01*
X73400990Y-82481589D01*
X73238475Y-82238368D01*
X73031632Y-82031525D01*
X72857240Y-81915000D01*
X73031632Y-81798475D01*
X73238475Y-81591632D01*
X73400990Y-81348411D01*
X73512932Y-81078158D01*
X73570000Y-80791260D01*
X73570000Y-80498740D01*
X73512932Y-80211842D01*
X73400990Y-79941589D01*
X73238475Y-79698368D01*
X73031632Y-79491525D01*
X72857240Y-79375000D01*
X73031632Y-79258475D01*
X73238475Y-79051632D01*
X73400990Y-78808411D01*
X73512932Y-78538158D01*
X73570000Y-78251260D01*
X73570000Y-77958740D01*
X73512932Y-77671842D01*
X73400990Y-77401589D01*
X73238475Y-77158368D01*
X73031632Y-76951525D01*
X72857240Y-76835000D01*
X73031632Y-76718475D01*
X73238475Y-76511632D01*
X73400990Y-76268411D01*
X73512932Y-75998158D01*
X73570000Y-75711260D01*
X73570000Y-75418740D01*
X73512932Y-75131842D01*
X73400990Y-74861589D01*
X73238475Y-74618368D01*
X73031632Y-74411525D01*
X72857240Y-74295000D01*
X73031632Y-74178475D01*
X73238475Y-73971632D01*
X73400990Y-73728411D01*
X73512932Y-73458158D01*
X73570000Y-73171260D01*
X73570000Y-72878740D01*
X73512932Y-72591842D01*
X73400990Y-72321589D01*
X73238475Y-72078368D01*
X73031632Y-71871525D01*
X72849466Y-71749805D01*
X72966355Y-71680178D01*
X73182588Y-71485269D01*
X73356641Y-71251920D01*
X73481825Y-70989099D01*
X73526476Y-70841890D01*
X73405155Y-70612000D01*
X72212000Y-70612000D01*
X72212000Y-70632000D01*
X71958000Y-70632000D01*
X71958000Y-70612000D01*
X71938000Y-70612000D01*
X71938000Y-70358000D01*
X71958000Y-70358000D01*
X71958000Y-70338000D01*
X72212000Y-70338000D01*
X72212000Y-70358000D01*
X73405155Y-70358000D01*
X73526476Y-70128110D01*
X73481825Y-69980901D01*
X73356641Y-69718080D01*
X73182588Y-69484731D01*
X72966355Y-69289822D01*
X72849466Y-69220195D01*
X73031632Y-69098475D01*
X73238475Y-68891632D01*
X73400990Y-68648411D01*
X73512932Y-68378158D01*
X73570000Y-68091260D01*
X73570000Y-67798740D01*
X73512932Y-67511842D01*
X73400990Y-67241589D01*
X73238475Y-66998368D01*
X73031632Y-66791525D01*
X72857240Y-66675000D01*
X73031632Y-66558475D01*
X73238475Y-66351632D01*
X73400990Y-66108411D01*
X73512932Y-65838158D01*
X73570000Y-65551260D01*
X73570000Y-65258740D01*
X73512932Y-64971842D01*
X73400990Y-64701589D01*
X73238475Y-64458368D01*
X73106620Y-64326513D01*
X73179180Y-64304502D01*
X73289494Y-64245537D01*
X73386185Y-64166185D01*
X73465537Y-64069494D01*
X73524502Y-63959180D01*
X73560812Y-63839482D01*
X73573072Y-63715000D01*
X73573072Y-62015000D01*
X73560812Y-61890518D01*
X73524502Y-61770820D01*
X73465537Y-61660506D01*
X73386185Y-61563815D01*
X73289494Y-61484463D01*
X73179180Y-61425498D01*
X73059482Y-61389188D01*
X72935000Y-61376928D01*
X71235000Y-61376928D01*
X71110518Y-61389188D01*
X70990820Y-61425498D01*
X70890000Y-61479388D01*
X70890000Y-57550098D01*
X70970000Y-57550098D01*
X70970000Y-58019902D01*
X71061654Y-58480679D01*
X71241440Y-58914721D01*
X71502450Y-59305349D01*
X71834651Y-59637550D01*
X72225279Y-59898560D01*
X72659321Y-60078346D01*
X73120098Y-60170000D01*
X73589902Y-60170000D01*
X74050679Y-60078346D01*
X74484721Y-59898560D01*
X74875349Y-59637550D01*
X75207550Y-59305349D01*
X75468560Y-58914721D01*
X75648346Y-58480679D01*
X75740000Y-58019902D01*
X75740000Y-57550098D01*
X75648346Y-57089321D01*
X75468560Y-56655279D01*
X75207550Y-56264651D01*
X74875349Y-55932450D01*
X74484721Y-55671440D01*
X74050679Y-55491654D01*
X73589902Y-55400000D01*
X73120098Y-55400000D01*
X72659321Y-55491654D01*
X72225279Y-55671440D01*
X71834651Y-55932450D01*
X71502450Y-56264651D01*
X71241440Y-56655279D01*
X71061654Y-57089321D01*
X70970000Y-57550098D01*
X70890000Y-57550098D01*
X70890000Y-55914720D01*
X70904005Y-55771891D01*
X70935402Y-55667899D01*
X70986399Y-55571986D01*
X71055055Y-55487806D01*
X71138758Y-55418560D01*
X71234311Y-55366895D01*
X71338078Y-55334773D01*
X71478641Y-55320000D01*
X121210001Y-55320000D01*
X121210000Y-56480122D01*
G04 #@! TA.AperFunction,Conductor*
D16*
G36*
X121210000Y-56480122D02*
G01*
X121206565Y-56515000D01*
X121220273Y-56654184D01*
X121260872Y-56788020D01*
X121326800Y-56911363D01*
X121415525Y-57019475D01*
X121500633Y-57089321D01*
X121523637Y-57108200D01*
X121646980Y-57174128D01*
X121780816Y-57214727D01*
X121920000Y-57228435D01*
X121954877Y-57225000D01*
X123750000Y-57225000D01*
X123750001Y-68545113D01*
X123746565Y-68580000D01*
X123760273Y-68719184D01*
X123800872Y-68853020D01*
X123866800Y-68976363D01*
X123955525Y-69084475D01*
X124063637Y-69173200D01*
X124186980Y-69239128D01*
X124320816Y-69279727D01*
X124425123Y-69290000D01*
X124460000Y-69293435D01*
X124494877Y-69290000D01*
X140935123Y-69290000D01*
X140970000Y-69293435D01*
X141004877Y-69290000D01*
X141006685Y-69289822D01*
X141109184Y-69279727D01*
X141243020Y-69239128D01*
X141366363Y-69173200D01*
X141474475Y-69084475D01*
X141563200Y-68976363D01*
X141629128Y-68853020D01*
X141669727Y-68719184D01*
X141680000Y-68614877D01*
X141683435Y-68580000D01*
X141680000Y-68545123D01*
X141680000Y-57225000D01*
X144070000Y-57225000D01*
X144070001Y-68545113D01*
X144066565Y-68580000D01*
X144080273Y-68719184D01*
X144120872Y-68853020D01*
X144186800Y-68976363D01*
X144275525Y-69084475D01*
X144383637Y-69173200D01*
X144506980Y-69239128D01*
X144640816Y-69279727D01*
X144745123Y-69290000D01*
X144780000Y-69293435D01*
X144814877Y-69290000D01*
X161255123Y-69290000D01*
X161290000Y-69293435D01*
X161324877Y-69290000D01*
X161326685Y-69289822D01*
X161429184Y-69279727D01*
X161563020Y-69239128D01*
X161686363Y-69173200D01*
X161794475Y-69084475D01*
X161883200Y-68976363D01*
X161949128Y-68853020D01*
X161989727Y-68719184D01*
X162000000Y-68614877D01*
X162003435Y-68580000D01*
X162000000Y-68545123D01*
X162000000Y-57550098D01*
X164620000Y-57550098D01*
X164620000Y-58019902D01*
X164711654Y-58480679D01*
X164891440Y-58914721D01*
X165152450Y-59305349D01*
X165484651Y-59637550D01*
X165875279Y-59898560D01*
X166309321Y-60078346D01*
X166770098Y-60170000D01*
X167239902Y-60170000D01*
X167700679Y-60078346D01*
X168134721Y-59898560D01*
X168525349Y-59637550D01*
X168857550Y-59305349D01*
X169118560Y-58914721D01*
X169298346Y-58480679D01*
X169390000Y-58019902D01*
X169390000Y-57550098D01*
X169298346Y-57089321D01*
X169118560Y-56655279D01*
X168857550Y-56264651D01*
X168525349Y-55932450D01*
X168134721Y-55671440D01*
X167700679Y-55491654D01*
X167239902Y-55400000D01*
X166770098Y-55400000D01*
X166309321Y-55491654D01*
X165875279Y-55671440D01*
X165484651Y-55932450D01*
X165152450Y-56264651D01*
X164891440Y-56655279D01*
X164711654Y-57089321D01*
X164620000Y-57550098D01*
X162000000Y-57550098D01*
X162000000Y-57225000D01*
X163795123Y-57225000D01*
X163830000Y-57228435D01*
X163864877Y-57225000D01*
X163969184Y-57214727D01*
X164103020Y-57174128D01*
X164226363Y-57108200D01*
X164334475Y-57019475D01*
X164423200Y-56911363D01*
X164489128Y-56788020D01*
X164529727Y-56654184D01*
X164543435Y-56515000D01*
X164540000Y-56480123D01*
X164540000Y-55320000D01*
X168875280Y-55320000D01*
X169018109Y-55334005D01*
X169122101Y-55365402D01*
X169218014Y-55416399D01*
X169302194Y-55485055D01*
X169371440Y-55568758D01*
X169423105Y-55664311D01*
X169455227Y-55768078D01*
X169470000Y-55908641D01*
X169470001Y-153305269D01*
X169455995Y-153448109D01*
X169424599Y-153552099D01*
X169373601Y-153648013D01*
X169304941Y-153732199D01*
X169221243Y-153801439D01*
X169125689Y-153853105D01*
X169021922Y-153885227D01*
X168881359Y-153900000D01*
X112978000Y-153900000D01*
X112978000Y-153116240D01*
X141318365Y-153116240D01*
X141399025Y-153367868D01*
X141667329Y-153496267D01*
X141955526Y-153569855D01*
X142252543Y-153585804D01*
X142546963Y-153543501D01*
X142827474Y-153444572D01*
X142970975Y-153367868D01*
X143051635Y-153116240D01*
X142185000Y-152249605D01*
X141318365Y-153116240D01*
X112978000Y-153116240D01*
X112978000Y-149414042D01*
X139240000Y-149414042D01*
X139240000Y-149745958D01*
X139304754Y-150071496D01*
X139431772Y-150378147D01*
X139616175Y-150654125D01*
X139850875Y-150888825D01*
X140126853Y-151073228D01*
X140433504Y-151200246D01*
X140759042Y-151265000D01*
X140946483Y-151265000D01*
X140887132Y-151284025D01*
X140758733Y-151552329D01*
X140685145Y-151840526D01*
X140669196Y-152137543D01*
X140711499Y-152431963D01*
X140810428Y-152712474D01*
X140887132Y-152855975D01*
X141138760Y-152936635D01*
X142005395Y-152070000D01*
X142364605Y-152070000D01*
X143231240Y-152936635D01*
X143482868Y-152855975D01*
X143611267Y-152587671D01*
X143684855Y-152299474D01*
X143700804Y-152002457D01*
X143689140Y-151921278D01*
X145175000Y-151921278D01*
X145175000Y-152218722D01*
X145233029Y-152510451D01*
X145346856Y-152785253D01*
X145512107Y-153032569D01*
X145722431Y-153242893D01*
X145969747Y-153408144D01*
X146244549Y-153521971D01*
X146536278Y-153580000D01*
X146833722Y-153580000D01*
X147125451Y-153521971D01*
X147400253Y-153408144D01*
X147647569Y-153242893D01*
X147774222Y-153116240D01*
X152748365Y-153116240D01*
X152829025Y-153367868D01*
X153097329Y-153496267D01*
X153385526Y-153569855D01*
X153682543Y-153585804D01*
X153976963Y-153543501D01*
X154257474Y-153444572D01*
X154400975Y-153367868D01*
X154481635Y-153116240D01*
X153615000Y-152249605D01*
X152748365Y-153116240D01*
X147774222Y-153116240D01*
X147857893Y-153032569D01*
X148023144Y-152785253D01*
X148136971Y-152510451D01*
X148195000Y-152218722D01*
X148195000Y-151921278D01*
X148136971Y-151629549D01*
X148023144Y-151354747D01*
X147963177Y-151265000D01*
X148100958Y-151265000D01*
X148426496Y-151200246D01*
X148733147Y-151073228D01*
X149009125Y-150888825D01*
X149243825Y-150654125D01*
X149428228Y-150378147D01*
X149555246Y-150071496D01*
X149620000Y-149745958D01*
X149620000Y-149414042D01*
X150670000Y-149414042D01*
X150670000Y-149745958D01*
X150734754Y-150071496D01*
X150861772Y-150378147D01*
X151046175Y-150654125D01*
X151280875Y-150888825D01*
X151556853Y-151073228D01*
X151863504Y-151200246D01*
X152189042Y-151265000D01*
X152376483Y-151265000D01*
X152317132Y-151284025D01*
X152188733Y-151552329D01*
X152115145Y-151840526D01*
X152099196Y-152137543D01*
X152141499Y-152431963D01*
X152240428Y-152712474D01*
X152317132Y-152855975D01*
X152568760Y-152936635D01*
X153435395Y-152070000D01*
X153794605Y-152070000D01*
X154661240Y-152936635D01*
X154912868Y-152855975D01*
X155041267Y-152587671D01*
X155114855Y-152299474D01*
X155130804Y-152002457D01*
X155119140Y-151921278D01*
X156605000Y-151921278D01*
X156605000Y-152218722D01*
X156663029Y-152510451D01*
X156776856Y-152785253D01*
X156942107Y-153032569D01*
X157152431Y-153242893D01*
X157399747Y-153408144D01*
X157674549Y-153521971D01*
X157966278Y-153580000D01*
X158263722Y-153580000D01*
X158555451Y-153521971D01*
X158830253Y-153408144D01*
X159077569Y-153242893D01*
X159287893Y-153032569D01*
X159453144Y-152785253D01*
X159566971Y-152510451D01*
X159625000Y-152218722D01*
X159625000Y-151921278D01*
X159566971Y-151629549D01*
X159453144Y-151354747D01*
X159393177Y-151265000D01*
X159530958Y-151265000D01*
X159856496Y-151200246D01*
X159856853Y-151200098D01*
X164620000Y-151200098D01*
X164620000Y-151669902D01*
X164711654Y-152130679D01*
X164891440Y-152564721D01*
X165152450Y-152955349D01*
X165484651Y-153287550D01*
X165875279Y-153548560D01*
X166309321Y-153728346D01*
X166770098Y-153820000D01*
X167239902Y-153820000D01*
X167700679Y-153728346D01*
X168134721Y-153548560D01*
X168525349Y-153287550D01*
X168857550Y-152955349D01*
X169118560Y-152564721D01*
X169298346Y-152130679D01*
X169390000Y-151669902D01*
X169390000Y-151200098D01*
X169298346Y-150739321D01*
X169118560Y-150305279D01*
X168857550Y-149914651D01*
X168525349Y-149582450D01*
X168134721Y-149321440D01*
X167700679Y-149141654D01*
X167239902Y-149050000D01*
X166770098Y-149050000D01*
X166309321Y-149141654D01*
X165875279Y-149321440D01*
X165484651Y-149582450D01*
X165152450Y-149914651D01*
X164891440Y-150305279D01*
X164711654Y-150739321D01*
X164620000Y-151200098D01*
X159856853Y-151200098D01*
X160163147Y-151073228D01*
X160439125Y-150888825D01*
X160673825Y-150654125D01*
X160858228Y-150378147D01*
X160985246Y-150071496D01*
X161050000Y-149745958D01*
X161050000Y-149414042D01*
X160985246Y-149088504D01*
X160858228Y-148781853D01*
X160673825Y-148505875D01*
X160439125Y-148271175D01*
X160163147Y-148086772D01*
X159856496Y-147959754D01*
X159530958Y-147895000D01*
X159199042Y-147895000D01*
X158873504Y-147959754D01*
X158566853Y-148086772D01*
X158290875Y-148271175D01*
X158056175Y-148505875D01*
X157871772Y-148781853D01*
X157744754Y-149088504D01*
X157680000Y-149414042D01*
X157680000Y-149745958D01*
X157744754Y-150071496D01*
X157871772Y-150378147D01*
X157993283Y-150560000D01*
X157966278Y-150560000D01*
X157674549Y-150618029D01*
X157399747Y-150731856D01*
X157152431Y-150897107D01*
X156942107Y-151107431D01*
X156776856Y-151354747D01*
X156663029Y-151629549D01*
X156605000Y-151921278D01*
X155119140Y-151921278D01*
X155088501Y-151708037D01*
X154989572Y-151427526D01*
X154912868Y-151284025D01*
X154661240Y-151203365D01*
X153794605Y-152070000D01*
X153435395Y-152070000D01*
X153421253Y-152055858D01*
X153600858Y-151876253D01*
X153615000Y-151890395D01*
X154481635Y-151023760D01*
X154400975Y-150772132D01*
X154132671Y-150643733D01*
X153844474Y-150570145D01*
X153724252Y-150563689D01*
X153848228Y-150378147D01*
X153975246Y-150071496D01*
X154040000Y-149745958D01*
X154040000Y-149414042D01*
X153975246Y-149088504D01*
X153848228Y-148781853D01*
X153663825Y-148505875D01*
X153429125Y-148271175D01*
X153153147Y-148086772D01*
X152846496Y-147959754D01*
X152520958Y-147895000D01*
X152189042Y-147895000D01*
X151863504Y-147959754D01*
X151556853Y-148086772D01*
X151280875Y-148271175D01*
X151046175Y-148505875D01*
X150861772Y-148781853D01*
X150734754Y-149088504D01*
X150670000Y-149414042D01*
X149620000Y-149414042D01*
X149555246Y-149088504D01*
X149428228Y-148781853D01*
X149243825Y-148505875D01*
X149009125Y-148271175D01*
X148733147Y-148086772D01*
X148426496Y-147959754D01*
X148100958Y-147895000D01*
X147769042Y-147895000D01*
X147443504Y-147959754D01*
X147136853Y-148086772D01*
X146860875Y-148271175D01*
X146626175Y-148505875D01*
X146441772Y-148781853D01*
X146314754Y-149088504D01*
X146250000Y-149414042D01*
X146250000Y-149745958D01*
X146314754Y-150071496D01*
X146441772Y-150378147D01*
X146563283Y-150560000D01*
X146536278Y-150560000D01*
X146244549Y-150618029D01*
X145969747Y-150731856D01*
X145722431Y-150897107D01*
X145512107Y-151107431D01*
X145346856Y-151354747D01*
X145233029Y-151629549D01*
X145175000Y-151921278D01*
X143689140Y-151921278D01*
X143658501Y-151708037D01*
X143559572Y-151427526D01*
X143482868Y-151284025D01*
X143231240Y-151203365D01*
X142364605Y-152070000D01*
X142005395Y-152070000D01*
X141991253Y-152055858D01*
X142170858Y-151876253D01*
X142185000Y-151890395D01*
X143051635Y-151023760D01*
X142970975Y-150772132D01*
X142702671Y-150643733D01*
X142414474Y-150570145D01*
X142294252Y-150563689D01*
X142418228Y-150378147D01*
X142545246Y-150071496D01*
X142610000Y-149745958D01*
X142610000Y-149414042D01*
X142545246Y-149088504D01*
X142418228Y-148781853D01*
X142233825Y-148505875D01*
X141999125Y-148271175D01*
X141723147Y-148086772D01*
X141416496Y-147959754D01*
X141090958Y-147895000D01*
X140759042Y-147895000D01*
X140433504Y-147959754D01*
X140126853Y-148086772D01*
X139850875Y-148271175D01*
X139616175Y-148505875D01*
X139431772Y-148781853D01*
X139304754Y-149088504D01*
X139240000Y-149414042D01*
X112978000Y-149414042D01*
X112978000Y-141766877D01*
X112981435Y-141732000D01*
X112967727Y-141592816D01*
X112927128Y-141458980D01*
X112861200Y-141335637D01*
X112772475Y-141227525D01*
X112664363Y-141138800D01*
X112541020Y-141072872D01*
X112407184Y-141032273D01*
X112302877Y-141022000D01*
X112268000Y-141018565D01*
X112233123Y-141022000D01*
X76234877Y-141022000D01*
X76200000Y-141018565D01*
X76165123Y-141022000D01*
X76060816Y-141032273D01*
X75926980Y-141072872D01*
X75803637Y-141138800D01*
X75695525Y-141227525D01*
X75606800Y-141335637D01*
X75540872Y-141458980D01*
X75500273Y-141592816D01*
X75486565Y-141732000D01*
X75490001Y-141766887D01*
X75490000Y-150357041D01*
X75468560Y-150305279D01*
X75207550Y-149914651D01*
X74875349Y-149582450D01*
X74484721Y-149321440D01*
X74050679Y-149141654D01*
X73589902Y-149050000D01*
X73120098Y-149050000D01*
X72659321Y-149141654D01*
X72225279Y-149321440D01*
X71834651Y-149582450D01*
X71502450Y-149914651D01*
X71241440Y-150305279D01*
X71061654Y-150739321D01*
X70970000Y-151200098D01*
X70970000Y-151669902D01*
X71061654Y-152130679D01*
X71241440Y-152564721D01*
X71502450Y-152955349D01*
X71834651Y-153287550D01*
X72225279Y-153548560D01*
X72659321Y-153728346D01*
X73120098Y-153820000D01*
X73589902Y-153820000D01*
X74050679Y-153728346D01*
X74484721Y-153548560D01*
X74875349Y-153287550D01*
X75207550Y-152955349D01*
X75468560Y-152564721D01*
X75490000Y-152512960D01*
X75490000Y-153900000D01*
X71484720Y-153900000D01*
X71341891Y-153885995D01*
X71237901Y-153854599D01*
X71141987Y-153803601D01*
X71057801Y-153734941D01*
X70988561Y-153651243D01*
X70936895Y-153555689D01*
X70904773Y-153451922D01*
X70890000Y-153311359D01*
X70890000Y-86609485D01*
X70931525Y-86671632D01*
X71138368Y-86878475D01*
X71381589Y-87040990D01*
X71651842Y-87152932D01*
X71938740Y-87210000D01*
X72231260Y-87210000D01*
X72518158Y-87152932D01*
X72788411Y-87040990D01*
X73031632Y-86878475D01*
X73238475Y-86671632D01*
X73400990Y-86428411D01*
X73512932Y-86158158D01*
X73570000Y-85871260D01*
X73570000Y-85578740D01*
X73512932Y-85291842D01*
X73400990Y-85021589D01*
X73238475Y-84778368D01*
X73031632Y-84571525D01*
X72857240Y-84455000D01*
X73031632Y-84338475D01*
X73238475Y-84131632D01*
X73400990Y-83888411D01*
X73512932Y-83618158D01*
X73570000Y-83331260D01*
X73570000Y-83038740D01*
X73512932Y-82751842D01*
X73400990Y-82481589D01*
X73238475Y-82238368D01*
X73031632Y-82031525D01*
X72857240Y-81915000D01*
X73031632Y-81798475D01*
X73238475Y-81591632D01*
X73400990Y-81348411D01*
X73512932Y-81078158D01*
X73570000Y-80791260D01*
X73570000Y-80498740D01*
X73512932Y-80211842D01*
X73400990Y-79941589D01*
X73238475Y-79698368D01*
X73031632Y-79491525D01*
X72857240Y-79375000D01*
X73031632Y-79258475D01*
X73238475Y-79051632D01*
X73400990Y-78808411D01*
X73512932Y-78538158D01*
X73570000Y-78251260D01*
X73570000Y-77958740D01*
X73512932Y-77671842D01*
X73400990Y-77401589D01*
X73238475Y-77158368D01*
X73031632Y-76951525D01*
X72857240Y-76835000D01*
X73031632Y-76718475D01*
X73238475Y-76511632D01*
X73400990Y-76268411D01*
X73512932Y-75998158D01*
X73570000Y-75711260D01*
X73570000Y-75418740D01*
X73512932Y-75131842D01*
X73400990Y-74861589D01*
X73238475Y-74618368D01*
X73031632Y-74411525D01*
X72857240Y-74295000D01*
X73031632Y-74178475D01*
X73238475Y-73971632D01*
X73400990Y-73728411D01*
X73512932Y-73458158D01*
X73570000Y-73171260D01*
X73570000Y-72878740D01*
X73512932Y-72591842D01*
X73400990Y-72321589D01*
X73238475Y-72078368D01*
X73031632Y-71871525D01*
X72849466Y-71749805D01*
X72966355Y-71680178D01*
X73182588Y-71485269D01*
X73356641Y-71251920D01*
X73481825Y-70989099D01*
X73526476Y-70841890D01*
X73405155Y-70612000D01*
X72212000Y-70612000D01*
X72212000Y-70632000D01*
X71958000Y-70632000D01*
X71958000Y-70612000D01*
X71938000Y-70612000D01*
X71938000Y-70358000D01*
X71958000Y-70358000D01*
X71958000Y-70338000D01*
X72212000Y-70338000D01*
X72212000Y-70358000D01*
X73405155Y-70358000D01*
X73526476Y-70128110D01*
X73481825Y-69980901D01*
X73356641Y-69718080D01*
X73182588Y-69484731D01*
X72966355Y-69289822D01*
X72849466Y-69220195D01*
X73031632Y-69098475D01*
X73238475Y-68891632D01*
X73400990Y-68648411D01*
X73512932Y-68378158D01*
X73570000Y-68091260D01*
X73570000Y-67798740D01*
X73512932Y-67511842D01*
X73400990Y-67241589D01*
X73238475Y-66998368D01*
X73031632Y-66791525D01*
X72857240Y-66675000D01*
X73031632Y-66558475D01*
X73238475Y-66351632D01*
X73400990Y-66108411D01*
X73512932Y-65838158D01*
X73570000Y-65551260D01*
X73570000Y-65258740D01*
X73512932Y-64971842D01*
X73400990Y-64701589D01*
X73238475Y-64458368D01*
X73106620Y-64326513D01*
X73179180Y-64304502D01*
X73289494Y-64245537D01*
X73386185Y-64166185D01*
X73465537Y-64069494D01*
X73524502Y-63959180D01*
X73560812Y-63839482D01*
X73573072Y-63715000D01*
X73573072Y-62015000D01*
X73560812Y-61890518D01*
X73524502Y-61770820D01*
X73465537Y-61660506D01*
X73386185Y-61563815D01*
X73289494Y-61484463D01*
X73179180Y-61425498D01*
X73059482Y-61389188D01*
X72935000Y-61376928D01*
X71235000Y-61376928D01*
X71110518Y-61389188D01*
X70990820Y-61425498D01*
X70890000Y-61479388D01*
X70890000Y-57550098D01*
X70970000Y-57550098D01*
X70970000Y-58019902D01*
X71061654Y-58480679D01*
X71241440Y-58914721D01*
X71502450Y-59305349D01*
X71834651Y-59637550D01*
X72225279Y-59898560D01*
X72659321Y-60078346D01*
X73120098Y-60170000D01*
X73589902Y-60170000D01*
X74050679Y-60078346D01*
X74484721Y-59898560D01*
X74875349Y-59637550D01*
X75207550Y-59305349D01*
X75468560Y-58914721D01*
X75648346Y-58480679D01*
X75740000Y-58019902D01*
X75740000Y-57550098D01*
X75648346Y-57089321D01*
X75468560Y-56655279D01*
X75207550Y-56264651D01*
X74875349Y-55932450D01*
X74484721Y-55671440D01*
X74050679Y-55491654D01*
X73589902Y-55400000D01*
X73120098Y-55400000D01*
X72659321Y-55491654D01*
X72225279Y-55671440D01*
X71834651Y-55932450D01*
X71502450Y-56264651D01*
X71241440Y-56655279D01*
X71061654Y-57089321D01*
X70970000Y-57550098D01*
X70890000Y-57550098D01*
X70890000Y-55914720D01*
X70904005Y-55771891D01*
X70935402Y-55667899D01*
X70986399Y-55571986D01*
X71055055Y-55487806D01*
X71138758Y-55418560D01*
X71234311Y-55366895D01*
X71338078Y-55334773D01*
X71478641Y-55320000D01*
X121210001Y-55320000D01*
X121210000Y-56480122D01*
G37*
G04 #@! TD.AperFunction*
M02*
