G04 #@! TF.GenerationSoftware,KiCad,Pcbnew,(5.1.8)-1*
G04 #@! TF.CreationDate,2022-02-08T00:32:58+01:00*
G04 #@! TF.ProjectId,BulkyMIDI-32 FA2,42756c6b-794d-4494-9449-2d3332204641,rev?*
G04 #@! TF.SameCoordinates,Original*
G04 #@! TF.FileFunction,Legend,Top*
G04 #@! TF.FilePolarity,Positive*
%FSLAX46Y46*%
G04 Gerber Fmt 4.6, Leading zero omitted, Abs format (unit mm)*
G04 Created by KiCad (PCBNEW (5.1.8)-1) date 2022-02-08 00:32:58*
%MOMM*%
%LPD*%
G01*
G04 APERTURE LIST*
%ADD10C,0.100000*%
%ADD11C,0.150000*%
%ADD12C,0.500000*%
%ADD13C,0.010000*%
G04 APERTURE END LIST*
D10*
X119860714Y-153866809D02*
X119975000Y-153904904D01*
X120165476Y-153904904D01*
X120241666Y-153866809D01*
X120279761Y-153828714D01*
X120317857Y-153752523D01*
X120317857Y-153676333D01*
X120279761Y-153600142D01*
X120241666Y-153562047D01*
X120165476Y-153523952D01*
X120013095Y-153485857D01*
X119936904Y-153447761D01*
X119898809Y-153409666D01*
X119860714Y-153333476D01*
X119860714Y-153257285D01*
X119898809Y-153181095D01*
X119936904Y-153143000D01*
X120013095Y-153104904D01*
X120203571Y-153104904D01*
X120317857Y-153143000D01*
X120813095Y-153523952D02*
X120813095Y-153904904D01*
X120546428Y-153104904D02*
X120813095Y-153523952D01*
X121079761Y-153104904D01*
X121346428Y-153904904D02*
X121346428Y-153104904D01*
X121803571Y-153904904D01*
X121803571Y-153104904D01*
X122070238Y-153104904D02*
X122527380Y-153104904D01*
X122298809Y-153904904D02*
X122298809Y-153104904D01*
X122794047Y-153904904D02*
X122794047Y-153104904D01*
X122794047Y-153485857D02*
X123251190Y-153485857D01*
X123251190Y-153904904D02*
X123251190Y-153104904D01*
X132467428Y-153904904D02*
X132200761Y-153523952D01*
X132010285Y-153904904D02*
X132010285Y-153104904D01*
X132315047Y-153104904D01*
X132391238Y-153143000D01*
X132429333Y-153181095D01*
X132467428Y-153257285D01*
X132467428Y-153371571D01*
X132429333Y-153447761D01*
X132391238Y-153485857D01*
X132315047Y-153523952D01*
X132010285Y-153523952D01*
X132962666Y-153104904D02*
X133115047Y-153104904D01*
X133191238Y-153143000D01*
X133267428Y-153219190D01*
X133305523Y-153371571D01*
X133305523Y-153638238D01*
X133267428Y-153790619D01*
X133191238Y-153866809D01*
X133115047Y-153904904D01*
X132962666Y-153904904D01*
X132886476Y-153866809D01*
X132810285Y-153790619D01*
X132772190Y-153638238D01*
X132772190Y-153371571D01*
X132810285Y-153219190D01*
X132886476Y-153143000D01*
X132962666Y-153104904D01*
X133648380Y-153904904D02*
X133648380Y-153104904D01*
X133915047Y-153676333D01*
X134181714Y-153104904D01*
X134181714Y-153904904D01*
D11*
X81613571Y-58507380D02*
X81137380Y-58507380D01*
X81089761Y-58983571D01*
X81137380Y-58935952D01*
X81232619Y-58888333D01*
X81470714Y-58888333D01*
X81565952Y-58935952D01*
X81613571Y-58983571D01*
X81661190Y-59078809D01*
X81661190Y-59316904D01*
X81613571Y-59412142D01*
X81565952Y-59459761D01*
X81470714Y-59507380D01*
X81232619Y-59507380D01*
X81137380Y-59459761D01*
X81089761Y-59412142D01*
X81946904Y-58507380D02*
X82280238Y-59507380D01*
X82613571Y-58507380D01*
X83708809Y-59507380D02*
X83708809Y-58507380D01*
X83946904Y-58507380D01*
X84089761Y-58555000D01*
X84185000Y-58650238D01*
X84232619Y-58745476D01*
X84280238Y-58935952D01*
X84280238Y-59078809D01*
X84232619Y-59269285D01*
X84185000Y-59364523D01*
X84089761Y-59459761D01*
X83946904Y-59507380D01*
X83708809Y-59507380D01*
X85280238Y-59412142D02*
X85232619Y-59459761D01*
X85089761Y-59507380D01*
X84994523Y-59507380D01*
X84851666Y-59459761D01*
X84756428Y-59364523D01*
X84708809Y-59269285D01*
X84661190Y-59078809D01*
X84661190Y-58935952D01*
X84708809Y-58745476D01*
X84756428Y-58650238D01*
X84851666Y-58555000D01*
X84994523Y-58507380D01*
X85089761Y-58507380D01*
X85232619Y-58555000D01*
X85280238Y-58602619D01*
D10*
X150539761Y-70148404D02*
X150539761Y-69348404D01*
X150806428Y-69919833D01*
X151073095Y-69348404D01*
X151073095Y-70148404D01*
X151454047Y-70148404D02*
X151454047Y-69348404D01*
X151835000Y-70148404D02*
X151835000Y-69348404D01*
X152025476Y-69348404D01*
X152139761Y-69386500D01*
X152215952Y-69462690D01*
X152254047Y-69538880D01*
X152292142Y-69691261D01*
X152292142Y-69805547D01*
X152254047Y-69957928D01*
X152215952Y-70034119D01*
X152139761Y-70110309D01*
X152025476Y-70148404D01*
X151835000Y-70148404D01*
X152635000Y-70148404D02*
X152635000Y-69348404D01*
X153777857Y-69348404D02*
X153930238Y-69348404D01*
X154006428Y-69386500D01*
X154082619Y-69462690D01*
X154120714Y-69615071D01*
X154120714Y-69881738D01*
X154082619Y-70034119D01*
X154006428Y-70110309D01*
X153930238Y-70148404D01*
X153777857Y-70148404D01*
X153701666Y-70110309D01*
X153625476Y-70034119D01*
X153587380Y-69881738D01*
X153587380Y-69615071D01*
X153625476Y-69462690D01*
X153701666Y-69386500D01*
X153777857Y-69348404D01*
X154463571Y-69348404D02*
X154463571Y-69996023D01*
X154501666Y-70072214D01*
X154539761Y-70110309D01*
X154615952Y-70148404D01*
X154768333Y-70148404D01*
X154844523Y-70110309D01*
X154882619Y-70072214D01*
X154920714Y-69996023D01*
X154920714Y-69348404D01*
X155187380Y-69348404D02*
X155644523Y-69348404D01*
X155415952Y-70148404D02*
X155415952Y-69348404D01*
X130753095Y-70148404D02*
X130753095Y-69348404D01*
X131019761Y-69919833D01*
X131286428Y-69348404D01*
X131286428Y-70148404D01*
X131667380Y-70148404D02*
X131667380Y-69348404D01*
X132048333Y-70148404D02*
X132048333Y-69348404D01*
X132238809Y-69348404D01*
X132353095Y-69386500D01*
X132429285Y-69462690D01*
X132467380Y-69538880D01*
X132505476Y-69691261D01*
X132505476Y-69805547D01*
X132467380Y-69957928D01*
X132429285Y-70034119D01*
X132353095Y-70110309D01*
X132238809Y-70148404D01*
X132048333Y-70148404D01*
X132848333Y-70148404D02*
X132848333Y-69348404D01*
X133838809Y-70148404D02*
X133838809Y-69348404D01*
X134219761Y-70148404D02*
X134219761Y-69348404D01*
X134676904Y-70148404D01*
X134676904Y-69348404D01*
X154360238Y-153904904D02*
X154360238Y-153104904D01*
X154550714Y-153104904D01*
X154665000Y-153143000D01*
X154741190Y-153219190D01*
X154779285Y-153295380D01*
X154817380Y-153447761D01*
X154817380Y-153562047D01*
X154779285Y-153714428D01*
X154741190Y-153790619D01*
X154665000Y-153866809D01*
X154550714Y-153904904D01*
X154360238Y-153904904D01*
X155312619Y-153104904D02*
X155465000Y-153104904D01*
X155541190Y-153143000D01*
X155617380Y-153219190D01*
X155655476Y-153371571D01*
X155655476Y-153638238D01*
X155617380Y-153790619D01*
X155541190Y-153866809D01*
X155465000Y-153904904D01*
X155312619Y-153904904D01*
X155236428Y-153866809D01*
X155160238Y-153790619D01*
X155122142Y-153638238D01*
X155122142Y-153371571D01*
X155160238Y-153219190D01*
X155236428Y-153143000D01*
X155312619Y-153104904D01*
X155922142Y-153104904D02*
X156112619Y-153904904D01*
X156265000Y-153333476D01*
X156417380Y-153904904D01*
X156607857Y-153104904D01*
X156912619Y-153904904D02*
X156912619Y-153104904D01*
X157369761Y-153904904D01*
X157369761Y-153104904D01*
X143897428Y-153104904D02*
X143897428Y-153752523D01*
X143935523Y-153828714D01*
X143973619Y-153866809D01*
X144049809Y-153904904D01*
X144202190Y-153904904D01*
X144278380Y-153866809D01*
X144316476Y-153828714D01*
X144354571Y-153752523D01*
X144354571Y-153104904D01*
X144735523Y-153904904D02*
X144735523Y-153104904D01*
X145040285Y-153104904D01*
X145116476Y-153143000D01*
X145154571Y-153181095D01*
X145192666Y-153257285D01*
X145192666Y-153371571D01*
X145154571Y-153447761D01*
X145116476Y-153485857D01*
X145040285Y-153523952D01*
X144735523Y-153523952D01*
D11*
X83185000Y-56590000D02*
X85185000Y-56590000D01*
X81185000Y-56590000D02*
X82085000Y-56590000D01*
X81110000Y-56590000D02*
G75*
G03*
X81110000Y-56590000I-925000J0D01*
G01*
X87110000Y-56590000D02*
G75*
G03*
X87110000Y-56590000I-925000J0D01*
G01*
D12*
X83360000Y-56590000D02*
G75*
G03*
X83360000Y-56590000I-175000J0D01*
G01*
D11*
X83860000Y-55840000D02*
G75*
G03*
X83935000Y-57265000I-675000J-750000D01*
G01*
D13*
G36*
X128319030Y-99722888D02*
G01*
X128540051Y-99731671D01*
X128672992Y-99749279D01*
X128737280Y-99778139D01*
X128752500Y-99815750D01*
X128704169Y-99899992D01*
X128662122Y-99911000D01*
X128542249Y-99950769D01*
X128385901Y-100074427D01*
X128187133Y-100288497D01*
X127940000Y-100599503D01*
X127638559Y-101013967D01*
X127576069Y-101102927D01*
X126974500Y-101963238D01*
X126974500Y-102972005D01*
X126975204Y-103351334D01*
X126979222Y-103625001D01*
X126989408Y-103814342D01*
X127008618Y-103940693D01*
X127039708Y-104025391D01*
X127085533Y-104089773D01*
X127130363Y-104136636D01*
X127273521Y-104243915D01*
X127408942Y-104292277D01*
X127416113Y-104292500D01*
X127521805Y-104331530D01*
X127546000Y-104387750D01*
X127529923Y-104422169D01*
X127470853Y-104447362D01*
X127352527Y-104464683D01*
X127158686Y-104475488D01*
X126873068Y-104481131D01*
X126479412Y-104482968D01*
X126403000Y-104483000D01*
X125989967Y-104481660D01*
X125687654Y-104476737D01*
X125479800Y-104466877D01*
X125350142Y-104450723D01*
X125282421Y-104426922D01*
X125260375Y-104394117D01*
X125260000Y-104387750D01*
X125313223Y-104310242D01*
X125389886Y-104292500D01*
X125522340Y-104249445D01*
X125667112Y-104144975D01*
X125675636Y-104136636D01*
X125738019Y-104068473D01*
X125781066Y-103994768D01*
X125808358Y-103891969D01*
X125823472Y-103736522D01*
X125829989Y-103504875D01*
X125831486Y-103173476D01*
X125831500Y-103110967D01*
X125831500Y-102241162D01*
X125156090Y-101200878D01*
X124878464Y-100779488D01*
X124654941Y-100456357D01*
X124475654Y-100220033D01*
X124330737Y-100059061D01*
X124210325Y-99961990D01*
X124104550Y-99917366D01*
X124044936Y-99911000D01*
X123946771Y-99868877D01*
X123926500Y-99815750D01*
X123942747Y-99780901D01*
X124002471Y-99755525D01*
X124122142Y-99738210D01*
X124318232Y-99727542D01*
X124607212Y-99722111D01*
X125005554Y-99720505D01*
X125037750Y-99720500D01*
X125447062Y-99722064D01*
X125745396Y-99727628D01*
X125948741Y-99738499D01*
X126073090Y-99755985D01*
X126134434Y-99781392D01*
X126149000Y-99811333D01*
X126094946Y-99890028D01*
X126006125Y-99922458D01*
X125890624Y-99966674D01*
X125846115Y-100063213D01*
X125875245Y-100221866D01*
X125980663Y-100452425D01*
X126165016Y-100764683D01*
X126283604Y-100948410D01*
X126475263Y-101234210D01*
X126612862Y-101424286D01*
X126707900Y-101531687D01*
X126771878Y-101569458D01*
X126815372Y-101551660D01*
X126933302Y-101406006D01*
X127078529Y-101200273D01*
X127233745Y-100962569D01*
X127381642Y-100721002D01*
X127504910Y-100503679D01*
X127586241Y-100338708D01*
X127609500Y-100262071D01*
X127562921Y-100113214D01*
X127452365Y-99979942D01*
X127321604Y-99912371D01*
X127302874Y-99910999D01*
X127236965Y-99859749D01*
X127228500Y-99815750D01*
X127247605Y-99774683D01*
X127317873Y-99747056D01*
X127458733Y-99730438D01*
X127689614Y-99722402D01*
X127990500Y-99720500D01*
X128319030Y-99722888D01*
G37*
X128319030Y-99722888D02*
X128540051Y-99731671D01*
X128672992Y-99749279D01*
X128737280Y-99778139D01*
X128752500Y-99815750D01*
X128704169Y-99899992D01*
X128662122Y-99911000D01*
X128542249Y-99950769D01*
X128385901Y-100074427D01*
X128187133Y-100288497D01*
X127940000Y-100599503D01*
X127638559Y-101013967D01*
X127576069Y-101102927D01*
X126974500Y-101963238D01*
X126974500Y-102972005D01*
X126975204Y-103351334D01*
X126979222Y-103625001D01*
X126989408Y-103814342D01*
X127008618Y-103940693D01*
X127039708Y-104025391D01*
X127085533Y-104089773D01*
X127130363Y-104136636D01*
X127273521Y-104243915D01*
X127408942Y-104292277D01*
X127416113Y-104292500D01*
X127521805Y-104331530D01*
X127546000Y-104387750D01*
X127529923Y-104422169D01*
X127470853Y-104447362D01*
X127352527Y-104464683D01*
X127158686Y-104475488D01*
X126873068Y-104481131D01*
X126479412Y-104482968D01*
X126403000Y-104483000D01*
X125989967Y-104481660D01*
X125687654Y-104476737D01*
X125479800Y-104466877D01*
X125350142Y-104450723D01*
X125282421Y-104426922D01*
X125260375Y-104394117D01*
X125260000Y-104387750D01*
X125313223Y-104310242D01*
X125389886Y-104292500D01*
X125522340Y-104249445D01*
X125667112Y-104144975D01*
X125675636Y-104136636D01*
X125738019Y-104068473D01*
X125781066Y-103994768D01*
X125808358Y-103891969D01*
X125823472Y-103736522D01*
X125829989Y-103504875D01*
X125831486Y-103173476D01*
X125831500Y-103110967D01*
X125831500Y-102241162D01*
X125156090Y-101200878D01*
X124878464Y-100779488D01*
X124654941Y-100456357D01*
X124475654Y-100220033D01*
X124330737Y-100059061D01*
X124210325Y-99961990D01*
X124104550Y-99917366D01*
X124044936Y-99911000D01*
X123946771Y-99868877D01*
X123926500Y-99815750D01*
X123942747Y-99780901D01*
X124002471Y-99755525D01*
X124122142Y-99738210D01*
X124318232Y-99727542D01*
X124607212Y-99722111D01*
X125005554Y-99720505D01*
X125037750Y-99720500D01*
X125447062Y-99722064D01*
X125745396Y-99727628D01*
X125948741Y-99738499D01*
X126073090Y-99755985D01*
X126134434Y-99781392D01*
X126149000Y-99811333D01*
X126094946Y-99890028D01*
X126006125Y-99922458D01*
X125890624Y-99966674D01*
X125846115Y-100063213D01*
X125875245Y-100221866D01*
X125980663Y-100452425D01*
X126165016Y-100764683D01*
X126283604Y-100948410D01*
X126475263Y-101234210D01*
X126612862Y-101424286D01*
X126707900Y-101531687D01*
X126771878Y-101569458D01*
X126815372Y-101551660D01*
X126933302Y-101406006D01*
X127078529Y-101200273D01*
X127233745Y-100962569D01*
X127381642Y-100721002D01*
X127504910Y-100503679D01*
X127586241Y-100338708D01*
X127609500Y-100262071D01*
X127562921Y-100113214D01*
X127452365Y-99979942D01*
X127321604Y-99912371D01*
X127302874Y-99910999D01*
X127236965Y-99859749D01*
X127228500Y-99815750D01*
X127247605Y-99774683D01*
X127317873Y-99747056D01*
X127458733Y-99730438D01*
X127689614Y-99722402D01*
X127990500Y-99720500D01*
X128319030Y-99722888D01*
G36*
X122916097Y-99722077D02*
G01*
X123192875Y-99727881D01*
X123376983Y-99739520D01*
X123485575Y-99758602D01*
X123535804Y-99786735D01*
X123545500Y-99815750D01*
X123490186Y-99892287D01*
X123384639Y-99911000D01*
X123244929Y-99925514D01*
X123092518Y-99974387D01*
X122916484Y-100065618D01*
X122705901Y-100207204D01*
X122449848Y-100407142D01*
X122137401Y-100673429D01*
X121757638Y-101014063D01*
X121299634Y-101437042D01*
X121297090Y-101439414D01*
X121309030Y-101498937D01*
X121392093Y-101636677D01*
X121548433Y-101855442D01*
X121780203Y-102158043D01*
X122089559Y-102547290D01*
X122478652Y-103025993D01*
X122949638Y-103596962D01*
X122964430Y-103614793D01*
X123217825Y-103902930D01*
X123438108Y-104119265D01*
X123609433Y-104248650D01*
X123647055Y-104267476D01*
X123791778Y-104336285D01*
X123851564Y-104389485D01*
X123819118Y-104428833D01*
X123687144Y-104456086D01*
X123448349Y-104472999D01*
X123095435Y-104481329D01*
X122751750Y-104483000D01*
X122330252Y-104480844D01*
X122022163Y-104473726D01*
X121813950Y-104460669D01*
X121692085Y-104440697D01*
X121643037Y-104412833D01*
X121640500Y-104402807D01*
X121692024Y-104317288D01*
X121779267Y-104259932D01*
X121895539Y-104186388D01*
X121938416Y-104132552D01*
X121906594Y-104065255D01*
X121805865Y-103916399D01*
X121648257Y-103702295D01*
X121445799Y-103439254D01*
X121210518Y-103143588D01*
X121194653Y-103123971D01*
X120430508Y-102180088D01*
X120465750Y-104070250D01*
X120733323Y-104197250D01*
X120905768Y-104286375D01*
X120996917Y-104355389D01*
X120999450Y-104406693D01*
X120906045Y-104442690D01*
X120709382Y-104465782D01*
X120402139Y-104478371D01*
X119976995Y-104482860D01*
X119862500Y-104483000D01*
X119446232Y-104481467D01*
X119141225Y-104476044D01*
X118931766Y-104465491D01*
X118802142Y-104448566D01*
X118736642Y-104424030D01*
X118719500Y-104392795D01*
X118774485Y-104317464D01*
X118907032Y-104261412D01*
X118909921Y-104260767D01*
X119013865Y-104234349D01*
X119096958Y-104196810D01*
X119161532Y-104134847D01*
X119209922Y-104035157D01*
X119244458Y-103884438D01*
X119267473Y-103669388D01*
X119281302Y-103376704D01*
X119288275Y-102993085D01*
X119290726Y-102505227D01*
X119291000Y-102087620D01*
X119290609Y-101551657D01*
X119288828Y-101128211D01*
X119284741Y-100802801D01*
X119277433Y-100560944D01*
X119265989Y-100388160D01*
X119249494Y-100269965D01*
X119227034Y-100191879D01*
X119197693Y-100139420D01*
X119165615Y-100103115D01*
X119009460Y-99991234D01*
X118879865Y-99937481D01*
X118759949Y-99877532D01*
X118719500Y-99808866D01*
X118740361Y-99776566D01*
X118813241Y-99752889D01*
X118953579Y-99736641D01*
X119176816Y-99726627D01*
X119498395Y-99721655D01*
X119862500Y-99720500D01*
X120286913Y-99722424D01*
X120598537Y-99728881D01*
X120811534Y-99740891D01*
X120940067Y-99759476D01*
X120998298Y-99785660D01*
X121005500Y-99802993D01*
X120951497Y-99876278D01*
X120818130Y-99952220D01*
X120783292Y-99965838D01*
X120617092Y-100051652D01*
X120503435Y-100155678D01*
X120495524Y-100168692D01*
X120469339Y-100283716D01*
X120452068Y-100497627D01*
X120445270Y-100782521D01*
X120447856Y-101020807D01*
X120465750Y-101750421D01*
X121215192Y-101044571D01*
X121525859Y-100746451D01*
X121745964Y-100517811D01*
X121881605Y-100345755D01*
X121938882Y-100217388D01*
X121923893Y-100119813D01*
X121842737Y-100040136D01*
X121721249Y-99974500D01*
X121584467Y-99890852D01*
X121516481Y-99809960D01*
X121514874Y-99799875D01*
X121546088Y-99768430D01*
X121650038Y-99745833D01*
X121840301Y-99731021D01*
X122130458Y-99722930D01*
X122529500Y-99720500D01*
X122916097Y-99722077D01*
G37*
X122916097Y-99722077D02*
X123192875Y-99727881D01*
X123376983Y-99739520D01*
X123485575Y-99758602D01*
X123535804Y-99786735D01*
X123545500Y-99815750D01*
X123490186Y-99892287D01*
X123384639Y-99911000D01*
X123244929Y-99925514D01*
X123092518Y-99974387D01*
X122916484Y-100065618D01*
X122705901Y-100207204D01*
X122449848Y-100407142D01*
X122137401Y-100673429D01*
X121757638Y-101014063D01*
X121299634Y-101437042D01*
X121297090Y-101439414D01*
X121309030Y-101498937D01*
X121392093Y-101636677D01*
X121548433Y-101855442D01*
X121780203Y-102158043D01*
X122089559Y-102547290D01*
X122478652Y-103025993D01*
X122949638Y-103596962D01*
X122964430Y-103614793D01*
X123217825Y-103902930D01*
X123438108Y-104119265D01*
X123609433Y-104248650D01*
X123647055Y-104267476D01*
X123791778Y-104336285D01*
X123851564Y-104389485D01*
X123819118Y-104428833D01*
X123687144Y-104456086D01*
X123448349Y-104472999D01*
X123095435Y-104481329D01*
X122751750Y-104483000D01*
X122330252Y-104480844D01*
X122022163Y-104473726D01*
X121813950Y-104460669D01*
X121692085Y-104440697D01*
X121643037Y-104412833D01*
X121640500Y-104402807D01*
X121692024Y-104317288D01*
X121779267Y-104259932D01*
X121895539Y-104186388D01*
X121938416Y-104132552D01*
X121906594Y-104065255D01*
X121805865Y-103916399D01*
X121648257Y-103702295D01*
X121445799Y-103439254D01*
X121210518Y-103143588D01*
X121194653Y-103123971D01*
X120430508Y-102180088D01*
X120465750Y-104070250D01*
X120733323Y-104197250D01*
X120905768Y-104286375D01*
X120996917Y-104355389D01*
X120999450Y-104406693D01*
X120906045Y-104442690D01*
X120709382Y-104465782D01*
X120402139Y-104478371D01*
X119976995Y-104482860D01*
X119862500Y-104483000D01*
X119446232Y-104481467D01*
X119141225Y-104476044D01*
X118931766Y-104465491D01*
X118802142Y-104448566D01*
X118736642Y-104424030D01*
X118719500Y-104392795D01*
X118774485Y-104317464D01*
X118907032Y-104261412D01*
X118909921Y-104260767D01*
X119013865Y-104234349D01*
X119096958Y-104196810D01*
X119161532Y-104134847D01*
X119209922Y-104035157D01*
X119244458Y-103884438D01*
X119267473Y-103669388D01*
X119281302Y-103376704D01*
X119288275Y-102993085D01*
X119290726Y-102505227D01*
X119291000Y-102087620D01*
X119290609Y-101551657D01*
X119288828Y-101128211D01*
X119284741Y-100802801D01*
X119277433Y-100560944D01*
X119265989Y-100388160D01*
X119249494Y-100269965D01*
X119227034Y-100191879D01*
X119197693Y-100139420D01*
X119165615Y-100103115D01*
X119009460Y-99991234D01*
X118879865Y-99937481D01*
X118759949Y-99877532D01*
X118719500Y-99808866D01*
X118740361Y-99776566D01*
X118813241Y-99752889D01*
X118953579Y-99736641D01*
X119176816Y-99726627D01*
X119498395Y-99721655D01*
X119862500Y-99720500D01*
X120286913Y-99722424D01*
X120598537Y-99728881D01*
X120811534Y-99740891D01*
X120940067Y-99759476D01*
X120998298Y-99785660D01*
X121005500Y-99802993D01*
X120951497Y-99876278D01*
X120818130Y-99952220D01*
X120783292Y-99965838D01*
X120617092Y-100051652D01*
X120503435Y-100155678D01*
X120495524Y-100168692D01*
X120469339Y-100283716D01*
X120452068Y-100497627D01*
X120445270Y-100782521D01*
X120447856Y-101020807D01*
X120465750Y-101750421D01*
X121215192Y-101044571D01*
X121525859Y-100746451D01*
X121745964Y-100517811D01*
X121881605Y-100345755D01*
X121938882Y-100217388D01*
X121923893Y-100119813D01*
X121842737Y-100040136D01*
X121721249Y-99974500D01*
X121584467Y-99890852D01*
X121516481Y-99809960D01*
X121514874Y-99799875D01*
X121546088Y-99768430D01*
X121650038Y-99745833D01*
X121840301Y-99731021D01*
X122130458Y-99722930D01*
X122529500Y-99720500D01*
X122916097Y-99722077D01*
G36*
X116216284Y-99722112D02*
G01*
X116522541Y-99727747D01*
X116732712Y-99738596D01*
X116862238Y-99755855D01*
X116926559Y-99780716D01*
X116941500Y-99808866D01*
X116887325Y-99888540D01*
X116781134Y-99937481D01*
X116610799Y-100014848D01*
X116495384Y-100103115D01*
X116459356Y-100144906D01*
X116430968Y-100199600D01*
X116409315Y-100281631D01*
X116393488Y-100405437D01*
X116382581Y-100585452D01*
X116375686Y-100836112D01*
X116371896Y-101171852D01*
X116370303Y-101607109D01*
X116370000Y-102098149D01*
X116370194Y-102633909D01*
X116371459Y-103056902D01*
X116374815Y-103381360D01*
X116381281Y-103621516D01*
X116391879Y-103791603D01*
X116407628Y-103905853D01*
X116429550Y-103978499D01*
X116458664Y-104023774D01*
X116495990Y-104055910D01*
X116511129Y-104066649D01*
X116681250Y-104131238D01*
X116927996Y-104161529D01*
X117205632Y-104157233D01*
X117468422Y-104118067D01*
X117610209Y-104073523D01*
X117794393Y-103951826D01*
X117981056Y-103732396D01*
X118068544Y-103600144D01*
X118231022Y-103359234D01*
X118346661Y-103235420D01*
X118418623Y-103229059D01*
X118450075Y-103340506D01*
X118444180Y-103570116D01*
X118437681Y-103641625D01*
X118409975Y-103897883D01*
X118380728Y-104133769D01*
X118359716Y-104276625D01*
X118324366Y-104483000D01*
X116489933Y-104483000D01*
X115949321Y-104482167D01*
X115523036Y-104479256D01*
X115198411Y-104473643D01*
X114962779Y-104464704D01*
X114803476Y-104451818D01*
X114707836Y-104434361D01*
X114663192Y-104411711D01*
X114655500Y-104392795D01*
X114710364Y-104316628D01*
X114839415Y-104262196D01*
X114945463Y-104237158D01*
X115030254Y-104204810D01*
X115096030Y-104151927D01*
X115145033Y-104065287D01*
X115179504Y-103931664D01*
X115201686Y-103737836D01*
X115213819Y-103470578D01*
X115218147Y-103116667D01*
X115216909Y-102662878D01*
X115212349Y-102095988D01*
X115212070Y-102063954D01*
X115195250Y-100133250D01*
X114927676Y-100006250D01*
X114755231Y-99917124D01*
X114664082Y-99848110D01*
X114661549Y-99796806D01*
X114754954Y-99760809D01*
X114951617Y-99737717D01*
X115258860Y-99725128D01*
X115684004Y-99720639D01*
X115798500Y-99720500D01*
X116216284Y-99722112D01*
G37*
X116216284Y-99722112D02*
X116522541Y-99727747D01*
X116732712Y-99738596D01*
X116862238Y-99755855D01*
X116926559Y-99780716D01*
X116941500Y-99808866D01*
X116887325Y-99888540D01*
X116781134Y-99937481D01*
X116610799Y-100014848D01*
X116495384Y-100103115D01*
X116459356Y-100144906D01*
X116430968Y-100199600D01*
X116409315Y-100281631D01*
X116393488Y-100405437D01*
X116382581Y-100585452D01*
X116375686Y-100836112D01*
X116371896Y-101171852D01*
X116370303Y-101607109D01*
X116370000Y-102098149D01*
X116370194Y-102633909D01*
X116371459Y-103056902D01*
X116374815Y-103381360D01*
X116381281Y-103621516D01*
X116391879Y-103791603D01*
X116407628Y-103905853D01*
X116429550Y-103978499D01*
X116458664Y-104023774D01*
X116495990Y-104055910D01*
X116511129Y-104066649D01*
X116681250Y-104131238D01*
X116927996Y-104161529D01*
X117205632Y-104157233D01*
X117468422Y-104118067D01*
X117610209Y-104073523D01*
X117794393Y-103951826D01*
X117981056Y-103732396D01*
X118068544Y-103600144D01*
X118231022Y-103359234D01*
X118346661Y-103235420D01*
X118418623Y-103229059D01*
X118450075Y-103340506D01*
X118444180Y-103570116D01*
X118437681Y-103641625D01*
X118409975Y-103897883D01*
X118380728Y-104133769D01*
X118359716Y-104276625D01*
X118324366Y-104483000D01*
X116489933Y-104483000D01*
X115949321Y-104482167D01*
X115523036Y-104479256D01*
X115198411Y-104473643D01*
X114962779Y-104464704D01*
X114803476Y-104451818D01*
X114707836Y-104434361D01*
X114663192Y-104411711D01*
X114655500Y-104392795D01*
X114710364Y-104316628D01*
X114839415Y-104262196D01*
X114945463Y-104237158D01*
X115030254Y-104204810D01*
X115096030Y-104151927D01*
X115145033Y-104065287D01*
X115179504Y-103931664D01*
X115201686Y-103737836D01*
X115213819Y-103470578D01*
X115218147Y-103116667D01*
X115216909Y-102662878D01*
X115212349Y-102095988D01*
X115212070Y-102063954D01*
X115195250Y-100133250D01*
X114927676Y-100006250D01*
X114755231Y-99917124D01*
X114664082Y-99848110D01*
X114661549Y-99796806D01*
X114754954Y-99760809D01*
X114951617Y-99737717D01*
X115258860Y-99725128D01*
X115684004Y-99720639D01*
X115798500Y-99720500D01*
X116216284Y-99722112D01*
G36*
X102681395Y-97059542D02*
G01*
X103240165Y-97063412D01*
X103622375Y-97066382D01*
X104250937Y-97071510D01*
X104766023Y-97076547D01*
X105181154Y-97082302D01*
X105509850Y-97089586D01*
X105765631Y-97099207D01*
X105962019Y-97111975D01*
X106112534Y-97128700D01*
X106230697Y-97150190D01*
X106330028Y-97177256D01*
X106424048Y-97210707D01*
X106493781Y-97238290D01*
X106871471Y-97439055D01*
X107197202Y-97707044D01*
X107446896Y-98017538D01*
X107596476Y-98345815D01*
X107605156Y-98379314D01*
X107658988Y-98842254D01*
X107592387Y-99269210D01*
X107408106Y-99655087D01*
X107108898Y-99994789D01*
X106697517Y-100283222D01*
X106529334Y-100370262D01*
X106114750Y-100568609D01*
X106400500Y-100642225D01*
X106907671Y-100819027D01*
X107344641Y-101064890D01*
X107693833Y-101367569D01*
X107936142Y-101711821D01*
X108016926Y-101925651D01*
X108079301Y-102189410D01*
X108098774Y-102331537D01*
X108086112Y-102826783D01*
X107958602Y-103274679D01*
X107722337Y-103666631D01*
X107383410Y-103994043D01*
X106947917Y-104248321D01*
X106663686Y-104355707D01*
X106555526Y-104387613D01*
X106443982Y-104413715D01*
X106315573Y-104434592D01*
X106156815Y-104450822D01*
X105954224Y-104462984D01*
X105694317Y-104471654D01*
X105363611Y-104477412D01*
X104948623Y-104480836D01*
X104435870Y-104482503D01*
X103811868Y-104482992D01*
X103695061Y-104483000D01*
X103057016Y-104482784D01*
X102534465Y-104481783D01*
X102115903Y-104479463D01*
X101789825Y-104475291D01*
X101544725Y-104468736D01*
X101369098Y-104459265D01*
X101251438Y-104446344D01*
X101180239Y-104429442D01*
X101143998Y-104408025D01*
X101131207Y-104381561D01*
X101130000Y-104364252D01*
X101171735Y-104272459D01*
X101310612Y-104198407D01*
X101411295Y-104166747D01*
X101703721Y-104047594D01*
X101896767Y-103872085D01*
X102012956Y-103619477D01*
X102015546Y-103610288D01*
X102032356Y-103484738D01*
X102046750Y-103249116D01*
X102058730Y-102920327D01*
X102068301Y-102515276D01*
X102075463Y-102050868D01*
X102080219Y-101544009D01*
X102082571Y-101011603D01*
X102082564Y-100927000D01*
X103722211Y-100927000D01*
X103743730Y-102224221D01*
X103751906Y-102665746D01*
X103761078Y-102998871D01*
X103773191Y-103242192D01*
X103790192Y-103414305D01*
X103814025Y-103533805D01*
X103846638Y-103619289D01*
X103889974Y-103689353D01*
X103898197Y-103700596D01*
X104101364Y-103875550D01*
X104389000Y-103989729D01*
X104730981Y-104037108D01*
X105097183Y-104011661D01*
X105264969Y-103973981D01*
X105641394Y-103809862D01*
X105933115Y-103552991D01*
X106136023Y-103208770D01*
X106246006Y-102782601D01*
X106258092Y-102669055D01*
X106257358Y-102230239D01*
X106171455Y-101866201D01*
X105991650Y-101550296D01*
X105832237Y-101369956D01*
X105627570Y-101190287D01*
X105415737Y-101064794D01*
X105168347Y-100984869D01*
X104857010Y-100941902D01*
X104453332Y-100927285D01*
X104371363Y-100927000D01*
X103722211Y-100927000D01*
X102082564Y-100927000D01*
X102082522Y-100470554D01*
X102082286Y-100419000D01*
X103733500Y-100419000D01*
X104193875Y-100418645D01*
X104464429Y-100408873D01*
X104720737Y-100383681D01*
X104896869Y-100350920D01*
X105222179Y-100197642D01*
X105490747Y-99945253D01*
X105689306Y-99613969D01*
X105804590Y-99224006D01*
X105828645Y-98931099D01*
X105780221Y-98493486D01*
X105635552Y-98137196D01*
X105393579Y-97861250D01*
X105053239Y-97664671D01*
X104613474Y-97546480D01*
X104290254Y-97512129D01*
X103733500Y-97480384D01*
X103733500Y-100419000D01*
X102082286Y-100419000D01*
X102080074Y-99937770D01*
X102075230Y-99430153D01*
X102067991Y-98964610D01*
X102058361Y-98558045D01*
X102046341Y-98227363D01*
X102031934Y-97989470D01*
X102015142Y-97861270D01*
X102014749Y-97859821D01*
X101884864Y-97620259D01*
X101653536Y-97440170D01*
X101337526Y-97332585D01*
X101336375Y-97332367D01*
X101181840Y-97277294D01*
X101130325Y-97181298D01*
X101130000Y-97170040D01*
X101133563Y-97139008D01*
X101152050Y-97113800D01*
X101197151Y-97093929D01*
X101280557Y-97078908D01*
X101413962Y-97068251D01*
X101609056Y-97061472D01*
X101877532Y-97058085D01*
X102231081Y-97057604D01*
X102681395Y-97059542D01*
G37*
X102681395Y-97059542D02*
X103240165Y-97063412D01*
X103622375Y-97066382D01*
X104250937Y-97071510D01*
X104766023Y-97076547D01*
X105181154Y-97082302D01*
X105509850Y-97089586D01*
X105765631Y-97099207D01*
X105962019Y-97111975D01*
X106112534Y-97128700D01*
X106230697Y-97150190D01*
X106330028Y-97177256D01*
X106424048Y-97210707D01*
X106493781Y-97238290D01*
X106871471Y-97439055D01*
X107197202Y-97707044D01*
X107446896Y-98017538D01*
X107596476Y-98345815D01*
X107605156Y-98379314D01*
X107658988Y-98842254D01*
X107592387Y-99269210D01*
X107408106Y-99655087D01*
X107108898Y-99994789D01*
X106697517Y-100283222D01*
X106529334Y-100370262D01*
X106114750Y-100568609D01*
X106400500Y-100642225D01*
X106907671Y-100819027D01*
X107344641Y-101064890D01*
X107693833Y-101367569D01*
X107936142Y-101711821D01*
X108016926Y-101925651D01*
X108079301Y-102189410D01*
X108098774Y-102331537D01*
X108086112Y-102826783D01*
X107958602Y-103274679D01*
X107722337Y-103666631D01*
X107383410Y-103994043D01*
X106947917Y-104248321D01*
X106663686Y-104355707D01*
X106555526Y-104387613D01*
X106443982Y-104413715D01*
X106315573Y-104434592D01*
X106156815Y-104450822D01*
X105954224Y-104462984D01*
X105694317Y-104471654D01*
X105363611Y-104477412D01*
X104948623Y-104480836D01*
X104435870Y-104482503D01*
X103811868Y-104482992D01*
X103695061Y-104483000D01*
X103057016Y-104482784D01*
X102534465Y-104481783D01*
X102115903Y-104479463D01*
X101789825Y-104475291D01*
X101544725Y-104468736D01*
X101369098Y-104459265D01*
X101251438Y-104446344D01*
X101180239Y-104429442D01*
X101143998Y-104408025D01*
X101131207Y-104381561D01*
X101130000Y-104364252D01*
X101171735Y-104272459D01*
X101310612Y-104198407D01*
X101411295Y-104166747D01*
X101703721Y-104047594D01*
X101896767Y-103872085D01*
X102012956Y-103619477D01*
X102015546Y-103610288D01*
X102032356Y-103484738D01*
X102046750Y-103249116D01*
X102058730Y-102920327D01*
X102068301Y-102515276D01*
X102075463Y-102050868D01*
X102080219Y-101544009D01*
X102082571Y-101011603D01*
X102082564Y-100927000D01*
X103722211Y-100927000D01*
X103743730Y-102224221D01*
X103751906Y-102665746D01*
X103761078Y-102998871D01*
X103773191Y-103242192D01*
X103790192Y-103414305D01*
X103814025Y-103533805D01*
X103846638Y-103619289D01*
X103889974Y-103689353D01*
X103898197Y-103700596D01*
X104101364Y-103875550D01*
X104389000Y-103989729D01*
X104730981Y-104037108D01*
X105097183Y-104011661D01*
X105264969Y-103973981D01*
X105641394Y-103809862D01*
X105933115Y-103552991D01*
X106136023Y-103208770D01*
X106246006Y-102782601D01*
X106258092Y-102669055D01*
X106257358Y-102230239D01*
X106171455Y-101866201D01*
X105991650Y-101550296D01*
X105832237Y-101369956D01*
X105627570Y-101190287D01*
X105415737Y-101064794D01*
X105168347Y-100984869D01*
X104857010Y-100941902D01*
X104453332Y-100927285D01*
X104371363Y-100927000D01*
X103722211Y-100927000D01*
X102082564Y-100927000D01*
X102082522Y-100470554D01*
X102082286Y-100419000D01*
X103733500Y-100419000D01*
X104193875Y-100418645D01*
X104464429Y-100408873D01*
X104720737Y-100383681D01*
X104896869Y-100350920D01*
X105222179Y-100197642D01*
X105490747Y-99945253D01*
X105689306Y-99613969D01*
X105804590Y-99224006D01*
X105828645Y-98931099D01*
X105780221Y-98493486D01*
X105635552Y-98137196D01*
X105393579Y-97861250D01*
X105053239Y-97664671D01*
X104613474Y-97546480D01*
X104290254Y-97512129D01*
X103733500Y-97480384D01*
X103733500Y-100419000D01*
X102082286Y-100419000D01*
X102080074Y-99937770D01*
X102075230Y-99430153D01*
X102067991Y-98964610D01*
X102058361Y-98558045D01*
X102046341Y-98227363D01*
X102031934Y-97989470D01*
X102015142Y-97861270D01*
X102014749Y-97859821D01*
X101884864Y-97620259D01*
X101653536Y-97440170D01*
X101337526Y-97332585D01*
X101336375Y-97332367D01*
X101181840Y-97277294D01*
X101130325Y-97181298D01*
X101130000Y-97170040D01*
X101133563Y-97139008D01*
X101152050Y-97113800D01*
X101197151Y-97093929D01*
X101280557Y-97078908D01*
X101413962Y-97068251D01*
X101609056Y-97061472D01*
X101877532Y-97058085D01*
X102231081Y-97057604D01*
X102681395Y-97059542D01*
G36*
X113485784Y-99722112D02*
G01*
X113792041Y-99727747D01*
X114002212Y-99738596D01*
X114131738Y-99755855D01*
X114196059Y-99780716D01*
X114211000Y-99808866D01*
X114156825Y-99888540D01*
X114050634Y-99937481D01*
X113880299Y-100014848D01*
X113764884Y-100103115D01*
X113729075Y-100144623D01*
X113700810Y-100198943D01*
X113679199Y-100280401D01*
X113663354Y-100403322D01*
X113652385Y-100582031D01*
X113645405Y-100830855D01*
X113641523Y-101164119D01*
X113639851Y-101596148D01*
X113639500Y-102123658D01*
X113639663Y-102685629D01*
X113641826Y-103134136D01*
X113648502Y-103482715D01*
X113662201Y-103744900D01*
X113685435Y-103934227D01*
X113720714Y-104064232D01*
X113770550Y-104148448D01*
X113837456Y-104200412D01*
X113923941Y-104233660D01*
X114032517Y-104261725D01*
X114036375Y-104262686D01*
X114162814Y-104321813D01*
X114211000Y-104394633D01*
X114187797Y-104431315D01*
X114106615Y-104456702D01*
X113950087Y-104472585D01*
X113700850Y-104480754D01*
X113353750Y-104483000D01*
X112496500Y-104483000D01*
X112496500Y-103970885D01*
X112136575Y-104242817D01*
X111776650Y-104514750D01*
X111072950Y-104529297D01*
X110770487Y-104529456D01*
X110501335Y-104518537D01*
X110299255Y-104498542D01*
X110210500Y-104478177D01*
X110065337Y-104392907D01*
X109893858Y-104258864D01*
X109839957Y-104209629D01*
X109719694Y-104091750D01*
X109624623Y-103983794D01*
X109551460Y-103869331D01*
X109496921Y-103731932D01*
X109457722Y-103555169D01*
X109430578Y-103322611D01*
X109412205Y-103017830D01*
X109399318Y-102624396D01*
X109388635Y-102125880D01*
X109385000Y-101933745D01*
X109374092Y-101392724D01*
X109361847Y-100964636D01*
X109345084Y-100635429D01*
X109320621Y-100391049D01*
X109285275Y-100217444D01*
X109235867Y-100100561D01*
X109169213Y-100026346D01*
X109082134Y-99980747D01*
X108971446Y-99949710D01*
X108933915Y-99941303D01*
X108803190Y-99885682D01*
X108750000Y-99810704D01*
X108769413Y-99777853D01*
X108838128Y-99753782D01*
X108971858Y-99737251D01*
X109186314Y-99727022D01*
X109497208Y-99721852D01*
X109893000Y-99720500D01*
X110310784Y-99722112D01*
X110617041Y-99727747D01*
X110827212Y-99738596D01*
X110956738Y-99755855D01*
X111021059Y-99780716D01*
X111036000Y-99808866D01*
X110981825Y-99888540D01*
X110875634Y-99937481D01*
X110705299Y-100014848D01*
X110589884Y-100103115D01*
X110551514Y-100147959D01*
X110521868Y-100206702D01*
X110499828Y-100294979D01*
X110484273Y-100428422D01*
X110474084Y-100622666D01*
X110468142Y-100893344D01*
X110465327Y-101256090D01*
X110464519Y-101726537D01*
X110464500Y-101854028D01*
X110465593Y-102368104D01*
X110469476Y-102771259D01*
X110477053Y-103079554D01*
X110489227Y-103309054D01*
X110506904Y-103475822D01*
X110530987Y-103595921D01*
X110562381Y-103685416D01*
X110568312Y-103698325D01*
X110739374Y-103925314D01*
X110981641Y-104064675D01*
X111274115Y-104116108D01*
X111595791Y-104079318D01*
X111925670Y-103954005D01*
X112242749Y-103739871D01*
X112262993Y-103722365D01*
X112496500Y-103517343D01*
X112496500Y-101872921D01*
X112496011Y-101371811D01*
X112493811Y-100982169D01*
X112488799Y-100688464D01*
X112479876Y-100475168D01*
X112465941Y-100326748D01*
X112445893Y-100227676D01*
X112418634Y-100162420D01*
X112383061Y-100115451D01*
X112371115Y-100103115D01*
X112214960Y-99991234D01*
X112085365Y-99937481D01*
X111965449Y-99877532D01*
X111925000Y-99808866D01*
X111945861Y-99776566D01*
X112018741Y-99752889D01*
X112159079Y-99736641D01*
X112382316Y-99726627D01*
X112703895Y-99721655D01*
X113068000Y-99720500D01*
X113485784Y-99722112D01*
G37*
X113485784Y-99722112D02*
X113792041Y-99727747D01*
X114002212Y-99738596D01*
X114131738Y-99755855D01*
X114196059Y-99780716D01*
X114211000Y-99808866D01*
X114156825Y-99888540D01*
X114050634Y-99937481D01*
X113880299Y-100014848D01*
X113764884Y-100103115D01*
X113729075Y-100144623D01*
X113700810Y-100198943D01*
X113679199Y-100280401D01*
X113663354Y-100403322D01*
X113652385Y-100582031D01*
X113645405Y-100830855D01*
X113641523Y-101164119D01*
X113639851Y-101596148D01*
X113639500Y-102123658D01*
X113639663Y-102685629D01*
X113641826Y-103134136D01*
X113648502Y-103482715D01*
X113662201Y-103744900D01*
X113685435Y-103934227D01*
X113720714Y-104064232D01*
X113770550Y-104148448D01*
X113837456Y-104200412D01*
X113923941Y-104233660D01*
X114032517Y-104261725D01*
X114036375Y-104262686D01*
X114162814Y-104321813D01*
X114211000Y-104394633D01*
X114187797Y-104431315D01*
X114106615Y-104456702D01*
X113950087Y-104472585D01*
X113700850Y-104480754D01*
X113353750Y-104483000D01*
X112496500Y-104483000D01*
X112496500Y-103970885D01*
X112136575Y-104242817D01*
X111776650Y-104514750D01*
X111072950Y-104529297D01*
X110770487Y-104529456D01*
X110501335Y-104518537D01*
X110299255Y-104498542D01*
X110210500Y-104478177D01*
X110065337Y-104392907D01*
X109893858Y-104258864D01*
X109839957Y-104209629D01*
X109719694Y-104091750D01*
X109624623Y-103983794D01*
X109551460Y-103869331D01*
X109496921Y-103731932D01*
X109457722Y-103555169D01*
X109430578Y-103322611D01*
X109412205Y-103017830D01*
X109399318Y-102624396D01*
X109388635Y-102125880D01*
X109385000Y-101933745D01*
X109374092Y-101392724D01*
X109361847Y-100964636D01*
X109345084Y-100635429D01*
X109320621Y-100391049D01*
X109285275Y-100217444D01*
X109235867Y-100100561D01*
X109169213Y-100026346D01*
X109082134Y-99980747D01*
X108971446Y-99949710D01*
X108933915Y-99941303D01*
X108803190Y-99885682D01*
X108750000Y-99810704D01*
X108769413Y-99777853D01*
X108838128Y-99753782D01*
X108971858Y-99737251D01*
X109186314Y-99727022D01*
X109497208Y-99721852D01*
X109893000Y-99720500D01*
X110310784Y-99722112D01*
X110617041Y-99727747D01*
X110827212Y-99738596D01*
X110956738Y-99755855D01*
X111021059Y-99780716D01*
X111036000Y-99808866D01*
X110981825Y-99888540D01*
X110875634Y-99937481D01*
X110705299Y-100014848D01*
X110589884Y-100103115D01*
X110551514Y-100147959D01*
X110521868Y-100206702D01*
X110499828Y-100294979D01*
X110484273Y-100428422D01*
X110474084Y-100622666D01*
X110468142Y-100893344D01*
X110465327Y-101256090D01*
X110464519Y-101726537D01*
X110464500Y-101854028D01*
X110465593Y-102368104D01*
X110469476Y-102771259D01*
X110477053Y-103079554D01*
X110489227Y-103309054D01*
X110506904Y-103475822D01*
X110530987Y-103595921D01*
X110562381Y-103685416D01*
X110568312Y-103698325D01*
X110739374Y-103925314D01*
X110981641Y-104064675D01*
X111274115Y-104116108D01*
X111595791Y-104079318D01*
X111925670Y-103954005D01*
X112242749Y-103739871D01*
X112262993Y-103722365D01*
X112496500Y-103517343D01*
X112496500Y-101872921D01*
X112496011Y-101371811D01*
X112493811Y-100982169D01*
X112488799Y-100688464D01*
X112479876Y-100475168D01*
X112465941Y-100326748D01*
X112445893Y-100227676D01*
X112418634Y-100162420D01*
X112383061Y-100115451D01*
X112371115Y-100103115D01*
X112214960Y-99991234D01*
X112085365Y-99937481D01*
X111965449Y-99877532D01*
X111925000Y-99808866D01*
X111945861Y-99776566D01*
X112018741Y-99752889D01*
X112159079Y-99736641D01*
X112382316Y-99726627D01*
X112703895Y-99721655D01*
X113068000Y-99720500D01*
X113485784Y-99722112D01*
G36*
X139405116Y-101729038D02*
G01*
X139421483Y-105562500D01*
X139992000Y-105562500D01*
X139992000Y-106451500D01*
X139479763Y-106451500D01*
X139209429Y-106456526D01*
X139027433Y-106477169D01*
X138895319Y-106521776D01*
X138774632Y-106598694D01*
X138763762Y-106606918D01*
X138416292Y-106823871D01*
X137993414Y-107014496D01*
X137546602Y-107157991D01*
X137249343Y-107218933D01*
X136660995Y-107249883D01*
X136089634Y-107171499D01*
X135659688Y-107029788D01*
X135468561Y-106926519D01*
X135281166Y-106791975D01*
X135129658Y-106653275D01*
X135046197Y-106537539D01*
X135039000Y-106506340D01*
X134979607Y-106485121D01*
X134817829Y-106467722D01*
X134578263Y-106455922D01*
X134285507Y-106451501D01*
X134280773Y-106451500D01*
X133522547Y-106451500D01*
X133502898Y-107673875D01*
X133483250Y-108896250D01*
X133299735Y-109166807D01*
X133087433Y-109407064D01*
X132784957Y-109652059D01*
X132425923Y-109878152D01*
X132043944Y-110061701D01*
X132005956Y-110076737D01*
X131719542Y-110156201D01*
X131356021Y-110212402D01*
X130961807Y-110242293D01*
X130583315Y-110242828D01*
X130266958Y-110210960D01*
X130195061Y-110195622D01*
X129791986Y-110051917D01*
X129464945Y-109847694D01*
X129227815Y-109596225D01*
X129094471Y-109310780D01*
X129070000Y-109119613D01*
X129131692Y-108791860D01*
X129310207Y-108481743D01*
X129595704Y-108197672D01*
X129978340Y-107948060D01*
X130448276Y-107741317D01*
X130813716Y-107629242D01*
X131091069Y-107578022D01*
X131430529Y-107545572D01*
X131789802Y-107532886D01*
X132126596Y-107540955D01*
X132398615Y-107570771D01*
X132483544Y-107590067D01*
X132689500Y-107649134D01*
X132689500Y-106451500D01*
X100368000Y-106451500D01*
X100368000Y-105562500D01*
X132687954Y-105562500D01*
X133512257Y-105562500D01*
X135039000Y-105562500D01*
X135286794Y-105314705D01*
X135645315Y-105033141D01*
X136094584Y-104801299D01*
X136604864Y-104628749D01*
X137146418Y-104525063D01*
X137689507Y-104499812D01*
X137801250Y-104505389D01*
X138061423Y-104527099D01*
X138287246Y-104553050D01*
X138436380Y-104578234D01*
X138452125Y-104582391D01*
X138595000Y-104624812D01*
X138595000Y-102775906D01*
X138593432Y-102306199D01*
X138589000Y-101880594D01*
X138582108Y-101514820D01*
X138573164Y-101224605D01*
X138562571Y-101025678D01*
X138550736Y-100933765D01*
X138547375Y-100929337D01*
X138481046Y-100954835D01*
X138310926Y-101026759D01*
X138049202Y-101139782D01*
X137708060Y-101288579D01*
X137299687Y-101467823D01*
X136836269Y-101672187D01*
X136329992Y-101896346D01*
X136023250Y-102032559D01*
X133546750Y-103133442D01*
X133529503Y-104347971D01*
X133512257Y-105562500D01*
X132687954Y-105562500D01*
X132721250Y-100832432D01*
X139388750Y-97895576D01*
X139405116Y-101729038D01*
G37*
X139405116Y-101729038D02*
X139421483Y-105562500D01*
X139992000Y-105562500D01*
X139992000Y-106451500D01*
X139479763Y-106451500D01*
X139209429Y-106456526D01*
X139027433Y-106477169D01*
X138895319Y-106521776D01*
X138774632Y-106598694D01*
X138763762Y-106606918D01*
X138416292Y-106823871D01*
X137993414Y-107014496D01*
X137546602Y-107157991D01*
X137249343Y-107218933D01*
X136660995Y-107249883D01*
X136089634Y-107171499D01*
X135659688Y-107029788D01*
X135468561Y-106926519D01*
X135281166Y-106791975D01*
X135129658Y-106653275D01*
X135046197Y-106537539D01*
X135039000Y-106506340D01*
X134979607Y-106485121D01*
X134817829Y-106467722D01*
X134578263Y-106455922D01*
X134285507Y-106451501D01*
X134280773Y-106451500D01*
X133522547Y-106451500D01*
X133502898Y-107673875D01*
X133483250Y-108896250D01*
X133299735Y-109166807D01*
X133087433Y-109407064D01*
X132784957Y-109652059D01*
X132425923Y-109878152D01*
X132043944Y-110061701D01*
X132005956Y-110076737D01*
X131719542Y-110156201D01*
X131356021Y-110212402D01*
X130961807Y-110242293D01*
X130583315Y-110242828D01*
X130266958Y-110210960D01*
X130195061Y-110195622D01*
X129791986Y-110051917D01*
X129464945Y-109847694D01*
X129227815Y-109596225D01*
X129094471Y-109310780D01*
X129070000Y-109119613D01*
X129131692Y-108791860D01*
X129310207Y-108481743D01*
X129595704Y-108197672D01*
X129978340Y-107948060D01*
X130448276Y-107741317D01*
X130813716Y-107629242D01*
X131091069Y-107578022D01*
X131430529Y-107545572D01*
X131789802Y-107532886D01*
X132126596Y-107540955D01*
X132398615Y-107570771D01*
X132483544Y-107590067D01*
X132689500Y-107649134D01*
X132689500Y-106451500D01*
X100368000Y-106451500D01*
X100368000Y-105562500D01*
X132687954Y-105562500D01*
X133512257Y-105562500D01*
X135039000Y-105562500D01*
X135286794Y-105314705D01*
X135645315Y-105033141D01*
X136094584Y-104801299D01*
X136604864Y-104628749D01*
X137146418Y-104525063D01*
X137689507Y-104499812D01*
X137801250Y-104505389D01*
X138061423Y-104527099D01*
X138287246Y-104553050D01*
X138436380Y-104578234D01*
X138452125Y-104582391D01*
X138595000Y-104624812D01*
X138595000Y-102775906D01*
X138593432Y-102306199D01*
X138589000Y-101880594D01*
X138582108Y-101514820D01*
X138573164Y-101224605D01*
X138562571Y-101025678D01*
X138550736Y-100933765D01*
X138547375Y-100929337D01*
X138481046Y-100954835D01*
X138310926Y-101026759D01*
X138049202Y-101139782D01*
X137708060Y-101288579D01*
X137299687Y-101467823D01*
X136836269Y-101672187D01*
X136329992Y-101896346D01*
X136023250Y-102032559D01*
X133546750Y-103133442D01*
X133529503Y-104347971D01*
X133512257Y-105562500D01*
X132687954Y-105562500D01*
X132721250Y-100832432D01*
X139388750Y-97895576D01*
X139405116Y-101729038D01*
G36*
X121418250Y-110991750D02*
G01*
X119100500Y-111026364D01*
X119100500Y-110325000D01*
X121456636Y-110325000D01*
X121418250Y-110991750D01*
G37*
X121418250Y-110991750D02*
X119100500Y-111026364D01*
X119100500Y-110325000D01*
X121456636Y-110325000D01*
X121418250Y-110991750D01*
G36*
X127383418Y-107527091D02*
G01*
X127736012Y-107680997D01*
X128014796Y-107912111D01*
X128239858Y-108234677D01*
X128349053Y-108578060D01*
X128341470Y-108944508D01*
X128216202Y-109336269D01*
X127972340Y-109755592D01*
X127608974Y-110204724D01*
X127125195Y-110685915D01*
X126766731Y-110999369D01*
X126208184Y-111468000D01*
X128435000Y-111468000D01*
X128435000Y-112103000D01*
X126879250Y-112103000D01*
X126371329Y-112101552D01*
X125978679Y-112096812D01*
X125689600Y-112088183D01*
X125492392Y-112075067D01*
X125375354Y-112056867D01*
X125326787Y-112032986D01*
X125323791Y-112023625D01*
X125366550Y-111954533D01*
X125484965Y-111812160D01*
X125664543Y-111612677D01*
X125890791Y-111372256D01*
X126106298Y-111150500D01*
X126416491Y-110830693D01*
X126651183Y-110574566D01*
X126828235Y-110359705D01*
X126965510Y-110163696D01*
X127080872Y-109964126D01*
X127132590Y-109862750D01*
X127263453Y-109578832D01*
X127338812Y-109356222D01*
X127371646Y-109149272D01*
X127376338Y-109005500D01*
X127332988Y-108642760D01*
X127210727Y-108356436D01*
X127020170Y-108158059D01*
X126771929Y-108059162D01*
X126510165Y-108064325D01*
X126300352Y-108155244D01*
X126092981Y-108327206D01*
X125928750Y-108540154D01*
X125857283Y-108706914D01*
X125800141Y-108838780D01*
X125741970Y-108849394D01*
X125706905Y-108741985D01*
X125704500Y-108686467D01*
X125749611Y-108451821D01*
X125867642Y-108183034D01*
X126032637Y-107925671D01*
X126218640Y-107725296D01*
X126276911Y-107681609D01*
X126624550Y-107523508D01*
X127003158Y-107473298D01*
X127383418Y-107527091D01*
G37*
X127383418Y-107527091D02*
X127736012Y-107680997D01*
X128014796Y-107912111D01*
X128239858Y-108234677D01*
X128349053Y-108578060D01*
X128341470Y-108944508D01*
X128216202Y-109336269D01*
X127972340Y-109755592D01*
X127608974Y-110204724D01*
X127125195Y-110685915D01*
X126766731Y-110999369D01*
X126208184Y-111468000D01*
X128435000Y-111468000D01*
X128435000Y-112103000D01*
X126879250Y-112103000D01*
X126371329Y-112101552D01*
X125978679Y-112096812D01*
X125689600Y-112088183D01*
X125492392Y-112075067D01*
X125375354Y-112056867D01*
X125326787Y-112032986D01*
X125323791Y-112023625D01*
X125366550Y-111954533D01*
X125484965Y-111812160D01*
X125664543Y-111612677D01*
X125890791Y-111372256D01*
X126106298Y-111150500D01*
X126416491Y-110830693D01*
X126651183Y-110574566D01*
X126828235Y-110359705D01*
X126965510Y-110163696D01*
X127080872Y-109964126D01*
X127132590Y-109862750D01*
X127263453Y-109578832D01*
X127338812Y-109356222D01*
X127371646Y-109149272D01*
X127376338Y-109005500D01*
X127332988Y-108642760D01*
X127210727Y-108356436D01*
X127020170Y-108158059D01*
X126771929Y-108059162D01*
X126510165Y-108064325D01*
X126300352Y-108155244D01*
X126092981Y-108327206D01*
X125928750Y-108540154D01*
X125857283Y-108706914D01*
X125800141Y-108838780D01*
X125741970Y-108849394D01*
X125706905Y-108741985D01*
X125704500Y-108686467D01*
X125749611Y-108451821D01*
X125867642Y-108183034D01*
X126032637Y-107925671D01*
X126218640Y-107725296D01*
X126276911Y-107681609D01*
X126624550Y-107523508D01*
X127003158Y-107473298D01*
X127383418Y-107527091D01*
G36*
X117860781Y-107596575D02*
G01*
X118159585Y-107603537D01*
X118360376Y-107616492D01*
X118477621Y-107636546D01*
X118525785Y-107664803D01*
X118529000Y-107676993D01*
X118475059Y-107750805D01*
X118342259Y-107826218D01*
X118312218Y-107837876D01*
X118118386Y-107957079D01*
X118026468Y-108114108D01*
X118002646Y-108247512D01*
X117983756Y-108482381D01*
X117969726Y-108797148D01*
X117960481Y-109170248D01*
X117955948Y-109580114D01*
X117956052Y-110005182D01*
X117960719Y-110423885D01*
X117969875Y-110814656D01*
X117983447Y-111155931D01*
X118001360Y-111426143D01*
X118023541Y-111603727D01*
X118038616Y-111656354D01*
X118158932Y-111788226D01*
X118323430Y-111871915D01*
X118462678Y-111934743D01*
X118528257Y-112009400D01*
X118529000Y-112016935D01*
X118505668Y-112049378D01*
X118425418Y-112072925D01*
X118272867Y-112088803D01*
X118032634Y-112098239D01*
X117689336Y-112102458D01*
X117449500Y-112103000D01*
X117049499Y-112101550D01*
X116759785Y-112096219D01*
X116563669Y-112085535D01*
X116444461Y-112068025D01*
X116385471Y-112042216D01*
X116370000Y-112007750D01*
X116423223Y-111930242D01*
X116499886Y-111912500D01*
X116632340Y-111869445D01*
X116777112Y-111764975D01*
X116785636Y-111756636D01*
X116941500Y-111600772D01*
X116941500Y-109919270D01*
X116939292Y-109461781D01*
X116933074Y-109039615D01*
X116923452Y-108671416D01*
X116911034Y-108375832D01*
X116896427Y-108171507D01*
X116881633Y-108080308D01*
X116767541Y-107935966D01*
X116595883Y-107841167D01*
X116449680Y-107768563D01*
X116373237Y-107692079D01*
X116370000Y-107676993D01*
X116397155Y-107645564D01*
X116488265Y-107622730D01*
X116657795Y-107607385D01*
X116920212Y-107598426D01*
X117289980Y-107594745D01*
X117449500Y-107594500D01*
X117860781Y-107596575D01*
G37*
X117860781Y-107596575D02*
X118159585Y-107603537D01*
X118360376Y-107616492D01*
X118477621Y-107636546D01*
X118525785Y-107664803D01*
X118529000Y-107676993D01*
X118475059Y-107750805D01*
X118342259Y-107826218D01*
X118312218Y-107837876D01*
X118118386Y-107957079D01*
X118026468Y-108114108D01*
X118002646Y-108247512D01*
X117983756Y-108482381D01*
X117969726Y-108797148D01*
X117960481Y-109170248D01*
X117955948Y-109580114D01*
X117956052Y-110005182D01*
X117960719Y-110423885D01*
X117969875Y-110814656D01*
X117983447Y-111155931D01*
X118001360Y-111426143D01*
X118023541Y-111603727D01*
X118038616Y-111656354D01*
X118158932Y-111788226D01*
X118323430Y-111871915D01*
X118462678Y-111934743D01*
X118528257Y-112009400D01*
X118529000Y-112016935D01*
X118505668Y-112049378D01*
X118425418Y-112072925D01*
X118272867Y-112088803D01*
X118032634Y-112098239D01*
X117689336Y-112102458D01*
X117449500Y-112103000D01*
X117049499Y-112101550D01*
X116759785Y-112096219D01*
X116563669Y-112085535D01*
X116444461Y-112068025D01*
X116385471Y-112042216D01*
X116370000Y-112007750D01*
X116423223Y-111930242D01*
X116499886Y-111912500D01*
X116632340Y-111869445D01*
X116777112Y-111764975D01*
X116785636Y-111756636D01*
X116941500Y-111600772D01*
X116941500Y-109919270D01*
X116939292Y-109461781D01*
X116933074Y-109039615D01*
X116923452Y-108671416D01*
X116911034Y-108375832D01*
X116896427Y-108171507D01*
X116881633Y-108080308D01*
X116767541Y-107935966D01*
X116595883Y-107841167D01*
X116449680Y-107768563D01*
X116373237Y-107692079D01*
X116370000Y-107676993D01*
X116397155Y-107645564D01*
X116488265Y-107622730D01*
X116657795Y-107607385D01*
X116920212Y-107598426D01*
X117289980Y-107594745D01*
X117449500Y-107594500D01*
X117860781Y-107596575D01*
G36*
X112674465Y-107592695D02*
G01*
X113058394Y-107604923D01*
X113408026Y-107623263D01*
X113703221Y-107647658D01*
X113923837Y-107678055D01*
X113986529Y-107691839D01*
X114533756Y-107892175D01*
X114996822Y-108185405D01*
X115260519Y-108435380D01*
X115497528Y-108751005D01*
X115653980Y-109093680D01*
X115739601Y-109493158D01*
X115764137Y-109975750D01*
X115756973Y-110277551D01*
X115732935Y-110498577D01*
X115683307Y-110684793D01*
X115599371Y-110882162D01*
X115587563Y-110906746D01*
X115317115Y-111321541D01*
X114943656Y-111665308D01*
X114536120Y-111903917D01*
X114427427Y-111953590D01*
X114327030Y-111992495D01*
X114217951Y-112022153D01*
X114083209Y-112044084D01*
X113905825Y-112059809D01*
X113668819Y-112070850D01*
X113355212Y-112078726D01*
X112948023Y-112084958D01*
X112448875Y-112090857D01*
X111876581Y-112095421D01*
X111425565Y-112094622D01*
X111090211Y-112088299D01*
X110864902Y-112076293D01*
X110744025Y-112058444D01*
X110718500Y-112041660D01*
X110771408Y-111972311D01*
X110893008Y-111906508D01*
X111005671Y-111863307D01*
X111094727Y-111819470D01*
X111162949Y-111760627D01*
X111213108Y-111672407D01*
X111247979Y-111540440D01*
X111270332Y-111350356D01*
X111282940Y-111087783D01*
X111288576Y-110738351D01*
X111290012Y-110287690D01*
X111290000Y-109848750D01*
X111289758Y-109302976D01*
X111287222Y-108870262D01*
X111279670Y-108536668D01*
X111264382Y-108288252D01*
X111238639Y-108111077D01*
X111199720Y-107991201D01*
X111144906Y-107914685D01*
X111140720Y-107912000D01*
X112369500Y-107912000D01*
X112369500Y-109745724D01*
X112370276Y-110285878D01*
X112373076Y-110712766D01*
X112378606Y-111040117D01*
X112387572Y-111281659D01*
X112400682Y-111451120D01*
X112418641Y-111562227D01*
X112442155Y-111628710D01*
X112468077Y-111661261D01*
X112614303Y-111734270D01*
X112827159Y-111790532D01*
X113046328Y-111816969D01*
X113163250Y-111812017D01*
X113313321Y-111788813D01*
X113504667Y-111758634D01*
X113516833Y-111756696D01*
X113819709Y-111648965D01*
X114105910Y-111437195D01*
X114348697Y-111143949D01*
X114446028Y-110972659D01*
X114525888Y-110798814D01*
X114577561Y-110644138D01*
X114607076Y-110472658D01*
X114620460Y-110248406D01*
X114623742Y-109935409D01*
X114623750Y-109912250D01*
X114619902Y-109581479D01*
X114604843Y-109341614D01*
X114573298Y-109156703D01*
X114519992Y-108990790D01*
X114472026Y-108877982D01*
X114281689Y-108564644D01*
X114023123Y-108286375D01*
X113731354Y-108076131D01*
X113524765Y-107986677D01*
X113329918Y-107948025D01*
X113068107Y-107921042D01*
X112822507Y-107912000D01*
X112369500Y-107912000D01*
X111140720Y-107912000D01*
X111071476Y-107867588D01*
X110976709Y-107835971D01*
X110893125Y-107814813D01*
X110766685Y-107755686D01*
X110718500Y-107682866D01*
X110778558Y-107650765D01*
X110945307Y-107625163D01*
X111198604Y-107606004D01*
X111518309Y-107593233D01*
X111884282Y-107586795D01*
X112276381Y-107586634D01*
X112674465Y-107592695D01*
G37*
X112674465Y-107592695D02*
X113058394Y-107604923D01*
X113408026Y-107623263D01*
X113703221Y-107647658D01*
X113923837Y-107678055D01*
X113986529Y-107691839D01*
X114533756Y-107892175D01*
X114996822Y-108185405D01*
X115260519Y-108435380D01*
X115497528Y-108751005D01*
X115653980Y-109093680D01*
X115739601Y-109493158D01*
X115764137Y-109975750D01*
X115756973Y-110277551D01*
X115732935Y-110498577D01*
X115683307Y-110684793D01*
X115599371Y-110882162D01*
X115587563Y-110906746D01*
X115317115Y-111321541D01*
X114943656Y-111665308D01*
X114536120Y-111903917D01*
X114427427Y-111953590D01*
X114327030Y-111992495D01*
X114217951Y-112022153D01*
X114083209Y-112044084D01*
X113905825Y-112059809D01*
X113668819Y-112070850D01*
X113355212Y-112078726D01*
X112948023Y-112084958D01*
X112448875Y-112090857D01*
X111876581Y-112095421D01*
X111425565Y-112094622D01*
X111090211Y-112088299D01*
X110864902Y-112076293D01*
X110744025Y-112058444D01*
X110718500Y-112041660D01*
X110771408Y-111972311D01*
X110893008Y-111906508D01*
X111005671Y-111863307D01*
X111094727Y-111819470D01*
X111162949Y-111760627D01*
X111213108Y-111672407D01*
X111247979Y-111540440D01*
X111270332Y-111350356D01*
X111282940Y-111087783D01*
X111288576Y-110738351D01*
X111290012Y-110287690D01*
X111290000Y-109848750D01*
X111289758Y-109302976D01*
X111287222Y-108870262D01*
X111279670Y-108536668D01*
X111264382Y-108288252D01*
X111238639Y-108111077D01*
X111199720Y-107991201D01*
X111144906Y-107914685D01*
X111140720Y-107912000D01*
X112369500Y-107912000D01*
X112369500Y-109745724D01*
X112370276Y-110285878D01*
X112373076Y-110712766D01*
X112378606Y-111040117D01*
X112387572Y-111281659D01*
X112400682Y-111451120D01*
X112418641Y-111562227D01*
X112442155Y-111628710D01*
X112468077Y-111661261D01*
X112614303Y-111734270D01*
X112827159Y-111790532D01*
X113046328Y-111816969D01*
X113163250Y-111812017D01*
X113313321Y-111788813D01*
X113504667Y-111758634D01*
X113516833Y-111756696D01*
X113819709Y-111648965D01*
X114105910Y-111437195D01*
X114348697Y-111143949D01*
X114446028Y-110972659D01*
X114525888Y-110798814D01*
X114577561Y-110644138D01*
X114607076Y-110472658D01*
X114620460Y-110248406D01*
X114623742Y-109935409D01*
X114623750Y-109912250D01*
X114619902Y-109581479D01*
X114604843Y-109341614D01*
X114573298Y-109156703D01*
X114519992Y-108990790D01*
X114472026Y-108877982D01*
X114281689Y-108564644D01*
X114023123Y-108286375D01*
X113731354Y-108076131D01*
X113524765Y-107986677D01*
X113329918Y-107948025D01*
X113068107Y-107921042D01*
X112822507Y-107912000D01*
X112369500Y-107912000D01*
X111140720Y-107912000D01*
X111071476Y-107867588D01*
X110976709Y-107835971D01*
X110893125Y-107814813D01*
X110766685Y-107755686D01*
X110718500Y-107682866D01*
X110778558Y-107650765D01*
X110945307Y-107625163D01*
X111198604Y-107606004D01*
X111518309Y-107593233D01*
X111884282Y-107586795D01*
X112276381Y-107586634D01*
X112674465Y-107592695D01*
G36*
X109542281Y-107596575D02*
G01*
X109841085Y-107603537D01*
X110041876Y-107616492D01*
X110159121Y-107636546D01*
X110207285Y-107664803D01*
X110210500Y-107676993D01*
X110156559Y-107750805D01*
X110023759Y-107826218D01*
X109993718Y-107837876D01*
X109799886Y-107957079D01*
X109707968Y-108114108D01*
X109684146Y-108247512D01*
X109665256Y-108482381D01*
X109651226Y-108797148D01*
X109641981Y-109170248D01*
X109637448Y-109580114D01*
X109637552Y-110005182D01*
X109642219Y-110423885D01*
X109651375Y-110814656D01*
X109664947Y-111155931D01*
X109682860Y-111426143D01*
X109705041Y-111603727D01*
X109720116Y-111656354D01*
X109840432Y-111788226D01*
X110004930Y-111871915D01*
X110144178Y-111934743D01*
X110209757Y-112009400D01*
X110210500Y-112016935D01*
X110187168Y-112049378D01*
X110106918Y-112072925D01*
X109954367Y-112088803D01*
X109714134Y-112098239D01*
X109370836Y-112102458D01*
X109131000Y-112103000D01*
X108730999Y-112101550D01*
X108441285Y-112096219D01*
X108245169Y-112085535D01*
X108125961Y-112068025D01*
X108066971Y-112042216D01*
X108051500Y-112007750D01*
X108104723Y-111930242D01*
X108181386Y-111912500D01*
X108313840Y-111869445D01*
X108458612Y-111764975D01*
X108467136Y-111756636D01*
X108623000Y-111600772D01*
X108623000Y-109919270D01*
X108620792Y-109461781D01*
X108614574Y-109039615D01*
X108604952Y-108671416D01*
X108592534Y-108375832D01*
X108577927Y-108171507D01*
X108563133Y-108080308D01*
X108449041Y-107935966D01*
X108277383Y-107841167D01*
X108131180Y-107768563D01*
X108054737Y-107692079D01*
X108051500Y-107676993D01*
X108078655Y-107645564D01*
X108169765Y-107622730D01*
X108339295Y-107607385D01*
X108601712Y-107598426D01*
X108971480Y-107594745D01*
X109131000Y-107594500D01*
X109542281Y-107596575D01*
G37*
X109542281Y-107596575D02*
X109841085Y-107603537D01*
X110041876Y-107616492D01*
X110159121Y-107636546D01*
X110207285Y-107664803D01*
X110210500Y-107676993D01*
X110156559Y-107750805D01*
X110023759Y-107826218D01*
X109993718Y-107837876D01*
X109799886Y-107957079D01*
X109707968Y-108114108D01*
X109684146Y-108247512D01*
X109665256Y-108482381D01*
X109651226Y-108797148D01*
X109641981Y-109170248D01*
X109637448Y-109580114D01*
X109637552Y-110005182D01*
X109642219Y-110423885D01*
X109651375Y-110814656D01*
X109664947Y-111155931D01*
X109682860Y-111426143D01*
X109705041Y-111603727D01*
X109720116Y-111656354D01*
X109840432Y-111788226D01*
X110004930Y-111871915D01*
X110144178Y-111934743D01*
X110209757Y-112009400D01*
X110210500Y-112016935D01*
X110187168Y-112049378D01*
X110106918Y-112072925D01*
X109954367Y-112088803D01*
X109714134Y-112098239D01*
X109370836Y-112102458D01*
X109131000Y-112103000D01*
X108730999Y-112101550D01*
X108441285Y-112096219D01*
X108245169Y-112085535D01*
X108125961Y-112068025D01*
X108066971Y-112042216D01*
X108051500Y-112007750D01*
X108104723Y-111930242D01*
X108181386Y-111912500D01*
X108313840Y-111869445D01*
X108458612Y-111764975D01*
X108467136Y-111756636D01*
X108623000Y-111600772D01*
X108623000Y-109919270D01*
X108620792Y-109461781D01*
X108614574Y-109039615D01*
X108604952Y-108671416D01*
X108592534Y-108375832D01*
X108577927Y-108171507D01*
X108563133Y-108080308D01*
X108449041Y-107935966D01*
X108277383Y-107841167D01*
X108131180Y-107768563D01*
X108054737Y-107692079D01*
X108051500Y-107676993D01*
X108078655Y-107645564D01*
X108169765Y-107622730D01*
X108339295Y-107607385D01*
X108601712Y-107598426D01*
X108971480Y-107594745D01*
X109131000Y-107594500D01*
X109542281Y-107596575D01*
G36*
X103701776Y-109048030D02*
G01*
X104272556Y-110501561D01*
X104847632Y-109063905D01*
X105422709Y-107626250D01*
X106229104Y-107608477D01*
X106566422Y-107602998D01*
X106796272Y-107605355D01*
X106938047Y-107617456D01*
X107011141Y-107641211D01*
X107034946Y-107678529D01*
X107035500Y-107687852D01*
X106983068Y-107768029D01*
X106915534Y-107785000D01*
X106778576Y-107823581D01*
X106652978Y-107900463D01*
X106596327Y-107957136D01*
X106555553Y-108032024D01*
X106531217Y-108138882D01*
X106523880Y-108291464D01*
X106534101Y-108503526D01*
X106562440Y-108788822D01*
X106609459Y-109161106D01*
X106675716Y-109634133D01*
X106742112Y-110088647D01*
X106816425Y-110583892D01*
X106879316Y-110969238D01*
X106936606Y-111260611D01*
X106994116Y-111473934D01*
X107057666Y-111625135D01*
X107133077Y-111730137D01*
X107226169Y-111804867D01*
X107342763Y-111865248D01*
X107400625Y-111890366D01*
X107540213Y-111957799D01*
X107596672Y-112010030D01*
X107562478Y-112048766D01*
X107430110Y-112075715D01*
X107192047Y-112092584D01*
X106840767Y-112101081D01*
X106464000Y-112103000D01*
X106050967Y-112101660D01*
X105748654Y-112096737D01*
X105540800Y-112086877D01*
X105411142Y-112070723D01*
X105343421Y-112046922D01*
X105321375Y-112014117D01*
X105321000Y-112007750D01*
X105372057Y-111924253D01*
X105419136Y-111912500D01*
X105572369Y-111855717D01*
X105710563Y-111710822D01*
X105805290Y-111515995D01*
X105830710Y-111359761D01*
X105823048Y-111222063D01*
X105800861Y-110996247D01*
X105767181Y-110704227D01*
X105725041Y-110367917D01*
X105677472Y-110009230D01*
X105627508Y-109650081D01*
X105578181Y-109312382D01*
X105532524Y-109018048D01*
X105493570Y-108788992D01*
X105464351Y-108647128D01*
X105450327Y-108611098D01*
X105419192Y-108667920D01*
X105347644Y-108828367D01*
X105241755Y-109077874D01*
X105107599Y-109401879D01*
X104951249Y-109785819D01*
X104778777Y-110215132D01*
X104722115Y-110357348D01*
X104511580Y-110882678D01*
X104340627Y-111299114D01*
X104204577Y-111616803D01*
X104098750Y-111845888D01*
X104018468Y-111996515D01*
X103959052Y-112078829D01*
X103917015Y-112103000D01*
X103873607Y-112077309D01*
X103814052Y-111993478D01*
X103733700Y-111841366D01*
X103627900Y-111610831D01*
X103492000Y-111291734D01*
X103321348Y-110873933D01*
X103111294Y-110347289D01*
X103108756Y-110340875D01*
X102933329Y-109903270D01*
X102771904Y-109511507D01*
X102630399Y-109179091D01*
X102514734Y-108919527D01*
X102430828Y-108746322D01*
X102384600Y-108672980D01*
X102378180Y-108674000D01*
X102350725Y-108792547D01*
X102312326Y-109011990D01*
X102266391Y-109307037D01*
X102216325Y-109652397D01*
X102165534Y-110022779D01*
X102117424Y-110392890D01*
X102075402Y-110737440D01*
X102042872Y-111031138D01*
X102023243Y-111248691D01*
X102018999Y-111341101D01*
X102056939Y-111616439D01*
X102163793Y-111809659D01*
X102329115Y-111905096D01*
X102400000Y-111912500D01*
X102503428Y-111952204D01*
X102527000Y-112007750D01*
X102508602Y-112047419D01*
X102440887Y-112074608D01*
X102305068Y-112091485D01*
X102082360Y-112100215D01*
X101753977Y-112102968D01*
X101701500Y-112103000D01*
X101357695Y-112100877D01*
X101122055Y-112093063D01*
X100975796Y-112077392D01*
X100900131Y-112051695D01*
X100876275Y-112013805D01*
X100876000Y-112007750D01*
X100931354Y-111931238D01*
X101037636Y-111912500D01*
X101227462Y-111853777D01*
X101401908Y-111695764D01*
X101534570Y-111465688D01*
X101568545Y-111364985D01*
X101597238Y-111233259D01*
X101640950Y-110996891D01*
X101696119Y-110676876D01*
X101759180Y-110294204D01*
X101826569Y-109869868D01*
X101868350Y-109599067D01*
X102100160Y-108079384D01*
X101929039Y-107932192D01*
X101768289Y-107830837D01*
X101611114Y-107785202D01*
X101602709Y-107785000D01*
X101477685Y-107751243D01*
X101447500Y-107689750D01*
X101465734Y-107650413D01*
X101532856Y-107623335D01*
X101667496Y-107606406D01*
X101888283Y-107597518D01*
X102213848Y-107594564D01*
X102289248Y-107594500D01*
X103130997Y-107594500D01*
X103701776Y-109048030D01*
G37*
X103701776Y-109048030D02*
X104272556Y-110501561D01*
X104847632Y-109063905D01*
X105422709Y-107626250D01*
X106229104Y-107608477D01*
X106566422Y-107602998D01*
X106796272Y-107605355D01*
X106938047Y-107617456D01*
X107011141Y-107641211D01*
X107034946Y-107678529D01*
X107035500Y-107687852D01*
X106983068Y-107768029D01*
X106915534Y-107785000D01*
X106778576Y-107823581D01*
X106652978Y-107900463D01*
X106596327Y-107957136D01*
X106555553Y-108032024D01*
X106531217Y-108138882D01*
X106523880Y-108291464D01*
X106534101Y-108503526D01*
X106562440Y-108788822D01*
X106609459Y-109161106D01*
X106675716Y-109634133D01*
X106742112Y-110088647D01*
X106816425Y-110583892D01*
X106879316Y-110969238D01*
X106936606Y-111260611D01*
X106994116Y-111473934D01*
X107057666Y-111625135D01*
X107133077Y-111730137D01*
X107226169Y-111804867D01*
X107342763Y-111865248D01*
X107400625Y-111890366D01*
X107540213Y-111957799D01*
X107596672Y-112010030D01*
X107562478Y-112048766D01*
X107430110Y-112075715D01*
X107192047Y-112092584D01*
X106840767Y-112101081D01*
X106464000Y-112103000D01*
X106050967Y-112101660D01*
X105748654Y-112096737D01*
X105540800Y-112086877D01*
X105411142Y-112070723D01*
X105343421Y-112046922D01*
X105321375Y-112014117D01*
X105321000Y-112007750D01*
X105372057Y-111924253D01*
X105419136Y-111912500D01*
X105572369Y-111855717D01*
X105710563Y-111710822D01*
X105805290Y-111515995D01*
X105830710Y-111359761D01*
X105823048Y-111222063D01*
X105800861Y-110996247D01*
X105767181Y-110704227D01*
X105725041Y-110367917D01*
X105677472Y-110009230D01*
X105627508Y-109650081D01*
X105578181Y-109312382D01*
X105532524Y-109018048D01*
X105493570Y-108788992D01*
X105464351Y-108647128D01*
X105450327Y-108611098D01*
X105419192Y-108667920D01*
X105347644Y-108828367D01*
X105241755Y-109077874D01*
X105107599Y-109401879D01*
X104951249Y-109785819D01*
X104778777Y-110215132D01*
X104722115Y-110357348D01*
X104511580Y-110882678D01*
X104340627Y-111299114D01*
X104204577Y-111616803D01*
X104098750Y-111845888D01*
X104018468Y-111996515D01*
X103959052Y-112078829D01*
X103917015Y-112103000D01*
X103873607Y-112077309D01*
X103814052Y-111993478D01*
X103733700Y-111841366D01*
X103627900Y-111610831D01*
X103492000Y-111291734D01*
X103321348Y-110873933D01*
X103111294Y-110347289D01*
X103108756Y-110340875D01*
X102933329Y-109903270D01*
X102771904Y-109511507D01*
X102630399Y-109179091D01*
X102514734Y-108919527D01*
X102430828Y-108746322D01*
X102384600Y-108672980D01*
X102378180Y-108674000D01*
X102350725Y-108792547D01*
X102312326Y-109011990D01*
X102266391Y-109307037D01*
X102216325Y-109652397D01*
X102165534Y-110022779D01*
X102117424Y-110392890D01*
X102075402Y-110737440D01*
X102042872Y-111031138D01*
X102023243Y-111248691D01*
X102018999Y-111341101D01*
X102056939Y-111616439D01*
X102163793Y-111809659D01*
X102329115Y-111905096D01*
X102400000Y-111912500D01*
X102503428Y-111952204D01*
X102527000Y-112007750D01*
X102508602Y-112047419D01*
X102440887Y-112074608D01*
X102305068Y-112091485D01*
X102082360Y-112100215D01*
X101753977Y-112102968D01*
X101701500Y-112103000D01*
X101357695Y-112100877D01*
X101122055Y-112093063D01*
X100975796Y-112077392D01*
X100900131Y-112051695D01*
X100876275Y-112013805D01*
X100876000Y-112007750D01*
X100931354Y-111931238D01*
X101037636Y-111912500D01*
X101227462Y-111853777D01*
X101401908Y-111695764D01*
X101534570Y-111465688D01*
X101568545Y-111364985D01*
X101597238Y-111233259D01*
X101640950Y-110996891D01*
X101696119Y-110676876D01*
X101759180Y-110294204D01*
X101826569Y-109869868D01*
X101868350Y-109599067D01*
X102100160Y-108079384D01*
X101929039Y-107932192D01*
X101768289Y-107830837D01*
X101611114Y-107785202D01*
X101602709Y-107785000D01*
X101477685Y-107751243D01*
X101447500Y-107689750D01*
X101465734Y-107650413D01*
X101532856Y-107623335D01*
X101667496Y-107606406D01*
X101888283Y-107597518D01*
X102213848Y-107594564D01*
X102289248Y-107594500D01*
X103130997Y-107594500D01*
X103701776Y-109048030D01*
G36*
X123757374Y-107519431D02*
G01*
X124085373Y-107682340D01*
X124264865Y-107844814D01*
X124463650Y-108146571D01*
X124544074Y-108466402D01*
X124509643Y-108786629D01*
X124363861Y-109089579D01*
X124110232Y-109357575D01*
X123941777Y-109474322D01*
X123614001Y-109671395D01*
X123862638Y-109745889D01*
X124163532Y-109885814D01*
X124420390Y-110097677D01*
X124593265Y-110347882D01*
X124601884Y-110367620D01*
X124667799Y-110631574D01*
X124684666Y-110948286D01*
X124652418Y-111254241D01*
X124602957Y-111422414D01*
X124462028Y-111645016D01*
X124243872Y-111868181D01*
X123992207Y-112053721D01*
X123756369Y-112161920D01*
X123455574Y-112213898D01*
X123121768Y-112222884D01*
X122808676Y-112190363D01*
X122595811Y-112129836D01*
X122375845Y-112015466D01*
X122176496Y-111879328D01*
X122027714Y-111745197D01*
X121959449Y-111636849D01*
X121958000Y-111623518D01*
X121973721Y-111547537D01*
X122035851Y-111547633D01*
X122166844Y-111626738D01*
X122208895Y-111656289D01*
X122383494Y-111752126D01*
X122603964Y-111838086D01*
X122668417Y-111857109D01*
X122865894Y-111898300D01*
X123015369Y-111886880D01*
X123186989Y-111816826D01*
X123197371Y-111811695D01*
X123474140Y-111618959D01*
X123644706Y-111361886D01*
X123717268Y-111044105D01*
X123692752Y-110685561D01*
X123563011Y-110376072D01*
X123343576Y-110133700D01*
X123049976Y-109976505D01*
X122753578Y-109923346D01*
X122577996Y-109902429D01*
X122477245Y-109862100D01*
X122466001Y-109841383D01*
X122520979Y-109784178D01*
X122664043Y-109706356D01*
X122833764Y-109636423D01*
X123067007Y-109531159D01*
X123277196Y-109402474D01*
X123378602Y-109317504D01*
X123552462Y-109055150D01*
X123623532Y-108759733D01*
X123592318Y-108462845D01*
X123459324Y-108196079D01*
X123358958Y-108087538D01*
X123115742Y-107942177D01*
X122853042Y-107921981D01*
X122573145Y-108026996D01*
X122503791Y-108070750D01*
X122338027Y-108179573D01*
X122250733Y-108220593D01*
X122217050Y-108199849D01*
X122212000Y-108141639D01*
X122262936Y-108032340D01*
X122394171Y-107890858D01*
X122573348Y-107743635D01*
X122768108Y-107617115D01*
X122946091Y-107537742D01*
X122953630Y-107535579D01*
X123378045Y-107470020D01*
X123757374Y-107519431D01*
G37*
X123757374Y-107519431D02*
X124085373Y-107682340D01*
X124264865Y-107844814D01*
X124463650Y-108146571D01*
X124544074Y-108466402D01*
X124509643Y-108786629D01*
X124363861Y-109089579D01*
X124110232Y-109357575D01*
X123941777Y-109474322D01*
X123614001Y-109671395D01*
X123862638Y-109745889D01*
X124163532Y-109885814D01*
X124420390Y-110097677D01*
X124593265Y-110347882D01*
X124601884Y-110367620D01*
X124667799Y-110631574D01*
X124684666Y-110948286D01*
X124652418Y-111254241D01*
X124602957Y-111422414D01*
X124462028Y-111645016D01*
X124243872Y-111868181D01*
X123992207Y-112053721D01*
X123756369Y-112161920D01*
X123455574Y-112213898D01*
X123121768Y-112222884D01*
X122808676Y-112190363D01*
X122595811Y-112129836D01*
X122375845Y-112015466D01*
X122176496Y-111879328D01*
X122027714Y-111745197D01*
X121959449Y-111636849D01*
X121958000Y-111623518D01*
X121973721Y-111547537D01*
X122035851Y-111547633D01*
X122166844Y-111626738D01*
X122208895Y-111656289D01*
X122383494Y-111752126D01*
X122603964Y-111838086D01*
X122668417Y-111857109D01*
X122865894Y-111898300D01*
X123015369Y-111886880D01*
X123186989Y-111816826D01*
X123197371Y-111811695D01*
X123474140Y-111618959D01*
X123644706Y-111361886D01*
X123717268Y-111044105D01*
X123692752Y-110685561D01*
X123563011Y-110376072D01*
X123343576Y-110133700D01*
X123049976Y-109976505D01*
X122753578Y-109923346D01*
X122577996Y-109902429D01*
X122477245Y-109862100D01*
X122466001Y-109841383D01*
X122520979Y-109784178D01*
X122664043Y-109706356D01*
X122833764Y-109636423D01*
X123067007Y-109531159D01*
X123277196Y-109402474D01*
X123378602Y-109317504D01*
X123552462Y-109055150D01*
X123623532Y-108759733D01*
X123592318Y-108462845D01*
X123459324Y-108196079D01*
X123358958Y-108087538D01*
X123115742Y-107942177D01*
X122853042Y-107921981D01*
X122573145Y-108026996D01*
X122503791Y-108070750D01*
X122338027Y-108179573D01*
X122250733Y-108220593D01*
X122217050Y-108199849D01*
X122212000Y-108141639D01*
X122262936Y-108032340D01*
X122394171Y-107890858D01*
X122573348Y-107743635D01*
X122768108Y-107617115D01*
X122946091Y-107537742D01*
X122953630Y-107535579D01*
X123378045Y-107470020D01*
X123757374Y-107519431D01*
D11*
X79804047Y-56586428D02*
X80565952Y-56586428D01*
X85804047Y-56586428D02*
X86565952Y-56586428D01*
X86185000Y-56967380D02*
X86185000Y-56205476D01*
M02*
