G04 #@! TF.GenerationSoftware,KiCad,Pcbnew,(5.1.8)-1*
G04 #@! TF.CreationDate,2022-07-09T03:05:26+02:00*
G04 #@! TF.ProjectId,BulkyMIDI-32 Module Panel,42756c6b-794d-4494-9449-2d3332204d6f,rev?*
G04 #@! TF.SameCoordinates,Original*
G04 #@! TF.FileFunction,Copper,L2,Bot*
G04 #@! TF.FilePolarity,Positive*
%FSLAX46Y46*%
G04 Gerber Fmt 4.6, Leading zero omitted, Abs format (unit mm)*
G04 Created by KiCad (PCBNEW (5.1.8)-1) date 2022-07-09 03:05:26*
%MOMM*%
%LPD*%
G01*
G04 APERTURE LIST*
G04 #@! TA.AperFunction,ComponentPad*
%ADD10C,2.000000*%
G04 #@! TD*
G04 #@! TA.AperFunction,ComponentPad*
%ADD11C,3.500000*%
G04 #@! TD*
G04 #@! TA.AperFunction,ComponentPad*
%ADD12R,3.200000X2.000000*%
G04 #@! TD*
G04 #@! TA.AperFunction,ComponentPad*
%ADD13R,2.000000X2.000000*%
G04 #@! TD*
G04 #@! TA.AperFunction,SMDPad,CuDef*
%ADD14R,1.500000X1.000000*%
G04 #@! TD*
G04 #@! TA.AperFunction,ComponentPad*
%ADD15C,1.727200*%
G04 #@! TD*
G04 #@! TA.AperFunction,ComponentPad*
%ADD16R,1.727200X1.727200*%
G04 #@! TD*
G04 #@! TA.AperFunction,ComponentPad*
%ADD17R,1.700000X1.700000*%
G04 #@! TD*
G04 #@! TA.AperFunction,ComponentPad*
%ADD18O,1.700000X1.700000*%
G04 #@! TD*
G04 #@! TA.AperFunction,ComponentPad*
%ADD19R,1.800000X1.800000*%
G04 #@! TD*
G04 #@! TA.AperFunction,ComponentPad*
%ADD20C,1.800000*%
G04 #@! TD*
G04 #@! TA.AperFunction,SMDPad,CuDef*
%ADD21R,1.000000X1.500000*%
G04 #@! TD*
G04 #@! TA.AperFunction,ViaPad*
%ADD22C,0.800000*%
G04 #@! TD*
G04 #@! TA.AperFunction,Conductor*
%ADD23C,0.381000*%
G04 #@! TD*
G04 #@! TA.AperFunction,Conductor*
%ADD24C,0.250000*%
G04 #@! TD*
G04 #@! TA.AperFunction,Conductor*
%ADD25C,0.254000*%
G04 #@! TD*
G04 #@! TA.AperFunction,Conductor*
%ADD26C,0.100000*%
G04 #@! TD*
G04 APERTURE END LIST*
D10*
X115130000Y-115773000D03*
X115130000Y-120273000D03*
X108630000Y-115773000D03*
X108630000Y-120273000D03*
X108630000Y-129163000D03*
X108630000Y-124663000D03*
X115130000Y-129163000D03*
X115130000Y-124663000D03*
D11*
X99815000Y-129199000D03*
X182365000Y-129199000D03*
X182365000Y-115949000D03*
X99815000Y-115949000D03*
D10*
X162785000Y-119079000D03*
X162785000Y-124079000D03*
D12*
X169785000Y-115979000D03*
X169785000Y-127179000D03*
D10*
X177285000Y-119079000D03*
X177285000Y-121579000D03*
D13*
X177285000Y-124079000D03*
D14*
X172840000Y-121639000D03*
X172840000Y-120339000D03*
X172840000Y-119039000D03*
X167125000Y-124119000D03*
X167125000Y-122819000D03*
X167125000Y-121519000D03*
D15*
X144900000Y-114467000D03*
X142360000Y-114467000D03*
X139820000Y-114467000D03*
D16*
X137280000Y-114467000D03*
D17*
X133470000Y-130723000D03*
D18*
X136010000Y-130723000D03*
X138550000Y-130723000D03*
X141090000Y-130723000D03*
X143630000Y-130723000D03*
X146170000Y-130723000D03*
X148710000Y-130723000D03*
X151250000Y-130723000D03*
X153790000Y-130723000D03*
X156330000Y-130723000D03*
X158870000Y-130723000D03*
X161410000Y-130723000D03*
D19*
X99815000Y-122849000D03*
D20*
X99815000Y-120309000D03*
D21*
X133440000Y-124246000D03*
X134740000Y-124246000D03*
X136040000Y-124246000D03*
X133440000Y-121198000D03*
X134740000Y-121198000D03*
X136040000Y-121198000D03*
D22*
X132835000Y-116409000D03*
X131565000Y-124246000D03*
X152520000Y-129199000D03*
X142360000Y-119129000D03*
X141090008Y-119129000D03*
X134740000Y-126278000D03*
X133470000Y-119129010D03*
X165220000Y-123484010D03*
X170935000Y-120309000D03*
D23*
X136010000Y-124276000D02*
X136040000Y-124246000D01*
X133440000Y-121198000D02*
X133089000Y-121198000D01*
X131565000Y-117679000D02*
X131565000Y-117769000D01*
X132835000Y-116409000D02*
X131565000Y-117679000D01*
X131565000Y-119039000D02*
X131565000Y-119129000D01*
X131565000Y-119039000D02*
X131565000Y-117769000D01*
X133440000Y-121198000D02*
X131565000Y-121198000D01*
X133440000Y-124246000D02*
X131565000Y-124246000D01*
X131565000Y-119039000D02*
X131565000Y-121198000D01*
X131565000Y-121198000D02*
X131565000Y-124246000D01*
D24*
X146170000Y-130723000D02*
X146170000Y-129834000D01*
X146805000Y-129199000D02*
X152520000Y-129199000D01*
X146170000Y-129834000D02*
X146805000Y-129199000D01*
X172880000Y-119079000D02*
X172840000Y-119039000D01*
X177285000Y-119079000D02*
X172880000Y-119079000D01*
X172840000Y-119039000D02*
X167760000Y-119039000D01*
X167125000Y-119674000D02*
X167125000Y-121519000D01*
X167760000Y-119039000D02*
X167125000Y-119674000D01*
X172840000Y-121639000D02*
X172840000Y-123484000D01*
X173435000Y-124079000D02*
X177285000Y-124079000D01*
X172840000Y-123484000D02*
X173435000Y-124079000D01*
X177245000Y-124119000D02*
X177285000Y-124079000D01*
X167125000Y-124119000D02*
X177245000Y-124119000D01*
X144900000Y-116589000D02*
X142360000Y-119129000D01*
X144900000Y-114467000D02*
X144900000Y-116589000D01*
X142360000Y-114467000D02*
X142360000Y-117859008D01*
X142360000Y-117859008D02*
X141090008Y-119129000D01*
D23*
X134740000Y-124246000D02*
X134740000Y-126278000D01*
X133470000Y-118277000D02*
X133470000Y-119129010D01*
X137280000Y-114467000D02*
X133470000Y-118277000D01*
X134740000Y-120055000D02*
X134740000Y-121198000D01*
X139820000Y-114975000D02*
X134740000Y-120055000D01*
X139820000Y-114467000D02*
X139820000Y-114975000D01*
D24*
X167125000Y-122819000D02*
X165885010Y-122819000D01*
X165885010Y-122819000D02*
X165220000Y-123484010D01*
X172810000Y-120309000D02*
X172840000Y-120339000D01*
X170935000Y-120309000D02*
X172810000Y-120309000D01*
D25*
X117570000Y-112741580D02*
X117566807Y-112774000D01*
X117579550Y-112903383D01*
X117617290Y-113027793D01*
X117678575Y-113142450D01*
X117761052Y-113242948D01*
X117861550Y-113325425D01*
X117976207Y-113386710D01*
X118100617Y-113424450D01*
X118230000Y-113437193D01*
X118262419Y-113434000D01*
X135804214Y-113434000D01*
X135790588Y-113478918D01*
X135778328Y-113603400D01*
X135778328Y-114801238D01*
X133803042Y-116776526D01*
X133830226Y-116710898D01*
X133870000Y-116510939D01*
X133870000Y-116307061D01*
X133830226Y-116107102D01*
X133752205Y-115918744D01*
X133638937Y-115749226D01*
X133494774Y-115605063D01*
X133325256Y-115491795D01*
X133136898Y-115413774D01*
X132936939Y-115374000D01*
X132733061Y-115374000D01*
X132533102Y-115413774D01*
X132344744Y-115491795D01*
X132175226Y-115605063D01*
X132031063Y-115749226D01*
X131917795Y-115918744D01*
X131839774Y-116107102D01*
X131807572Y-116268996D01*
X131009966Y-117066602D01*
X130978459Y-117092459D01*
X130928396Y-117153462D01*
X130875301Y-117218158D01*
X130803399Y-117352677D01*
X130798647Y-117361567D01*
X130751444Y-117517175D01*
X130741454Y-117618609D01*
X130735506Y-117679000D01*
X130739500Y-117719550D01*
X130739500Y-117809553D01*
X130739501Y-117809563D01*
X130739500Y-118998447D01*
X130739500Y-118998448D01*
X130739501Y-121157437D01*
X130735506Y-121198000D01*
X130739500Y-121238553D01*
X130739501Y-123618496D01*
X130647795Y-123755744D01*
X130569774Y-123944102D01*
X130530000Y-124144061D01*
X130530000Y-124347939D01*
X130569774Y-124547898D01*
X130647795Y-124736256D01*
X130761063Y-124905774D01*
X130905226Y-125049937D01*
X131074744Y-125163205D01*
X131263102Y-125241226D01*
X131463061Y-125281000D01*
X131666939Y-125281000D01*
X131866898Y-125241226D01*
X132055256Y-125163205D01*
X132192503Y-125071500D01*
X132309364Y-125071500D01*
X132314188Y-125120482D01*
X132350498Y-125240180D01*
X132409463Y-125350494D01*
X132488815Y-125447185D01*
X132585506Y-125526537D01*
X132695820Y-125585502D01*
X132815518Y-125621812D01*
X132940000Y-125634072D01*
X133914501Y-125634072D01*
X133914501Y-125650496D01*
X133822795Y-125787744D01*
X133744774Y-125976102D01*
X133705000Y-126176061D01*
X133705000Y-126379939D01*
X133744774Y-126579898D01*
X133822795Y-126768256D01*
X133936063Y-126937774D01*
X134080226Y-127081937D01*
X134249744Y-127195205D01*
X134438102Y-127273226D01*
X134638061Y-127313000D01*
X134841939Y-127313000D01*
X135041898Y-127273226D01*
X135230256Y-127195205D01*
X135399774Y-127081937D01*
X135543937Y-126937774D01*
X135657205Y-126768256D01*
X135735226Y-126579898D01*
X135775000Y-126379939D01*
X135775000Y-126179000D01*
X167546928Y-126179000D01*
X167546928Y-128179000D01*
X167559188Y-128303482D01*
X167595498Y-128423180D01*
X167654463Y-128533494D01*
X167733815Y-128630185D01*
X167830506Y-128709537D01*
X167940820Y-128768502D01*
X168060518Y-128804812D01*
X168185000Y-128817072D01*
X171385000Y-128817072D01*
X171509482Y-128804812D01*
X171629180Y-128768502D01*
X171739494Y-128709537D01*
X171836185Y-128630185D01*
X171915537Y-128533494D01*
X171974502Y-128423180D01*
X172010812Y-128303482D01*
X172023072Y-128179000D01*
X172023072Y-127529391D01*
X180874997Y-127529391D01*
X182365000Y-129019395D01*
X183855003Y-127529391D01*
X183668927Y-127188234D01*
X183251591Y-126972487D01*
X182800185Y-126842304D01*
X182332054Y-126802687D01*
X181865189Y-126855158D01*
X181417532Y-126997703D01*
X181061073Y-127188234D01*
X180874997Y-127529391D01*
X172023072Y-127529391D01*
X172023072Y-126179000D01*
X172010812Y-126054518D01*
X171974502Y-125934820D01*
X171915537Y-125824506D01*
X171836185Y-125727815D01*
X171739494Y-125648463D01*
X171629180Y-125589498D01*
X171509482Y-125553188D01*
X171385000Y-125540928D01*
X168185000Y-125540928D01*
X168060518Y-125553188D01*
X167940820Y-125589498D01*
X167830506Y-125648463D01*
X167733815Y-125727815D01*
X167654463Y-125824506D01*
X167595498Y-125934820D01*
X167559188Y-126054518D01*
X167546928Y-126179000D01*
X135775000Y-126179000D01*
X135775000Y-126176061D01*
X135735226Y-125976102D01*
X135657205Y-125787744D01*
X135565500Y-125650497D01*
X135565500Y-125633706D01*
X135754250Y-125631000D01*
X135913000Y-125472250D01*
X135913000Y-124373000D01*
X136167000Y-124373000D01*
X136167000Y-125472250D01*
X136325750Y-125631000D01*
X136540000Y-125634072D01*
X136664482Y-125621812D01*
X136784180Y-125585502D01*
X136894494Y-125526537D01*
X136991185Y-125447185D01*
X137070537Y-125350494D01*
X137129502Y-125240180D01*
X137137318Y-125214413D01*
X161829192Y-125214413D01*
X161924956Y-125478814D01*
X162214571Y-125619704D01*
X162526108Y-125701384D01*
X162847595Y-125720718D01*
X163166675Y-125676961D01*
X163471088Y-125571795D01*
X163645044Y-125478814D01*
X163740808Y-125214413D01*
X162785000Y-124258605D01*
X161829192Y-125214413D01*
X137137318Y-125214413D01*
X137165812Y-125120482D01*
X137178072Y-124996000D01*
X137175000Y-124531750D01*
X137016250Y-124373000D01*
X136167000Y-124373000D01*
X135913000Y-124373000D01*
X135893000Y-124373000D01*
X135893000Y-124141595D01*
X161143282Y-124141595D01*
X161187039Y-124460675D01*
X161292205Y-124765088D01*
X161385186Y-124939044D01*
X161649587Y-125034808D01*
X162605395Y-124079000D01*
X162964605Y-124079000D01*
X163920413Y-125034808D01*
X164184814Y-124939044D01*
X164325704Y-124649429D01*
X164407384Y-124337892D01*
X164418888Y-124146609D01*
X164560226Y-124287947D01*
X164729744Y-124401215D01*
X164918102Y-124479236D01*
X165118061Y-124519010D01*
X165321939Y-124519010D01*
X165521898Y-124479236D01*
X165710256Y-124401215D01*
X165736928Y-124383393D01*
X165736928Y-124619000D01*
X165749188Y-124743482D01*
X165785498Y-124863180D01*
X165844463Y-124973494D01*
X165923815Y-125070185D01*
X166020506Y-125149537D01*
X166130820Y-125208502D01*
X166250518Y-125244812D01*
X166375000Y-125257072D01*
X167875000Y-125257072D01*
X167999482Y-125244812D01*
X168119180Y-125208502D01*
X168229494Y-125149537D01*
X168326185Y-125070185D01*
X168405537Y-124973494D01*
X168456046Y-124879000D01*
X175646928Y-124879000D01*
X175646928Y-125079000D01*
X175659188Y-125203482D01*
X175695498Y-125323180D01*
X175754463Y-125433494D01*
X175833815Y-125530185D01*
X175930506Y-125609537D01*
X176040820Y-125668502D01*
X176160518Y-125704812D01*
X176285000Y-125717072D01*
X178285000Y-125717072D01*
X178409482Y-125704812D01*
X178529180Y-125668502D01*
X178639494Y-125609537D01*
X178736185Y-125530185D01*
X178815537Y-125433494D01*
X178874502Y-125323180D01*
X178910812Y-125203482D01*
X178923072Y-125079000D01*
X178923072Y-123079000D01*
X178910812Y-122954518D01*
X178874502Y-122834820D01*
X178815537Y-122724506D01*
X178736185Y-122627815D01*
X178639494Y-122548463D01*
X178535777Y-122493024D01*
X178684814Y-122439044D01*
X178825704Y-122149429D01*
X178907384Y-121837892D01*
X178926718Y-121516405D01*
X178882961Y-121197325D01*
X178777795Y-120892912D01*
X178684814Y-120718956D01*
X178420413Y-120623192D01*
X177464605Y-121579000D01*
X177478748Y-121593143D01*
X177299143Y-121772748D01*
X177285000Y-121758605D01*
X177270858Y-121772748D01*
X177091253Y-121593143D01*
X177105395Y-121579000D01*
X176149587Y-120623192D01*
X175885186Y-120718956D01*
X175744296Y-121008571D01*
X175662616Y-121320108D01*
X175643282Y-121641595D01*
X175687039Y-121960675D01*
X175792205Y-122265088D01*
X175885186Y-122439044D01*
X176034223Y-122493024D01*
X175930506Y-122548463D01*
X175833815Y-122627815D01*
X175754463Y-122724506D01*
X175695498Y-122834820D01*
X175659188Y-122954518D01*
X175646928Y-123079000D01*
X175646928Y-123319000D01*
X173749802Y-123319000D01*
X173600000Y-123169199D01*
X173600000Y-122776087D01*
X173714482Y-122764812D01*
X173834180Y-122728502D01*
X173944494Y-122669537D01*
X174041185Y-122590185D01*
X174120537Y-122493494D01*
X174179502Y-122383180D01*
X174215812Y-122263482D01*
X174228072Y-122139000D01*
X174228072Y-121139000D01*
X174215812Y-121014518D01*
X174208071Y-120989000D01*
X174215812Y-120963482D01*
X174228072Y-120839000D01*
X174228072Y-119839000D01*
X175830091Y-119839000D01*
X175836082Y-119853463D01*
X176015013Y-120121252D01*
X176242748Y-120348987D01*
X176339935Y-120413925D01*
X176329192Y-120443587D01*
X177285000Y-121399395D01*
X178240808Y-120443587D01*
X178230065Y-120413925D01*
X178327252Y-120348987D01*
X178554987Y-120121252D01*
X178733918Y-119853463D01*
X178857168Y-119555912D01*
X178920000Y-119240033D01*
X178920000Y-118917967D01*
X178857168Y-118602088D01*
X178733918Y-118304537D01*
X178554987Y-118036748D01*
X178327252Y-117809013D01*
X178059463Y-117630082D01*
X178031765Y-117618609D01*
X180874997Y-117618609D01*
X181061073Y-117959766D01*
X181478409Y-118175513D01*
X181929815Y-118305696D01*
X182397946Y-118345313D01*
X182864811Y-118292842D01*
X183312468Y-118150297D01*
X183668927Y-117959766D01*
X183855003Y-117618609D01*
X182365000Y-116128605D01*
X180874997Y-117618609D01*
X178031765Y-117618609D01*
X177761912Y-117506832D01*
X177446033Y-117444000D01*
X177123967Y-117444000D01*
X176808088Y-117506832D01*
X176510537Y-117630082D01*
X176242748Y-117809013D01*
X176015013Y-118036748D01*
X175836082Y-118304537D01*
X175830091Y-118319000D01*
X174186837Y-118319000D01*
X174179502Y-118294820D01*
X174120537Y-118184506D01*
X174041185Y-118087815D01*
X173944494Y-118008463D01*
X173834180Y-117949498D01*
X173714482Y-117913188D01*
X173590000Y-117900928D01*
X172090000Y-117900928D01*
X171965518Y-117913188D01*
X171845820Y-117949498D01*
X171735506Y-118008463D01*
X171638815Y-118087815D01*
X171559463Y-118184506D01*
X171508954Y-118279000D01*
X167797333Y-118279000D01*
X167760000Y-118275323D01*
X167722667Y-118279000D01*
X167611014Y-118289997D01*
X167467753Y-118333454D01*
X167335724Y-118404026D01*
X167219999Y-118498999D01*
X167196200Y-118527998D01*
X166614002Y-119110197D01*
X166584999Y-119133999D01*
X166530157Y-119200825D01*
X166490026Y-119249724D01*
X166432988Y-119356434D01*
X166419454Y-119381754D01*
X166375997Y-119525015D01*
X166365000Y-119636668D01*
X166365000Y-119636678D01*
X166361324Y-119674000D01*
X166365000Y-119711323D01*
X166365000Y-120381913D01*
X166250518Y-120393188D01*
X166130820Y-120429498D01*
X166020506Y-120488463D01*
X165923815Y-120567815D01*
X165844463Y-120664506D01*
X165785498Y-120774820D01*
X165749188Y-120894518D01*
X165736928Y-121019000D01*
X165736928Y-122019000D01*
X165741894Y-122069419D01*
X165736024Y-122069997D01*
X165592763Y-122113454D01*
X165460734Y-122184026D01*
X165345009Y-122278999D01*
X165321210Y-122307998D01*
X165180198Y-122449010D01*
X165118061Y-122449010D01*
X164918102Y-122488784D01*
X164729744Y-122566805D01*
X164560226Y-122680073D01*
X164416063Y-122824236D01*
X164302795Y-122993754D01*
X164224774Y-123182112D01*
X164208595Y-123263448D01*
X164184814Y-123218956D01*
X163920413Y-123123192D01*
X162964605Y-124079000D01*
X162605395Y-124079000D01*
X161649587Y-123123192D01*
X161385186Y-123218956D01*
X161244296Y-123508571D01*
X161162616Y-123820108D01*
X161143282Y-124141595D01*
X135893000Y-124141595D01*
X135893000Y-124119000D01*
X135913000Y-124119000D01*
X135913000Y-123019750D01*
X136167000Y-123019750D01*
X136167000Y-124119000D01*
X137016250Y-124119000D01*
X137175000Y-123960250D01*
X137178072Y-123496000D01*
X137165812Y-123371518D01*
X137129502Y-123251820D01*
X137070537Y-123141506D01*
X136991185Y-123044815D01*
X136894494Y-122965463D01*
X136853568Y-122943587D01*
X161829192Y-122943587D01*
X162785000Y-123899395D01*
X163740808Y-122943587D01*
X163645044Y-122679186D01*
X163355429Y-122538296D01*
X163043892Y-122456616D01*
X162722405Y-122437282D01*
X162403325Y-122481039D01*
X162098912Y-122586205D01*
X161924956Y-122679186D01*
X161829192Y-122943587D01*
X136853568Y-122943587D01*
X136784180Y-122906498D01*
X136664482Y-122870188D01*
X136540000Y-122857928D01*
X136325750Y-122861000D01*
X136167000Y-123019750D01*
X135913000Y-123019750D01*
X135754250Y-122861000D01*
X135540000Y-122857928D01*
X135415518Y-122870188D01*
X135390000Y-122877929D01*
X135364482Y-122870188D01*
X135240000Y-122857928D01*
X134240000Y-122857928D01*
X134115518Y-122870188D01*
X134090000Y-122877929D01*
X134064482Y-122870188D01*
X133940000Y-122857928D01*
X132940000Y-122857928D01*
X132815518Y-122870188D01*
X132695820Y-122906498D01*
X132585506Y-122965463D01*
X132488815Y-123044815D01*
X132409463Y-123141506D01*
X132390500Y-123176983D01*
X132390500Y-122267017D01*
X132409463Y-122302494D01*
X132488815Y-122399185D01*
X132585506Y-122478537D01*
X132695820Y-122537502D01*
X132815518Y-122573812D01*
X132940000Y-122586072D01*
X133940000Y-122586072D01*
X134064482Y-122573812D01*
X134090000Y-122566071D01*
X134115518Y-122573812D01*
X134240000Y-122586072D01*
X135240000Y-122586072D01*
X135364482Y-122573812D01*
X135390000Y-122566071D01*
X135415518Y-122573812D01*
X135540000Y-122586072D01*
X135754250Y-122583000D01*
X135913000Y-122424250D01*
X135913000Y-121325000D01*
X136167000Y-121325000D01*
X136167000Y-122424250D01*
X136325750Y-122583000D01*
X136540000Y-122586072D01*
X136664482Y-122573812D01*
X136784180Y-122537502D01*
X136894494Y-122478537D01*
X136991185Y-122399185D01*
X137070537Y-122302494D01*
X137129502Y-122192180D01*
X137165812Y-122072482D01*
X137178072Y-121948000D01*
X137175000Y-121483750D01*
X137016250Y-121325000D01*
X136167000Y-121325000D01*
X135913000Y-121325000D01*
X135893000Y-121325000D01*
X135893000Y-121071000D01*
X135913000Y-121071000D01*
X135913000Y-121051000D01*
X136167000Y-121051000D01*
X136167000Y-121071000D01*
X137016250Y-121071000D01*
X137175000Y-120912250D01*
X137178072Y-120448000D01*
X137165812Y-120323518D01*
X137129502Y-120203820D01*
X137070537Y-120093506D01*
X136991185Y-119996815D01*
X136894494Y-119917463D01*
X136784180Y-119858498D01*
X136664482Y-119822188D01*
X136540000Y-119809928D01*
X136325750Y-119813000D01*
X136167002Y-119971748D01*
X136167002Y-119813000D01*
X136149432Y-119813000D01*
X140004093Y-115958341D01*
X140257125Y-115908010D01*
X140529853Y-115795042D01*
X140775302Y-115631039D01*
X140984039Y-115422302D01*
X141090000Y-115263719D01*
X141195961Y-115422302D01*
X141404698Y-115631039D01*
X141600000Y-115761535D01*
X141600001Y-117544205D01*
X141050207Y-118094000D01*
X140988069Y-118094000D01*
X140788110Y-118133774D01*
X140599752Y-118211795D01*
X140430234Y-118325063D01*
X140286071Y-118469226D01*
X140172803Y-118638744D01*
X140094782Y-118827102D01*
X140055008Y-119027061D01*
X140055008Y-119230939D01*
X140094782Y-119430898D01*
X140172803Y-119619256D01*
X140286071Y-119788774D01*
X140430234Y-119932937D01*
X140599752Y-120046205D01*
X140788110Y-120124226D01*
X140988069Y-120164000D01*
X141191947Y-120164000D01*
X141391906Y-120124226D01*
X141580264Y-120046205D01*
X141725004Y-119949493D01*
X141869744Y-120046205D01*
X142058102Y-120124226D01*
X142258061Y-120164000D01*
X142461939Y-120164000D01*
X142661898Y-120124226D01*
X142850256Y-120046205D01*
X143019774Y-119932937D01*
X143163937Y-119788774D01*
X143277205Y-119619256D01*
X143355226Y-119430898D01*
X143395000Y-119230939D01*
X143395000Y-119168801D01*
X143645834Y-118917967D01*
X161150000Y-118917967D01*
X161150000Y-119240033D01*
X161212832Y-119555912D01*
X161336082Y-119853463D01*
X161515013Y-120121252D01*
X161742748Y-120348987D01*
X162010537Y-120527918D01*
X162308088Y-120651168D01*
X162623967Y-120714000D01*
X162946033Y-120714000D01*
X163261912Y-120651168D01*
X163559463Y-120527918D01*
X163827252Y-120348987D01*
X164054987Y-120121252D01*
X164233918Y-119853463D01*
X164357168Y-119555912D01*
X164420000Y-119240033D01*
X164420000Y-118917967D01*
X164357168Y-118602088D01*
X164233918Y-118304537D01*
X164054987Y-118036748D01*
X163827252Y-117809013D01*
X163559463Y-117630082D01*
X163261912Y-117506832D01*
X162946033Y-117444000D01*
X162623967Y-117444000D01*
X162308088Y-117506832D01*
X162010537Y-117630082D01*
X161742748Y-117809013D01*
X161515013Y-118036748D01*
X161336082Y-118304537D01*
X161212832Y-118602088D01*
X161150000Y-118917967D01*
X143645834Y-118917967D01*
X145411008Y-117152795D01*
X145440001Y-117129001D01*
X145463795Y-117100008D01*
X145463799Y-117100004D01*
X145534973Y-117013277D01*
X145553295Y-116979000D01*
X145605546Y-116881247D01*
X145649003Y-116737986D01*
X145660000Y-116626333D01*
X145660000Y-116626324D01*
X145663676Y-116589001D01*
X145660000Y-116551678D01*
X145660000Y-115761535D01*
X145855302Y-115631039D01*
X146064039Y-115422302D01*
X146228042Y-115176853D01*
X146309995Y-114979000D01*
X167546928Y-114979000D01*
X167546928Y-116979000D01*
X167559188Y-117103482D01*
X167595498Y-117223180D01*
X167654463Y-117333494D01*
X167733815Y-117430185D01*
X167830506Y-117509537D01*
X167940820Y-117568502D01*
X168060518Y-117604812D01*
X168185000Y-117617072D01*
X171385000Y-117617072D01*
X171509482Y-117604812D01*
X171629180Y-117568502D01*
X171739494Y-117509537D01*
X171836185Y-117430185D01*
X171915537Y-117333494D01*
X171974502Y-117223180D01*
X172010812Y-117103482D01*
X172023072Y-116979000D01*
X172023072Y-115981946D01*
X179968687Y-115981946D01*
X180021158Y-116448811D01*
X180163703Y-116896468D01*
X180354234Y-117252927D01*
X180695391Y-117439003D01*
X182185395Y-115949000D01*
X182544605Y-115949000D01*
X184034609Y-117439003D01*
X184375766Y-117252927D01*
X184591513Y-116835591D01*
X184721696Y-116384185D01*
X184761313Y-115916054D01*
X184708842Y-115449189D01*
X184566297Y-115001532D01*
X184375766Y-114645073D01*
X184034609Y-114458997D01*
X182544605Y-115949000D01*
X182185395Y-115949000D01*
X180695391Y-114458997D01*
X180354234Y-114645073D01*
X180138487Y-115062409D01*
X180008304Y-115513815D01*
X179968687Y-115981946D01*
X172023072Y-115981946D01*
X172023072Y-114979000D01*
X172010812Y-114854518D01*
X171974502Y-114734820D01*
X171915537Y-114624506D01*
X171836185Y-114527815D01*
X171739494Y-114448463D01*
X171629180Y-114389498D01*
X171509482Y-114353188D01*
X171385000Y-114340928D01*
X168185000Y-114340928D01*
X168060518Y-114353188D01*
X167940820Y-114389498D01*
X167830506Y-114448463D01*
X167733815Y-114527815D01*
X167654463Y-114624506D01*
X167595498Y-114734820D01*
X167559188Y-114854518D01*
X167546928Y-114979000D01*
X146309995Y-114979000D01*
X146341010Y-114904125D01*
X146398600Y-114614599D01*
X146398600Y-114319401D01*
X146390642Y-114279391D01*
X180874997Y-114279391D01*
X182365000Y-115769395D01*
X183855003Y-114279391D01*
X183668927Y-113938234D01*
X183251591Y-113722487D01*
X182800185Y-113592304D01*
X182332054Y-113552687D01*
X181865189Y-113605158D01*
X181417532Y-113747703D01*
X181061073Y-113938234D01*
X180874997Y-114279391D01*
X146390642Y-114279391D01*
X146341010Y-114029875D01*
X146228042Y-113757147D01*
X146064039Y-113511698D01*
X145986341Y-113434000D01*
X163917581Y-113434000D01*
X163950000Y-113437193D01*
X163982419Y-113434000D01*
X164079383Y-113424450D01*
X164203793Y-113386710D01*
X164318450Y-113325425D01*
X164418948Y-113242948D01*
X164501425Y-113142450D01*
X164562710Y-113027793D01*
X164600450Y-112903383D01*
X164613193Y-112774000D01*
X164610000Y-112741581D01*
X164610000Y-111634000D01*
X168370001Y-111634000D01*
X168370000Y-112741580D01*
X168366807Y-112774000D01*
X168379550Y-112903383D01*
X168417290Y-113027793D01*
X168478575Y-113142450D01*
X168561052Y-113242948D01*
X168661550Y-113325425D01*
X168776207Y-113386710D01*
X168900617Y-113424450D01*
X169030000Y-113437193D01*
X169062419Y-113434000D01*
X190430001Y-113434000D01*
X190430000Y-131714000D01*
X169062419Y-131714000D01*
X169030000Y-131710807D01*
X168997581Y-131714000D01*
X168900617Y-131723550D01*
X168776207Y-131761290D01*
X168661550Y-131822575D01*
X168561052Y-131905052D01*
X168478575Y-132005550D01*
X168417290Y-132120207D01*
X168379550Y-132244617D01*
X168366807Y-132374000D01*
X168370000Y-132406418D01*
X168370001Y-133514000D01*
X164610000Y-133514000D01*
X164610000Y-132406418D01*
X164613193Y-132374000D01*
X164600450Y-132244617D01*
X164562710Y-132120207D01*
X164501425Y-132005550D01*
X164418948Y-131905052D01*
X164318450Y-131822575D01*
X164203793Y-131761290D01*
X164079383Y-131723550D01*
X163982419Y-131714000D01*
X163950000Y-131710807D01*
X163917581Y-131714000D01*
X162519107Y-131714000D01*
X162563475Y-131669632D01*
X162725990Y-131426411D01*
X162837932Y-131156158D01*
X162895000Y-130869260D01*
X162895000Y-130868609D01*
X180874997Y-130868609D01*
X181061073Y-131209766D01*
X181478409Y-131425513D01*
X181929815Y-131555696D01*
X182397946Y-131595313D01*
X182864811Y-131542842D01*
X183312468Y-131400297D01*
X183668927Y-131209766D01*
X183855003Y-130868609D01*
X182365000Y-129378605D01*
X180874997Y-130868609D01*
X162895000Y-130868609D01*
X162895000Y-130576740D01*
X162837932Y-130289842D01*
X162725990Y-130019589D01*
X162563475Y-129776368D01*
X162356632Y-129569525D01*
X162113411Y-129407010D01*
X161843158Y-129295068D01*
X161556260Y-129238000D01*
X161263740Y-129238000D01*
X160976842Y-129295068D01*
X160706589Y-129407010D01*
X160463368Y-129569525D01*
X160256525Y-129776368D01*
X160134805Y-129958534D01*
X160065178Y-129841645D01*
X159870269Y-129625412D01*
X159636920Y-129451359D01*
X159374099Y-129326175D01*
X159226890Y-129281524D01*
X158997000Y-129402845D01*
X158997000Y-130596000D01*
X159017000Y-130596000D01*
X159017000Y-130850000D01*
X158997000Y-130850000D01*
X158997000Y-130870000D01*
X158743000Y-130870000D01*
X158743000Y-130850000D01*
X158723000Y-130850000D01*
X158723000Y-130596000D01*
X158743000Y-130596000D01*
X158743000Y-129402845D01*
X158513110Y-129281524D01*
X158365901Y-129326175D01*
X158103080Y-129451359D01*
X157869731Y-129625412D01*
X157674822Y-129841645D01*
X157605195Y-129958534D01*
X157483475Y-129776368D01*
X157276632Y-129569525D01*
X157033411Y-129407010D01*
X156763158Y-129295068D01*
X156476260Y-129238000D01*
X156183740Y-129238000D01*
X155896842Y-129295068D01*
X155626589Y-129407010D01*
X155383368Y-129569525D01*
X155176525Y-129776368D01*
X155060000Y-129950760D01*
X154943475Y-129776368D01*
X154736632Y-129569525D01*
X154493411Y-129407010D01*
X154223158Y-129295068D01*
X153936260Y-129238000D01*
X153643740Y-129238000D01*
X153555000Y-129255652D01*
X153555000Y-129231946D01*
X179968687Y-129231946D01*
X180021158Y-129698811D01*
X180163703Y-130146468D01*
X180354234Y-130502927D01*
X180695391Y-130689003D01*
X182185395Y-129199000D01*
X182544605Y-129199000D01*
X184034609Y-130689003D01*
X184375766Y-130502927D01*
X184591513Y-130085591D01*
X184721696Y-129634185D01*
X184761313Y-129166054D01*
X184708842Y-128699189D01*
X184566297Y-128251532D01*
X184375766Y-127895073D01*
X184034609Y-127708997D01*
X182544605Y-129199000D01*
X182185395Y-129199000D01*
X180695391Y-127708997D01*
X180354234Y-127895073D01*
X180138487Y-128312409D01*
X180008304Y-128763815D01*
X179968687Y-129231946D01*
X153555000Y-129231946D01*
X153555000Y-129097061D01*
X153515226Y-128897102D01*
X153437205Y-128708744D01*
X153323937Y-128539226D01*
X153179774Y-128395063D01*
X153010256Y-128281795D01*
X152821898Y-128203774D01*
X152621939Y-128164000D01*
X152418061Y-128164000D01*
X152218102Y-128203774D01*
X152029744Y-128281795D01*
X151860226Y-128395063D01*
X151816289Y-128439000D01*
X146842333Y-128439000D01*
X146805000Y-128435323D01*
X146767667Y-128439000D01*
X146656014Y-128449997D01*
X146512753Y-128493454D01*
X146380724Y-128564026D01*
X146264999Y-128658999D01*
X146241200Y-128687998D01*
X145658998Y-129270201D01*
X145630000Y-129293999D01*
X145606202Y-129322997D01*
X145606201Y-129322998D01*
X145573646Y-129362666D01*
X145466589Y-129407010D01*
X145223368Y-129569525D01*
X145016525Y-129776368D01*
X144900000Y-129950760D01*
X144783475Y-129776368D01*
X144576632Y-129569525D01*
X144333411Y-129407010D01*
X144063158Y-129295068D01*
X143776260Y-129238000D01*
X143483740Y-129238000D01*
X143196842Y-129295068D01*
X142926589Y-129407010D01*
X142683368Y-129569525D01*
X142476525Y-129776368D01*
X142360000Y-129950760D01*
X142243475Y-129776368D01*
X142036632Y-129569525D01*
X141793411Y-129407010D01*
X141523158Y-129295068D01*
X141236260Y-129238000D01*
X140943740Y-129238000D01*
X140656842Y-129295068D01*
X140386589Y-129407010D01*
X140143368Y-129569525D01*
X139936525Y-129776368D01*
X139820000Y-129950760D01*
X139703475Y-129776368D01*
X139496632Y-129569525D01*
X139253411Y-129407010D01*
X138983158Y-129295068D01*
X138696260Y-129238000D01*
X138403740Y-129238000D01*
X138116842Y-129295068D01*
X137846589Y-129407010D01*
X137603368Y-129569525D01*
X137396525Y-129776368D01*
X137274805Y-129958534D01*
X137205178Y-129841645D01*
X137010269Y-129625412D01*
X136776920Y-129451359D01*
X136514099Y-129326175D01*
X136366890Y-129281524D01*
X136137000Y-129402845D01*
X136137000Y-130596000D01*
X136157000Y-130596000D01*
X136157000Y-130850000D01*
X136137000Y-130850000D01*
X136137000Y-130870000D01*
X135883000Y-130870000D01*
X135883000Y-130850000D01*
X135863000Y-130850000D01*
X135863000Y-130596000D01*
X135883000Y-130596000D01*
X135883000Y-129402845D01*
X135653110Y-129281524D01*
X135505901Y-129326175D01*
X135243080Y-129451359D01*
X135009731Y-129625412D01*
X134933966Y-129709466D01*
X134909502Y-129628820D01*
X134850537Y-129518506D01*
X134771185Y-129421815D01*
X134674494Y-129342463D01*
X134564180Y-129283498D01*
X134444482Y-129247188D01*
X134320000Y-129234928D01*
X132620000Y-129234928D01*
X132495518Y-129247188D01*
X132375820Y-129283498D01*
X132265506Y-129342463D01*
X132168815Y-129421815D01*
X132089463Y-129518506D01*
X132030498Y-129628820D01*
X131994188Y-129748518D01*
X131981928Y-129873000D01*
X131981928Y-131573000D01*
X131994188Y-131697482D01*
X131999199Y-131714000D01*
X118262419Y-131714000D01*
X118230000Y-131710807D01*
X118197581Y-131714000D01*
X118100617Y-131723550D01*
X117976207Y-131761290D01*
X117861550Y-131822575D01*
X117761052Y-131905052D01*
X117678575Y-132005550D01*
X117617290Y-132120207D01*
X117579550Y-132244617D01*
X117566807Y-132374000D01*
X117570000Y-132406418D01*
X117570001Y-133514000D01*
X113810000Y-133514000D01*
X113810000Y-132406418D01*
X113813193Y-132374000D01*
X113800450Y-132244617D01*
X113762710Y-132120207D01*
X113701425Y-132005550D01*
X113618948Y-131905052D01*
X113518450Y-131822575D01*
X113403793Y-131761290D01*
X113279383Y-131723550D01*
X113182419Y-131714000D01*
X113150000Y-131710807D01*
X113117581Y-131714000D01*
X91750000Y-131714000D01*
X91750000Y-130868609D01*
X98324997Y-130868609D01*
X98511073Y-131209766D01*
X98928409Y-131425513D01*
X99379815Y-131555696D01*
X99847946Y-131595313D01*
X100314811Y-131542842D01*
X100762468Y-131400297D01*
X101118927Y-131209766D01*
X101305003Y-130868609D01*
X99815000Y-129378605D01*
X98324997Y-130868609D01*
X91750000Y-130868609D01*
X91750000Y-129231946D01*
X97418687Y-129231946D01*
X97471158Y-129698811D01*
X97613703Y-130146468D01*
X97804234Y-130502927D01*
X98145391Y-130689003D01*
X99635395Y-129199000D01*
X99994605Y-129199000D01*
X101484609Y-130689003D01*
X101825766Y-130502927D01*
X101931492Y-130298413D01*
X107674192Y-130298413D01*
X107769956Y-130562814D01*
X108059571Y-130703704D01*
X108371108Y-130785384D01*
X108692595Y-130804718D01*
X109011675Y-130760961D01*
X109316088Y-130655795D01*
X109490044Y-130562814D01*
X109585808Y-130298413D01*
X114174192Y-130298413D01*
X114269956Y-130562814D01*
X114559571Y-130703704D01*
X114871108Y-130785384D01*
X115192595Y-130804718D01*
X115511675Y-130760961D01*
X115816088Y-130655795D01*
X115990044Y-130562814D01*
X116085808Y-130298413D01*
X115130000Y-129342605D01*
X114174192Y-130298413D01*
X109585808Y-130298413D01*
X108630000Y-129342605D01*
X107674192Y-130298413D01*
X101931492Y-130298413D01*
X102041513Y-130085591D01*
X102171696Y-129634185D01*
X102206274Y-129225595D01*
X106988282Y-129225595D01*
X107032039Y-129544675D01*
X107137205Y-129849088D01*
X107230186Y-130023044D01*
X107494587Y-130118808D01*
X108450395Y-129163000D01*
X108809605Y-129163000D01*
X109765413Y-130118808D01*
X110029814Y-130023044D01*
X110170704Y-129733429D01*
X110252384Y-129421892D01*
X110264189Y-129225595D01*
X113488282Y-129225595D01*
X113532039Y-129544675D01*
X113637205Y-129849088D01*
X113730186Y-130023044D01*
X113994587Y-130118808D01*
X114950395Y-129163000D01*
X115309605Y-129163000D01*
X116265413Y-130118808D01*
X116529814Y-130023044D01*
X116670704Y-129733429D01*
X116752384Y-129421892D01*
X116771718Y-129100405D01*
X116727961Y-128781325D01*
X116622795Y-128476912D01*
X116529814Y-128302956D01*
X116265413Y-128207192D01*
X115309605Y-129163000D01*
X114950395Y-129163000D01*
X113994587Y-128207192D01*
X113730186Y-128302956D01*
X113589296Y-128592571D01*
X113507616Y-128904108D01*
X113488282Y-129225595D01*
X110264189Y-129225595D01*
X110271718Y-129100405D01*
X110227961Y-128781325D01*
X110122795Y-128476912D01*
X110029814Y-128302956D01*
X109765413Y-128207192D01*
X108809605Y-129163000D01*
X108450395Y-129163000D01*
X107494587Y-128207192D01*
X107230186Y-128302956D01*
X107089296Y-128592571D01*
X107007616Y-128904108D01*
X106988282Y-129225595D01*
X102206274Y-129225595D01*
X102211313Y-129166054D01*
X102158842Y-128699189D01*
X102016297Y-128251532D01*
X101896597Y-128027587D01*
X107674192Y-128027587D01*
X108630000Y-128983395D01*
X109585808Y-128027587D01*
X114174192Y-128027587D01*
X115130000Y-128983395D01*
X116085808Y-128027587D01*
X115990044Y-127763186D01*
X115700429Y-127622296D01*
X115388892Y-127540616D01*
X115067405Y-127521282D01*
X114748325Y-127565039D01*
X114443912Y-127670205D01*
X114269956Y-127763186D01*
X114174192Y-128027587D01*
X109585808Y-128027587D01*
X109490044Y-127763186D01*
X109200429Y-127622296D01*
X108888892Y-127540616D01*
X108567405Y-127521282D01*
X108248325Y-127565039D01*
X107943912Y-127670205D01*
X107769956Y-127763186D01*
X107674192Y-128027587D01*
X101896597Y-128027587D01*
X101825766Y-127895073D01*
X101484609Y-127708997D01*
X99994605Y-129199000D01*
X99635395Y-129199000D01*
X98145391Y-127708997D01*
X97804234Y-127895073D01*
X97588487Y-128312409D01*
X97458304Y-128763815D01*
X97418687Y-129231946D01*
X91750000Y-129231946D01*
X91750000Y-127529391D01*
X98324997Y-127529391D01*
X99815000Y-129019395D01*
X101305003Y-127529391D01*
X101118927Y-127188234D01*
X100701591Y-126972487D01*
X100250185Y-126842304D01*
X99782054Y-126802687D01*
X99315189Y-126855158D01*
X98867532Y-126997703D01*
X98511073Y-127188234D01*
X98324997Y-127529391D01*
X91750000Y-127529391D01*
X91750000Y-124501967D01*
X106995000Y-124501967D01*
X106995000Y-124824033D01*
X107057832Y-125139912D01*
X107181082Y-125437463D01*
X107360013Y-125705252D01*
X107587748Y-125932987D01*
X107855537Y-126111918D01*
X108153088Y-126235168D01*
X108468967Y-126298000D01*
X108791033Y-126298000D01*
X109106912Y-126235168D01*
X109404463Y-126111918D01*
X109672252Y-125932987D01*
X109899987Y-125705252D01*
X110078918Y-125437463D01*
X110202168Y-125139912D01*
X110265000Y-124824033D01*
X110265000Y-124501967D01*
X113495000Y-124501967D01*
X113495000Y-124824033D01*
X113557832Y-125139912D01*
X113681082Y-125437463D01*
X113860013Y-125705252D01*
X114087748Y-125932987D01*
X114355537Y-126111918D01*
X114653088Y-126235168D01*
X114968967Y-126298000D01*
X115291033Y-126298000D01*
X115606912Y-126235168D01*
X115904463Y-126111918D01*
X116172252Y-125932987D01*
X116399987Y-125705252D01*
X116578918Y-125437463D01*
X116702168Y-125139912D01*
X116765000Y-124824033D01*
X116765000Y-124501967D01*
X116702168Y-124186088D01*
X116578918Y-123888537D01*
X116399987Y-123620748D01*
X116172252Y-123393013D01*
X115904463Y-123214082D01*
X115606912Y-123090832D01*
X115291033Y-123028000D01*
X114968967Y-123028000D01*
X114653088Y-123090832D01*
X114355537Y-123214082D01*
X114087748Y-123393013D01*
X113860013Y-123620748D01*
X113681082Y-123888537D01*
X113557832Y-124186088D01*
X113495000Y-124501967D01*
X110265000Y-124501967D01*
X110202168Y-124186088D01*
X110078918Y-123888537D01*
X109899987Y-123620748D01*
X109672252Y-123393013D01*
X109404463Y-123214082D01*
X109106912Y-123090832D01*
X108791033Y-123028000D01*
X108468967Y-123028000D01*
X108153088Y-123090832D01*
X107855537Y-123214082D01*
X107587748Y-123393013D01*
X107360013Y-123620748D01*
X107181082Y-123888537D01*
X107057832Y-124186088D01*
X106995000Y-124501967D01*
X91750000Y-124501967D01*
X91750000Y-123749000D01*
X98276928Y-123749000D01*
X98289188Y-123873482D01*
X98325498Y-123993180D01*
X98384463Y-124103494D01*
X98463815Y-124200185D01*
X98560506Y-124279537D01*
X98670820Y-124338502D01*
X98790518Y-124374812D01*
X98915000Y-124387072D01*
X99529250Y-124384000D01*
X99688000Y-124225250D01*
X99688000Y-122976000D01*
X99942000Y-122976000D01*
X99942000Y-124225250D01*
X100100750Y-124384000D01*
X100715000Y-124387072D01*
X100839482Y-124374812D01*
X100959180Y-124338502D01*
X101069494Y-124279537D01*
X101166185Y-124200185D01*
X101245537Y-124103494D01*
X101304502Y-123993180D01*
X101340812Y-123873482D01*
X101353072Y-123749000D01*
X101350000Y-123134750D01*
X101191250Y-122976000D01*
X99942000Y-122976000D01*
X99688000Y-122976000D01*
X98438750Y-122976000D01*
X98280000Y-123134750D01*
X98276928Y-123749000D01*
X91750000Y-123749000D01*
X91750000Y-121949000D01*
X98276928Y-121949000D01*
X98280000Y-122563250D01*
X98438750Y-122722000D01*
X99688000Y-122722000D01*
X99688000Y-122702000D01*
X99942000Y-122702000D01*
X99942000Y-122722000D01*
X101191250Y-122722000D01*
X101350000Y-122563250D01*
X101353072Y-121949000D01*
X101340812Y-121824518D01*
X101304502Y-121704820D01*
X101245537Y-121594506D01*
X101166185Y-121497815D01*
X101069494Y-121418463D01*
X101050693Y-121408413D01*
X107674192Y-121408413D01*
X107769956Y-121672814D01*
X108059571Y-121813704D01*
X108371108Y-121895384D01*
X108692595Y-121914718D01*
X109011675Y-121870961D01*
X109316088Y-121765795D01*
X109490044Y-121672814D01*
X109585808Y-121408413D01*
X114174192Y-121408413D01*
X114269956Y-121672814D01*
X114559571Y-121813704D01*
X114871108Y-121895384D01*
X115192595Y-121914718D01*
X115511675Y-121870961D01*
X115816088Y-121765795D01*
X115990044Y-121672814D01*
X116085808Y-121408413D01*
X115130000Y-120452605D01*
X114174192Y-121408413D01*
X109585808Y-121408413D01*
X108630000Y-120452605D01*
X107674192Y-121408413D01*
X101050693Y-121408413D01*
X100959180Y-121359498D01*
X100940873Y-121353944D01*
X101007312Y-121287505D01*
X101175299Y-121036095D01*
X101291011Y-120756743D01*
X101350000Y-120460184D01*
X101350000Y-120335595D01*
X106988282Y-120335595D01*
X107032039Y-120654675D01*
X107137205Y-120959088D01*
X107230186Y-121133044D01*
X107494587Y-121228808D01*
X108450395Y-120273000D01*
X108809605Y-120273000D01*
X109765413Y-121228808D01*
X110029814Y-121133044D01*
X110170704Y-120843429D01*
X110252384Y-120531892D01*
X110264189Y-120335595D01*
X113488282Y-120335595D01*
X113532039Y-120654675D01*
X113637205Y-120959088D01*
X113730186Y-121133044D01*
X113994587Y-121228808D01*
X114950395Y-120273000D01*
X115309605Y-120273000D01*
X116265413Y-121228808D01*
X116529814Y-121133044D01*
X116670704Y-120843429D01*
X116752384Y-120531892D01*
X116771718Y-120210405D01*
X116727961Y-119891325D01*
X116622795Y-119586912D01*
X116529814Y-119412956D01*
X116265413Y-119317192D01*
X115309605Y-120273000D01*
X114950395Y-120273000D01*
X113994587Y-119317192D01*
X113730186Y-119412956D01*
X113589296Y-119702571D01*
X113507616Y-120014108D01*
X113488282Y-120335595D01*
X110264189Y-120335595D01*
X110271718Y-120210405D01*
X110227961Y-119891325D01*
X110122795Y-119586912D01*
X110029814Y-119412956D01*
X109765413Y-119317192D01*
X108809605Y-120273000D01*
X108450395Y-120273000D01*
X107494587Y-119317192D01*
X107230186Y-119412956D01*
X107089296Y-119702571D01*
X107007616Y-120014108D01*
X106988282Y-120335595D01*
X101350000Y-120335595D01*
X101350000Y-120157816D01*
X101291011Y-119861257D01*
X101175299Y-119581905D01*
X101007312Y-119330495D01*
X100814404Y-119137587D01*
X107674192Y-119137587D01*
X108630000Y-120093395D01*
X109585808Y-119137587D01*
X114174192Y-119137587D01*
X115130000Y-120093395D01*
X116085808Y-119137587D01*
X115990044Y-118873186D01*
X115700429Y-118732296D01*
X115388892Y-118650616D01*
X115067405Y-118631282D01*
X114748325Y-118675039D01*
X114443912Y-118780205D01*
X114269956Y-118873186D01*
X114174192Y-119137587D01*
X109585808Y-119137587D01*
X109490044Y-118873186D01*
X109200429Y-118732296D01*
X108888892Y-118650616D01*
X108567405Y-118631282D01*
X108248325Y-118675039D01*
X107943912Y-118780205D01*
X107769956Y-118873186D01*
X107674192Y-119137587D01*
X100814404Y-119137587D01*
X100793505Y-119116688D01*
X100542095Y-118948701D01*
X100262743Y-118832989D01*
X99966184Y-118774000D01*
X99663816Y-118774000D01*
X99367257Y-118832989D01*
X99087905Y-118948701D01*
X98836495Y-119116688D01*
X98622688Y-119330495D01*
X98454701Y-119581905D01*
X98338989Y-119861257D01*
X98280000Y-120157816D01*
X98280000Y-120460184D01*
X98338989Y-120756743D01*
X98454701Y-121036095D01*
X98622688Y-121287505D01*
X98689127Y-121353944D01*
X98670820Y-121359498D01*
X98560506Y-121418463D01*
X98463815Y-121497815D01*
X98384463Y-121594506D01*
X98325498Y-121704820D01*
X98289188Y-121824518D01*
X98276928Y-121949000D01*
X91750000Y-121949000D01*
X91750000Y-117618609D01*
X98324997Y-117618609D01*
X98511073Y-117959766D01*
X98928409Y-118175513D01*
X99379815Y-118305696D01*
X99847946Y-118345313D01*
X100314811Y-118292842D01*
X100762468Y-118150297D01*
X101118927Y-117959766D01*
X101305003Y-117618609D01*
X99815000Y-116128605D01*
X98324997Y-117618609D01*
X91750000Y-117618609D01*
X91750000Y-115981946D01*
X97418687Y-115981946D01*
X97471158Y-116448811D01*
X97613703Y-116896468D01*
X97804234Y-117252927D01*
X98145391Y-117439003D01*
X99635395Y-115949000D01*
X99994605Y-115949000D01*
X101484609Y-117439003D01*
X101825766Y-117252927D01*
X102041513Y-116835591D01*
X102171696Y-116384185D01*
X102211313Y-115916054D01*
X102177137Y-115611967D01*
X106995000Y-115611967D01*
X106995000Y-115934033D01*
X107057832Y-116249912D01*
X107181082Y-116547463D01*
X107360013Y-116815252D01*
X107587748Y-117042987D01*
X107855537Y-117221918D01*
X108153088Y-117345168D01*
X108468967Y-117408000D01*
X108791033Y-117408000D01*
X109106912Y-117345168D01*
X109404463Y-117221918D01*
X109672252Y-117042987D01*
X109899987Y-116815252D01*
X110078918Y-116547463D01*
X110202168Y-116249912D01*
X110265000Y-115934033D01*
X110265000Y-115611967D01*
X113495000Y-115611967D01*
X113495000Y-115934033D01*
X113557832Y-116249912D01*
X113681082Y-116547463D01*
X113860013Y-116815252D01*
X114087748Y-117042987D01*
X114355537Y-117221918D01*
X114653088Y-117345168D01*
X114968967Y-117408000D01*
X115291033Y-117408000D01*
X115606912Y-117345168D01*
X115904463Y-117221918D01*
X116172252Y-117042987D01*
X116399987Y-116815252D01*
X116578918Y-116547463D01*
X116702168Y-116249912D01*
X116765000Y-115934033D01*
X116765000Y-115611967D01*
X116702168Y-115296088D01*
X116578918Y-114998537D01*
X116399987Y-114730748D01*
X116172252Y-114503013D01*
X115904463Y-114324082D01*
X115606912Y-114200832D01*
X115291033Y-114138000D01*
X114968967Y-114138000D01*
X114653088Y-114200832D01*
X114355537Y-114324082D01*
X114087748Y-114503013D01*
X113860013Y-114730748D01*
X113681082Y-114998537D01*
X113557832Y-115296088D01*
X113495000Y-115611967D01*
X110265000Y-115611967D01*
X110202168Y-115296088D01*
X110078918Y-114998537D01*
X109899987Y-114730748D01*
X109672252Y-114503013D01*
X109404463Y-114324082D01*
X109106912Y-114200832D01*
X108791033Y-114138000D01*
X108468967Y-114138000D01*
X108153088Y-114200832D01*
X107855537Y-114324082D01*
X107587748Y-114503013D01*
X107360013Y-114730748D01*
X107181082Y-114998537D01*
X107057832Y-115296088D01*
X106995000Y-115611967D01*
X102177137Y-115611967D01*
X102158842Y-115449189D01*
X102016297Y-115001532D01*
X101825766Y-114645073D01*
X101484609Y-114458997D01*
X99994605Y-115949000D01*
X99635395Y-115949000D01*
X98145391Y-114458997D01*
X97804234Y-114645073D01*
X97588487Y-115062409D01*
X97458304Y-115513815D01*
X97418687Y-115981946D01*
X91750000Y-115981946D01*
X91750000Y-114279391D01*
X98324997Y-114279391D01*
X99815000Y-115769395D01*
X101305003Y-114279391D01*
X101118927Y-113938234D01*
X100701591Y-113722487D01*
X100250185Y-113592304D01*
X99782054Y-113552687D01*
X99315189Y-113605158D01*
X98867532Y-113747703D01*
X98511073Y-113938234D01*
X98324997Y-114279391D01*
X91750000Y-114279391D01*
X91750000Y-113434000D01*
X113117581Y-113434000D01*
X113150000Y-113437193D01*
X113182419Y-113434000D01*
X113279383Y-113424450D01*
X113403793Y-113386710D01*
X113518450Y-113325425D01*
X113618948Y-113242948D01*
X113701425Y-113142450D01*
X113762710Y-113027793D01*
X113800450Y-112903383D01*
X113813193Y-112774000D01*
X113810000Y-112741581D01*
X113810000Y-111634000D01*
X117570001Y-111634000D01*
X117570000Y-112741580D01*
G04 #@! TA.AperFunction,Conductor*
D26*
G36*
X117570000Y-112741580D02*
G01*
X117566807Y-112774000D01*
X117579550Y-112903383D01*
X117617290Y-113027793D01*
X117678575Y-113142450D01*
X117761052Y-113242948D01*
X117861550Y-113325425D01*
X117976207Y-113386710D01*
X118100617Y-113424450D01*
X118230000Y-113437193D01*
X118262419Y-113434000D01*
X135804214Y-113434000D01*
X135790588Y-113478918D01*
X135778328Y-113603400D01*
X135778328Y-114801238D01*
X133803042Y-116776526D01*
X133830226Y-116710898D01*
X133870000Y-116510939D01*
X133870000Y-116307061D01*
X133830226Y-116107102D01*
X133752205Y-115918744D01*
X133638937Y-115749226D01*
X133494774Y-115605063D01*
X133325256Y-115491795D01*
X133136898Y-115413774D01*
X132936939Y-115374000D01*
X132733061Y-115374000D01*
X132533102Y-115413774D01*
X132344744Y-115491795D01*
X132175226Y-115605063D01*
X132031063Y-115749226D01*
X131917795Y-115918744D01*
X131839774Y-116107102D01*
X131807572Y-116268996D01*
X131009966Y-117066602D01*
X130978459Y-117092459D01*
X130928396Y-117153462D01*
X130875301Y-117218158D01*
X130803399Y-117352677D01*
X130798647Y-117361567D01*
X130751444Y-117517175D01*
X130741454Y-117618609D01*
X130735506Y-117679000D01*
X130739500Y-117719550D01*
X130739500Y-117809553D01*
X130739501Y-117809563D01*
X130739500Y-118998447D01*
X130739500Y-118998448D01*
X130739501Y-121157437D01*
X130735506Y-121198000D01*
X130739500Y-121238553D01*
X130739501Y-123618496D01*
X130647795Y-123755744D01*
X130569774Y-123944102D01*
X130530000Y-124144061D01*
X130530000Y-124347939D01*
X130569774Y-124547898D01*
X130647795Y-124736256D01*
X130761063Y-124905774D01*
X130905226Y-125049937D01*
X131074744Y-125163205D01*
X131263102Y-125241226D01*
X131463061Y-125281000D01*
X131666939Y-125281000D01*
X131866898Y-125241226D01*
X132055256Y-125163205D01*
X132192503Y-125071500D01*
X132309364Y-125071500D01*
X132314188Y-125120482D01*
X132350498Y-125240180D01*
X132409463Y-125350494D01*
X132488815Y-125447185D01*
X132585506Y-125526537D01*
X132695820Y-125585502D01*
X132815518Y-125621812D01*
X132940000Y-125634072D01*
X133914501Y-125634072D01*
X133914501Y-125650496D01*
X133822795Y-125787744D01*
X133744774Y-125976102D01*
X133705000Y-126176061D01*
X133705000Y-126379939D01*
X133744774Y-126579898D01*
X133822795Y-126768256D01*
X133936063Y-126937774D01*
X134080226Y-127081937D01*
X134249744Y-127195205D01*
X134438102Y-127273226D01*
X134638061Y-127313000D01*
X134841939Y-127313000D01*
X135041898Y-127273226D01*
X135230256Y-127195205D01*
X135399774Y-127081937D01*
X135543937Y-126937774D01*
X135657205Y-126768256D01*
X135735226Y-126579898D01*
X135775000Y-126379939D01*
X135775000Y-126179000D01*
X167546928Y-126179000D01*
X167546928Y-128179000D01*
X167559188Y-128303482D01*
X167595498Y-128423180D01*
X167654463Y-128533494D01*
X167733815Y-128630185D01*
X167830506Y-128709537D01*
X167940820Y-128768502D01*
X168060518Y-128804812D01*
X168185000Y-128817072D01*
X171385000Y-128817072D01*
X171509482Y-128804812D01*
X171629180Y-128768502D01*
X171739494Y-128709537D01*
X171836185Y-128630185D01*
X171915537Y-128533494D01*
X171974502Y-128423180D01*
X172010812Y-128303482D01*
X172023072Y-128179000D01*
X172023072Y-127529391D01*
X180874997Y-127529391D01*
X182365000Y-129019395D01*
X183855003Y-127529391D01*
X183668927Y-127188234D01*
X183251591Y-126972487D01*
X182800185Y-126842304D01*
X182332054Y-126802687D01*
X181865189Y-126855158D01*
X181417532Y-126997703D01*
X181061073Y-127188234D01*
X180874997Y-127529391D01*
X172023072Y-127529391D01*
X172023072Y-126179000D01*
X172010812Y-126054518D01*
X171974502Y-125934820D01*
X171915537Y-125824506D01*
X171836185Y-125727815D01*
X171739494Y-125648463D01*
X171629180Y-125589498D01*
X171509482Y-125553188D01*
X171385000Y-125540928D01*
X168185000Y-125540928D01*
X168060518Y-125553188D01*
X167940820Y-125589498D01*
X167830506Y-125648463D01*
X167733815Y-125727815D01*
X167654463Y-125824506D01*
X167595498Y-125934820D01*
X167559188Y-126054518D01*
X167546928Y-126179000D01*
X135775000Y-126179000D01*
X135775000Y-126176061D01*
X135735226Y-125976102D01*
X135657205Y-125787744D01*
X135565500Y-125650497D01*
X135565500Y-125633706D01*
X135754250Y-125631000D01*
X135913000Y-125472250D01*
X135913000Y-124373000D01*
X136167000Y-124373000D01*
X136167000Y-125472250D01*
X136325750Y-125631000D01*
X136540000Y-125634072D01*
X136664482Y-125621812D01*
X136784180Y-125585502D01*
X136894494Y-125526537D01*
X136991185Y-125447185D01*
X137070537Y-125350494D01*
X137129502Y-125240180D01*
X137137318Y-125214413D01*
X161829192Y-125214413D01*
X161924956Y-125478814D01*
X162214571Y-125619704D01*
X162526108Y-125701384D01*
X162847595Y-125720718D01*
X163166675Y-125676961D01*
X163471088Y-125571795D01*
X163645044Y-125478814D01*
X163740808Y-125214413D01*
X162785000Y-124258605D01*
X161829192Y-125214413D01*
X137137318Y-125214413D01*
X137165812Y-125120482D01*
X137178072Y-124996000D01*
X137175000Y-124531750D01*
X137016250Y-124373000D01*
X136167000Y-124373000D01*
X135913000Y-124373000D01*
X135893000Y-124373000D01*
X135893000Y-124141595D01*
X161143282Y-124141595D01*
X161187039Y-124460675D01*
X161292205Y-124765088D01*
X161385186Y-124939044D01*
X161649587Y-125034808D01*
X162605395Y-124079000D01*
X162964605Y-124079000D01*
X163920413Y-125034808D01*
X164184814Y-124939044D01*
X164325704Y-124649429D01*
X164407384Y-124337892D01*
X164418888Y-124146609D01*
X164560226Y-124287947D01*
X164729744Y-124401215D01*
X164918102Y-124479236D01*
X165118061Y-124519010D01*
X165321939Y-124519010D01*
X165521898Y-124479236D01*
X165710256Y-124401215D01*
X165736928Y-124383393D01*
X165736928Y-124619000D01*
X165749188Y-124743482D01*
X165785498Y-124863180D01*
X165844463Y-124973494D01*
X165923815Y-125070185D01*
X166020506Y-125149537D01*
X166130820Y-125208502D01*
X166250518Y-125244812D01*
X166375000Y-125257072D01*
X167875000Y-125257072D01*
X167999482Y-125244812D01*
X168119180Y-125208502D01*
X168229494Y-125149537D01*
X168326185Y-125070185D01*
X168405537Y-124973494D01*
X168456046Y-124879000D01*
X175646928Y-124879000D01*
X175646928Y-125079000D01*
X175659188Y-125203482D01*
X175695498Y-125323180D01*
X175754463Y-125433494D01*
X175833815Y-125530185D01*
X175930506Y-125609537D01*
X176040820Y-125668502D01*
X176160518Y-125704812D01*
X176285000Y-125717072D01*
X178285000Y-125717072D01*
X178409482Y-125704812D01*
X178529180Y-125668502D01*
X178639494Y-125609537D01*
X178736185Y-125530185D01*
X178815537Y-125433494D01*
X178874502Y-125323180D01*
X178910812Y-125203482D01*
X178923072Y-125079000D01*
X178923072Y-123079000D01*
X178910812Y-122954518D01*
X178874502Y-122834820D01*
X178815537Y-122724506D01*
X178736185Y-122627815D01*
X178639494Y-122548463D01*
X178535777Y-122493024D01*
X178684814Y-122439044D01*
X178825704Y-122149429D01*
X178907384Y-121837892D01*
X178926718Y-121516405D01*
X178882961Y-121197325D01*
X178777795Y-120892912D01*
X178684814Y-120718956D01*
X178420413Y-120623192D01*
X177464605Y-121579000D01*
X177478748Y-121593143D01*
X177299143Y-121772748D01*
X177285000Y-121758605D01*
X177270858Y-121772748D01*
X177091253Y-121593143D01*
X177105395Y-121579000D01*
X176149587Y-120623192D01*
X175885186Y-120718956D01*
X175744296Y-121008571D01*
X175662616Y-121320108D01*
X175643282Y-121641595D01*
X175687039Y-121960675D01*
X175792205Y-122265088D01*
X175885186Y-122439044D01*
X176034223Y-122493024D01*
X175930506Y-122548463D01*
X175833815Y-122627815D01*
X175754463Y-122724506D01*
X175695498Y-122834820D01*
X175659188Y-122954518D01*
X175646928Y-123079000D01*
X175646928Y-123319000D01*
X173749802Y-123319000D01*
X173600000Y-123169199D01*
X173600000Y-122776087D01*
X173714482Y-122764812D01*
X173834180Y-122728502D01*
X173944494Y-122669537D01*
X174041185Y-122590185D01*
X174120537Y-122493494D01*
X174179502Y-122383180D01*
X174215812Y-122263482D01*
X174228072Y-122139000D01*
X174228072Y-121139000D01*
X174215812Y-121014518D01*
X174208071Y-120989000D01*
X174215812Y-120963482D01*
X174228072Y-120839000D01*
X174228072Y-119839000D01*
X175830091Y-119839000D01*
X175836082Y-119853463D01*
X176015013Y-120121252D01*
X176242748Y-120348987D01*
X176339935Y-120413925D01*
X176329192Y-120443587D01*
X177285000Y-121399395D01*
X178240808Y-120443587D01*
X178230065Y-120413925D01*
X178327252Y-120348987D01*
X178554987Y-120121252D01*
X178733918Y-119853463D01*
X178857168Y-119555912D01*
X178920000Y-119240033D01*
X178920000Y-118917967D01*
X178857168Y-118602088D01*
X178733918Y-118304537D01*
X178554987Y-118036748D01*
X178327252Y-117809013D01*
X178059463Y-117630082D01*
X178031765Y-117618609D01*
X180874997Y-117618609D01*
X181061073Y-117959766D01*
X181478409Y-118175513D01*
X181929815Y-118305696D01*
X182397946Y-118345313D01*
X182864811Y-118292842D01*
X183312468Y-118150297D01*
X183668927Y-117959766D01*
X183855003Y-117618609D01*
X182365000Y-116128605D01*
X180874997Y-117618609D01*
X178031765Y-117618609D01*
X177761912Y-117506832D01*
X177446033Y-117444000D01*
X177123967Y-117444000D01*
X176808088Y-117506832D01*
X176510537Y-117630082D01*
X176242748Y-117809013D01*
X176015013Y-118036748D01*
X175836082Y-118304537D01*
X175830091Y-118319000D01*
X174186837Y-118319000D01*
X174179502Y-118294820D01*
X174120537Y-118184506D01*
X174041185Y-118087815D01*
X173944494Y-118008463D01*
X173834180Y-117949498D01*
X173714482Y-117913188D01*
X173590000Y-117900928D01*
X172090000Y-117900928D01*
X171965518Y-117913188D01*
X171845820Y-117949498D01*
X171735506Y-118008463D01*
X171638815Y-118087815D01*
X171559463Y-118184506D01*
X171508954Y-118279000D01*
X167797333Y-118279000D01*
X167760000Y-118275323D01*
X167722667Y-118279000D01*
X167611014Y-118289997D01*
X167467753Y-118333454D01*
X167335724Y-118404026D01*
X167219999Y-118498999D01*
X167196200Y-118527998D01*
X166614002Y-119110197D01*
X166584999Y-119133999D01*
X166530157Y-119200825D01*
X166490026Y-119249724D01*
X166432988Y-119356434D01*
X166419454Y-119381754D01*
X166375997Y-119525015D01*
X166365000Y-119636668D01*
X166365000Y-119636678D01*
X166361324Y-119674000D01*
X166365000Y-119711323D01*
X166365000Y-120381913D01*
X166250518Y-120393188D01*
X166130820Y-120429498D01*
X166020506Y-120488463D01*
X165923815Y-120567815D01*
X165844463Y-120664506D01*
X165785498Y-120774820D01*
X165749188Y-120894518D01*
X165736928Y-121019000D01*
X165736928Y-122019000D01*
X165741894Y-122069419D01*
X165736024Y-122069997D01*
X165592763Y-122113454D01*
X165460734Y-122184026D01*
X165345009Y-122278999D01*
X165321210Y-122307998D01*
X165180198Y-122449010D01*
X165118061Y-122449010D01*
X164918102Y-122488784D01*
X164729744Y-122566805D01*
X164560226Y-122680073D01*
X164416063Y-122824236D01*
X164302795Y-122993754D01*
X164224774Y-123182112D01*
X164208595Y-123263448D01*
X164184814Y-123218956D01*
X163920413Y-123123192D01*
X162964605Y-124079000D01*
X162605395Y-124079000D01*
X161649587Y-123123192D01*
X161385186Y-123218956D01*
X161244296Y-123508571D01*
X161162616Y-123820108D01*
X161143282Y-124141595D01*
X135893000Y-124141595D01*
X135893000Y-124119000D01*
X135913000Y-124119000D01*
X135913000Y-123019750D01*
X136167000Y-123019750D01*
X136167000Y-124119000D01*
X137016250Y-124119000D01*
X137175000Y-123960250D01*
X137178072Y-123496000D01*
X137165812Y-123371518D01*
X137129502Y-123251820D01*
X137070537Y-123141506D01*
X136991185Y-123044815D01*
X136894494Y-122965463D01*
X136853568Y-122943587D01*
X161829192Y-122943587D01*
X162785000Y-123899395D01*
X163740808Y-122943587D01*
X163645044Y-122679186D01*
X163355429Y-122538296D01*
X163043892Y-122456616D01*
X162722405Y-122437282D01*
X162403325Y-122481039D01*
X162098912Y-122586205D01*
X161924956Y-122679186D01*
X161829192Y-122943587D01*
X136853568Y-122943587D01*
X136784180Y-122906498D01*
X136664482Y-122870188D01*
X136540000Y-122857928D01*
X136325750Y-122861000D01*
X136167000Y-123019750D01*
X135913000Y-123019750D01*
X135754250Y-122861000D01*
X135540000Y-122857928D01*
X135415518Y-122870188D01*
X135390000Y-122877929D01*
X135364482Y-122870188D01*
X135240000Y-122857928D01*
X134240000Y-122857928D01*
X134115518Y-122870188D01*
X134090000Y-122877929D01*
X134064482Y-122870188D01*
X133940000Y-122857928D01*
X132940000Y-122857928D01*
X132815518Y-122870188D01*
X132695820Y-122906498D01*
X132585506Y-122965463D01*
X132488815Y-123044815D01*
X132409463Y-123141506D01*
X132390500Y-123176983D01*
X132390500Y-122267017D01*
X132409463Y-122302494D01*
X132488815Y-122399185D01*
X132585506Y-122478537D01*
X132695820Y-122537502D01*
X132815518Y-122573812D01*
X132940000Y-122586072D01*
X133940000Y-122586072D01*
X134064482Y-122573812D01*
X134090000Y-122566071D01*
X134115518Y-122573812D01*
X134240000Y-122586072D01*
X135240000Y-122586072D01*
X135364482Y-122573812D01*
X135390000Y-122566071D01*
X135415518Y-122573812D01*
X135540000Y-122586072D01*
X135754250Y-122583000D01*
X135913000Y-122424250D01*
X135913000Y-121325000D01*
X136167000Y-121325000D01*
X136167000Y-122424250D01*
X136325750Y-122583000D01*
X136540000Y-122586072D01*
X136664482Y-122573812D01*
X136784180Y-122537502D01*
X136894494Y-122478537D01*
X136991185Y-122399185D01*
X137070537Y-122302494D01*
X137129502Y-122192180D01*
X137165812Y-122072482D01*
X137178072Y-121948000D01*
X137175000Y-121483750D01*
X137016250Y-121325000D01*
X136167000Y-121325000D01*
X135913000Y-121325000D01*
X135893000Y-121325000D01*
X135893000Y-121071000D01*
X135913000Y-121071000D01*
X135913000Y-121051000D01*
X136167000Y-121051000D01*
X136167000Y-121071000D01*
X137016250Y-121071000D01*
X137175000Y-120912250D01*
X137178072Y-120448000D01*
X137165812Y-120323518D01*
X137129502Y-120203820D01*
X137070537Y-120093506D01*
X136991185Y-119996815D01*
X136894494Y-119917463D01*
X136784180Y-119858498D01*
X136664482Y-119822188D01*
X136540000Y-119809928D01*
X136325750Y-119813000D01*
X136167002Y-119971748D01*
X136167002Y-119813000D01*
X136149432Y-119813000D01*
X140004093Y-115958341D01*
X140257125Y-115908010D01*
X140529853Y-115795042D01*
X140775302Y-115631039D01*
X140984039Y-115422302D01*
X141090000Y-115263719D01*
X141195961Y-115422302D01*
X141404698Y-115631039D01*
X141600000Y-115761535D01*
X141600001Y-117544205D01*
X141050207Y-118094000D01*
X140988069Y-118094000D01*
X140788110Y-118133774D01*
X140599752Y-118211795D01*
X140430234Y-118325063D01*
X140286071Y-118469226D01*
X140172803Y-118638744D01*
X140094782Y-118827102D01*
X140055008Y-119027061D01*
X140055008Y-119230939D01*
X140094782Y-119430898D01*
X140172803Y-119619256D01*
X140286071Y-119788774D01*
X140430234Y-119932937D01*
X140599752Y-120046205D01*
X140788110Y-120124226D01*
X140988069Y-120164000D01*
X141191947Y-120164000D01*
X141391906Y-120124226D01*
X141580264Y-120046205D01*
X141725004Y-119949493D01*
X141869744Y-120046205D01*
X142058102Y-120124226D01*
X142258061Y-120164000D01*
X142461939Y-120164000D01*
X142661898Y-120124226D01*
X142850256Y-120046205D01*
X143019774Y-119932937D01*
X143163937Y-119788774D01*
X143277205Y-119619256D01*
X143355226Y-119430898D01*
X143395000Y-119230939D01*
X143395000Y-119168801D01*
X143645834Y-118917967D01*
X161150000Y-118917967D01*
X161150000Y-119240033D01*
X161212832Y-119555912D01*
X161336082Y-119853463D01*
X161515013Y-120121252D01*
X161742748Y-120348987D01*
X162010537Y-120527918D01*
X162308088Y-120651168D01*
X162623967Y-120714000D01*
X162946033Y-120714000D01*
X163261912Y-120651168D01*
X163559463Y-120527918D01*
X163827252Y-120348987D01*
X164054987Y-120121252D01*
X164233918Y-119853463D01*
X164357168Y-119555912D01*
X164420000Y-119240033D01*
X164420000Y-118917967D01*
X164357168Y-118602088D01*
X164233918Y-118304537D01*
X164054987Y-118036748D01*
X163827252Y-117809013D01*
X163559463Y-117630082D01*
X163261912Y-117506832D01*
X162946033Y-117444000D01*
X162623967Y-117444000D01*
X162308088Y-117506832D01*
X162010537Y-117630082D01*
X161742748Y-117809013D01*
X161515013Y-118036748D01*
X161336082Y-118304537D01*
X161212832Y-118602088D01*
X161150000Y-118917967D01*
X143645834Y-118917967D01*
X145411008Y-117152795D01*
X145440001Y-117129001D01*
X145463795Y-117100008D01*
X145463799Y-117100004D01*
X145534973Y-117013277D01*
X145553295Y-116979000D01*
X145605546Y-116881247D01*
X145649003Y-116737986D01*
X145660000Y-116626333D01*
X145660000Y-116626324D01*
X145663676Y-116589001D01*
X145660000Y-116551678D01*
X145660000Y-115761535D01*
X145855302Y-115631039D01*
X146064039Y-115422302D01*
X146228042Y-115176853D01*
X146309995Y-114979000D01*
X167546928Y-114979000D01*
X167546928Y-116979000D01*
X167559188Y-117103482D01*
X167595498Y-117223180D01*
X167654463Y-117333494D01*
X167733815Y-117430185D01*
X167830506Y-117509537D01*
X167940820Y-117568502D01*
X168060518Y-117604812D01*
X168185000Y-117617072D01*
X171385000Y-117617072D01*
X171509482Y-117604812D01*
X171629180Y-117568502D01*
X171739494Y-117509537D01*
X171836185Y-117430185D01*
X171915537Y-117333494D01*
X171974502Y-117223180D01*
X172010812Y-117103482D01*
X172023072Y-116979000D01*
X172023072Y-115981946D01*
X179968687Y-115981946D01*
X180021158Y-116448811D01*
X180163703Y-116896468D01*
X180354234Y-117252927D01*
X180695391Y-117439003D01*
X182185395Y-115949000D01*
X182544605Y-115949000D01*
X184034609Y-117439003D01*
X184375766Y-117252927D01*
X184591513Y-116835591D01*
X184721696Y-116384185D01*
X184761313Y-115916054D01*
X184708842Y-115449189D01*
X184566297Y-115001532D01*
X184375766Y-114645073D01*
X184034609Y-114458997D01*
X182544605Y-115949000D01*
X182185395Y-115949000D01*
X180695391Y-114458997D01*
X180354234Y-114645073D01*
X180138487Y-115062409D01*
X180008304Y-115513815D01*
X179968687Y-115981946D01*
X172023072Y-115981946D01*
X172023072Y-114979000D01*
X172010812Y-114854518D01*
X171974502Y-114734820D01*
X171915537Y-114624506D01*
X171836185Y-114527815D01*
X171739494Y-114448463D01*
X171629180Y-114389498D01*
X171509482Y-114353188D01*
X171385000Y-114340928D01*
X168185000Y-114340928D01*
X168060518Y-114353188D01*
X167940820Y-114389498D01*
X167830506Y-114448463D01*
X167733815Y-114527815D01*
X167654463Y-114624506D01*
X167595498Y-114734820D01*
X167559188Y-114854518D01*
X167546928Y-114979000D01*
X146309995Y-114979000D01*
X146341010Y-114904125D01*
X146398600Y-114614599D01*
X146398600Y-114319401D01*
X146390642Y-114279391D01*
X180874997Y-114279391D01*
X182365000Y-115769395D01*
X183855003Y-114279391D01*
X183668927Y-113938234D01*
X183251591Y-113722487D01*
X182800185Y-113592304D01*
X182332054Y-113552687D01*
X181865189Y-113605158D01*
X181417532Y-113747703D01*
X181061073Y-113938234D01*
X180874997Y-114279391D01*
X146390642Y-114279391D01*
X146341010Y-114029875D01*
X146228042Y-113757147D01*
X146064039Y-113511698D01*
X145986341Y-113434000D01*
X163917581Y-113434000D01*
X163950000Y-113437193D01*
X163982419Y-113434000D01*
X164079383Y-113424450D01*
X164203793Y-113386710D01*
X164318450Y-113325425D01*
X164418948Y-113242948D01*
X164501425Y-113142450D01*
X164562710Y-113027793D01*
X164600450Y-112903383D01*
X164613193Y-112774000D01*
X164610000Y-112741581D01*
X164610000Y-111634000D01*
X168370001Y-111634000D01*
X168370000Y-112741580D01*
X168366807Y-112774000D01*
X168379550Y-112903383D01*
X168417290Y-113027793D01*
X168478575Y-113142450D01*
X168561052Y-113242948D01*
X168661550Y-113325425D01*
X168776207Y-113386710D01*
X168900617Y-113424450D01*
X169030000Y-113437193D01*
X169062419Y-113434000D01*
X190430001Y-113434000D01*
X190430000Y-131714000D01*
X169062419Y-131714000D01*
X169030000Y-131710807D01*
X168997581Y-131714000D01*
X168900617Y-131723550D01*
X168776207Y-131761290D01*
X168661550Y-131822575D01*
X168561052Y-131905052D01*
X168478575Y-132005550D01*
X168417290Y-132120207D01*
X168379550Y-132244617D01*
X168366807Y-132374000D01*
X168370000Y-132406418D01*
X168370001Y-133514000D01*
X164610000Y-133514000D01*
X164610000Y-132406418D01*
X164613193Y-132374000D01*
X164600450Y-132244617D01*
X164562710Y-132120207D01*
X164501425Y-132005550D01*
X164418948Y-131905052D01*
X164318450Y-131822575D01*
X164203793Y-131761290D01*
X164079383Y-131723550D01*
X163982419Y-131714000D01*
X163950000Y-131710807D01*
X163917581Y-131714000D01*
X162519107Y-131714000D01*
X162563475Y-131669632D01*
X162725990Y-131426411D01*
X162837932Y-131156158D01*
X162895000Y-130869260D01*
X162895000Y-130868609D01*
X180874997Y-130868609D01*
X181061073Y-131209766D01*
X181478409Y-131425513D01*
X181929815Y-131555696D01*
X182397946Y-131595313D01*
X182864811Y-131542842D01*
X183312468Y-131400297D01*
X183668927Y-131209766D01*
X183855003Y-130868609D01*
X182365000Y-129378605D01*
X180874997Y-130868609D01*
X162895000Y-130868609D01*
X162895000Y-130576740D01*
X162837932Y-130289842D01*
X162725990Y-130019589D01*
X162563475Y-129776368D01*
X162356632Y-129569525D01*
X162113411Y-129407010D01*
X161843158Y-129295068D01*
X161556260Y-129238000D01*
X161263740Y-129238000D01*
X160976842Y-129295068D01*
X160706589Y-129407010D01*
X160463368Y-129569525D01*
X160256525Y-129776368D01*
X160134805Y-129958534D01*
X160065178Y-129841645D01*
X159870269Y-129625412D01*
X159636920Y-129451359D01*
X159374099Y-129326175D01*
X159226890Y-129281524D01*
X158997000Y-129402845D01*
X158997000Y-130596000D01*
X159017000Y-130596000D01*
X159017000Y-130850000D01*
X158997000Y-130850000D01*
X158997000Y-130870000D01*
X158743000Y-130870000D01*
X158743000Y-130850000D01*
X158723000Y-130850000D01*
X158723000Y-130596000D01*
X158743000Y-130596000D01*
X158743000Y-129402845D01*
X158513110Y-129281524D01*
X158365901Y-129326175D01*
X158103080Y-129451359D01*
X157869731Y-129625412D01*
X157674822Y-129841645D01*
X157605195Y-129958534D01*
X157483475Y-129776368D01*
X157276632Y-129569525D01*
X157033411Y-129407010D01*
X156763158Y-129295068D01*
X156476260Y-129238000D01*
X156183740Y-129238000D01*
X155896842Y-129295068D01*
X155626589Y-129407010D01*
X155383368Y-129569525D01*
X155176525Y-129776368D01*
X155060000Y-129950760D01*
X154943475Y-129776368D01*
X154736632Y-129569525D01*
X154493411Y-129407010D01*
X154223158Y-129295068D01*
X153936260Y-129238000D01*
X153643740Y-129238000D01*
X153555000Y-129255652D01*
X153555000Y-129231946D01*
X179968687Y-129231946D01*
X180021158Y-129698811D01*
X180163703Y-130146468D01*
X180354234Y-130502927D01*
X180695391Y-130689003D01*
X182185395Y-129199000D01*
X182544605Y-129199000D01*
X184034609Y-130689003D01*
X184375766Y-130502927D01*
X184591513Y-130085591D01*
X184721696Y-129634185D01*
X184761313Y-129166054D01*
X184708842Y-128699189D01*
X184566297Y-128251532D01*
X184375766Y-127895073D01*
X184034609Y-127708997D01*
X182544605Y-129199000D01*
X182185395Y-129199000D01*
X180695391Y-127708997D01*
X180354234Y-127895073D01*
X180138487Y-128312409D01*
X180008304Y-128763815D01*
X179968687Y-129231946D01*
X153555000Y-129231946D01*
X153555000Y-129097061D01*
X153515226Y-128897102D01*
X153437205Y-128708744D01*
X153323937Y-128539226D01*
X153179774Y-128395063D01*
X153010256Y-128281795D01*
X152821898Y-128203774D01*
X152621939Y-128164000D01*
X152418061Y-128164000D01*
X152218102Y-128203774D01*
X152029744Y-128281795D01*
X151860226Y-128395063D01*
X151816289Y-128439000D01*
X146842333Y-128439000D01*
X146805000Y-128435323D01*
X146767667Y-128439000D01*
X146656014Y-128449997D01*
X146512753Y-128493454D01*
X146380724Y-128564026D01*
X146264999Y-128658999D01*
X146241200Y-128687998D01*
X145658998Y-129270201D01*
X145630000Y-129293999D01*
X145606202Y-129322997D01*
X145606201Y-129322998D01*
X145573646Y-129362666D01*
X145466589Y-129407010D01*
X145223368Y-129569525D01*
X145016525Y-129776368D01*
X144900000Y-129950760D01*
X144783475Y-129776368D01*
X144576632Y-129569525D01*
X144333411Y-129407010D01*
X144063158Y-129295068D01*
X143776260Y-129238000D01*
X143483740Y-129238000D01*
X143196842Y-129295068D01*
X142926589Y-129407010D01*
X142683368Y-129569525D01*
X142476525Y-129776368D01*
X142360000Y-129950760D01*
X142243475Y-129776368D01*
X142036632Y-129569525D01*
X141793411Y-129407010D01*
X141523158Y-129295068D01*
X141236260Y-129238000D01*
X140943740Y-129238000D01*
X140656842Y-129295068D01*
X140386589Y-129407010D01*
X140143368Y-129569525D01*
X139936525Y-129776368D01*
X139820000Y-129950760D01*
X139703475Y-129776368D01*
X139496632Y-129569525D01*
X139253411Y-129407010D01*
X138983158Y-129295068D01*
X138696260Y-129238000D01*
X138403740Y-129238000D01*
X138116842Y-129295068D01*
X137846589Y-129407010D01*
X137603368Y-129569525D01*
X137396525Y-129776368D01*
X137274805Y-129958534D01*
X137205178Y-129841645D01*
X137010269Y-129625412D01*
X136776920Y-129451359D01*
X136514099Y-129326175D01*
X136366890Y-129281524D01*
X136137000Y-129402845D01*
X136137000Y-130596000D01*
X136157000Y-130596000D01*
X136157000Y-130850000D01*
X136137000Y-130850000D01*
X136137000Y-130870000D01*
X135883000Y-130870000D01*
X135883000Y-130850000D01*
X135863000Y-130850000D01*
X135863000Y-130596000D01*
X135883000Y-130596000D01*
X135883000Y-129402845D01*
X135653110Y-129281524D01*
X135505901Y-129326175D01*
X135243080Y-129451359D01*
X135009731Y-129625412D01*
X134933966Y-129709466D01*
X134909502Y-129628820D01*
X134850537Y-129518506D01*
X134771185Y-129421815D01*
X134674494Y-129342463D01*
X134564180Y-129283498D01*
X134444482Y-129247188D01*
X134320000Y-129234928D01*
X132620000Y-129234928D01*
X132495518Y-129247188D01*
X132375820Y-129283498D01*
X132265506Y-129342463D01*
X132168815Y-129421815D01*
X132089463Y-129518506D01*
X132030498Y-129628820D01*
X131994188Y-129748518D01*
X131981928Y-129873000D01*
X131981928Y-131573000D01*
X131994188Y-131697482D01*
X131999199Y-131714000D01*
X118262419Y-131714000D01*
X118230000Y-131710807D01*
X118197581Y-131714000D01*
X118100617Y-131723550D01*
X117976207Y-131761290D01*
X117861550Y-131822575D01*
X117761052Y-131905052D01*
X117678575Y-132005550D01*
X117617290Y-132120207D01*
X117579550Y-132244617D01*
X117566807Y-132374000D01*
X117570000Y-132406418D01*
X117570001Y-133514000D01*
X113810000Y-133514000D01*
X113810000Y-132406418D01*
X113813193Y-132374000D01*
X113800450Y-132244617D01*
X113762710Y-132120207D01*
X113701425Y-132005550D01*
X113618948Y-131905052D01*
X113518450Y-131822575D01*
X113403793Y-131761290D01*
X113279383Y-131723550D01*
X113182419Y-131714000D01*
X113150000Y-131710807D01*
X113117581Y-131714000D01*
X91750000Y-131714000D01*
X91750000Y-130868609D01*
X98324997Y-130868609D01*
X98511073Y-131209766D01*
X98928409Y-131425513D01*
X99379815Y-131555696D01*
X99847946Y-131595313D01*
X100314811Y-131542842D01*
X100762468Y-131400297D01*
X101118927Y-131209766D01*
X101305003Y-130868609D01*
X99815000Y-129378605D01*
X98324997Y-130868609D01*
X91750000Y-130868609D01*
X91750000Y-129231946D01*
X97418687Y-129231946D01*
X97471158Y-129698811D01*
X97613703Y-130146468D01*
X97804234Y-130502927D01*
X98145391Y-130689003D01*
X99635395Y-129199000D01*
X99994605Y-129199000D01*
X101484609Y-130689003D01*
X101825766Y-130502927D01*
X101931492Y-130298413D01*
X107674192Y-130298413D01*
X107769956Y-130562814D01*
X108059571Y-130703704D01*
X108371108Y-130785384D01*
X108692595Y-130804718D01*
X109011675Y-130760961D01*
X109316088Y-130655795D01*
X109490044Y-130562814D01*
X109585808Y-130298413D01*
X114174192Y-130298413D01*
X114269956Y-130562814D01*
X114559571Y-130703704D01*
X114871108Y-130785384D01*
X115192595Y-130804718D01*
X115511675Y-130760961D01*
X115816088Y-130655795D01*
X115990044Y-130562814D01*
X116085808Y-130298413D01*
X115130000Y-129342605D01*
X114174192Y-130298413D01*
X109585808Y-130298413D01*
X108630000Y-129342605D01*
X107674192Y-130298413D01*
X101931492Y-130298413D01*
X102041513Y-130085591D01*
X102171696Y-129634185D01*
X102206274Y-129225595D01*
X106988282Y-129225595D01*
X107032039Y-129544675D01*
X107137205Y-129849088D01*
X107230186Y-130023044D01*
X107494587Y-130118808D01*
X108450395Y-129163000D01*
X108809605Y-129163000D01*
X109765413Y-130118808D01*
X110029814Y-130023044D01*
X110170704Y-129733429D01*
X110252384Y-129421892D01*
X110264189Y-129225595D01*
X113488282Y-129225595D01*
X113532039Y-129544675D01*
X113637205Y-129849088D01*
X113730186Y-130023044D01*
X113994587Y-130118808D01*
X114950395Y-129163000D01*
X115309605Y-129163000D01*
X116265413Y-130118808D01*
X116529814Y-130023044D01*
X116670704Y-129733429D01*
X116752384Y-129421892D01*
X116771718Y-129100405D01*
X116727961Y-128781325D01*
X116622795Y-128476912D01*
X116529814Y-128302956D01*
X116265413Y-128207192D01*
X115309605Y-129163000D01*
X114950395Y-129163000D01*
X113994587Y-128207192D01*
X113730186Y-128302956D01*
X113589296Y-128592571D01*
X113507616Y-128904108D01*
X113488282Y-129225595D01*
X110264189Y-129225595D01*
X110271718Y-129100405D01*
X110227961Y-128781325D01*
X110122795Y-128476912D01*
X110029814Y-128302956D01*
X109765413Y-128207192D01*
X108809605Y-129163000D01*
X108450395Y-129163000D01*
X107494587Y-128207192D01*
X107230186Y-128302956D01*
X107089296Y-128592571D01*
X107007616Y-128904108D01*
X106988282Y-129225595D01*
X102206274Y-129225595D01*
X102211313Y-129166054D01*
X102158842Y-128699189D01*
X102016297Y-128251532D01*
X101896597Y-128027587D01*
X107674192Y-128027587D01*
X108630000Y-128983395D01*
X109585808Y-128027587D01*
X114174192Y-128027587D01*
X115130000Y-128983395D01*
X116085808Y-128027587D01*
X115990044Y-127763186D01*
X115700429Y-127622296D01*
X115388892Y-127540616D01*
X115067405Y-127521282D01*
X114748325Y-127565039D01*
X114443912Y-127670205D01*
X114269956Y-127763186D01*
X114174192Y-128027587D01*
X109585808Y-128027587D01*
X109490044Y-127763186D01*
X109200429Y-127622296D01*
X108888892Y-127540616D01*
X108567405Y-127521282D01*
X108248325Y-127565039D01*
X107943912Y-127670205D01*
X107769956Y-127763186D01*
X107674192Y-128027587D01*
X101896597Y-128027587D01*
X101825766Y-127895073D01*
X101484609Y-127708997D01*
X99994605Y-129199000D01*
X99635395Y-129199000D01*
X98145391Y-127708997D01*
X97804234Y-127895073D01*
X97588487Y-128312409D01*
X97458304Y-128763815D01*
X97418687Y-129231946D01*
X91750000Y-129231946D01*
X91750000Y-127529391D01*
X98324997Y-127529391D01*
X99815000Y-129019395D01*
X101305003Y-127529391D01*
X101118927Y-127188234D01*
X100701591Y-126972487D01*
X100250185Y-126842304D01*
X99782054Y-126802687D01*
X99315189Y-126855158D01*
X98867532Y-126997703D01*
X98511073Y-127188234D01*
X98324997Y-127529391D01*
X91750000Y-127529391D01*
X91750000Y-124501967D01*
X106995000Y-124501967D01*
X106995000Y-124824033D01*
X107057832Y-125139912D01*
X107181082Y-125437463D01*
X107360013Y-125705252D01*
X107587748Y-125932987D01*
X107855537Y-126111918D01*
X108153088Y-126235168D01*
X108468967Y-126298000D01*
X108791033Y-126298000D01*
X109106912Y-126235168D01*
X109404463Y-126111918D01*
X109672252Y-125932987D01*
X109899987Y-125705252D01*
X110078918Y-125437463D01*
X110202168Y-125139912D01*
X110265000Y-124824033D01*
X110265000Y-124501967D01*
X113495000Y-124501967D01*
X113495000Y-124824033D01*
X113557832Y-125139912D01*
X113681082Y-125437463D01*
X113860013Y-125705252D01*
X114087748Y-125932987D01*
X114355537Y-126111918D01*
X114653088Y-126235168D01*
X114968967Y-126298000D01*
X115291033Y-126298000D01*
X115606912Y-126235168D01*
X115904463Y-126111918D01*
X116172252Y-125932987D01*
X116399987Y-125705252D01*
X116578918Y-125437463D01*
X116702168Y-125139912D01*
X116765000Y-124824033D01*
X116765000Y-124501967D01*
X116702168Y-124186088D01*
X116578918Y-123888537D01*
X116399987Y-123620748D01*
X116172252Y-123393013D01*
X115904463Y-123214082D01*
X115606912Y-123090832D01*
X115291033Y-123028000D01*
X114968967Y-123028000D01*
X114653088Y-123090832D01*
X114355537Y-123214082D01*
X114087748Y-123393013D01*
X113860013Y-123620748D01*
X113681082Y-123888537D01*
X113557832Y-124186088D01*
X113495000Y-124501967D01*
X110265000Y-124501967D01*
X110202168Y-124186088D01*
X110078918Y-123888537D01*
X109899987Y-123620748D01*
X109672252Y-123393013D01*
X109404463Y-123214082D01*
X109106912Y-123090832D01*
X108791033Y-123028000D01*
X108468967Y-123028000D01*
X108153088Y-123090832D01*
X107855537Y-123214082D01*
X107587748Y-123393013D01*
X107360013Y-123620748D01*
X107181082Y-123888537D01*
X107057832Y-124186088D01*
X106995000Y-124501967D01*
X91750000Y-124501967D01*
X91750000Y-123749000D01*
X98276928Y-123749000D01*
X98289188Y-123873482D01*
X98325498Y-123993180D01*
X98384463Y-124103494D01*
X98463815Y-124200185D01*
X98560506Y-124279537D01*
X98670820Y-124338502D01*
X98790518Y-124374812D01*
X98915000Y-124387072D01*
X99529250Y-124384000D01*
X99688000Y-124225250D01*
X99688000Y-122976000D01*
X99942000Y-122976000D01*
X99942000Y-124225250D01*
X100100750Y-124384000D01*
X100715000Y-124387072D01*
X100839482Y-124374812D01*
X100959180Y-124338502D01*
X101069494Y-124279537D01*
X101166185Y-124200185D01*
X101245537Y-124103494D01*
X101304502Y-123993180D01*
X101340812Y-123873482D01*
X101353072Y-123749000D01*
X101350000Y-123134750D01*
X101191250Y-122976000D01*
X99942000Y-122976000D01*
X99688000Y-122976000D01*
X98438750Y-122976000D01*
X98280000Y-123134750D01*
X98276928Y-123749000D01*
X91750000Y-123749000D01*
X91750000Y-121949000D01*
X98276928Y-121949000D01*
X98280000Y-122563250D01*
X98438750Y-122722000D01*
X99688000Y-122722000D01*
X99688000Y-122702000D01*
X99942000Y-122702000D01*
X99942000Y-122722000D01*
X101191250Y-122722000D01*
X101350000Y-122563250D01*
X101353072Y-121949000D01*
X101340812Y-121824518D01*
X101304502Y-121704820D01*
X101245537Y-121594506D01*
X101166185Y-121497815D01*
X101069494Y-121418463D01*
X101050693Y-121408413D01*
X107674192Y-121408413D01*
X107769956Y-121672814D01*
X108059571Y-121813704D01*
X108371108Y-121895384D01*
X108692595Y-121914718D01*
X109011675Y-121870961D01*
X109316088Y-121765795D01*
X109490044Y-121672814D01*
X109585808Y-121408413D01*
X114174192Y-121408413D01*
X114269956Y-121672814D01*
X114559571Y-121813704D01*
X114871108Y-121895384D01*
X115192595Y-121914718D01*
X115511675Y-121870961D01*
X115816088Y-121765795D01*
X115990044Y-121672814D01*
X116085808Y-121408413D01*
X115130000Y-120452605D01*
X114174192Y-121408413D01*
X109585808Y-121408413D01*
X108630000Y-120452605D01*
X107674192Y-121408413D01*
X101050693Y-121408413D01*
X100959180Y-121359498D01*
X100940873Y-121353944D01*
X101007312Y-121287505D01*
X101175299Y-121036095D01*
X101291011Y-120756743D01*
X101350000Y-120460184D01*
X101350000Y-120335595D01*
X106988282Y-120335595D01*
X107032039Y-120654675D01*
X107137205Y-120959088D01*
X107230186Y-121133044D01*
X107494587Y-121228808D01*
X108450395Y-120273000D01*
X108809605Y-120273000D01*
X109765413Y-121228808D01*
X110029814Y-121133044D01*
X110170704Y-120843429D01*
X110252384Y-120531892D01*
X110264189Y-120335595D01*
X113488282Y-120335595D01*
X113532039Y-120654675D01*
X113637205Y-120959088D01*
X113730186Y-121133044D01*
X113994587Y-121228808D01*
X114950395Y-120273000D01*
X115309605Y-120273000D01*
X116265413Y-121228808D01*
X116529814Y-121133044D01*
X116670704Y-120843429D01*
X116752384Y-120531892D01*
X116771718Y-120210405D01*
X116727961Y-119891325D01*
X116622795Y-119586912D01*
X116529814Y-119412956D01*
X116265413Y-119317192D01*
X115309605Y-120273000D01*
X114950395Y-120273000D01*
X113994587Y-119317192D01*
X113730186Y-119412956D01*
X113589296Y-119702571D01*
X113507616Y-120014108D01*
X113488282Y-120335595D01*
X110264189Y-120335595D01*
X110271718Y-120210405D01*
X110227961Y-119891325D01*
X110122795Y-119586912D01*
X110029814Y-119412956D01*
X109765413Y-119317192D01*
X108809605Y-120273000D01*
X108450395Y-120273000D01*
X107494587Y-119317192D01*
X107230186Y-119412956D01*
X107089296Y-119702571D01*
X107007616Y-120014108D01*
X106988282Y-120335595D01*
X101350000Y-120335595D01*
X101350000Y-120157816D01*
X101291011Y-119861257D01*
X101175299Y-119581905D01*
X101007312Y-119330495D01*
X100814404Y-119137587D01*
X107674192Y-119137587D01*
X108630000Y-120093395D01*
X109585808Y-119137587D01*
X114174192Y-119137587D01*
X115130000Y-120093395D01*
X116085808Y-119137587D01*
X115990044Y-118873186D01*
X115700429Y-118732296D01*
X115388892Y-118650616D01*
X115067405Y-118631282D01*
X114748325Y-118675039D01*
X114443912Y-118780205D01*
X114269956Y-118873186D01*
X114174192Y-119137587D01*
X109585808Y-119137587D01*
X109490044Y-118873186D01*
X109200429Y-118732296D01*
X108888892Y-118650616D01*
X108567405Y-118631282D01*
X108248325Y-118675039D01*
X107943912Y-118780205D01*
X107769956Y-118873186D01*
X107674192Y-119137587D01*
X100814404Y-119137587D01*
X100793505Y-119116688D01*
X100542095Y-118948701D01*
X100262743Y-118832989D01*
X99966184Y-118774000D01*
X99663816Y-118774000D01*
X99367257Y-118832989D01*
X99087905Y-118948701D01*
X98836495Y-119116688D01*
X98622688Y-119330495D01*
X98454701Y-119581905D01*
X98338989Y-119861257D01*
X98280000Y-120157816D01*
X98280000Y-120460184D01*
X98338989Y-120756743D01*
X98454701Y-121036095D01*
X98622688Y-121287505D01*
X98689127Y-121353944D01*
X98670820Y-121359498D01*
X98560506Y-121418463D01*
X98463815Y-121497815D01*
X98384463Y-121594506D01*
X98325498Y-121704820D01*
X98289188Y-121824518D01*
X98276928Y-121949000D01*
X91750000Y-121949000D01*
X91750000Y-117618609D01*
X98324997Y-117618609D01*
X98511073Y-117959766D01*
X98928409Y-118175513D01*
X99379815Y-118305696D01*
X99847946Y-118345313D01*
X100314811Y-118292842D01*
X100762468Y-118150297D01*
X101118927Y-117959766D01*
X101305003Y-117618609D01*
X99815000Y-116128605D01*
X98324997Y-117618609D01*
X91750000Y-117618609D01*
X91750000Y-115981946D01*
X97418687Y-115981946D01*
X97471158Y-116448811D01*
X97613703Y-116896468D01*
X97804234Y-117252927D01*
X98145391Y-117439003D01*
X99635395Y-115949000D01*
X99994605Y-115949000D01*
X101484609Y-117439003D01*
X101825766Y-117252927D01*
X102041513Y-116835591D01*
X102171696Y-116384185D01*
X102211313Y-115916054D01*
X102177137Y-115611967D01*
X106995000Y-115611967D01*
X106995000Y-115934033D01*
X107057832Y-116249912D01*
X107181082Y-116547463D01*
X107360013Y-116815252D01*
X107587748Y-117042987D01*
X107855537Y-117221918D01*
X108153088Y-117345168D01*
X108468967Y-117408000D01*
X108791033Y-117408000D01*
X109106912Y-117345168D01*
X109404463Y-117221918D01*
X109672252Y-117042987D01*
X109899987Y-116815252D01*
X110078918Y-116547463D01*
X110202168Y-116249912D01*
X110265000Y-115934033D01*
X110265000Y-115611967D01*
X113495000Y-115611967D01*
X113495000Y-115934033D01*
X113557832Y-116249912D01*
X113681082Y-116547463D01*
X113860013Y-116815252D01*
X114087748Y-117042987D01*
X114355537Y-117221918D01*
X114653088Y-117345168D01*
X114968967Y-117408000D01*
X115291033Y-117408000D01*
X115606912Y-117345168D01*
X115904463Y-117221918D01*
X116172252Y-117042987D01*
X116399987Y-116815252D01*
X116578918Y-116547463D01*
X116702168Y-116249912D01*
X116765000Y-115934033D01*
X116765000Y-115611967D01*
X116702168Y-115296088D01*
X116578918Y-114998537D01*
X116399987Y-114730748D01*
X116172252Y-114503013D01*
X115904463Y-114324082D01*
X115606912Y-114200832D01*
X115291033Y-114138000D01*
X114968967Y-114138000D01*
X114653088Y-114200832D01*
X114355537Y-114324082D01*
X114087748Y-114503013D01*
X113860013Y-114730748D01*
X113681082Y-114998537D01*
X113557832Y-115296088D01*
X113495000Y-115611967D01*
X110265000Y-115611967D01*
X110202168Y-115296088D01*
X110078918Y-114998537D01*
X109899987Y-114730748D01*
X109672252Y-114503013D01*
X109404463Y-114324082D01*
X109106912Y-114200832D01*
X108791033Y-114138000D01*
X108468967Y-114138000D01*
X108153088Y-114200832D01*
X107855537Y-114324082D01*
X107587748Y-114503013D01*
X107360013Y-114730748D01*
X107181082Y-114998537D01*
X107057832Y-115296088D01*
X106995000Y-115611967D01*
X102177137Y-115611967D01*
X102158842Y-115449189D01*
X102016297Y-115001532D01*
X101825766Y-114645073D01*
X101484609Y-114458997D01*
X99994605Y-115949000D01*
X99635395Y-115949000D01*
X98145391Y-114458997D01*
X97804234Y-114645073D01*
X97588487Y-115062409D01*
X97458304Y-115513815D01*
X97418687Y-115981946D01*
X91750000Y-115981946D01*
X91750000Y-114279391D01*
X98324997Y-114279391D01*
X99815000Y-115769395D01*
X101305003Y-114279391D01*
X101118927Y-113938234D01*
X100701591Y-113722487D01*
X100250185Y-113592304D01*
X99782054Y-113552687D01*
X99315189Y-113605158D01*
X98867532Y-113747703D01*
X98511073Y-113938234D01*
X98324997Y-114279391D01*
X91750000Y-114279391D01*
X91750000Y-113434000D01*
X113117581Y-113434000D01*
X113150000Y-113437193D01*
X113182419Y-113434000D01*
X113279383Y-113424450D01*
X113403793Y-113386710D01*
X113518450Y-113325425D01*
X113618948Y-113242948D01*
X113701425Y-113142450D01*
X113762710Y-113027793D01*
X113800450Y-112903383D01*
X113813193Y-112774000D01*
X113810000Y-112741581D01*
X113810000Y-111634000D01*
X117570001Y-111634000D01*
X117570000Y-112741580D01*
G37*
G04 #@! TD.AperFunction*
M02*
