G04 #@! TF.GenerationSoftware,KiCad,Pcbnew,(5.1.8)-1*
G04 #@! TF.CreationDate,2022-07-09T03:05:26+02:00*
G04 #@! TF.ProjectId,BulkyMIDI-32 Module Panel,42756c6b-794d-4494-9449-2d3332204d6f,rev?*
G04 #@! TF.SameCoordinates,Original*
G04 #@! TF.FileFunction,Legend,Bot*
G04 #@! TF.FilePolarity,Positive*
%FSLAX46Y46*%
G04 Gerber Fmt 4.6, Leading zero omitted, Abs format (unit mm)*
G04 Created by KiCad (PCBNEW (5.1.8)-1) date 2022-07-09 03:05:26*
%MOMM*%
%LPD*%
G01*
G04 APERTURE LIST*
%ADD10C,0.100000*%
%ADD11C,0.120000*%
%ADD12C,0.150000*%
G04 APERTURE END LIST*
D10*
X190423095Y-126544238D02*
X189851666Y-126544238D01*
X189737380Y-126582333D01*
X189661190Y-126658523D01*
X189623095Y-126772809D01*
X189623095Y-126849000D01*
X189623095Y-125782333D02*
X189623095Y-126163285D01*
X190423095Y-126163285D01*
X189699285Y-125058523D02*
X189661190Y-125096619D01*
X189623095Y-125210904D01*
X189623095Y-125287095D01*
X189661190Y-125401380D01*
X189737380Y-125477571D01*
X189813571Y-125515666D01*
X189965952Y-125553761D01*
X190080238Y-125553761D01*
X190232619Y-125515666D01*
X190308809Y-125477571D01*
X190385000Y-125401380D01*
X190423095Y-125287095D01*
X190423095Y-125210904D01*
X190385000Y-125096619D01*
X190346904Y-125058523D01*
X190423095Y-124487095D02*
X189851666Y-124487095D01*
X189737380Y-124525190D01*
X189661190Y-124601380D01*
X189623095Y-124715666D01*
X189623095Y-124791857D01*
X189623095Y-123725190D02*
X189623095Y-124106142D01*
X190423095Y-124106142D01*
X189699285Y-123001380D02*
X189661190Y-123039476D01*
X189623095Y-123153761D01*
X189623095Y-123229952D01*
X189661190Y-123344238D01*
X189737380Y-123420428D01*
X189813571Y-123458523D01*
X189965952Y-123496619D01*
X190080238Y-123496619D01*
X190232619Y-123458523D01*
X190308809Y-123420428D01*
X190385000Y-123344238D01*
X190423095Y-123229952D01*
X190423095Y-123153761D01*
X190385000Y-123039476D01*
X190346904Y-123001380D01*
X190423095Y-122429952D02*
X189851666Y-122429952D01*
X189737380Y-122468047D01*
X189661190Y-122544238D01*
X189623095Y-122658523D01*
X189623095Y-122734714D01*
X189623095Y-121668047D02*
X189623095Y-122049000D01*
X190423095Y-122049000D01*
X189699285Y-120944238D02*
X189661190Y-120982333D01*
X189623095Y-121096619D01*
X189623095Y-121172809D01*
X189661190Y-121287095D01*
X189737380Y-121363285D01*
X189813571Y-121401380D01*
X189965952Y-121439476D01*
X190080238Y-121439476D01*
X190232619Y-121401380D01*
X190308809Y-121363285D01*
X190385000Y-121287095D01*
X190423095Y-121172809D01*
X190423095Y-121096619D01*
X190385000Y-120982333D01*
X190346904Y-120944238D01*
X190423095Y-120372809D02*
X189851666Y-120372809D01*
X189737380Y-120410904D01*
X189661190Y-120487095D01*
X189623095Y-120601380D01*
X189623095Y-120677571D01*
X189623095Y-119610904D02*
X189623095Y-119991857D01*
X190423095Y-119991857D01*
X189699285Y-118887095D02*
X189661190Y-118925190D01*
X189623095Y-119039476D01*
X189623095Y-119115666D01*
X189661190Y-119229952D01*
X189737380Y-119306142D01*
X189813571Y-119344238D01*
X189965952Y-119382333D01*
X190080238Y-119382333D01*
X190232619Y-119344238D01*
X190308809Y-119306142D01*
X190385000Y-119229952D01*
X190423095Y-119115666D01*
X190423095Y-119039476D01*
X190385000Y-118925190D01*
X190346904Y-118887095D01*
X95457142Y-126487095D02*
X95419047Y-126372809D01*
X95380952Y-126334714D01*
X95304761Y-126296619D01*
X95190476Y-126296619D01*
X95114285Y-126334714D01*
X95076190Y-126372809D01*
X95038095Y-126449000D01*
X95038095Y-126753761D01*
X95838095Y-126753761D01*
X95838095Y-126487095D01*
X95800000Y-126410904D01*
X95761904Y-126372809D01*
X95685714Y-126334714D01*
X95609523Y-126334714D01*
X95533333Y-126372809D01*
X95495238Y-126410904D01*
X95457142Y-126487095D01*
X95457142Y-126753761D01*
X95571428Y-125610904D02*
X95038095Y-125610904D01*
X95571428Y-125953761D02*
X95152380Y-125953761D01*
X95076190Y-125915666D01*
X95038095Y-125839476D01*
X95038095Y-125725190D01*
X95076190Y-125649000D01*
X95114285Y-125610904D01*
X95038095Y-125115666D02*
X95076190Y-125191857D01*
X95152380Y-125229952D01*
X95838095Y-125229952D01*
X95038095Y-124810904D02*
X95838095Y-124810904D01*
X95342857Y-124734714D02*
X95038095Y-124506142D01*
X95571428Y-124506142D02*
X95266666Y-124810904D01*
X95571428Y-124239476D02*
X95038095Y-124049000D01*
X95571428Y-123858523D02*
X95038095Y-124049000D01*
X94847619Y-124125190D01*
X94809523Y-124163285D01*
X94771428Y-124239476D01*
X95038095Y-123553761D02*
X95838095Y-123553761D01*
X95266666Y-123287095D01*
X95838095Y-123020428D01*
X95038095Y-123020428D01*
X95038095Y-122639476D02*
X95838095Y-122639476D01*
X95038095Y-122258523D02*
X95838095Y-122258523D01*
X95838095Y-122068047D01*
X95800000Y-121953761D01*
X95723809Y-121877571D01*
X95647619Y-121839476D01*
X95495238Y-121801380D01*
X95380952Y-121801380D01*
X95228571Y-121839476D01*
X95152380Y-121877571D01*
X95076190Y-121953761D01*
X95038095Y-122068047D01*
X95038095Y-122258523D01*
X95038095Y-121458523D02*
X95838095Y-121458523D01*
X95342857Y-121077571D02*
X95342857Y-120468047D01*
X95838095Y-120163285D02*
X95838095Y-119668047D01*
X95533333Y-119934714D01*
X95533333Y-119820428D01*
X95495238Y-119744238D01*
X95457142Y-119706142D01*
X95380952Y-119668047D01*
X95190476Y-119668047D01*
X95114285Y-119706142D01*
X95076190Y-119744238D01*
X95038095Y-119820428D01*
X95038095Y-120049000D01*
X95076190Y-120125190D01*
X95114285Y-120163285D01*
X95761904Y-119363285D02*
X95800000Y-119325190D01*
X95838095Y-119249000D01*
X95838095Y-119058523D01*
X95800000Y-118982333D01*
X95761904Y-118944238D01*
X95685714Y-118906142D01*
X95609523Y-118906142D01*
X95495238Y-118944238D01*
X95038095Y-119401380D01*
X95038095Y-118906142D01*
X93738095Y-129306142D02*
X94538095Y-129306142D01*
X93966666Y-129039476D01*
X94538095Y-128772809D01*
X93738095Y-128772809D01*
X93738095Y-128277571D02*
X93776190Y-128353761D01*
X93814285Y-128391857D01*
X93890476Y-128429952D01*
X94119047Y-128429952D01*
X94195238Y-128391857D01*
X94233333Y-128353761D01*
X94271428Y-128277571D01*
X94271428Y-128163285D01*
X94233333Y-128087095D01*
X94195238Y-128049000D01*
X94119047Y-128010904D01*
X93890476Y-128010904D01*
X93814285Y-128049000D01*
X93776190Y-128087095D01*
X93738095Y-128163285D01*
X93738095Y-128277571D01*
X93738095Y-127325190D02*
X94538095Y-127325190D01*
X93776190Y-127325190D02*
X93738095Y-127401380D01*
X93738095Y-127553761D01*
X93776190Y-127629952D01*
X93814285Y-127668047D01*
X93890476Y-127706142D01*
X94119047Y-127706142D01*
X94195238Y-127668047D01*
X94233333Y-127629952D01*
X94271428Y-127553761D01*
X94271428Y-127401380D01*
X94233333Y-127325190D01*
X94271428Y-126601380D02*
X93738095Y-126601380D01*
X94271428Y-126944238D02*
X93852380Y-126944238D01*
X93776190Y-126906142D01*
X93738095Y-126829952D01*
X93738095Y-126715666D01*
X93776190Y-126639476D01*
X93814285Y-126601380D01*
X93738095Y-126106142D02*
X93776190Y-126182333D01*
X93852380Y-126220428D01*
X94538095Y-126220428D01*
X93776190Y-125496619D02*
X93738095Y-125572809D01*
X93738095Y-125725190D01*
X93776190Y-125801380D01*
X93852380Y-125839476D01*
X94157142Y-125839476D01*
X94233333Y-125801380D01*
X94271428Y-125725190D01*
X94271428Y-125572809D01*
X94233333Y-125496619D01*
X94157142Y-125458523D01*
X94080952Y-125458523D01*
X94004761Y-125839476D01*
X93738095Y-124506142D02*
X94538095Y-124506142D01*
X94538095Y-124201380D01*
X94500000Y-124125190D01*
X94461904Y-124087095D01*
X94385714Y-124049000D01*
X94271428Y-124049000D01*
X94195238Y-124087095D01*
X94157142Y-124125190D01*
X94119047Y-124201380D01*
X94119047Y-124506142D01*
X93738095Y-123363285D02*
X94157142Y-123363285D01*
X94233333Y-123401380D01*
X94271428Y-123477571D01*
X94271428Y-123629952D01*
X94233333Y-123706142D01*
X93776190Y-123363285D02*
X93738095Y-123439476D01*
X93738095Y-123629952D01*
X93776190Y-123706142D01*
X93852380Y-123744238D01*
X93928571Y-123744238D01*
X94004761Y-123706142D01*
X94042857Y-123629952D01*
X94042857Y-123439476D01*
X94080952Y-123363285D01*
X94271428Y-122982333D02*
X93738095Y-122982333D01*
X94195238Y-122982333D02*
X94233333Y-122944238D01*
X94271428Y-122868047D01*
X94271428Y-122753761D01*
X94233333Y-122677571D01*
X94157142Y-122639476D01*
X93738095Y-122639476D01*
X93776190Y-121953761D02*
X93738095Y-122029952D01*
X93738095Y-122182333D01*
X93776190Y-122258523D01*
X93852380Y-122296619D01*
X94157142Y-122296619D01*
X94233333Y-122258523D01*
X94271428Y-122182333D01*
X94271428Y-122029952D01*
X94233333Y-121953761D01*
X94157142Y-121915666D01*
X94080952Y-121915666D01*
X94004761Y-122296619D01*
X93738095Y-121458523D02*
X93776190Y-121534714D01*
X93852380Y-121572809D01*
X94538095Y-121572809D01*
X93433333Y-120315666D02*
X93471428Y-120353761D01*
X93585714Y-120429952D01*
X93661904Y-120468047D01*
X93776190Y-120506142D01*
X93966666Y-120544238D01*
X94119047Y-120544238D01*
X94309523Y-120506142D01*
X94423809Y-120468047D01*
X94500000Y-120429952D01*
X94614285Y-120353761D01*
X94652380Y-120315666D01*
X93738095Y-120010904D02*
X94271428Y-120010904D01*
X94119047Y-120010904D02*
X94195238Y-119972809D01*
X94233333Y-119934714D01*
X94271428Y-119858523D01*
X94271428Y-119782333D01*
X93776190Y-119210904D02*
X93738095Y-119287095D01*
X93738095Y-119439476D01*
X93776190Y-119515666D01*
X93852380Y-119553761D01*
X94157142Y-119553761D01*
X94233333Y-119515666D01*
X94271428Y-119439476D01*
X94271428Y-119287095D01*
X94233333Y-119210904D01*
X94157142Y-119172809D01*
X94080952Y-119172809D01*
X94004761Y-119553761D01*
X94271428Y-118906142D02*
X93738095Y-118715666D01*
X94271428Y-118525190D01*
X93814285Y-118220428D02*
X93776190Y-118182333D01*
X93738095Y-118220428D01*
X93776190Y-118258523D01*
X93814285Y-118220428D01*
X93738095Y-118220428D01*
X93966666Y-117268047D02*
X93966666Y-116887095D01*
X93738095Y-117344238D02*
X94538095Y-117077571D01*
X93738095Y-116810904D01*
X93433333Y-116620428D02*
X93471428Y-116582333D01*
X93585714Y-116506142D01*
X93661904Y-116468047D01*
X93776190Y-116429952D01*
X93966666Y-116391857D01*
X94119047Y-116391857D01*
X94309523Y-116429952D01*
X94423809Y-116468047D01*
X94500000Y-116506142D01*
X94614285Y-116582333D01*
X94652380Y-116620428D01*
X92971428Y-127172809D02*
X92323809Y-127172809D01*
X92247619Y-127210904D01*
X92209523Y-127249000D01*
X92171428Y-127325190D01*
X92171428Y-127439476D01*
X92209523Y-127515666D01*
X92476190Y-127172809D02*
X92438095Y-127249000D01*
X92438095Y-127401380D01*
X92476190Y-127477571D01*
X92514285Y-127515666D01*
X92590476Y-127553761D01*
X92819047Y-127553761D01*
X92895238Y-127515666D01*
X92933333Y-127477571D01*
X92971428Y-127401380D01*
X92971428Y-127249000D01*
X92933333Y-127172809D01*
X92438095Y-126791857D02*
X92971428Y-126791857D01*
X93238095Y-126791857D02*
X93200000Y-126829952D01*
X93161904Y-126791857D01*
X93200000Y-126753761D01*
X93238095Y-126791857D01*
X93161904Y-126791857D01*
X92971428Y-126525190D02*
X92971428Y-126220428D01*
X93238095Y-126410904D02*
X92552380Y-126410904D01*
X92476190Y-126372809D01*
X92438095Y-126296619D01*
X92438095Y-126220428D01*
X92438095Y-125953761D02*
X93238095Y-125953761D01*
X92438095Y-125610904D02*
X92857142Y-125610904D01*
X92933333Y-125649000D01*
X92971428Y-125725190D01*
X92971428Y-125839476D01*
X92933333Y-125915666D01*
X92895238Y-125953761D01*
X92971428Y-124887095D02*
X92438095Y-124887095D01*
X92971428Y-125229952D02*
X92552380Y-125229952D01*
X92476190Y-125191857D01*
X92438095Y-125115666D01*
X92438095Y-125001380D01*
X92476190Y-124925190D01*
X92514285Y-124887095D01*
X92438095Y-124506142D02*
X93238095Y-124506142D01*
X92933333Y-124506142D02*
X92971428Y-124429952D01*
X92971428Y-124277571D01*
X92933333Y-124201380D01*
X92895238Y-124163285D01*
X92819047Y-124125190D01*
X92590476Y-124125190D01*
X92514285Y-124163285D01*
X92476190Y-124201380D01*
X92438095Y-124277571D01*
X92438095Y-124429952D01*
X92476190Y-124506142D01*
X92514285Y-123782333D02*
X92476190Y-123744238D01*
X92438095Y-123782333D01*
X92476190Y-123820428D01*
X92514285Y-123782333D01*
X92438095Y-123782333D01*
X92476190Y-123058523D02*
X92438095Y-123134714D01*
X92438095Y-123287095D01*
X92476190Y-123363285D01*
X92514285Y-123401380D01*
X92590476Y-123439476D01*
X92819047Y-123439476D01*
X92895238Y-123401380D01*
X92933333Y-123363285D01*
X92971428Y-123287095D01*
X92971428Y-123134714D01*
X92933333Y-123058523D01*
X92438095Y-122601380D02*
X92476190Y-122677571D01*
X92514285Y-122715666D01*
X92590476Y-122753761D01*
X92819047Y-122753761D01*
X92895238Y-122715666D01*
X92933333Y-122677571D01*
X92971428Y-122601380D01*
X92971428Y-122487095D01*
X92933333Y-122410904D01*
X92895238Y-122372809D01*
X92819047Y-122334714D01*
X92590476Y-122334714D01*
X92514285Y-122372809D01*
X92476190Y-122410904D01*
X92438095Y-122487095D01*
X92438095Y-122601380D01*
X92438095Y-121991857D02*
X92971428Y-121991857D01*
X92895238Y-121991857D02*
X92933333Y-121953761D01*
X92971428Y-121877571D01*
X92971428Y-121763285D01*
X92933333Y-121687095D01*
X92857142Y-121649000D01*
X92438095Y-121649000D01*
X92857142Y-121649000D02*
X92933333Y-121610904D01*
X92971428Y-121534714D01*
X92971428Y-121420428D01*
X92933333Y-121344238D01*
X92857142Y-121306142D01*
X92438095Y-121306142D01*
X93276190Y-120353761D02*
X92247619Y-121039476D01*
X92971428Y-120201380D02*
X92971428Y-119896619D01*
X93238095Y-120087095D02*
X92552380Y-120087095D01*
X92476190Y-120049000D01*
X92438095Y-119972809D01*
X92438095Y-119896619D01*
X92476190Y-119325190D02*
X92438095Y-119401380D01*
X92438095Y-119553761D01*
X92476190Y-119629952D01*
X92552380Y-119668047D01*
X92857142Y-119668047D01*
X92933333Y-119629952D01*
X92971428Y-119553761D01*
X92971428Y-119401380D01*
X92933333Y-119325190D01*
X92857142Y-119287095D01*
X92780952Y-119287095D01*
X92704761Y-119668047D01*
X92438095Y-118944238D02*
X93238095Y-118944238D01*
X92933333Y-118944238D02*
X92971428Y-118868047D01*
X92971428Y-118715666D01*
X92933333Y-118639476D01*
X92895238Y-118601380D01*
X92819047Y-118563285D01*
X92590476Y-118563285D01*
X92514285Y-118601380D01*
X92476190Y-118639476D01*
X92438095Y-118715666D01*
X92438095Y-118868047D01*
X92476190Y-118944238D01*
X92438095Y-118106142D02*
X92476190Y-118182333D01*
X92552380Y-118220428D01*
X93238095Y-118220428D01*
D11*
X174040000Y-119039000D02*
X174340000Y-119339000D01*
X174340000Y-118739000D02*
X174340000Y-119339000D01*
X174040000Y-119039000D02*
X174340000Y-118739000D01*
X173840000Y-118289000D02*
X171840000Y-118289000D01*
X173840000Y-122389000D02*
X173840000Y-118289000D01*
X171840000Y-122389000D02*
X173840000Y-122389000D01*
X171840000Y-118289000D02*
X171840000Y-122389000D01*
X168125000Y-124869000D02*
X168125000Y-120769000D01*
X168125000Y-120769000D02*
X166125000Y-120769000D01*
X166125000Y-120769000D02*
X166125000Y-124869000D01*
X166125000Y-124869000D02*
X168125000Y-124869000D01*
X165925000Y-124119000D02*
X165625000Y-124419000D01*
X165625000Y-124419000D02*
X165625000Y-123819000D01*
X165925000Y-124119000D02*
X165625000Y-123819000D01*
X132140000Y-132163000D02*
X162740000Y-132163000D01*
X162740000Y-132163000D02*
X162740000Y-134823000D01*
X162740000Y-134823000D02*
X132140000Y-134823000D01*
X132140000Y-134823000D02*
X132140000Y-132163000D01*
X133090000Y-134823000D02*
X133090000Y-140823000D01*
X133090000Y-140823000D02*
X133850000Y-140823000D01*
X133850000Y-140823000D02*
X133850000Y-134823000D01*
X133150000Y-134823000D02*
X133150000Y-140823000D01*
X133270000Y-134823000D02*
X133270000Y-140823000D01*
X133390000Y-134823000D02*
X133390000Y-140823000D01*
X133510000Y-134823000D02*
X133510000Y-140823000D01*
X133630000Y-134823000D02*
X133630000Y-140823000D01*
X133750000Y-134823000D02*
X133750000Y-140823000D01*
X133090000Y-131833000D02*
X133090000Y-132163000D01*
X133850000Y-131833000D02*
X133850000Y-132163000D01*
X134740000Y-132163000D02*
X134740000Y-134823000D01*
X135630000Y-134823000D02*
X135630000Y-140823000D01*
X135630000Y-140823000D02*
X136390000Y-140823000D01*
X136390000Y-140823000D02*
X136390000Y-134823000D01*
X135630000Y-131765929D02*
X135630000Y-132163000D01*
X136390000Y-131765929D02*
X136390000Y-132163000D01*
X137280000Y-132163000D02*
X137280000Y-134823000D01*
X138170000Y-134823000D02*
X138170000Y-140823000D01*
X138170000Y-140823000D02*
X138930000Y-140823000D01*
X138930000Y-140823000D02*
X138930000Y-134823000D01*
X138170000Y-131765929D02*
X138170000Y-132163000D01*
X138930000Y-131765929D02*
X138930000Y-132163000D01*
X139820000Y-132163000D02*
X139820000Y-134823000D01*
X140710000Y-134823000D02*
X140710000Y-140823000D01*
X140710000Y-140823000D02*
X141470000Y-140823000D01*
X141470000Y-140823000D02*
X141470000Y-134823000D01*
X140710000Y-131765929D02*
X140710000Y-132163000D01*
X141470000Y-131765929D02*
X141470000Y-132163000D01*
X142360000Y-132163000D02*
X142360000Y-134823000D01*
X143250000Y-134823000D02*
X143250000Y-140823000D01*
X143250000Y-140823000D02*
X144010000Y-140823000D01*
X144010000Y-140823000D02*
X144010000Y-134823000D01*
X143250000Y-131765929D02*
X143250000Y-132163000D01*
X144010000Y-131765929D02*
X144010000Y-132163000D01*
X144900000Y-132163000D02*
X144900000Y-134823000D01*
X145790000Y-134823000D02*
X145790000Y-140823000D01*
X145790000Y-140823000D02*
X146550000Y-140823000D01*
X146550000Y-140823000D02*
X146550000Y-134823000D01*
X145790000Y-131765929D02*
X145790000Y-132163000D01*
X146550000Y-131765929D02*
X146550000Y-132163000D01*
X147440000Y-132163000D02*
X147440000Y-134823000D01*
X148330000Y-134823000D02*
X148330000Y-140823000D01*
X148330000Y-140823000D02*
X149090000Y-140823000D01*
X149090000Y-140823000D02*
X149090000Y-134823000D01*
X148330000Y-131765929D02*
X148330000Y-132163000D01*
X149090000Y-131765929D02*
X149090000Y-132163000D01*
X149980000Y-132163000D02*
X149980000Y-134823000D01*
X150870000Y-134823000D02*
X150870000Y-140823000D01*
X150870000Y-140823000D02*
X151630000Y-140823000D01*
X151630000Y-140823000D02*
X151630000Y-134823000D01*
X150870000Y-131765929D02*
X150870000Y-132163000D01*
X151630000Y-131765929D02*
X151630000Y-132163000D01*
X152520000Y-132163000D02*
X152520000Y-134823000D01*
X153410000Y-134823000D02*
X153410000Y-140823000D01*
X153410000Y-140823000D02*
X154170000Y-140823000D01*
X154170000Y-140823000D02*
X154170000Y-134823000D01*
X153410000Y-131765929D02*
X153410000Y-132163000D01*
X154170000Y-131765929D02*
X154170000Y-132163000D01*
X155060000Y-132163000D02*
X155060000Y-134823000D01*
X155950000Y-134823000D02*
X155950000Y-140823000D01*
X155950000Y-140823000D02*
X156710000Y-140823000D01*
X156710000Y-140823000D02*
X156710000Y-134823000D01*
X155950000Y-131765929D02*
X155950000Y-132163000D01*
X156710000Y-131765929D02*
X156710000Y-132163000D01*
X157600000Y-132163000D02*
X157600000Y-134823000D01*
X158490000Y-134823000D02*
X158490000Y-140823000D01*
X158490000Y-140823000D02*
X159250000Y-140823000D01*
X159250000Y-140823000D02*
X159250000Y-134823000D01*
X158490000Y-131765929D02*
X158490000Y-132163000D01*
X159250000Y-131765929D02*
X159250000Y-132163000D01*
X160140000Y-132163000D02*
X160140000Y-134823000D01*
X161030000Y-134823000D02*
X161030000Y-140823000D01*
X161030000Y-140823000D02*
X161790000Y-140823000D01*
X161790000Y-140823000D02*
X161790000Y-134823000D01*
X161030000Y-131765929D02*
X161030000Y-132163000D01*
X161790000Y-131765929D02*
X161790000Y-132163000D01*
X133470000Y-129453000D02*
X132200000Y-129453000D01*
X132200000Y-129453000D02*
X132200000Y-130723000D01*
X136040000Y-125446000D02*
X135740000Y-125746000D01*
X136340000Y-125746000D02*
X135740000Y-125746000D01*
X136040000Y-125446000D02*
X136340000Y-125746000D01*
X136790000Y-125246000D02*
X136790000Y-123246000D01*
X132690000Y-125246000D02*
X136790000Y-125246000D01*
X132690000Y-123246000D02*
X132690000Y-125246000D01*
X136790000Y-123246000D02*
X132690000Y-123246000D01*
X132690000Y-122198000D02*
X136790000Y-122198000D01*
X136790000Y-122198000D02*
X136790000Y-120198000D01*
X136790000Y-120198000D02*
X132690000Y-120198000D01*
X132690000Y-120198000D02*
X132690000Y-122198000D01*
X133440000Y-119998000D02*
X133140000Y-119698000D01*
X133140000Y-119698000D02*
X133740000Y-119698000D01*
X133440000Y-119998000D02*
X133740000Y-119698000D01*
D10*
X173506666Y-116949904D02*
X173506666Y-117521333D01*
X173544761Y-117635619D01*
X173620952Y-117711809D01*
X173735238Y-117749904D01*
X173811428Y-117749904D01*
X173125714Y-117749904D02*
X173125714Y-116949904D01*
X172820952Y-116949904D01*
X172744761Y-116988000D01*
X172706666Y-117026095D01*
X172668571Y-117102285D01*
X172668571Y-117216571D01*
X172706666Y-117292761D01*
X172744761Y-117330857D01*
X172820952Y-117368952D01*
X173125714Y-117368952D01*
X171906666Y-117749904D02*
X172363809Y-117749904D01*
X172135238Y-117749904D02*
X172135238Y-116949904D01*
X172211428Y-117064190D01*
X172287619Y-117140380D01*
X172363809Y-117178476D01*
X175125714Y-119862809D02*
X175163809Y-119824714D01*
X175201904Y-119710428D01*
X175201904Y-119634238D01*
X175163809Y-119519952D01*
X175087619Y-119443761D01*
X175011428Y-119405666D01*
X174859047Y-119367571D01*
X174744761Y-119367571D01*
X174592380Y-119405666D01*
X174516190Y-119443761D01*
X174440000Y-119519952D01*
X174401904Y-119634238D01*
X174401904Y-119710428D01*
X174440000Y-119824714D01*
X174478095Y-119862809D01*
X175201904Y-120586619D02*
X175201904Y-120205666D01*
X174401904Y-120205666D01*
X175201904Y-120853285D02*
X174401904Y-120853285D01*
X175201904Y-121310428D02*
X174744761Y-120967571D01*
X174401904Y-121310428D02*
X174859047Y-120853285D01*
X167791666Y-119489904D02*
X167791666Y-120061333D01*
X167829761Y-120175619D01*
X167905952Y-120251809D01*
X168020238Y-120289904D01*
X168096428Y-120289904D01*
X167410714Y-120289904D02*
X167410714Y-119489904D01*
X167105952Y-119489904D01*
X167029761Y-119528000D01*
X166991666Y-119566095D01*
X166953571Y-119642285D01*
X166953571Y-119756571D01*
X166991666Y-119832761D01*
X167029761Y-119870857D01*
X167105952Y-119908952D01*
X167410714Y-119908952D01*
X166648809Y-119566095D02*
X166610714Y-119528000D01*
X166534523Y-119489904D01*
X166344047Y-119489904D01*
X166267857Y-119528000D01*
X166229761Y-119566095D01*
X166191666Y-119642285D01*
X166191666Y-119718476D01*
X166229761Y-119832761D01*
X166686904Y-120289904D01*
X166191666Y-120289904D01*
X165486904Y-121961857D02*
X164686904Y-121961857D01*
X164686904Y-122152333D01*
X164725000Y-122266619D01*
X164801190Y-122342809D01*
X164877380Y-122380904D01*
X165029761Y-122419000D01*
X165144047Y-122419000D01*
X165296428Y-122380904D01*
X165372619Y-122342809D01*
X165448809Y-122266619D01*
X165486904Y-122152333D01*
X165486904Y-121961857D01*
X165258333Y-122723761D02*
X165258333Y-123104714D01*
X165486904Y-122647571D02*
X164686904Y-122914238D01*
X165486904Y-123180904D01*
X164686904Y-123333285D02*
X164686904Y-123790428D01*
X165486904Y-123561857D02*
X164686904Y-123561857D01*
D12*
X130652380Y-134774666D02*
X131366666Y-134774666D01*
X131509523Y-134727047D01*
X131604761Y-134631809D01*
X131652380Y-134488952D01*
X131652380Y-134393714D01*
X131652380Y-135774666D02*
X131652380Y-135203238D01*
X131652380Y-135488952D02*
X130652380Y-135488952D01*
X130795238Y-135393714D01*
X130890476Y-135298476D01*
X130938095Y-135203238D01*
D10*
X138226095Y-121864666D02*
X137654666Y-121864666D01*
X137540380Y-121902761D01*
X137464190Y-121978952D01*
X137426095Y-122093238D01*
X137426095Y-122169428D01*
X137426095Y-121483714D02*
X138226095Y-121483714D01*
X138226095Y-121178952D01*
X138188000Y-121102761D01*
X138149904Y-121064666D01*
X138073714Y-121026571D01*
X137959428Y-121026571D01*
X137883238Y-121064666D01*
X137845142Y-121102761D01*
X137807047Y-121178952D01*
X137807047Y-121483714D01*
X138226095Y-120759904D02*
X138226095Y-120264666D01*
X137921333Y-120531333D01*
X137921333Y-120417047D01*
X137883238Y-120340857D01*
X137845142Y-120302761D01*
X137768952Y-120264666D01*
X137578476Y-120264666D01*
X137502285Y-120302761D01*
X137464190Y-120340857D01*
X137426095Y-120417047D01*
X137426095Y-120645619D01*
X137464190Y-120721809D01*
X137502285Y-120759904D01*
X136854285Y-126893904D02*
X136854285Y-126093904D01*
X136549523Y-126093904D01*
X136473333Y-126132000D01*
X136435238Y-126170095D01*
X136397142Y-126246285D01*
X136397142Y-126360571D01*
X136435238Y-126436761D01*
X136473333Y-126474857D01*
X136549523Y-126512952D01*
X136854285Y-126512952D01*
X135635238Y-126893904D02*
X136092380Y-126893904D01*
X135863809Y-126893904D02*
X135863809Y-126093904D01*
X135940000Y-126208190D01*
X136016190Y-126284380D01*
X136092380Y-126322476D01*
X135482857Y-126970095D02*
X134873333Y-126970095D01*
X134263809Y-126132000D02*
X134340000Y-126093904D01*
X134454285Y-126093904D01*
X134568571Y-126132000D01*
X134644761Y-126208190D01*
X134682857Y-126284380D01*
X134720952Y-126436761D01*
X134720952Y-126551047D01*
X134682857Y-126703428D01*
X134644761Y-126779619D01*
X134568571Y-126855809D01*
X134454285Y-126893904D01*
X134378095Y-126893904D01*
X134263809Y-126855809D01*
X134225714Y-126817714D01*
X134225714Y-126551047D01*
X134378095Y-126551047D01*
X133882857Y-126893904D02*
X133882857Y-126093904D01*
X133425714Y-126893904D01*
X133425714Y-126093904D01*
X133044761Y-126893904D02*
X133044761Y-126093904D01*
X132854285Y-126093904D01*
X132740000Y-126132000D01*
X132663809Y-126208190D01*
X132625714Y-126284380D01*
X132587619Y-126436761D01*
X132587619Y-126551047D01*
X132625714Y-126703428D01*
X132663809Y-126779619D01*
X132740000Y-126855809D01*
X132854285Y-126893904D01*
X133044761Y-126893904D01*
X138226095Y-124912666D02*
X137654666Y-124912666D01*
X137540380Y-124950761D01*
X137464190Y-125026952D01*
X137426095Y-125141238D01*
X137426095Y-125217428D01*
X137426095Y-124531714D02*
X138226095Y-124531714D01*
X138226095Y-124226952D01*
X138188000Y-124150761D01*
X138149904Y-124112666D01*
X138073714Y-124074571D01*
X137959428Y-124074571D01*
X137883238Y-124112666D01*
X137845142Y-124150761D01*
X137807047Y-124226952D01*
X137807047Y-124531714D01*
X137959428Y-123388857D02*
X137426095Y-123388857D01*
X138264190Y-123579333D02*
X137692761Y-123769809D01*
X137692761Y-123274571D01*
X136778095Y-119273904D02*
X136778095Y-118473904D01*
X136473333Y-118473904D01*
X136397142Y-118512000D01*
X136359047Y-118550095D01*
X136320952Y-118626285D01*
X136320952Y-118740571D01*
X136359047Y-118816761D01*
X136397142Y-118854857D01*
X136473333Y-118892952D01*
X136778095Y-118892952D01*
X136016190Y-118550095D02*
X135978095Y-118512000D01*
X135901904Y-118473904D01*
X135711428Y-118473904D01*
X135635238Y-118512000D01*
X135597142Y-118550095D01*
X135559047Y-118626285D01*
X135559047Y-118702476D01*
X135597142Y-118816761D01*
X136054285Y-119273904D01*
X135559047Y-119273904D01*
X135406666Y-119350095D02*
X134797142Y-119350095D01*
X134720952Y-118473904D02*
X134454285Y-119273904D01*
X134187619Y-118473904D01*
X133463809Y-119197714D02*
X133501904Y-119235809D01*
X133616190Y-119273904D01*
X133692380Y-119273904D01*
X133806666Y-119235809D01*
X133882857Y-119159619D01*
X133920952Y-119083428D01*
X133959047Y-118931047D01*
X133959047Y-118816761D01*
X133920952Y-118664380D01*
X133882857Y-118588190D01*
X133806666Y-118512000D01*
X133692380Y-118473904D01*
X133616190Y-118473904D01*
X133501904Y-118512000D01*
X133463809Y-118550095D01*
X132663809Y-119197714D02*
X132701904Y-119235809D01*
X132816190Y-119273904D01*
X132892380Y-119273904D01*
X133006666Y-119235809D01*
X133082857Y-119159619D01*
X133120952Y-119083428D01*
X133159047Y-118931047D01*
X133159047Y-118816761D01*
X133120952Y-118664380D01*
X133082857Y-118588190D01*
X133006666Y-118512000D01*
X132892380Y-118473904D01*
X132816190Y-118473904D01*
X132701904Y-118512000D01*
X132663809Y-118550095D01*
M02*
