G04 #@! TF.GenerationSoftware,KiCad,Pcbnew,(5.1.8)-1*
G04 #@! TF.CreationDate,2022-07-09T03:05:26+02:00*
G04 #@! TF.ProjectId,BulkyMIDI-32 Module Panel,42756c6b-794d-4494-9449-2d3332204d6f,rev?*
G04 #@! TF.SameCoordinates,Original*
G04 #@! TF.FileFunction,Legend,Top*
G04 #@! TF.FilePolarity,Positive*
%FSLAX46Y46*%
G04 Gerber Fmt 4.6, Leading zero omitted, Abs format (unit mm)*
G04 Created by KiCad (PCBNEW (5.1.8)-1) date 2022-07-09 03:05:26*
%MOMM*%
%LPD*%
G01*
G04 APERTURE LIST*
%ADD10C,0.120000*%
%ADD11C,0.100000*%
%ADD12C,0.150000*%
G04 APERTURE END LIST*
D10*
X109630000Y-121273000D02*
X114130000Y-121273000D01*
X108380000Y-117273000D02*
X108380000Y-118773000D01*
X114130000Y-114773000D02*
X109630000Y-114773000D01*
X115380000Y-118773000D02*
X115380000Y-117273000D01*
X115380000Y-127663000D02*
X115380000Y-126163000D01*
X114130000Y-123663000D02*
X109630000Y-123663000D01*
X108380000Y-126163000D02*
X108380000Y-127663000D01*
X109630000Y-130163000D02*
X114130000Y-130163000D01*
X170285000Y-121579000D02*
X169285000Y-121579000D01*
X169785000Y-122079000D02*
X169785000Y-121079000D01*
X163685000Y-118079000D02*
X163685000Y-115679000D01*
X163685000Y-122879000D02*
X163685000Y-120279000D01*
X163685000Y-127479000D02*
X163685000Y-125079000D01*
X176985000Y-125679000D02*
X177285000Y-125379000D01*
X177585000Y-125679000D02*
X176985000Y-125679000D01*
X177285000Y-125379000D02*
X177585000Y-125679000D01*
X175885000Y-127479000D02*
X175885000Y-115679000D01*
X171785000Y-127479000D02*
X175885000Y-127479000D01*
X171785000Y-115679000D02*
X175885000Y-115679000D01*
X163685000Y-115679000D02*
X167785000Y-115679000D01*
X167785000Y-127479000D02*
X163685000Y-127479000D01*
X172785000Y-121579000D02*
G75*
G03*
X172785000Y-121579000I-3000000J0D01*
G01*
X102315000Y-121579000D02*
G75*
G03*
X102315000Y-121579000I-2500000J0D01*
G01*
X98270000Y-124139000D02*
X101360000Y-124139000D01*
X99815462Y-118589000D02*
G75*
G03*
X98270170Y-124139000I-462J-2990000D01*
G01*
X99814538Y-118589000D02*
G75*
G02*
X101359830Y-124139000I462J-2990000D01*
G01*
D11*
X110665714Y-122796809D02*
X110780000Y-122834904D01*
X110970476Y-122834904D01*
X111046666Y-122796809D01*
X111084761Y-122758714D01*
X111122857Y-122682523D01*
X111122857Y-122606333D01*
X111084761Y-122530142D01*
X111046666Y-122492047D01*
X110970476Y-122453952D01*
X110818095Y-122415857D01*
X110741904Y-122377761D01*
X110703809Y-122339666D01*
X110665714Y-122263476D01*
X110665714Y-122187285D01*
X110703809Y-122111095D01*
X110741904Y-122073000D01*
X110818095Y-122034904D01*
X111008571Y-122034904D01*
X111122857Y-122073000D01*
X111618095Y-122453952D02*
X111618095Y-122834904D01*
X111351428Y-122034904D02*
X111618095Y-122453952D01*
X111884761Y-122034904D01*
X112151428Y-122834904D02*
X112151428Y-122034904D01*
X112608571Y-122834904D01*
X112608571Y-122034904D01*
X112875238Y-122034904D02*
X113332380Y-122034904D01*
X113103809Y-122834904D02*
X113103809Y-122034904D01*
X113599047Y-122834904D02*
X113599047Y-122034904D01*
X113599047Y-122415857D02*
X114056190Y-122415857D01*
X114056190Y-122834904D02*
X114056190Y-122034904D01*
X110813333Y-118346809D02*
X110927619Y-118384904D01*
X111118095Y-118384904D01*
X111194285Y-118346809D01*
X111232380Y-118308714D01*
X111270476Y-118232523D01*
X111270476Y-118156333D01*
X111232380Y-118080142D01*
X111194285Y-118042047D01*
X111118095Y-118003952D01*
X110965714Y-117965857D01*
X110889523Y-117927761D01*
X110851428Y-117889666D01*
X110813333Y-117813476D01*
X110813333Y-117737285D01*
X110851428Y-117661095D01*
X110889523Y-117623000D01*
X110965714Y-117584904D01*
X111156190Y-117584904D01*
X111270476Y-117623000D01*
X111537142Y-117584904D02*
X111727619Y-118384904D01*
X111880000Y-117813476D01*
X112032380Y-118384904D01*
X112222857Y-117584904D01*
X112946666Y-118384904D02*
X112489523Y-118384904D01*
X112718095Y-118384904D02*
X112718095Y-117584904D01*
X112641904Y-117699190D01*
X112565714Y-117775380D01*
X112489523Y-117813476D01*
X111751428Y-131724904D02*
X111484761Y-131343952D01*
X111294285Y-131724904D02*
X111294285Y-130924904D01*
X111599047Y-130924904D01*
X111675238Y-130963000D01*
X111713333Y-131001095D01*
X111751428Y-131077285D01*
X111751428Y-131191571D01*
X111713333Y-131267761D01*
X111675238Y-131305857D01*
X111599047Y-131343952D01*
X111294285Y-131343952D01*
X112246666Y-130924904D02*
X112399047Y-130924904D01*
X112475238Y-130963000D01*
X112551428Y-131039190D01*
X112589523Y-131191571D01*
X112589523Y-131458238D01*
X112551428Y-131610619D01*
X112475238Y-131686809D01*
X112399047Y-131724904D01*
X112246666Y-131724904D01*
X112170476Y-131686809D01*
X112094285Y-131610619D01*
X112056190Y-131458238D01*
X112056190Y-131191571D01*
X112094285Y-131039190D01*
X112170476Y-130963000D01*
X112246666Y-130924904D01*
X112932380Y-131724904D02*
X112932380Y-130924904D01*
X113199047Y-131496333D01*
X113465714Y-130924904D01*
X113465714Y-131724904D01*
X110813333Y-127236809D02*
X110927619Y-127274904D01*
X111118095Y-127274904D01*
X111194285Y-127236809D01*
X111232380Y-127198714D01*
X111270476Y-127122523D01*
X111270476Y-127046333D01*
X111232380Y-126970142D01*
X111194285Y-126932047D01*
X111118095Y-126893952D01*
X110965714Y-126855857D01*
X110889523Y-126817761D01*
X110851428Y-126779666D01*
X110813333Y-126703476D01*
X110813333Y-126627285D01*
X110851428Y-126551095D01*
X110889523Y-126513000D01*
X110965714Y-126474904D01*
X111156190Y-126474904D01*
X111270476Y-126513000D01*
X111537142Y-126474904D02*
X111727619Y-127274904D01*
X111880000Y-126703476D01*
X112032380Y-127274904D01*
X112222857Y-126474904D01*
X112489523Y-126551095D02*
X112527619Y-126513000D01*
X112603809Y-126474904D01*
X112794285Y-126474904D01*
X112870476Y-126513000D01*
X112908571Y-126551095D01*
X112946666Y-126627285D01*
X112946666Y-126703476D01*
X112908571Y-126817761D01*
X112451428Y-127274904D01*
X112946666Y-127274904D01*
D12*
X164140714Y-117062571D02*
X164474047Y-117062571D01*
X164616904Y-117586380D02*
X164140714Y-117586380D01*
X164140714Y-116586380D01*
X164616904Y-116586380D01*
X165045476Y-117586380D02*
X165045476Y-116586380D01*
X165616904Y-117586380D01*
X165616904Y-116586380D01*
X166664523Y-117491142D02*
X166616904Y-117538761D01*
X166474047Y-117586380D01*
X166378809Y-117586380D01*
X166235952Y-117538761D01*
X166140714Y-117443523D01*
X166093095Y-117348285D01*
X166045476Y-117157809D01*
X166045476Y-117014952D01*
X166093095Y-116824476D01*
X166140714Y-116729238D01*
X166235952Y-116634000D01*
X166378809Y-116586380D01*
X166474047Y-116586380D01*
X166616904Y-116634000D01*
X166664523Y-116681619D01*
X167616904Y-117586380D02*
X167045476Y-117586380D01*
X167331190Y-117586380D02*
X167331190Y-116586380D01*
X167235952Y-116729238D01*
X167140714Y-116824476D01*
X167045476Y-116872095D01*
X140113809Y-118221380D02*
X140113809Y-117221380D01*
X141161428Y-118126142D02*
X141113809Y-118173761D01*
X140970952Y-118221380D01*
X140875714Y-118221380D01*
X140732857Y-118173761D01*
X140637619Y-118078523D01*
X140590000Y-117983285D01*
X140542380Y-117792809D01*
X140542380Y-117649952D01*
X140590000Y-117459476D01*
X140637619Y-117364238D01*
X140732857Y-117269000D01*
X140875714Y-117221380D01*
X140970952Y-117221380D01*
X141113809Y-117269000D01*
X141161428Y-117316619D01*
X142113809Y-118221380D02*
X141542380Y-118221380D01*
X141828095Y-118221380D02*
X141828095Y-117221380D01*
X141732857Y-117364238D01*
X141637619Y-117459476D01*
X141542380Y-117507095D01*
X139637619Y-115824380D02*
X139828095Y-115824380D01*
X139923333Y-115872000D01*
X140018571Y-115967238D01*
X140066190Y-116157714D01*
X140066190Y-116491047D01*
X140018571Y-116681523D01*
X139923333Y-116776761D01*
X139828095Y-116824380D01*
X139637619Y-116824380D01*
X139542380Y-116776761D01*
X139447142Y-116681523D01*
X139399523Y-116491047D01*
X139399523Y-116157714D01*
X139447142Y-115967238D01*
X139542380Y-115872000D01*
X139637619Y-115824380D01*
X140970952Y-116824380D02*
X140494761Y-116824380D01*
X140494761Y-115824380D01*
X141304285Y-116300571D02*
X141637619Y-116300571D01*
X141780476Y-116824380D02*
X141304285Y-116824380D01*
X141304285Y-115824380D01*
X141780476Y-115824380D01*
X142209047Y-116824380D02*
X142209047Y-115824380D01*
X142447142Y-115824380D01*
X142590000Y-115872000D01*
X142685238Y-115967238D01*
X142732857Y-116062476D01*
X142780476Y-116252952D01*
X142780476Y-116395809D01*
X142732857Y-116586285D01*
X142685238Y-116681523D01*
X142590000Y-116776761D01*
X142447142Y-116824380D01*
X142209047Y-116824380D01*
D11*
X98525904Y-122169476D02*
X97725904Y-122169476D01*
X97725904Y-121979000D01*
X97764000Y-121864714D01*
X97840190Y-121788523D01*
X97916380Y-121750428D01*
X98068761Y-121712333D01*
X98183047Y-121712333D01*
X98335428Y-121750428D01*
X98411619Y-121788523D01*
X98487809Y-121864714D01*
X98525904Y-121979000D01*
X98525904Y-122169476D01*
X98525904Y-120950428D02*
X98525904Y-121407571D01*
X98525904Y-121179000D02*
X97725904Y-121179000D01*
X97840190Y-121255190D01*
X97916380Y-121331380D01*
X97954476Y-121407571D01*
X97967380Y-125369904D02*
X97967380Y-124569904D01*
X98272142Y-124569904D01*
X98348333Y-124608000D01*
X98386428Y-124646095D01*
X98424523Y-124722285D01*
X98424523Y-124836571D01*
X98386428Y-124912761D01*
X98348333Y-124950857D01*
X98272142Y-124988952D01*
X97967380Y-124988952D01*
X98919761Y-124569904D02*
X99072142Y-124569904D01*
X99148333Y-124608000D01*
X99224523Y-124684190D01*
X99262619Y-124836571D01*
X99262619Y-125103238D01*
X99224523Y-125255619D01*
X99148333Y-125331809D01*
X99072142Y-125369904D01*
X98919761Y-125369904D01*
X98843571Y-125331809D01*
X98767380Y-125255619D01*
X98729285Y-125103238D01*
X98729285Y-124836571D01*
X98767380Y-124684190D01*
X98843571Y-124608000D01*
X98919761Y-124569904D01*
X99529285Y-124569904D02*
X99719761Y-125369904D01*
X99872142Y-124798476D01*
X100024523Y-125369904D01*
X100215000Y-124569904D01*
X100519761Y-124950857D02*
X100786428Y-124950857D01*
X100900714Y-125369904D02*
X100519761Y-125369904D01*
X100519761Y-124569904D01*
X100900714Y-124569904D01*
X101700714Y-125369904D02*
X101434047Y-124988952D01*
X101243571Y-125369904D02*
X101243571Y-124569904D01*
X101548333Y-124569904D01*
X101624523Y-124608000D01*
X101662619Y-124646095D01*
X101700714Y-124722285D01*
X101700714Y-124836571D01*
X101662619Y-124912761D01*
X101624523Y-124950857D01*
X101548333Y-124988952D01*
X101243571Y-124988952D01*
M02*
