M48
INCH,TZ
T1C0.0157
T2C0.0354
T3C0.0394
T4C0.0400
T5C0.0433
T6C0.0591
T7C0.1200
%
G90
G05
T1
X51797Y-48916
X52297Y-45830
X52547Y-46901
X53047Y-49716
X55547Y-46901
X56047Y-46901
X60047Y-50866
X65047Y-48616
X67297Y-47366
T2
X39297Y-47366
X39297Y-48366
T3
X64089Y-46881
X64089Y-48850
X69797Y-46881
X69797Y-47866
X69797Y-48850
X52547Y-51466
X53547Y-51466
X54547Y-51466
X55547Y-51466
X56547Y-51466
X57547Y-51466
X58547Y-51466
X59547Y-51466
X60547Y-51466
X61547Y-51466
X62547Y-51466
X63547Y-51466
T4
X54047Y-45066
X55047Y-45066
X56047Y-45066
X57047Y-45066
T5
X42768Y-49080
X42768Y-50852
X45327Y-49080
X45327Y-50852
X42768Y-45580
X42768Y-47352
X45327Y-45580
X45327Y-47352
T7
X39297Y-45649
X71797Y-50866
X71797Y-45649
X39297Y-50866
T6
G00X67100Y-45661
M15
G01X66589Y-45661
M16
G05
G00X67100Y-50070
M15
G01X66589Y-50070
M16
G05
T0
M30
