G04 #@! TF.GenerationSoftware,KiCad,Pcbnew,(5.1.8)-1*
G04 #@! TF.CreationDate,2022-07-09T03:05:26+02:00*
G04 #@! TF.ProjectId,BulkyMIDI-32 Module Panel,42756c6b-794d-4494-9449-2d3332204d6f,rev?*
G04 #@! TF.SameCoordinates,Original*
G04 #@! TF.FileFunction,Soldermask,Bot*
G04 #@! TF.FilePolarity,Negative*
%FSLAX46Y46*%
G04 Gerber Fmt 4.6, Leading zero omitted, Abs format (unit mm)*
G04 Created by KiCad (PCBNEW (5.1.8)-1) date 2022-07-09 03:05:26*
%MOMM*%
%LPD*%
G01*
G04 APERTURE LIST*
%ADD10C,2.000000*%
%ADD11C,5.100000*%
%ADD12R,3.200000X2.000000*%
%ADD13R,2.000000X2.000000*%
%ADD14R,1.500000X1.000000*%
%ADD15C,1.727200*%
%ADD16R,1.727200X1.727200*%
%ADD17R,1.700000X1.700000*%
%ADD18O,1.700000X1.700000*%
%ADD19R,1.800000X1.800000*%
%ADD20C,1.800000*%
%ADD21R,1.000000X1.500000*%
G04 APERTURE END LIST*
D10*
X115130000Y-115773000D03*
X115130000Y-120273000D03*
X108630000Y-115773000D03*
X108630000Y-120273000D03*
X108630000Y-129163000D03*
X108630000Y-124663000D03*
X115130000Y-129163000D03*
X115130000Y-124663000D03*
D11*
X99815000Y-129199000D03*
X182365000Y-129199000D03*
X182365000Y-115949000D03*
X99815000Y-115949000D03*
D10*
X162785000Y-119079000D03*
X162785000Y-124079000D03*
D12*
X169785000Y-115979000D03*
X169785000Y-127179000D03*
D10*
X177285000Y-119079000D03*
X177285000Y-121579000D03*
D13*
X177285000Y-124079000D03*
D14*
X172840000Y-121639000D03*
X172840000Y-120339000D03*
X172840000Y-119039000D03*
X167125000Y-124119000D03*
X167125000Y-122819000D03*
X167125000Y-121519000D03*
D15*
X144900000Y-114467000D03*
X142360000Y-114467000D03*
X139820000Y-114467000D03*
D16*
X137280000Y-114467000D03*
D17*
X133470000Y-130723000D03*
D18*
X136010000Y-130723000D03*
X138550000Y-130723000D03*
X141090000Y-130723000D03*
X143630000Y-130723000D03*
X146170000Y-130723000D03*
X148710000Y-130723000D03*
X151250000Y-130723000D03*
X153790000Y-130723000D03*
X156330000Y-130723000D03*
X158870000Y-130723000D03*
X161410000Y-130723000D03*
D19*
X99815000Y-122849000D03*
D20*
X99815000Y-120309000D03*
D21*
X133440000Y-124246000D03*
X134740000Y-124246000D03*
X136040000Y-124246000D03*
X133440000Y-121198000D03*
X134740000Y-121198000D03*
X136040000Y-121198000D03*
M02*
