G04 #@! TF.GenerationSoftware,KiCad,Pcbnew,(5.1.8)-1*
G04 #@! TF.CreationDate,2022-02-10T23:24:45+01:00*
G04 #@! TF.ProjectId,BulkyMIDI-32 Gameport IDC,42756c6b-794d-4494-9449-2d3332204761,rev?*
G04 #@! TF.SameCoordinates,Original*
G04 #@! TF.FileFunction,Copper,L2,Bot*
G04 #@! TF.FilePolarity,Positive*
%FSLAX46Y46*%
G04 Gerber Fmt 4.6, Leading zero omitted, Abs format (unit mm)*
G04 Created by KiCad (PCBNEW (5.1.8)-1) date 2022-02-10 23:24:45*
%MOMM*%
%LPD*%
G01*
G04 APERTURE LIST*
G04 #@! TA.AperFunction,ComponentPad*
%ADD10O,1.800000X2.400000*%
G04 #@! TD*
G04 #@! TA.AperFunction,WasherPad*
%ADD11O,2.400000X1.800000*%
G04 #@! TD*
G04 #@! TA.AperFunction,ComponentPad*
%ADD12R,1.600000X1.600000*%
G04 #@! TD*
G04 #@! TA.AperFunction,ComponentPad*
%ADD13O,1.600000X1.600000*%
G04 #@! TD*
G04 #@! TA.AperFunction,ComponentPad*
%ADD14C,1.600000*%
G04 #@! TD*
G04 #@! TA.AperFunction,ComponentPad*
%ADD15R,1.600000X2.400000*%
G04 #@! TD*
G04 #@! TA.AperFunction,ComponentPad*
%ADD16O,1.600000X2.400000*%
G04 #@! TD*
G04 #@! TA.AperFunction,ComponentPad*
%ADD17C,1.700000*%
G04 #@! TD*
G04 #@! TA.AperFunction,WasherPad*
%ADD18C,3.500000*%
G04 #@! TD*
G04 #@! TA.AperFunction,Conductor*
%ADD19C,0.254000*%
G04 #@! TD*
G04 #@! TA.AperFunction,Conductor*
%ADD20C,0.100000*%
G04 #@! TD*
G04 APERTURE END LIST*
D10*
X107950000Y-79756000D03*
D11*
X102950000Y-69756000D03*
X112950000Y-69756000D03*
D10*
X100450000Y-79756000D03*
X115450000Y-79756000D03*
X102950000Y-82256000D03*
X112950000Y-82256000D03*
X128270000Y-79756000D03*
D11*
X123270000Y-69756000D03*
X133270000Y-69756000D03*
D10*
X120770000Y-79756000D03*
X135770000Y-79756000D03*
X123270000Y-82256000D03*
X133270000Y-82256000D03*
D12*
X102616000Y-99568000D03*
D13*
X110236000Y-99568000D03*
X112649000Y-102616000D03*
D14*
X122809000Y-102616000D03*
X137160000Y-102616000D03*
D13*
X127000000Y-102616000D03*
X136652000Y-98552000D03*
D14*
X136652000Y-88392000D03*
X109220000Y-102616000D03*
D13*
X99060000Y-102616000D03*
D15*
X102616000Y-96520000D03*
D16*
X110236000Y-88900000D03*
X105156000Y-96520000D03*
X107696000Y-88900000D03*
X107696000Y-96520000D03*
X105156000Y-88900000D03*
X110236000Y-96520000D03*
X102616000Y-88900000D03*
D15*
X117221000Y-96520000D03*
D16*
X132461000Y-88900000D03*
X119761000Y-96520000D03*
X129921000Y-88900000D03*
X122301000Y-96520000D03*
X127381000Y-88900000D03*
X124841000Y-96520000D03*
X124841000Y-88900000D03*
X127381000Y-96520000D03*
X122301000Y-88900000D03*
X129921000Y-96520000D03*
X119761000Y-88900000D03*
X132461000Y-96520000D03*
X117221000Y-88900000D03*
D14*
X99441000Y-90170000D03*
X99441000Y-95170000D03*
X114046000Y-95170000D03*
X114046000Y-90170000D03*
G04 #@! TA.AperFunction,ComponentPad*
G36*
G01*
X126349200Y-109386000D02*
X127549200Y-109386000D01*
G75*
G02*
X127799200Y-109636000I0J-250000D01*
G01*
X127799200Y-110836000D01*
G75*
G02*
X127549200Y-111086000I-250000J0D01*
G01*
X126349200Y-111086000D01*
G75*
G02*
X126099200Y-110836000I0J250000D01*
G01*
X126099200Y-109636000D01*
G75*
G02*
X126349200Y-109386000I250000J0D01*
G01*
G37*
G04 #@! TD.AperFunction*
D17*
X124409200Y-110236000D03*
X121869200Y-110236000D03*
X119329200Y-110236000D03*
X116789200Y-110236000D03*
X114249200Y-110236000D03*
X111709200Y-110236000D03*
X109169200Y-110236000D03*
X126949200Y-112776000D03*
X124409200Y-112776000D03*
X121869200Y-112776000D03*
X119329200Y-112776000D03*
X116789200Y-112776000D03*
X114249200Y-112776000D03*
X111709200Y-112776000D03*
X109169200Y-112776000D03*
D18*
X100533200Y-111506000D03*
X135636000Y-111506000D03*
D19*
X137649109Y-67780005D02*
X137753101Y-67811402D01*
X137849014Y-67862399D01*
X137933194Y-67931055D01*
X138002440Y-68014758D01*
X138054105Y-68110311D01*
X138086227Y-68214078D01*
X138101001Y-68354650D01*
X138101000Y-101527604D01*
X138074759Y-101501363D01*
X137839727Y-101344320D01*
X137578574Y-101236147D01*
X137301335Y-101181000D01*
X137018665Y-101181000D01*
X136741426Y-101236147D01*
X136480273Y-101344320D01*
X136245241Y-101501363D01*
X136045363Y-101701241D01*
X135888320Y-101936273D01*
X135780147Y-102197426D01*
X135725000Y-102474665D01*
X135725000Y-102757335D01*
X135780147Y-103034574D01*
X135888320Y-103295727D01*
X136045363Y-103530759D01*
X136245241Y-103730637D01*
X136480273Y-103887680D01*
X136741426Y-103995853D01*
X137018665Y-104051000D01*
X137301335Y-104051000D01*
X137578574Y-103995853D01*
X137839727Y-103887680D01*
X138074759Y-103730637D01*
X138101000Y-103704396D01*
X138101000Y-118786480D01*
X138086995Y-118929309D01*
X138055599Y-119033299D01*
X138004601Y-119129213D01*
X137935941Y-119213399D01*
X137852243Y-119282639D01*
X137756689Y-119334305D01*
X137652922Y-119366427D01*
X137512359Y-119381200D01*
X98713720Y-119381200D01*
X98570891Y-119367195D01*
X98466901Y-119335799D01*
X98370987Y-119284801D01*
X98286801Y-119216141D01*
X98217561Y-119132443D01*
X98165895Y-119036889D01*
X98133773Y-118933122D01*
X98119000Y-118792559D01*
X98119000Y-111271098D01*
X98148200Y-111271098D01*
X98148200Y-111740902D01*
X98239854Y-112201679D01*
X98419640Y-112635721D01*
X98680650Y-113026349D01*
X99012851Y-113358550D01*
X99403479Y-113619560D01*
X99837521Y-113799346D01*
X100298298Y-113891000D01*
X100768102Y-113891000D01*
X101228879Y-113799346D01*
X101662921Y-113619560D01*
X102053549Y-113358550D01*
X102385750Y-113026349D01*
X102646760Y-112635721D01*
X102826546Y-112201679D01*
X102918200Y-111740902D01*
X102918200Y-111271098D01*
X102826546Y-110810321D01*
X102646760Y-110376279D01*
X102455301Y-110089740D01*
X107684200Y-110089740D01*
X107684200Y-110382260D01*
X107741268Y-110669158D01*
X107853210Y-110939411D01*
X108015725Y-111182632D01*
X108222568Y-111389475D01*
X108396960Y-111506000D01*
X108222568Y-111622525D01*
X108015725Y-111829368D01*
X107853210Y-112072589D01*
X107741268Y-112342842D01*
X107684200Y-112629740D01*
X107684200Y-112922260D01*
X107741268Y-113209158D01*
X107853210Y-113479411D01*
X108015725Y-113722632D01*
X108222568Y-113929475D01*
X108465789Y-114091990D01*
X108736042Y-114203932D01*
X109022940Y-114261000D01*
X109315460Y-114261000D01*
X109602358Y-114203932D01*
X109872611Y-114091990D01*
X110115832Y-113929475D01*
X110322675Y-113722632D01*
X110439200Y-113548240D01*
X110555725Y-113722632D01*
X110762568Y-113929475D01*
X111005789Y-114091990D01*
X111276042Y-114203932D01*
X111562940Y-114261000D01*
X111855460Y-114261000D01*
X112142358Y-114203932D01*
X112412611Y-114091990D01*
X112655832Y-113929475D01*
X112862675Y-113722632D01*
X112979200Y-113548240D01*
X113095725Y-113722632D01*
X113302568Y-113929475D01*
X113545789Y-114091990D01*
X113816042Y-114203932D01*
X114102940Y-114261000D01*
X114395460Y-114261000D01*
X114682358Y-114203932D01*
X114952611Y-114091990D01*
X115195832Y-113929475D01*
X115402675Y-113722632D01*
X115519200Y-113548240D01*
X115635725Y-113722632D01*
X115842568Y-113929475D01*
X116085789Y-114091990D01*
X116356042Y-114203932D01*
X116642940Y-114261000D01*
X116935460Y-114261000D01*
X117222358Y-114203932D01*
X117492611Y-114091990D01*
X117735832Y-113929475D01*
X117942675Y-113722632D01*
X118059200Y-113548240D01*
X118175725Y-113722632D01*
X118382568Y-113929475D01*
X118625789Y-114091990D01*
X118896042Y-114203932D01*
X119182940Y-114261000D01*
X119475460Y-114261000D01*
X119762358Y-114203932D01*
X120032611Y-114091990D01*
X120275832Y-113929475D01*
X120482675Y-113722632D01*
X120599200Y-113548240D01*
X120715725Y-113722632D01*
X120922568Y-113929475D01*
X121165789Y-114091990D01*
X121436042Y-114203932D01*
X121722940Y-114261000D01*
X122015460Y-114261000D01*
X122302358Y-114203932D01*
X122572611Y-114091990D01*
X122815832Y-113929475D01*
X123022675Y-113722632D01*
X123139200Y-113548240D01*
X123255725Y-113722632D01*
X123462568Y-113929475D01*
X123705789Y-114091990D01*
X123976042Y-114203932D01*
X124262940Y-114261000D01*
X124555460Y-114261000D01*
X124842358Y-114203932D01*
X125112611Y-114091990D01*
X125355832Y-113929475D01*
X125562675Y-113722632D01*
X125679200Y-113548240D01*
X125795725Y-113722632D01*
X126002568Y-113929475D01*
X126245789Y-114091990D01*
X126516042Y-114203932D01*
X126802940Y-114261000D01*
X127095460Y-114261000D01*
X127382358Y-114203932D01*
X127652611Y-114091990D01*
X127895832Y-113929475D01*
X128102675Y-113722632D01*
X128265190Y-113479411D01*
X128377132Y-113209158D01*
X128434200Y-112922260D01*
X128434200Y-112629740D01*
X128377132Y-112342842D01*
X128265190Y-112072589D01*
X128102675Y-111829368D01*
X127915592Y-111642285D01*
X128042586Y-111574405D01*
X128177162Y-111463962D01*
X128287605Y-111329386D01*
X128318760Y-111271098D01*
X133251000Y-111271098D01*
X133251000Y-111740902D01*
X133342654Y-112201679D01*
X133522440Y-112635721D01*
X133783450Y-113026349D01*
X134115651Y-113358550D01*
X134506279Y-113619560D01*
X134940321Y-113799346D01*
X135401098Y-113891000D01*
X135870902Y-113891000D01*
X136331679Y-113799346D01*
X136765721Y-113619560D01*
X137156349Y-113358550D01*
X137488550Y-113026349D01*
X137749560Y-112635721D01*
X137929346Y-112201679D01*
X138021000Y-111740902D01*
X138021000Y-111271098D01*
X137929346Y-110810321D01*
X137749560Y-110376279D01*
X137488550Y-109985651D01*
X137156349Y-109653450D01*
X136765721Y-109392440D01*
X136331679Y-109212654D01*
X135870902Y-109121000D01*
X135401098Y-109121000D01*
X134940321Y-109212654D01*
X134506279Y-109392440D01*
X134115651Y-109653450D01*
X133783450Y-109985651D01*
X133522440Y-110376279D01*
X133342654Y-110810321D01*
X133251000Y-111271098D01*
X128318760Y-111271098D01*
X128369672Y-111175850D01*
X128420208Y-111009254D01*
X128437272Y-110836000D01*
X128437272Y-109636000D01*
X128420208Y-109462746D01*
X128369672Y-109296150D01*
X128287605Y-109142614D01*
X128177162Y-109008038D01*
X128042586Y-108897595D01*
X127889050Y-108815528D01*
X127722454Y-108764992D01*
X127549200Y-108747928D01*
X126349200Y-108747928D01*
X126175946Y-108764992D01*
X126009350Y-108815528D01*
X125855814Y-108897595D01*
X125721238Y-109008038D01*
X125610795Y-109142614D01*
X125542915Y-109269608D01*
X125355832Y-109082525D01*
X125112611Y-108920010D01*
X124842358Y-108808068D01*
X124555460Y-108751000D01*
X124262940Y-108751000D01*
X123976042Y-108808068D01*
X123705789Y-108920010D01*
X123462568Y-109082525D01*
X123255725Y-109289368D01*
X123139200Y-109463760D01*
X123022675Y-109289368D01*
X122815832Y-109082525D01*
X122572611Y-108920010D01*
X122302358Y-108808068D01*
X122015460Y-108751000D01*
X121722940Y-108751000D01*
X121436042Y-108808068D01*
X121165789Y-108920010D01*
X120922568Y-109082525D01*
X120715725Y-109289368D01*
X120599889Y-109462729D01*
X120357597Y-109387208D01*
X119508805Y-110236000D01*
X120357597Y-111084792D01*
X120599889Y-111009271D01*
X120715725Y-111182632D01*
X120922568Y-111389475D01*
X121096960Y-111506000D01*
X120922568Y-111622525D01*
X120715725Y-111829368D01*
X120599200Y-112003760D01*
X120482675Y-111829368D01*
X120275832Y-111622525D01*
X120102471Y-111506689D01*
X120177992Y-111264397D01*
X119329200Y-110415605D01*
X118480408Y-111264397D01*
X118555929Y-111506689D01*
X118382568Y-111622525D01*
X118175725Y-111829368D01*
X118059200Y-112003760D01*
X117942675Y-111829368D01*
X117735832Y-111622525D01*
X117562471Y-111506689D01*
X117637992Y-111264397D01*
X116789200Y-110415605D01*
X115940408Y-111264397D01*
X116015929Y-111506689D01*
X115842568Y-111622525D01*
X115635725Y-111829368D01*
X115519200Y-112003760D01*
X115402675Y-111829368D01*
X115195832Y-111622525D01*
X115021440Y-111506000D01*
X115195832Y-111389475D01*
X115402675Y-111182632D01*
X115518511Y-111009271D01*
X115760803Y-111084792D01*
X116609595Y-110236000D01*
X116968805Y-110236000D01*
X117817597Y-111084792D01*
X118059200Y-111009486D01*
X118300803Y-111084792D01*
X119149595Y-110236000D01*
X118300803Y-109387208D01*
X118059200Y-109462514D01*
X117817597Y-109387208D01*
X116968805Y-110236000D01*
X116609595Y-110236000D01*
X115760803Y-109387208D01*
X115518511Y-109462729D01*
X115402675Y-109289368D01*
X115320910Y-109207603D01*
X115940408Y-109207603D01*
X116789200Y-110056395D01*
X117637992Y-109207603D01*
X118480408Y-109207603D01*
X119329200Y-110056395D01*
X120177992Y-109207603D01*
X120100357Y-108958528D01*
X119836317Y-108832629D01*
X119552789Y-108760661D01*
X119260669Y-108745389D01*
X118971181Y-108787401D01*
X118695453Y-108885081D01*
X118558043Y-108958528D01*
X118480408Y-109207603D01*
X117637992Y-109207603D01*
X117560357Y-108958528D01*
X117296317Y-108832629D01*
X117012789Y-108760661D01*
X116720669Y-108745389D01*
X116431181Y-108787401D01*
X116155453Y-108885081D01*
X116018043Y-108958528D01*
X115940408Y-109207603D01*
X115320910Y-109207603D01*
X115195832Y-109082525D01*
X114952611Y-108920010D01*
X114682358Y-108808068D01*
X114395460Y-108751000D01*
X114102940Y-108751000D01*
X113816042Y-108808068D01*
X113545789Y-108920010D01*
X113302568Y-109082525D01*
X113095725Y-109289368D01*
X112979200Y-109463760D01*
X112862675Y-109289368D01*
X112655832Y-109082525D01*
X112412611Y-108920010D01*
X112142358Y-108808068D01*
X111855460Y-108751000D01*
X111562940Y-108751000D01*
X111276042Y-108808068D01*
X111005789Y-108920010D01*
X110762568Y-109082525D01*
X110555725Y-109289368D01*
X110439200Y-109463760D01*
X110322675Y-109289368D01*
X110115832Y-109082525D01*
X109872611Y-108920010D01*
X109602358Y-108808068D01*
X109315460Y-108751000D01*
X109022940Y-108751000D01*
X108736042Y-108808068D01*
X108465789Y-108920010D01*
X108222568Y-109082525D01*
X108015725Y-109289368D01*
X107853210Y-109532589D01*
X107741268Y-109802842D01*
X107684200Y-110089740D01*
X102455301Y-110089740D01*
X102385750Y-109985651D01*
X102053549Y-109653450D01*
X101662921Y-109392440D01*
X101228879Y-109212654D01*
X100768102Y-109121000D01*
X100298298Y-109121000D01*
X99837521Y-109212654D01*
X99403479Y-109392440D01*
X99012851Y-109653450D01*
X98680650Y-109985651D01*
X98419640Y-110376279D01*
X98239854Y-110810321D01*
X98148200Y-111271098D01*
X98119000Y-111271098D01*
X98119000Y-103704396D01*
X98145241Y-103730637D01*
X98380273Y-103887680D01*
X98641426Y-103995853D01*
X98918665Y-104051000D01*
X99201335Y-104051000D01*
X99478574Y-103995853D01*
X99739727Y-103887680D01*
X99974759Y-103730637D01*
X100174637Y-103530759D01*
X100331680Y-103295727D01*
X100439853Y-103034574D01*
X100495000Y-102757335D01*
X100495000Y-102474665D01*
X107785000Y-102474665D01*
X107785000Y-102757335D01*
X107840147Y-103034574D01*
X107948320Y-103295727D01*
X108105363Y-103530759D01*
X108305241Y-103730637D01*
X108540273Y-103887680D01*
X108801426Y-103995853D01*
X109078665Y-104051000D01*
X109361335Y-104051000D01*
X109638574Y-103995853D01*
X109899727Y-103887680D01*
X110134759Y-103730637D01*
X110334637Y-103530759D01*
X110491680Y-103295727D01*
X110599853Y-103034574D01*
X110655000Y-102757335D01*
X110655000Y-102474665D01*
X111214000Y-102474665D01*
X111214000Y-102757335D01*
X111269147Y-103034574D01*
X111377320Y-103295727D01*
X111534363Y-103530759D01*
X111734241Y-103730637D01*
X111969273Y-103887680D01*
X112230426Y-103995853D01*
X112507665Y-104051000D01*
X112790335Y-104051000D01*
X113067574Y-103995853D01*
X113328727Y-103887680D01*
X113563759Y-103730637D01*
X113763637Y-103530759D01*
X113920680Y-103295727D01*
X114028853Y-103034574D01*
X114084000Y-102757335D01*
X114084000Y-102474665D01*
X121374000Y-102474665D01*
X121374000Y-102757335D01*
X121429147Y-103034574D01*
X121537320Y-103295727D01*
X121694363Y-103530759D01*
X121894241Y-103730637D01*
X122129273Y-103887680D01*
X122390426Y-103995853D01*
X122667665Y-104051000D01*
X122950335Y-104051000D01*
X123227574Y-103995853D01*
X123488727Y-103887680D01*
X123723759Y-103730637D01*
X123923637Y-103530759D01*
X124080680Y-103295727D01*
X124188853Y-103034574D01*
X124244000Y-102757335D01*
X124244000Y-102474665D01*
X125565000Y-102474665D01*
X125565000Y-102757335D01*
X125620147Y-103034574D01*
X125728320Y-103295727D01*
X125885363Y-103530759D01*
X126085241Y-103730637D01*
X126320273Y-103887680D01*
X126581426Y-103995853D01*
X126858665Y-104051000D01*
X127141335Y-104051000D01*
X127418574Y-103995853D01*
X127679727Y-103887680D01*
X127914759Y-103730637D01*
X128114637Y-103530759D01*
X128271680Y-103295727D01*
X128379853Y-103034574D01*
X128435000Y-102757335D01*
X128435000Y-102474665D01*
X128379853Y-102197426D01*
X128271680Y-101936273D01*
X128114637Y-101701241D01*
X127914759Y-101501363D01*
X127679727Y-101344320D01*
X127418574Y-101236147D01*
X127141335Y-101181000D01*
X126858665Y-101181000D01*
X126581426Y-101236147D01*
X126320273Y-101344320D01*
X126085241Y-101501363D01*
X125885363Y-101701241D01*
X125728320Y-101936273D01*
X125620147Y-102197426D01*
X125565000Y-102474665D01*
X124244000Y-102474665D01*
X124188853Y-102197426D01*
X124080680Y-101936273D01*
X123923637Y-101701241D01*
X123723759Y-101501363D01*
X123488727Y-101344320D01*
X123227574Y-101236147D01*
X122950335Y-101181000D01*
X122667665Y-101181000D01*
X122390426Y-101236147D01*
X122129273Y-101344320D01*
X121894241Y-101501363D01*
X121694363Y-101701241D01*
X121537320Y-101936273D01*
X121429147Y-102197426D01*
X121374000Y-102474665D01*
X114084000Y-102474665D01*
X114028853Y-102197426D01*
X113920680Y-101936273D01*
X113763637Y-101701241D01*
X113563759Y-101501363D01*
X113328727Y-101344320D01*
X113067574Y-101236147D01*
X112790335Y-101181000D01*
X112507665Y-101181000D01*
X112230426Y-101236147D01*
X111969273Y-101344320D01*
X111734241Y-101501363D01*
X111534363Y-101701241D01*
X111377320Y-101936273D01*
X111269147Y-102197426D01*
X111214000Y-102474665D01*
X110655000Y-102474665D01*
X110599853Y-102197426D01*
X110491680Y-101936273D01*
X110334637Y-101701241D01*
X110134759Y-101501363D01*
X109899727Y-101344320D01*
X109638574Y-101236147D01*
X109361335Y-101181000D01*
X109078665Y-101181000D01*
X108801426Y-101236147D01*
X108540273Y-101344320D01*
X108305241Y-101501363D01*
X108105363Y-101701241D01*
X107948320Y-101936273D01*
X107840147Y-102197426D01*
X107785000Y-102474665D01*
X100495000Y-102474665D01*
X100439853Y-102197426D01*
X100331680Y-101936273D01*
X100174637Y-101701241D01*
X99974759Y-101501363D01*
X99739727Y-101344320D01*
X99478574Y-101236147D01*
X99201335Y-101181000D01*
X98918665Y-101181000D01*
X98641426Y-101236147D01*
X98380273Y-101344320D01*
X98145241Y-101501363D01*
X98119000Y-101527604D01*
X98119000Y-96162702D01*
X98627903Y-96162702D01*
X98699486Y-96406671D01*
X98954996Y-96527571D01*
X99229184Y-96596300D01*
X99511512Y-96610217D01*
X99791130Y-96568787D01*
X100057292Y-96473603D01*
X100182514Y-96406671D01*
X100254097Y-96162702D01*
X99441000Y-95349605D01*
X98627903Y-96162702D01*
X98119000Y-96162702D01*
X98119000Y-95734849D01*
X98137397Y-95786292D01*
X98204329Y-95911514D01*
X98448298Y-95983097D01*
X99261395Y-95170000D01*
X99620605Y-95170000D01*
X100433702Y-95983097D01*
X100677671Y-95911514D01*
X100798571Y-95656004D01*
X100867300Y-95381816D01*
X100870347Y-95320000D01*
X101177928Y-95320000D01*
X101177928Y-97720000D01*
X101190188Y-97844482D01*
X101226498Y-97964180D01*
X101285463Y-98074494D01*
X101364815Y-98171185D01*
X101453541Y-98244000D01*
X101364815Y-98316815D01*
X101285463Y-98413506D01*
X101226498Y-98523820D01*
X101190188Y-98643518D01*
X101177928Y-98768000D01*
X101177928Y-100368000D01*
X101190188Y-100492482D01*
X101226498Y-100612180D01*
X101285463Y-100722494D01*
X101364815Y-100819185D01*
X101461506Y-100898537D01*
X101571820Y-100957502D01*
X101691518Y-100993812D01*
X101816000Y-101006072D01*
X103416000Y-101006072D01*
X103540482Y-100993812D01*
X103660180Y-100957502D01*
X103770494Y-100898537D01*
X103867185Y-100819185D01*
X103946537Y-100722494D01*
X104005502Y-100612180D01*
X104041812Y-100492482D01*
X104054072Y-100368000D01*
X104054072Y-98768000D01*
X104041812Y-98643518D01*
X104005502Y-98523820D01*
X103946537Y-98413506D01*
X103867185Y-98316815D01*
X103778459Y-98244000D01*
X103867185Y-98171185D01*
X103946537Y-98074494D01*
X104005502Y-97964180D01*
X104041812Y-97844482D01*
X104043581Y-97826517D01*
X104136393Y-97939608D01*
X104354900Y-98118932D01*
X104604193Y-98252182D01*
X104874692Y-98334236D01*
X105156000Y-98361943D01*
X105437309Y-98334236D01*
X105707808Y-98252182D01*
X105957101Y-98118932D01*
X106175608Y-97939608D01*
X106354932Y-97721101D01*
X106426000Y-97588142D01*
X106497068Y-97721101D01*
X106676393Y-97939608D01*
X106894900Y-98118932D01*
X107144193Y-98252182D01*
X107414692Y-98334236D01*
X107696000Y-98361943D01*
X107977309Y-98334236D01*
X108247808Y-98252182D01*
X108497101Y-98118932D01*
X108715608Y-97939608D01*
X108894932Y-97721101D01*
X108966000Y-97588142D01*
X109037068Y-97721101D01*
X109216393Y-97939608D01*
X109434900Y-98118932D01*
X109674867Y-98247197D01*
X109556273Y-98296320D01*
X109321241Y-98453363D01*
X109121363Y-98653241D01*
X108964320Y-98888273D01*
X108856147Y-99149426D01*
X108801000Y-99426665D01*
X108801000Y-99709335D01*
X108856147Y-99986574D01*
X108964320Y-100247727D01*
X109121363Y-100482759D01*
X109321241Y-100682637D01*
X109556273Y-100839680D01*
X109817426Y-100947853D01*
X110094665Y-101003000D01*
X110377335Y-101003000D01*
X110654574Y-100947853D01*
X110915727Y-100839680D01*
X111150759Y-100682637D01*
X111350637Y-100482759D01*
X111507680Y-100247727D01*
X111615853Y-99986574D01*
X111671000Y-99709335D01*
X111671000Y-99426665D01*
X111615853Y-99149426D01*
X111507680Y-98888273D01*
X111350637Y-98653241D01*
X111150759Y-98453363D01*
X111086857Y-98410665D01*
X135217000Y-98410665D01*
X135217000Y-98693335D01*
X135272147Y-98970574D01*
X135380320Y-99231727D01*
X135537363Y-99466759D01*
X135737241Y-99666637D01*
X135972273Y-99823680D01*
X136233426Y-99931853D01*
X136510665Y-99987000D01*
X136793335Y-99987000D01*
X137070574Y-99931853D01*
X137331727Y-99823680D01*
X137566759Y-99666637D01*
X137766637Y-99466759D01*
X137923680Y-99231727D01*
X138031853Y-98970574D01*
X138087000Y-98693335D01*
X138087000Y-98410665D01*
X138031853Y-98133426D01*
X137923680Y-97872273D01*
X137766637Y-97637241D01*
X137566759Y-97437363D01*
X137331727Y-97280320D01*
X137070574Y-97172147D01*
X136793335Y-97117000D01*
X136510665Y-97117000D01*
X136233426Y-97172147D01*
X135972273Y-97280320D01*
X135737241Y-97437363D01*
X135537363Y-97637241D01*
X135380320Y-97872273D01*
X135272147Y-98133426D01*
X135217000Y-98410665D01*
X111086857Y-98410665D01*
X110915727Y-98296320D01*
X110797134Y-98247197D01*
X111037101Y-98118932D01*
X111255608Y-97939608D01*
X111434932Y-97721101D01*
X111568182Y-97471808D01*
X111650236Y-97201309D01*
X111671000Y-96990491D01*
X111671000Y-96162702D01*
X113232903Y-96162702D01*
X113304486Y-96406671D01*
X113559996Y-96527571D01*
X113834184Y-96596300D01*
X114116512Y-96610217D01*
X114396130Y-96568787D01*
X114662292Y-96473603D01*
X114787514Y-96406671D01*
X114859097Y-96162702D01*
X114046000Y-95349605D01*
X113232903Y-96162702D01*
X111671000Y-96162702D01*
X111671000Y-96049508D01*
X111650236Y-95838691D01*
X111568182Y-95568192D01*
X111434932Y-95318899D01*
X111370602Y-95240512D01*
X112605783Y-95240512D01*
X112647213Y-95520130D01*
X112742397Y-95786292D01*
X112809329Y-95911514D01*
X113053298Y-95983097D01*
X113866395Y-95170000D01*
X114225605Y-95170000D01*
X115038702Y-95983097D01*
X115282671Y-95911514D01*
X115403571Y-95656004D01*
X115472300Y-95381816D01*
X115475347Y-95320000D01*
X115782928Y-95320000D01*
X115782928Y-97720000D01*
X115795188Y-97844482D01*
X115831498Y-97964180D01*
X115890463Y-98074494D01*
X115969815Y-98171185D01*
X116066506Y-98250537D01*
X116176820Y-98309502D01*
X116296518Y-98345812D01*
X116421000Y-98358072D01*
X118021000Y-98358072D01*
X118145482Y-98345812D01*
X118265180Y-98309502D01*
X118375494Y-98250537D01*
X118472185Y-98171185D01*
X118551537Y-98074494D01*
X118610502Y-97964180D01*
X118646812Y-97844482D01*
X118648581Y-97826517D01*
X118741393Y-97939608D01*
X118959900Y-98118932D01*
X119209193Y-98252182D01*
X119479692Y-98334236D01*
X119761000Y-98361943D01*
X120042309Y-98334236D01*
X120312808Y-98252182D01*
X120562101Y-98118932D01*
X120780608Y-97939608D01*
X120959932Y-97721101D01*
X121031000Y-97588142D01*
X121102068Y-97721101D01*
X121281393Y-97939608D01*
X121499900Y-98118932D01*
X121749193Y-98252182D01*
X122019692Y-98334236D01*
X122301000Y-98361943D01*
X122582309Y-98334236D01*
X122852808Y-98252182D01*
X123102101Y-98118932D01*
X123320608Y-97939608D01*
X123499932Y-97721101D01*
X123571000Y-97588142D01*
X123642068Y-97721101D01*
X123821393Y-97939608D01*
X124039900Y-98118932D01*
X124289193Y-98252182D01*
X124559692Y-98334236D01*
X124841000Y-98361943D01*
X125122309Y-98334236D01*
X125392808Y-98252182D01*
X125642101Y-98118932D01*
X125860608Y-97939608D01*
X126039932Y-97721101D01*
X126111000Y-97588142D01*
X126182068Y-97721101D01*
X126361393Y-97939608D01*
X126579900Y-98118932D01*
X126829193Y-98252182D01*
X127099692Y-98334236D01*
X127381000Y-98361943D01*
X127662309Y-98334236D01*
X127932808Y-98252182D01*
X128182101Y-98118932D01*
X128400608Y-97939608D01*
X128579932Y-97721101D01*
X128651000Y-97588142D01*
X128722068Y-97721101D01*
X128901393Y-97939608D01*
X129119900Y-98118932D01*
X129369193Y-98252182D01*
X129639692Y-98334236D01*
X129921000Y-98361943D01*
X130202309Y-98334236D01*
X130472808Y-98252182D01*
X130722101Y-98118932D01*
X130940608Y-97939608D01*
X131119932Y-97721101D01*
X131188265Y-97593259D01*
X131338399Y-97822839D01*
X131536105Y-98024500D01*
X131769354Y-98183715D01*
X132029182Y-98294367D01*
X132111961Y-98311904D01*
X132334000Y-98189915D01*
X132334000Y-96647000D01*
X132588000Y-96647000D01*
X132588000Y-98189915D01*
X132810039Y-98311904D01*
X132892818Y-98294367D01*
X133152646Y-98183715D01*
X133385895Y-98024500D01*
X133583601Y-97822839D01*
X133738166Y-97586483D01*
X133843650Y-97324514D01*
X133896000Y-97047000D01*
X133896000Y-96647000D01*
X132588000Y-96647000D01*
X132334000Y-96647000D01*
X132314000Y-96647000D01*
X132314000Y-96393000D01*
X132334000Y-96393000D01*
X132334000Y-94850085D01*
X132588000Y-94850085D01*
X132588000Y-96393000D01*
X133896000Y-96393000D01*
X133896000Y-95993000D01*
X133843650Y-95715486D01*
X133738166Y-95453517D01*
X133583601Y-95217161D01*
X133385895Y-95015500D01*
X133152646Y-94856285D01*
X132892818Y-94745633D01*
X132810039Y-94728096D01*
X132588000Y-94850085D01*
X132334000Y-94850085D01*
X132111961Y-94728096D01*
X132029182Y-94745633D01*
X131769354Y-94856285D01*
X131536105Y-95015500D01*
X131338399Y-95217161D01*
X131188265Y-95446741D01*
X131119932Y-95318899D01*
X130940607Y-95100392D01*
X130722100Y-94921068D01*
X130472807Y-94787818D01*
X130202308Y-94705764D01*
X129921000Y-94678057D01*
X129639691Y-94705764D01*
X129369192Y-94787818D01*
X129119899Y-94921068D01*
X128901392Y-95100393D01*
X128722068Y-95318900D01*
X128651000Y-95451858D01*
X128579932Y-95318899D01*
X128400607Y-95100392D01*
X128182100Y-94921068D01*
X127932807Y-94787818D01*
X127662308Y-94705764D01*
X127381000Y-94678057D01*
X127099691Y-94705764D01*
X126829192Y-94787818D01*
X126579899Y-94921068D01*
X126361392Y-95100393D01*
X126182068Y-95318900D01*
X126111000Y-95451858D01*
X126039932Y-95318899D01*
X125860607Y-95100392D01*
X125642100Y-94921068D01*
X125392807Y-94787818D01*
X125122308Y-94705764D01*
X124841000Y-94678057D01*
X124559691Y-94705764D01*
X124289192Y-94787818D01*
X124039899Y-94921068D01*
X123821392Y-95100393D01*
X123642068Y-95318900D01*
X123571000Y-95451858D01*
X123499932Y-95318899D01*
X123320607Y-95100392D01*
X123102100Y-94921068D01*
X122852807Y-94787818D01*
X122582308Y-94705764D01*
X122301000Y-94678057D01*
X122019691Y-94705764D01*
X121749192Y-94787818D01*
X121499899Y-94921068D01*
X121281392Y-95100393D01*
X121102068Y-95318900D01*
X121031000Y-95451858D01*
X120959932Y-95318899D01*
X120780607Y-95100392D01*
X120562100Y-94921068D01*
X120312807Y-94787818D01*
X120042308Y-94705764D01*
X119761000Y-94678057D01*
X119479691Y-94705764D01*
X119209192Y-94787818D01*
X118959899Y-94921068D01*
X118741392Y-95100393D01*
X118648581Y-95213483D01*
X118646812Y-95195518D01*
X118610502Y-95075820D01*
X118551537Y-94965506D01*
X118472185Y-94868815D01*
X118375494Y-94789463D01*
X118265180Y-94730498D01*
X118145482Y-94694188D01*
X118021000Y-94681928D01*
X116421000Y-94681928D01*
X116296518Y-94694188D01*
X116176820Y-94730498D01*
X116066506Y-94789463D01*
X115969815Y-94868815D01*
X115890463Y-94965506D01*
X115831498Y-95075820D01*
X115795188Y-95195518D01*
X115782928Y-95320000D01*
X115475347Y-95320000D01*
X115486217Y-95099488D01*
X115444787Y-94819870D01*
X115349603Y-94553708D01*
X115282671Y-94428486D01*
X115038702Y-94356903D01*
X114225605Y-95170000D01*
X113866395Y-95170000D01*
X113053298Y-94356903D01*
X112809329Y-94428486D01*
X112688429Y-94683996D01*
X112619700Y-94958184D01*
X112605783Y-95240512D01*
X111370602Y-95240512D01*
X111255607Y-95100392D01*
X111037100Y-94921068D01*
X110787807Y-94787818D01*
X110517308Y-94705764D01*
X110236000Y-94678057D01*
X109954691Y-94705764D01*
X109684192Y-94787818D01*
X109434899Y-94921068D01*
X109216392Y-95100393D01*
X109037068Y-95318900D01*
X108966000Y-95451858D01*
X108894932Y-95318899D01*
X108715607Y-95100392D01*
X108497100Y-94921068D01*
X108247807Y-94787818D01*
X107977308Y-94705764D01*
X107696000Y-94678057D01*
X107414691Y-94705764D01*
X107144192Y-94787818D01*
X106894899Y-94921068D01*
X106676392Y-95100393D01*
X106497068Y-95318900D01*
X106426000Y-95451858D01*
X106354932Y-95318899D01*
X106175607Y-95100392D01*
X105957100Y-94921068D01*
X105707807Y-94787818D01*
X105437308Y-94705764D01*
X105156000Y-94678057D01*
X104874691Y-94705764D01*
X104604192Y-94787818D01*
X104354899Y-94921068D01*
X104136392Y-95100393D01*
X104043581Y-95213483D01*
X104041812Y-95195518D01*
X104005502Y-95075820D01*
X103946537Y-94965506D01*
X103867185Y-94868815D01*
X103770494Y-94789463D01*
X103660180Y-94730498D01*
X103540482Y-94694188D01*
X103416000Y-94681928D01*
X101816000Y-94681928D01*
X101691518Y-94694188D01*
X101571820Y-94730498D01*
X101461506Y-94789463D01*
X101364815Y-94868815D01*
X101285463Y-94965506D01*
X101226498Y-95075820D01*
X101190188Y-95195518D01*
X101177928Y-95320000D01*
X100870347Y-95320000D01*
X100881217Y-95099488D01*
X100839787Y-94819870D01*
X100744603Y-94553708D01*
X100677671Y-94428486D01*
X100433702Y-94356903D01*
X99620605Y-95170000D01*
X99261395Y-95170000D01*
X98448298Y-94356903D01*
X98204329Y-94428486D01*
X98119000Y-94608820D01*
X98119000Y-94177298D01*
X98627903Y-94177298D01*
X99441000Y-94990395D01*
X100254097Y-94177298D01*
X113232903Y-94177298D01*
X114046000Y-94990395D01*
X114859097Y-94177298D01*
X114787514Y-93933329D01*
X114532004Y-93812429D01*
X114257816Y-93743700D01*
X113975488Y-93729783D01*
X113695870Y-93771213D01*
X113429708Y-93866397D01*
X113304486Y-93933329D01*
X113232903Y-94177298D01*
X100254097Y-94177298D01*
X100182514Y-93933329D01*
X99927004Y-93812429D01*
X99652816Y-93743700D01*
X99370488Y-93729783D01*
X99090870Y-93771213D01*
X98824708Y-93866397D01*
X98699486Y-93933329D01*
X98627903Y-94177298D01*
X98119000Y-94177298D01*
X98119000Y-90728244D01*
X98169320Y-90849727D01*
X98326363Y-91084759D01*
X98526241Y-91284637D01*
X98761273Y-91441680D01*
X99022426Y-91549853D01*
X99299665Y-91605000D01*
X99582335Y-91605000D01*
X99859574Y-91549853D01*
X100120727Y-91441680D01*
X100355759Y-91284637D01*
X100555637Y-91084759D01*
X100712680Y-90849727D01*
X100820853Y-90588574D01*
X100876000Y-90311335D01*
X100876000Y-90028665D01*
X100820853Y-89751426D01*
X100712680Y-89490273D01*
X100555637Y-89255241D01*
X100355759Y-89055363D01*
X100120727Y-88898320D01*
X99859574Y-88790147D01*
X99582335Y-88735000D01*
X99299665Y-88735000D01*
X99022426Y-88790147D01*
X98761273Y-88898320D01*
X98526241Y-89055363D01*
X98326363Y-89255241D01*
X98169320Y-89490273D01*
X98119000Y-89611756D01*
X98119000Y-88429509D01*
X101181000Y-88429509D01*
X101181000Y-89370492D01*
X101201764Y-89581309D01*
X101283818Y-89851808D01*
X101417068Y-90101101D01*
X101596393Y-90319608D01*
X101814900Y-90498932D01*
X102064193Y-90632182D01*
X102334692Y-90714236D01*
X102616000Y-90741943D01*
X102897309Y-90714236D01*
X103167808Y-90632182D01*
X103417101Y-90498932D01*
X103635608Y-90319608D01*
X103814932Y-90101101D01*
X103886000Y-89968142D01*
X103957068Y-90101101D01*
X104136393Y-90319608D01*
X104354900Y-90498932D01*
X104604193Y-90632182D01*
X104874692Y-90714236D01*
X105156000Y-90741943D01*
X105437309Y-90714236D01*
X105707808Y-90632182D01*
X105957101Y-90498932D01*
X106175608Y-90319608D01*
X106354932Y-90101101D01*
X106426000Y-89968142D01*
X106497068Y-90101101D01*
X106676393Y-90319608D01*
X106894900Y-90498932D01*
X107144193Y-90632182D01*
X107414692Y-90714236D01*
X107696000Y-90741943D01*
X107977309Y-90714236D01*
X108247808Y-90632182D01*
X108497101Y-90498932D01*
X108715608Y-90319608D01*
X108894932Y-90101101D01*
X108963265Y-89973259D01*
X109113399Y-90202839D01*
X109311105Y-90404500D01*
X109544354Y-90563715D01*
X109804182Y-90674367D01*
X109886961Y-90691904D01*
X110109000Y-90569915D01*
X110109000Y-89027000D01*
X110363000Y-89027000D01*
X110363000Y-90569915D01*
X110585039Y-90691904D01*
X110667818Y-90674367D01*
X110927646Y-90563715D01*
X111160895Y-90404500D01*
X111358601Y-90202839D01*
X111472502Y-90028665D01*
X112611000Y-90028665D01*
X112611000Y-90311335D01*
X112666147Y-90588574D01*
X112774320Y-90849727D01*
X112931363Y-91084759D01*
X113131241Y-91284637D01*
X113366273Y-91441680D01*
X113627426Y-91549853D01*
X113904665Y-91605000D01*
X114187335Y-91605000D01*
X114464574Y-91549853D01*
X114725727Y-91441680D01*
X114960759Y-91284637D01*
X115160637Y-91084759D01*
X115317680Y-90849727D01*
X115425853Y-90588574D01*
X115481000Y-90311335D01*
X115481000Y-90028665D01*
X115425853Y-89751426D01*
X115317680Y-89490273D01*
X115160637Y-89255241D01*
X114960759Y-89055363D01*
X114725727Y-88898320D01*
X114464574Y-88790147D01*
X114187335Y-88735000D01*
X113904665Y-88735000D01*
X113627426Y-88790147D01*
X113366273Y-88898320D01*
X113131241Y-89055363D01*
X112931363Y-89255241D01*
X112774320Y-89490273D01*
X112666147Y-89751426D01*
X112611000Y-90028665D01*
X111472502Y-90028665D01*
X111513166Y-89966483D01*
X111618650Y-89704514D01*
X111671000Y-89427000D01*
X111671000Y-89027000D01*
X110363000Y-89027000D01*
X110109000Y-89027000D01*
X110089000Y-89027000D01*
X110089000Y-88773000D01*
X110109000Y-88773000D01*
X110109000Y-87230085D01*
X110363000Y-87230085D01*
X110363000Y-88773000D01*
X111671000Y-88773000D01*
X111671000Y-88429509D01*
X115786000Y-88429509D01*
X115786000Y-89370492D01*
X115806764Y-89581309D01*
X115888818Y-89851808D01*
X116022068Y-90101101D01*
X116201393Y-90319608D01*
X116419900Y-90498932D01*
X116669193Y-90632182D01*
X116939692Y-90714236D01*
X117221000Y-90741943D01*
X117502309Y-90714236D01*
X117772808Y-90632182D01*
X118022101Y-90498932D01*
X118240608Y-90319608D01*
X118419932Y-90101101D01*
X118491000Y-89968142D01*
X118562068Y-90101101D01*
X118741393Y-90319608D01*
X118959900Y-90498932D01*
X119209193Y-90632182D01*
X119479692Y-90714236D01*
X119761000Y-90741943D01*
X120042309Y-90714236D01*
X120312808Y-90632182D01*
X120562101Y-90498932D01*
X120780608Y-90319608D01*
X120959932Y-90101101D01*
X121031000Y-89968142D01*
X121102068Y-90101101D01*
X121281393Y-90319608D01*
X121499900Y-90498932D01*
X121749193Y-90632182D01*
X122019692Y-90714236D01*
X122301000Y-90741943D01*
X122582309Y-90714236D01*
X122852808Y-90632182D01*
X123102101Y-90498932D01*
X123320608Y-90319608D01*
X123499932Y-90101101D01*
X123571000Y-89968142D01*
X123642068Y-90101101D01*
X123821393Y-90319608D01*
X124039900Y-90498932D01*
X124289193Y-90632182D01*
X124559692Y-90714236D01*
X124841000Y-90741943D01*
X125122309Y-90714236D01*
X125392808Y-90632182D01*
X125642101Y-90498932D01*
X125860608Y-90319608D01*
X126039932Y-90101101D01*
X126111000Y-89968142D01*
X126182068Y-90101101D01*
X126361393Y-90319608D01*
X126579900Y-90498932D01*
X126829193Y-90632182D01*
X127099692Y-90714236D01*
X127381000Y-90741943D01*
X127662309Y-90714236D01*
X127932808Y-90632182D01*
X128182101Y-90498932D01*
X128400608Y-90319608D01*
X128579932Y-90101101D01*
X128651000Y-89968142D01*
X128722068Y-90101101D01*
X128901393Y-90319608D01*
X129119900Y-90498932D01*
X129369193Y-90632182D01*
X129639692Y-90714236D01*
X129921000Y-90741943D01*
X130202309Y-90714236D01*
X130472808Y-90632182D01*
X130722101Y-90498932D01*
X130940608Y-90319608D01*
X131119932Y-90101101D01*
X131191000Y-89968142D01*
X131262068Y-90101101D01*
X131441393Y-90319608D01*
X131659900Y-90498932D01*
X131909193Y-90632182D01*
X132179692Y-90714236D01*
X132461000Y-90741943D01*
X132742309Y-90714236D01*
X133012808Y-90632182D01*
X133262101Y-90498932D01*
X133480608Y-90319608D01*
X133659932Y-90101101D01*
X133793182Y-89851808D01*
X133875236Y-89581309D01*
X133896000Y-89370491D01*
X133896000Y-88429508D01*
X133878386Y-88250665D01*
X135217000Y-88250665D01*
X135217000Y-88533335D01*
X135272147Y-88810574D01*
X135380320Y-89071727D01*
X135537363Y-89306759D01*
X135737241Y-89506637D01*
X135972273Y-89663680D01*
X136233426Y-89771853D01*
X136510665Y-89827000D01*
X136793335Y-89827000D01*
X137070574Y-89771853D01*
X137331727Y-89663680D01*
X137566759Y-89506637D01*
X137766637Y-89306759D01*
X137923680Y-89071727D01*
X138031853Y-88810574D01*
X138087000Y-88533335D01*
X138087000Y-88250665D01*
X138031853Y-87973426D01*
X137923680Y-87712273D01*
X137766637Y-87477241D01*
X137566759Y-87277363D01*
X137331727Y-87120320D01*
X137070574Y-87012147D01*
X136793335Y-86957000D01*
X136510665Y-86957000D01*
X136233426Y-87012147D01*
X135972273Y-87120320D01*
X135737241Y-87277363D01*
X135537363Y-87477241D01*
X135380320Y-87712273D01*
X135272147Y-87973426D01*
X135217000Y-88250665D01*
X133878386Y-88250665D01*
X133875236Y-88218691D01*
X133793182Y-87948192D01*
X133659932Y-87698899D01*
X133480607Y-87480392D01*
X133262100Y-87301068D01*
X133012807Y-87167818D01*
X132742308Y-87085764D01*
X132461000Y-87058057D01*
X132179691Y-87085764D01*
X131909192Y-87167818D01*
X131659899Y-87301068D01*
X131441392Y-87480393D01*
X131262068Y-87698900D01*
X131191000Y-87831858D01*
X131119932Y-87698899D01*
X130940607Y-87480392D01*
X130722100Y-87301068D01*
X130472807Y-87167818D01*
X130202308Y-87085764D01*
X129921000Y-87058057D01*
X129639691Y-87085764D01*
X129369192Y-87167818D01*
X129119899Y-87301068D01*
X128901392Y-87480393D01*
X128722068Y-87698900D01*
X128651000Y-87831858D01*
X128579932Y-87698899D01*
X128400607Y-87480392D01*
X128182100Y-87301068D01*
X127932807Y-87167818D01*
X127662308Y-87085764D01*
X127381000Y-87058057D01*
X127099691Y-87085764D01*
X126829192Y-87167818D01*
X126579899Y-87301068D01*
X126361392Y-87480393D01*
X126182068Y-87698900D01*
X126111000Y-87831858D01*
X126039932Y-87698899D01*
X125860607Y-87480392D01*
X125642100Y-87301068D01*
X125392807Y-87167818D01*
X125122308Y-87085764D01*
X124841000Y-87058057D01*
X124559691Y-87085764D01*
X124289192Y-87167818D01*
X124039899Y-87301068D01*
X123821392Y-87480393D01*
X123642068Y-87698900D01*
X123571000Y-87831858D01*
X123499932Y-87698899D01*
X123320607Y-87480392D01*
X123102100Y-87301068D01*
X122852807Y-87167818D01*
X122582308Y-87085764D01*
X122301000Y-87058057D01*
X122019691Y-87085764D01*
X121749192Y-87167818D01*
X121499899Y-87301068D01*
X121281392Y-87480393D01*
X121102068Y-87698900D01*
X121031000Y-87831858D01*
X120959932Y-87698899D01*
X120780607Y-87480392D01*
X120562100Y-87301068D01*
X120312807Y-87167818D01*
X120042308Y-87085764D01*
X119761000Y-87058057D01*
X119479691Y-87085764D01*
X119209192Y-87167818D01*
X118959899Y-87301068D01*
X118741392Y-87480393D01*
X118562068Y-87698900D01*
X118491000Y-87831858D01*
X118419932Y-87698899D01*
X118240607Y-87480392D01*
X118022100Y-87301068D01*
X117772807Y-87167818D01*
X117502308Y-87085764D01*
X117221000Y-87058057D01*
X116939691Y-87085764D01*
X116669192Y-87167818D01*
X116419899Y-87301068D01*
X116201392Y-87480393D01*
X116022068Y-87698900D01*
X115888818Y-87948193D01*
X115806764Y-88218692D01*
X115786000Y-88429509D01*
X111671000Y-88429509D01*
X111671000Y-88373000D01*
X111618650Y-88095486D01*
X111513166Y-87833517D01*
X111358601Y-87597161D01*
X111160895Y-87395500D01*
X110927646Y-87236285D01*
X110667818Y-87125633D01*
X110585039Y-87108096D01*
X110363000Y-87230085D01*
X110109000Y-87230085D01*
X109886961Y-87108096D01*
X109804182Y-87125633D01*
X109544354Y-87236285D01*
X109311105Y-87395500D01*
X109113399Y-87597161D01*
X108963265Y-87826741D01*
X108894932Y-87698899D01*
X108715607Y-87480392D01*
X108497100Y-87301068D01*
X108247807Y-87167818D01*
X107977308Y-87085764D01*
X107696000Y-87058057D01*
X107414691Y-87085764D01*
X107144192Y-87167818D01*
X106894899Y-87301068D01*
X106676392Y-87480393D01*
X106497068Y-87698900D01*
X106426000Y-87831858D01*
X106354932Y-87698899D01*
X106175607Y-87480392D01*
X105957100Y-87301068D01*
X105707807Y-87167818D01*
X105437308Y-87085764D01*
X105156000Y-87058057D01*
X104874691Y-87085764D01*
X104604192Y-87167818D01*
X104354899Y-87301068D01*
X104136392Y-87480393D01*
X103957068Y-87698900D01*
X103886000Y-87831858D01*
X103814932Y-87698899D01*
X103635607Y-87480392D01*
X103417100Y-87301068D01*
X103167807Y-87167818D01*
X102897308Y-87085764D01*
X102616000Y-87058057D01*
X102334691Y-87085764D01*
X102064192Y-87167818D01*
X101814899Y-87301068D01*
X101596392Y-87480393D01*
X101417068Y-87698900D01*
X101283818Y-87948193D01*
X101201764Y-88218692D01*
X101181000Y-88429509D01*
X98119000Y-88429509D01*
X98119000Y-81880592D01*
X101415000Y-81880592D01*
X101415000Y-82631407D01*
X101437210Y-82856912D01*
X101524983Y-83146260D01*
X101667519Y-83412926D01*
X101859339Y-83646661D01*
X102093073Y-83838481D01*
X102359739Y-83981017D01*
X102649087Y-84068790D01*
X102950000Y-84098427D01*
X103250912Y-84068790D01*
X103540260Y-83981017D01*
X103806926Y-83838481D01*
X104040661Y-83646661D01*
X104232481Y-83412927D01*
X104375017Y-83146261D01*
X104462790Y-82856913D01*
X104485000Y-82631408D01*
X104485000Y-81880593D01*
X104485000Y-81880592D01*
X111415000Y-81880592D01*
X111415000Y-82631407D01*
X111437210Y-82856912D01*
X111524983Y-83146260D01*
X111667519Y-83412926D01*
X111859339Y-83646661D01*
X112093073Y-83838481D01*
X112359739Y-83981017D01*
X112649087Y-84068790D01*
X112950000Y-84098427D01*
X113250912Y-84068790D01*
X113540260Y-83981017D01*
X113806926Y-83838481D01*
X114040661Y-83646661D01*
X114232481Y-83412927D01*
X114375017Y-83146261D01*
X114462790Y-82856913D01*
X114485000Y-82631408D01*
X114485000Y-81880593D01*
X114485000Y-81880592D01*
X121735000Y-81880592D01*
X121735000Y-82631407D01*
X121757210Y-82856912D01*
X121844983Y-83146260D01*
X121987519Y-83412926D01*
X122179339Y-83646661D01*
X122413073Y-83838481D01*
X122679739Y-83981017D01*
X122969087Y-84068790D01*
X123270000Y-84098427D01*
X123570912Y-84068790D01*
X123860260Y-83981017D01*
X124126926Y-83838481D01*
X124360661Y-83646661D01*
X124552481Y-83412927D01*
X124695017Y-83146261D01*
X124782790Y-82856913D01*
X124805000Y-82631408D01*
X124805000Y-81880593D01*
X124805000Y-81880592D01*
X131735000Y-81880592D01*
X131735000Y-82631407D01*
X131757210Y-82856912D01*
X131844983Y-83146260D01*
X131987519Y-83412926D01*
X132179339Y-83646661D01*
X132413073Y-83838481D01*
X132679739Y-83981017D01*
X132969087Y-84068790D01*
X133270000Y-84098427D01*
X133570912Y-84068790D01*
X133860260Y-83981017D01*
X134126926Y-83838481D01*
X134360661Y-83646661D01*
X134552481Y-83412927D01*
X134695017Y-83146261D01*
X134782790Y-82856913D01*
X134805000Y-82631408D01*
X134805000Y-81880593D01*
X134782790Y-81655088D01*
X134695017Y-81365739D01*
X134552481Y-81099073D01*
X134360661Y-80865339D01*
X134126927Y-80673519D01*
X133860261Y-80530983D01*
X133570913Y-80443210D01*
X133270000Y-80413573D01*
X132969088Y-80443210D01*
X132679740Y-80530983D01*
X132413074Y-80673519D01*
X132179339Y-80865339D01*
X131987519Y-81099073D01*
X131844983Y-81365739D01*
X131757210Y-81655087D01*
X131735000Y-81880592D01*
X124805000Y-81880592D01*
X124782790Y-81655088D01*
X124695017Y-81365739D01*
X124552481Y-81099073D01*
X124360661Y-80865339D01*
X124126927Y-80673519D01*
X123860261Y-80530983D01*
X123570913Y-80443210D01*
X123270000Y-80413573D01*
X122969088Y-80443210D01*
X122679740Y-80530983D01*
X122413074Y-80673519D01*
X122179339Y-80865339D01*
X121987519Y-81099073D01*
X121844983Y-81365739D01*
X121757210Y-81655087D01*
X121735000Y-81880592D01*
X114485000Y-81880592D01*
X114462790Y-81655088D01*
X114375017Y-81365739D01*
X114232481Y-81099073D01*
X114040661Y-80865339D01*
X113806927Y-80673519D01*
X113540261Y-80530983D01*
X113250913Y-80443210D01*
X112950000Y-80413573D01*
X112649088Y-80443210D01*
X112359740Y-80530983D01*
X112093074Y-80673519D01*
X111859339Y-80865339D01*
X111667519Y-81099073D01*
X111524983Y-81365739D01*
X111437210Y-81655087D01*
X111415000Y-81880592D01*
X104485000Y-81880592D01*
X104462790Y-81655088D01*
X104375017Y-81365739D01*
X104232481Y-81099073D01*
X104040661Y-80865339D01*
X103806927Y-80673519D01*
X103540261Y-80530983D01*
X103250913Y-80443210D01*
X102950000Y-80413573D01*
X102649088Y-80443210D01*
X102359740Y-80530983D01*
X102093074Y-80673519D01*
X101859339Y-80865339D01*
X101667519Y-81099073D01*
X101524983Y-81365739D01*
X101437210Y-81655087D01*
X101415000Y-81880592D01*
X98119000Y-81880592D01*
X98119000Y-79380592D01*
X98915000Y-79380592D01*
X98915000Y-80131407D01*
X98937210Y-80356912D01*
X99024983Y-80646260D01*
X99167519Y-80912926D01*
X99359339Y-81146661D01*
X99593073Y-81338481D01*
X99859739Y-81481017D01*
X100149087Y-81568790D01*
X100450000Y-81598427D01*
X100750912Y-81568790D01*
X101040260Y-81481017D01*
X101306926Y-81338481D01*
X101540661Y-81146661D01*
X101732481Y-80912927D01*
X101875017Y-80646261D01*
X101962790Y-80356913D01*
X101985000Y-80131408D01*
X101985000Y-79380593D01*
X101985000Y-79380592D01*
X106415000Y-79380592D01*
X106415000Y-80131407D01*
X106437210Y-80356912D01*
X106524983Y-80646260D01*
X106667519Y-80912926D01*
X106859339Y-81146661D01*
X107093073Y-81338481D01*
X107359739Y-81481017D01*
X107649087Y-81568790D01*
X107950000Y-81598427D01*
X108250912Y-81568790D01*
X108540260Y-81481017D01*
X108806926Y-81338481D01*
X109040661Y-81146661D01*
X109232481Y-80912927D01*
X109375017Y-80646261D01*
X109462790Y-80356913D01*
X109485000Y-80131408D01*
X109485000Y-79380593D01*
X109485000Y-79380592D01*
X113915000Y-79380592D01*
X113915000Y-80131407D01*
X113937210Y-80356912D01*
X114024983Y-80646260D01*
X114167519Y-80912926D01*
X114359339Y-81146661D01*
X114593073Y-81338481D01*
X114859739Y-81481017D01*
X115149087Y-81568790D01*
X115450000Y-81598427D01*
X115750912Y-81568790D01*
X116040260Y-81481017D01*
X116306926Y-81338481D01*
X116540661Y-81146661D01*
X116732481Y-80912927D01*
X116875017Y-80646261D01*
X116962790Y-80356913D01*
X116985000Y-80131408D01*
X116985000Y-79380593D01*
X116985000Y-79380592D01*
X119235000Y-79380592D01*
X119235000Y-80131407D01*
X119257210Y-80356912D01*
X119344983Y-80646260D01*
X119487519Y-80912926D01*
X119679339Y-81146661D01*
X119913073Y-81338481D01*
X120179739Y-81481017D01*
X120469087Y-81568790D01*
X120770000Y-81598427D01*
X121070912Y-81568790D01*
X121360260Y-81481017D01*
X121626926Y-81338481D01*
X121860661Y-81146661D01*
X122052481Y-80912927D01*
X122195017Y-80646261D01*
X122282790Y-80356913D01*
X122305000Y-80131408D01*
X122305000Y-79883000D01*
X126735000Y-79883000D01*
X126735000Y-80183000D01*
X126789271Y-80480023D01*
X126900446Y-80760751D01*
X127064252Y-81014396D01*
X127274394Y-81231210D01*
X127522796Y-81402862D01*
X127799913Y-81522755D01*
X127905260Y-81547036D01*
X128143000Y-81426378D01*
X128143000Y-79883000D01*
X128397000Y-79883000D01*
X128397000Y-81426378D01*
X128634740Y-81547036D01*
X128740087Y-81522755D01*
X129017204Y-81402862D01*
X129265606Y-81231210D01*
X129475748Y-81014396D01*
X129639554Y-80760751D01*
X129750729Y-80480023D01*
X129805000Y-80183000D01*
X129805000Y-79883000D01*
X128397000Y-79883000D01*
X128143000Y-79883000D01*
X126735000Y-79883000D01*
X122305000Y-79883000D01*
X122305000Y-79380593D01*
X122299919Y-79329000D01*
X126735000Y-79329000D01*
X126735000Y-79629000D01*
X128143000Y-79629000D01*
X128143000Y-78085622D01*
X128397000Y-78085622D01*
X128397000Y-79629000D01*
X129805000Y-79629000D01*
X129805000Y-79380592D01*
X134235000Y-79380592D01*
X134235000Y-80131407D01*
X134257210Y-80356912D01*
X134344983Y-80646260D01*
X134487519Y-80912926D01*
X134679339Y-81146661D01*
X134913073Y-81338481D01*
X135179739Y-81481017D01*
X135469087Y-81568790D01*
X135770000Y-81598427D01*
X136070912Y-81568790D01*
X136360260Y-81481017D01*
X136626926Y-81338481D01*
X136860661Y-81146661D01*
X137052481Y-80912927D01*
X137195017Y-80646261D01*
X137282790Y-80356913D01*
X137305000Y-80131408D01*
X137305000Y-79380593D01*
X137282790Y-79155088D01*
X137195017Y-78865739D01*
X137052481Y-78599073D01*
X136860661Y-78365339D01*
X136626927Y-78173519D01*
X136360261Y-78030983D01*
X136070913Y-77943210D01*
X135770000Y-77913573D01*
X135469088Y-77943210D01*
X135179740Y-78030983D01*
X134913074Y-78173519D01*
X134679339Y-78365339D01*
X134487519Y-78599073D01*
X134344983Y-78865739D01*
X134257210Y-79155087D01*
X134235000Y-79380592D01*
X129805000Y-79380592D01*
X129805000Y-79329000D01*
X129750729Y-79031977D01*
X129639554Y-78751249D01*
X129475748Y-78497604D01*
X129265606Y-78280790D01*
X129017204Y-78109138D01*
X128740087Y-77989245D01*
X128634740Y-77964964D01*
X128397000Y-78085622D01*
X128143000Y-78085622D01*
X127905260Y-77964964D01*
X127799913Y-77989245D01*
X127522796Y-78109138D01*
X127274394Y-78280790D01*
X127064252Y-78497604D01*
X126900446Y-78751249D01*
X126789271Y-79031977D01*
X126735000Y-79329000D01*
X122299919Y-79329000D01*
X122282790Y-79155088D01*
X122195017Y-78865739D01*
X122052481Y-78599073D01*
X121860661Y-78365339D01*
X121626927Y-78173519D01*
X121360261Y-78030983D01*
X121070913Y-77943210D01*
X120770000Y-77913573D01*
X120469088Y-77943210D01*
X120179740Y-78030983D01*
X119913074Y-78173519D01*
X119679339Y-78365339D01*
X119487519Y-78599073D01*
X119344983Y-78865739D01*
X119257210Y-79155087D01*
X119235000Y-79380592D01*
X116985000Y-79380592D01*
X116962790Y-79155088D01*
X116875017Y-78865739D01*
X116732481Y-78599073D01*
X116540661Y-78365339D01*
X116306927Y-78173519D01*
X116040261Y-78030983D01*
X115750913Y-77943210D01*
X115450000Y-77913573D01*
X115149088Y-77943210D01*
X114859740Y-78030983D01*
X114593074Y-78173519D01*
X114359339Y-78365339D01*
X114167519Y-78599073D01*
X114024983Y-78865739D01*
X113937210Y-79155087D01*
X113915000Y-79380592D01*
X109485000Y-79380592D01*
X109462790Y-79155088D01*
X109375017Y-78865739D01*
X109232481Y-78599073D01*
X109040661Y-78365339D01*
X108806927Y-78173519D01*
X108540261Y-78030983D01*
X108250913Y-77943210D01*
X107950000Y-77913573D01*
X107649088Y-77943210D01*
X107359740Y-78030983D01*
X107093074Y-78173519D01*
X106859339Y-78365339D01*
X106667519Y-78599073D01*
X106524983Y-78865739D01*
X106437210Y-79155087D01*
X106415000Y-79380592D01*
X101985000Y-79380592D01*
X101962790Y-79155088D01*
X101875017Y-78865739D01*
X101732481Y-78599073D01*
X101540661Y-78365339D01*
X101306927Y-78173519D01*
X101040261Y-78030983D01*
X100750913Y-77943210D01*
X100450000Y-77913573D01*
X100149088Y-77943210D01*
X99859740Y-78030983D01*
X99593074Y-78173519D01*
X99359339Y-78365339D01*
X99167519Y-78599073D01*
X99024983Y-78865739D01*
X98937210Y-79155087D01*
X98915000Y-79380592D01*
X98119000Y-79380592D01*
X98119000Y-69756000D01*
X101107573Y-69756000D01*
X101137210Y-70056913D01*
X101224983Y-70346261D01*
X101367519Y-70612927D01*
X101559339Y-70846661D01*
X101793073Y-71038481D01*
X102059739Y-71181017D01*
X102349087Y-71268790D01*
X102574592Y-71291000D01*
X103325408Y-71291000D01*
X103550913Y-71268790D01*
X103840261Y-71181017D01*
X104106927Y-71038481D01*
X104340661Y-70846661D01*
X104532481Y-70612927D01*
X104675017Y-70346261D01*
X104762790Y-70056913D01*
X104792427Y-69756000D01*
X111107573Y-69756000D01*
X111137210Y-70056913D01*
X111224983Y-70346261D01*
X111367519Y-70612927D01*
X111559339Y-70846661D01*
X111793073Y-71038481D01*
X112059739Y-71181017D01*
X112349087Y-71268790D01*
X112574592Y-71291000D01*
X113325408Y-71291000D01*
X113550913Y-71268790D01*
X113840261Y-71181017D01*
X114106927Y-71038481D01*
X114340661Y-70846661D01*
X114532481Y-70612927D01*
X114675017Y-70346261D01*
X114762790Y-70056913D01*
X114792427Y-69756000D01*
X121427573Y-69756000D01*
X121457210Y-70056913D01*
X121544983Y-70346261D01*
X121687519Y-70612927D01*
X121879339Y-70846661D01*
X122113073Y-71038481D01*
X122379739Y-71181017D01*
X122669087Y-71268790D01*
X122894592Y-71291000D01*
X123645408Y-71291000D01*
X123870913Y-71268790D01*
X124160261Y-71181017D01*
X124426927Y-71038481D01*
X124660661Y-70846661D01*
X124852481Y-70612927D01*
X124995017Y-70346261D01*
X125082790Y-70056913D01*
X125112427Y-69756000D01*
X131427573Y-69756000D01*
X131457210Y-70056913D01*
X131544983Y-70346261D01*
X131687519Y-70612927D01*
X131879339Y-70846661D01*
X132113073Y-71038481D01*
X132379739Y-71181017D01*
X132669087Y-71268790D01*
X132894592Y-71291000D01*
X133645408Y-71291000D01*
X133870913Y-71268790D01*
X134160261Y-71181017D01*
X134426927Y-71038481D01*
X134660661Y-70846661D01*
X134852481Y-70612927D01*
X134995017Y-70346261D01*
X135082790Y-70056913D01*
X135112427Y-69756000D01*
X135082790Y-69455087D01*
X134995017Y-69165739D01*
X134852481Y-68899073D01*
X134660661Y-68665339D01*
X134426927Y-68473519D01*
X134160261Y-68330983D01*
X133870913Y-68243210D01*
X133645408Y-68221000D01*
X132894592Y-68221000D01*
X132669087Y-68243210D01*
X132379739Y-68330983D01*
X132113073Y-68473519D01*
X131879339Y-68665339D01*
X131687519Y-68899073D01*
X131544983Y-69165739D01*
X131457210Y-69455087D01*
X131427573Y-69756000D01*
X125112427Y-69756000D01*
X125082790Y-69455087D01*
X124995017Y-69165739D01*
X124852481Y-68899073D01*
X124660661Y-68665339D01*
X124426927Y-68473519D01*
X124160261Y-68330983D01*
X123870913Y-68243210D01*
X123645408Y-68221000D01*
X122894592Y-68221000D01*
X122669087Y-68243210D01*
X122379739Y-68330983D01*
X122113073Y-68473519D01*
X121879339Y-68665339D01*
X121687519Y-68899073D01*
X121544983Y-69165739D01*
X121457210Y-69455087D01*
X121427573Y-69756000D01*
X114792427Y-69756000D01*
X114762790Y-69455087D01*
X114675017Y-69165739D01*
X114532481Y-68899073D01*
X114340661Y-68665339D01*
X114106927Y-68473519D01*
X113840261Y-68330983D01*
X113550913Y-68243210D01*
X113325408Y-68221000D01*
X112574592Y-68221000D01*
X112349087Y-68243210D01*
X112059739Y-68330983D01*
X111793073Y-68473519D01*
X111559339Y-68665339D01*
X111367519Y-68899073D01*
X111224983Y-69165739D01*
X111137210Y-69455087D01*
X111107573Y-69756000D01*
X104792427Y-69756000D01*
X104762790Y-69455087D01*
X104675017Y-69165739D01*
X104532481Y-68899073D01*
X104340661Y-68665339D01*
X104106927Y-68473519D01*
X103840261Y-68330983D01*
X103550913Y-68243210D01*
X103325408Y-68221000D01*
X102574592Y-68221000D01*
X102349087Y-68243210D01*
X102059739Y-68330983D01*
X101793073Y-68473519D01*
X101559339Y-68665339D01*
X101367519Y-68899073D01*
X101224983Y-69165739D01*
X101137210Y-69455087D01*
X101107573Y-69756000D01*
X98119000Y-69756000D01*
X98119000Y-68360720D01*
X98133005Y-68217891D01*
X98164402Y-68113899D01*
X98215399Y-68017986D01*
X98284055Y-67933806D01*
X98367758Y-67864560D01*
X98463311Y-67812895D01*
X98567078Y-67780773D01*
X98707641Y-67766000D01*
X137506280Y-67766000D01*
X137649109Y-67780005D01*
G04 #@! TA.AperFunction,Conductor*
D20*
G36*
X137649109Y-67780005D02*
G01*
X137753101Y-67811402D01*
X137849014Y-67862399D01*
X137933194Y-67931055D01*
X138002440Y-68014758D01*
X138054105Y-68110311D01*
X138086227Y-68214078D01*
X138101001Y-68354650D01*
X138101000Y-101527604D01*
X138074759Y-101501363D01*
X137839727Y-101344320D01*
X137578574Y-101236147D01*
X137301335Y-101181000D01*
X137018665Y-101181000D01*
X136741426Y-101236147D01*
X136480273Y-101344320D01*
X136245241Y-101501363D01*
X136045363Y-101701241D01*
X135888320Y-101936273D01*
X135780147Y-102197426D01*
X135725000Y-102474665D01*
X135725000Y-102757335D01*
X135780147Y-103034574D01*
X135888320Y-103295727D01*
X136045363Y-103530759D01*
X136245241Y-103730637D01*
X136480273Y-103887680D01*
X136741426Y-103995853D01*
X137018665Y-104051000D01*
X137301335Y-104051000D01*
X137578574Y-103995853D01*
X137839727Y-103887680D01*
X138074759Y-103730637D01*
X138101000Y-103704396D01*
X138101000Y-118786480D01*
X138086995Y-118929309D01*
X138055599Y-119033299D01*
X138004601Y-119129213D01*
X137935941Y-119213399D01*
X137852243Y-119282639D01*
X137756689Y-119334305D01*
X137652922Y-119366427D01*
X137512359Y-119381200D01*
X98713720Y-119381200D01*
X98570891Y-119367195D01*
X98466901Y-119335799D01*
X98370987Y-119284801D01*
X98286801Y-119216141D01*
X98217561Y-119132443D01*
X98165895Y-119036889D01*
X98133773Y-118933122D01*
X98119000Y-118792559D01*
X98119000Y-111271098D01*
X98148200Y-111271098D01*
X98148200Y-111740902D01*
X98239854Y-112201679D01*
X98419640Y-112635721D01*
X98680650Y-113026349D01*
X99012851Y-113358550D01*
X99403479Y-113619560D01*
X99837521Y-113799346D01*
X100298298Y-113891000D01*
X100768102Y-113891000D01*
X101228879Y-113799346D01*
X101662921Y-113619560D01*
X102053549Y-113358550D01*
X102385750Y-113026349D01*
X102646760Y-112635721D01*
X102826546Y-112201679D01*
X102918200Y-111740902D01*
X102918200Y-111271098D01*
X102826546Y-110810321D01*
X102646760Y-110376279D01*
X102455301Y-110089740D01*
X107684200Y-110089740D01*
X107684200Y-110382260D01*
X107741268Y-110669158D01*
X107853210Y-110939411D01*
X108015725Y-111182632D01*
X108222568Y-111389475D01*
X108396960Y-111506000D01*
X108222568Y-111622525D01*
X108015725Y-111829368D01*
X107853210Y-112072589D01*
X107741268Y-112342842D01*
X107684200Y-112629740D01*
X107684200Y-112922260D01*
X107741268Y-113209158D01*
X107853210Y-113479411D01*
X108015725Y-113722632D01*
X108222568Y-113929475D01*
X108465789Y-114091990D01*
X108736042Y-114203932D01*
X109022940Y-114261000D01*
X109315460Y-114261000D01*
X109602358Y-114203932D01*
X109872611Y-114091990D01*
X110115832Y-113929475D01*
X110322675Y-113722632D01*
X110439200Y-113548240D01*
X110555725Y-113722632D01*
X110762568Y-113929475D01*
X111005789Y-114091990D01*
X111276042Y-114203932D01*
X111562940Y-114261000D01*
X111855460Y-114261000D01*
X112142358Y-114203932D01*
X112412611Y-114091990D01*
X112655832Y-113929475D01*
X112862675Y-113722632D01*
X112979200Y-113548240D01*
X113095725Y-113722632D01*
X113302568Y-113929475D01*
X113545789Y-114091990D01*
X113816042Y-114203932D01*
X114102940Y-114261000D01*
X114395460Y-114261000D01*
X114682358Y-114203932D01*
X114952611Y-114091990D01*
X115195832Y-113929475D01*
X115402675Y-113722632D01*
X115519200Y-113548240D01*
X115635725Y-113722632D01*
X115842568Y-113929475D01*
X116085789Y-114091990D01*
X116356042Y-114203932D01*
X116642940Y-114261000D01*
X116935460Y-114261000D01*
X117222358Y-114203932D01*
X117492611Y-114091990D01*
X117735832Y-113929475D01*
X117942675Y-113722632D01*
X118059200Y-113548240D01*
X118175725Y-113722632D01*
X118382568Y-113929475D01*
X118625789Y-114091990D01*
X118896042Y-114203932D01*
X119182940Y-114261000D01*
X119475460Y-114261000D01*
X119762358Y-114203932D01*
X120032611Y-114091990D01*
X120275832Y-113929475D01*
X120482675Y-113722632D01*
X120599200Y-113548240D01*
X120715725Y-113722632D01*
X120922568Y-113929475D01*
X121165789Y-114091990D01*
X121436042Y-114203932D01*
X121722940Y-114261000D01*
X122015460Y-114261000D01*
X122302358Y-114203932D01*
X122572611Y-114091990D01*
X122815832Y-113929475D01*
X123022675Y-113722632D01*
X123139200Y-113548240D01*
X123255725Y-113722632D01*
X123462568Y-113929475D01*
X123705789Y-114091990D01*
X123976042Y-114203932D01*
X124262940Y-114261000D01*
X124555460Y-114261000D01*
X124842358Y-114203932D01*
X125112611Y-114091990D01*
X125355832Y-113929475D01*
X125562675Y-113722632D01*
X125679200Y-113548240D01*
X125795725Y-113722632D01*
X126002568Y-113929475D01*
X126245789Y-114091990D01*
X126516042Y-114203932D01*
X126802940Y-114261000D01*
X127095460Y-114261000D01*
X127382358Y-114203932D01*
X127652611Y-114091990D01*
X127895832Y-113929475D01*
X128102675Y-113722632D01*
X128265190Y-113479411D01*
X128377132Y-113209158D01*
X128434200Y-112922260D01*
X128434200Y-112629740D01*
X128377132Y-112342842D01*
X128265190Y-112072589D01*
X128102675Y-111829368D01*
X127915592Y-111642285D01*
X128042586Y-111574405D01*
X128177162Y-111463962D01*
X128287605Y-111329386D01*
X128318760Y-111271098D01*
X133251000Y-111271098D01*
X133251000Y-111740902D01*
X133342654Y-112201679D01*
X133522440Y-112635721D01*
X133783450Y-113026349D01*
X134115651Y-113358550D01*
X134506279Y-113619560D01*
X134940321Y-113799346D01*
X135401098Y-113891000D01*
X135870902Y-113891000D01*
X136331679Y-113799346D01*
X136765721Y-113619560D01*
X137156349Y-113358550D01*
X137488550Y-113026349D01*
X137749560Y-112635721D01*
X137929346Y-112201679D01*
X138021000Y-111740902D01*
X138021000Y-111271098D01*
X137929346Y-110810321D01*
X137749560Y-110376279D01*
X137488550Y-109985651D01*
X137156349Y-109653450D01*
X136765721Y-109392440D01*
X136331679Y-109212654D01*
X135870902Y-109121000D01*
X135401098Y-109121000D01*
X134940321Y-109212654D01*
X134506279Y-109392440D01*
X134115651Y-109653450D01*
X133783450Y-109985651D01*
X133522440Y-110376279D01*
X133342654Y-110810321D01*
X133251000Y-111271098D01*
X128318760Y-111271098D01*
X128369672Y-111175850D01*
X128420208Y-111009254D01*
X128437272Y-110836000D01*
X128437272Y-109636000D01*
X128420208Y-109462746D01*
X128369672Y-109296150D01*
X128287605Y-109142614D01*
X128177162Y-109008038D01*
X128042586Y-108897595D01*
X127889050Y-108815528D01*
X127722454Y-108764992D01*
X127549200Y-108747928D01*
X126349200Y-108747928D01*
X126175946Y-108764992D01*
X126009350Y-108815528D01*
X125855814Y-108897595D01*
X125721238Y-109008038D01*
X125610795Y-109142614D01*
X125542915Y-109269608D01*
X125355832Y-109082525D01*
X125112611Y-108920010D01*
X124842358Y-108808068D01*
X124555460Y-108751000D01*
X124262940Y-108751000D01*
X123976042Y-108808068D01*
X123705789Y-108920010D01*
X123462568Y-109082525D01*
X123255725Y-109289368D01*
X123139200Y-109463760D01*
X123022675Y-109289368D01*
X122815832Y-109082525D01*
X122572611Y-108920010D01*
X122302358Y-108808068D01*
X122015460Y-108751000D01*
X121722940Y-108751000D01*
X121436042Y-108808068D01*
X121165789Y-108920010D01*
X120922568Y-109082525D01*
X120715725Y-109289368D01*
X120599889Y-109462729D01*
X120357597Y-109387208D01*
X119508805Y-110236000D01*
X120357597Y-111084792D01*
X120599889Y-111009271D01*
X120715725Y-111182632D01*
X120922568Y-111389475D01*
X121096960Y-111506000D01*
X120922568Y-111622525D01*
X120715725Y-111829368D01*
X120599200Y-112003760D01*
X120482675Y-111829368D01*
X120275832Y-111622525D01*
X120102471Y-111506689D01*
X120177992Y-111264397D01*
X119329200Y-110415605D01*
X118480408Y-111264397D01*
X118555929Y-111506689D01*
X118382568Y-111622525D01*
X118175725Y-111829368D01*
X118059200Y-112003760D01*
X117942675Y-111829368D01*
X117735832Y-111622525D01*
X117562471Y-111506689D01*
X117637992Y-111264397D01*
X116789200Y-110415605D01*
X115940408Y-111264397D01*
X116015929Y-111506689D01*
X115842568Y-111622525D01*
X115635725Y-111829368D01*
X115519200Y-112003760D01*
X115402675Y-111829368D01*
X115195832Y-111622525D01*
X115021440Y-111506000D01*
X115195832Y-111389475D01*
X115402675Y-111182632D01*
X115518511Y-111009271D01*
X115760803Y-111084792D01*
X116609595Y-110236000D01*
X116968805Y-110236000D01*
X117817597Y-111084792D01*
X118059200Y-111009486D01*
X118300803Y-111084792D01*
X119149595Y-110236000D01*
X118300803Y-109387208D01*
X118059200Y-109462514D01*
X117817597Y-109387208D01*
X116968805Y-110236000D01*
X116609595Y-110236000D01*
X115760803Y-109387208D01*
X115518511Y-109462729D01*
X115402675Y-109289368D01*
X115320910Y-109207603D01*
X115940408Y-109207603D01*
X116789200Y-110056395D01*
X117637992Y-109207603D01*
X118480408Y-109207603D01*
X119329200Y-110056395D01*
X120177992Y-109207603D01*
X120100357Y-108958528D01*
X119836317Y-108832629D01*
X119552789Y-108760661D01*
X119260669Y-108745389D01*
X118971181Y-108787401D01*
X118695453Y-108885081D01*
X118558043Y-108958528D01*
X118480408Y-109207603D01*
X117637992Y-109207603D01*
X117560357Y-108958528D01*
X117296317Y-108832629D01*
X117012789Y-108760661D01*
X116720669Y-108745389D01*
X116431181Y-108787401D01*
X116155453Y-108885081D01*
X116018043Y-108958528D01*
X115940408Y-109207603D01*
X115320910Y-109207603D01*
X115195832Y-109082525D01*
X114952611Y-108920010D01*
X114682358Y-108808068D01*
X114395460Y-108751000D01*
X114102940Y-108751000D01*
X113816042Y-108808068D01*
X113545789Y-108920010D01*
X113302568Y-109082525D01*
X113095725Y-109289368D01*
X112979200Y-109463760D01*
X112862675Y-109289368D01*
X112655832Y-109082525D01*
X112412611Y-108920010D01*
X112142358Y-108808068D01*
X111855460Y-108751000D01*
X111562940Y-108751000D01*
X111276042Y-108808068D01*
X111005789Y-108920010D01*
X110762568Y-109082525D01*
X110555725Y-109289368D01*
X110439200Y-109463760D01*
X110322675Y-109289368D01*
X110115832Y-109082525D01*
X109872611Y-108920010D01*
X109602358Y-108808068D01*
X109315460Y-108751000D01*
X109022940Y-108751000D01*
X108736042Y-108808068D01*
X108465789Y-108920010D01*
X108222568Y-109082525D01*
X108015725Y-109289368D01*
X107853210Y-109532589D01*
X107741268Y-109802842D01*
X107684200Y-110089740D01*
X102455301Y-110089740D01*
X102385750Y-109985651D01*
X102053549Y-109653450D01*
X101662921Y-109392440D01*
X101228879Y-109212654D01*
X100768102Y-109121000D01*
X100298298Y-109121000D01*
X99837521Y-109212654D01*
X99403479Y-109392440D01*
X99012851Y-109653450D01*
X98680650Y-109985651D01*
X98419640Y-110376279D01*
X98239854Y-110810321D01*
X98148200Y-111271098D01*
X98119000Y-111271098D01*
X98119000Y-103704396D01*
X98145241Y-103730637D01*
X98380273Y-103887680D01*
X98641426Y-103995853D01*
X98918665Y-104051000D01*
X99201335Y-104051000D01*
X99478574Y-103995853D01*
X99739727Y-103887680D01*
X99974759Y-103730637D01*
X100174637Y-103530759D01*
X100331680Y-103295727D01*
X100439853Y-103034574D01*
X100495000Y-102757335D01*
X100495000Y-102474665D01*
X107785000Y-102474665D01*
X107785000Y-102757335D01*
X107840147Y-103034574D01*
X107948320Y-103295727D01*
X108105363Y-103530759D01*
X108305241Y-103730637D01*
X108540273Y-103887680D01*
X108801426Y-103995853D01*
X109078665Y-104051000D01*
X109361335Y-104051000D01*
X109638574Y-103995853D01*
X109899727Y-103887680D01*
X110134759Y-103730637D01*
X110334637Y-103530759D01*
X110491680Y-103295727D01*
X110599853Y-103034574D01*
X110655000Y-102757335D01*
X110655000Y-102474665D01*
X111214000Y-102474665D01*
X111214000Y-102757335D01*
X111269147Y-103034574D01*
X111377320Y-103295727D01*
X111534363Y-103530759D01*
X111734241Y-103730637D01*
X111969273Y-103887680D01*
X112230426Y-103995853D01*
X112507665Y-104051000D01*
X112790335Y-104051000D01*
X113067574Y-103995853D01*
X113328727Y-103887680D01*
X113563759Y-103730637D01*
X113763637Y-103530759D01*
X113920680Y-103295727D01*
X114028853Y-103034574D01*
X114084000Y-102757335D01*
X114084000Y-102474665D01*
X121374000Y-102474665D01*
X121374000Y-102757335D01*
X121429147Y-103034574D01*
X121537320Y-103295727D01*
X121694363Y-103530759D01*
X121894241Y-103730637D01*
X122129273Y-103887680D01*
X122390426Y-103995853D01*
X122667665Y-104051000D01*
X122950335Y-104051000D01*
X123227574Y-103995853D01*
X123488727Y-103887680D01*
X123723759Y-103730637D01*
X123923637Y-103530759D01*
X124080680Y-103295727D01*
X124188853Y-103034574D01*
X124244000Y-102757335D01*
X124244000Y-102474665D01*
X125565000Y-102474665D01*
X125565000Y-102757335D01*
X125620147Y-103034574D01*
X125728320Y-103295727D01*
X125885363Y-103530759D01*
X126085241Y-103730637D01*
X126320273Y-103887680D01*
X126581426Y-103995853D01*
X126858665Y-104051000D01*
X127141335Y-104051000D01*
X127418574Y-103995853D01*
X127679727Y-103887680D01*
X127914759Y-103730637D01*
X128114637Y-103530759D01*
X128271680Y-103295727D01*
X128379853Y-103034574D01*
X128435000Y-102757335D01*
X128435000Y-102474665D01*
X128379853Y-102197426D01*
X128271680Y-101936273D01*
X128114637Y-101701241D01*
X127914759Y-101501363D01*
X127679727Y-101344320D01*
X127418574Y-101236147D01*
X127141335Y-101181000D01*
X126858665Y-101181000D01*
X126581426Y-101236147D01*
X126320273Y-101344320D01*
X126085241Y-101501363D01*
X125885363Y-101701241D01*
X125728320Y-101936273D01*
X125620147Y-102197426D01*
X125565000Y-102474665D01*
X124244000Y-102474665D01*
X124188853Y-102197426D01*
X124080680Y-101936273D01*
X123923637Y-101701241D01*
X123723759Y-101501363D01*
X123488727Y-101344320D01*
X123227574Y-101236147D01*
X122950335Y-101181000D01*
X122667665Y-101181000D01*
X122390426Y-101236147D01*
X122129273Y-101344320D01*
X121894241Y-101501363D01*
X121694363Y-101701241D01*
X121537320Y-101936273D01*
X121429147Y-102197426D01*
X121374000Y-102474665D01*
X114084000Y-102474665D01*
X114028853Y-102197426D01*
X113920680Y-101936273D01*
X113763637Y-101701241D01*
X113563759Y-101501363D01*
X113328727Y-101344320D01*
X113067574Y-101236147D01*
X112790335Y-101181000D01*
X112507665Y-101181000D01*
X112230426Y-101236147D01*
X111969273Y-101344320D01*
X111734241Y-101501363D01*
X111534363Y-101701241D01*
X111377320Y-101936273D01*
X111269147Y-102197426D01*
X111214000Y-102474665D01*
X110655000Y-102474665D01*
X110599853Y-102197426D01*
X110491680Y-101936273D01*
X110334637Y-101701241D01*
X110134759Y-101501363D01*
X109899727Y-101344320D01*
X109638574Y-101236147D01*
X109361335Y-101181000D01*
X109078665Y-101181000D01*
X108801426Y-101236147D01*
X108540273Y-101344320D01*
X108305241Y-101501363D01*
X108105363Y-101701241D01*
X107948320Y-101936273D01*
X107840147Y-102197426D01*
X107785000Y-102474665D01*
X100495000Y-102474665D01*
X100439853Y-102197426D01*
X100331680Y-101936273D01*
X100174637Y-101701241D01*
X99974759Y-101501363D01*
X99739727Y-101344320D01*
X99478574Y-101236147D01*
X99201335Y-101181000D01*
X98918665Y-101181000D01*
X98641426Y-101236147D01*
X98380273Y-101344320D01*
X98145241Y-101501363D01*
X98119000Y-101527604D01*
X98119000Y-96162702D01*
X98627903Y-96162702D01*
X98699486Y-96406671D01*
X98954996Y-96527571D01*
X99229184Y-96596300D01*
X99511512Y-96610217D01*
X99791130Y-96568787D01*
X100057292Y-96473603D01*
X100182514Y-96406671D01*
X100254097Y-96162702D01*
X99441000Y-95349605D01*
X98627903Y-96162702D01*
X98119000Y-96162702D01*
X98119000Y-95734849D01*
X98137397Y-95786292D01*
X98204329Y-95911514D01*
X98448298Y-95983097D01*
X99261395Y-95170000D01*
X99620605Y-95170000D01*
X100433702Y-95983097D01*
X100677671Y-95911514D01*
X100798571Y-95656004D01*
X100867300Y-95381816D01*
X100870347Y-95320000D01*
X101177928Y-95320000D01*
X101177928Y-97720000D01*
X101190188Y-97844482D01*
X101226498Y-97964180D01*
X101285463Y-98074494D01*
X101364815Y-98171185D01*
X101453541Y-98244000D01*
X101364815Y-98316815D01*
X101285463Y-98413506D01*
X101226498Y-98523820D01*
X101190188Y-98643518D01*
X101177928Y-98768000D01*
X101177928Y-100368000D01*
X101190188Y-100492482D01*
X101226498Y-100612180D01*
X101285463Y-100722494D01*
X101364815Y-100819185D01*
X101461506Y-100898537D01*
X101571820Y-100957502D01*
X101691518Y-100993812D01*
X101816000Y-101006072D01*
X103416000Y-101006072D01*
X103540482Y-100993812D01*
X103660180Y-100957502D01*
X103770494Y-100898537D01*
X103867185Y-100819185D01*
X103946537Y-100722494D01*
X104005502Y-100612180D01*
X104041812Y-100492482D01*
X104054072Y-100368000D01*
X104054072Y-98768000D01*
X104041812Y-98643518D01*
X104005502Y-98523820D01*
X103946537Y-98413506D01*
X103867185Y-98316815D01*
X103778459Y-98244000D01*
X103867185Y-98171185D01*
X103946537Y-98074494D01*
X104005502Y-97964180D01*
X104041812Y-97844482D01*
X104043581Y-97826517D01*
X104136393Y-97939608D01*
X104354900Y-98118932D01*
X104604193Y-98252182D01*
X104874692Y-98334236D01*
X105156000Y-98361943D01*
X105437309Y-98334236D01*
X105707808Y-98252182D01*
X105957101Y-98118932D01*
X106175608Y-97939608D01*
X106354932Y-97721101D01*
X106426000Y-97588142D01*
X106497068Y-97721101D01*
X106676393Y-97939608D01*
X106894900Y-98118932D01*
X107144193Y-98252182D01*
X107414692Y-98334236D01*
X107696000Y-98361943D01*
X107977309Y-98334236D01*
X108247808Y-98252182D01*
X108497101Y-98118932D01*
X108715608Y-97939608D01*
X108894932Y-97721101D01*
X108966000Y-97588142D01*
X109037068Y-97721101D01*
X109216393Y-97939608D01*
X109434900Y-98118932D01*
X109674867Y-98247197D01*
X109556273Y-98296320D01*
X109321241Y-98453363D01*
X109121363Y-98653241D01*
X108964320Y-98888273D01*
X108856147Y-99149426D01*
X108801000Y-99426665D01*
X108801000Y-99709335D01*
X108856147Y-99986574D01*
X108964320Y-100247727D01*
X109121363Y-100482759D01*
X109321241Y-100682637D01*
X109556273Y-100839680D01*
X109817426Y-100947853D01*
X110094665Y-101003000D01*
X110377335Y-101003000D01*
X110654574Y-100947853D01*
X110915727Y-100839680D01*
X111150759Y-100682637D01*
X111350637Y-100482759D01*
X111507680Y-100247727D01*
X111615853Y-99986574D01*
X111671000Y-99709335D01*
X111671000Y-99426665D01*
X111615853Y-99149426D01*
X111507680Y-98888273D01*
X111350637Y-98653241D01*
X111150759Y-98453363D01*
X111086857Y-98410665D01*
X135217000Y-98410665D01*
X135217000Y-98693335D01*
X135272147Y-98970574D01*
X135380320Y-99231727D01*
X135537363Y-99466759D01*
X135737241Y-99666637D01*
X135972273Y-99823680D01*
X136233426Y-99931853D01*
X136510665Y-99987000D01*
X136793335Y-99987000D01*
X137070574Y-99931853D01*
X137331727Y-99823680D01*
X137566759Y-99666637D01*
X137766637Y-99466759D01*
X137923680Y-99231727D01*
X138031853Y-98970574D01*
X138087000Y-98693335D01*
X138087000Y-98410665D01*
X138031853Y-98133426D01*
X137923680Y-97872273D01*
X137766637Y-97637241D01*
X137566759Y-97437363D01*
X137331727Y-97280320D01*
X137070574Y-97172147D01*
X136793335Y-97117000D01*
X136510665Y-97117000D01*
X136233426Y-97172147D01*
X135972273Y-97280320D01*
X135737241Y-97437363D01*
X135537363Y-97637241D01*
X135380320Y-97872273D01*
X135272147Y-98133426D01*
X135217000Y-98410665D01*
X111086857Y-98410665D01*
X110915727Y-98296320D01*
X110797134Y-98247197D01*
X111037101Y-98118932D01*
X111255608Y-97939608D01*
X111434932Y-97721101D01*
X111568182Y-97471808D01*
X111650236Y-97201309D01*
X111671000Y-96990491D01*
X111671000Y-96162702D01*
X113232903Y-96162702D01*
X113304486Y-96406671D01*
X113559996Y-96527571D01*
X113834184Y-96596300D01*
X114116512Y-96610217D01*
X114396130Y-96568787D01*
X114662292Y-96473603D01*
X114787514Y-96406671D01*
X114859097Y-96162702D01*
X114046000Y-95349605D01*
X113232903Y-96162702D01*
X111671000Y-96162702D01*
X111671000Y-96049508D01*
X111650236Y-95838691D01*
X111568182Y-95568192D01*
X111434932Y-95318899D01*
X111370602Y-95240512D01*
X112605783Y-95240512D01*
X112647213Y-95520130D01*
X112742397Y-95786292D01*
X112809329Y-95911514D01*
X113053298Y-95983097D01*
X113866395Y-95170000D01*
X114225605Y-95170000D01*
X115038702Y-95983097D01*
X115282671Y-95911514D01*
X115403571Y-95656004D01*
X115472300Y-95381816D01*
X115475347Y-95320000D01*
X115782928Y-95320000D01*
X115782928Y-97720000D01*
X115795188Y-97844482D01*
X115831498Y-97964180D01*
X115890463Y-98074494D01*
X115969815Y-98171185D01*
X116066506Y-98250537D01*
X116176820Y-98309502D01*
X116296518Y-98345812D01*
X116421000Y-98358072D01*
X118021000Y-98358072D01*
X118145482Y-98345812D01*
X118265180Y-98309502D01*
X118375494Y-98250537D01*
X118472185Y-98171185D01*
X118551537Y-98074494D01*
X118610502Y-97964180D01*
X118646812Y-97844482D01*
X118648581Y-97826517D01*
X118741393Y-97939608D01*
X118959900Y-98118932D01*
X119209193Y-98252182D01*
X119479692Y-98334236D01*
X119761000Y-98361943D01*
X120042309Y-98334236D01*
X120312808Y-98252182D01*
X120562101Y-98118932D01*
X120780608Y-97939608D01*
X120959932Y-97721101D01*
X121031000Y-97588142D01*
X121102068Y-97721101D01*
X121281393Y-97939608D01*
X121499900Y-98118932D01*
X121749193Y-98252182D01*
X122019692Y-98334236D01*
X122301000Y-98361943D01*
X122582309Y-98334236D01*
X122852808Y-98252182D01*
X123102101Y-98118932D01*
X123320608Y-97939608D01*
X123499932Y-97721101D01*
X123571000Y-97588142D01*
X123642068Y-97721101D01*
X123821393Y-97939608D01*
X124039900Y-98118932D01*
X124289193Y-98252182D01*
X124559692Y-98334236D01*
X124841000Y-98361943D01*
X125122309Y-98334236D01*
X125392808Y-98252182D01*
X125642101Y-98118932D01*
X125860608Y-97939608D01*
X126039932Y-97721101D01*
X126111000Y-97588142D01*
X126182068Y-97721101D01*
X126361393Y-97939608D01*
X126579900Y-98118932D01*
X126829193Y-98252182D01*
X127099692Y-98334236D01*
X127381000Y-98361943D01*
X127662309Y-98334236D01*
X127932808Y-98252182D01*
X128182101Y-98118932D01*
X128400608Y-97939608D01*
X128579932Y-97721101D01*
X128651000Y-97588142D01*
X128722068Y-97721101D01*
X128901393Y-97939608D01*
X129119900Y-98118932D01*
X129369193Y-98252182D01*
X129639692Y-98334236D01*
X129921000Y-98361943D01*
X130202309Y-98334236D01*
X130472808Y-98252182D01*
X130722101Y-98118932D01*
X130940608Y-97939608D01*
X131119932Y-97721101D01*
X131188265Y-97593259D01*
X131338399Y-97822839D01*
X131536105Y-98024500D01*
X131769354Y-98183715D01*
X132029182Y-98294367D01*
X132111961Y-98311904D01*
X132334000Y-98189915D01*
X132334000Y-96647000D01*
X132588000Y-96647000D01*
X132588000Y-98189915D01*
X132810039Y-98311904D01*
X132892818Y-98294367D01*
X133152646Y-98183715D01*
X133385895Y-98024500D01*
X133583601Y-97822839D01*
X133738166Y-97586483D01*
X133843650Y-97324514D01*
X133896000Y-97047000D01*
X133896000Y-96647000D01*
X132588000Y-96647000D01*
X132334000Y-96647000D01*
X132314000Y-96647000D01*
X132314000Y-96393000D01*
X132334000Y-96393000D01*
X132334000Y-94850085D01*
X132588000Y-94850085D01*
X132588000Y-96393000D01*
X133896000Y-96393000D01*
X133896000Y-95993000D01*
X133843650Y-95715486D01*
X133738166Y-95453517D01*
X133583601Y-95217161D01*
X133385895Y-95015500D01*
X133152646Y-94856285D01*
X132892818Y-94745633D01*
X132810039Y-94728096D01*
X132588000Y-94850085D01*
X132334000Y-94850085D01*
X132111961Y-94728096D01*
X132029182Y-94745633D01*
X131769354Y-94856285D01*
X131536105Y-95015500D01*
X131338399Y-95217161D01*
X131188265Y-95446741D01*
X131119932Y-95318899D01*
X130940607Y-95100392D01*
X130722100Y-94921068D01*
X130472807Y-94787818D01*
X130202308Y-94705764D01*
X129921000Y-94678057D01*
X129639691Y-94705764D01*
X129369192Y-94787818D01*
X129119899Y-94921068D01*
X128901392Y-95100393D01*
X128722068Y-95318900D01*
X128651000Y-95451858D01*
X128579932Y-95318899D01*
X128400607Y-95100392D01*
X128182100Y-94921068D01*
X127932807Y-94787818D01*
X127662308Y-94705764D01*
X127381000Y-94678057D01*
X127099691Y-94705764D01*
X126829192Y-94787818D01*
X126579899Y-94921068D01*
X126361392Y-95100393D01*
X126182068Y-95318900D01*
X126111000Y-95451858D01*
X126039932Y-95318899D01*
X125860607Y-95100392D01*
X125642100Y-94921068D01*
X125392807Y-94787818D01*
X125122308Y-94705764D01*
X124841000Y-94678057D01*
X124559691Y-94705764D01*
X124289192Y-94787818D01*
X124039899Y-94921068D01*
X123821392Y-95100393D01*
X123642068Y-95318900D01*
X123571000Y-95451858D01*
X123499932Y-95318899D01*
X123320607Y-95100392D01*
X123102100Y-94921068D01*
X122852807Y-94787818D01*
X122582308Y-94705764D01*
X122301000Y-94678057D01*
X122019691Y-94705764D01*
X121749192Y-94787818D01*
X121499899Y-94921068D01*
X121281392Y-95100393D01*
X121102068Y-95318900D01*
X121031000Y-95451858D01*
X120959932Y-95318899D01*
X120780607Y-95100392D01*
X120562100Y-94921068D01*
X120312807Y-94787818D01*
X120042308Y-94705764D01*
X119761000Y-94678057D01*
X119479691Y-94705764D01*
X119209192Y-94787818D01*
X118959899Y-94921068D01*
X118741392Y-95100393D01*
X118648581Y-95213483D01*
X118646812Y-95195518D01*
X118610502Y-95075820D01*
X118551537Y-94965506D01*
X118472185Y-94868815D01*
X118375494Y-94789463D01*
X118265180Y-94730498D01*
X118145482Y-94694188D01*
X118021000Y-94681928D01*
X116421000Y-94681928D01*
X116296518Y-94694188D01*
X116176820Y-94730498D01*
X116066506Y-94789463D01*
X115969815Y-94868815D01*
X115890463Y-94965506D01*
X115831498Y-95075820D01*
X115795188Y-95195518D01*
X115782928Y-95320000D01*
X115475347Y-95320000D01*
X115486217Y-95099488D01*
X115444787Y-94819870D01*
X115349603Y-94553708D01*
X115282671Y-94428486D01*
X115038702Y-94356903D01*
X114225605Y-95170000D01*
X113866395Y-95170000D01*
X113053298Y-94356903D01*
X112809329Y-94428486D01*
X112688429Y-94683996D01*
X112619700Y-94958184D01*
X112605783Y-95240512D01*
X111370602Y-95240512D01*
X111255607Y-95100392D01*
X111037100Y-94921068D01*
X110787807Y-94787818D01*
X110517308Y-94705764D01*
X110236000Y-94678057D01*
X109954691Y-94705764D01*
X109684192Y-94787818D01*
X109434899Y-94921068D01*
X109216392Y-95100393D01*
X109037068Y-95318900D01*
X108966000Y-95451858D01*
X108894932Y-95318899D01*
X108715607Y-95100392D01*
X108497100Y-94921068D01*
X108247807Y-94787818D01*
X107977308Y-94705764D01*
X107696000Y-94678057D01*
X107414691Y-94705764D01*
X107144192Y-94787818D01*
X106894899Y-94921068D01*
X106676392Y-95100393D01*
X106497068Y-95318900D01*
X106426000Y-95451858D01*
X106354932Y-95318899D01*
X106175607Y-95100392D01*
X105957100Y-94921068D01*
X105707807Y-94787818D01*
X105437308Y-94705764D01*
X105156000Y-94678057D01*
X104874691Y-94705764D01*
X104604192Y-94787818D01*
X104354899Y-94921068D01*
X104136392Y-95100393D01*
X104043581Y-95213483D01*
X104041812Y-95195518D01*
X104005502Y-95075820D01*
X103946537Y-94965506D01*
X103867185Y-94868815D01*
X103770494Y-94789463D01*
X103660180Y-94730498D01*
X103540482Y-94694188D01*
X103416000Y-94681928D01*
X101816000Y-94681928D01*
X101691518Y-94694188D01*
X101571820Y-94730498D01*
X101461506Y-94789463D01*
X101364815Y-94868815D01*
X101285463Y-94965506D01*
X101226498Y-95075820D01*
X101190188Y-95195518D01*
X101177928Y-95320000D01*
X100870347Y-95320000D01*
X100881217Y-95099488D01*
X100839787Y-94819870D01*
X100744603Y-94553708D01*
X100677671Y-94428486D01*
X100433702Y-94356903D01*
X99620605Y-95170000D01*
X99261395Y-95170000D01*
X98448298Y-94356903D01*
X98204329Y-94428486D01*
X98119000Y-94608820D01*
X98119000Y-94177298D01*
X98627903Y-94177298D01*
X99441000Y-94990395D01*
X100254097Y-94177298D01*
X113232903Y-94177298D01*
X114046000Y-94990395D01*
X114859097Y-94177298D01*
X114787514Y-93933329D01*
X114532004Y-93812429D01*
X114257816Y-93743700D01*
X113975488Y-93729783D01*
X113695870Y-93771213D01*
X113429708Y-93866397D01*
X113304486Y-93933329D01*
X113232903Y-94177298D01*
X100254097Y-94177298D01*
X100182514Y-93933329D01*
X99927004Y-93812429D01*
X99652816Y-93743700D01*
X99370488Y-93729783D01*
X99090870Y-93771213D01*
X98824708Y-93866397D01*
X98699486Y-93933329D01*
X98627903Y-94177298D01*
X98119000Y-94177298D01*
X98119000Y-90728244D01*
X98169320Y-90849727D01*
X98326363Y-91084759D01*
X98526241Y-91284637D01*
X98761273Y-91441680D01*
X99022426Y-91549853D01*
X99299665Y-91605000D01*
X99582335Y-91605000D01*
X99859574Y-91549853D01*
X100120727Y-91441680D01*
X100355759Y-91284637D01*
X100555637Y-91084759D01*
X100712680Y-90849727D01*
X100820853Y-90588574D01*
X100876000Y-90311335D01*
X100876000Y-90028665D01*
X100820853Y-89751426D01*
X100712680Y-89490273D01*
X100555637Y-89255241D01*
X100355759Y-89055363D01*
X100120727Y-88898320D01*
X99859574Y-88790147D01*
X99582335Y-88735000D01*
X99299665Y-88735000D01*
X99022426Y-88790147D01*
X98761273Y-88898320D01*
X98526241Y-89055363D01*
X98326363Y-89255241D01*
X98169320Y-89490273D01*
X98119000Y-89611756D01*
X98119000Y-88429509D01*
X101181000Y-88429509D01*
X101181000Y-89370492D01*
X101201764Y-89581309D01*
X101283818Y-89851808D01*
X101417068Y-90101101D01*
X101596393Y-90319608D01*
X101814900Y-90498932D01*
X102064193Y-90632182D01*
X102334692Y-90714236D01*
X102616000Y-90741943D01*
X102897309Y-90714236D01*
X103167808Y-90632182D01*
X103417101Y-90498932D01*
X103635608Y-90319608D01*
X103814932Y-90101101D01*
X103886000Y-89968142D01*
X103957068Y-90101101D01*
X104136393Y-90319608D01*
X104354900Y-90498932D01*
X104604193Y-90632182D01*
X104874692Y-90714236D01*
X105156000Y-90741943D01*
X105437309Y-90714236D01*
X105707808Y-90632182D01*
X105957101Y-90498932D01*
X106175608Y-90319608D01*
X106354932Y-90101101D01*
X106426000Y-89968142D01*
X106497068Y-90101101D01*
X106676393Y-90319608D01*
X106894900Y-90498932D01*
X107144193Y-90632182D01*
X107414692Y-90714236D01*
X107696000Y-90741943D01*
X107977309Y-90714236D01*
X108247808Y-90632182D01*
X108497101Y-90498932D01*
X108715608Y-90319608D01*
X108894932Y-90101101D01*
X108963265Y-89973259D01*
X109113399Y-90202839D01*
X109311105Y-90404500D01*
X109544354Y-90563715D01*
X109804182Y-90674367D01*
X109886961Y-90691904D01*
X110109000Y-90569915D01*
X110109000Y-89027000D01*
X110363000Y-89027000D01*
X110363000Y-90569915D01*
X110585039Y-90691904D01*
X110667818Y-90674367D01*
X110927646Y-90563715D01*
X111160895Y-90404500D01*
X111358601Y-90202839D01*
X111472502Y-90028665D01*
X112611000Y-90028665D01*
X112611000Y-90311335D01*
X112666147Y-90588574D01*
X112774320Y-90849727D01*
X112931363Y-91084759D01*
X113131241Y-91284637D01*
X113366273Y-91441680D01*
X113627426Y-91549853D01*
X113904665Y-91605000D01*
X114187335Y-91605000D01*
X114464574Y-91549853D01*
X114725727Y-91441680D01*
X114960759Y-91284637D01*
X115160637Y-91084759D01*
X115317680Y-90849727D01*
X115425853Y-90588574D01*
X115481000Y-90311335D01*
X115481000Y-90028665D01*
X115425853Y-89751426D01*
X115317680Y-89490273D01*
X115160637Y-89255241D01*
X114960759Y-89055363D01*
X114725727Y-88898320D01*
X114464574Y-88790147D01*
X114187335Y-88735000D01*
X113904665Y-88735000D01*
X113627426Y-88790147D01*
X113366273Y-88898320D01*
X113131241Y-89055363D01*
X112931363Y-89255241D01*
X112774320Y-89490273D01*
X112666147Y-89751426D01*
X112611000Y-90028665D01*
X111472502Y-90028665D01*
X111513166Y-89966483D01*
X111618650Y-89704514D01*
X111671000Y-89427000D01*
X111671000Y-89027000D01*
X110363000Y-89027000D01*
X110109000Y-89027000D01*
X110089000Y-89027000D01*
X110089000Y-88773000D01*
X110109000Y-88773000D01*
X110109000Y-87230085D01*
X110363000Y-87230085D01*
X110363000Y-88773000D01*
X111671000Y-88773000D01*
X111671000Y-88429509D01*
X115786000Y-88429509D01*
X115786000Y-89370492D01*
X115806764Y-89581309D01*
X115888818Y-89851808D01*
X116022068Y-90101101D01*
X116201393Y-90319608D01*
X116419900Y-90498932D01*
X116669193Y-90632182D01*
X116939692Y-90714236D01*
X117221000Y-90741943D01*
X117502309Y-90714236D01*
X117772808Y-90632182D01*
X118022101Y-90498932D01*
X118240608Y-90319608D01*
X118419932Y-90101101D01*
X118491000Y-89968142D01*
X118562068Y-90101101D01*
X118741393Y-90319608D01*
X118959900Y-90498932D01*
X119209193Y-90632182D01*
X119479692Y-90714236D01*
X119761000Y-90741943D01*
X120042309Y-90714236D01*
X120312808Y-90632182D01*
X120562101Y-90498932D01*
X120780608Y-90319608D01*
X120959932Y-90101101D01*
X121031000Y-89968142D01*
X121102068Y-90101101D01*
X121281393Y-90319608D01*
X121499900Y-90498932D01*
X121749193Y-90632182D01*
X122019692Y-90714236D01*
X122301000Y-90741943D01*
X122582309Y-90714236D01*
X122852808Y-90632182D01*
X123102101Y-90498932D01*
X123320608Y-90319608D01*
X123499932Y-90101101D01*
X123571000Y-89968142D01*
X123642068Y-90101101D01*
X123821393Y-90319608D01*
X124039900Y-90498932D01*
X124289193Y-90632182D01*
X124559692Y-90714236D01*
X124841000Y-90741943D01*
X125122309Y-90714236D01*
X125392808Y-90632182D01*
X125642101Y-90498932D01*
X125860608Y-90319608D01*
X126039932Y-90101101D01*
X126111000Y-89968142D01*
X126182068Y-90101101D01*
X126361393Y-90319608D01*
X126579900Y-90498932D01*
X126829193Y-90632182D01*
X127099692Y-90714236D01*
X127381000Y-90741943D01*
X127662309Y-90714236D01*
X127932808Y-90632182D01*
X128182101Y-90498932D01*
X128400608Y-90319608D01*
X128579932Y-90101101D01*
X128651000Y-89968142D01*
X128722068Y-90101101D01*
X128901393Y-90319608D01*
X129119900Y-90498932D01*
X129369193Y-90632182D01*
X129639692Y-90714236D01*
X129921000Y-90741943D01*
X130202309Y-90714236D01*
X130472808Y-90632182D01*
X130722101Y-90498932D01*
X130940608Y-90319608D01*
X131119932Y-90101101D01*
X131191000Y-89968142D01*
X131262068Y-90101101D01*
X131441393Y-90319608D01*
X131659900Y-90498932D01*
X131909193Y-90632182D01*
X132179692Y-90714236D01*
X132461000Y-90741943D01*
X132742309Y-90714236D01*
X133012808Y-90632182D01*
X133262101Y-90498932D01*
X133480608Y-90319608D01*
X133659932Y-90101101D01*
X133793182Y-89851808D01*
X133875236Y-89581309D01*
X133896000Y-89370491D01*
X133896000Y-88429508D01*
X133878386Y-88250665D01*
X135217000Y-88250665D01*
X135217000Y-88533335D01*
X135272147Y-88810574D01*
X135380320Y-89071727D01*
X135537363Y-89306759D01*
X135737241Y-89506637D01*
X135972273Y-89663680D01*
X136233426Y-89771853D01*
X136510665Y-89827000D01*
X136793335Y-89827000D01*
X137070574Y-89771853D01*
X137331727Y-89663680D01*
X137566759Y-89506637D01*
X137766637Y-89306759D01*
X137923680Y-89071727D01*
X138031853Y-88810574D01*
X138087000Y-88533335D01*
X138087000Y-88250665D01*
X138031853Y-87973426D01*
X137923680Y-87712273D01*
X137766637Y-87477241D01*
X137566759Y-87277363D01*
X137331727Y-87120320D01*
X137070574Y-87012147D01*
X136793335Y-86957000D01*
X136510665Y-86957000D01*
X136233426Y-87012147D01*
X135972273Y-87120320D01*
X135737241Y-87277363D01*
X135537363Y-87477241D01*
X135380320Y-87712273D01*
X135272147Y-87973426D01*
X135217000Y-88250665D01*
X133878386Y-88250665D01*
X133875236Y-88218691D01*
X133793182Y-87948192D01*
X133659932Y-87698899D01*
X133480607Y-87480392D01*
X133262100Y-87301068D01*
X133012807Y-87167818D01*
X132742308Y-87085764D01*
X132461000Y-87058057D01*
X132179691Y-87085764D01*
X131909192Y-87167818D01*
X131659899Y-87301068D01*
X131441392Y-87480393D01*
X131262068Y-87698900D01*
X131191000Y-87831858D01*
X131119932Y-87698899D01*
X130940607Y-87480392D01*
X130722100Y-87301068D01*
X130472807Y-87167818D01*
X130202308Y-87085764D01*
X129921000Y-87058057D01*
X129639691Y-87085764D01*
X129369192Y-87167818D01*
X129119899Y-87301068D01*
X128901392Y-87480393D01*
X128722068Y-87698900D01*
X128651000Y-87831858D01*
X128579932Y-87698899D01*
X128400607Y-87480392D01*
X128182100Y-87301068D01*
X127932807Y-87167818D01*
X127662308Y-87085764D01*
X127381000Y-87058057D01*
X127099691Y-87085764D01*
X126829192Y-87167818D01*
X126579899Y-87301068D01*
X126361392Y-87480393D01*
X126182068Y-87698900D01*
X126111000Y-87831858D01*
X126039932Y-87698899D01*
X125860607Y-87480392D01*
X125642100Y-87301068D01*
X125392807Y-87167818D01*
X125122308Y-87085764D01*
X124841000Y-87058057D01*
X124559691Y-87085764D01*
X124289192Y-87167818D01*
X124039899Y-87301068D01*
X123821392Y-87480393D01*
X123642068Y-87698900D01*
X123571000Y-87831858D01*
X123499932Y-87698899D01*
X123320607Y-87480392D01*
X123102100Y-87301068D01*
X122852807Y-87167818D01*
X122582308Y-87085764D01*
X122301000Y-87058057D01*
X122019691Y-87085764D01*
X121749192Y-87167818D01*
X121499899Y-87301068D01*
X121281392Y-87480393D01*
X121102068Y-87698900D01*
X121031000Y-87831858D01*
X120959932Y-87698899D01*
X120780607Y-87480392D01*
X120562100Y-87301068D01*
X120312807Y-87167818D01*
X120042308Y-87085764D01*
X119761000Y-87058057D01*
X119479691Y-87085764D01*
X119209192Y-87167818D01*
X118959899Y-87301068D01*
X118741392Y-87480393D01*
X118562068Y-87698900D01*
X118491000Y-87831858D01*
X118419932Y-87698899D01*
X118240607Y-87480392D01*
X118022100Y-87301068D01*
X117772807Y-87167818D01*
X117502308Y-87085764D01*
X117221000Y-87058057D01*
X116939691Y-87085764D01*
X116669192Y-87167818D01*
X116419899Y-87301068D01*
X116201392Y-87480393D01*
X116022068Y-87698900D01*
X115888818Y-87948193D01*
X115806764Y-88218692D01*
X115786000Y-88429509D01*
X111671000Y-88429509D01*
X111671000Y-88373000D01*
X111618650Y-88095486D01*
X111513166Y-87833517D01*
X111358601Y-87597161D01*
X111160895Y-87395500D01*
X110927646Y-87236285D01*
X110667818Y-87125633D01*
X110585039Y-87108096D01*
X110363000Y-87230085D01*
X110109000Y-87230085D01*
X109886961Y-87108096D01*
X109804182Y-87125633D01*
X109544354Y-87236285D01*
X109311105Y-87395500D01*
X109113399Y-87597161D01*
X108963265Y-87826741D01*
X108894932Y-87698899D01*
X108715607Y-87480392D01*
X108497100Y-87301068D01*
X108247807Y-87167818D01*
X107977308Y-87085764D01*
X107696000Y-87058057D01*
X107414691Y-87085764D01*
X107144192Y-87167818D01*
X106894899Y-87301068D01*
X106676392Y-87480393D01*
X106497068Y-87698900D01*
X106426000Y-87831858D01*
X106354932Y-87698899D01*
X106175607Y-87480392D01*
X105957100Y-87301068D01*
X105707807Y-87167818D01*
X105437308Y-87085764D01*
X105156000Y-87058057D01*
X104874691Y-87085764D01*
X104604192Y-87167818D01*
X104354899Y-87301068D01*
X104136392Y-87480393D01*
X103957068Y-87698900D01*
X103886000Y-87831858D01*
X103814932Y-87698899D01*
X103635607Y-87480392D01*
X103417100Y-87301068D01*
X103167807Y-87167818D01*
X102897308Y-87085764D01*
X102616000Y-87058057D01*
X102334691Y-87085764D01*
X102064192Y-87167818D01*
X101814899Y-87301068D01*
X101596392Y-87480393D01*
X101417068Y-87698900D01*
X101283818Y-87948193D01*
X101201764Y-88218692D01*
X101181000Y-88429509D01*
X98119000Y-88429509D01*
X98119000Y-81880592D01*
X101415000Y-81880592D01*
X101415000Y-82631407D01*
X101437210Y-82856912D01*
X101524983Y-83146260D01*
X101667519Y-83412926D01*
X101859339Y-83646661D01*
X102093073Y-83838481D01*
X102359739Y-83981017D01*
X102649087Y-84068790D01*
X102950000Y-84098427D01*
X103250912Y-84068790D01*
X103540260Y-83981017D01*
X103806926Y-83838481D01*
X104040661Y-83646661D01*
X104232481Y-83412927D01*
X104375017Y-83146261D01*
X104462790Y-82856913D01*
X104485000Y-82631408D01*
X104485000Y-81880593D01*
X104485000Y-81880592D01*
X111415000Y-81880592D01*
X111415000Y-82631407D01*
X111437210Y-82856912D01*
X111524983Y-83146260D01*
X111667519Y-83412926D01*
X111859339Y-83646661D01*
X112093073Y-83838481D01*
X112359739Y-83981017D01*
X112649087Y-84068790D01*
X112950000Y-84098427D01*
X113250912Y-84068790D01*
X113540260Y-83981017D01*
X113806926Y-83838481D01*
X114040661Y-83646661D01*
X114232481Y-83412927D01*
X114375017Y-83146261D01*
X114462790Y-82856913D01*
X114485000Y-82631408D01*
X114485000Y-81880593D01*
X114485000Y-81880592D01*
X121735000Y-81880592D01*
X121735000Y-82631407D01*
X121757210Y-82856912D01*
X121844983Y-83146260D01*
X121987519Y-83412926D01*
X122179339Y-83646661D01*
X122413073Y-83838481D01*
X122679739Y-83981017D01*
X122969087Y-84068790D01*
X123270000Y-84098427D01*
X123570912Y-84068790D01*
X123860260Y-83981017D01*
X124126926Y-83838481D01*
X124360661Y-83646661D01*
X124552481Y-83412927D01*
X124695017Y-83146261D01*
X124782790Y-82856913D01*
X124805000Y-82631408D01*
X124805000Y-81880593D01*
X124805000Y-81880592D01*
X131735000Y-81880592D01*
X131735000Y-82631407D01*
X131757210Y-82856912D01*
X131844983Y-83146260D01*
X131987519Y-83412926D01*
X132179339Y-83646661D01*
X132413073Y-83838481D01*
X132679739Y-83981017D01*
X132969087Y-84068790D01*
X133270000Y-84098427D01*
X133570912Y-84068790D01*
X133860260Y-83981017D01*
X134126926Y-83838481D01*
X134360661Y-83646661D01*
X134552481Y-83412927D01*
X134695017Y-83146261D01*
X134782790Y-82856913D01*
X134805000Y-82631408D01*
X134805000Y-81880593D01*
X134782790Y-81655088D01*
X134695017Y-81365739D01*
X134552481Y-81099073D01*
X134360661Y-80865339D01*
X134126927Y-80673519D01*
X133860261Y-80530983D01*
X133570913Y-80443210D01*
X133270000Y-80413573D01*
X132969088Y-80443210D01*
X132679740Y-80530983D01*
X132413074Y-80673519D01*
X132179339Y-80865339D01*
X131987519Y-81099073D01*
X131844983Y-81365739D01*
X131757210Y-81655087D01*
X131735000Y-81880592D01*
X124805000Y-81880592D01*
X124782790Y-81655088D01*
X124695017Y-81365739D01*
X124552481Y-81099073D01*
X124360661Y-80865339D01*
X124126927Y-80673519D01*
X123860261Y-80530983D01*
X123570913Y-80443210D01*
X123270000Y-80413573D01*
X122969088Y-80443210D01*
X122679740Y-80530983D01*
X122413074Y-80673519D01*
X122179339Y-80865339D01*
X121987519Y-81099073D01*
X121844983Y-81365739D01*
X121757210Y-81655087D01*
X121735000Y-81880592D01*
X114485000Y-81880592D01*
X114462790Y-81655088D01*
X114375017Y-81365739D01*
X114232481Y-81099073D01*
X114040661Y-80865339D01*
X113806927Y-80673519D01*
X113540261Y-80530983D01*
X113250913Y-80443210D01*
X112950000Y-80413573D01*
X112649088Y-80443210D01*
X112359740Y-80530983D01*
X112093074Y-80673519D01*
X111859339Y-80865339D01*
X111667519Y-81099073D01*
X111524983Y-81365739D01*
X111437210Y-81655087D01*
X111415000Y-81880592D01*
X104485000Y-81880592D01*
X104462790Y-81655088D01*
X104375017Y-81365739D01*
X104232481Y-81099073D01*
X104040661Y-80865339D01*
X103806927Y-80673519D01*
X103540261Y-80530983D01*
X103250913Y-80443210D01*
X102950000Y-80413573D01*
X102649088Y-80443210D01*
X102359740Y-80530983D01*
X102093074Y-80673519D01*
X101859339Y-80865339D01*
X101667519Y-81099073D01*
X101524983Y-81365739D01*
X101437210Y-81655087D01*
X101415000Y-81880592D01*
X98119000Y-81880592D01*
X98119000Y-79380592D01*
X98915000Y-79380592D01*
X98915000Y-80131407D01*
X98937210Y-80356912D01*
X99024983Y-80646260D01*
X99167519Y-80912926D01*
X99359339Y-81146661D01*
X99593073Y-81338481D01*
X99859739Y-81481017D01*
X100149087Y-81568790D01*
X100450000Y-81598427D01*
X100750912Y-81568790D01*
X101040260Y-81481017D01*
X101306926Y-81338481D01*
X101540661Y-81146661D01*
X101732481Y-80912927D01*
X101875017Y-80646261D01*
X101962790Y-80356913D01*
X101985000Y-80131408D01*
X101985000Y-79380593D01*
X101985000Y-79380592D01*
X106415000Y-79380592D01*
X106415000Y-80131407D01*
X106437210Y-80356912D01*
X106524983Y-80646260D01*
X106667519Y-80912926D01*
X106859339Y-81146661D01*
X107093073Y-81338481D01*
X107359739Y-81481017D01*
X107649087Y-81568790D01*
X107950000Y-81598427D01*
X108250912Y-81568790D01*
X108540260Y-81481017D01*
X108806926Y-81338481D01*
X109040661Y-81146661D01*
X109232481Y-80912927D01*
X109375017Y-80646261D01*
X109462790Y-80356913D01*
X109485000Y-80131408D01*
X109485000Y-79380593D01*
X109485000Y-79380592D01*
X113915000Y-79380592D01*
X113915000Y-80131407D01*
X113937210Y-80356912D01*
X114024983Y-80646260D01*
X114167519Y-80912926D01*
X114359339Y-81146661D01*
X114593073Y-81338481D01*
X114859739Y-81481017D01*
X115149087Y-81568790D01*
X115450000Y-81598427D01*
X115750912Y-81568790D01*
X116040260Y-81481017D01*
X116306926Y-81338481D01*
X116540661Y-81146661D01*
X116732481Y-80912927D01*
X116875017Y-80646261D01*
X116962790Y-80356913D01*
X116985000Y-80131408D01*
X116985000Y-79380593D01*
X116985000Y-79380592D01*
X119235000Y-79380592D01*
X119235000Y-80131407D01*
X119257210Y-80356912D01*
X119344983Y-80646260D01*
X119487519Y-80912926D01*
X119679339Y-81146661D01*
X119913073Y-81338481D01*
X120179739Y-81481017D01*
X120469087Y-81568790D01*
X120770000Y-81598427D01*
X121070912Y-81568790D01*
X121360260Y-81481017D01*
X121626926Y-81338481D01*
X121860661Y-81146661D01*
X122052481Y-80912927D01*
X122195017Y-80646261D01*
X122282790Y-80356913D01*
X122305000Y-80131408D01*
X122305000Y-79883000D01*
X126735000Y-79883000D01*
X126735000Y-80183000D01*
X126789271Y-80480023D01*
X126900446Y-80760751D01*
X127064252Y-81014396D01*
X127274394Y-81231210D01*
X127522796Y-81402862D01*
X127799913Y-81522755D01*
X127905260Y-81547036D01*
X128143000Y-81426378D01*
X128143000Y-79883000D01*
X128397000Y-79883000D01*
X128397000Y-81426378D01*
X128634740Y-81547036D01*
X128740087Y-81522755D01*
X129017204Y-81402862D01*
X129265606Y-81231210D01*
X129475748Y-81014396D01*
X129639554Y-80760751D01*
X129750729Y-80480023D01*
X129805000Y-80183000D01*
X129805000Y-79883000D01*
X128397000Y-79883000D01*
X128143000Y-79883000D01*
X126735000Y-79883000D01*
X122305000Y-79883000D01*
X122305000Y-79380593D01*
X122299919Y-79329000D01*
X126735000Y-79329000D01*
X126735000Y-79629000D01*
X128143000Y-79629000D01*
X128143000Y-78085622D01*
X128397000Y-78085622D01*
X128397000Y-79629000D01*
X129805000Y-79629000D01*
X129805000Y-79380592D01*
X134235000Y-79380592D01*
X134235000Y-80131407D01*
X134257210Y-80356912D01*
X134344983Y-80646260D01*
X134487519Y-80912926D01*
X134679339Y-81146661D01*
X134913073Y-81338481D01*
X135179739Y-81481017D01*
X135469087Y-81568790D01*
X135770000Y-81598427D01*
X136070912Y-81568790D01*
X136360260Y-81481017D01*
X136626926Y-81338481D01*
X136860661Y-81146661D01*
X137052481Y-80912927D01*
X137195017Y-80646261D01*
X137282790Y-80356913D01*
X137305000Y-80131408D01*
X137305000Y-79380593D01*
X137282790Y-79155088D01*
X137195017Y-78865739D01*
X137052481Y-78599073D01*
X136860661Y-78365339D01*
X136626927Y-78173519D01*
X136360261Y-78030983D01*
X136070913Y-77943210D01*
X135770000Y-77913573D01*
X135469088Y-77943210D01*
X135179740Y-78030983D01*
X134913074Y-78173519D01*
X134679339Y-78365339D01*
X134487519Y-78599073D01*
X134344983Y-78865739D01*
X134257210Y-79155087D01*
X134235000Y-79380592D01*
X129805000Y-79380592D01*
X129805000Y-79329000D01*
X129750729Y-79031977D01*
X129639554Y-78751249D01*
X129475748Y-78497604D01*
X129265606Y-78280790D01*
X129017204Y-78109138D01*
X128740087Y-77989245D01*
X128634740Y-77964964D01*
X128397000Y-78085622D01*
X128143000Y-78085622D01*
X127905260Y-77964964D01*
X127799913Y-77989245D01*
X127522796Y-78109138D01*
X127274394Y-78280790D01*
X127064252Y-78497604D01*
X126900446Y-78751249D01*
X126789271Y-79031977D01*
X126735000Y-79329000D01*
X122299919Y-79329000D01*
X122282790Y-79155088D01*
X122195017Y-78865739D01*
X122052481Y-78599073D01*
X121860661Y-78365339D01*
X121626927Y-78173519D01*
X121360261Y-78030983D01*
X121070913Y-77943210D01*
X120770000Y-77913573D01*
X120469088Y-77943210D01*
X120179740Y-78030983D01*
X119913074Y-78173519D01*
X119679339Y-78365339D01*
X119487519Y-78599073D01*
X119344983Y-78865739D01*
X119257210Y-79155087D01*
X119235000Y-79380592D01*
X116985000Y-79380592D01*
X116962790Y-79155088D01*
X116875017Y-78865739D01*
X116732481Y-78599073D01*
X116540661Y-78365339D01*
X116306927Y-78173519D01*
X116040261Y-78030983D01*
X115750913Y-77943210D01*
X115450000Y-77913573D01*
X115149088Y-77943210D01*
X114859740Y-78030983D01*
X114593074Y-78173519D01*
X114359339Y-78365339D01*
X114167519Y-78599073D01*
X114024983Y-78865739D01*
X113937210Y-79155087D01*
X113915000Y-79380592D01*
X109485000Y-79380592D01*
X109462790Y-79155088D01*
X109375017Y-78865739D01*
X109232481Y-78599073D01*
X109040661Y-78365339D01*
X108806927Y-78173519D01*
X108540261Y-78030983D01*
X108250913Y-77943210D01*
X107950000Y-77913573D01*
X107649088Y-77943210D01*
X107359740Y-78030983D01*
X107093074Y-78173519D01*
X106859339Y-78365339D01*
X106667519Y-78599073D01*
X106524983Y-78865739D01*
X106437210Y-79155087D01*
X106415000Y-79380592D01*
X101985000Y-79380592D01*
X101962790Y-79155088D01*
X101875017Y-78865739D01*
X101732481Y-78599073D01*
X101540661Y-78365339D01*
X101306927Y-78173519D01*
X101040261Y-78030983D01*
X100750913Y-77943210D01*
X100450000Y-77913573D01*
X100149088Y-77943210D01*
X99859740Y-78030983D01*
X99593074Y-78173519D01*
X99359339Y-78365339D01*
X99167519Y-78599073D01*
X99024983Y-78865739D01*
X98937210Y-79155087D01*
X98915000Y-79380592D01*
X98119000Y-79380592D01*
X98119000Y-69756000D01*
X101107573Y-69756000D01*
X101137210Y-70056913D01*
X101224983Y-70346261D01*
X101367519Y-70612927D01*
X101559339Y-70846661D01*
X101793073Y-71038481D01*
X102059739Y-71181017D01*
X102349087Y-71268790D01*
X102574592Y-71291000D01*
X103325408Y-71291000D01*
X103550913Y-71268790D01*
X103840261Y-71181017D01*
X104106927Y-71038481D01*
X104340661Y-70846661D01*
X104532481Y-70612927D01*
X104675017Y-70346261D01*
X104762790Y-70056913D01*
X104792427Y-69756000D01*
X111107573Y-69756000D01*
X111137210Y-70056913D01*
X111224983Y-70346261D01*
X111367519Y-70612927D01*
X111559339Y-70846661D01*
X111793073Y-71038481D01*
X112059739Y-71181017D01*
X112349087Y-71268790D01*
X112574592Y-71291000D01*
X113325408Y-71291000D01*
X113550913Y-71268790D01*
X113840261Y-71181017D01*
X114106927Y-71038481D01*
X114340661Y-70846661D01*
X114532481Y-70612927D01*
X114675017Y-70346261D01*
X114762790Y-70056913D01*
X114792427Y-69756000D01*
X121427573Y-69756000D01*
X121457210Y-70056913D01*
X121544983Y-70346261D01*
X121687519Y-70612927D01*
X121879339Y-70846661D01*
X122113073Y-71038481D01*
X122379739Y-71181017D01*
X122669087Y-71268790D01*
X122894592Y-71291000D01*
X123645408Y-71291000D01*
X123870913Y-71268790D01*
X124160261Y-71181017D01*
X124426927Y-71038481D01*
X124660661Y-70846661D01*
X124852481Y-70612927D01*
X124995017Y-70346261D01*
X125082790Y-70056913D01*
X125112427Y-69756000D01*
X131427573Y-69756000D01*
X131457210Y-70056913D01*
X131544983Y-70346261D01*
X131687519Y-70612927D01*
X131879339Y-70846661D01*
X132113073Y-71038481D01*
X132379739Y-71181017D01*
X132669087Y-71268790D01*
X132894592Y-71291000D01*
X133645408Y-71291000D01*
X133870913Y-71268790D01*
X134160261Y-71181017D01*
X134426927Y-71038481D01*
X134660661Y-70846661D01*
X134852481Y-70612927D01*
X134995017Y-70346261D01*
X135082790Y-70056913D01*
X135112427Y-69756000D01*
X135082790Y-69455087D01*
X134995017Y-69165739D01*
X134852481Y-68899073D01*
X134660661Y-68665339D01*
X134426927Y-68473519D01*
X134160261Y-68330983D01*
X133870913Y-68243210D01*
X133645408Y-68221000D01*
X132894592Y-68221000D01*
X132669087Y-68243210D01*
X132379739Y-68330983D01*
X132113073Y-68473519D01*
X131879339Y-68665339D01*
X131687519Y-68899073D01*
X131544983Y-69165739D01*
X131457210Y-69455087D01*
X131427573Y-69756000D01*
X125112427Y-69756000D01*
X125082790Y-69455087D01*
X124995017Y-69165739D01*
X124852481Y-68899073D01*
X124660661Y-68665339D01*
X124426927Y-68473519D01*
X124160261Y-68330983D01*
X123870913Y-68243210D01*
X123645408Y-68221000D01*
X122894592Y-68221000D01*
X122669087Y-68243210D01*
X122379739Y-68330983D01*
X122113073Y-68473519D01*
X121879339Y-68665339D01*
X121687519Y-68899073D01*
X121544983Y-69165739D01*
X121457210Y-69455087D01*
X121427573Y-69756000D01*
X114792427Y-69756000D01*
X114762790Y-69455087D01*
X114675017Y-69165739D01*
X114532481Y-68899073D01*
X114340661Y-68665339D01*
X114106927Y-68473519D01*
X113840261Y-68330983D01*
X113550913Y-68243210D01*
X113325408Y-68221000D01*
X112574592Y-68221000D01*
X112349087Y-68243210D01*
X112059739Y-68330983D01*
X111793073Y-68473519D01*
X111559339Y-68665339D01*
X111367519Y-68899073D01*
X111224983Y-69165739D01*
X111137210Y-69455087D01*
X111107573Y-69756000D01*
X104792427Y-69756000D01*
X104762790Y-69455087D01*
X104675017Y-69165739D01*
X104532481Y-68899073D01*
X104340661Y-68665339D01*
X104106927Y-68473519D01*
X103840261Y-68330983D01*
X103550913Y-68243210D01*
X103325408Y-68221000D01*
X102574592Y-68221000D01*
X102349087Y-68243210D01*
X102059739Y-68330983D01*
X101793073Y-68473519D01*
X101559339Y-68665339D01*
X101367519Y-68899073D01*
X101224983Y-69165739D01*
X101137210Y-69455087D01*
X101107573Y-69756000D01*
X98119000Y-69756000D01*
X98119000Y-68360720D01*
X98133005Y-68217891D01*
X98164402Y-68113899D01*
X98215399Y-68017986D01*
X98284055Y-67933806D01*
X98367758Y-67864560D01*
X98463311Y-67812895D01*
X98567078Y-67780773D01*
X98707641Y-67766000D01*
X137506280Y-67766000D01*
X137649109Y-67780005D01*
G37*
G04 #@! TD.AperFunction*
M02*
