G04 #@! TF.GenerationSoftware,KiCad,Pcbnew,(5.1.8)-1*
G04 #@! TF.CreationDate,2022-02-10T23:24:44+01:00*
G04 #@! TF.ProjectId,BulkyMIDI-32 Gameport IDC,42756c6b-794d-4494-9449-2d3332204761,rev?*
G04 #@! TF.SameCoordinates,Original*
G04 #@! TF.FileFunction,Copper,L1,Top*
G04 #@! TF.FilePolarity,Positive*
%FSLAX46Y46*%
G04 Gerber Fmt 4.6, Leading zero omitted, Abs format (unit mm)*
G04 Created by KiCad (PCBNEW (5.1.8)-1) date 2022-02-10 23:24:44*
%MOMM*%
%LPD*%
G01*
G04 APERTURE LIST*
G04 #@! TA.AperFunction,ComponentPad*
%ADD10O,1.800000X2.400000*%
G04 #@! TD*
G04 #@! TA.AperFunction,WasherPad*
%ADD11O,2.400000X1.800000*%
G04 #@! TD*
G04 #@! TA.AperFunction,ComponentPad*
%ADD12R,1.600000X1.600000*%
G04 #@! TD*
G04 #@! TA.AperFunction,ComponentPad*
%ADD13O,1.600000X1.600000*%
G04 #@! TD*
G04 #@! TA.AperFunction,ComponentPad*
%ADD14C,1.600000*%
G04 #@! TD*
G04 #@! TA.AperFunction,ComponentPad*
%ADD15R,1.600000X2.400000*%
G04 #@! TD*
G04 #@! TA.AperFunction,ComponentPad*
%ADD16O,1.600000X2.400000*%
G04 #@! TD*
G04 #@! TA.AperFunction,ComponentPad*
%ADD17C,1.700000*%
G04 #@! TD*
G04 #@! TA.AperFunction,WasherPad*
%ADD18C,3.500000*%
G04 #@! TD*
G04 #@! TA.AperFunction,Conductor*
%ADD19C,0.381000*%
G04 #@! TD*
G04 #@! TA.AperFunction,Conductor*
%ADD20C,0.250000*%
G04 #@! TD*
G04 APERTURE END LIST*
D10*
X107950000Y-79756000D03*
D11*
X102950000Y-69756000D03*
X112950000Y-69756000D03*
D10*
X100450000Y-79756000D03*
X115450000Y-79756000D03*
X102950000Y-82256000D03*
X112950000Y-82256000D03*
X128270000Y-79756000D03*
D11*
X123270000Y-69756000D03*
X133270000Y-69756000D03*
D10*
X120770000Y-79756000D03*
X135770000Y-79756000D03*
X123270000Y-82256000D03*
X133270000Y-82256000D03*
D12*
X102616000Y-99568000D03*
D13*
X110236000Y-99568000D03*
X112649000Y-102616000D03*
D14*
X122809000Y-102616000D03*
X137160000Y-102616000D03*
D13*
X127000000Y-102616000D03*
X136652000Y-98552000D03*
D14*
X136652000Y-88392000D03*
X109220000Y-102616000D03*
D13*
X99060000Y-102616000D03*
D15*
X102616000Y-96520000D03*
D16*
X110236000Y-88900000D03*
X105156000Y-96520000D03*
X107696000Y-88900000D03*
X107696000Y-96520000D03*
X105156000Y-88900000D03*
X110236000Y-96520000D03*
X102616000Y-88900000D03*
D15*
X117221000Y-96520000D03*
D16*
X132461000Y-88900000D03*
X119761000Y-96520000D03*
X129921000Y-88900000D03*
X122301000Y-96520000D03*
X127381000Y-88900000D03*
X124841000Y-96520000D03*
X124841000Y-88900000D03*
X127381000Y-96520000D03*
X122301000Y-88900000D03*
X129921000Y-96520000D03*
X119761000Y-88900000D03*
X132461000Y-96520000D03*
X117221000Y-88900000D03*
D14*
X99441000Y-90170000D03*
X99441000Y-95170000D03*
X114046000Y-95170000D03*
X114046000Y-90170000D03*
G04 #@! TA.AperFunction,ComponentPad*
G36*
G01*
X126349200Y-109386000D02*
X127549200Y-109386000D01*
G75*
G02*
X127799200Y-109636000I0J-250000D01*
G01*
X127799200Y-110836000D01*
G75*
G02*
X127549200Y-111086000I-250000J0D01*
G01*
X126349200Y-111086000D01*
G75*
G02*
X126099200Y-110836000I0J250000D01*
G01*
X126099200Y-109636000D01*
G75*
G02*
X126349200Y-109386000I250000J0D01*
G01*
G37*
G04 #@! TD.AperFunction*
D17*
X124409200Y-110236000D03*
X121869200Y-110236000D03*
X119329200Y-110236000D03*
X116789200Y-110236000D03*
X114249200Y-110236000D03*
X111709200Y-110236000D03*
X109169200Y-110236000D03*
X126949200Y-112776000D03*
X124409200Y-112776000D03*
X121869200Y-112776000D03*
X119329200Y-112776000D03*
X116789200Y-112776000D03*
X114249200Y-112776000D03*
X111709200Y-112776000D03*
X109169200Y-112776000D03*
D18*
X100533200Y-111506000D03*
X135636000Y-111506000D03*
D19*
X100711000Y-88900000D02*
X99441000Y-90170000D01*
X102616000Y-88900000D02*
X100711000Y-88900000D01*
X121158000Y-104267000D02*
X122809000Y-102616000D01*
X110871000Y-104267000D02*
X121158000Y-104267000D01*
X110871000Y-101727000D02*
X110871000Y-104267000D01*
X112395000Y-100203000D02*
X110871000Y-101727000D01*
X112395000Y-91821000D02*
X112395000Y-100203000D01*
X114046000Y-90170000D02*
X112395000Y-91821000D01*
X115316000Y-88900000D02*
X114046000Y-90170000D01*
X117221000Y-88900000D02*
X115316000Y-88900000D01*
X99441000Y-92583000D02*
X99441000Y-90170000D01*
X100965000Y-94107000D02*
X99441000Y-92583000D01*
X100965000Y-102616000D02*
X100965000Y-94107000D01*
X102616000Y-104267000D02*
X100965000Y-102616000D01*
X110871000Y-104267000D02*
X109245400Y-104267000D01*
X109169200Y-104394000D02*
X109042200Y-104267000D01*
X109169200Y-110236000D02*
X109169200Y-104394000D01*
X109042200Y-104267000D02*
X102616000Y-104267000D01*
X109245400Y-104267000D02*
X109042200Y-104267000D01*
X126949200Y-112776000D02*
X126949200Y-110236000D01*
X131699000Y-102616000D02*
X137160000Y-102616000D01*
X126949200Y-107365800D02*
X131699000Y-102616000D01*
X126949200Y-110236000D02*
X126949200Y-107365800D01*
X108356400Y-110236000D02*
X109169200Y-110236000D01*
X107442000Y-111150400D02*
X108356400Y-110236000D01*
X107442000Y-115062000D02*
X107442000Y-111150400D01*
X108204000Y-115824000D02*
X107442000Y-115062000D01*
X125374400Y-115824000D02*
X108204000Y-115824000D01*
X126949200Y-114249200D02*
X125374400Y-115824000D01*
X126949200Y-112776000D02*
X126949200Y-114249200D01*
D20*
X102616000Y-99568000D02*
X102616000Y-101854000D01*
X103378000Y-102616000D02*
X109220000Y-102616000D01*
X102616000Y-101854000D02*
X103378000Y-102616000D01*
X104013000Y-99568000D02*
X102616000Y-99568000D01*
X105156000Y-98425000D02*
X104013000Y-99568000D01*
X105156000Y-96520000D02*
X105156000Y-98425000D01*
X108839000Y-99568000D02*
X110236000Y-99568000D01*
X107696000Y-98425000D02*
X108839000Y-99568000D01*
X107696000Y-96520000D02*
X107696000Y-98425000D01*
X107696000Y-94488000D02*
X107696000Y-96520000D01*
X106426000Y-93218000D02*
X107696000Y-94488000D01*
X106426000Y-87503000D02*
X106426000Y-93218000D01*
X111673000Y-82256000D02*
X106426000Y-87503000D01*
X112950000Y-82256000D02*
X111673000Y-82256000D01*
X133270000Y-85010000D02*
X133270000Y-82256000D01*
X136652000Y-88392000D02*
X133270000Y-85010000D01*
X126071000Y-82256000D02*
X123270000Y-82256000D01*
X131191000Y-87376000D02*
X126071000Y-82256000D01*
X128651000Y-94869000D02*
X131191000Y-92329000D01*
X128651000Y-99593400D02*
X128651000Y-94869000D01*
X131191000Y-92329000D02*
X131191000Y-87376000D01*
X127000000Y-101244400D02*
X128651000Y-99593400D01*
X127000000Y-102616000D02*
X127000000Y-101244400D01*
X98044000Y-87162000D02*
X102950000Y-82256000D01*
X98044000Y-101600000D02*
X98044000Y-87162000D01*
X99060000Y-102616000D02*
X98044000Y-101600000D01*
X117221000Y-96520000D02*
X119761000Y-96520000D01*
X117221000Y-98044000D02*
X112649000Y-102616000D01*
X117221000Y-96520000D02*
X117221000Y-98044000D01*
X117221000Y-94742000D02*
X117221000Y-96520000D01*
X118491000Y-93472000D02*
X117221000Y-94742000D01*
X118491000Y-87630000D02*
X118491000Y-93472000D01*
X117856000Y-86995000D02*
X118491000Y-87630000D01*
X108331000Y-86995000D02*
X117856000Y-86995000D01*
X107696000Y-87630000D02*
X108331000Y-86995000D01*
X107696000Y-88900000D02*
X107696000Y-87630000D01*
X122301000Y-88900000D02*
X119761000Y-88900000D01*
X122301000Y-93599000D02*
X122301000Y-88900000D01*
X124333000Y-101346000D02*
X121031000Y-98044000D01*
X124333000Y-103860600D02*
X124333000Y-101346000D01*
X120599200Y-107594400D02*
X124333000Y-103860600D01*
X120599200Y-111506000D02*
X120599200Y-107594400D01*
X121031000Y-94869000D02*
X122301000Y-93599000D01*
X121031000Y-98044000D02*
X121031000Y-94869000D01*
X119329200Y-112776000D02*
X120599200Y-111506000D01*
X111709200Y-113741200D02*
X111709200Y-112776000D01*
X112623600Y-114655600D02*
X111709200Y-113741200D01*
X124866400Y-114655600D02*
X112623600Y-114655600D01*
X125679200Y-113842800D02*
X124866400Y-114655600D01*
X125679200Y-106832400D02*
X125679200Y-113842800D01*
X126412200Y-106099400D02*
X125679200Y-106832400D01*
X126437600Y-106099400D02*
X126412200Y-106099400D01*
X129921000Y-102616000D02*
X126437600Y-106099400D01*
X129921000Y-96520000D02*
X129921000Y-102616000D01*
X136652000Y-96520000D02*
X136652000Y-98552000D01*
X132461000Y-92329000D02*
X136652000Y-96520000D01*
X132461000Y-88900000D02*
X132461000Y-92329000D01*
X129921000Y-88900000D02*
X127381000Y-88900000D01*
X124841000Y-88900000D02*
X127381000Y-88900000D01*
X122301000Y-96520000D02*
X124841000Y-96520000D01*
X124841000Y-96520000D02*
X127381000Y-96520000D01*
M02*
