G04 #@! TF.GenerationSoftware,KiCad,Pcbnew,(5.1.8)-1*
G04 #@! TF.CreationDate,2022-07-15T00:36:28+02:00*
G04 #@! TF.ProjectId,BulkyMIDI-32 Audio Switch Panel,42756c6b-794d-4494-9449-2d3332204175,rev?*
G04 #@! TF.SameCoordinates,Original*
G04 #@! TF.FileFunction,Legend,Top*
G04 #@! TF.FilePolarity,Positive*
%FSLAX46Y46*%
G04 Gerber Fmt 4.6, Leading zero omitted, Abs format (unit mm)*
G04 Created by KiCad (PCBNEW (5.1.8)-1) date 2022-07-15 00:36:28*
%MOMM*%
%LPD*%
G01*
G04 APERTURE LIST*
%ADD10C,0.120000*%
%ADD11C,0.100000*%
G04 APERTURE END LIST*
D10*
X110970000Y-119694000D02*
X114060000Y-119694000D01*
X115015000Y-117134000D02*
G75*
G03*
X115015000Y-117134000I-2500000J0D01*
G01*
X112514538Y-114144000D02*
G75*
G02*
X114059830Y-119694000I462J-2990000D01*
G01*
X112515462Y-114144000D02*
G75*
G03*
X110970170Y-119694000I-462J-2990000D01*
G01*
X126445000Y-117134000D02*
G75*
G03*
X126445000Y-117134000I-2500000J0D01*
G01*
X122400000Y-119694000D02*
X125490000Y-119694000D01*
X123945462Y-114144000D02*
G75*
G03*
X122400170Y-119694000I-462J-2990000D01*
G01*
X123944538Y-114144000D02*
G75*
G02*
X125489830Y-119694000I462J-2990000D01*
G01*
X133830000Y-119694000D02*
X136920000Y-119694000D01*
X137875000Y-117134000D02*
G75*
G03*
X137875000Y-117134000I-2500000J0D01*
G01*
X135374538Y-114144000D02*
G75*
G02*
X136919830Y-119694000I462J-2990000D01*
G01*
X135375462Y-114144000D02*
G75*
G03*
X133830170Y-119694000I-462J-2990000D01*
G01*
X149305000Y-117134000D02*
G75*
G03*
X149305000Y-117134000I-2500000J0D01*
G01*
X145260000Y-119694000D02*
X148350000Y-119694000D01*
X146805462Y-114144000D02*
G75*
G03*
X145260170Y-119694000I-462J-2990000D01*
G01*
X146804538Y-114144000D02*
G75*
G02*
X148349830Y-119694000I462J-2990000D01*
G01*
X156690000Y-119694000D02*
X159780000Y-119694000D01*
X160735000Y-117134000D02*
G75*
G03*
X160735000Y-117134000I-2500000J0D01*
G01*
X158234538Y-114144000D02*
G75*
G02*
X159779830Y-119694000I462J-2990000D01*
G01*
X158235462Y-114144000D02*
G75*
G03*
X156690170Y-119694000I-462J-2990000D01*
G01*
X172165000Y-117134000D02*
G75*
G03*
X172165000Y-117134000I-2500000J0D01*
G01*
X168120000Y-119694000D02*
X171210000Y-119694000D01*
X169665462Y-114144000D02*
G75*
G03*
X168120170Y-119694000I-462J-2990000D01*
G01*
X169664538Y-114144000D02*
G75*
G02*
X171209830Y-119694000I462J-2990000D01*
G01*
X102315000Y-121579000D02*
G75*
G03*
X102315000Y-121579000I-2500000J0D01*
G01*
X98270000Y-124139000D02*
X101360000Y-124139000D01*
X99815462Y-118589000D02*
G75*
G03*
X98270170Y-124139000I-462J-2990000D01*
G01*
X99814538Y-118589000D02*
G75*
G02*
X101359830Y-124139000I462J-2990000D01*
G01*
X116015000Y-125504000D02*
X116015000Y-124004000D01*
X114765000Y-121504000D02*
X110265000Y-121504000D01*
X109015000Y-124004000D02*
X109015000Y-125504000D01*
X110265000Y-128004000D02*
X114765000Y-128004000D01*
X121695000Y-128004000D02*
X126195000Y-128004000D01*
X120445000Y-124004000D02*
X120445000Y-125504000D01*
X126195000Y-121504000D02*
X121695000Y-121504000D01*
X127445000Y-125504000D02*
X127445000Y-124004000D01*
X133125000Y-128004000D02*
X137625000Y-128004000D01*
X131875000Y-124004000D02*
X131875000Y-125504000D01*
X137625000Y-121504000D02*
X133125000Y-121504000D01*
X138875000Y-125504000D02*
X138875000Y-124004000D01*
X150305000Y-125504000D02*
X150305000Y-124004000D01*
X149055000Y-121504000D02*
X144555000Y-121504000D01*
X143305000Y-124004000D02*
X143305000Y-125504000D01*
X144555000Y-128004000D02*
X149055000Y-128004000D01*
X155985000Y-128004000D02*
X160485000Y-128004000D01*
X154735000Y-124004000D02*
X154735000Y-125504000D01*
X160485000Y-121504000D02*
X155985000Y-121504000D01*
X161735000Y-125504000D02*
X161735000Y-124004000D01*
X173165000Y-125504000D02*
X173165000Y-124004000D01*
X171915000Y-121504000D02*
X167415000Y-121504000D01*
X166165000Y-124004000D02*
X166165000Y-125504000D01*
X167415000Y-128004000D02*
X171915000Y-128004000D01*
D11*
X98748333Y-125369904D02*
X98748333Y-124569904D01*
X99053095Y-124569904D01*
X99129285Y-124608000D01*
X99167380Y-124646095D01*
X99205476Y-124722285D01*
X99205476Y-124836571D01*
X99167380Y-124912761D01*
X99129285Y-124950857D01*
X99053095Y-124988952D01*
X98748333Y-124988952D01*
X99472142Y-124569904D02*
X99662619Y-125369904D01*
X99815000Y-124798476D01*
X99967380Y-125369904D01*
X100157857Y-124569904D01*
X100919761Y-125369904D02*
X100653095Y-124988952D01*
X100462619Y-125369904D02*
X100462619Y-124569904D01*
X100767380Y-124569904D01*
X100843571Y-124608000D01*
X100881666Y-124646095D01*
X100919761Y-124722285D01*
X100919761Y-124836571D01*
X100881666Y-124912761D01*
X100843571Y-124950857D01*
X100767380Y-124988952D01*
X100462619Y-124988952D01*
X111962619Y-129484714D02*
X111924523Y-129522809D01*
X111810238Y-129560904D01*
X111734047Y-129560904D01*
X111619761Y-129522809D01*
X111543571Y-129446619D01*
X111505476Y-129370428D01*
X111467380Y-129218047D01*
X111467380Y-129103761D01*
X111505476Y-128951380D01*
X111543571Y-128875190D01*
X111619761Y-128799000D01*
X111734047Y-128760904D01*
X111810238Y-128760904D01*
X111924523Y-128799000D01*
X111962619Y-128837095D01*
X112305476Y-129560904D02*
X112305476Y-128760904D01*
X112305476Y-129141857D02*
X112762619Y-129141857D01*
X112762619Y-129560904D02*
X112762619Y-128760904D01*
X113562619Y-129560904D02*
X113105476Y-129560904D01*
X113334047Y-129560904D02*
X113334047Y-128760904D01*
X113257857Y-128875190D01*
X113181666Y-128951380D01*
X113105476Y-128989476D01*
X111448333Y-125077809D02*
X111562619Y-125115904D01*
X111753095Y-125115904D01*
X111829285Y-125077809D01*
X111867380Y-125039714D01*
X111905476Y-124963523D01*
X111905476Y-124887333D01*
X111867380Y-124811142D01*
X111829285Y-124773047D01*
X111753095Y-124734952D01*
X111600714Y-124696857D01*
X111524523Y-124658761D01*
X111486428Y-124620666D01*
X111448333Y-124544476D01*
X111448333Y-124468285D01*
X111486428Y-124392095D01*
X111524523Y-124354000D01*
X111600714Y-124315904D01*
X111791190Y-124315904D01*
X111905476Y-124354000D01*
X112172142Y-124315904D02*
X112362619Y-125115904D01*
X112515000Y-124544476D01*
X112667380Y-125115904D01*
X112857857Y-124315904D01*
X113581666Y-125115904D02*
X113124523Y-125115904D01*
X113353095Y-125115904D02*
X113353095Y-124315904D01*
X113276904Y-124430190D01*
X113200714Y-124506380D01*
X113124523Y-124544476D01*
X123257619Y-129489714D02*
X123219523Y-129527809D01*
X123105238Y-129565904D01*
X123029047Y-129565904D01*
X122914761Y-129527809D01*
X122838571Y-129451619D01*
X122800476Y-129375428D01*
X122762380Y-129223047D01*
X122762380Y-129108761D01*
X122800476Y-128956380D01*
X122838571Y-128880190D01*
X122914761Y-128804000D01*
X123029047Y-128765904D01*
X123105238Y-128765904D01*
X123219523Y-128804000D01*
X123257619Y-128842095D01*
X123600476Y-129565904D02*
X123600476Y-128765904D01*
X123600476Y-129146857D02*
X124057619Y-129146857D01*
X124057619Y-129565904D02*
X124057619Y-128765904D01*
X124400476Y-128842095D02*
X124438571Y-128804000D01*
X124514761Y-128765904D01*
X124705238Y-128765904D01*
X124781428Y-128804000D01*
X124819523Y-128842095D01*
X124857619Y-128918285D01*
X124857619Y-128994476D01*
X124819523Y-129108761D01*
X124362380Y-129565904D01*
X124857619Y-129565904D01*
X122878333Y-125077809D02*
X122992619Y-125115904D01*
X123183095Y-125115904D01*
X123259285Y-125077809D01*
X123297380Y-125039714D01*
X123335476Y-124963523D01*
X123335476Y-124887333D01*
X123297380Y-124811142D01*
X123259285Y-124773047D01*
X123183095Y-124734952D01*
X123030714Y-124696857D01*
X122954523Y-124658761D01*
X122916428Y-124620666D01*
X122878333Y-124544476D01*
X122878333Y-124468285D01*
X122916428Y-124392095D01*
X122954523Y-124354000D01*
X123030714Y-124315904D01*
X123221190Y-124315904D01*
X123335476Y-124354000D01*
X123602142Y-124315904D02*
X123792619Y-125115904D01*
X123945000Y-124544476D01*
X124097380Y-125115904D01*
X124287857Y-124315904D01*
X124554523Y-124392095D02*
X124592619Y-124354000D01*
X124668809Y-124315904D01*
X124859285Y-124315904D01*
X124935476Y-124354000D01*
X124973571Y-124392095D01*
X125011666Y-124468285D01*
X125011666Y-124544476D01*
X124973571Y-124658761D01*
X124516428Y-125115904D01*
X125011666Y-125115904D01*
X134687619Y-129489714D02*
X134649523Y-129527809D01*
X134535238Y-129565904D01*
X134459047Y-129565904D01*
X134344761Y-129527809D01*
X134268571Y-129451619D01*
X134230476Y-129375428D01*
X134192380Y-129223047D01*
X134192380Y-129108761D01*
X134230476Y-128956380D01*
X134268571Y-128880190D01*
X134344761Y-128804000D01*
X134459047Y-128765904D01*
X134535238Y-128765904D01*
X134649523Y-128804000D01*
X134687619Y-128842095D01*
X135030476Y-129565904D02*
X135030476Y-128765904D01*
X135030476Y-129146857D02*
X135487619Y-129146857D01*
X135487619Y-129565904D02*
X135487619Y-128765904D01*
X135792380Y-128765904D02*
X136287619Y-128765904D01*
X136020952Y-129070666D01*
X136135238Y-129070666D01*
X136211428Y-129108761D01*
X136249523Y-129146857D01*
X136287619Y-129223047D01*
X136287619Y-129413523D01*
X136249523Y-129489714D01*
X136211428Y-129527809D01*
X136135238Y-129565904D01*
X135906666Y-129565904D01*
X135830476Y-129527809D01*
X135792380Y-129489714D01*
X134308333Y-125077809D02*
X134422619Y-125115904D01*
X134613095Y-125115904D01*
X134689285Y-125077809D01*
X134727380Y-125039714D01*
X134765476Y-124963523D01*
X134765476Y-124887333D01*
X134727380Y-124811142D01*
X134689285Y-124773047D01*
X134613095Y-124734952D01*
X134460714Y-124696857D01*
X134384523Y-124658761D01*
X134346428Y-124620666D01*
X134308333Y-124544476D01*
X134308333Y-124468285D01*
X134346428Y-124392095D01*
X134384523Y-124354000D01*
X134460714Y-124315904D01*
X134651190Y-124315904D01*
X134765476Y-124354000D01*
X135032142Y-124315904D02*
X135222619Y-125115904D01*
X135375000Y-124544476D01*
X135527380Y-125115904D01*
X135717857Y-124315904D01*
X135946428Y-124315904D02*
X136441666Y-124315904D01*
X136175000Y-124620666D01*
X136289285Y-124620666D01*
X136365476Y-124658761D01*
X136403571Y-124696857D01*
X136441666Y-124773047D01*
X136441666Y-124963523D01*
X136403571Y-125039714D01*
X136365476Y-125077809D01*
X136289285Y-125115904D01*
X136060714Y-125115904D01*
X135984523Y-125077809D01*
X135946428Y-125039714D01*
X146117619Y-129489714D02*
X146079523Y-129527809D01*
X145965238Y-129565904D01*
X145889047Y-129565904D01*
X145774761Y-129527809D01*
X145698571Y-129451619D01*
X145660476Y-129375428D01*
X145622380Y-129223047D01*
X145622380Y-129108761D01*
X145660476Y-128956380D01*
X145698571Y-128880190D01*
X145774761Y-128804000D01*
X145889047Y-128765904D01*
X145965238Y-128765904D01*
X146079523Y-128804000D01*
X146117619Y-128842095D01*
X146460476Y-129565904D02*
X146460476Y-128765904D01*
X146460476Y-129146857D02*
X146917619Y-129146857D01*
X146917619Y-129565904D02*
X146917619Y-128765904D01*
X147641428Y-129032571D02*
X147641428Y-129565904D01*
X147450952Y-128727809D02*
X147260476Y-129299238D01*
X147755714Y-129299238D01*
X145738333Y-125077809D02*
X145852619Y-125115904D01*
X146043095Y-125115904D01*
X146119285Y-125077809D01*
X146157380Y-125039714D01*
X146195476Y-124963523D01*
X146195476Y-124887333D01*
X146157380Y-124811142D01*
X146119285Y-124773047D01*
X146043095Y-124734952D01*
X145890714Y-124696857D01*
X145814523Y-124658761D01*
X145776428Y-124620666D01*
X145738333Y-124544476D01*
X145738333Y-124468285D01*
X145776428Y-124392095D01*
X145814523Y-124354000D01*
X145890714Y-124315904D01*
X146081190Y-124315904D01*
X146195476Y-124354000D01*
X146462142Y-124315904D02*
X146652619Y-125115904D01*
X146805000Y-124544476D01*
X146957380Y-125115904D01*
X147147857Y-124315904D01*
X147795476Y-124582571D02*
X147795476Y-125115904D01*
X147605000Y-124277809D02*
X147414523Y-124849238D01*
X147909761Y-124849238D01*
X157547619Y-129489714D02*
X157509523Y-129527809D01*
X157395238Y-129565904D01*
X157319047Y-129565904D01*
X157204761Y-129527809D01*
X157128571Y-129451619D01*
X157090476Y-129375428D01*
X157052380Y-129223047D01*
X157052380Y-129108761D01*
X157090476Y-128956380D01*
X157128571Y-128880190D01*
X157204761Y-128804000D01*
X157319047Y-128765904D01*
X157395238Y-128765904D01*
X157509523Y-128804000D01*
X157547619Y-128842095D01*
X157890476Y-129565904D02*
X157890476Y-128765904D01*
X157890476Y-129146857D02*
X158347619Y-129146857D01*
X158347619Y-129565904D02*
X158347619Y-128765904D01*
X159109523Y-128765904D02*
X158728571Y-128765904D01*
X158690476Y-129146857D01*
X158728571Y-129108761D01*
X158804761Y-129070666D01*
X158995238Y-129070666D01*
X159071428Y-129108761D01*
X159109523Y-129146857D01*
X159147619Y-129223047D01*
X159147619Y-129413523D01*
X159109523Y-129489714D01*
X159071428Y-129527809D01*
X158995238Y-129565904D01*
X158804761Y-129565904D01*
X158728571Y-129527809D01*
X158690476Y-129489714D01*
X157168333Y-125077809D02*
X157282619Y-125115904D01*
X157473095Y-125115904D01*
X157549285Y-125077809D01*
X157587380Y-125039714D01*
X157625476Y-124963523D01*
X157625476Y-124887333D01*
X157587380Y-124811142D01*
X157549285Y-124773047D01*
X157473095Y-124734952D01*
X157320714Y-124696857D01*
X157244523Y-124658761D01*
X157206428Y-124620666D01*
X157168333Y-124544476D01*
X157168333Y-124468285D01*
X157206428Y-124392095D01*
X157244523Y-124354000D01*
X157320714Y-124315904D01*
X157511190Y-124315904D01*
X157625476Y-124354000D01*
X157892142Y-124315904D02*
X158082619Y-125115904D01*
X158235000Y-124544476D01*
X158387380Y-125115904D01*
X158577857Y-124315904D01*
X159263571Y-124315904D02*
X158882619Y-124315904D01*
X158844523Y-124696857D01*
X158882619Y-124658761D01*
X158958809Y-124620666D01*
X159149285Y-124620666D01*
X159225476Y-124658761D01*
X159263571Y-124696857D01*
X159301666Y-124773047D01*
X159301666Y-124963523D01*
X159263571Y-125039714D01*
X159225476Y-125077809D01*
X159149285Y-125115904D01*
X158958809Y-125115904D01*
X158882619Y-125077809D01*
X158844523Y-125039714D01*
X168977619Y-129489714D02*
X168939523Y-129527809D01*
X168825238Y-129565904D01*
X168749047Y-129565904D01*
X168634761Y-129527809D01*
X168558571Y-129451619D01*
X168520476Y-129375428D01*
X168482380Y-129223047D01*
X168482380Y-129108761D01*
X168520476Y-128956380D01*
X168558571Y-128880190D01*
X168634761Y-128804000D01*
X168749047Y-128765904D01*
X168825238Y-128765904D01*
X168939523Y-128804000D01*
X168977619Y-128842095D01*
X169320476Y-129565904D02*
X169320476Y-128765904D01*
X169320476Y-129146857D02*
X169777619Y-129146857D01*
X169777619Y-129565904D02*
X169777619Y-128765904D01*
X170501428Y-128765904D02*
X170349047Y-128765904D01*
X170272857Y-128804000D01*
X170234761Y-128842095D01*
X170158571Y-128956380D01*
X170120476Y-129108761D01*
X170120476Y-129413523D01*
X170158571Y-129489714D01*
X170196666Y-129527809D01*
X170272857Y-129565904D01*
X170425238Y-129565904D01*
X170501428Y-129527809D01*
X170539523Y-129489714D01*
X170577619Y-129413523D01*
X170577619Y-129223047D01*
X170539523Y-129146857D01*
X170501428Y-129108761D01*
X170425238Y-129070666D01*
X170272857Y-129070666D01*
X170196666Y-129108761D01*
X170158571Y-129146857D01*
X170120476Y-129223047D01*
X168598333Y-125077809D02*
X168712619Y-125115904D01*
X168903095Y-125115904D01*
X168979285Y-125077809D01*
X169017380Y-125039714D01*
X169055476Y-124963523D01*
X169055476Y-124887333D01*
X169017380Y-124811142D01*
X168979285Y-124773047D01*
X168903095Y-124734952D01*
X168750714Y-124696857D01*
X168674523Y-124658761D01*
X168636428Y-124620666D01*
X168598333Y-124544476D01*
X168598333Y-124468285D01*
X168636428Y-124392095D01*
X168674523Y-124354000D01*
X168750714Y-124315904D01*
X168941190Y-124315904D01*
X169055476Y-124354000D01*
X169322142Y-124315904D02*
X169512619Y-125115904D01*
X169665000Y-124544476D01*
X169817380Y-125115904D01*
X170007857Y-124315904D01*
X170655476Y-124315904D02*
X170503095Y-124315904D01*
X170426904Y-124354000D01*
X170388809Y-124392095D01*
X170312619Y-124506380D01*
X170274523Y-124658761D01*
X170274523Y-124963523D01*
X170312619Y-125039714D01*
X170350714Y-125077809D01*
X170426904Y-125115904D01*
X170579285Y-125115904D01*
X170655476Y-125077809D01*
X170693571Y-125039714D01*
X170731666Y-124963523D01*
X170731666Y-124773047D01*
X170693571Y-124696857D01*
X170655476Y-124658761D01*
X170579285Y-124620666D01*
X170426904Y-124620666D01*
X170350714Y-124658761D01*
X170312619Y-124696857D01*
X170274523Y-124773047D01*
M02*
