G04 #@! TF.GenerationSoftware,KiCad,Pcbnew,(5.1.8)-1*
G04 #@! TF.CreationDate,2022-07-15T00:36:28+02:00*
G04 #@! TF.ProjectId,BulkyMIDI-32 Audio Switch Panel,42756c6b-794d-4494-9449-2d3332204175,rev?*
G04 #@! TF.SameCoordinates,Original*
G04 #@! TF.FileFunction,Soldermask,Bot*
G04 #@! TF.FilePolarity,Negative*
%FSLAX46Y46*%
G04 Gerber Fmt 4.6, Leading zero omitted, Abs format (unit mm)*
G04 Created by KiCad (PCBNEW (5.1.8)-1) date 2022-07-15 00:36:28*
%MOMM*%
%LPD*%
G01*
G04 APERTURE LIST*
%ADD10R,1.700000X1.700000*%
%ADD11O,1.700000X1.700000*%
%ADD12C,5.100000*%
%ADD13C,1.800000*%
%ADD14R,1.800000X1.800000*%
%ADD15C,2.000000*%
G04 APERTURE END LIST*
D10*
X115690000Y-130810000D03*
D11*
X118230000Y-130810000D03*
X120770000Y-130810000D03*
X123310000Y-130810000D03*
X125850000Y-130810000D03*
X128390000Y-130810000D03*
X130930000Y-130810000D03*
X133470000Y-130810000D03*
X136010000Y-130810000D03*
X138550000Y-130810000D03*
X141090000Y-130810000D03*
X143630000Y-130810000D03*
X146170000Y-130810000D03*
X148710000Y-130810000D03*
X151250000Y-130810000D03*
X153790000Y-130810000D03*
X156330000Y-130810000D03*
X158870000Y-130810000D03*
X161410000Y-130810000D03*
X163950000Y-130810000D03*
X166490000Y-130810000D03*
D12*
X99815000Y-129199000D03*
X182365000Y-129199000D03*
X182365000Y-115949000D03*
X99815000Y-115949000D03*
D13*
X112515000Y-115864000D03*
D14*
X112515000Y-118404000D03*
X123945000Y-118404000D03*
D13*
X123945000Y-115864000D03*
X135375000Y-115864000D03*
D14*
X135375000Y-118404000D03*
X146805000Y-118404000D03*
D13*
X146805000Y-115864000D03*
X158235000Y-115864000D03*
D14*
X158235000Y-118404000D03*
X169665000Y-118404000D03*
D13*
X169665000Y-115864000D03*
D14*
X99815000Y-122849000D03*
D13*
X99815000Y-120309000D03*
D15*
X109265000Y-127004000D03*
X109265000Y-122504000D03*
X115765000Y-127004000D03*
X115765000Y-122504000D03*
X127195000Y-122504000D03*
X127195000Y-127004000D03*
X120695000Y-122504000D03*
X120695000Y-127004000D03*
X138625000Y-122504000D03*
X138625000Y-127004000D03*
X132125000Y-122504000D03*
X132125000Y-127004000D03*
X143555000Y-127004000D03*
X143555000Y-122504000D03*
X150055000Y-127004000D03*
X150055000Y-122504000D03*
X161485000Y-122504000D03*
X161485000Y-127004000D03*
X154985000Y-122504000D03*
X154985000Y-127004000D03*
X166415000Y-127004000D03*
X166415000Y-122504000D03*
X172915000Y-127004000D03*
X172915000Y-122504000D03*
M02*
