G04 #@! TF.GenerationSoftware,KiCad,Pcbnew,(5.1.8)-1*
G04 #@! TF.CreationDate,2022-07-15T00:36:28+02:00*
G04 #@! TF.ProjectId,BulkyMIDI-32 Audio Switch Panel,42756c6b-794d-4494-9449-2d3332204175,rev?*
G04 #@! TF.SameCoordinates,Original*
G04 #@! TF.FileFunction,Copper,L2,Bot*
G04 #@! TF.FilePolarity,Positive*
%FSLAX46Y46*%
G04 Gerber Fmt 4.6, Leading zero omitted, Abs format (unit mm)*
G04 Created by KiCad (PCBNEW (5.1.8)-1) date 2022-07-15 00:36:28*
%MOMM*%
%LPD*%
G01*
G04 APERTURE LIST*
G04 #@! TA.AperFunction,ComponentPad*
%ADD10R,1.700000X1.700000*%
G04 #@! TD*
G04 #@! TA.AperFunction,ComponentPad*
%ADD11O,1.700000X1.700000*%
G04 #@! TD*
G04 #@! TA.AperFunction,ComponentPad*
%ADD12C,3.500000*%
G04 #@! TD*
G04 #@! TA.AperFunction,ComponentPad*
%ADD13C,1.800000*%
G04 #@! TD*
G04 #@! TA.AperFunction,ComponentPad*
%ADD14R,1.800000X1.800000*%
G04 #@! TD*
G04 #@! TA.AperFunction,ComponentPad*
%ADD15C,2.000000*%
G04 #@! TD*
G04 #@! TA.AperFunction,ViaPad*
%ADD16C,0.800000*%
G04 #@! TD*
G04 #@! TA.AperFunction,Conductor*
%ADD17C,0.381000*%
G04 #@! TD*
G04 #@! TA.AperFunction,Conductor*
%ADD18C,0.250000*%
G04 #@! TD*
G04 #@! TA.AperFunction,Conductor*
%ADD19C,0.254000*%
G04 #@! TD*
G04 #@! TA.AperFunction,Conductor*
%ADD20C,0.100000*%
G04 #@! TD*
G04 APERTURE END LIST*
D10*
X115690000Y-130810000D03*
D11*
X118230000Y-130810000D03*
X120770000Y-130810000D03*
X123310000Y-130810000D03*
X125850000Y-130810000D03*
X128390000Y-130810000D03*
X130930000Y-130810000D03*
X133470000Y-130810000D03*
X136010000Y-130810000D03*
X138550000Y-130810000D03*
X141090000Y-130810000D03*
X143630000Y-130810000D03*
X146170000Y-130810000D03*
X148710000Y-130810000D03*
X151250000Y-130810000D03*
X153790000Y-130810000D03*
X156330000Y-130810000D03*
X158870000Y-130810000D03*
X161410000Y-130810000D03*
X163950000Y-130810000D03*
X166490000Y-130810000D03*
D12*
X99815000Y-129199000D03*
X182365000Y-129199000D03*
X182365000Y-115949000D03*
X99815000Y-115949000D03*
D13*
X112515000Y-115864000D03*
D14*
X112515000Y-118404000D03*
X123945000Y-118404000D03*
D13*
X123945000Y-115864000D03*
X135375000Y-115864000D03*
D14*
X135375000Y-118404000D03*
X146805000Y-118404000D03*
D13*
X146805000Y-115864000D03*
X158235000Y-115864000D03*
D14*
X158235000Y-118404000D03*
X169665000Y-118404000D03*
D13*
X169665000Y-115864000D03*
D14*
X99815000Y-122849000D03*
D13*
X99815000Y-120309000D03*
D15*
X109265000Y-127004000D03*
X109265000Y-122504000D03*
X115765000Y-127004000D03*
X115765000Y-122504000D03*
X127195000Y-122504000D03*
X127195000Y-127004000D03*
X120695000Y-122504000D03*
X120695000Y-127004000D03*
X138625000Y-122504000D03*
X138625000Y-127004000D03*
X132125000Y-122504000D03*
X132125000Y-127004000D03*
X143555000Y-127004000D03*
X143555000Y-122504000D03*
X150055000Y-127004000D03*
X150055000Y-122504000D03*
X161485000Y-122504000D03*
X161485000Y-127004000D03*
X154985000Y-122504000D03*
X154985000Y-127004000D03*
X166415000Y-127004000D03*
X166415000Y-122504000D03*
X172915000Y-127004000D03*
X172915000Y-122504000D03*
D16*
X160140000Y-129289000D03*
X157600000Y-128564000D03*
D17*
X143555000Y-122504000D02*
X150055000Y-122504000D01*
X138625000Y-122504000D02*
X132125000Y-122504000D01*
X120695000Y-122504000D02*
X127195000Y-122504000D01*
X154985000Y-122504000D02*
X161485000Y-122504000D01*
X166415000Y-122504000D02*
X172915000Y-122504000D01*
D18*
X151250000Y-130810000D02*
X151250000Y-129834000D01*
X151795000Y-129289000D02*
X160140000Y-129289000D01*
X151250000Y-129834000D02*
X151795000Y-129289000D01*
X120695000Y-127004000D02*
X127195000Y-127004000D01*
X132125000Y-127004000D02*
X138625000Y-127004000D01*
X150055000Y-127004000D02*
X143555000Y-127004000D01*
X154985000Y-127004000D02*
X161485000Y-127004000D01*
X166415000Y-127004000D02*
X172915000Y-127004000D01*
X148710000Y-130810000D02*
X148710000Y-129199000D01*
X149345000Y-128564000D02*
X157600000Y-128564000D01*
X148710000Y-129199000D02*
X149345000Y-128564000D01*
D19*
X117570000Y-112741580D02*
X117566807Y-112774000D01*
X117579550Y-112903383D01*
X117617290Y-113027793D01*
X117678575Y-113142450D01*
X117761052Y-113242948D01*
X117861550Y-113325425D01*
X117976207Y-113386710D01*
X118100617Y-113424450D01*
X118230000Y-113437193D01*
X118262419Y-113434000D01*
X163917581Y-113434000D01*
X163950000Y-113437193D01*
X163982419Y-113434000D01*
X164079383Y-113424450D01*
X164203793Y-113386710D01*
X164318450Y-113325425D01*
X164418948Y-113242948D01*
X164501425Y-113142450D01*
X164562710Y-113027793D01*
X164600450Y-112903383D01*
X164613193Y-112774000D01*
X164610000Y-112741581D01*
X164610000Y-111634000D01*
X168370001Y-111634000D01*
X168370000Y-112741580D01*
X168366807Y-112774000D01*
X168379550Y-112903383D01*
X168417290Y-113027793D01*
X168478575Y-113142450D01*
X168561052Y-113242948D01*
X168661550Y-113325425D01*
X168776207Y-113386710D01*
X168900617Y-113424450D01*
X169030000Y-113437193D01*
X169062419Y-113434000D01*
X190430001Y-113434000D01*
X190430000Y-131714000D01*
X169062419Y-131714000D01*
X169030000Y-131710807D01*
X168997581Y-131714000D01*
X168900617Y-131723550D01*
X168776207Y-131761290D01*
X168661550Y-131822575D01*
X168561052Y-131905052D01*
X168478575Y-132005550D01*
X168417290Y-132120207D01*
X168379550Y-132244617D01*
X168366807Y-132374000D01*
X168370000Y-132406418D01*
X168370001Y-133514000D01*
X164610000Y-133514000D01*
X164610000Y-132406418D01*
X164613193Y-132374000D01*
X164600450Y-132244617D01*
X164571957Y-132150688D01*
X164716920Y-132081641D01*
X164950269Y-131907588D01*
X165145178Y-131691355D01*
X165214805Y-131574466D01*
X165336525Y-131756632D01*
X165543368Y-131963475D01*
X165786589Y-132125990D01*
X166056842Y-132237932D01*
X166343740Y-132295000D01*
X166636260Y-132295000D01*
X166923158Y-132237932D01*
X167193411Y-132125990D01*
X167436632Y-131963475D01*
X167643475Y-131756632D01*
X167805990Y-131513411D01*
X167917932Y-131243158D01*
X167975000Y-130956260D01*
X167975000Y-130868609D01*
X180874997Y-130868609D01*
X181061073Y-131209766D01*
X181478409Y-131425513D01*
X181929815Y-131555696D01*
X182397946Y-131595313D01*
X182864811Y-131542842D01*
X183312468Y-131400297D01*
X183668927Y-131209766D01*
X183855003Y-130868609D01*
X182365000Y-129378605D01*
X180874997Y-130868609D01*
X167975000Y-130868609D01*
X167975000Y-130663740D01*
X167917932Y-130376842D01*
X167805990Y-130106589D01*
X167643475Y-129863368D01*
X167436632Y-129656525D01*
X167193411Y-129494010D01*
X166923158Y-129382068D01*
X166636260Y-129325000D01*
X166343740Y-129325000D01*
X166056842Y-129382068D01*
X165786589Y-129494010D01*
X165543368Y-129656525D01*
X165336525Y-129863368D01*
X165214805Y-130045534D01*
X165145178Y-129928645D01*
X164950269Y-129712412D01*
X164716920Y-129538359D01*
X164454099Y-129413175D01*
X164306890Y-129368524D01*
X164077000Y-129489845D01*
X164077000Y-130683000D01*
X164097000Y-130683000D01*
X164097000Y-130937000D01*
X164077000Y-130937000D01*
X164077000Y-130957000D01*
X163823000Y-130957000D01*
X163823000Y-130937000D01*
X163803000Y-130937000D01*
X163803000Y-130683000D01*
X163823000Y-130683000D01*
X163823000Y-129489845D01*
X163593110Y-129368524D01*
X163445901Y-129413175D01*
X163183080Y-129538359D01*
X162949731Y-129712412D01*
X162754822Y-129928645D01*
X162685195Y-130045534D01*
X162563475Y-129863368D01*
X162356632Y-129656525D01*
X162113411Y-129494010D01*
X161843158Y-129382068D01*
X161556260Y-129325000D01*
X161263740Y-129325000D01*
X161175000Y-129342652D01*
X161175000Y-129231946D01*
X179968687Y-129231946D01*
X180021158Y-129698811D01*
X180163703Y-130146468D01*
X180354234Y-130502927D01*
X180695391Y-130689003D01*
X182185395Y-129199000D01*
X182544605Y-129199000D01*
X184034609Y-130689003D01*
X184375766Y-130502927D01*
X184591513Y-130085591D01*
X184721696Y-129634185D01*
X184761313Y-129166054D01*
X184708842Y-128699189D01*
X184566297Y-128251532D01*
X184375766Y-127895073D01*
X184034609Y-127708997D01*
X182544605Y-129199000D01*
X182185395Y-129199000D01*
X180695391Y-127708997D01*
X180354234Y-127895073D01*
X180138487Y-128312409D01*
X180008304Y-128763815D01*
X179968687Y-129231946D01*
X161175000Y-129231946D01*
X161175000Y-129187061D01*
X161135226Y-128987102D01*
X161057205Y-128798744D01*
X160943937Y-128629226D01*
X160807999Y-128493288D01*
X161008088Y-128576168D01*
X161323967Y-128639000D01*
X161646033Y-128639000D01*
X161961912Y-128576168D01*
X162259463Y-128452918D01*
X162527252Y-128273987D01*
X162754987Y-128046252D01*
X162933918Y-127778463D01*
X163057168Y-127480912D01*
X163120000Y-127165033D01*
X163120000Y-126842967D01*
X164780000Y-126842967D01*
X164780000Y-127165033D01*
X164842832Y-127480912D01*
X164966082Y-127778463D01*
X165145013Y-128046252D01*
X165372748Y-128273987D01*
X165640537Y-128452918D01*
X165938088Y-128576168D01*
X166253967Y-128639000D01*
X166576033Y-128639000D01*
X166891912Y-128576168D01*
X167189463Y-128452918D01*
X167457252Y-128273987D01*
X167684987Y-128046252D01*
X167863918Y-127778463D01*
X167869909Y-127764000D01*
X171460091Y-127764000D01*
X171466082Y-127778463D01*
X171645013Y-128046252D01*
X171872748Y-128273987D01*
X172140537Y-128452918D01*
X172438088Y-128576168D01*
X172753967Y-128639000D01*
X173076033Y-128639000D01*
X173391912Y-128576168D01*
X173689463Y-128452918D01*
X173957252Y-128273987D01*
X174184987Y-128046252D01*
X174363918Y-127778463D01*
X174467087Y-127529391D01*
X180874997Y-127529391D01*
X182365000Y-129019395D01*
X183855003Y-127529391D01*
X183668927Y-127188234D01*
X183251591Y-126972487D01*
X182800185Y-126842304D01*
X182332054Y-126802687D01*
X181865189Y-126855158D01*
X181417532Y-126997703D01*
X181061073Y-127188234D01*
X180874997Y-127529391D01*
X174467087Y-127529391D01*
X174487168Y-127480912D01*
X174550000Y-127165033D01*
X174550000Y-126842967D01*
X174487168Y-126527088D01*
X174363918Y-126229537D01*
X174184987Y-125961748D01*
X173957252Y-125734013D01*
X173689463Y-125555082D01*
X173391912Y-125431832D01*
X173076033Y-125369000D01*
X172753967Y-125369000D01*
X172438088Y-125431832D01*
X172140537Y-125555082D01*
X171872748Y-125734013D01*
X171645013Y-125961748D01*
X171466082Y-126229537D01*
X171460091Y-126244000D01*
X167869909Y-126244000D01*
X167863918Y-126229537D01*
X167684987Y-125961748D01*
X167457252Y-125734013D01*
X167189463Y-125555082D01*
X166891912Y-125431832D01*
X166576033Y-125369000D01*
X166253967Y-125369000D01*
X165938088Y-125431832D01*
X165640537Y-125555082D01*
X165372748Y-125734013D01*
X165145013Y-125961748D01*
X164966082Y-126229537D01*
X164842832Y-126527088D01*
X164780000Y-126842967D01*
X163120000Y-126842967D01*
X163057168Y-126527088D01*
X162933918Y-126229537D01*
X162754987Y-125961748D01*
X162527252Y-125734013D01*
X162259463Y-125555082D01*
X161961912Y-125431832D01*
X161646033Y-125369000D01*
X161323967Y-125369000D01*
X161008088Y-125431832D01*
X160710537Y-125555082D01*
X160442748Y-125734013D01*
X160215013Y-125961748D01*
X160036082Y-126229537D01*
X160030091Y-126244000D01*
X156439909Y-126244000D01*
X156433918Y-126229537D01*
X156254987Y-125961748D01*
X156027252Y-125734013D01*
X155759463Y-125555082D01*
X155461912Y-125431832D01*
X155146033Y-125369000D01*
X154823967Y-125369000D01*
X154508088Y-125431832D01*
X154210537Y-125555082D01*
X153942748Y-125734013D01*
X153715013Y-125961748D01*
X153536082Y-126229537D01*
X153412832Y-126527088D01*
X153350000Y-126842967D01*
X153350000Y-127165033D01*
X153412832Y-127480912D01*
X153536082Y-127778463D01*
X153553145Y-127804000D01*
X151486855Y-127804000D01*
X151503918Y-127778463D01*
X151627168Y-127480912D01*
X151690000Y-127165033D01*
X151690000Y-126842967D01*
X151627168Y-126527088D01*
X151503918Y-126229537D01*
X151324987Y-125961748D01*
X151097252Y-125734013D01*
X150829463Y-125555082D01*
X150531912Y-125431832D01*
X150216033Y-125369000D01*
X149893967Y-125369000D01*
X149578088Y-125431832D01*
X149280537Y-125555082D01*
X149012748Y-125734013D01*
X148785013Y-125961748D01*
X148606082Y-126229537D01*
X148600091Y-126244000D01*
X145009909Y-126244000D01*
X145003918Y-126229537D01*
X144824987Y-125961748D01*
X144597252Y-125734013D01*
X144329463Y-125555082D01*
X144031912Y-125431832D01*
X143716033Y-125369000D01*
X143393967Y-125369000D01*
X143078088Y-125431832D01*
X142780537Y-125555082D01*
X142512748Y-125734013D01*
X142285013Y-125961748D01*
X142106082Y-126229537D01*
X141982832Y-126527088D01*
X141920000Y-126842967D01*
X141920000Y-127165033D01*
X141982832Y-127480912D01*
X142106082Y-127778463D01*
X142285013Y-128046252D01*
X142512748Y-128273987D01*
X142780537Y-128452918D01*
X143078088Y-128576168D01*
X143393967Y-128639000D01*
X143716033Y-128639000D01*
X144031912Y-128576168D01*
X144329463Y-128452918D01*
X144597252Y-128273987D01*
X144824987Y-128046252D01*
X145003918Y-127778463D01*
X145009909Y-127764000D01*
X148600091Y-127764000D01*
X148606082Y-127778463D01*
X148785013Y-128046252D01*
X148785960Y-128047199D01*
X148781200Y-128052998D01*
X148198998Y-128635201D01*
X148170000Y-128658999D01*
X148146202Y-128687997D01*
X148146201Y-128687998D01*
X148075026Y-128774724D01*
X148004454Y-128906754D01*
X147980082Y-128987102D01*
X147960998Y-129050014D01*
X147955681Y-129104001D01*
X147946324Y-129199000D01*
X147950001Y-129236332D01*
X147950001Y-129531821D01*
X147763368Y-129656525D01*
X147556525Y-129863368D01*
X147440000Y-130037760D01*
X147323475Y-129863368D01*
X147116632Y-129656525D01*
X146873411Y-129494010D01*
X146603158Y-129382068D01*
X146316260Y-129325000D01*
X146023740Y-129325000D01*
X145736842Y-129382068D01*
X145466589Y-129494010D01*
X145223368Y-129656525D01*
X145016525Y-129863368D01*
X144900000Y-130037760D01*
X144783475Y-129863368D01*
X144576632Y-129656525D01*
X144333411Y-129494010D01*
X144063158Y-129382068D01*
X143776260Y-129325000D01*
X143483740Y-129325000D01*
X143196842Y-129382068D01*
X142926589Y-129494010D01*
X142683368Y-129656525D01*
X142476525Y-129863368D01*
X142360000Y-130037760D01*
X142243475Y-129863368D01*
X142036632Y-129656525D01*
X141793411Y-129494010D01*
X141523158Y-129382068D01*
X141236260Y-129325000D01*
X140943740Y-129325000D01*
X140656842Y-129382068D01*
X140386589Y-129494010D01*
X140143368Y-129656525D01*
X139936525Y-129863368D01*
X139820000Y-130037760D01*
X139703475Y-129863368D01*
X139496632Y-129656525D01*
X139253411Y-129494010D01*
X138983158Y-129382068D01*
X138696260Y-129325000D01*
X138403740Y-129325000D01*
X138116842Y-129382068D01*
X137846589Y-129494010D01*
X137603368Y-129656525D01*
X137396525Y-129863368D01*
X137280000Y-130037760D01*
X137163475Y-129863368D01*
X136956632Y-129656525D01*
X136713411Y-129494010D01*
X136443158Y-129382068D01*
X136156260Y-129325000D01*
X135863740Y-129325000D01*
X135576842Y-129382068D01*
X135306589Y-129494010D01*
X135063368Y-129656525D01*
X134856525Y-129863368D01*
X134740000Y-130037760D01*
X134623475Y-129863368D01*
X134416632Y-129656525D01*
X134173411Y-129494010D01*
X133903158Y-129382068D01*
X133616260Y-129325000D01*
X133323740Y-129325000D01*
X133036842Y-129382068D01*
X132766589Y-129494010D01*
X132523368Y-129656525D01*
X132316525Y-129863368D01*
X132200000Y-130037760D01*
X132083475Y-129863368D01*
X131876632Y-129656525D01*
X131633411Y-129494010D01*
X131363158Y-129382068D01*
X131076260Y-129325000D01*
X130783740Y-129325000D01*
X130496842Y-129382068D01*
X130226589Y-129494010D01*
X129983368Y-129656525D01*
X129776525Y-129863368D01*
X129660000Y-130037760D01*
X129543475Y-129863368D01*
X129336632Y-129656525D01*
X129093411Y-129494010D01*
X128823158Y-129382068D01*
X128536260Y-129325000D01*
X128243740Y-129325000D01*
X127956842Y-129382068D01*
X127686589Y-129494010D01*
X127443368Y-129656525D01*
X127236525Y-129863368D01*
X127120000Y-130037760D01*
X127003475Y-129863368D01*
X126796632Y-129656525D01*
X126553411Y-129494010D01*
X126283158Y-129382068D01*
X125996260Y-129325000D01*
X125703740Y-129325000D01*
X125416842Y-129382068D01*
X125146589Y-129494010D01*
X124903368Y-129656525D01*
X124696525Y-129863368D01*
X124580000Y-130037760D01*
X124463475Y-129863368D01*
X124256632Y-129656525D01*
X124013411Y-129494010D01*
X123743158Y-129382068D01*
X123456260Y-129325000D01*
X123163740Y-129325000D01*
X122876842Y-129382068D01*
X122606589Y-129494010D01*
X122363368Y-129656525D01*
X122156525Y-129863368D01*
X122040000Y-130037760D01*
X121923475Y-129863368D01*
X121716632Y-129656525D01*
X121473411Y-129494010D01*
X121203158Y-129382068D01*
X120916260Y-129325000D01*
X120623740Y-129325000D01*
X120336842Y-129382068D01*
X120066589Y-129494010D01*
X119823368Y-129656525D01*
X119616525Y-129863368D01*
X119494805Y-130045534D01*
X119425178Y-129928645D01*
X119230269Y-129712412D01*
X118996920Y-129538359D01*
X118734099Y-129413175D01*
X118586890Y-129368524D01*
X118357000Y-129489845D01*
X118357000Y-130683000D01*
X118377000Y-130683000D01*
X118377000Y-130937000D01*
X118357000Y-130937000D01*
X118357000Y-130957000D01*
X118103000Y-130957000D01*
X118103000Y-130937000D01*
X118083000Y-130937000D01*
X118083000Y-130683000D01*
X118103000Y-130683000D01*
X118103000Y-129489845D01*
X117873110Y-129368524D01*
X117725901Y-129413175D01*
X117463080Y-129538359D01*
X117229731Y-129712412D01*
X117153966Y-129796466D01*
X117129502Y-129715820D01*
X117070537Y-129605506D01*
X116991185Y-129508815D01*
X116894494Y-129429463D01*
X116784180Y-129370498D01*
X116664482Y-129334188D01*
X116540000Y-129321928D01*
X114840000Y-129321928D01*
X114715518Y-129334188D01*
X114595820Y-129370498D01*
X114485506Y-129429463D01*
X114388815Y-129508815D01*
X114309463Y-129605506D01*
X114250498Y-129715820D01*
X114214188Y-129835518D01*
X114201928Y-129960000D01*
X114201928Y-131660000D01*
X114214188Y-131784482D01*
X114250498Y-131904180D01*
X114309463Y-132014494D01*
X114388815Y-132111185D01*
X114485506Y-132190537D01*
X114595820Y-132249502D01*
X114715518Y-132285812D01*
X114840000Y-132298072D01*
X116540000Y-132298072D01*
X116664482Y-132285812D01*
X116784180Y-132249502D01*
X116894494Y-132190537D01*
X116991185Y-132111185D01*
X117070537Y-132014494D01*
X117129502Y-131904180D01*
X117153966Y-131823534D01*
X117229731Y-131907588D01*
X117463080Y-132081641D01*
X117608043Y-132150688D01*
X117579550Y-132244617D01*
X117566807Y-132374000D01*
X117570000Y-132406418D01*
X117570001Y-133514000D01*
X113810000Y-133514000D01*
X113810000Y-132406418D01*
X113813193Y-132374000D01*
X113800450Y-132244617D01*
X113762710Y-132120207D01*
X113701425Y-132005550D01*
X113618948Y-131905052D01*
X113518450Y-131822575D01*
X113403793Y-131761290D01*
X113279383Y-131723550D01*
X113182419Y-131714000D01*
X113150000Y-131710807D01*
X113117581Y-131714000D01*
X91750000Y-131714000D01*
X91750000Y-130868609D01*
X98324997Y-130868609D01*
X98511073Y-131209766D01*
X98928409Y-131425513D01*
X99379815Y-131555696D01*
X99847946Y-131595313D01*
X100314811Y-131542842D01*
X100762468Y-131400297D01*
X101118927Y-131209766D01*
X101305003Y-130868609D01*
X99815000Y-129378605D01*
X98324997Y-130868609D01*
X91750000Y-130868609D01*
X91750000Y-129231946D01*
X97418687Y-129231946D01*
X97471158Y-129698811D01*
X97613703Y-130146468D01*
X97804234Y-130502927D01*
X98145391Y-130689003D01*
X99635395Y-129199000D01*
X99994605Y-129199000D01*
X101484609Y-130689003D01*
X101825766Y-130502927D01*
X102041513Y-130085591D01*
X102171696Y-129634185D01*
X102211313Y-129166054D01*
X102158842Y-128699189D01*
X102016297Y-128251532D01*
X101825766Y-127895073D01*
X101484609Y-127708997D01*
X99994605Y-129199000D01*
X99635395Y-129199000D01*
X98145391Y-127708997D01*
X97804234Y-127895073D01*
X97588487Y-128312409D01*
X97458304Y-128763815D01*
X97418687Y-129231946D01*
X91750000Y-129231946D01*
X91750000Y-127529391D01*
X98324997Y-127529391D01*
X99815000Y-129019395D01*
X101305003Y-127529391D01*
X101118927Y-127188234D01*
X100701591Y-126972487D01*
X100252484Y-126842967D01*
X107630000Y-126842967D01*
X107630000Y-127165033D01*
X107692832Y-127480912D01*
X107816082Y-127778463D01*
X107995013Y-128046252D01*
X108222748Y-128273987D01*
X108490537Y-128452918D01*
X108788088Y-128576168D01*
X109103967Y-128639000D01*
X109426033Y-128639000D01*
X109741912Y-128576168D01*
X110039463Y-128452918D01*
X110307252Y-128273987D01*
X110534987Y-128046252D01*
X110713918Y-127778463D01*
X110837168Y-127480912D01*
X110900000Y-127165033D01*
X110900000Y-126842967D01*
X114130000Y-126842967D01*
X114130000Y-127165033D01*
X114192832Y-127480912D01*
X114316082Y-127778463D01*
X114495013Y-128046252D01*
X114722748Y-128273987D01*
X114990537Y-128452918D01*
X115288088Y-128576168D01*
X115603967Y-128639000D01*
X115926033Y-128639000D01*
X116241912Y-128576168D01*
X116539463Y-128452918D01*
X116807252Y-128273987D01*
X117034987Y-128046252D01*
X117213918Y-127778463D01*
X117337168Y-127480912D01*
X117400000Y-127165033D01*
X117400000Y-126842967D01*
X119060000Y-126842967D01*
X119060000Y-127165033D01*
X119122832Y-127480912D01*
X119246082Y-127778463D01*
X119425013Y-128046252D01*
X119652748Y-128273987D01*
X119920537Y-128452918D01*
X120218088Y-128576168D01*
X120533967Y-128639000D01*
X120856033Y-128639000D01*
X121171912Y-128576168D01*
X121469463Y-128452918D01*
X121737252Y-128273987D01*
X121964987Y-128046252D01*
X122143918Y-127778463D01*
X122149909Y-127764000D01*
X125740091Y-127764000D01*
X125746082Y-127778463D01*
X125925013Y-128046252D01*
X126152748Y-128273987D01*
X126420537Y-128452918D01*
X126718088Y-128576168D01*
X127033967Y-128639000D01*
X127356033Y-128639000D01*
X127671912Y-128576168D01*
X127969463Y-128452918D01*
X128237252Y-128273987D01*
X128464987Y-128046252D01*
X128643918Y-127778463D01*
X128767168Y-127480912D01*
X128830000Y-127165033D01*
X128830000Y-126842967D01*
X130490000Y-126842967D01*
X130490000Y-127165033D01*
X130552832Y-127480912D01*
X130676082Y-127778463D01*
X130855013Y-128046252D01*
X131082748Y-128273987D01*
X131350537Y-128452918D01*
X131648088Y-128576168D01*
X131963967Y-128639000D01*
X132286033Y-128639000D01*
X132601912Y-128576168D01*
X132899463Y-128452918D01*
X133167252Y-128273987D01*
X133394987Y-128046252D01*
X133573918Y-127778463D01*
X133579909Y-127764000D01*
X137170091Y-127764000D01*
X137176082Y-127778463D01*
X137355013Y-128046252D01*
X137582748Y-128273987D01*
X137850537Y-128452918D01*
X138148088Y-128576168D01*
X138463967Y-128639000D01*
X138786033Y-128639000D01*
X139101912Y-128576168D01*
X139399463Y-128452918D01*
X139667252Y-128273987D01*
X139894987Y-128046252D01*
X140073918Y-127778463D01*
X140197168Y-127480912D01*
X140260000Y-127165033D01*
X140260000Y-126842967D01*
X140197168Y-126527088D01*
X140073918Y-126229537D01*
X139894987Y-125961748D01*
X139667252Y-125734013D01*
X139399463Y-125555082D01*
X139101912Y-125431832D01*
X138786033Y-125369000D01*
X138463967Y-125369000D01*
X138148088Y-125431832D01*
X137850537Y-125555082D01*
X137582748Y-125734013D01*
X137355013Y-125961748D01*
X137176082Y-126229537D01*
X137170091Y-126244000D01*
X133579909Y-126244000D01*
X133573918Y-126229537D01*
X133394987Y-125961748D01*
X133167252Y-125734013D01*
X132899463Y-125555082D01*
X132601912Y-125431832D01*
X132286033Y-125369000D01*
X131963967Y-125369000D01*
X131648088Y-125431832D01*
X131350537Y-125555082D01*
X131082748Y-125734013D01*
X130855013Y-125961748D01*
X130676082Y-126229537D01*
X130552832Y-126527088D01*
X130490000Y-126842967D01*
X128830000Y-126842967D01*
X128767168Y-126527088D01*
X128643918Y-126229537D01*
X128464987Y-125961748D01*
X128237252Y-125734013D01*
X127969463Y-125555082D01*
X127671912Y-125431832D01*
X127356033Y-125369000D01*
X127033967Y-125369000D01*
X126718088Y-125431832D01*
X126420537Y-125555082D01*
X126152748Y-125734013D01*
X125925013Y-125961748D01*
X125746082Y-126229537D01*
X125740091Y-126244000D01*
X122149909Y-126244000D01*
X122143918Y-126229537D01*
X121964987Y-125961748D01*
X121737252Y-125734013D01*
X121469463Y-125555082D01*
X121171912Y-125431832D01*
X120856033Y-125369000D01*
X120533967Y-125369000D01*
X120218088Y-125431832D01*
X119920537Y-125555082D01*
X119652748Y-125734013D01*
X119425013Y-125961748D01*
X119246082Y-126229537D01*
X119122832Y-126527088D01*
X119060000Y-126842967D01*
X117400000Y-126842967D01*
X117337168Y-126527088D01*
X117213918Y-126229537D01*
X117034987Y-125961748D01*
X116807252Y-125734013D01*
X116539463Y-125555082D01*
X116241912Y-125431832D01*
X115926033Y-125369000D01*
X115603967Y-125369000D01*
X115288088Y-125431832D01*
X114990537Y-125555082D01*
X114722748Y-125734013D01*
X114495013Y-125961748D01*
X114316082Y-126229537D01*
X114192832Y-126527088D01*
X114130000Y-126842967D01*
X110900000Y-126842967D01*
X110837168Y-126527088D01*
X110713918Y-126229537D01*
X110534987Y-125961748D01*
X110307252Y-125734013D01*
X110039463Y-125555082D01*
X109741912Y-125431832D01*
X109426033Y-125369000D01*
X109103967Y-125369000D01*
X108788088Y-125431832D01*
X108490537Y-125555082D01*
X108222748Y-125734013D01*
X107995013Y-125961748D01*
X107816082Y-126229537D01*
X107692832Y-126527088D01*
X107630000Y-126842967D01*
X100252484Y-126842967D01*
X100250185Y-126842304D01*
X99782054Y-126802687D01*
X99315189Y-126855158D01*
X98867532Y-126997703D01*
X98511073Y-127188234D01*
X98324997Y-127529391D01*
X91750000Y-127529391D01*
X91750000Y-121949000D01*
X98276928Y-121949000D01*
X98276928Y-123749000D01*
X98289188Y-123873482D01*
X98325498Y-123993180D01*
X98384463Y-124103494D01*
X98463815Y-124200185D01*
X98560506Y-124279537D01*
X98670820Y-124338502D01*
X98790518Y-124374812D01*
X98915000Y-124387072D01*
X100715000Y-124387072D01*
X100839482Y-124374812D01*
X100959180Y-124338502D01*
X101069494Y-124279537D01*
X101166185Y-124200185D01*
X101245537Y-124103494D01*
X101304502Y-123993180D01*
X101340812Y-123873482D01*
X101353072Y-123749000D01*
X101353072Y-122342967D01*
X107630000Y-122342967D01*
X107630000Y-122665033D01*
X107692832Y-122980912D01*
X107816082Y-123278463D01*
X107995013Y-123546252D01*
X108222748Y-123773987D01*
X108490537Y-123952918D01*
X108788088Y-124076168D01*
X109103967Y-124139000D01*
X109426033Y-124139000D01*
X109741912Y-124076168D01*
X110039463Y-123952918D01*
X110307252Y-123773987D01*
X110534987Y-123546252D01*
X110713918Y-123278463D01*
X110837168Y-122980912D01*
X110900000Y-122665033D01*
X110900000Y-122342967D01*
X114130000Y-122342967D01*
X114130000Y-122665033D01*
X114192832Y-122980912D01*
X114316082Y-123278463D01*
X114495013Y-123546252D01*
X114722748Y-123773987D01*
X114990537Y-123952918D01*
X115288088Y-124076168D01*
X115603967Y-124139000D01*
X115926033Y-124139000D01*
X116241912Y-124076168D01*
X116539463Y-123952918D01*
X116807252Y-123773987D01*
X117034987Y-123546252D01*
X117213918Y-123278463D01*
X117337168Y-122980912D01*
X117400000Y-122665033D01*
X117400000Y-122342967D01*
X119060000Y-122342967D01*
X119060000Y-122665033D01*
X119122832Y-122980912D01*
X119246082Y-123278463D01*
X119425013Y-123546252D01*
X119652748Y-123773987D01*
X119920537Y-123952918D01*
X120218088Y-124076168D01*
X120533967Y-124139000D01*
X120856033Y-124139000D01*
X121171912Y-124076168D01*
X121469463Y-123952918D01*
X121737252Y-123773987D01*
X121964987Y-123546252D01*
X122109816Y-123329500D01*
X125780184Y-123329500D01*
X125925013Y-123546252D01*
X126152748Y-123773987D01*
X126420537Y-123952918D01*
X126718088Y-124076168D01*
X127033967Y-124139000D01*
X127356033Y-124139000D01*
X127671912Y-124076168D01*
X127969463Y-123952918D01*
X128237252Y-123773987D01*
X128464987Y-123546252D01*
X128643918Y-123278463D01*
X128767168Y-122980912D01*
X128830000Y-122665033D01*
X128830000Y-122342967D01*
X130490000Y-122342967D01*
X130490000Y-122665033D01*
X130552832Y-122980912D01*
X130676082Y-123278463D01*
X130855013Y-123546252D01*
X131082748Y-123773987D01*
X131350537Y-123952918D01*
X131648088Y-124076168D01*
X131963967Y-124139000D01*
X132286033Y-124139000D01*
X132601912Y-124076168D01*
X132899463Y-123952918D01*
X133167252Y-123773987D01*
X133394987Y-123546252D01*
X133539816Y-123329500D01*
X137210184Y-123329500D01*
X137355013Y-123546252D01*
X137582748Y-123773987D01*
X137850537Y-123952918D01*
X138148088Y-124076168D01*
X138463967Y-124139000D01*
X138786033Y-124139000D01*
X139101912Y-124076168D01*
X139399463Y-123952918D01*
X139667252Y-123773987D01*
X139894987Y-123546252D01*
X140073918Y-123278463D01*
X140197168Y-122980912D01*
X140260000Y-122665033D01*
X140260000Y-122342967D01*
X141920000Y-122342967D01*
X141920000Y-122665033D01*
X141982832Y-122980912D01*
X142106082Y-123278463D01*
X142285013Y-123546252D01*
X142512748Y-123773987D01*
X142780537Y-123952918D01*
X143078088Y-124076168D01*
X143393967Y-124139000D01*
X143716033Y-124139000D01*
X144031912Y-124076168D01*
X144329463Y-123952918D01*
X144597252Y-123773987D01*
X144824987Y-123546252D01*
X144969816Y-123329500D01*
X148640184Y-123329500D01*
X148785013Y-123546252D01*
X149012748Y-123773987D01*
X149280537Y-123952918D01*
X149578088Y-124076168D01*
X149893967Y-124139000D01*
X150216033Y-124139000D01*
X150531912Y-124076168D01*
X150829463Y-123952918D01*
X151097252Y-123773987D01*
X151324987Y-123546252D01*
X151503918Y-123278463D01*
X151627168Y-122980912D01*
X151690000Y-122665033D01*
X151690000Y-122342967D01*
X153350000Y-122342967D01*
X153350000Y-122665033D01*
X153412832Y-122980912D01*
X153536082Y-123278463D01*
X153715013Y-123546252D01*
X153942748Y-123773987D01*
X154210537Y-123952918D01*
X154508088Y-124076168D01*
X154823967Y-124139000D01*
X155146033Y-124139000D01*
X155461912Y-124076168D01*
X155759463Y-123952918D01*
X156027252Y-123773987D01*
X156254987Y-123546252D01*
X156399816Y-123329500D01*
X160070184Y-123329500D01*
X160215013Y-123546252D01*
X160442748Y-123773987D01*
X160710537Y-123952918D01*
X161008088Y-124076168D01*
X161323967Y-124139000D01*
X161646033Y-124139000D01*
X161961912Y-124076168D01*
X162259463Y-123952918D01*
X162527252Y-123773987D01*
X162754987Y-123546252D01*
X162933918Y-123278463D01*
X163057168Y-122980912D01*
X163120000Y-122665033D01*
X163120000Y-122342967D01*
X164780000Y-122342967D01*
X164780000Y-122665033D01*
X164842832Y-122980912D01*
X164966082Y-123278463D01*
X165145013Y-123546252D01*
X165372748Y-123773987D01*
X165640537Y-123952918D01*
X165938088Y-124076168D01*
X166253967Y-124139000D01*
X166576033Y-124139000D01*
X166891912Y-124076168D01*
X167189463Y-123952918D01*
X167457252Y-123773987D01*
X167684987Y-123546252D01*
X167829816Y-123329500D01*
X171500184Y-123329500D01*
X171645013Y-123546252D01*
X171872748Y-123773987D01*
X172140537Y-123952918D01*
X172438088Y-124076168D01*
X172753967Y-124139000D01*
X173076033Y-124139000D01*
X173391912Y-124076168D01*
X173689463Y-123952918D01*
X173957252Y-123773987D01*
X174184987Y-123546252D01*
X174363918Y-123278463D01*
X174487168Y-122980912D01*
X174550000Y-122665033D01*
X174550000Y-122342967D01*
X174487168Y-122027088D01*
X174363918Y-121729537D01*
X174184987Y-121461748D01*
X173957252Y-121234013D01*
X173689463Y-121055082D01*
X173391912Y-120931832D01*
X173076033Y-120869000D01*
X172753967Y-120869000D01*
X172438088Y-120931832D01*
X172140537Y-121055082D01*
X171872748Y-121234013D01*
X171645013Y-121461748D01*
X171500184Y-121678500D01*
X167829816Y-121678500D01*
X167684987Y-121461748D01*
X167457252Y-121234013D01*
X167189463Y-121055082D01*
X166891912Y-120931832D01*
X166576033Y-120869000D01*
X166253967Y-120869000D01*
X165938088Y-120931832D01*
X165640537Y-121055082D01*
X165372748Y-121234013D01*
X165145013Y-121461748D01*
X164966082Y-121729537D01*
X164842832Y-122027088D01*
X164780000Y-122342967D01*
X163120000Y-122342967D01*
X163057168Y-122027088D01*
X162933918Y-121729537D01*
X162754987Y-121461748D01*
X162527252Y-121234013D01*
X162259463Y-121055082D01*
X161961912Y-120931832D01*
X161646033Y-120869000D01*
X161323967Y-120869000D01*
X161008088Y-120931832D01*
X160710537Y-121055082D01*
X160442748Y-121234013D01*
X160215013Y-121461748D01*
X160070184Y-121678500D01*
X156399816Y-121678500D01*
X156254987Y-121461748D01*
X156027252Y-121234013D01*
X155759463Y-121055082D01*
X155461912Y-120931832D01*
X155146033Y-120869000D01*
X154823967Y-120869000D01*
X154508088Y-120931832D01*
X154210537Y-121055082D01*
X153942748Y-121234013D01*
X153715013Y-121461748D01*
X153536082Y-121729537D01*
X153412832Y-122027088D01*
X153350000Y-122342967D01*
X151690000Y-122342967D01*
X151627168Y-122027088D01*
X151503918Y-121729537D01*
X151324987Y-121461748D01*
X151097252Y-121234013D01*
X150829463Y-121055082D01*
X150531912Y-120931832D01*
X150216033Y-120869000D01*
X149893967Y-120869000D01*
X149578088Y-120931832D01*
X149280537Y-121055082D01*
X149012748Y-121234013D01*
X148785013Y-121461748D01*
X148640184Y-121678500D01*
X144969816Y-121678500D01*
X144824987Y-121461748D01*
X144597252Y-121234013D01*
X144329463Y-121055082D01*
X144031912Y-120931832D01*
X143716033Y-120869000D01*
X143393967Y-120869000D01*
X143078088Y-120931832D01*
X142780537Y-121055082D01*
X142512748Y-121234013D01*
X142285013Y-121461748D01*
X142106082Y-121729537D01*
X141982832Y-122027088D01*
X141920000Y-122342967D01*
X140260000Y-122342967D01*
X140197168Y-122027088D01*
X140073918Y-121729537D01*
X139894987Y-121461748D01*
X139667252Y-121234013D01*
X139399463Y-121055082D01*
X139101912Y-120931832D01*
X138786033Y-120869000D01*
X138463967Y-120869000D01*
X138148088Y-120931832D01*
X137850537Y-121055082D01*
X137582748Y-121234013D01*
X137355013Y-121461748D01*
X137210184Y-121678500D01*
X133539816Y-121678500D01*
X133394987Y-121461748D01*
X133167252Y-121234013D01*
X132899463Y-121055082D01*
X132601912Y-120931832D01*
X132286033Y-120869000D01*
X131963967Y-120869000D01*
X131648088Y-120931832D01*
X131350537Y-121055082D01*
X131082748Y-121234013D01*
X130855013Y-121461748D01*
X130676082Y-121729537D01*
X130552832Y-122027088D01*
X130490000Y-122342967D01*
X128830000Y-122342967D01*
X128767168Y-122027088D01*
X128643918Y-121729537D01*
X128464987Y-121461748D01*
X128237252Y-121234013D01*
X127969463Y-121055082D01*
X127671912Y-120931832D01*
X127356033Y-120869000D01*
X127033967Y-120869000D01*
X126718088Y-120931832D01*
X126420537Y-121055082D01*
X126152748Y-121234013D01*
X125925013Y-121461748D01*
X125780184Y-121678500D01*
X122109816Y-121678500D01*
X121964987Y-121461748D01*
X121737252Y-121234013D01*
X121469463Y-121055082D01*
X121171912Y-120931832D01*
X120856033Y-120869000D01*
X120533967Y-120869000D01*
X120218088Y-120931832D01*
X119920537Y-121055082D01*
X119652748Y-121234013D01*
X119425013Y-121461748D01*
X119246082Y-121729537D01*
X119122832Y-122027088D01*
X119060000Y-122342967D01*
X117400000Y-122342967D01*
X117337168Y-122027088D01*
X117213918Y-121729537D01*
X117034987Y-121461748D01*
X116807252Y-121234013D01*
X116539463Y-121055082D01*
X116241912Y-120931832D01*
X115926033Y-120869000D01*
X115603967Y-120869000D01*
X115288088Y-120931832D01*
X114990537Y-121055082D01*
X114722748Y-121234013D01*
X114495013Y-121461748D01*
X114316082Y-121729537D01*
X114192832Y-122027088D01*
X114130000Y-122342967D01*
X110900000Y-122342967D01*
X110837168Y-122027088D01*
X110713918Y-121729537D01*
X110534987Y-121461748D01*
X110307252Y-121234013D01*
X110039463Y-121055082D01*
X109741912Y-120931832D01*
X109426033Y-120869000D01*
X109103967Y-120869000D01*
X108788088Y-120931832D01*
X108490537Y-121055082D01*
X108222748Y-121234013D01*
X107995013Y-121461748D01*
X107816082Y-121729537D01*
X107692832Y-122027088D01*
X107630000Y-122342967D01*
X101353072Y-122342967D01*
X101353072Y-121949000D01*
X101340812Y-121824518D01*
X101304502Y-121704820D01*
X101245537Y-121594506D01*
X101166185Y-121497815D01*
X101069494Y-121418463D01*
X100959180Y-121359498D01*
X100940873Y-121353944D01*
X101007312Y-121287505D01*
X101175299Y-121036095D01*
X101291011Y-120756743D01*
X101350000Y-120460184D01*
X101350000Y-120157816D01*
X101291011Y-119861257D01*
X101175299Y-119581905D01*
X101007312Y-119330495D01*
X100793505Y-119116688D01*
X100542095Y-118948701D01*
X100262743Y-118832989D01*
X99966184Y-118774000D01*
X99663816Y-118774000D01*
X99367257Y-118832989D01*
X99087905Y-118948701D01*
X98836495Y-119116688D01*
X98622688Y-119330495D01*
X98454701Y-119581905D01*
X98338989Y-119861257D01*
X98280000Y-120157816D01*
X98280000Y-120460184D01*
X98338989Y-120756743D01*
X98454701Y-121036095D01*
X98622688Y-121287505D01*
X98689127Y-121353944D01*
X98670820Y-121359498D01*
X98560506Y-121418463D01*
X98463815Y-121497815D01*
X98384463Y-121594506D01*
X98325498Y-121704820D01*
X98289188Y-121824518D01*
X98276928Y-121949000D01*
X91750000Y-121949000D01*
X91750000Y-117618609D01*
X98324997Y-117618609D01*
X98511073Y-117959766D01*
X98928409Y-118175513D01*
X99379815Y-118305696D01*
X99847946Y-118345313D01*
X100314811Y-118292842D01*
X100762468Y-118150297D01*
X101118927Y-117959766D01*
X101305003Y-117618609D01*
X101190395Y-117504000D01*
X110976928Y-117504000D01*
X110976928Y-119304000D01*
X110989188Y-119428482D01*
X111025498Y-119548180D01*
X111084463Y-119658494D01*
X111163815Y-119755185D01*
X111260506Y-119834537D01*
X111370820Y-119893502D01*
X111490518Y-119929812D01*
X111615000Y-119942072D01*
X113415000Y-119942072D01*
X113539482Y-119929812D01*
X113659180Y-119893502D01*
X113769494Y-119834537D01*
X113866185Y-119755185D01*
X113945537Y-119658494D01*
X114004502Y-119548180D01*
X114040812Y-119428482D01*
X114053072Y-119304000D01*
X114053072Y-117504000D01*
X122406928Y-117504000D01*
X122406928Y-119304000D01*
X122419188Y-119428482D01*
X122455498Y-119548180D01*
X122514463Y-119658494D01*
X122593815Y-119755185D01*
X122690506Y-119834537D01*
X122800820Y-119893502D01*
X122920518Y-119929812D01*
X123045000Y-119942072D01*
X124845000Y-119942072D01*
X124969482Y-119929812D01*
X125089180Y-119893502D01*
X125199494Y-119834537D01*
X125296185Y-119755185D01*
X125375537Y-119658494D01*
X125434502Y-119548180D01*
X125470812Y-119428482D01*
X125483072Y-119304000D01*
X125483072Y-117504000D01*
X133836928Y-117504000D01*
X133836928Y-119304000D01*
X133849188Y-119428482D01*
X133885498Y-119548180D01*
X133944463Y-119658494D01*
X134023815Y-119755185D01*
X134120506Y-119834537D01*
X134230820Y-119893502D01*
X134350518Y-119929812D01*
X134475000Y-119942072D01*
X136275000Y-119942072D01*
X136399482Y-119929812D01*
X136519180Y-119893502D01*
X136629494Y-119834537D01*
X136726185Y-119755185D01*
X136805537Y-119658494D01*
X136864502Y-119548180D01*
X136900812Y-119428482D01*
X136913072Y-119304000D01*
X136913072Y-117504000D01*
X145266928Y-117504000D01*
X145266928Y-119304000D01*
X145279188Y-119428482D01*
X145315498Y-119548180D01*
X145374463Y-119658494D01*
X145453815Y-119755185D01*
X145550506Y-119834537D01*
X145660820Y-119893502D01*
X145780518Y-119929812D01*
X145905000Y-119942072D01*
X147705000Y-119942072D01*
X147829482Y-119929812D01*
X147949180Y-119893502D01*
X148059494Y-119834537D01*
X148156185Y-119755185D01*
X148235537Y-119658494D01*
X148294502Y-119548180D01*
X148330812Y-119428482D01*
X148343072Y-119304000D01*
X148343072Y-117504000D01*
X156696928Y-117504000D01*
X156696928Y-119304000D01*
X156709188Y-119428482D01*
X156745498Y-119548180D01*
X156804463Y-119658494D01*
X156883815Y-119755185D01*
X156980506Y-119834537D01*
X157090820Y-119893502D01*
X157210518Y-119929812D01*
X157335000Y-119942072D01*
X159135000Y-119942072D01*
X159259482Y-119929812D01*
X159379180Y-119893502D01*
X159489494Y-119834537D01*
X159586185Y-119755185D01*
X159665537Y-119658494D01*
X159724502Y-119548180D01*
X159760812Y-119428482D01*
X159773072Y-119304000D01*
X159773072Y-117504000D01*
X168126928Y-117504000D01*
X168126928Y-119304000D01*
X168139188Y-119428482D01*
X168175498Y-119548180D01*
X168234463Y-119658494D01*
X168313815Y-119755185D01*
X168410506Y-119834537D01*
X168520820Y-119893502D01*
X168640518Y-119929812D01*
X168765000Y-119942072D01*
X170565000Y-119942072D01*
X170689482Y-119929812D01*
X170809180Y-119893502D01*
X170919494Y-119834537D01*
X171016185Y-119755185D01*
X171095537Y-119658494D01*
X171154502Y-119548180D01*
X171190812Y-119428482D01*
X171203072Y-119304000D01*
X171203072Y-117618609D01*
X180874997Y-117618609D01*
X181061073Y-117959766D01*
X181478409Y-118175513D01*
X181929815Y-118305696D01*
X182397946Y-118345313D01*
X182864811Y-118292842D01*
X183312468Y-118150297D01*
X183668927Y-117959766D01*
X183855003Y-117618609D01*
X182365000Y-116128605D01*
X180874997Y-117618609D01*
X171203072Y-117618609D01*
X171203072Y-117504000D01*
X171190812Y-117379518D01*
X171154502Y-117259820D01*
X171095537Y-117149506D01*
X171016185Y-117052815D01*
X170919494Y-116973463D01*
X170809180Y-116914498D01*
X170790873Y-116908944D01*
X170857312Y-116842505D01*
X171025299Y-116591095D01*
X171141011Y-116311743D01*
X171200000Y-116015184D01*
X171200000Y-115981946D01*
X179968687Y-115981946D01*
X180021158Y-116448811D01*
X180163703Y-116896468D01*
X180354234Y-117252927D01*
X180695391Y-117439003D01*
X182185395Y-115949000D01*
X182544605Y-115949000D01*
X184034609Y-117439003D01*
X184375766Y-117252927D01*
X184591513Y-116835591D01*
X184721696Y-116384185D01*
X184761313Y-115916054D01*
X184708842Y-115449189D01*
X184566297Y-115001532D01*
X184375766Y-114645073D01*
X184034609Y-114458997D01*
X182544605Y-115949000D01*
X182185395Y-115949000D01*
X180695391Y-114458997D01*
X180354234Y-114645073D01*
X180138487Y-115062409D01*
X180008304Y-115513815D01*
X179968687Y-115981946D01*
X171200000Y-115981946D01*
X171200000Y-115712816D01*
X171141011Y-115416257D01*
X171025299Y-115136905D01*
X170857312Y-114885495D01*
X170643505Y-114671688D01*
X170392095Y-114503701D01*
X170112743Y-114387989D01*
X169816184Y-114329000D01*
X169513816Y-114329000D01*
X169217257Y-114387989D01*
X168937905Y-114503701D01*
X168686495Y-114671688D01*
X168472688Y-114885495D01*
X168304701Y-115136905D01*
X168188989Y-115416257D01*
X168130000Y-115712816D01*
X168130000Y-116015184D01*
X168188989Y-116311743D01*
X168304701Y-116591095D01*
X168472688Y-116842505D01*
X168539127Y-116908944D01*
X168520820Y-116914498D01*
X168410506Y-116973463D01*
X168313815Y-117052815D01*
X168234463Y-117149506D01*
X168175498Y-117259820D01*
X168139188Y-117379518D01*
X168126928Y-117504000D01*
X159773072Y-117504000D01*
X159760812Y-117379518D01*
X159724502Y-117259820D01*
X159665537Y-117149506D01*
X159586185Y-117052815D01*
X159489494Y-116973463D01*
X159379180Y-116914498D01*
X159360873Y-116908944D01*
X159427312Y-116842505D01*
X159595299Y-116591095D01*
X159711011Y-116311743D01*
X159770000Y-116015184D01*
X159770000Y-115712816D01*
X159711011Y-115416257D01*
X159595299Y-115136905D01*
X159427312Y-114885495D01*
X159213505Y-114671688D01*
X158962095Y-114503701D01*
X158682743Y-114387989D01*
X158386184Y-114329000D01*
X158083816Y-114329000D01*
X157787257Y-114387989D01*
X157507905Y-114503701D01*
X157256495Y-114671688D01*
X157042688Y-114885495D01*
X156874701Y-115136905D01*
X156758989Y-115416257D01*
X156700000Y-115712816D01*
X156700000Y-116015184D01*
X156758989Y-116311743D01*
X156874701Y-116591095D01*
X157042688Y-116842505D01*
X157109127Y-116908944D01*
X157090820Y-116914498D01*
X156980506Y-116973463D01*
X156883815Y-117052815D01*
X156804463Y-117149506D01*
X156745498Y-117259820D01*
X156709188Y-117379518D01*
X156696928Y-117504000D01*
X148343072Y-117504000D01*
X148330812Y-117379518D01*
X148294502Y-117259820D01*
X148235537Y-117149506D01*
X148156185Y-117052815D01*
X148059494Y-116973463D01*
X147949180Y-116914498D01*
X147930873Y-116908944D01*
X147997312Y-116842505D01*
X148165299Y-116591095D01*
X148281011Y-116311743D01*
X148340000Y-116015184D01*
X148340000Y-115712816D01*
X148281011Y-115416257D01*
X148165299Y-115136905D01*
X147997312Y-114885495D01*
X147783505Y-114671688D01*
X147532095Y-114503701D01*
X147252743Y-114387989D01*
X146956184Y-114329000D01*
X146653816Y-114329000D01*
X146357257Y-114387989D01*
X146077905Y-114503701D01*
X145826495Y-114671688D01*
X145612688Y-114885495D01*
X145444701Y-115136905D01*
X145328989Y-115416257D01*
X145270000Y-115712816D01*
X145270000Y-116015184D01*
X145328989Y-116311743D01*
X145444701Y-116591095D01*
X145612688Y-116842505D01*
X145679127Y-116908944D01*
X145660820Y-116914498D01*
X145550506Y-116973463D01*
X145453815Y-117052815D01*
X145374463Y-117149506D01*
X145315498Y-117259820D01*
X145279188Y-117379518D01*
X145266928Y-117504000D01*
X136913072Y-117504000D01*
X136900812Y-117379518D01*
X136864502Y-117259820D01*
X136805537Y-117149506D01*
X136726185Y-117052815D01*
X136629494Y-116973463D01*
X136519180Y-116914498D01*
X136500873Y-116908944D01*
X136567312Y-116842505D01*
X136735299Y-116591095D01*
X136851011Y-116311743D01*
X136910000Y-116015184D01*
X136910000Y-115712816D01*
X136851011Y-115416257D01*
X136735299Y-115136905D01*
X136567312Y-114885495D01*
X136353505Y-114671688D01*
X136102095Y-114503701D01*
X135822743Y-114387989D01*
X135526184Y-114329000D01*
X135223816Y-114329000D01*
X134927257Y-114387989D01*
X134647905Y-114503701D01*
X134396495Y-114671688D01*
X134182688Y-114885495D01*
X134014701Y-115136905D01*
X133898989Y-115416257D01*
X133840000Y-115712816D01*
X133840000Y-116015184D01*
X133898989Y-116311743D01*
X134014701Y-116591095D01*
X134182688Y-116842505D01*
X134249127Y-116908944D01*
X134230820Y-116914498D01*
X134120506Y-116973463D01*
X134023815Y-117052815D01*
X133944463Y-117149506D01*
X133885498Y-117259820D01*
X133849188Y-117379518D01*
X133836928Y-117504000D01*
X125483072Y-117504000D01*
X125470812Y-117379518D01*
X125434502Y-117259820D01*
X125375537Y-117149506D01*
X125296185Y-117052815D01*
X125199494Y-116973463D01*
X125089180Y-116914498D01*
X125070873Y-116908944D01*
X125137312Y-116842505D01*
X125305299Y-116591095D01*
X125421011Y-116311743D01*
X125480000Y-116015184D01*
X125480000Y-115712816D01*
X125421011Y-115416257D01*
X125305299Y-115136905D01*
X125137312Y-114885495D01*
X124923505Y-114671688D01*
X124672095Y-114503701D01*
X124392743Y-114387989D01*
X124096184Y-114329000D01*
X123793816Y-114329000D01*
X123497257Y-114387989D01*
X123217905Y-114503701D01*
X122966495Y-114671688D01*
X122752688Y-114885495D01*
X122584701Y-115136905D01*
X122468989Y-115416257D01*
X122410000Y-115712816D01*
X122410000Y-116015184D01*
X122468989Y-116311743D01*
X122584701Y-116591095D01*
X122752688Y-116842505D01*
X122819127Y-116908944D01*
X122800820Y-116914498D01*
X122690506Y-116973463D01*
X122593815Y-117052815D01*
X122514463Y-117149506D01*
X122455498Y-117259820D01*
X122419188Y-117379518D01*
X122406928Y-117504000D01*
X114053072Y-117504000D01*
X114040812Y-117379518D01*
X114004502Y-117259820D01*
X113945537Y-117149506D01*
X113866185Y-117052815D01*
X113769494Y-116973463D01*
X113659180Y-116914498D01*
X113640873Y-116908944D01*
X113707312Y-116842505D01*
X113875299Y-116591095D01*
X113991011Y-116311743D01*
X114050000Y-116015184D01*
X114050000Y-115712816D01*
X113991011Y-115416257D01*
X113875299Y-115136905D01*
X113707312Y-114885495D01*
X113493505Y-114671688D01*
X113242095Y-114503701D01*
X112962743Y-114387989D01*
X112666184Y-114329000D01*
X112363816Y-114329000D01*
X112067257Y-114387989D01*
X111787905Y-114503701D01*
X111536495Y-114671688D01*
X111322688Y-114885495D01*
X111154701Y-115136905D01*
X111038989Y-115416257D01*
X110980000Y-115712816D01*
X110980000Y-116015184D01*
X111038989Y-116311743D01*
X111154701Y-116591095D01*
X111322688Y-116842505D01*
X111389127Y-116908944D01*
X111370820Y-116914498D01*
X111260506Y-116973463D01*
X111163815Y-117052815D01*
X111084463Y-117149506D01*
X111025498Y-117259820D01*
X110989188Y-117379518D01*
X110976928Y-117504000D01*
X101190395Y-117504000D01*
X99815000Y-116128605D01*
X98324997Y-117618609D01*
X91750000Y-117618609D01*
X91750000Y-115981946D01*
X97418687Y-115981946D01*
X97471158Y-116448811D01*
X97613703Y-116896468D01*
X97804234Y-117252927D01*
X98145391Y-117439003D01*
X99635395Y-115949000D01*
X99994605Y-115949000D01*
X101484609Y-117439003D01*
X101825766Y-117252927D01*
X102041513Y-116835591D01*
X102171696Y-116384185D01*
X102211313Y-115916054D01*
X102158842Y-115449189D01*
X102016297Y-115001532D01*
X101825766Y-114645073D01*
X101484609Y-114458997D01*
X99994605Y-115949000D01*
X99635395Y-115949000D01*
X98145391Y-114458997D01*
X97804234Y-114645073D01*
X97588487Y-115062409D01*
X97458304Y-115513815D01*
X97418687Y-115981946D01*
X91750000Y-115981946D01*
X91750000Y-114279391D01*
X98324997Y-114279391D01*
X99815000Y-115769395D01*
X101305003Y-114279391D01*
X180874997Y-114279391D01*
X182365000Y-115769395D01*
X183855003Y-114279391D01*
X183668927Y-113938234D01*
X183251591Y-113722487D01*
X182800185Y-113592304D01*
X182332054Y-113552687D01*
X181865189Y-113605158D01*
X181417532Y-113747703D01*
X181061073Y-113938234D01*
X180874997Y-114279391D01*
X101305003Y-114279391D01*
X101118927Y-113938234D01*
X100701591Y-113722487D01*
X100250185Y-113592304D01*
X99782054Y-113552687D01*
X99315189Y-113605158D01*
X98867532Y-113747703D01*
X98511073Y-113938234D01*
X98324997Y-114279391D01*
X91750000Y-114279391D01*
X91750000Y-113434000D01*
X113117581Y-113434000D01*
X113150000Y-113437193D01*
X113182419Y-113434000D01*
X113279383Y-113424450D01*
X113403793Y-113386710D01*
X113518450Y-113325425D01*
X113618948Y-113242948D01*
X113701425Y-113142450D01*
X113762710Y-113027793D01*
X113800450Y-112903383D01*
X113813193Y-112774000D01*
X113810000Y-112741581D01*
X113810000Y-111634000D01*
X117570001Y-111634000D01*
X117570000Y-112741580D01*
G04 #@! TA.AperFunction,Conductor*
D20*
G36*
X117570000Y-112741580D02*
G01*
X117566807Y-112774000D01*
X117579550Y-112903383D01*
X117617290Y-113027793D01*
X117678575Y-113142450D01*
X117761052Y-113242948D01*
X117861550Y-113325425D01*
X117976207Y-113386710D01*
X118100617Y-113424450D01*
X118230000Y-113437193D01*
X118262419Y-113434000D01*
X163917581Y-113434000D01*
X163950000Y-113437193D01*
X163982419Y-113434000D01*
X164079383Y-113424450D01*
X164203793Y-113386710D01*
X164318450Y-113325425D01*
X164418948Y-113242948D01*
X164501425Y-113142450D01*
X164562710Y-113027793D01*
X164600450Y-112903383D01*
X164613193Y-112774000D01*
X164610000Y-112741581D01*
X164610000Y-111634000D01*
X168370001Y-111634000D01*
X168370000Y-112741580D01*
X168366807Y-112774000D01*
X168379550Y-112903383D01*
X168417290Y-113027793D01*
X168478575Y-113142450D01*
X168561052Y-113242948D01*
X168661550Y-113325425D01*
X168776207Y-113386710D01*
X168900617Y-113424450D01*
X169030000Y-113437193D01*
X169062419Y-113434000D01*
X190430001Y-113434000D01*
X190430000Y-131714000D01*
X169062419Y-131714000D01*
X169030000Y-131710807D01*
X168997581Y-131714000D01*
X168900617Y-131723550D01*
X168776207Y-131761290D01*
X168661550Y-131822575D01*
X168561052Y-131905052D01*
X168478575Y-132005550D01*
X168417290Y-132120207D01*
X168379550Y-132244617D01*
X168366807Y-132374000D01*
X168370000Y-132406418D01*
X168370001Y-133514000D01*
X164610000Y-133514000D01*
X164610000Y-132406418D01*
X164613193Y-132374000D01*
X164600450Y-132244617D01*
X164571957Y-132150688D01*
X164716920Y-132081641D01*
X164950269Y-131907588D01*
X165145178Y-131691355D01*
X165214805Y-131574466D01*
X165336525Y-131756632D01*
X165543368Y-131963475D01*
X165786589Y-132125990D01*
X166056842Y-132237932D01*
X166343740Y-132295000D01*
X166636260Y-132295000D01*
X166923158Y-132237932D01*
X167193411Y-132125990D01*
X167436632Y-131963475D01*
X167643475Y-131756632D01*
X167805990Y-131513411D01*
X167917932Y-131243158D01*
X167975000Y-130956260D01*
X167975000Y-130868609D01*
X180874997Y-130868609D01*
X181061073Y-131209766D01*
X181478409Y-131425513D01*
X181929815Y-131555696D01*
X182397946Y-131595313D01*
X182864811Y-131542842D01*
X183312468Y-131400297D01*
X183668927Y-131209766D01*
X183855003Y-130868609D01*
X182365000Y-129378605D01*
X180874997Y-130868609D01*
X167975000Y-130868609D01*
X167975000Y-130663740D01*
X167917932Y-130376842D01*
X167805990Y-130106589D01*
X167643475Y-129863368D01*
X167436632Y-129656525D01*
X167193411Y-129494010D01*
X166923158Y-129382068D01*
X166636260Y-129325000D01*
X166343740Y-129325000D01*
X166056842Y-129382068D01*
X165786589Y-129494010D01*
X165543368Y-129656525D01*
X165336525Y-129863368D01*
X165214805Y-130045534D01*
X165145178Y-129928645D01*
X164950269Y-129712412D01*
X164716920Y-129538359D01*
X164454099Y-129413175D01*
X164306890Y-129368524D01*
X164077000Y-129489845D01*
X164077000Y-130683000D01*
X164097000Y-130683000D01*
X164097000Y-130937000D01*
X164077000Y-130937000D01*
X164077000Y-130957000D01*
X163823000Y-130957000D01*
X163823000Y-130937000D01*
X163803000Y-130937000D01*
X163803000Y-130683000D01*
X163823000Y-130683000D01*
X163823000Y-129489845D01*
X163593110Y-129368524D01*
X163445901Y-129413175D01*
X163183080Y-129538359D01*
X162949731Y-129712412D01*
X162754822Y-129928645D01*
X162685195Y-130045534D01*
X162563475Y-129863368D01*
X162356632Y-129656525D01*
X162113411Y-129494010D01*
X161843158Y-129382068D01*
X161556260Y-129325000D01*
X161263740Y-129325000D01*
X161175000Y-129342652D01*
X161175000Y-129231946D01*
X179968687Y-129231946D01*
X180021158Y-129698811D01*
X180163703Y-130146468D01*
X180354234Y-130502927D01*
X180695391Y-130689003D01*
X182185395Y-129199000D01*
X182544605Y-129199000D01*
X184034609Y-130689003D01*
X184375766Y-130502927D01*
X184591513Y-130085591D01*
X184721696Y-129634185D01*
X184761313Y-129166054D01*
X184708842Y-128699189D01*
X184566297Y-128251532D01*
X184375766Y-127895073D01*
X184034609Y-127708997D01*
X182544605Y-129199000D01*
X182185395Y-129199000D01*
X180695391Y-127708997D01*
X180354234Y-127895073D01*
X180138487Y-128312409D01*
X180008304Y-128763815D01*
X179968687Y-129231946D01*
X161175000Y-129231946D01*
X161175000Y-129187061D01*
X161135226Y-128987102D01*
X161057205Y-128798744D01*
X160943937Y-128629226D01*
X160807999Y-128493288D01*
X161008088Y-128576168D01*
X161323967Y-128639000D01*
X161646033Y-128639000D01*
X161961912Y-128576168D01*
X162259463Y-128452918D01*
X162527252Y-128273987D01*
X162754987Y-128046252D01*
X162933918Y-127778463D01*
X163057168Y-127480912D01*
X163120000Y-127165033D01*
X163120000Y-126842967D01*
X164780000Y-126842967D01*
X164780000Y-127165033D01*
X164842832Y-127480912D01*
X164966082Y-127778463D01*
X165145013Y-128046252D01*
X165372748Y-128273987D01*
X165640537Y-128452918D01*
X165938088Y-128576168D01*
X166253967Y-128639000D01*
X166576033Y-128639000D01*
X166891912Y-128576168D01*
X167189463Y-128452918D01*
X167457252Y-128273987D01*
X167684987Y-128046252D01*
X167863918Y-127778463D01*
X167869909Y-127764000D01*
X171460091Y-127764000D01*
X171466082Y-127778463D01*
X171645013Y-128046252D01*
X171872748Y-128273987D01*
X172140537Y-128452918D01*
X172438088Y-128576168D01*
X172753967Y-128639000D01*
X173076033Y-128639000D01*
X173391912Y-128576168D01*
X173689463Y-128452918D01*
X173957252Y-128273987D01*
X174184987Y-128046252D01*
X174363918Y-127778463D01*
X174467087Y-127529391D01*
X180874997Y-127529391D01*
X182365000Y-129019395D01*
X183855003Y-127529391D01*
X183668927Y-127188234D01*
X183251591Y-126972487D01*
X182800185Y-126842304D01*
X182332054Y-126802687D01*
X181865189Y-126855158D01*
X181417532Y-126997703D01*
X181061073Y-127188234D01*
X180874997Y-127529391D01*
X174467087Y-127529391D01*
X174487168Y-127480912D01*
X174550000Y-127165033D01*
X174550000Y-126842967D01*
X174487168Y-126527088D01*
X174363918Y-126229537D01*
X174184987Y-125961748D01*
X173957252Y-125734013D01*
X173689463Y-125555082D01*
X173391912Y-125431832D01*
X173076033Y-125369000D01*
X172753967Y-125369000D01*
X172438088Y-125431832D01*
X172140537Y-125555082D01*
X171872748Y-125734013D01*
X171645013Y-125961748D01*
X171466082Y-126229537D01*
X171460091Y-126244000D01*
X167869909Y-126244000D01*
X167863918Y-126229537D01*
X167684987Y-125961748D01*
X167457252Y-125734013D01*
X167189463Y-125555082D01*
X166891912Y-125431832D01*
X166576033Y-125369000D01*
X166253967Y-125369000D01*
X165938088Y-125431832D01*
X165640537Y-125555082D01*
X165372748Y-125734013D01*
X165145013Y-125961748D01*
X164966082Y-126229537D01*
X164842832Y-126527088D01*
X164780000Y-126842967D01*
X163120000Y-126842967D01*
X163057168Y-126527088D01*
X162933918Y-126229537D01*
X162754987Y-125961748D01*
X162527252Y-125734013D01*
X162259463Y-125555082D01*
X161961912Y-125431832D01*
X161646033Y-125369000D01*
X161323967Y-125369000D01*
X161008088Y-125431832D01*
X160710537Y-125555082D01*
X160442748Y-125734013D01*
X160215013Y-125961748D01*
X160036082Y-126229537D01*
X160030091Y-126244000D01*
X156439909Y-126244000D01*
X156433918Y-126229537D01*
X156254987Y-125961748D01*
X156027252Y-125734013D01*
X155759463Y-125555082D01*
X155461912Y-125431832D01*
X155146033Y-125369000D01*
X154823967Y-125369000D01*
X154508088Y-125431832D01*
X154210537Y-125555082D01*
X153942748Y-125734013D01*
X153715013Y-125961748D01*
X153536082Y-126229537D01*
X153412832Y-126527088D01*
X153350000Y-126842967D01*
X153350000Y-127165033D01*
X153412832Y-127480912D01*
X153536082Y-127778463D01*
X153553145Y-127804000D01*
X151486855Y-127804000D01*
X151503918Y-127778463D01*
X151627168Y-127480912D01*
X151690000Y-127165033D01*
X151690000Y-126842967D01*
X151627168Y-126527088D01*
X151503918Y-126229537D01*
X151324987Y-125961748D01*
X151097252Y-125734013D01*
X150829463Y-125555082D01*
X150531912Y-125431832D01*
X150216033Y-125369000D01*
X149893967Y-125369000D01*
X149578088Y-125431832D01*
X149280537Y-125555082D01*
X149012748Y-125734013D01*
X148785013Y-125961748D01*
X148606082Y-126229537D01*
X148600091Y-126244000D01*
X145009909Y-126244000D01*
X145003918Y-126229537D01*
X144824987Y-125961748D01*
X144597252Y-125734013D01*
X144329463Y-125555082D01*
X144031912Y-125431832D01*
X143716033Y-125369000D01*
X143393967Y-125369000D01*
X143078088Y-125431832D01*
X142780537Y-125555082D01*
X142512748Y-125734013D01*
X142285013Y-125961748D01*
X142106082Y-126229537D01*
X141982832Y-126527088D01*
X141920000Y-126842967D01*
X141920000Y-127165033D01*
X141982832Y-127480912D01*
X142106082Y-127778463D01*
X142285013Y-128046252D01*
X142512748Y-128273987D01*
X142780537Y-128452918D01*
X143078088Y-128576168D01*
X143393967Y-128639000D01*
X143716033Y-128639000D01*
X144031912Y-128576168D01*
X144329463Y-128452918D01*
X144597252Y-128273987D01*
X144824987Y-128046252D01*
X145003918Y-127778463D01*
X145009909Y-127764000D01*
X148600091Y-127764000D01*
X148606082Y-127778463D01*
X148785013Y-128046252D01*
X148785960Y-128047199D01*
X148781200Y-128052998D01*
X148198998Y-128635201D01*
X148170000Y-128658999D01*
X148146202Y-128687997D01*
X148146201Y-128687998D01*
X148075026Y-128774724D01*
X148004454Y-128906754D01*
X147980082Y-128987102D01*
X147960998Y-129050014D01*
X147955681Y-129104001D01*
X147946324Y-129199000D01*
X147950001Y-129236332D01*
X147950001Y-129531821D01*
X147763368Y-129656525D01*
X147556525Y-129863368D01*
X147440000Y-130037760D01*
X147323475Y-129863368D01*
X147116632Y-129656525D01*
X146873411Y-129494010D01*
X146603158Y-129382068D01*
X146316260Y-129325000D01*
X146023740Y-129325000D01*
X145736842Y-129382068D01*
X145466589Y-129494010D01*
X145223368Y-129656525D01*
X145016525Y-129863368D01*
X144900000Y-130037760D01*
X144783475Y-129863368D01*
X144576632Y-129656525D01*
X144333411Y-129494010D01*
X144063158Y-129382068D01*
X143776260Y-129325000D01*
X143483740Y-129325000D01*
X143196842Y-129382068D01*
X142926589Y-129494010D01*
X142683368Y-129656525D01*
X142476525Y-129863368D01*
X142360000Y-130037760D01*
X142243475Y-129863368D01*
X142036632Y-129656525D01*
X141793411Y-129494010D01*
X141523158Y-129382068D01*
X141236260Y-129325000D01*
X140943740Y-129325000D01*
X140656842Y-129382068D01*
X140386589Y-129494010D01*
X140143368Y-129656525D01*
X139936525Y-129863368D01*
X139820000Y-130037760D01*
X139703475Y-129863368D01*
X139496632Y-129656525D01*
X139253411Y-129494010D01*
X138983158Y-129382068D01*
X138696260Y-129325000D01*
X138403740Y-129325000D01*
X138116842Y-129382068D01*
X137846589Y-129494010D01*
X137603368Y-129656525D01*
X137396525Y-129863368D01*
X137280000Y-130037760D01*
X137163475Y-129863368D01*
X136956632Y-129656525D01*
X136713411Y-129494010D01*
X136443158Y-129382068D01*
X136156260Y-129325000D01*
X135863740Y-129325000D01*
X135576842Y-129382068D01*
X135306589Y-129494010D01*
X135063368Y-129656525D01*
X134856525Y-129863368D01*
X134740000Y-130037760D01*
X134623475Y-129863368D01*
X134416632Y-129656525D01*
X134173411Y-129494010D01*
X133903158Y-129382068D01*
X133616260Y-129325000D01*
X133323740Y-129325000D01*
X133036842Y-129382068D01*
X132766589Y-129494010D01*
X132523368Y-129656525D01*
X132316525Y-129863368D01*
X132200000Y-130037760D01*
X132083475Y-129863368D01*
X131876632Y-129656525D01*
X131633411Y-129494010D01*
X131363158Y-129382068D01*
X131076260Y-129325000D01*
X130783740Y-129325000D01*
X130496842Y-129382068D01*
X130226589Y-129494010D01*
X129983368Y-129656525D01*
X129776525Y-129863368D01*
X129660000Y-130037760D01*
X129543475Y-129863368D01*
X129336632Y-129656525D01*
X129093411Y-129494010D01*
X128823158Y-129382068D01*
X128536260Y-129325000D01*
X128243740Y-129325000D01*
X127956842Y-129382068D01*
X127686589Y-129494010D01*
X127443368Y-129656525D01*
X127236525Y-129863368D01*
X127120000Y-130037760D01*
X127003475Y-129863368D01*
X126796632Y-129656525D01*
X126553411Y-129494010D01*
X126283158Y-129382068D01*
X125996260Y-129325000D01*
X125703740Y-129325000D01*
X125416842Y-129382068D01*
X125146589Y-129494010D01*
X124903368Y-129656525D01*
X124696525Y-129863368D01*
X124580000Y-130037760D01*
X124463475Y-129863368D01*
X124256632Y-129656525D01*
X124013411Y-129494010D01*
X123743158Y-129382068D01*
X123456260Y-129325000D01*
X123163740Y-129325000D01*
X122876842Y-129382068D01*
X122606589Y-129494010D01*
X122363368Y-129656525D01*
X122156525Y-129863368D01*
X122040000Y-130037760D01*
X121923475Y-129863368D01*
X121716632Y-129656525D01*
X121473411Y-129494010D01*
X121203158Y-129382068D01*
X120916260Y-129325000D01*
X120623740Y-129325000D01*
X120336842Y-129382068D01*
X120066589Y-129494010D01*
X119823368Y-129656525D01*
X119616525Y-129863368D01*
X119494805Y-130045534D01*
X119425178Y-129928645D01*
X119230269Y-129712412D01*
X118996920Y-129538359D01*
X118734099Y-129413175D01*
X118586890Y-129368524D01*
X118357000Y-129489845D01*
X118357000Y-130683000D01*
X118377000Y-130683000D01*
X118377000Y-130937000D01*
X118357000Y-130937000D01*
X118357000Y-130957000D01*
X118103000Y-130957000D01*
X118103000Y-130937000D01*
X118083000Y-130937000D01*
X118083000Y-130683000D01*
X118103000Y-130683000D01*
X118103000Y-129489845D01*
X117873110Y-129368524D01*
X117725901Y-129413175D01*
X117463080Y-129538359D01*
X117229731Y-129712412D01*
X117153966Y-129796466D01*
X117129502Y-129715820D01*
X117070537Y-129605506D01*
X116991185Y-129508815D01*
X116894494Y-129429463D01*
X116784180Y-129370498D01*
X116664482Y-129334188D01*
X116540000Y-129321928D01*
X114840000Y-129321928D01*
X114715518Y-129334188D01*
X114595820Y-129370498D01*
X114485506Y-129429463D01*
X114388815Y-129508815D01*
X114309463Y-129605506D01*
X114250498Y-129715820D01*
X114214188Y-129835518D01*
X114201928Y-129960000D01*
X114201928Y-131660000D01*
X114214188Y-131784482D01*
X114250498Y-131904180D01*
X114309463Y-132014494D01*
X114388815Y-132111185D01*
X114485506Y-132190537D01*
X114595820Y-132249502D01*
X114715518Y-132285812D01*
X114840000Y-132298072D01*
X116540000Y-132298072D01*
X116664482Y-132285812D01*
X116784180Y-132249502D01*
X116894494Y-132190537D01*
X116991185Y-132111185D01*
X117070537Y-132014494D01*
X117129502Y-131904180D01*
X117153966Y-131823534D01*
X117229731Y-131907588D01*
X117463080Y-132081641D01*
X117608043Y-132150688D01*
X117579550Y-132244617D01*
X117566807Y-132374000D01*
X117570000Y-132406418D01*
X117570001Y-133514000D01*
X113810000Y-133514000D01*
X113810000Y-132406418D01*
X113813193Y-132374000D01*
X113800450Y-132244617D01*
X113762710Y-132120207D01*
X113701425Y-132005550D01*
X113618948Y-131905052D01*
X113518450Y-131822575D01*
X113403793Y-131761290D01*
X113279383Y-131723550D01*
X113182419Y-131714000D01*
X113150000Y-131710807D01*
X113117581Y-131714000D01*
X91750000Y-131714000D01*
X91750000Y-130868609D01*
X98324997Y-130868609D01*
X98511073Y-131209766D01*
X98928409Y-131425513D01*
X99379815Y-131555696D01*
X99847946Y-131595313D01*
X100314811Y-131542842D01*
X100762468Y-131400297D01*
X101118927Y-131209766D01*
X101305003Y-130868609D01*
X99815000Y-129378605D01*
X98324997Y-130868609D01*
X91750000Y-130868609D01*
X91750000Y-129231946D01*
X97418687Y-129231946D01*
X97471158Y-129698811D01*
X97613703Y-130146468D01*
X97804234Y-130502927D01*
X98145391Y-130689003D01*
X99635395Y-129199000D01*
X99994605Y-129199000D01*
X101484609Y-130689003D01*
X101825766Y-130502927D01*
X102041513Y-130085591D01*
X102171696Y-129634185D01*
X102211313Y-129166054D01*
X102158842Y-128699189D01*
X102016297Y-128251532D01*
X101825766Y-127895073D01*
X101484609Y-127708997D01*
X99994605Y-129199000D01*
X99635395Y-129199000D01*
X98145391Y-127708997D01*
X97804234Y-127895073D01*
X97588487Y-128312409D01*
X97458304Y-128763815D01*
X97418687Y-129231946D01*
X91750000Y-129231946D01*
X91750000Y-127529391D01*
X98324997Y-127529391D01*
X99815000Y-129019395D01*
X101305003Y-127529391D01*
X101118927Y-127188234D01*
X100701591Y-126972487D01*
X100252484Y-126842967D01*
X107630000Y-126842967D01*
X107630000Y-127165033D01*
X107692832Y-127480912D01*
X107816082Y-127778463D01*
X107995013Y-128046252D01*
X108222748Y-128273987D01*
X108490537Y-128452918D01*
X108788088Y-128576168D01*
X109103967Y-128639000D01*
X109426033Y-128639000D01*
X109741912Y-128576168D01*
X110039463Y-128452918D01*
X110307252Y-128273987D01*
X110534987Y-128046252D01*
X110713918Y-127778463D01*
X110837168Y-127480912D01*
X110900000Y-127165033D01*
X110900000Y-126842967D01*
X114130000Y-126842967D01*
X114130000Y-127165033D01*
X114192832Y-127480912D01*
X114316082Y-127778463D01*
X114495013Y-128046252D01*
X114722748Y-128273987D01*
X114990537Y-128452918D01*
X115288088Y-128576168D01*
X115603967Y-128639000D01*
X115926033Y-128639000D01*
X116241912Y-128576168D01*
X116539463Y-128452918D01*
X116807252Y-128273987D01*
X117034987Y-128046252D01*
X117213918Y-127778463D01*
X117337168Y-127480912D01*
X117400000Y-127165033D01*
X117400000Y-126842967D01*
X119060000Y-126842967D01*
X119060000Y-127165033D01*
X119122832Y-127480912D01*
X119246082Y-127778463D01*
X119425013Y-128046252D01*
X119652748Y-128273987D01*
X119920537Y-128452918D01*
X120218088Y-128576168D01*
X120533967Y-128639000D01*
X120856033Y-128639000D01*
X121171912Y-128576168D01*
X121469463Y-128452918D01*
X121737252Y-128273987D01*
X121964987Y-128046252D01*
X122143918Y-127778463D01*
X122149909Y-127764000D01*
X125740091Y-127764000D01*
X125746082Y-127778463D01*
X125925013Y-128046252D01*
X126152748Y-128273987D01*
X126420537Y-128452918D01*
X126718088Y-128576168D01*
X127033967Y-128639000D01*
X127356033Y-128639000D01*
X127671912Y-128576168D01*
X127969463Y-128452918D01*
X128237252Y-128273987D01*
X128464987Y-128046252D01*
X128643918Y-127778463D01*
X128767168Y-127480912D01*
X128830000Y-127165033D01*
X128830000Y-126842967D01*
X130490000Y-126842967D01*
X130490000Y-127165033D01*
X130552832Y-127480912D01*
X130676082Y-127778463D01*
X130855013Y-128046252D01*
X131082748Y-128273987D01*
X131350537Y-128452918D01*
X131648088Y-128576168D01*
X131963967Y-128639000D01*
X132286033Y-128639000D01*
X132601912Y-128576168D01*
X132899463Y-128452918D01*
X133167252Y-128273987D01*
X133394987Y-128046252D01*
X133573918Y-127778463D01*
X133579909Y-127764000D01*
X137170091Y-127764000D01*
X137176082Y-127778463D01*
X137355013Y-128046252D01*
X137582748Y-128273987D01*
X137850537Y-128452918D01*
X138148088Y-128576168D01*
X138463967Y-128639000D01*
X138786033Y-128639000D01*
X139101912Y-128576168D01*
X139399463Y-128452918D01*
X139667252Y-128273987D01*
X139894987Y-128046252D01*
X140073918Y-127778463D01*
X140197168Y-127480912D01*
X140260000Y-127165033D01*
X140260000Y-126842967D01*
X140197168Y-126527088D01*
X140073918Y-126229537D01*
X139894987Y-125961748D01*
X139667252Y-125734013D01*
X139399463Y-125555082D01*
X139101912Y-125431832D01*
X138786033Y-125369000D01*
X138463967Y-125369000D01*
X138148088Y-125431832D01*
X137850537Y-125555082D01*
X137582748Y-125734013D01*
X137355013Y-125961748D01*
X137176082Y-126229537D01*
X137170091Y-126244000D01*
X133579909Y-126244000D01*
X133573918Y-126229537D01*
X133394987Y-125961748D01*
X133167252Y-125734013D01*
X132899463Y-125555082D01*
X132601912Y-125431832D01*
X132286033Y-125369000D01*
X131963967Y-125369000D01*
X131648088Y-125431832D01*
X131350537Y-125555082D01*
X131082748Y-125734013D01*
X130855013Y-125961748D01*
X130676082Y-126229537D01*
X130552832Y-126527088D01*
X130490000Y-126842967D01*
X128830000Y-126842967D01*
X128767168Y-126527088D01*
X128643918Y-126229537D01*
X128464987Y-125961748D01*
X128237252Y-125734013D01*
X127969463Y-125555082D01*
X127671912Y-125431832D01*
X127356033Y-125369000D01*
X127033967Y-125369000D01*
X126718088Y-125431832D01*
X126420537Y-125555082D01*
X126152748Y-125734013D01*
X125925013Y-125961748D01*
X125746082Y-126229537D01*
X125740091Y-126244000D01*
X122149909Y-126244000D01*
X122143918Y-126229537D01*
X121964987Y-125961748D01*
X121737252Y-125734013D01*
X121469463Y-125555082D01*
X121171912Y-125431832D01*
X120856033Y-125369000D01*
X120533967Y-125369000D01*
X120218088Y-125431832D01*
X119920537Y-125555082D01*
X119652748Y-125734013D01*
X119425013Y-125961748D01*
X119246082Y-126229537D01*
X119122832Y-126527088D01*
X119060000Y-126842967D01*
X117400000Y-126842967D01*
X117337168Y-126527088D01*
X117213918Y-126229537D01*
X117034987Y-125961748D01*
X116807252Y-125734013D01*
X116539463Y-125555082D01*
X116241912Y-125431832D01*
X115926033Y-125369000D01*
X115603967Y-125369000D01*
X115288088Y-125431832D01*
X114990537Y-125555082D01*
X114722748Y-125734013D01*
X114495013Y-125961748D01*
X114316082Y-126229537D01*
X114192832Y-126527088D01*
X114130000Y-126842967D01*
X110900000Y-126842967D01*
X110837168Y-126527088D01*
X110713918Y-126229537D01*
X110534987Y-125961748D01*
X110307252Y-125734013D01*
X110039463Y-125555082D01*
X109741912Y-125431832D01*
X109426033Y-125369000D01*
X109103967Y-125369000D01*
X108788088Y-125431832D01*
X108490537Y-125555082D01*
X108222748Y-125734013D01*
X107995013Y-125961748D01*
X107816082Y-126229537D01*
X107692832Y-126527088D01*
X107630000Y-126842967D01*
X100252484Y-126842967D01*
X100250185Y-126842304D01*
X99782054Y-126802687D01*
X99315189Y-126855158D01*
X98867532Y-126997703D01*
X98511073Y-127188234D01*
X98324997Y-127529391D01*
X91750000Y-127529391D01*
X91750000Y-121949000D01*
X98276928Y-121949000D01*
X98276928Y-123749000D01*
X98289188Y-123873482D01*
X98325498Y-123993180D01*
X98384463Y-124103494D01*
X98463815Y-124200185D01*
X98560506Y-124279537D01*
X98670820Y-124338502D01*
X98790518Y-124374812D01*
X98915000Y-124387072D01*
X100715000Y-124387072D01*
X100839482Y-124374812D01*
X100959180Y-124338502D01*
X101069494Y-124279537D01*
X101166185Y-124200185D01*
X101245537Y-124103494D01*
X101304502Y-123993180D01*
X101340812Y-123873482D01*
X101353072Y-123749000D01*
X101353072Y-122342967D01*
X107630000Y-122342967D01*
X107630000Y-122665033D01*
X107692832Y-122980912D01*
X107816082Y-123278463D01*
X107995013Y-123546252D01*
X108222748Y-123773987D01*
X108490537Y-123952918D01*
X108788088Y-124076168D01*
X109103967Y-124139000D01*
X109426033Y-124139000D01*
X109741912Y-124076168D01*
X110039463Y-123952918D01*
X110307252Y-123773987D01*
X110534987Y-123546252D01*
X110713918Y-123278463D01*
X110837168Y-122980912D01*
X110900000Y-122665033D01*
X110900000Y-122342967D01*
X114130000Y-122342967D01*
X114130000Y-122665033D01*
X114192832Y-122980912D01*
X114316082Y-123278463D01*
X114495013Y-123546252D01*
X114722748Y-123773987D01*
X114990537Y-123952918D01*
X115288088Y-124076168D01*
X115603967Y-124139000D01*
X115926033Y-124139000D01*
X116241912Y-124076168D01*
X116539463Y-123952918D01*
X116807252Y-123773987D01*
X117034987Y-123546252D01*
X117213918Y-123278463D01*
X117337168Y-122980912D01*
X117400000Y-122665033D01*
X117400000Y-122342967D01*
X119060000Y-122342967D01*
X119060000Y-122665033D01*
X119122832Y-122980912D01*
X119246082Y-123278463D01*
X119425013Y-123546252D01*
X119652748Y-123773987D01*
X119920537Y-123952918D01*
X120218088Y-124076168D01*
X120533967Y-124139000D01*
X120856033Y-124139000D01*
X121171912Y-124076168D01*
X121469463Y-123952918D01*
X121737252Y-123773987D01*
X121964987Y-123546252D01*
X122109816Y-123329500D01*
X125780184Y-123329500D01*
X125925013Y-123546252D01*
X126152748Y-123773987D01*
X126420537Y-123952918D01*
X126718088Y-124076168D01*
X127033967Y-124139000D01*
X127356033Y-124139000D01*
X127671912Y-124076168D01*
X127969463Y-123952918D01*
X128237252Y-123773987D01*
X128464987Y-123546252D01*
X128643918Y-123278463D01*
X128767168Y-122980912D01*
X128830000Y-122665033D01*
X128830000Y-122342967D01*
X130490000Y-122342967D01*
X130490000Y-122665033D01*
X130552832Y-122980912D01*
X130676082Y-123278463D01*
X130855013Y-123546252D01*
X131082748Y-123773987D01*
X131350537Y-123952918D01*
X131648088Y-124076168D01*
X131963967Y-124139000D01*
X132286033Y-124139000D01*
X132601912Y-124076168D01*
X132899463Y-123952918D01*
X133167252Y-123773987D01*
X133394987Y-123546252D01*
X133539816Y-123329500D01*
X137210184Y-123329500D01*
X137355013Y-123546252D01*
X137582748Y-123773987D01*
X137850537Y-123952918D01*
X138148088Y-124076168D01*
X138463967Y-124139000D01*
X138786033Y-124139000D01*
X139101912Y-124076168D01*
X139399463Y-123952918D01*
X139667252Y-123773987D01*
X139894987Y-123546252D01*
X140073918Y-123278463D01*
X140197168Y-122980912D01*
X140260000Y-122665033D01*
X140260000Y-122342967D01*
X141920000Y-122342967D01*
X141920000Y-122665033D01*
X141982832Y-122980912D01*
X142106082Y-123278463D01*
X142285013Y-123546252D01*
X142512748Y-123773987D01*
X142780537Y-123952918D01*
X143078088Y-124076168D01*
X143393967Y-124139000D01*
X143716033Y-124139000D01*
X144031912Y-124076168D01*
X144329463Y-123952918D01*
X144597252Y-123773987D01*
X144824987Y-123546252D01*
X144969816Y-123329500D01*
X148640184Y-123329500D01*
X148785013Y-123546252D01*
X149012748Y-123773987D01*
X149280537Y-123952918D01*
X149578088Y-124076168D01*
X149893967Y-124139000D01*
X150216033Y-124139000D01*
X150531912Y-124076168D01*
X150829463Y-123952918D01*
X151097252Y-123773987D01*
X151324987Y-123546252D01*
X151503918Y-123278463D01*
X151627168Y-122980912D01*
X151690000Y-122665033D01*
X151690000Y-122342967D01*
X153350000Y-122342967D01*
X153350000Y-122665033D01*
X153412832Y-122980912D01*
X153536082Y-123278463D01*
X153715013Y-123546252D01*
X153942748Y-123773987D01*
X154210537Y-123952918D01*
X154508088Y-124076168D01*
X154823967Y-124139000D01*
X155146033Y-124139000D01*
X155461912Y-124076168D01*
X155759463Y-123952918D01*
X156027252Y-123773987D01*
X156254987Y-123546252D01*
X156399816Y-123329500D01*
X160070184Y-123329500D01*
X160215013Y-123546252D01*
X160442748Y-123773987D01*
X160710537Y-123952918D01*
X161008088Y-124076168D01*
X161323967Y-124139000D01*
X161646033Y-124139000D01*
X161961912Y-124076168D01*
X162259463Y-123952918D01*
X162527252Y-123773987D01*
X162754987Y-123546252D01*
X162933918Y-123278463D01*
X163057168Y-122980912D01*
X163120000Y-122665033D01*
X163120000Y-122342967D01*
X164780000Y-122342967D01*
X164780000Y-122665033D01*
X164842832Y-122980912D01*
X164966082Y-123278463D01*
X165145013Y-123546252D01*
X165372748Y-123773987D01*
X165640537Y-123952918D01*
X165938088Y-124076168D01*
X166253967Y-124139000D01*
X166576033Y-124139000D01*
X166891912Y-124076168D01*
X167189463Y-123952918D01*
X167457252Y-123773987D01*
X167684987Y-123546252D01*
X167829816Y-123329500D01*
X171500184Y-123329500D01*
X171645013Y-123546252D01*
X171872748Y-123773987D01*
X172140537Y-123952918D01*
X172438088Y-124076168D01*
X172753967Y-124139000D01*
X173076033Y-124139000D01*
X173391912Y-124076168D01*
X173689463Y-123952918D01*
X173957252Y-123773987D01*
X174184987Y-123546252D01*
X174363918Y-123278463D01*
X174487168Y-122980912D01*
X174550000Y-122665033D01*
X174550000Y-122342967D01*
X174487168Y-122027088D01*
X174363918Y-121729537D01*
X174184987Y-121461748D01*
X173957252Y-121234013D01*
X173689463Y-121055082D01*
X173391912Y-120931832D01*
X173076033Y-120869000D01*
X172753967Y-120869000D01*
X172438088Y-120931832D01*
X172140537Y-121055082D01*
X171872748Y-121234013D01*
X171645013Y-121461748D01*
X171500184Y-121678500D01*
X167829816Y-121678500D01*
X167684987Y-121461748D01*
X167457252Y-121234013D01*
X167189463Y-121055082D01*
X166891912Y-120931832D01*
X166576033Y-120869000D01*
X166253967Y-120869000D01*
X165938088Y-120931832D01*
X165640537Y-121055082D01*
X165372748Y-121234013D01*
X165145013Y-121461748D01*
X164966082Y-121729537D01*
X164842832Y-122027088D01*
X164780000Y-122342967D01*
X163120000Y-122342967D01*
X163057168Y-122027088D01*
X162933918Y-121729537D01*
X162754987Y-121461748D01*
X162527252Y-121234013D01*
X162259463Y-121055082D01*
X161961912Y-120931832D01*
X161646033Y-120869000D01*
X161323967Y-120869000D01*
X161008088Y-120931832D01*
X160710537Y-121055082D01*
X160442748Y-121234013D01*
X160215013Y-121461748D01*
X160070184Y-121678500D01*
X156399816Y-121678500D01*
X156254987Y-121461748D01*
X156027252Y-121234013D01*
X155759463Y-121055082D01*
X155461912Y-120931832D01*
X155146033Y-120869000D01*
X154823967Y-120869000D01*
X154508088Y-120931832D01*
X154210537Y-121055082D01*
X153942748Y-121234013D01*
X153715013Y-121461748D01*
X153536082Y-121729537D01*
X153412832Y-122027088D01*
X153350000Y-122342967D01*
X151690000Y-122342967D01*
X151627168Y-122027088D01*
X151503918Y-121729537D01*
X151324987Y-121461748D01*
X151097252Y-121234013D01*
X150829463Y-121055082D01*
X150531912Y-120931832D01*
X150216033Y-120869000D01*
X149893967Y-120869000D01*
X149578088Y-120931832D01*
X149280537Y-121055082D01*
X149012748Y-121234013D01*
X148785013Y-121461748D01*
X148640184Y-121678500D01*
X144969816Y-121678500D01*
X144824987Y-121461748D01*
X144597252Y-121234013D01*
X144329463Y-121055082D01*
X144031912Y-120931832D01*
X143716033Y-120869000D01*
X143393967Y-120869000D01*
X143078088Y-120931832D01*
X142780537Y-121055082D01*
X142512748Y-121234013D01*
X142285013Y-121461748D01*
X142106082Y-121729537D01*
X141982832Y-122027088D01*
X141920000Y-122342967D01*
X140260000Y-122342967D01*
X140197168Y-122027088D01*
X140073918Y-121729537D01*
X139894987Y-121461748D01*
X139667252Y-121234013D01*
X139399463Y-121055082D01*
X139101912Y-120931832D01*
X138786033Y-120869000D01*
X138463967Y-120869000D01*
X138148088Y-120931832D01*
X137850537Y-121055082D01*
X137582748Y-121234013D01*
X137355013Y-121461748D01*
X137210184Y-121678500D01*
X133539816Y-121678500D01*
X133394987Y-121461748D01*
X133167252Y-121234013D01*
X132899463Y-121055082D01*
X132601912Y-120931832D01*
X132286033Y-120869000D01*
X131963967Y-120869000D01*
X131648088Y-120931832D01*
X131350537Y-121055082D01*
X131082748Y-121234013D01*
X130855013Y-121461748D01*
X130676082Y-121729537D01*
X130552832Y-122027088D01*
X130490000Y-122342967D01*
X128830000Y-122342967D01*
X128767168Y-122027088D01*
X128643918Y-121729537D01*
X128464987Y-121461748D01*
X128237252Y-121234013D01*
X127969463Y-121055082D01*
X127671912Y-120931832D01*
X127356033Y-120869000D01*
X127033967Y-120869000D01*
X126718088Y-120931832D01*
X126420537Y-121055082D01*
X126152748Y-121234013D01*
X125925013Y-121461748D01*
X125780184Y-121678500D01*
X122109816Y-121678500D01*
X121964987Y-121461748D01*
X121737252Y-121234013D01*
X121469463Y-121055082D01*
X121171912Y-120931832D01*
X120856033Y-120869000D01*
X120533967Y-120869000D01*
X120218088Y-120931832D01*
X119920537Y-121055082D01*
X119652748Y-121234013D01*
X119425013Y-121461748D01*
X119246082Y-121729537D01*
X119122832Y-122027088D01*
X119060000Y-122342967D01*
X117400000Y-122342967D01*
X117337168Y-122027088D01*
X117213918Y-121729537D01*
X117034987Y-121461748D01*
X116807252Y-121234013D01*
X116539463Y-121055082D01*
X116241912Y-120931832D01*
X115926033Y-120869000D01*
X115603967Y-120869000D01*
X115288088Y-120931832D01*
X114990537Y-121055082D01*
X114722748Y-121234013D01*
X114495013Y-121461748D01*
X114316082Y-121729537D01*
X114192832Y-122027088D01*
X114130000Y-122342967D01*
X110900000Y-122342967D01*
X110837168Y-122027088D01*
X110713918Y-121729537D01*
X110534987Y-121461748D01*
X110307252Y-121234013D01*
X110039463Y-121055082D01*
X109741912Y-120931832D01*
X109426033Y-120869000D01*
X109103967Y-120869000D01*
X108788088Y-120931832D01*
X108490537Y-121055082D01*
X108222748Y-121234013D01*
X107995013Y-121461748D01*
X107816082Y-121729537D01*
X107692832Y-122027088D01*
X107630000Y-122342967D01*
X101353072Y-122342967D01*
X101353072Y-121949000D01*
X101340812Y-121824518D01*
X101304502Y-121704820D01*
X101245537Y-121594506D01*
X101166185Y-121497815D01*
X101069494Y-121418463D01*
X100959180Y-121359498D01*
X100940873Y-121353944D01*
X101007312Y-121287505D01*
X101175299Y-121036095D01*
X101291011Y-120756743D01*
X101350000Y-120460184D01*
X101350000Y-120157816D01*
X101291011Y-119861257D01*
X101175299Y-119581905D01*
X101007312Y-119330495D01*
X100793505Y-119116688D01*
X100542095Y-118948701D01*
X100262743Y-118832989D01*
X99966184Y-118774000D01*
X99663816Y-118774000D01*
X99367257Y-118832989D01*
X99087905Y-118948701D01*
X98836495Y-119116688D01*
X98622688Y-119330495D01*
X98454701Y-119581905D01*
X98338989Y-119861257D01*
X98280000Y-120157816D01*
X98280000Y-120460184D01*
X98338989Y-120756743D01*
X98454701Y-121036095D01*
X98622688Y-121287505D01*
X98689127Y-121353944D01*
X98670820Y-121359498D01*
X98560506Y-121418463D01*
X98463815Y-121497815D01*
X98384463Y-121594506D01*
X98325498Y-121704820D01*
X98289188Y-121824518D01*
X98276928Y-121949000D01*
X91750000Y-121949000D01*
X91750000Y-117618609D01*
X98324997Y-117618609D01*
X98511073Y-117959766D01*
X98928409Y-118175513D01*
X99379815Y-118305696D01*
X99847946Y-118345313D01*
X100314811Y-118292842D01*
X100762468Y-118150297D01*
X101118927Y-117959766D01*
X101305003Y-117618609D01*
X101190395Y-117504000D01*
X110976928Y-117504000D01*
X110976928Y-119304000D01*
X110989188Y-119428482D01*
X111025498Y-119548180D01*
X111084463Y-119658494D01*
X111163815Y-119755185D01*
X111260506Y-119834537D01*
X111370820Y-119893502D01*
X111490518Y-119929812D01*
X111615000Y-119942072D01*
X113415000Y-119942072D01*
X113539482Y-119929812D01*
X113659180Y-119893502D01*
X113769494Y-119834537D01*
X113866185Y-119755185D01*
X113945537Y-119658494D01*
X114004502Y-119548180D01*
X114040812Y-119428482D01*
X114053072Y-119304000D01*
X114053072Y-117504000D01*
X122406928Y-117504000D01*
X122406928Y-119304000D01*
X122419188Y-119428482D01*
X122455498Y-119548180D01*
X122514463Y-119658494D01*
X122593815Y-119755185D01*
X122690506Y-119834537D01*
X122800820Y-119893502D01*
X122920518Y-119929812D01*
X123045000Y-119942072D01*
X124845000Y-119942072D01*
X124969482Y-119929812D01*
X125089180Y-119893502D01*
X125199494Y-119834537D01*
X125296185Y-119755185D01*
X125375537Y-119658494D01*
X125434502Y-119548180D01*
X125470812Y-119428482D01*
X125483072Y-119304000D01*
X125483072Y-117504000D01*
X133836928Y-117504000D01*
X133836928Y-119304000D01*
X133849188Y-119428482D01*
X133885498Y-119548180D01*
X133944463Y-119658494D01*
X134023815Y-119755185D01*
X134120506Y-119834537D01*
X134230820Y-119893502D01*
X134350518Y-119929812D01*
X134475000Y-119942072D01*
X136275000Y-119942072D01*
X136399482Y-119929812D01*
X136519180Y-119893502D01*
X136629494Y-119834537D01*
X136726185Y-119755185D01*
X136805537Y-119658494D01*
X136864502Y-119548180D01*
X136900812Y-119428482D01*
X136913072Y-119304000D01*
X136913072Y-117504000D01*
X145266928Y-117504000D01*
X145266928Y-119304000D01*
X145279188Y-119428482D01*
X145315498Y-119548180D01*
X145374463Y-119658494D01*
X145453815Y-119755185D01*
X145550506Y-119834537D01*
X145660820Y-119893502D01*
X145780518Y-119929812D01*
X145905000Y-119942072D01*
X147705000Y-119942072D01*
X147829482Y-119929812D01*
X147949180Y-119893502D01*
X148059494Y-119834537D01*
X148156185Y-119755185D01*
X148235537Y-119658494D01*
X148294502Y-119548180D01*
X148330812Y-119428482D01*
X148343072Y-119304000D01*
X148343072Y-117504000D01*
X156696928Y-117504000D01*
X156696928Y-119304000D01*
X156709188Y-119428482D01*
X156745498Y-119548180D01*
X156804463Y-119658494D01*
X156883815Y-119755185D01*
X156980506Y-119834537D01*
X157090820Y-119893502D01*
X157210518Y-119929812D01*
X157335000Y-119942072D01*
X159135000Y-119942072D01*
X159259482Y-119929812D01*
X159379180Y-119893502D01*
X159489494Y-119834537D01*
X159586185Y-119755185D01*
X159665537Y-119658494D01*
X159724502Y-119548180D01*
X159760812Y-119428482D01*
X159773072Y-119304000D01*
X159773072Y-117504000D01*
X168126928Y-117504000D01*
X168126928Y-119304000D01*
X168139188Y-119428482D01*
X168175498Y-119548180D01*
X168234463Y-119658494D01*
X168313815Y-119755185D01*
X168410506Y-119834537D01*
X168520820Y-119893502D01*
X168640518Y-119929812D01*
X168765000Y-119942072D01*
X170565000Y-119942072D01*
X170689482Y-119929812D01*
X170809180Y-119893502D01*
X170919494Y-119834537D01*
X171016185Y-119755185D01*
X171095537Y-119658494D01*
X171154502Y-119548180D01*
X171190812Y-119428482D01*
X171203072Y-119304000D01*
X171203072Y-117618609D01*
X180874997Y-117618609D01*
X181061073Y-117959766D01*
X181478409Y-118175513D01*
X181929815Y-118305696D01*
X182397946Y-118345313D01*
X182864811Y-118292842D01*
X183312468Y-118150297D01*
X183668927Y-117959766D01*
X183855003Y-117618609D01*
X182365000Y-116128605D01*
X180874997Y-117618609D01*
X171203072Y-117618609D01*
X171203072Y-117504000D01*
X171190812Y-117379518D01*
X171154502Y-117259820D01*
X171095537Y-117149506D01*
X171016185Y-117052815D01*
X170919494Y-116973463D01*
X170809180Y-116914498D01*
X170790873Y-116908944D01*
X170857312Y-116842505D01*
X171025299Y-116591095D01*
X171141011Y-116311743D01*
X171200000Y-116015184D01*
X171200000Y-115981946D01*
X179968687Y-115981946D01*
X180021158Y-116448811D01*
X180163703Y-116896468D01*
X180354234Y-117252927D01*
X180695391Y-117439003D01*
X182185395Y-115949000D01*
X182544605Y-115949000D01*
X184034609Y-117439003D01*
X184375766Y-117252927D01*
X184591513Y-116835591D01*
X184721696Y-116384185D01*
X184761313Y-115916054D01*
X184708842Y-115449189D01*
X184566297Y-115001532D01*
X184375766Y-114645073D01*
X184034609Y-114458997D01*
X182544605Y-115949000D01*
X182185395Y-115949000D01*
X180695391Y-114458997D01*
X180354234Y-114645073D01*
X180138487Y-115062409D01*
X180008304Y-115513815D01*
X179968687Y-115981946D01*
X171200000Y-115981946D01*
X171200000Y-115712816D01*
X171141011Y-115416257D01*
X171025299Y-115136905D01*
X170857312Y-114885495D01*
X170643505Y-114671688D01*
X170392095Y-114503701D01*
X170112743Y-114387989D01*
X169816184Y-114329000D01*
X169513816Y-114329000D01*
X169217257Y-114387989D01*
X168937905Y-114503701D01*
X168686495Y-114671688D01*
X168472688Y-114885495D01*
X168304701Y-115136905D01*
X168188989Y-115416257D01*
X168130000Y-115712816D01*
X168130000Y-116015184D01*
X168188989Y-116311743D01*
X168304701Y-116591095D01*
X168472688Y-116842505D01*
X168539127Y-116908944D01*
X168520820Y-116914498D01*
X168410506Y-116973463D01*
X168313815Y-117052815D01*
X168234463Y-117149506D01*
X168175498Y-117259820D01*
X168139188Y-117379518D01*
X168126928Y-117504000D01*
X159773072Y-117504000D01*
X159760812Y-117379518D01*
X159724502Y-117259820D01*
X159665537Y-117149506D01*
X159586185Y-117052815D01*
X159489494Y-116973463D01*
X159379180Y-116914498D01*
X159360873Y-116908944D01*
X159427312Y-116842505D01*
X159595299Y-116591095D01*
X159711011Y-116311743D01*
X159770000Y-116015184D01*
X159770000Y-115712816D01*
X159711011Y-115416257D01*
X159595299Y-115136905D01*
X159427312Y-114885495D01*
X159213505Y-114671688D01*
X158962095Y-114503701D01*
X158682743Y-114387989D01*
X158386184Y-114329000D01*
X158083816Y-114329000D01*
X157787257Y-114387989D01*
X157507905Y-114503701D01*
X157256495Y-114671688D01*
X157042688Y-114885495D01*
X156874701Y-115136905D01*
X156758989Y-115416257D01*
X156700000Y-115712816D01*
X156700000Y-116015184D01*
X156758989Y-116311743D01*
X156874701Y-116591095D01*
X157042688Y-116842505D01*
X157109127Y-116908944D01*
X157090820Y-116914498D01*
X156980506Y-116973463D01*
X156883815Y-117052815D01*
X156804463Y-117149506D01*
X156745498Y-117259820D01*
X156709188Y-117379518D01*
X156696928Y-117504000D01*
X148343072Y-117504000D01*
X148330812Y-117379518D01*
X148294502Y-117259820D01*
X148235537Y-117149506D01*
X148156185Y-117052815D01*
X148059494Y-116973463D01*
X147949180Y-116914498D01*
X147930873Y-116908944D01*
X147997312Y-116842505D01*
X148165299Y-116591095D01*
X148281011Y-116311743D01*
X148340000Y-116015184D01*
X148340000Y-115712816D01*
X148281011Y-115416257D01*
X148165299Y-115136905D01*
X147997312Y-114885495D01*
X147783505Y-114671688D01*
X147532095Y-114503701D01*
X147252743Y-114387989D01*
X146956184Y-114329000D01*
X146653816Y-114329000D01*
X146357257Y-114387989D01*
X146077905Y-114503701D01*
X145826495Y-114671688D01*
X145612688Y-114885495D01*
X145444701Y-115136905D01*
X145328989Y-115416257D01*
X145270000Y-115712816D01*
X145270000Y-116015184D01*
X145328989Y-116311743D01*
X145444701Y-116591095D01*
X145612688Y-116842505D01*
X145679127Y-116908944D01*
X145660820Y-116914498D01*
X145550506Y-116973463D01*
X145453815Y-117052815D01*
X145374463Y-117149506D01*
X145315498Y-117259820D01*
X145279188Y-117379518D01*
X145266928Y-117504000D01*
X136913072Y-117504000D01*
X136900812Y-117379518D01*
X136864502Y-117259820D01*
X136805537Y-117149506D01*
X136726185Y-117052815D01*
X136629494Y-116973463D01*
X136519180Y-116914498D01*
X136500873Y-116908944D01*
X136567312Y-116842505D01*
X136735299Y-116591095D01*
X136851011Y-116311743D01*
X136910000Y-116015184D01*
X136910000Y-115712816D01*
X136851011Y-115416257D01*
X136735299Y-115136905D01*
X136567312Y-114885495D01*
X136353505Y-114671688D01*
X136102095Y-114503701D01*
X135822743Y-114387989D01*
X135526184Y-114329000D01*
X135223816Y-114329000D01*
X134927257Y-114387989D01*
X134647905Y-114503701D01*
X134396495Y-114671688D01*
X134182688Y-114885495D01*
X134014701Y-115136905D01*
X133898989Y-115416257D01*
X133840000Y-115712816D01*
X133840000Y-116015184D01*
X133898989Y-116311743D01*
X134014701Y-116591095D01*
X134182688Y-116842505D01*
X134249127Y-116908944D01*
X134230820Y-116914498D01*
X134120506Y-116973463D01*
X134023815Y-117052815D01*
X133944463Y-117149506D01*
X133885498Y-117259820D01*
X133849188Y-117379518D01*
X133836928Y-117504000D01*
X125483072Y-117504000D01*
X125470812Y-117379518D01*
X125434502Y-117259820D01*
X125375537Y-117149506D01*
X125296185Y-117052815D01*
X125199494Y-116973463D01*
X125089180Y-116914498D01*
X125070873Y-116908944D01*
X125137312Y-116842505D01*
X125305299Y-116591095D01*
X125421011Y-116311743D01*
X125480000Y-116015184D01*
X125480000Y-115712816D01*
X125421011Y-115416257D01*
X125305299Y-115136905D01*
X125137312Y-114885495D01*
X124923505Y-114671688D01*
X124672095Y-114503701D01*
X124392743Y-114387989D01*
X124096184Y-114329000D01*
X123793816Y-114329000D01*
X123497257Y-114387989D01*
X123217905Y-114503701D01*
X122966495Y-114671688D01*
X122752688Y-114885495D01*
X122584701Y-115136905D01*
X122468989Y-115416257D01*
X122410000Y-115712816D01*
X122410000Y-116015184D01*
X122468989Y-116311743D01*
X122584701Y-116591095D01*
X122752688Y-116842505D01*
X122819127Y-116908944D01*
X122800820Y-116914498D01*
X122690506Y-116973463D01*
X122593815Y-117052815D01*
X122514463Y-117149506D01*
X122455498Y-117259820D01*
X122419188Y-117379518D01*
X122406928Y-117504000D01*
X114053072Y-117504000D01*
X114040812Y-117379518D01*
X114004502Y-117259820D01*
X113945537Y-117149506D01*
X113866185Y-117052815D01*
X113769494Y-116973463D01*
X113659180Y-116914498D01*
X113640873Y-116908944D01*
X113707312Y-116842505D01*
X113875299Y-116591095D01*
X113991011Y-116311743D01*
X114050000Y-116015184D01*
X114050000Y-115712816D01*
X113991011Y-115416257D01*
X113875299Y-115136905D01*
X113707312Y-114885495D01*
X113493505Y-114671688D01*
X113242095Y-114503701D01*
X112962743Y-114387989D01*
X112666184Y-114329000D01*
X112363816Y-114329000D01*
X112067257Y-114387989D01*
X111787905Y-114503701D01*
X111536495Y-114671688D01*
X111322688Y-114885495D01*
X111154701Y-115136905D01*
X111038989Y-115416257D01*
X110980000Y-115712816D01*
X110980000Y-116015184D01*
X111038989Y-116311743D01*
X111154701Y-116591095D01*
X111322688Y-116842505D01*
X111389127Y-116908944D01*
X111370820Y-116914498D01*
X111260506Y-116973463D01*
X111163815Y-117052815D01*
X111084463Y-117149506D01*
X111025498Y-117259820D01*
X110989188Y-117379518D01*
X110976928Y-117504000D01*
X101190395Y-117504000D01*
X99815000Y-116128605D01*
X98324997Y-117618609D01*
X91750000Y-117618609D01*
X91750000Y-115981946D01*
X97418687Y-115981946D01*
X97471158Y-116448811D01*
X97613703Y-116896468D01*
X97804234Y-117252927D01*
X98145391Y-117439003D01*
X99635395Y-115949000D01*
X99994605Y-115949000D01*
X101484609Y-117439003D01*
X101825766Y-117252927D01*
X102041513Y-116835591D01*
X102171696Y-116384185D01*
X102211313Y-115916054D01*
X102158842Y-115449189D01*
X102016297Y-115001532D01*
X101825766Y-114645073D01*
X101484609Y-114458997D01*
X99994605Y-115949000D01*
X99635395Y-115949000D01*
X98145391Y-114458997D01*
X97804234Y-114645073D01*
X97588487Y-115062409D01*
X97458304Y-115513815D01*
X97418687Y-115981946D01*
X91750000Y-115981946D01*
X91750000Y-114279391D01*
X98324997Y-114279391D01*
X99815000Y-115769395D01*
X101305003Y-114279391D01*
X180874997Y-114279391D01*
X182365000Y-115769395D01*
X183855003Y-114279391D01*
X183668927Y-113938234D01*
X183251591Y-113722487D01*
X182800185Y-113592304D01*
X182332054Y-113552687D01*
X181865189Y-113605158D01*
X181417532Y-113747703D01*
X181061073Y-113938234D01*
X180874997Y-114279391D01*
X101305003Y-114279391D01*
X101118927Y-113938234D01*
X100701591Y-113722487D01*
X100250185Y-113592304D01*
X99782054Y-113552687D01*
X99315189Y-113605158D01*
X98867532Y-113747703D01*
X98511073Y-113938234D01*
X98324997Y-114279391D01*
X91750000Y-114279391D01*
X91750000Y-113434000D01*
X113117581Y-113434000D01*
X113150000Y-113437193D01*
X113182419Y-113434000D01*
X113279383Y-113424450D01*
X113403793Y-113386710D01*
X113518450Y-113325425D01*
X113618948Y-113242948D01*
X113701425Y-113142450D01*
X113762710Y-113027793D01*
X113800450Y-112903383D01*
X113813193Y-112774000D01*
X113810000Y-112741581D01*
X113810000Y-111634000D01*
X117570001Y-111634000D01*
X117570000Y-112741580D01*
G37*
G04 #@! TD.AperFunction*
M02*
