G04 #@! TF.GenerationSoftware,KiCad,Pcbnew,(5.1.8)-1*
G04 #@! TF.CreationDate,2022-07-15T00:36:28+02:00*
G04 #@! TF.ProjectId,BulkyMIDI-32 Audio Switch Panel,42756c6b-794d-4494-9449-2d3332204175,rev?*
G04 #@! TF.SameCoordinates,Original*
G04 #@! TF.FileFunction,Profile,NP*
%FSLAX46Y46*%
G04 Gerber Fmt 4.6, Leading zero omitted, Abs format (unit mm)*
G04 Created by KiCad (PCBNEW (5.1.8)-1) date 2022-07-15 00:36:28*
%MOMM*%
%LPD*%
G01*
G04 APERTURE LIST*
G04 #@! TA.AperFunction,Profile*
%ADD10C,0.050000*%
G04 #@! TD*
G04 APERTURE END LIST*
D10*
X163950000Y-112774000D02*
X141090000Y-112774000D01*
X118230000Y-112774000D02*
X141090000Y-112774000D01*
X113150000Y-112774000D02*
X91090000Y-112774000D01*
X191090000Y-112774000D02*
X169030000Y-112774000D01*
X163950000Y-112774000D02*
X163950000Y-110974000D01*
X169030000Y-110974000D02*
X163950000Y-110974000D01*
X118230000Y-112774000D02*
X118230000Y-110974000D01*
X118230000Y-110974000D02*
X113150000Y-110974000D01*
X169030000Y-112774000D02*
X169030000Y-110974000D01*
X113150000Y-112774000D02*
X113150000Y-110974000D01*
X163950000Y-132374000D02*
X141090000Y-132374000D01*
X118230000Y-132374000D02*
X141090000Y-132374000D01*
X169030000Y-132374000D02*
X169030000Y-134174000D01*
X163950000Y-132374000D02*
X163950000Y-134174000D01*
X163950000Y-134174000D02*
X169030000Y-134174000D01*
X118230000Y-132374000D02*
X118230000Y-134174000D01*
X113150000Y-132374000D02*
X113150000Y-134174000D01*
X113150000Y-134174000D02*
X118230000Y-134174000D01*
X91090000Y-132374000D02*
X113150000Y-132374000D01*
X91090000Y-112774000D02*
X91090000Y-132374000D01*
X191090000Y-132374000D02*
X191090000Y-112774000D01*
X169030000Y-132374000D02*
X191090000Y-132374000D01*
M02*
