G04 #@! TF.GenerationSoftware,KiCad,Pcbnew,(5.1.8)-1*
G04 #@! TF.CreationDate,2022-07-15T00:36:28+02:00*
G04 #@! TF.ProjectId,BulkyMIDI-32 Audio Switch Panel,42756c6b-794d-4494-9449-2d3332204175,rev?*
G04 #@! TF.SameCoordinates,Original*
G04 #@! TF.FileFunction,Legend,Bot*
G04 #@! TF.FilePolarity,Positive*
%FSLAX46Y46*%
G04 Gerber Fmt 4.6, Leading zero omitted, Abs format (unit mm)*
G04 Created by KiCad (PCBNEW (5.1.8)-1) date 2022-07-15 00:36:28*
%MOMM*%
%LPD*%
G01*
G04 APERTURE LIST*
%ADD10C,0.100000*%
%ADD11C,0.120000*%
%ADD12C,0.150000*%
G04 APERTURE END LIST*
D10*
X112227142Y-130611142D02*
X112227142Y-131254000D01*
X112270000Y-131382571D01*
X112355714Y-131468285D01*
X112484285Y-131511142D01*
X112570000Y-131511142D01*
X111370000Y-131511142D02*
X111798571Y-131511142D01*
X111798571Y-130611142D01*
X110555714Y-131425428D02*
X110598571Y-131468285D01*
X110727142Y-131511142D01*
X110812857Y-131511142D01*
X110941428Y-131468285D01*
X111027142Y-131382571D01*
X111070000Y-131296857D01*
X111112857Y-131125428D01*
X111112857Y-130996857D01*
X111070000Y-130825428D01*
X111027142Y-130739714D01*
X110941428Y-130654000D01*
X110812857Y-130611142D01*
X110727142Y-130611142D01*
X110598571Y-130654000D01*
X110555714Y-130696857D01*
X109912857Y-130611142D02*
X109912857Y-131254000D01*
X109955714Y-131382571D01*
X110041428Y-131468285D01*
X110170000Y-131511142D01*
X110255714Y-131511142D01*
X109055714Y-131511142D02*
X109484285Y-131511142D01*
X109484285Y-130611142D01*
X108241428Y-131425428D02*
X108284285Y-131468285D01*
X108412857Y-131511142D01*
X108498571Y-131511142D01*
X108627142Y-131468285D01*
X108712857Y-131382571D01*
X108755714Y-131296857D01*
X108798571Y-131125428D01*
X108798571Y-130996857D01*
X108755714Y-130825428D01*
X108712857Y-130739714D01*
X108627142Y-130654000D01*
X108498571Y-130611142D01*
X108412857Y-130611142D01*
X108284285Y-130654000D01*
X108241428Y-130696857D01*
X107598571Y-130611142D02*
X107598571Y-131254000D01*
X107641428Y-131382571D01*
X107727142Y-131468285D01*
X107855714Y-131511142D01*
X107941428Y-131511142D01*
X106741428Y-131511142D02*
X107170000Y-131511142D01*
X107170000Y-130611142D01*
X105927142Y-131425428D02*
X105970000Y-131468285D01*
X106098571Y-131511142D01*
X106184285Y-131511142D01*
X106312857Y-131468285D01*
X106398571Y-131382571D01*
X106441428Y-131296857D01*
X106484285Y-131125428D01*
X106484285Y-130996857D01*
X106441428Y-130825428D01*
X106398571Y-130739714D01*
X106312857Y-130654000D01*
X106184285Y-130611142D01*
X106098571Y-130611142D01*
X105970000Y-130654000D01*
X105927142Y-130696857D01*
X105284285Y-130611142D02*
X105284285Y-131254000D01*
X105327142Y-131382571D01*
X105412857Y-131468285D01*
X105541428Y-131511142D01*
X105627142Y-131511142D01*
X104427142Y-131511142D02*
X104855714Y-131511142D01*
X104855714Y-130611142D01*
X103612857Y-131425428D02*
X103655714Y-131468285D01*
X103784285Y-131511142D01*
X103870000Y-131511142D01*
X103998571Y-131468285D01*
X104084285Y-131382571D01*
X104127142Y-131296857D01*
X104170000Y-131125428D01*
X104170000Y-130996857D01*
X104127142Y-130825428D01*
X104084285Y-130739714D01*
X103998571Y-130654000D01*
X103870000Y-130611142D01*
X103784285Y-130611142D01*
X103655714Y-130654000D01*
X103612857Y-130696857D01*
X95457142Y-126487095D02*
X95419047Y-126372809D01*
X95380952Y-126334714D01*
X95304761Y-126296619D01*
X95190476Y-126296619D01*
X95114285Y-126334714D01*
X95076190Y-126372809D01*
X95038095Y-126449000D01*
X95038095Y-126753761D01*
X95838095Y-126753761D01*
X95838095Y-126487095D01*
X95800000Y-126410904D01*
X95761904Y-126372809D01*
X95685714Y-126334714D01*
X95609523Y-126334714D01*
X95533333Y-126372809D01*
X95495238Y-126410904D01*
X95457142Y-126487095D01*
X95457142Y-126753761D01*
X95571428Y-125610904D02*
X95038095Y-125610904D01*
X95571428Y-125953761D02*
X95152380Y-125953761D01*
X95076190Y-125915666D01*
X95038095Y-125839476D01*
X95038095Y-125725190D01*
X95076190Y-125649000D01*
X95114285Y-125610904D01*
X95038095Y-125115666D02*
X95076190Y-125191857D01*
X95152380Y-125229952D01*
X95838095Y-125229952D01*
X95038095Y-124810904D02*
X95838095Y-124810904D01*
X95342857Y-124734714D02*
X95038095Y-124506142D01*
X95571428Y-124506142D02*
X95266666Y-124810904D01*
X95571428Y-124239476D02*
X95038095Y-124049000D01*
X95571428Y-123858523D02*
X95038095Y-124049000D01*
X94847619Y-124125190D01*
X94809523Y-124163285D01*
X94771428Y-124239476D01*
X95038095Y-123553761D02*
X95838095Y-123553761D01*
X95266666Y-123287095D01*
X95838095Y-123020428D01*
X95038095Y-123020428D01*
X95038095Y-122639476D02*
X95838095Y-122639476D01*
X95038095Y-122258523D02*
X95838095Y-122258523D01*
X95838095Y-122068047D01*
X95800000Y-121953761D01*
X95723809Y-121877571D01*
X95647619Y-121839476D01*
X95495238Y-121801380D01*
X95380952Y-121801380D01*
X95228571Y-121839476D01*
X95152380Y-121877571D01*
X95076190Y-121953761D01*
X95038095Y-122068047D01*
X95038095Y-122258523D01*
X95038095Y-121458523D02*
X95838095Y-121458523D01*
X95342857Y-121077571D02*
X95342857Y-120468047D01*
X95838095Y-120163285D02*
X95838095Y-119668047D01*
X95533333Y-119934714D01*
X95533333Y-119820428D01*
X95495238Y-119744238D01*
X95457142Y-119706142D01*
X95380952Y-119668047D01*
X95190476Y-119668047D01*
X95114285Y-119706142D01*
X95076190Y-119744238D01*
X95038095Y-119820428D01*
X95038095Y-120049000D01*
X95076190Y-120125190D01*
X95114285Y-120163285D01*
X95761904Y-119363285D02*
X95800000Y-119325190D01*
X95838095Y-119249000D01*
X95838095Y-119058523D01*
X95800000Y-118982333D01*
X95761904Y-118944238D01*
X95685714Y-118906142D01*
X95609523Y-118906142D01*
X95495238Y-118944238D01*
X95038095Y-119401380D01*
X95038095Y-118906142D01*
X93966666Y-131096619D02*
X93966666Y-130715666D01*
X93738095Y-131172809D02*
X94538095Y-130906142D01*
X93738095Y-130639476D01*
X94271428Y-130029952D02*
X93738095Y-130029952D01*
X94271428Y-130372809D02*
X93852380Y-130372809D01*
X93776190Y-130334714D01*
X93738095Y-130258523D01*
X93738095Y-130144238D01*
X93776190Y-130068047D01*
X93814285Y-130029952D01*
X93738095Y-129306142D02*
X94538095Y-129306142D01*
X93776190Y-129306142D02*
X93738095Y-129382333D01*
X93738095Y-129534714D01*
X93776190Y-129610904D01*
X93814285Y-129649000D01*
X93890476Y-129687095D01*
X94119047Y-129687095D01*
X94195238Y-129649000D01*
X94233333Y-129610904D01*
X94271428Y-129534714D01*
X94271428Y-129382333D01*
X94233333Y-129306142D01*
X93738095Y-128925190D02*
X94271428Y-128925190D01*
X94538095Y-128925190D02*
X94500000Y-128963285D01*
X94461904Y-128925190D01*
X94500000Y-128887095D01*
X94538095Y-128925190D01*
X94461904Y-128925190D01*
X93738095Y-128429952D02*
X93776190Y-128506142D01*
X93814285Y-128544238D01*
X93890476Y-128582333D01*
X94119047Y-128582333D01*
X94195238Y-128544238D01*
X94233333Y-128506142D01*
X94271428Y-128429952D01*
X94271428Y-128315666D01*
X94233333Y-128239476D01*
X94195238Y-128201380D01*
X94119047Y-128163285D01*
X93890476Y-128163285D01*
X93814285Y-128201380D01*
X93776190Y-128239476D01*
X93738095Y-128315666D01*
X93738095Y-128429952D01*
X93776190Y-127249000D02*
X93738095Y-127134714D01*
X93738095Y-126944238D01*
X93776190Y-126868047D01*
X93814285Y-126829952D01*
X93890476Y-126791857D01*
X93966666Y-126791857D01*
X94042857Y-126829952D01*
X94080952Y-126868047D01*
X94119047Y-126944238D01*
X94157142Y-127096619D01*
X94195238Y-127172809D01*
X94233333Y-127210904D01*
X94309523Y-127249000D01*
X94385714Y-127249000D01*
X94461904Y-127210904D01*
X94500000Y-127172809D01*
X94538095Y-127096619D01*
X94538095Y-126906142D01*
X94500000Y-126791857D01*
X94271428Y-126525190D02*
X93738095Y-126372809D01*
X94119047Y-126220428D01*
X93738095Y-126068047D01*
X94271428Y-125915666D01*
X93738095Y-125610904D02*
X94271428Y-125610904D01*
X94538095Y-125610904D02*
X94500000Y-125649000D01*
X94461904Y-125610904D01*
X94500000Y-125572809D01*
X94538095Y-125610904D01*
X94461904Y-125610904D01*
X94271428Y-125344238D02*
X94271428Y-125039476D01*
X94538095Y-125229952D02*
X93852380Y-125229952D01*
X93776190Y-125191857D01*
X93738095Y-125115666D01*
X93738095Y-125039476D01*
X93776190Y-124429952D02*
X93738095Y-124506142D01*
X93738095Y-124658523D01*
X93776190Y-124734714D01*
X93814285Y-124772809D01*
X93890476Y-124810904D01*
X94119047Y-124810904D01*
X94195238Y-124772809D01*
X94233333Y-124734714D01*
X94271428Y-124658523D01*
X94271428Y-124506142D01*
X94233333Y-124429952D01*
X93738095Y-124087095D02*
X94538095Y-124087095D01*
X93738095Y-123744238D02*
X94157142Y-123744238D01*
X94233333Y-123782333D01*
X94271428Y-123858523D01*
X94271428Y-123972809D01*
X94233333Y-124049000D01*
X94195238Y-124087095D01*
X93738095Y-122753761D02*
X94538095Y-122753761D01*
X94538095Y-122449000D01*
X94500000Y-122372809D01*
X94461904Y-122334714D01*
X94385714Y-122296619D01*
X94271428Y-122296619D01*
X94195238Y-122334714D01*
X94157142Y-122372809D01*
X94119047Y-122449000D01*
X94119047Y-122753761D01*
X93738095Y-121610904D02*
X94157142Y-121610904D01*
X94233333Y-121649000D01*
X94271428Y-121725190D01*
X94271428Y-121877571D01*
X94233333Y-121953761D01*
X93776190Y-121610904D02*
X93738095Y-121687095D01*
X93738095Y-121877571D01*
X93776190Y-121953761D01*
X93852380Y-121991857D01*
X93928571Y-121991857D01*
X94004761Y-121953761D01*
X94042857Y-121877571D01*
X94042857Y-121687095D01*
X94080952Y-121610904D01*
X94271428Y-121229952D02*
X93738095Y-121229952D01*
X94195238Y-121229952D02*
X94233333Y-121191857D01*
X94271428Y-121115666D01*
X94271428Y-121001380D01*
X94233333Y-120925190D01*
X94157142Y-120887095D01*
X93738095Y-120887095D01*
X93776190Y-120201380D02*
X93738095Y-120277571D01*
X93738095Y-120429952D01*
X93776190Y-120506142D01*
X93852380Y-120544238D01*
X94157142Y-120544238D01*
X94233333Y-120506142D01*
X94271428Y-120429952D01*
X94271428Y-120277571D01*
X94233333Y-120201380D01*
X94157142Y-120163285D01*
X94080952Y-120163285D01*
X94004761Y-120544238D01*
X93738095Y-119706142D02*
X93776190Y-119782333D01*
X93852380Y-119820428D01*
X94538095Y-119820428D01*
X93433333Y-118563285D02*
X93471428Y-118601380D01*
X93585714Y-118677571D01*
X93661904Y-118715666D01*
X93776190Y-118753761D01*
X93966666Y-118791857D01*
X94119047Y-118791857D01*
X94309523Y-118753761D01*
X94423809Y-118715666D01*
X94500000Y-118677571D01*
X94614285Y-118601380D01*
X94652380Y-118563285D01*
X93738095Y-118258523D02*
X94271428Y-118258523D01*
X94119047Y-118258523D02*
X94195238Y-118220428D01*
X94233333Y-118182333D01*
X94271428Y-118106142D01*
X94271428Y-118029952D01*
X93776190Y-117458523D02*
X93738095Y-117534714D01*
X93738095Y-117687095D01*
X93776190Y-117763285D01*
X93852380Y-117801380D01*
X94157142Y-117801380D01*
X94233333Y-117763285D01*
X94271428Y-117687095D01*
X94271428Y-117534714D01*
X94233333Y-117458523D01*
X94157142Y-117420428D01*
X94080952Y-117420428D01*
X94004761Y-117801380D01*
X94271428Y-117153761D02*
X93738095Y-116963285D01*
X94271428Y-116772809D01*
X93814285Y-116468047D02*
X93776190Y-116429952D01*
X93738095Y-116468047D01*
X93776190Y-116506142D01*
X93814285Y-116468047D01*
X93738095Y-116468047D01*
X93966666Y-115515666D02*
X93966666Y-115134714D01*
X93738095Y-115591857D02*
X94538095Y-115325190D01*
X93738095Y-115058523D01*
X93433333Y-114868047D02*
X93471428Y-114829952D01*
X93585714Y-114753761D01*
X93661904Y-114715666D01*
X93776190Y-114677571D01*
X93966666Y-114639476D01*
X94119047Y-114639476D01*
X94309523Y-114677571D01*
X94423809Y-114715666D01*
X94500000Y-114753761D01*
X94614285Y-114829952D01*
X94652380Y-114868047D01*
X92971428Y-127172809D02*
X92323809Y-127172809D01*
X92247619Y-127210904D01*
X92209523Y-127249000D01*
X92171428Y-127325190D01*
X92171428Y-127439476D01*
X92209523Y-127515666D01*
X92476190Y-127172809D02*
X92438095Y-127249000D01*
X92438095Y-127401380D01*
X92476190Y-127477571D01*
X92514285Y-127515666D01*
X92590476Y-127553761D01*
X92819047Y-127553761D01*
X92895238Y-127515666D01*
X92933333Y-127477571D01*
X92971428Y-127401380D01*
X92971428Y-127249000D01*
X92933333Y-127172809D01*
X92438095Y-126791857D02*
X92971428Y-126791857D01*
X93238095Y-126791857D02*
X93200000Y-126829952D01*
X93161904Y-126791857D01*
X93200000Y-126753761D01*
X93238095Y-126791857D01*
X93161904Y-126791857D01*
X92971428Y-126525190D02*
X92971428Y-126220428D01*
X93238095Y-126410904D02*
X92552380Y-126410904D01*
X92476190Y-126372809D01*
X92438095Y-126296619D01*
X92438095Y-126220428D01*
X92438095Y-125953761D02*
X93238095Y-125953761D01*
X92438095Y-125610904D02*
X92857142Y-125610904D01*
X92933333Y-125649000D01*
X92971428Y-125725190D01*
X92971428Y-125839476D01*
X92933333Y-125915666D01*
X92895238Y-125953761D01*
X92971428Y-124887095D02*
X92438095Y-124887095D01*
X92971428Y-125229952D02*
X92552380Y-125229952D01*
X92476190Y-125191857D01*
X92438095Y-125115666D01*
X92438095Y-125001380D01*
X92476190Y-124925190D01*
X92514285Y-124887095D01*
X92438095Y-124506142D02*
X93238095Y-124506142D01*
X92933333Y-124506142D02*
X92971428Y-124429952D01*
X92971428Y-124277571D01*
X92933333Y-124201380D01*
X92895238Y-124163285D01*
X92819047Y-124125190D01*
X92590476Y-124125190D01*
X92514285Y-124163285D01*
X92476190Y-124201380D01*
X92438095Y-124277571D01*
X92438095Y-124429952D01*
X92476190Y-124506142D01*
X92514285Y-123782333D02*
X92476190Y-123744238D01*
X92438095Y-123782333D01*
X92476190Y-123820428D01*
X92514285Y-123782333D01*
X92438095Y-123782333D01*
X92476190Y-123058523D02*
X92438095Y-123134714D01*
X92438095Y-123287095D01*
X92476190Y-123363285D01*
X92514285Y-123401380D01*
X92590476Y-123439476D01*
X92819047Y-123439476D01*
X92895238Y-123401380D01*
X92933333Y-123363285D01*
X92971428Y-123287095D01*
X92971428Y-123134714D01*
X92933333Y-123058523D01*
X92438095Y-122601380D02*
X92476190Y-122677571D01*
X92514285Y-122715666D01*
X92590476Y-122753761D01*
X92819047Y-122753761D01*
X92895238Y-122715666D01*
X92933333Y-122677571D01*
X92971428Y-122601380D01*
X92971428Y-122487095D01*
X92933333Y-122410904D01*
X92895238Y-122372809D01*
X92819047Y-122334714D01*
X92590476Y-122334714D01*
X92514285Y-122372809D01*
X92476190Y-122410904D01*
X92438095Y-122487095D01*
X92438095Y-122601380D01*
X92438095Y-121991857D02*
X92971428Y-121991857D01*
X92895238Y-121991857D02*
X92933333Y-121953761D01*
X92971428Y-121877571D01*
X92971428Y-121763285D01*
X92933333Y-121687095D01*
X92857142Y-121649000D01*
X92438095Y-121649000D01*
X92857142Y-121649000D02*
X92933333Y-121610904D01*
X92971428Y-121534714D01*
X92971428Y-121420428D01*
X92933333Y-121344238D01*
X92857142Y-121306142D01*
X92438095Y-121306142D01*
X93276190Y-120353761D02*
X92247619Y-121039476D01*
X92971428Y-120201380D02*
X92971428Y-119896619D01*
X93238095Y-120087095D02*
X92552380Y-120087095D01*
X92476190Y-120049000D01*
X92438095Y-119972809D01*
X92438095Y-119896619D01*
X92476190Y-119325190D02*
X92438095Y-119401380D01*
X92438095Y-119553761D01*
X92476190Y-119629952D01*
X92552380Y-119668047D01*
X92857142Y-119668047D01*
X92933333Y-119629952D01*
X92971428Y-119553761D01*
X92971428Y-119401380D01*
X92933333Y-119325190D01*
X92857142Y-119287095D01*
X92780952Y-119287095D01*
X92704761Y-119668047D01*
X92438095Y-118944238D02*
X93238095Y-118944238D01*
X92933333Y-118944238D02*
X92971428Y-118868047D01*
X92971428Y-118715666D01*
X92933333Y-118639476D01*
X92895238Y-118601380D01*
X92819047Y-118563285D01*
X92590476Y-118563285D01*
X92514285Y-118601380D01*
X92476190Y-118639476D01*
X92438095Y-118715666D01*
X92438095Y-118868047D01*
X92476190Y-118944238D01*
X92438095Y-118106142D02*
X92476190Y-118182333D01*
X92552380Y-118220428D01*
X93238095Y-118220428D01*
D11*
X114420000Y-129540000D02*
X114420000Y-130810000D01*
X115690000Y-129540000D02*
X114420000Y-129540000D01*
X166870000Y-131852929D02*
X166870000Y-132250000D01*
X166110000Y-131852929D02*
X166110000Y-132250000D01*
X166870000Y-140910000D02*
X166870000Y-134910000D01*
X166110000Y-140910000D02*
X166870000Y-140910000D01*
X166110000Y-134910000D02*
X166110000Y-140910000D01*
X165220000Y-132250000D02*
X165220000Y-134910000D01*
X164330000Y-131852929D02*
X164330000Y-132250000D01*
X163570000Y-131852929D02*
X163570000Y-132250000D01*
X164330000Y-140910000D02*
X164330000Y-134910000D01*
X163570000Y-140910000D02*
X164330000Y-140910000D01*
X163570000Y-134910000D02*
X163570000Y-140910000D01*
X162680000Y-132250000D02*
X162680000Y-134910000D01*
X161790000Y-131852929D02*
X161790000Y-132250000D01*
X161030000Y-131852929D02*
X161030000Y-132250000D01*
X161790000Y-140910000D02*
X161790000Y-134910000D01*
X161030000Y-140910000D02*
X161790000Y-140910000D01*
X161030000Y-134910000D02*
X161030000Y-140910000D01*
X160140000Y-132250000D02*
X160140000Y-134910000D01*
X159250000Y-131852929D02*
X159250000Y-132250000D01*
X158490000Y-131852929D02*
X158490000Y-132250000D01*
X159250000Y-140910000D02*
X159250000Y-134910000D01*
X158490000Y-140910000D02*
X159250000Y-140910000D01*
X158490000Y-134910000D02*
X158490000Y-140910000D01*
X157600000Y-132250000D02*
X157600000Y-134910000D01*
X156710000Y-131852929D02*
X156710000Y-132250000D01*
X155950000Y-131852929D02*
X155950000Y-132250000D01*
X156710000Y-140910000D02*
X156710000Y-134910000D01*
X155950000Y-140910000D02*
X156710000Y-140910000D01*
X155950000Y-134910000D02*
X155950000Y-140910000D01*
X155060000Y-132250000D02*
X155060000Y-134910000D01*
X154170000Y-131852929D02*
X154170000Y-132250000D01*
X153410000Y-131852929D02*
X153410000Y-132250000D01*
X154170000Y-140910000D02*
X154170000Y-134910000D01*
X153410000Y-140910000D02*
X154170000Y-140910000D01*
X153410000Y-134910000D02*
X153410000Y-140910000D01*
X152520000Y-132250000D02*
X152520000Y-134910000D01*
X151630000Y-131852929D02*
X151630000Y-132250000D01*
X150870000Y-131852929D02*
X150870000Y-132250000D01*
X151630000Y-140910000D02*
X151630000Y-134910000D01*
X150870000Y-140910000D02*
X151630000Y-140910000D01*
X150870000Y-134910000D02*
X150870000Y-140910000D01*
X149980000Y-132250000D02*
X149980000Y-134910000D01*
X149090000Y-131852929D02*
X149090000Y-132250000D01*
X148330000Y-131852929D02*
X148330000Y-132250000D01*
X149090000Y-140910000D02*
X149090000Y-134910000D01*
X148330000Y-140910000D02*
X149090000Y-140910000D01*
X148330000Y-134910000D02*
X148330000Y-140910000D01*
X147440000Y-132250000D02*
X147440000Y-134910000D01*
X146550000Y-131852929D02*
X146550000Y-132250000D01*
X145790000Y-131852929D02*
X145790000Y-132250000D01*
X146550000Y-140910000D02*
X146550000Y-134910000D01*
X145790000Y-140910000D02*
X146550000Y-140910000D01*
X145790000Y-134910000D02*
X145790000Y-140910000D01*
X144900000Y-132250000D02*
X144900000Y-134910000D01*
X144010000Y-131852929D02*
X144010000Y-132250000D01*
X143250000Y-131852929D02*
X143250000Y-132250000D01*
X144010000Y-140910000D02*
X144010000Y-134910000D01*
X143250000Y-140910000D02*
X144010000Y-140910000D01*
X143250000Y-134910000D02*
X143250000Y-140910000D01*
X142360000Y-132250000D02*
X142360000Y-134910000D01*
X141470000Y-131852929D02*
X141470000Y-132250000D01*
X140710000Y-131852929D02*
X140710000Y-132250000D01*
X141470000Y-140910000D02*
X141470000Y-134910000D01*
X140710000Y-140910000D02*
X141470000Y-140910000D01*
X140710000Y-134910000D02*
X140710000Y-140910000D01*
X139820000Y-132250000D02*
X139820000Y-134910000D01*
X138930000Y-131852929D02*
X138930000Y-132250000D01*
X138170000Y-131852929D02*
X138170000Y-132250000D01*
X138930000Y-140910000D02*
X138930000Y-134910000D01*
X138170000Y-140910000D02*
X138930000Y-140910000D01*
X138170000Y-134910000D02*
X138170000Y-140910000D01*
X137280000Y-132250000D02*
X137280000Y-134910000D01*
X136390000Y-131852929D02*
X136390000Y-132250000D01*
X135630000Y-131852929D02*
X135630000Y-132250000D01*
X136390000Y-140910000D02*
X136390000Y-134910000D01*
X135630000Y-140910000D02*
X136390000Y-140910000D01*
X135630000Y-134910000D02*
X135630000Y-140910000D01*
X134740000Y-132250000D02*
X134740000Y-134910000D01*
X133850000Y-131852929D02*
X133850000Y-132250000D01*
X133090000Y-131852929D02*
X133090000Y-132250000D01*
X133850000Y-140910000D02*
X133850000Y-134910000D01*
X133090000Y-140910000D02*
X133850000Y-140910000D01*
X133090000Y-134910000D02*
X133090000Y-140910000D01*
X132200000Y-132250000D02*
X132200000Y-134910000D01*
X131310000Y-131852929D02*
X131310000Y-132250000D01*
X130550000Y-131852929D02*
X130550000Y-132250000D01*
X131310000Y-140910000D02*
X131310000Y-134910000D01*
X130550000Y-140910000D02*
X131310000Y-140910000D01*
X130550000Y-134910000D02*
X130550000Y-140910000D01*
X129660000Y-132250000D02*
X129660000Y-134910000D01*
X128770000Y-131852929D02*
X128770000Y-132250000D01*
X128010000Y-131852929D02*
X128010000Y-132250000D01*
X128770000Y-140910000D02*
X128770000Y-134910000D01*
X128010000Y-140910000D02*
X128770000Y-140910000D01*
X128010000Y-134910000D02*
X128010000Y-140910000D01*
X127120000Y-132250000D02*
X127120000Y-134910000D01*
X126230000Y-131852929D02*
X126230000Y-132250000D01*
X125470000Y-131852929D02*
X125470000Y-132250000D01*
X126230000Y-140910000D02*
X126230000Y-134910000D01*
X125470000Y-140910000D02*
X126230000Y-140910000D01*
X125470000Y-134910000D02*
X125470000Y-140910000D01*
X124580000Y-132250000D02*
X124580000Y-134910000D01*
X123690000Y-131852929D02*
X123690000Y-132250000D01*
X122930000Y-131852929D02*
X122930000Y-132250000D01*
X123690000Y-140910000D02*
X123690000Y-134910000D01*
X122930000Y-140910000D02*
X123690000Y-140910000D01*
X122930000Y-134910000D02*
X122930000Y-140910000D01*
X122040000Y-132250000D02*
X122040000Y-134910000D01*
X121150000Y-131852929D02*
X121150000Y-132250000D01*
X120390000Y-131852929D02*
X120390000Y-132250000D01*
X121150000Y-140910000D02*
X121150000Y-134910000D01*
X120390000Y-140910000D02*
X121150000Y-140910000D01*
X120390000Y-134910000D02*
X120390000Y-140910000D01*
X119500000Y-132250000D02*
X119500000Y-134910000D01*
X118610000Y-131852929D02*
X118610000Y-132250000D01*
X117850000Y-131852929D02*
X117850000Y-132250000D01*
X118610000Y-140910000D02*
X118610000Y-134910000D01*
X117850000Y-140910000D02*
X118610000Y-140910000D01*
X117850000Y-134910000D02*
X117850000Y-140910000D01*
X116960000Y-132250000D02*
X116960000Y-134910000D01*
X116070000Y-131920000D02*
X116070000Y-132250000D01*
X115310000Y-131920000D02*
X115310000Y-132250000D01*
X115970000Y-134910000D02*
X115970000Y-140910000D01*
X115850000Y-134910000D02*
X115850000Y-140910000D01*
X115730000Y-134910000D02*
X115730000Y-140910000D01*
X115610000Y-134910000D02*
X115610000Y-140910000D01*
X115490000Y-134910000D02*
X115490000Y-140910000D01*
X115370000Y-134910000D02*
X115370000Y-140910000D01*
X116070000Y-140910000D02*
X116070000Y-134910000D01*
X115310000Y-140910000D02*
X116070000Y-140910000D01*
X115310000Y-134910000D02*
X115310000Y-140910000D01*
X114360000Y-134910000D02*
X114360000Y-132250000D01*
X167820000Y-134910000D02*
X114360000Y-134910000D01*
X167820000Y-132250000D02*
X167820000Y-134910000D01*
X114360000Y-132250000D02*
X167820000Y-132250000D01*
D12*
X112872380Y-134861666D02*
X113586666Y-134861666D01*
X113729523Y-134814047D01*
X113824761Y-134718809D01*
X113872380Y-134575952D01*
X113872380Y-134480714D01*
X113872380Y-135861666D02*
X113872380Y-135290238D01*
X113872380Y-135575952D02*
X112872380Y-135575952D01*
X113015238Y-135480714D01*
X113110476Y-135385476D01*
X113158095Y-135290238D01*
M02*
