M48
INCH,TZ
T1C0.0157
T2C0.0354
T3C0.0394
T4C0.0433
T5C0.1200
%
G90
G05
T1
X62047Y-50616
X63047Y-50901
T2
X57797Y-45616
X57797Y-46616
X44297Y-45616
X44297Y-46616
X39297Y-47366
X39297Y-48366
X53297Y-45616
X53297Y-46616
X48797Y-45616
X48797Y-46616
X66797Y-45616
X66797Y-46616
X62297Y-45616
X62297Y-46616
T3
X45547Y-51500
X46547Y-51500
X47547Y-51500
X48547Y-51500
X49547Y-51500
X50547Y-51500
X51547Y-51500
X52547Y-51500
X53547Y-51500
X54547Y-51500
X55547Y-51500
X56547Y-51500
X57547Y-51500
X58547Y-51500
X59547Y-51500
X60547Y-51500
X61547Y-51500
X62547Y-51500
X63547Y-51500
X64547Y-51500
X65547Y-51500
T4
X52018Y-48230
X52018Y-50002
X54577Y-48230
X54577Y-50002
X65518Y-48230
X65518Y-50002
X68077Y-48230
X68077Y-50002
X47518Y-48230
X47518Y-50002
X50077Y-48230
X50077Y-50002
X61018Y-48230
X61018Y-50002
X63577Y-48230
X63577Y-50002
X43018Y-48230
X43018Y-50002
X45577Y-48230
X45577Y-50002
X56518Y-48230
X56518Y-50002
X59077Y-48230
X59077Y-50002
T5
X39297Y-50866
X39297Y-45649
X71797Y-45649
X71797Y-50866
T0
M30
