G04 #@! TF.GenerationSoftware,KiCad,Pcbnew,(5.1.8)-1*
G04 #@! TF.CreationDate,2022-02-18T22:37:17+01:00*
G04 #@! TF.ProjectId,BulkyMIDI-32 Extras,42756c6b-794d-4494-9449-2d3332204578,rev?*
G04 #@! TF.SameCoordinates,Original*
G04 #@! TF.FileFunction,Legend,Bot*
G04 #@! TF.FilePolarity,Positive*
%FSLAX46Y46*%
G04 Gerber Fmt 4.6, Leading zero omitted, Abs format (unit mm)*
G04 Created by KiCad (PCBNEW (5.1.8)-1) date 2022-02-18 22:37:17*
%MOMM*%
%LPD*%
G01*
G04 APERTURE LIST*
%ADD10C,0.100000*%
%ADD11C,0.150000*%
%ADD12C,0.010000*%
%ADD13C,0.500000*%
G04 APERTURE END LIST*
D10*
X129733309Y-153396904D02*
X129733309Y-152596904D01*
X129352357Y-153396904D02*
X129352357Y-152596904D01*
X128895214Y-153396904D01*
X128895214Y-152596904D01*
X128514261Y-153396904D02*
X128514261Y-152596904D01*
X128209500Y-152596904D01*
X128133309Y-152635000D01*
X128095214Y-152673095D01*
X128057119Y-152749285D01*
X128057119Y-152863571D01*
X128095214Y-152939761D01*
X128133309Y-152977857D01*
X128209500Y-153015952D01*
X128514261Y-153015952D01*
X127714261Y-152596904D02*
X127714261Y-153244523D01*
X127676166Y-153320714D01*
X127638071Y-153358809D01*
X127561880Y-153396904D01*
X127409500Y-153396904D01*
X127333309Y-153358809D01*
X127295214Y-153320714D01*
X127257119Y-153244523D01*
X127257119Y-152596904D01*
X126990452Y-152596904D02*
X126533309Y-152596904D01*
X126761880Y-153396904D02*
X126761880Y-152596904D01*
X126304738Y-152673095D02*
X126266642Y-152635000D01*
X126190452Y-152596904D01*
X125999976Y-152596904D01*
X125923785Y-152635000D01*
X125885690Y-152673095D01*
X125847595Y-152749285D01*
X125847595Y-152825476D01*
X125885690Y-152939761D01*
X126342833Y-153396904D01*
X125847595Y-153396904D01*
X114429809Y-153396904D02*
X114429809Y-152596904D01*
X114048857Y-153396904D02*
X114048857Y-152596904D01*
X113591714Y-153396904D01*
X113591714Y-152596904D01*
X113210761Y-153396904D02*
X113210761Y-152596904D01*
X112906000Y-152596904D01*
X112829809Y-152635000D01*
X112791714Y-152673095D01*
X112753619Y-152749285D01*
X112753619Y-152863571D01*
X112791714Y-152939761D01*
X112829809Y-152977857D01*
X112906000Y-153015952D01*
X113210761Y-153015952D01*
X112410761Y-152596904D02*
X112410761Y-153244523D01*
X112372666Y-153320714D01*
X112334571Y-153358809D01*
X112258380Y-153396904D01*
X112106000Y-153396904D01*
X112029809Y-153358809D01*
X111991714Y-153320714D01*
X111953619Y-153244523D01*
X111953619Y-152596904D01*
X111686952Y-152596904D02*
X111229809Y-152596904D01*
X111458380Y-153396904D02*
X111458380Y-152596904D01*
X110544095Y-153396904D02*
X111001238Y-153396904D01*
X110772666Y-153396904D02*
X110772666Y-152596904D01*
X110848857Y-152711190D01*
X110925047Y-152787380D01*
X111001238Y-152825476D01*
X134692904Y-56622904D02*
X134692904Y-55822904D01*
X134426238Y-56394333D01*
X134159571Y-55822904D01*
X134159571Y-56622904D01*
X133778619Y-56622904D02*
X133778619Y-55822904D01*
X133397666Y-56622904D02*
X133397666Y-55822904D01*
X133207190Y-55822904D01*
X133092904Y-55861000D01*
X133016714Y-55937190D01*
X132978619Y-56013380D01*
X132940523Y-56165761D01*
X132940523Y-56280047D01*
X132978619Y-56432428D01*
X133016714Y-56508619D01*
X133092904Y-56584809D01*
X133207190Y-56622904D01*
X133397666Y-56622904D01*
X132597666Y-56622904D02*
X132597666Y-55822904D01*
X131607190Y-56622904D02*
X131607190Y-55822904D01*
X131226238Y-56622904D02*
X131226238Y-55822904D01*
X130769095Y-56622904D01*
X130769095Y-55822904D01*
X155546238Y-56622904D02*
X155546238Y-55822904D01*
X155279571Y-56394333D01*
X155012904Y-55822904D01*
X155012904Y-56622904D01*
X154631952Y-56622904D02*
X154631952Y-55822904D01*
X154251000Y-56622904D02*
X154251000Y-55822904D01*
X154060523Y-55822904D01*
X153946238Y-55861000D01*
X153870047Y-55937190D01*
X153831952Y-56013380D01*
X153793857Y-56165761D01*
X153793857Y-56280047D01*
X153831952Y-56432428D01*
X153870047Y-56508619D01*
X153946238Y-56584809D01*
X154060523Y-56622904D01*
X154251000Y-56622904D01*
X153451000Y-56622904D02*
X153451000Y-55822904D01*
X152308142Y-55822904D02*
X152155761Y-55822904D01*
X152079571Y-55861000D01*
X152003380Y-55937190D01*
X151965285Y-56089571D01*
X151965285Y-56356238D01*
X152003380Y-56508619D01*
X152079571Y-56584809D01*
X152155761Y-56622904D01*
X152308142Y-56622904D01*
X152384333Y-56584809D01*
X152460523Y-56508619D01*
X152498619Y-56356238D01*
X152498619Y-56089571D01*
X152460523Y-55937190D01*
X152384333Y-55861000D01*
X152308142Y-55822904D01*
X151622428Y-55822904D02*
X151622428Y-56470523D01*
X151584333Y-56546714D01*
X151546238Y-56584809D01*
X151470047Y-56622904D01*
X151317666Y-56622904D01*
X151241476Y-56584809D01*
X151203380Y-56546714D01*
X151165285Y-56470523D01*
X151165285Y-55822904D01*
X150898619Y-55822904D02*
X150441476Y-55822904D01*
X150670047Y-56622904D02*
X150670047Y-55822904D01*
X168890904Y-83042428D02*
X168090904Y-83042428D01*
X168662333Y-83309095D01*
X168090904Y-83575761D01*
X168890904Y-83575761D01*
X168890904Y-83956714D02*
X168090904Y-83956714D01*
X168890904Y-84337666D02*
X168090904Y-84337666D01*
X168090904Y-84528142D01*
X168129000Y-84642428D01*
X168205190Y-84718619D01*
X168281380Y-84756714D01*
X168433761Y-84794809D01*
X168548047Y-84794809D01*
X168700428Y-84756714D01*
X168776619Y-84718619D01*
X168852809Y-84642428D01*
X168890904Y-84528142D01*
X168890904Y-84337666D01*
X168890904Y-85137666D02*
X168090904Y-85137666D01*
X168890904Y-85937666D02*
X168890904Y-85480523D01*
X168890904Y-85709095D02*
X168090904Y-85709095D01*
X168205190Y-85632904D01*
X168281380Y-85556714D01*
X168319476Y-85480523D01*
X168890904Y-103362428D02*
X168090904Y-103362428D01*
X168662333Y-103629095D01*
X168090904Y-103895761D01*
X168890904Y-103895761D01*
X168890904Y-104276714D02*
X168090904Y-104276714D01*
X168890904Y-104657666D02*
X168090904Y-104657666D01*
X168090904Y-104848142D01*
X168129000Y-104962428D01*
X168205190Y-105038619D01*
X168281380Y-105076714D01*
X168433761Y-105114809D01*
X168548047Y-105114809D01*
X168700428Y-105076714D01*
X168776619Y-105038619D01*
X168852809Y-104962428D01*
X168890904Y-104848142D01*
X168890904Y-104657666D01*
X168890904Y-105457666D02*
X168090904Y-105457666D01*
X168167095Y-105800523D02*
X168129000Y-105838619D01*
X168090904Y-105914809D01*
X168090904Y-106105285D01*
X168129000Y-106181476D01*
X168167095Y-106219571D01*
X168243285Y-106257666D01*
X168319476Y-106257666D01*
X168433761Y-106219571D01*
X168890904Y-105762428D01*
X168890904Y-106257666D01*
X168890904Y-123682428D02*
X168090904Y-123682428D01*
X168662333Y-123949095D01*
X168090904Y-124215761D01*
X168890904Y-124215761D01*
X168890904Y-124596714D02*
X168090904Y-124596714D01*
X168890904Y-124977666D02*
X168090904Y-124977666D01*
X168090904Y-125168142D01*
X168129000Y-125282428D01*
X168205190Y-125358619D01*
X168281380Y-125396714D01*
X168433761Y-125434809D01*
X168548047Y-125434809D01*
X168700428Y-125396714D01*
X168776619Y-125358619D01*
X168852809Y-125282428D01*
X168890904Y-125168142D01*
X168890904Y-124977666D01*
X168890904Y-125777666D02*
X168090904Y-125777666D01*
X168090904Y-126082428D02*
X168090904Y-126577666D01*
X168395666Y-126311000D01*
X168395666Y-126425285D01*
X168433761Y-126501476D01*
X168471857Y-126539571D01*
X168548047Y-126577666D01*
X168738523Y-126577666D01*
X168814714Y-126539571D01*
X168852809Y-126501476D01*
X168890904Y-126425285D01*
X168890904Y-126196714D01*
X168852809Y-126120523D01*
X168814714Y-126082428D01*
X71393095Y-135452808D02*
X72193095Y-135452808D01*
X71393095Y-135071856D02*
X72193095Y-135071856D01*
X71393095Y-134614713D01*
X72193095Y-134614713D01*
X71393095Y-134233760D02*
X72193095Y-134233760D01*
X72193095Y-133928999D01*
X72155000Y-133852808D01*
X72116904Y-133814713D01*
X72040714Y-133776618D01*
X71926428Y-133776618D01*
X71850238Y-133814713D01*
X71812142Y-133852808D01*
X71774047Y-133928999D01*
X71774047Y-134233760D01*
X72193095Y-133433760D02*
X71545476Y-133433760D01*
X71469285Y-133395665D01*
X71431190Y-133357570D01*
X71393095Y-133281379D01*
X71393095Y-133128999D01*
X71431190Y-133052808D01*
X71469285Y-133014713D01*
X71545476Y-132976618D01*
X72193095Y-132976618D01*
X72193095Y-132709951D02*
X72193095Y-132252808D01*
X71393095Y-132481379D02*
X72193095Y-132481379D01*
X71393095Y-131567094D02*
X71393095Y-132024237D01*
X71393095Y-131795665D02*
X72193095Y-131795665D01*
X72078809Y-131871856D01*
X72002619Y-131948046D01*
X71964523Y-132024237D01*
X71393095Y-122112808D02*
X72193095Y-122112808D01*
X71393095Y-121731856D02*
X72193095Y-121731856D01*
X71393095Y-121274713D01*
X72193095Y-121274713D01*
X71393095Y-120893760D02*
X72193095Y-120893760D01*
X72193095Y-120588999D01*
X72155000Y-120512808D01*
X72116904Y-120474713D01*
X72040714Y-120436618D01*
X71926428Y-120436618D01*
X71850238Y-120474713D01*
X71812142Y-120512808D01*
X71774047Y-120588999D01*
X71774047Y-120893760D01*
X72193095Y-120093760D02*
X71545476Y-120093760D01*
X71469285Y-120055665D01*
X71431190Y-120017570D01*
X71393095Y-119941379D01*
X71393095Y-119788999D01*
X71431190Y-119712808D01*
X71469285Y-119674713D01*
X71545476Y-119636618D01*
X72193095Y-119636618D01*
X72193095Y-119369951D02*
X72193095Y-118912808D01*
X71393095Y-119141379D02*
X72193095Y-119141379D01*
X72116904Y-118684237D02*
X72155000Y-118646141D01*
X72193095Y-118569951D01*
X72193095Y-118379475D01*
X72155000Y-118303284D01*
X72116904Y-118265189D01*
X72040714Y-118227094D01*
X71964523Y-118227094D01*
X71850238Y-118265189D01*
X71393095Y-118722332D01*
X71393095Y-118227094D01*
X72193095Y-108772808D02*
X72193095Y-108620427D01*
X72155000Y-108544237D01*
X72078809Y-108468046D01*
X71926428Y-108429951D01*
X71659761Y-108429951D01*
X71507380Y-108468046D01*
X71431190Y-108544237D01*
X71393095Y-108620427D01*
X71393095Y-108772808D01*
X71431190Y-108848999D01*
X71507380Y-108925189D01*
X71659761Y-108963284D01*
X71926428Y-108963284D01*
X72078809Y-108925189D01*
X72155000Y-108848999D01*
X72193095Y-108772808D01*
X72193095Y-108087094D02*
X71545476Y-108087094D01*
X71469285Y-108048999D01*
X71431190Y-108010903D01*
X71393095Y-107934713D01*
X71393095Y-107782332D01*
X71431190Y-107706141D01*
X71469285Y-107668046D01*
X71545476Y-107629951D01*
X72193095Y-107629951D01*
X72193095Y-107363284D02*
X72193095Y-106906141D01*
X71393095Y-107134713D02*
X72193095Y-107134713D01*
X71393095Y-106639475D02*
X72193095Y-106639475D01*
X72193095Y-106334713D01*
X72155000Y-106258522D01*
X72116904Y-106220427D01*
X72040714Y-106182332D01*
X71926428Y-106182332D01*
X71850238Y-106220427D01*
X71812142Y-106258522D01*
X71774047Y-106334713D01*
X71774047Y-106639475D01*
X72193095Y-105839475D02*
X71545476Y-105839475D01*
X71469285Y-105801379D01*
X71431190Y-105763284D01*
X71393095Y-105687094D01*
X71393095Y-105534713D01*
X71431190Y-105458522D01*
X71469285Y-105420427D01*
X71545476Y-105382332D01*
X72193095Y-105382332D01*
X72193095Y-105115665D02*
X72193095Y-104658522D01*
X71393095Y-104887094D02*
X72193095Y-104887094D01*
D11*
X84756428Y-58507380D02*
X85232619Y-58507380D01*
X85280238Y-58983571D01*
X85232619Y-58935952D01*
X85137380Y-58888333D01*
X84899285Y-58888333D01*
X84804047Y-58935952D01*
X84756428Y-58983571D01*
X84708809Y-59078809D01*
X84708809Y-59316904D01*
X84756428Y-59412142D01*
X84804047Y-59459761D01*
X84899285Y-59507380D01*
X85137380Y-59507380D01*
X85232619Y-59459761D01*
X85280238Y-59412142D01*
X84423095Y-58507380D02*
X84089761Y-59507380D01*
X83756428Y-58507380D01*
X82661190Y-59507380D02*
X82661190Y-58507380D01*
X82423095Y-58507380D01*
X82280238Y-58555000D01*
X82185000Y-58650238D01*
X82137380Y-58745476D01*
X82089761Y-58935952D01*
X82089761Y-59078809D01*
X82137380Y-59269285D01*
X82185000Y-59364523D01*
X82280238Y-59459761D01*
X82423095Y-59507380D01*
X82661190Y-59507380D01*
X81089761Y-59412142D02*
X81137380Y-59459761D01*
X81280238Y-59507380D01*
X81375476Y-59507380D01*
X81518333Y-59459761D01*
X81613571Y-59364523D01*
X81661190Y-59269285D01*
X81708809Y-59078809D01*
X81708809Y-58935952D01*
X81661190Y-58745476D01*
X81613571Y-58650238D01*
X81518333Y-58555000D01*
X81375476Y-58507380D01*
X81280238Y-58507380D01*
X81137380Y-58555000D01*
X81089761Y-58602619D01*
D12*
G36*
X115685970Y-125287888D02*
G01*
X115464949Y-125296671D01*
X115332008Y-125314279D01*
X115267720Y-125343139D01*
X115252500Y-125380750D01*
X115300831Y-125464992D01*
X115342878Y-125476000D01*
X115462751Y-125515769D01*
X115619099Y-125639427D01*
X115817867Y-125853497D01*
X116065000Y-126164503D01*
X116366441Y-126578967D01*
X116428931Y-126667927D01*
X117030500Y-127528238D01*
X117030500Y-128537005D01*
X117029796Y-128916334D01*
X117025778Y-129190001D01*
X117015592Y-129379342D01*
X116996382Y-129505693D01*
X116965292Y-129590391D01*
X116919467Y-129654773D01*
X116874637Y-129701636D01*
X116731479Y-129808915D01*
X116596058Y-129857277D01*
X116588887Y-129857500D01*
X116483195Y-129896530D01*
X116459000Y-129952750D01*
X116475077Y-129987169D01*
X116534147Y-130012362D01*
X116652473Y-130029683D01*
X116846314Y-130040488D01*
X117131932Y-130046131D01*
X117525588Y-130047968D01*
X117602000Y-130048000D01*
X118015033Y-130046660D01*
X118317346Y-130041737D01*
X118525200Y-130031877D01*
X118654858Y-130015723D01*
X118722579Y-129991922D01*
X118744625Y-129959117D01*
X118745000Y-129952750D01*
X118691777Y-129875242D01*
X118615114Y-129857500D01*
X118482660Y-129814445D01*
X118337888Y-129709975D01*
X118329364Y-129701636D01*
X118266981Y-129633473D01*
X118223934Y-129559768D01*
X118196642Y-129456969D01*
X118181528Y-129301522D01*
X118175011Y-129069875D01*
X118173514Y-128738476D01*
X118173500Y-128675967D01*
X118173500Y-127806162D01*
X118848910Y-126765878D01*
X119126536Y-126344488D01*
X119350059Y-126021357D01*
X119529346Y-125785033D01*
X119674263Y-125624061D01*
X119794675Y-125526990D01*
X119900450Y-125482366D01*
X119960064Y-125476000D01*
X120058229Y-125433877D01*
X120078500Y-125380750D01*
X120062253Y-125345901D01*
X120002529Y-125320525D01*
X119882858Y-125303210D01*
X119686768Y-125292542D01*
X119397788Y-125287111D01*
X118999446Y-125285505D01*
X118967250Y-125285500D01*
X118557938Y-125287064D01*
X118259604Y-125292628D01*
X118056259Y-125303499D01*
X117931910Y-125320985D01*
X117870566Y-125346392D01*
X117856000Y-125376333D01*
X117910054Y-125455028D01*
X117998875Y-125487458D01*
X118114376Y-125531674D01*
X118158885Y-125628213D01*
X118129755Y-125786866D01*
X118024337Y-126017425D01*
X117839984Y-126329683D01*
X117721396Y-126513410D01*
X117529737Y-126799210D01*
X117392138Y-126989286D01*
X117297100Y-127096687D01*
X117233122Y-127134458D01*
X117189628Y-127116660D01*
X117071698Y-126971006D01*
X116926471Y-126765273D01*
X116771255Y-126527569D01*
X116623358Y-126286002D01*
X116500090Y-126068679D01*
X116418759Y-125903708D01*
X116395500Y-125827071D01*
X116442079Y-125678214D01*
X116552635Y-125544942D01*
X116683396Y-125477371D01*
X116702126Y-125475999D01*
X116768035Y-125424749D01*
X116776500Y-125380750D01*
X116757395Y-125339683D01*
X116687127Y-125312056D01*
X116546267Y-125295438D01*
X116315386Y-125287402D01*
X116014500Y-125285500D01*
X115685970Y-125287888D01*
G37*
X115685970Y-125287888D02*
X115464949Y-125296671D01*
X115332008Y-125314279D01*
X115267720Y-125343139D01*
X115252500Y-125380750D01*
X115300831Y-125464992D01*
X115342878Y-125476000D01*
X115462751Y-125515769D01*
X115619099Y-125639427D01*
X115817867Y-125853497D01*
X116065000Y-126164503D01*
X116366441Y-126578967D01*
X116428931Y-126667927D01*
X117030500Y-127528238D01*
X117030500Y-128537005D01*
X117029796Y-128916334D01*
X117025778Y-129190001D01*
X117015592Y-129379342D01*
X116996382Y-129505693D01*
X116965292Y-129590391D01*
X116919467Y-129654773D01*
X116874637Y-129701636D01*
X116731479Y-129808915D01*
X116596058Y-129857277D01*
X116588887Y-129857500D01*
X116483195Y-129896530D01*
X116459000Y-129952750D01*
X116475077Y-129987169D01*
X116534147Y-130012362D01*
X116652473Y-130029683D01*
X116846314Y-130040488D01*
X117131932Y-130046131D01*
X117525588Y-130047968D01*
X117602000Y-130048000D01*
X118015033Y-130046660D01*
X118317346Y-130041737D01*
X118525200Y-130031877D01*
X118654858Y-130015723D01*
X118722579Y-129991922D01*
X118744625Y-129959117D01*
X118745000Y-129952750D01*
X118691777Y-129875242D01*
X118615114Y-129857500D01*
X118482660Y-129814445D01*
X118337888Y-129709975D01*
X118329364Y-129701636D01*
X118266981Y-129633473D01*
X118223934Y-129559768D01*
X118196642Y-129456969D01*
X118181528Y-129301522D01*
X118175011Y-129069875D01*
X118173514Y-128738476D01*
X118173500Y-128675967D01*
X118173500Y-127806162D01*
X118848910Y-126765878D01*
X119126536Y-126344488D01*
X119350059Y-126021357D01*
X119529346Y-125785033D01*
X119674263Y-125624061D01*
X119794675Y-125526990D01*
X119900450Y-125482366D01*
X119960064Y-125476000D01*
X120058229Y-125433877D01*
X120078500Y-125380750D01*
X120062253Y-125345901D01*
X120002529Y-125320525D01*
X119882858Y-125303210D01*
X119686768Y-125292542D01*
X119397788Y-125287111D01*
X118999446Y-125285505D01*
X118967250Y-125285500D01*
X118557938Y-125287064D01*
X118259604Y-125292628D01*
X118056259Y-125303499D01*
X117931910Y-125320985D01*
X117870566Y-125346392D01*
X117856000Y-125376333D01*
X117910054Y-125455028D01*
X117998875Y-125487458D01*
X118114376Y-125531674D01*
X118158885Y-125628213D01*
X118129755Y-125786866D01*
X118024337Y-126017425D01*
X117839984Y-126329683D01*
X117721396Y-126513410D01*
X117529737Y-126799210D01*
X117392138Y-126989286D01*
X117297100Y-127096687D01*
X117233122Y-127134458D01*
X117189628Y-127116660D01*
X117071698Y-126971006D01*
X116926471Y-126765273D01*
X116771255Y-126527569D01*
X116623358Y-126286002D01*
X116500090Y-126068679D01*
X116418759Y-125903708D01*
X116395500Y-125827071D01*
X116442079Y-125678214D01*
X116552635Y-125544942D01*
X116683396Y-125477371D01*
X116702126Y-125475999D01*
X116768035Y-125424749D01*
X116776500Y-125380750D01*
X116757395Y-125339683D01*
X116687127Y-125312056D01*
X116546267Y-125295438D01*
X116315386Y-125287402D01*
X116014500Y-125285500D01*
X115685970Y-125287888D01*
G36*
X121088903Y-125287077D02*
G01*
X120812125Y-125292881D01*
X120628017Y-125304520D01*
X120519425Y-125323602D01*
X120469196Y-125351735D01*
X120459500Y-125380750D01*
X120514814Y-125457287D01*
X120620361Y-125476000D01*
X120760071Y-125490514D01*
X120912482Y-125539387D01*
X121088516Y-125630618D01*
X121299099Y-125772204D01*
X121555152Y-125972142D01*
X121867599Y-126238429D01*
X122247362Y-126579063D01*
X122705366Y-127002042D01*
X122707910Y-127004414D01*
X122695970Y-127063937D01*
X122612907Y-127201677D01*
X122456567Y-127420442D01*
X122224797Y-127723043D01*
X121915441Y-128112290D01*
X121526348Y-128590993D01*
X121055362Y-129161962D01*
X121040570Y-129179793D01*
X120787175Y-129467930D01*
X120566892Y-129684265D01*
X120395567Y-129813650D01*
X120357945Y-129832476D01*
X120213222Y-129901285D01*
X120153436Y-129954485D01*
X120185882Y-129993833D01*
X120317856Y-130021086D01*
X120556651Y-130037999D01*
X120909565Y-130046329D01*
X121253250Y-130048000D01*
X121674748Y-130045844D01*
X121982837Y-130038726D01*
X122191050Y-130025669D01*
X122312915Y-130005697D01*
X122361963Y-129977833D01*
X122364500Y-129967807D01*
X122312976Y-129882288D01*
X122225733Y-129824932D01*
X122109461Y-129751388D01*
X122066584Y-129697552D01*
X122098406Y-129630255D01*
X122199135Y-129481399D01*
X122356743Y-129267295D01*
X122559201Y-129004254D01*
X122794482Y-128708588D01*
X122810347Y-128688971D01*
X123574492Y-127745088D01*
X123539250Y-129635250D01*
X123271677Y-129762250D01*
X123099232Y-129851375D01*
X123008083Y-129920389D01*
X123005550Y-129971693D01*
X123098955Y-130007690D01*
X123295618Y-130030782D01*
X123602861Y-130043371D01*
X124028005Y-130047860D01*
X124142500Y-130048000D01*
X124558768Y-130046467D01*
X124863775Y-130041044D01*
X125073234Y-130030491D01*
X125202858Y-130013566D01*
X125268358Y-129989030D01*
X125285500Y-129957795D01*
X125230515Y-129882464D01*
X125097968Y-129826412D01*
X125095079Y-129825767D01*
X124991135Y-129799349D01*
X124908042Y-129761810D01*
X124843468Y-129699847D01*
X124795078Y-129600157D01*
X124760542Y-129449438D01*
X124737527Y-129234388D01*
X124723698Y-128941704D01*
X124716725Y-128558085D01*
X124714274Y-128070227D01*
X124714000Y-127652620D01*
X124714391Y-127116657D01*
X124716172Y-126693211D01*
X124720259Y-126367801D01*
X124727567Y-126125944D01*
X124739011Y-125953160D01*
X124755506Y-125834965D01*
X124777966Y-125756879D01*
X124807307Y-125704420D01*
X124839385Y-125668115D01*
X124995540Y-125556234D01*
X125125135Y-125502481D01*
X125245051Y-125442532D01*
X125285500Y-125373866D01*
X125264639Y-125341566D01*
X125191759Y-125317889D01*
X125051421Y-125301641D01*
X124828184Y-125291627D01*
X124506605Y-125286655D01*
X124142500Y-125285500D01*
X123718087Y-125287424D01*
X123406463Y-125293881D01*
X123193466Y-125305891D01*
X123064933Y-125324476D01*
X123006702Y-125350660D01*
X122999500Y-125367993D01*
X123053503Y-125441278D01*
X123186870Y-125517220D01*
X123221708Y-125530838D01*
X123387908Y-125616652D01*
X123501565Y-125720678D01*
X123509476Y-125733692D01*
X123535661Y-125848716D01*
X123552932Y-126062627D01*
X123559730Y-126347521D01*
X123557144Y-126585807D01*
X123539250Y-127315421D01*
X122789808Y-126609571D01*
X122479141Y-126311451D01*
X122259036Y-126082811D01*
X122123395Y-125910755D01*
X122066118Y-125782388D01*
X122081107Y-125684813D01*
X122162263Y-125605136D01*
X122283751Y-125539500D01*
X122420533Y-125455852D01*
X122488519Y-125374960D01*
X122490126Y-125364875D01*
X122458912Y-125333430D01*
X122354962Y-125310833D01*
X122164699Y-125296021D01*
X121874542Y-125287930D01*
X121475500Y-125285500D01*
X121088903Y-125287077D01*
G37*
X121088903Y-125287077D02*
X120812125Y-125292881D01*
X120628017Y-125304520D01*
X120519425Y-125323602D01*
X120469196Y-125351735D01*
X120459500Y-125380750D01*
X120514814Y-125457287D01*
X120620361Y-125476000D01*
X120760071Y-125490514D01*
X120912482Y-125539387D01*
X121088516Y-125630618D01*
X121299099Y-125772204D01*
X121555152Y-125972142D01*
X121867599Y-126238429D01*
X122247362Y-126579063D01*
X122705366Y-127002042D01*
X122707910Y-127004414D01*
X122695970Y-127063937D01*
X122612907Y-127201677D01*
X122456567Y-127420442D01*
X122224797Y-127723043D01*
X121915441Y-128112290D01*
X121526348Y-128590993D01*
X121055362Y-129161962D01*
X121040570Y-129179793D01*
X120787175Y-129467930D01*
X120566892Y-129684265D01*
X120395567Y-129813650D01*
X120357945Y-129832476D01*
X120213222Y-129901285D01*
X120153436Y-129954485D01*
X120185882Y-129993833D01*
X120317856Y-130021086D01*
X120556651Y-130037999D01*
X120909565Y-130046329D01*
X121253250Y-130048000D01*
X121674748Y-130045844D01*
X121982837Y-130038726D01*
X122191050Y-130025669D01*
X122312915Y-130005697D01*
X122361963Y-129977833D01*
X122364500Y-129967807D01*
X122312976Y-129882288D01*
X122225733Y-129824932D01*
X122109461Y-129751388D01*
X122066584Y-129697552D01*
X122098406Y-129630255D01*
X122199135Y-129481399D01*
X122356743Y-129267295D01*
X122559201Y-129004254D01*
X122794482Y-128708588D01*
X122810347Y-128688971D01*
X123574492Y-127745088D01*
X123539250Y-129635250D01*
X123271677Y-129762250D01*
X123099232Y-129851375D01*
X123008083Y-129920389D01*
X123005550Y-129971693D01*
X123098955Y-130007690D01*
X123295618Y-130030782D01*
X123602861Y-130043371D01*
X124028005Y-130047860D01*
X124142500Y-130048000D01*
X124558768Y-130046467D01*
X124863775Y-130041044D01*
X125073234Y-130030491D01*
X125202858Y-130013566D01*
X125268358Y-129989030D01*
X125285500Y-129957795D01*
X125230515Y-129882464D01*
X125097968Y-129826412D01*
X125095079Y-129825767D01*
X124991135Y-129799349D01*
X124908042Y-129761810D01*
X124843468Y-129699847D01*
X124795078Y-129600157D01*
X124760542Y-129449438D01*
X124737527Y-129234388D01*
X124723698Y-128941704D01*
X124716725Y-128558085D01*
X124714274Y-128070227D01*
X124714000Y-127652620D01*
X124714391Y-127116657D01*
X124716172Y-126693211D01*
X124720259Y-126367801D01*
X124727567Y-126125944D01*
X124739011Y-125953160D01*
X124755506Y-125834965D01*
X124777966Y-125756879D01*
X124807307Y-125704420D01*
X124839385Y-125668115D01*
X124995540Y-125556234D01*
X125125135Y-125502481D01*
X125245051Y-125442532D01*
X125285500Y-125373866D01*
X125264639Y-125341566D01*
X125191759Y-125317889D01*
X125051421Y-125301641D01*
X124828184Y-125291627D01*
X124506605Y-125286655D01*
X124142500Y-125285500D01*
X123718087Y-125287424D01*
X123406463Y-125293881D01*
X123193466Y-125305891D01*
X123064933Y-125324476D01*
X123006702Y-125350660D01*
X122999500Y-125367993D01*
X123053503Y-125441278D01*
X123186870Y-125517220D01*
X123221708Y-125530838D01*
X123387908Y-125616652D01*
X123501565Y-125720678D01*
X123509476Y-125733692D01*
X123535661Y-125848716D01*
X123552932Y-126062627D01*
X123559730Y-126347521D01*
X123557144Y-126585807D01*
X123539250Y-127315421D01*
X122789808Y-126609571D01*
X122479141Y-126311451D01*
X122259036Y-126082811D01*
X122123395Y-125910755D01*
X122066118Y-125782388D01*
X122081107Y-125684813D01*
X122162263Y-125605136D01*
X122283751Y-125539500D01*
X122420533Y-125455852D01*
X122488519Y-125374960D01*
X122490126Y-125364875D01*
X122458912Y-125333430D01*
X122354962Y-125310833D01*
X122164699Y-125296021D01*
X121874542Y-125287930D01*
X121475500Y-125285500D01*
X121088903Y-125287077D01*
G36*
X127788716Y-125287112D02*
G01*
X127482459Y-125292747D01*
X127272288Y-125303596D01*
X127142762Y-125320855D01*
X127078441Y-125345716D01*
X127063500Y-125373866D01*
X127117675Y-125453540D01*
X127223866Y-125502481D01*
X127394201Y-125579848D01*
X127509616Y-125668115D01*
X127545644Y-125709906D01*
X127574032Y-125764600D01*
X127595685Y-125846631D01*
X127611512Y-125970437D01*
X127622419Y-126150452D01*
X127629314Y-126401112D01*
X127633104Y-126736852D01*
X127634697Y-127172109D01*
X127635000Y-127663149D01*
X127634806Y-128198909D01*
X127633541Y-128621902D01*
X127630185Y-128946360D01*
X127623719Y-129186516D01*
X127613121Y-129356603D01*
X127597372Y-129470853D01*
X127575450Y-129543499D01*
X127546336Y-129588774D01*
X127509010Y-129620910D01*
X127493871Y-129631649D01*
X127323750Y-129696238D01*
X127077004Y-129726529D01*
X126799368Y-129722233D01*
X126536578Y-129683067D01*
X126394791Y-129638523D01*
X126210607Y-129516826D01*
X126023944Y-129297396D01*
X125936456Y-129165144D01*
X125773978Y-128924234D01*
X125658339Y-128800420D01*
X125586377Y-128794059D01*
X125554925Y-128905506D01*
X125560820Y-129135116D01*
X125567319Y-129206625D01*
X125595025Y-129462883D01*
X125624272Y-129698769D01*
X125645284Y-129841625D01*
X125680634Y-130048000D01*
X127515067Y-130048000D01*
X128055679Y-130047167D01*
X128481964Y-130044256D01*
X128806589Y-130038643D01*
X129042221Y-130029704D01*
X129201524Y-130016818D01*
X129297164Y-129999361D01*
X129341808Y-129976711D01*
X129349500Y-129957795D01*
X129294636Y-129881628D01*
X129165585Y-129827196D01*
X129059537Y-129802158D01*
X128974746Y-129769810D01*
X128908970Y-129716927D01*
X128859967Y-129630287D01*
X128825496Y-129496664D01*
X128803314Y-129302836D01*
X128791181Y-129035578D01*
X128786853Y-128681667D01*
X128788091Y-128227878D01*
X128792651Y-127660988D01*
X128792930Y-127628954D01*
X128809750Y-125698250D01*
X129077324Y-125571250D01*
X129249769Y-125482124D01*
X129340918Y-125413110D01*
X129343451Y-125361806D01*
X129250046Y-125325809D01*
X129053383Y-125302717D01*
X128746140Y-125290128D01*
X128320996Y-125285639D01*
X128206500Y-125285500D01*
X127788716Y-125287112D01*
G37*
X127788716Y-125287112D02*
X127482459Y-125292747D01*
X127272288Y-125303596D01*
X127142762Y-125320855D01*
X127078441Y-125345716D01*
X127063500Y-125373866D01*
X127117675Y-125453540D01*
X127223866Y-125502481D01*
X127394201Y-125579848D01*
X127509616Y-125668115D01*
X127545644Y-125709906D01*
X127574032Y-125764600D01*
X127595685Y-125846631D01*
X127611512Y-125970437D01*
X127622419Y-126150452D01*
X127629314Y-126401112D01*
X127633104Y-126736852D01*
X127634697Y-127172109D01*
X127635000Y-127663149D01*
X127634806Y-128198909D01*
X127633541Y-128621902D01*
X127630185Y-128946360D01*
X127623719Y-129186516D01*
X127613121Y-129356603D01*
X127597372Y-129470853D01*
X127575450Y-129543499D01*
X127546336Y-129588774D01*
X127509010Y-129620910D01*
X127493871Y-129631649D01*
X127323750Y-129696238D01*
X127077004Y-129726529D01*
X126799368Y-129722233D01*
X126536578Y-129683067D01*
X126394791Y-129638523D01*
X126210607Y-129516826D01*
X126023944Y-129297396D01*
X125936456Y-129165144D01*
X125773978Y-128924234D01*
X125658339Y-128800420D01*
X125586377Y-128794059D01*
X125554925Y-128905506D01*
X125560820Y-129135116D01*
X125567319Y-129206625D01*
X125595025Y-129462883D01*
X125624272Y-129698769D01*
X125645284Y-129841625D01*
X125680634Y-130048000D01*
X127515067Y-130048000D01*
X128055679Y-130047167D01*
X128481964Y-130044256D01*
X128806589Y-130038643D01*
X129042221Y-130029704D01*
X129201524Y-130016818D01*
X129297164Y-129999361D01*
X129341808Y-129976711D01*
X129349500Y-129957795D01*
X129294636Y-129881628D01*
X129165585Y-129827196D01*
X129059537Y-129802158D01*
X128974746Y-129769810D01*
X128908970Y-129716927D01*
X128859967Y-129630287D01*
X128825496Y-129496664D01*
X128803314Y-129302836D01*
X128791181Y-129035578D01*
X128786853Y-128681667D01*
X128788091Y-128227878D01*
X128792651Y-127660988D01*
X128792930Y-127628954D01*
X128809750Y-125698250D01*
X129077324Y-125571250D01*
X129249769Y-125482124D01*
X129340918Y-125413110D01*
X129343451Y-125361806D01*
X129250046Y-125325809D01*
X129053383Y-125302717D01*
X128746140Y-125290128D01*
X128320996Y-125285639D01*
X128206500Y-125285500D01*
X127788716Y-125287112D01*
G36*
X141323605Y-122624542D02*
G01*
X140764835Y-122628412D01*
X140382625Y-122631382D01*
X139754063Y-122636510D01*
X139238977Y-122641547D01*
X138823846Y-122647302D01*
X138495150Y-122654586D01*
X138239369Y-122664207D01*
X138042981Y-122676975D01*
X137892466Y-122693700D01*
X137774303Y-122715190D01*
X137674972Y-122742256D01*
X137580952Y-122775707D01*
X137511219Y-122803290D01*
X137133529Y-123004055D01*
X136807798Y-123272044D01*
X136558104Y-123582538D01*
X136408524Y-123910815D01*
X136399844Y-123944314D01*
X136346012Y-124407254D01*
X136412613Y-124834210D01*
X136596894Y-125220087D01*
X136896102Y-125559789D01*
X137307483Y-125848222D01*
X137475666Y-125935262D01*
X137890250Y-126133609D01*
X137604500Y-126207225D01*
X137097329Y-126384027D01*
X136660359Y-126629890D01*
X136311167Y-126932569D01*
X136068858Y-127276821D01*
X135988074Y-127490651D01*
X135925699Y-127754410D01*
X135906226Y-127896537D01*
X135918888Y-128391783D01*
X136046398Y-128839679D01*
X136282663Y-129231631D01*
X136621590Y-129559043D01*
X137057083Y-129813321D01*
X137341314Y-129920707D01*
X137449474Y-129952613D01*
X137561018Y-129978715D01*
X137689427Y-129999592D01*
X137848185Y-130015822D01*
X138050776Y-130027984D01*
X138310683Y-130036654D01*
X138641389Y-130042412D01*
X139056377Y-130045836D01*
X139569130Y-130047503D01*
X140193132Y-130047992D01*
X140309939Y-130048000D01*
X140947984Y-130047784D01*
X141470535Y-130046783D01*
X141889097Y-130044463D01*
X142215175Y-130040291D01*
X142460275Y-130033736D01*
X142635902Y-130024265D01*
X142753562Y-130011344D01*
X142824761Y-129994442D01*
X142861002Y-129973025D01*
X142873793Y-129946561D01*
X142875000Y-129929252D01*
X142833265Y-129837459D01*
X142694388Y-129763407D01*
X142593705Y-129731747D01*
X142301279Y-129612594D01*
X142108233Y-129437085D01*
X141992044Y-129184477D01*
X141989454Y-129175288D01*
X141972644Y-129049738D01*
X141958250Y-128814116D01*
X141946270Y-128485327D01*
X141936699Y-128080276D01*
X141929537Y-127615868D01*
X141924781Y-127109009D01*
X141922429Y-126576603D01*
X141922436Y-126492000D01*
X140282789Y-126492000D01*
X140261270Y-127789221D01*
X140253094Y-128230746D01*
X140243922Y-128563871D01*
X140231809Y-128807192D01*
X140214808Y-128979305D01*
X140190975Y-129098805D01*
X140158362Y-129184289D01*
X140115026Y-129254353D01*
X140106803Y-129265596D01*
X139903636Y-129440550D01*
X139616000Y-129554729D01*
X139274019Y-129602108D01*
X138907817Y-129576661D01*
X138740031Y-129538981D01*
X138363606Y-129374862D01*
X138071885Y-129117991D01*
X137868977Y-128773770D01*
X137758994Y-128347601D01*
X137746908Y-128234055D01*
X137747642Y-127795239D01*
X137833545Y-127431201D01*
X138013350Y-127115296D01*
X138172763Y-126934956D01*
X138377430Y-126755287D01*
X138589263Y-126629794D01*
X138836653Y-126549869D01*
X139147990Y-126506902D01*
X139551668Y-126492285D01*
X139633637Y-126492000D01*
X140282789Y-126492000D01*
X141922436Y-126492000D01*
X141922478Y-126035554D01*
X141922714Y-125984000D01*
X140271500Y-125984000D01*
X139811125Y-125983645D01*
X139540571Y-125973873D01*
X139284263Y-125948681D01*
X139108131Y-125915920D01*
X138782821Y-125762642D01*
X138514253Y-125510253D01*
X138315694Y-125178969D01*
X138200410Y-124789006D01*
X138176355Y-124496099D01*
X138224779Y-124058486D01*
X138369448Y-123702196D01*
X138611421Y-123426250D01*
X138951761Y-123229671D01*
X139391526Y-123111480D01*
X139714746Y-123077129D01*
X140271500Y-123045384D01*
X140271500Y-125984000D01*
X141922714Y-125984000D01*
X141924926Y-125502770D01*
X141929770Y-124995153D01*
X141937009Y-124529610D01*
X141946639Y-124123045D01*
X141958659Y-123792363D01*
X141973066Y-123554470D01*
X141989858Y-123426270D01*
X141990251Y-123424821D01*
X142120136Y-123185259D01*
X142351464Y-123005170D01*
X142667474Y-122897585D01*
X142668625Y-122897367D01*
X142823160Y-122842294D01*
X142874675Y-122746298D01*
X142875000Y-122735040D01*
X142871437Y-122704008D01*
X142852950Y-122678800D01*
X142807849Y-122658929D01*
X142724443Y-122643908D01*
X142591038Y-122633251D01*
X142395944Y-122626472D01*
X142127468Y-122623085D01*
X141773919Y-122622604D01*
X141323605Y-122624542D01*
G37*
X141323605Y-122624542D02*
X140764835Y-122628412D01*
X140382625Y-122631382D01*
X139754063Y-122636510D01*
X139238977Y-122641547D01*
X138823846Y-122647302D01*
X138495150Y-122654586D01*
X138239369Y-122664207D01*
X138042981Y-122676975D01*
X137892466Y-122693700D01*
X137774303Y-122715190D01*
X137674972Y-122742256D01*
X137580952Y-122775707D01*
X137511219Y-122803290D01*
X137133529Y-123004055D01*
X136807798Y-123272044D01*
X136558104Y-123582538D01*
X136408524Y-123910815D01*
X136399844Y-123944314D01*
X136346012Y-124407254D01*
X136412613Y-124834210D01*
X136596894Y-125220087D01*
X136896102Y-125559789D01*
X137307483Y-125848222D01*
X137475666Y-125935262D01*
X137890250Y-126133609D01*
X137604500Y-126207225D01*
X137097329Y-126384027D01*
X136660359Y-126629890D01*
X136311167Y-126932569D01*
X136068858Y-127276821D01*
X135988074Y-127490651D01*
X135925699Y-127754410D01*
X135906226Y-127896537D01*
X135918888Y-128391783D01*
X136046398Y-128839679D01*
X136282663Y-129231631D01*
X136621590Y-129559043D01*
X137057083Y-129813321D01*
X137341314Y-129920707D01*
X137449474Y-129952613D01*
X137561018Y-129978715D01*
X137689427Y-129999592D01*
X137848185Y-130015822D01*
X138050776Y-130027984D01*
X138310683Y-130036654D01*
X138641389Y-130042412D01*
X139056377Y-130045836D01*
X139569130Y-130047503D01*
X140193132Y-130047992D01*
X140309939Y-130048000D01*
X140947984Y-130047784D01*
X141470535Y-130046783D01*
X141889097Y-130044463D01*
X142215175Y-130040291D01*
X142460275Y-130033736D01*
X142635902Y-130024265D01*
X142753562Y-130011344D01*
X142824761Y-129994442D01*
X142861002Y-129973025D01*
X142873793Y-129946561D01*
X142875000Y-129929252D01*
X142833265Y-129837459D01*
X142694388Y-129763407D01*
X142593705Y-129731747D01*
X142301279Y-129612594D01*
X142108233Y-129437085D01*
X141992044Y-129184477D01*
X141989454Y-129175288D01*
X141972644Y-129049738D01*
X141958250Y-128814116D01*
X141946270Y-128485327D01*
X141936699Y-128080276D01*
X141929537Y-127615868D01*
X141924781Y-127109009D01*
X141922429Y-126576603D01*
X141922436Y-126492000D01*
X140282789Y-126492000D01*
X140261270Y-127789221D01*
X140253094Y-128230746D01*
X140243922Y-128563871D01*
X140231809Y-128807192D01*
X140214808Y-128979305D01*
X140190975Y-129098805D01*
X140158362Y-129184289D01*
X140115026Y-129254353D01*
X140106803Y-129265596D01*
X139903636Y-129440550D01*
X139616000Y-129554729D01*
X139274019Y-129602108D01*
X138907817Y-129576661D01*
X138740031Y-129538981D01*
X138363606Y-129374862D01*
X138071885Y-129117991D01*
X137868977Y-128773770D01*
X137758994Y-128347601D01*
X137746908Y-128234055D01*
X137747642Y-127795239D01*
X137833545Y-127431201D01*
X138013350Y-127115296D01*
X138172763Y-126934956D01*
X138377430Y-126755287D01*
X138589263Y-126629794D01*
X138836653Y-126549869D01*
X139147990Y-126506902D01*
X139551668Y-126492285D01*
X139633637Y-126492000D01*
X140282789Y-126492000D01*
X141922436Y-126492000D01*
X141922478Y-126035554D01*
X141922714Y-125984000D01*
X140271500Y-125984000D01*
X139811125Y-125983645D01*
X139540571Y-125973873D01*
X139284263Y-125948681D01*
X139108131Y-125915920D01*
X138782821Y-125762642D01*
X138514253Y-125510253D01*
X138315694Y-125178969D01*
X138200410Y-124789006D01*
X138176355Y-124496099D01*
X138224779Y-124058486D01*
X138369448Y-123702196D01*
X138611421Y-123426250D01*
X138951761Y-123229671D01*
X139391526Y-123111480D01*
X139714746Y-123077129D01*
X140271500Y-123045384D01*
X140271500Y-125984000D01*
X141922714Y-125984000D01*
X141924926Y-125502770D01*
X141929770Y-124995153D01*
X141937009Y-124529610D01*
X141946639Y-124123045D01*
X141958659Y-123792363D01*
X141973066Y-123554470D01*
X141989858Y-123426270D01*
X141990251Y-123424821D01*
X142120136Y-123185259D01*
X142351464Y-123005170D01*
X142667474Y-122897585D01*
X142668625Y-122897367D01*
X142823160Y-122842294D01*
X142874675Y-122746298D01*
X142875000Y-122735040D01*
X142871437Y-122704008D01*
X142852950Y-122678800D01*
X142807849Y-122658929D01*
X142724443Y-122643908D01*
X142591038Y-122633251D01*
X142395944Y-122626472D01*
X142127468Y-122623085D01*
X141773919Y-122622604D01*
X141323605Y-122624542D01*
G36*
X130519216Y-125287112D02*
G01*
X130212959Y-125292747D01*
X130002788Y-125303596D01*
X129873262Y-125320855D01*
X129808941Y-125345716D01*
X129794000Y-125373866D01*
X129848175Y-125453540D01*
X129954366Y-125502481D01*
X130124701Y-125579848D01*
X130240116Y-125668115D01*
X130275925Y-125709623D01*
X130304190Y-125763943D01*
X130325801Y-125845401D01*
X130341646Y-125968322D01*
X130352615Y-126147031D01*
X130359595Y-126395855D01*
X130363477Y-126729119D01*
X130365149Y-127161148D01*
X130365500Y-127688658D01*
X130365337Y-128250629D01*
X130363174Y-128699136D01*
X130356498Y-129047715D01*
X130342799Y-129309900D01*
X130319565Y-129499227D01*
X130284286Y-129629232D01*
X130234450Y-129713448D01*
X130167544Y-129765412D01*
X130081059Y-129798660D01*
X129972483Y-129826725D01*
X129968625Y-129827686D01*
X129842186Y-129886813D01*
X129794000Y-129959633D01*
X129817203Y-129996315D01*
X129898385Y-130021702D01*
X130054913Y-130037585D01*
X130304150Y-130045754D01*
X130651250Y-130048000D01*
X131508500Y-130048000D01*
X131508500Y-129535885D01*
X131868425Y-129807817D01*
X132228350Y-130079750D01*
X132932050Y-130094297D01*
X133234513Y-130094456D01*
X133503665Y-130083537D01*
X133705745Y-130063542D01*
X133794500Y-130043177D01*
X133939663Y-129957907D01*
X134111142Y-129823864D01*
X134165043Y-129774629D01*
X134285306Y-129656750D01*
X134380377Y-129548794D01*
X134453540Y-129434331D01*
X134508079Y-129296932D01*
X134547278Y-129120169D01*
X134574422Y-128887611D01*
X134592795Y-128582830D01*
X134605682Y-128189396D01*
X134616365Y-127690880D01*
X134620000Y-127498745D01*
X134630908Y-126957724D01*
X134643153Y-126529636D01*
X134659916Y-126200429D01*
X134684379Y-125956049D01*
X134719725Y-125782444D01*
X134769133Y-125665561D01*
X134835787Y-125591346D01*
X134922866Y-125545747D01*
X135033554Y-125514710D01*
X135071085Y-125506303D01*
X135201810Y-125450682D01*
X135255000Y-125375704D01*
X135235587Y-125342853D01*
X135166872Y-125318782D01*
X135033142Y-125302251D01*
X134818686Y-125292022D01*
X134507792Y-125286852D01*
X134112000Y-125285500D01*
X133694216Y-125287112D01*
X133387959Y-125292747D01*
X133177788Y-125303596D01*
X133048262Y-125320855D01*
X132983941Y-125345716D01*
X132969000Y-125373866D01*
X133023175Y-125453540D01*
X133129366Y-125502481D01*
X133299701Y-125579848D01*
X133415116Y-125668115D01*
X133453486Y-125712959D01*
X133483132Y-125771702D01*
X133505172Y-125859979D01*
X133520727Y-125993422D01*
X133530916Y-126187666D01*
X133536858Y-126458344D01*
X133539673Y-126821090D01*
X133540481Y-127291537D01*
X133540500Y-127419028D01*
X133539407Y-127933104D01*
X133535524Y-128336259D01*
X133527947Y-128644554D01*
X133515773Y-128874054D01*
X133498096Y-129040822D01*
X133474013Y-129160921D01*
X133442619Y-129250416D01*
X133436688Y-129263325D01*
X133265626Y-129490314D01*
X133023359Y-129629675D01*
X132730885Y-129681108D01*
X132409209Y-129644318D01*
X132079330Y-129519005D01*
X131762251Y-129304871D01*
X131742007Y-129287365D01*
X131508500Y-129082343D01*
X131508500Y-127437921D01*
X131508989Y-126936811D01*
X131511189Y-126547169D01*
X131516201Y-126253464D01*
X131525124Y-126040168D01*
X131539059Y-125891748D01*
X131559107Y-125792676D01*
X131586366Y-125727420D01*
X131621939Y-125680451D01*
X131633885Y-125668115D01*
X131790040Y-125556234D01*
X131919635Y-125502481D01*
X132039551Y-125442532D01*
X132080000Y-125373866D01*
X132059139Y-125341566D01*
X131986259Y-125317889D01*
X131845921Y-125301641D01*
X131622684Y-125291627D01*
X131301105Y-125286655D01*
X130937000Y-125285500D01*
X130519216Y-125287112D01*
G37*
X130519216Y-125287112D02*
X130212959Y-125292747D01*
X130002788Y-125303596D01*
X129873262Y-125320855D01*
X129808941Y-125345716D01*
X129794000Y-125373866D01*
X129848175Y-125453540D01*
X129954366Y-125502481D01*
X130124701Y-125579848D01*
X130240116Y-125668115D01*
X130275925Y-125709623D01*
X130304190Y-125763943D01*
X130325801Y-125845401D01*
X130341646Y-125968322D01*
X130352615Y-126147031D01*
X130359595Y-126395855D01*
X130363477Y-126729119D01*
X130365149Y-127161148D01*
X130365500Y-127688658D01*
X130365337Y-128250629D01*
X130363174Y-128699136D01*
X130356498Y-129047715D01*
X130342799Y-129309900D01*
X130319565Y-129499227D01*
X130284286Y-129629232D01*
X130234450Y-129713448D01*
X130167544Y-129765412D01*
X130081059Y-129798660D01*
X129972483Y-129826725D01*
X129968625Y-129827686D01*
X129842186Y-129886813D01*
X129794000Y-129959633D01*
X129817203Y-129996315D01*
X129898385Y-130021702D01*
X130054913Y-130037585D01*
X130304150Y-130045754D01*
X130651250Y-130048000D01*
X131508500Y-130048000D01*
X131508500Y-129535885D01*
X131868425Y-129807817D01*
X132228350Y-130079750D01*
X132932050Y-130094297D01*
X133234513Y-130094456D01*
X133503665Y-130083537D01*
X133705745Y-130063542D01*
X133794500Y-130043177D01*
X133939663Y-129957907D01*
X134111142Y-129823864D01*
X134165043Y-129774629D01*
X134285306Y-129656750D01*
X134380377Y-129548794D01*
X134453540Y-129434331D01*
X134508079Y-129296932D01*
X134547278Y-129120169D01*
X134574422Y-128887611D01*
X134592795Y-128582830D01*
X134605682Y-128189396D01*
X134616365Y-127690880D01*
X134620000Y-127498745D01*
X134630908Y-126957724D01*
X134643153Y-126529636D01*
X134659916Y-126200429D01*
X134684379Y-125956049D01*
X134719725Y-125782444D01*
X134769133Y-125665561D01*
X134835787Y-125591346D01*
X134922866Y-125545747D01*
X135033554Y-125514710D01*
X135071085Y-125506303D01*
X135201810Y-125450682D01*
X135255000Y-125375704D01*
X135235587Y-125342853D01*
X135166872Y-125318782D01*
X135033142Y-125302251D01*
X134818686Y-125292022D01*
X134507792Y-125286852D01*
X134112000Y-125285500D01*
X133694216Y-125287112D01*
X133387959Y-125292747D01*
X133177788Y-125303596D01*
X133048262Y-125320855D01*
X132983941Y-125345716D01*
X132969000Y-125373866D01*
X133023175Y-125453540D01*
X133129366Y-125502481D01*
X133299701Y-125579848D01*
X133415116Y-125668115D01*
X133453486Y-125712959D01*
X133483132Y-125771702D01*
X133505172Y-125859979D01*
X133520727Y-125993422D01*
X133530916Y-126187666D01*
X133536858Y-126458344D01*
X133539673Y-126821090D01*
X133540481Y-127291537D01*
X133540500Y-127419028D01*
X133539407Y-127933104D01*
X133535524Y-128336259D01*
X133527947Y-128644554D01*
X133515773Y-128874054D01*
X133498096Y-129040822D01*
X133474013Y-129160921D01*
X133442619Y-129250416D01*
X133436688Y-129263325D01*
X133265626Y-129490314D01*
X133023359Y-129629675D01*
X132730885Y-129681108D01*
X132409209Y-129644318D01*
X132079330Y-129519005D01*
X131762251Y-129304871D01*
X131742007Y-129287365D01*
X131508500Y-129082343D01*
X131508500Y-127437921D01*
X131508989Y-126936811D01*
X131511189Y-126547169D01*
X131516201Y-126253464D01*
X131525124Y-126040168D01*
X131539059Y-125891748D01*
X131559107Y-125792676D01*
X131586366Y-125727420D01*
X131621939Y-125680451D01*
X131633885Y-125668115D01*
X131790040Y-125556234D01*
X131919635Y-125502481D01*
X132039551Y-125442532D01*
X132080000Y-125373866D01*
X132059139Y-125341566D01*
X131986259Y-125317889D01*
X131845921Y-125301641D01*
X131622684Y-125291627D01*
X131301105Y-125286655D01*
X130937000Y-125285500D01*
X130519216Y-125287112D01*
G36*
X104599884Y-127294038D02*
G01*
X104583517Y-131127500D01*
X104013000Y-131127500D01*
X104013000Y-132016500D01*
X104525237Y-132016500D01*
X104795571Y-132021526D01*
X104977567Y-132042169D01*
X105109681Y-132086776D01*
X105230368Y-132163694D01*
X105241238Y-132171918D01*
X105588708Y-132388871D01*
X106011586Y-132579496D01*
X106458398Y-132722991D01*
X106755657Y-132783933D01*
X107344005Y-132814883D01*
X107915366Y-132736499D01*
X108345312Y-132594788D01*
X108536439Y-132491519D01*
X108723834Y-132356975D01*
X108875342Y-132218275D01*
X108958803Y-132102539D01*
X108966000Y-132071340D01*
X109025393Y-132050121D01*
X109187171Y-132032722D01*
X109426737Y-132020922D01*
X109719493Y-132016501D01*
X109724227Y-132016500D01*
X110482453Y-132016500D01*
X110502102Y-133238875D01*
X110521750Y-134461250D01*
X110705265Y-134731807D01*
X110917567Y-134972064D01*
X111220043Y-135217059D01*
X111579077Y-135443152D01*
X111961056Y-135626701D01*
X111999044Y-135641737D01*
X112285458Y-135721201D01*
X112648979Y-135777402D01*
X113043193Y-135807293D01*
X113421685Y-135807828D01*
X113738042Y-135775960D01*
X113809939Y-135760622D01*
X114213014Y-135616917D01*
X114540055Y-135412694D01*
X114777185Y-135161225D01*
X114910529Y-134875780D01*
X114935000Y-134684613D01*
X114873308Y-134356860D01*
X114694793Y-134046743D01*
X114409296Y-133762672D01*
X114026660Y-133513060D01*
X113556724Y-133306317D01*
X113191284Y-133194242D01*
X112913931Y-133143022D01*
X112574471Y-133110572D01*
X112215198Y-133097886D01*
X111878404Y-133105955D01*
X111606385Y-133135771D01*
X111521456Y-133155067D01*
X111315500Y-133214134D01*
X111315500Y-132016500D01*
X143637000Y-132016500D01*
X143637000Y-131127500D01*
X111317046Y-131127500D01*
X110492743Y-131127500D01*
X108966000Y-131127500D01*
X108718206Y-130879705D01*
X108359685Y-130598141D01*
X107910416Y-130366299D01*
X107400136Y-130193749D01*
X106858582Y-130090063D01*
X106315493Y-130064812D01*
X106203750Y-130070389D01*
X105943577Y-130092099D01*
X105717754Y-130118050D01*
X105568620Y-130143234D01*
X105552875Y-130147391D01*
X105410000Y-130189812D01*
X105410000Y-128340906D01*
X105411568Y-127871199D01*
X105416000Y-127445594D01*
X105422892Y-127079820D01*
X105431836Y-126789605D01*
X105442429Y-126590678D01*
X105454264Y-126498765D01*
X105457625Y-126494337D01*
X105523954Y-126519835D01*
X105694074Y-126591759D01*
X105955798Y-126704782D01*
X106296940Y-126853579D01*
X106705313Y-127032823D01*
X107168731Y-127237187D01*
X107675008Y-127461346D01*
X107981750Y-127597559D01*
X110458250Y-128698442D01*
X110475497Y-129912971D01*
X110492743Y-131127500D01*
X111317046Y-131127500D01*
X111283750Y-126397432D01*
X104616250Y-123460576D01*
X104599884Y-127294038D01*
G37*
X104599884Y-127294038D02*
X104583517Y-131127500D01*
X104013000Y-131127500D01*
X104013000Y-132016500D01*
X104525237Y-132016500D01*
X104795571Y-132021526D01*
X104977567Y-132042169D01*
X105109681Y-132086776D01*
X105230368Y-132163694D01*
X105241238Y-132171918D01*
X105588708Y-132388871D01*
X106011586Y-132579496D01*
X106458398Y-132722991D01*
X106755657Y-132783933D01*
X107344005Y-132814883D01*
X107915366Y-132736499D01*
X108345312Y-132594788D01*
X108536439Y-132491519D01*
X108723834Y-132356975D01*
X108875342Y-132218275D01*
X108958803Y-132102539D01*
X108966000Y-132071340D01*
X109025393Y-132050121D01*
X109187171Y-132032722D01*
X109426737Y-132020922D01*
X109719493Y-132016501D01*
X109724227Y-132016500D01*
X110482453Y-132016500D01*
X110502102Y-133238875D01*
X110521750Y-134461250D01*
X110705265Y-134731807D01*
X110917567Y-134972064D01*
X111220043Y-135217059D01*
X111579077Y-135443152D01*
X111961056Y-135626701D01*
X111999044Y-135641737D01*
X112285458Y-135721201D01*
X112648979Y-135777402D01*
X113043193Y-135807293D01*
X113421685Y-135807828D01*
X113738042Y-135775960D01*
X113809939Y-135760622D01*
X114213014Y-135616917D01*
X114540055Y-135412694D01*
X114777185Y-135161225D01*
X114910529Y-134875780D01*
X114935000Y-134684613D01*
X114873308Y-134356860D01*
X114694793Y-134046743D01*
X114409296Y-133762672D01*
X114026660Y-133513060D01*
X113556724Y-133306317D01*
X113191284Y-133194242D01*
X112913931Y-133143022D01*
X112574471Y-133110572D01*
X112215198Y-133097886D01*
X111878404Y-133105955D01*
X111606385Y-133135771D01*
X111521456Y-133155067D01*
X111315500Y-133214134D01*
X111315500Y-132016500D01*
X143637000Y-132016500D01*
X143637000Y-131127500D01*
X111317046Y-131127500D01*
X110492743Y-131127500D01*
X108966000Y-131127500D01*
X108718206Y-130879705D01*
X108359685Y-130598141D01*
X107910416Y-130366299D01*
X107400136Y-130193749D01*
X106858582Y-130090063D01*
X106315493Y-130064812D01*
X106203750Y-130070389D01*
X105943577Y-130092099D01*
X105717754Y-130118050D01*
X105568620Y-130143234D01*
X105552875Y-130147391D01*
X105410000Y-130189812D01*
X105410000Y-128340906D01*
X105411568Y-127871199D01*
X105416000Y-127445594D01*
X105422892Y-127079820D01*
X105431836Y-126789605D01*
X105442429Y-126590678D01*
X105454264Y-126498765D01*
X105457625Y-126494337D01*
X105523954Y-126519835D01*
X105694074Y-126591759D01*
X105955798Y-126704782D01*
X106296940Y-126853579D01*
X106705313Y-127032823D01*
X107168731Y-127237187D01*
X107675008Y-127461346D01*
X107981750Y-127597559D01*
X110458250Y-128698442D01*
X110475497Y-129912971D01*
X110492743Y-131127500D01*
X111317046Y-131127500D01*
X111283750Y-126397432D01*
X104616250Y-123460576D01*
X104599884Y-127294038D01*
G36*
X122586750Y-136556750D02*
G01*
X124904500Y-136591364D01*
X124904500Y-135890000D01*
X122548364Y-135890000D01*
X122586750Y-136556750D01*
G37*
X122586750Y-136556750D02*
X124904500Y-136591364D01*
X124904500Y-135890000D01*
X122548364Y-135890000D01*
X122586750Y-136556750D01*
G36*
X116621582Y-133092091D02*
G01*
X116268988Y-133245997D01*
X115990204Y-133477111D01*
X115765142Y-133799677D01*
X115655947Y-134143060D01*
X115663530Y-134509508D01*
X115788798Y-134901269D01*
X116032660Y-135320592D01*
X116396026Y-135769724D01*
X116879805Y-136250915D01*
X117238269Y-136564369D01*
X117796816Y-137033000D01*
X115570000Y-137033000D01*
X115570000Y-137668000D01*
X117125750Y-137668000D01*
X117633671Y-137666552D01*
X118026321Y-137661812D01*
X118315400Y-137653183D01*
X118512608Y-137640067D01*
X118629646Y-137621867D01*
X118678213Y-137597986D01*
X118681209Y-137588625D01*
X118638450Y-137519533D01*
X118520035Y-137377160D01*
X118340457Y-137177677D01*
X118114209Y-136937256D01*
X117898702Y-136715500D01*
X117588509Y-136395693D01*
X117353817Y-136139566D01*
X117176765Y-135924705D01*
X117039490Y-135728696D01*
X116924128Y-135529126D01*
X116872410Y-135427750D01*
X116741547Y-135143832D01*
X116666188Y-134921222D01*
X116633354Y-134714272D01*
X116628662Y-134570500D01*
X116672012Y-134207760D01*
X116794273Y-133921436D01*
X116984830Y-133723059D01*
X117233071Y-133624162D01*
X117494835Y-133629325D01*
X117704648Y-133720244D01*
X117912019Y-133892206D01*
X118076250Y-134105154D01*
X118147717Y-134271914D01*
X118204859Y-134403780D01*
X118263030Y-134414394D01*
X118298095Y-134306985D01*
X118300500Y-134251467D01*
X118255389Y-134016821D01*
X118137358Y-133748034D01*
X117972363Y-133490671D01*
X117786360Y-133290296D01*
X117728089Y-133246609D01*
X117380450Y-133088508D01*
X117001842Y-133038298D01*
X116621582Y-133092091D01*
G37*
X116621582Y-133092091D02*
X116268988Y-133245997D01*
X115990204Y-133477111D01*
X115765142Y-133799677D01*
X115655947Y-134143060D01*
X115663530Y-134509508D01*
X115788798Y-134901269D01*
X116032660Y-135320592D01*
X116396026Y-135769724D01*
X116879805Y-136250915D01*
X117238269Y-136564369D01*
X117796816Y-137033000D01*
X115570000Y-137033000D01*
X115570000Y-137668000D01*
X117125750Y-137668000D01*
X117633671Y-137666552D01*
X118026321Y-137661812D01*
X118315400Y-137653183D01*
X118512608Y-137640067D01*
X118629646Y-137621867D01*
X118678213Y-137597986D01*
X118681209Y-137588625D01*
X118638450Y-137519533D01*
X118520035Y-137377160D01*
X118340457Y-137177677D01*
X118114209Y-136937256D01*
X117898702Y-136715500D01*
X117588509Y-136395693D01*
X117353817Y-136139566D01*
X117176765Y-135924705D01*
X117039490Y-135728696D01*
X116924128Y-135529126D01*
X116872410Y-135427750D01*
X116741547Y-135143832D01*
X116666188Y-134921222D01*
X116633354Y-134714272D01*
X116628662Y-134570500D01*
X116672012Y-134207760D01*
X116794273Y-133921436D01*
X116984830Y-133723059D01*
X117233071Y-133624162D01*
X117494835Y-133629325D01*
X117704648Y-133720244D01*
X117912019Y-133892206D01*
X118076250Y-134105154D01*
X118147717Y-134271914D01*
X118204859Y-134403780D01*
X118263030Y-134414394D01*
X118298095Y-134306985D01*
X118300500Y-134251467D01*
X118255389Y-134016821D01*
X118137358Y-133748034D01*
X117972363Y-133490671D01*
X117786360Y-133290296D01*
X117728089Y-133246609D01*
X117380450Y-133088508D01*
X117001842Y-133038298D01*
X116621582Y-133092091D01*
G36*
X126144219Y-133161575D02*
G01*
X125845415Y-133168537D01*
X125644624Y-133181492D01*
X125527379Y-133201546D01*
X125479215Y-133229803D01*
X125476000Y-133241993D01*
X125529941Y-133315805D01*
X125662741Y-133391218D01*
X125692782Y-133402876D01*
X125886614Y-133522079D01*
X125978532Y-133679108D01*
X126002354Y-133812512D01*
X126021244Y-134047381D01*
X126035274Y-134362148D01*
X126044519Y-134735248D01*
X126049052Y-135145114D01*
X126048948Y-135570182D01*
X126044281Y-135988885D01*
X126035125Y-136379656D01*
X126021553Y-136720931D01*
X126003640Y-136991143D01*
X125981459Y-137168727D01*
X125966384Y-137221354D01*
X125846068Y-137353226D01*
X125681570Y-137436915D01*
X125542322Y-137499743D01*
X125476743Y-137574400D01*
X125476000Y-137581935D01*
X125499332Y-137614378D01*
X125579582Y-137637925D01*
X125732133Y-137653803D01*
X125972366Y-137663239D01*
X126315664Y-137667458D01*
X126555500Y-137668000D01*
X126955501Y-137666550D01*
X127245215Y-137661219D01*
X127441331Y-137650535D01*
X127560539Y-137633025D01*
X127619529Y-137607216D01*
X127635000Y-137572750D01*
X127581777Y-137495242D01*
X127505114Y-137477500D01*
X127372660Y-137434445D01*
X127227888Y-137329975D01*
X127219364Y-137321636D01*
X127063500Y-137165772D01*
X127063500Y-135484270D01*
X127065708Y-135026781D01*
X127071926Y-134604615D01*
X127081548Y-134236416D01*
X127093966Y-133940832D01*
X127108573Y-133736507D01*
X127123367Y-133645308D01*
X127237459Y-133500966D01*
X127409117Y-133406167D01*
X127555320Y-133333563D01*
X127631763Y-133257079D01*
X127635000Y-133241993D01*
X127607845Y-133210564D01*
X127516735Y-133187730D01*
X127347205Y-133172385D01*
X127084788Y-133163426D01*
X126715020Y-133159745D01*
X126555500Y-133159500D01*
X126144219Y-133161575D01*
G37*
X126144219Y-133161575D02*
X125845415Y-133168537D01*
X125644624Y-133181492D01*
X125527379Y-133201546D01*
X125479215Y-133229803D01*
X125476000Y-133241993D01*
X125529941Y-133315805D01*
X125662741Y-133391218D01*
X125692782Y-133402876D01*
X125886614Y-133522079D01*
X125978532Y-133679108D01*
X126002354Y-133812512D01*
X126021244Y-134047381D01*
X126035274Y-134362148D01*
X126044519Y-134735248D01*
X126049052Y-135145114D01*
X126048948Y-135570182D01*
X126044281Y-135988885D01*
X126035125Y-136379656D01*
X126021553Y-136720931D01*
X126003640Y-136991143D01*
X125981459Y-137168727D01*
X125966384Y-137221354D01*
X125846068Y-137353226D01*
X125681570Y-137436915D01*
X125542322Y-137499743D01*
X125476743Y-137574400D01*
X125476000Y-137581935D01*
X125499332Y-137614378D01*
X125579582Y-137637925D01*
X125732133Y-137653803D01*
X125972366Y-137663239D01*
X126315664Y-137667458D01*
X126555500Y-137668000D01*
X126955501Y-137666550D01*
X127245215Y-137661219D01*
X127441331Y-137650535D01*
X127560539Y-137633025D01*
X127619529Y-137607216D01*
X127635000Y-137572750D01*
X127581777Y-137495242D01*
X127505114Y-137477500D01*
X127372660Y-137434445D01*
X127227888Y-137329975D01*
X127219364Y-137321636D01*
X127063500Y-137165772D01*
X127063500Y-135484270D01*
X127065708Y-135026781D01*
X127071926Y-134604615D01*
X127081548Y-134236416D01*
X127093966Y-133940832D01*
X127108573Y-133736507D01*
X127123367Y-133645308D01*
X127237459Y-133500966D01*
X127409117Y-133406167D01*
X127555320Y-133333563D01*
X127631763Y-133257079D01*
X127635000Y-133241993D01*
X127607845Y-133210564D01*
X127516735Y-133187730D01*
X127347205Y-133172385D01*
X127084788Y-133163426D01*
X126715020Y-133159745D01*
X126555500Y-133159500D01*
X126144219Y-133161575D01*
G36*
X131330535Y-133157695D02*
G01*
X130946606Y-133169923D01*
X130596974Y-133188263D01*
X130301779Y-133212658D01*
X130081163Y-133243055D01*
X130018471Y-133256839D01*
X129471244Y-133457175D01*
X129008178Y-133750405D01*
X128744481Y-134000380D01*
X128507472Y-134316005D01*
X128351020Y-134658680D01*
X128265399Y-135058158D01*
X128240863Y-135540750D01*
X128248027Y-135842551D01*
X128272065Y-136063577D01*
X128321693Y-136249793D01*
X128405629Y-136447162D01*
X128417437Y-136471746D01*
X128687885Y-136886541D01*
X129061344Y-137230308D01*
X129468880Y-137468917D01*
X129577573Y-137518590D01*
X129677970Y-137557495D01*
X129787049Y-137587153D01*
X129921791Y-137609084D01*
X130099175Y-137624809D01*
X130336181Y-137635850D01*
X130649788Y-137643726D01*
X131056977Y-137649958D01*
X131556125Y-137655857D01*
X132128419Y-137660421D01*
X132579435Y-137659622D01*
X132914789Y-137653299D01*
X133140098Y-137641293D01*
X133260975Y-137623444D01*
X133286500Y-137606660D01*
X133233592Y-137537311D01*
X133111992Y-137471508D01*
X132999329Y-137428307D01*
X132910273Y-137384470D01*
X132842051Y-137325627D01*
X132791892Y-137237407D01*
X132757021Y-137105440D01*
X132734668Y-136915356D01*
X132722060Y-136652783D01*
X132716424Y-136303351D01*
X132714988Y-135852690D01*
X132715000Y-135413750D01*
X132715242Y-134867976D01*
X132717778Y-134435262D01*
X132725330Y-134101668D01*
X132740618Y-133853252D01*
X132766361Y-133676077D01*
X132805280Y-133556201D01*
X132860094Y-133479685D01*
X132864280Y-133477000D01*
X131635500Y-133477000D01*
X131635500Y-135310724D01*
X131634724Y-135850878D01*
X131631924Y-136277766D01*
X131626394Y-136605117D01*
X131617428Y-136846659D01*
X131604318Y-137016120D01*
X131586359Y-137127227D01*
X131562845Y-137193710D01*
X131536923Y-137226261D01*
X131390697Y-137299270D01*
X131177841Y-137355532D01*
X130958672Y-137381969D01*
X130841750Y-137377017D01*
X130691679Y-137353813D01*
X130500333Y-137323634D01*
X130488167Y-137321696D01*
X130185291Y-137213965D01*
X129899090Y-137002195D01*
X129656303Y-136708949D01*
X129558972Y-136537659D01*
X129479112Y-136363814D01*
X129427439Y-136209138D01*
X129397924Y-136037658D01*
X129384540Y-135813406D01*
X129381258Y-135500409D01*
X129381250Y-135477250D01*
X129385098Y-135146479D01*
X129400157Y-134906614D01*
X129431702Y-134721703D01*
X129485008Y-134555790D01*
X129532974Y-134442982D01*
X129723311Y-134129644D01*
X129981877Y-133851375D01*
X130273646Y-133641131D01*
X130480235Y-133551677D01*
X130675082Y-133513025D01*
X130936893Y-133486042D01*
X131182493Y-133477000D01*
X131635500Y-133477000D01*
X132864280Y-133477000D01*
X132933524Y-133432588D01*
X133028291Y-133400971D01*
X133111875Y-133379813D01*
X133238315Y-133320686D01*
X133286500Y-133247866D01*
X133226442Y-133215765D01*
X133059693Y-133190163D01*
X132806396Y-133171004D01*
X132486691Y-133158233D01*
X132120718Y-133151795D01*
X131728619Y-133151634D01*
X131330535Y-133157695D01*
G37*
X131330535Y-133157695D02*
X130946606Y-133169923D01*
X130596974Y-133188263D01*
X130301779Y-133212658D01*
X130081163Y-133243055D01*
X130018471Y-133256839D01*
X129471244Y-133457175D01*
X129008178Y-133750405D01*
X128744481Y-134000380D01*
X128507472Y-134316005D01*
X128351020Y-134658680D01*
X128265399Y-135058158D01*
X128240863Y-135540750D01*
X128248027Y-135842551D01*
X128272065Y-136063577D01*
X128321693Y-136249793D01*
X128405629Y-136447162D01*
X128417437Y-136471746D01*
X128687885Y-136886541D01*
X129061344Y-137230308D01*
X129468880Y-137468917D01*
X129577573Y-137518590D01*
X129677970Y-137557495D01*
X129787049Y-137587153D01*
X129921791Y-137609084D01*
X130099175Y-137624809D01*
X130336181Y-137635850D01*
X130649788Y-137643726D01*
X131056977Y-137649958D01*
X131556125Y-137655857D01*
X132128419Y-137660421D01*
X132579435Y-137659622D01*
X132914789Y-137653299D01*
X133140098Y-137641293D01*
X133260975Y-137623444D01*
X133286500Y-137606660D01*
X133233592Y-137537311D01*
X133111992Y-137471508D01*
X132999329Y-137428307D01*
X132910273Y-137384470D01*
X132842051Y-137325627D01*
X132791892Y-137237407D01*
X132757021Y-137105440D01*
X132734668Y-136915356D01*
X132722060Y-136652783D01*
X132716424Y-136303351D01*
X132714988Y-135852690D01*
X132715000Y-135413750D01*
X132715242Y-134867976D01*
X132717778Y-134435262D01*
X132725330Y-134101668D01*
X132740618Y-133853252D01*
X132766361Y-133676077D01*
X132805280Y-133556201D01*
X132860094Y-133479685D01*
X132864280Y-133477000D01*
X131635500Y-133477000D01*
X131635500Y-135310724D01*
X131634724Y-135850878D01*
X131631924Y-136277766D01*
X131626394Y-136605117D01*
X131617428Y-136846659D01*
X131604318Y-137016120D01*
X131586359Y-137127227D01*
X131562845Y-137193710D01*
X131536923Y-137226261D01*
X131390697Y-137299270D01*
X131177841Y-137355532D01*
X130958672Y-137381969D01*
X130841750Y-137377017D01*
X130691679Y-137353813D01*
X130500333Y-137323634D01*
X130488167Y-137321696D01*
X130185291Y-137213965D01*
X129899090Y-137002195D01*
X129656303Y-136708949D01*
X129558972Y-136537659D01*
X129479112Y-136363814D01*
X129427439Y-136209138D01*
X129397924Y-136037658D01*
X129384540Y-135813406D01*
X129381258Y-135500409D01*
X129381250Y-135477250D01*
X129385098Y-135146479D01*
X129400157Y-134906614D01*
X129431702Y-134721703D01*
X129485008Y-134555790D01*
X129532974Y-134442982D01*
X129723311Y-134129644D01*
X129981877Y-133851375D01*
X130273646Y-133641131D01*
X130480235Y-133551677D01*
X130675082Y-133513025D01*
X130936893Y-133486042D01*
X131182493Y-133477000D01*
X131635500Y-133477000D01*
X132864280Y-133477000D01*
X132933524Y-133432588D01*
X133028291Y-133400971D01*
X133111875Y-133379813D01*
X133238315Y-133320686D01*
X133286500Y-133247866D01*
X133226442Y-133215765D01*
X133059693Y-133190163D01*
X132806396Y-133171004D01*
X132486691Y-133158233D01*
X132120718Y-133151795D01*
X131728619Y-133151634D01*
X131330535Y-133157695D01*
G36*
X134462719Y-133161575D02*
G01*
X134163915Y-133168537D01*
X133963124Y-133181492D01*
X133845879Y-133201546D01*
X133797715Y-133229803D01*
X133794500Y-133241993D01*
X133848441Y-133315805D01*
X133981241Y-133391218D01*
X134011282Y-133402876D01*
X134205114Y-133522079D01*
X134297032Y-133679108D01*
X134320854Y-133812512D01*
X134339744Y-134047381D01*
X134353774Y-134362148D01*
X134363019Y-134735248D01*
X134367552Y-135145114D01*
X134367448Y-135570182D01*
X134362781Y-135988885D01*
X134353625Y-136379656D01*
X134340053Y-136720931D01*
X134322140Y-136991143D01*
X134299959Y-137168727D01*
X134284884Y-137221354D01*
X134164568Y-137353226D01*
X134000070Y-137436915D01*
X133860822Y-137499743D01*
X133795243Y-137574400D01*
X133794500Y-137581935D01*
X133817832Y-137614378D01*
X133898082Y-137637925D01*
X134050633Y-137653803D01*
X134290866Y-137663239D01*
X134634164Y-137667458D01*
X134874000Y-137668000D01*
X135274001Y-137666550D01*
X135563715Y-137661219D01*
X135759831Y-137650535D01*
X135879039Y-137633025D01*
X135938029Y-137607216D01*
X135953500Y-137572750D01*
X135900277Y-137495242D01*
X135823614Y-137477500D01*
X135691160Y-137434445D01*
X135546388Y-137329975D01*
X135537864Y-137321636D01*
X135382000Y-137165772D01*
X135382000Y-135484270D01*
X135384208Y-135026781D01*
X135390426Y-134604615D01*
X135400048Y-134236416D01*
X135412466Y-133940832D01*
X135427073Y-133736507D01*
X135441867Y-133645308D01*
X135555959Y-133500966D01*
X135727617Y-133406167D01*
X135873820Y-133333563D01*
X135950263Y-133257079D01*
X135953500Y-133241993D01*
X135926345Y-133210564D01*
X135835235Y-133187730D01*
X135665705Y-133172385D01*
X135403288Y-133163426D01*
X135033520Y-133159745D01*
X134874000Y-133159500D01*
X134462719Y-133161575D01*
G37*
X134462719Y-133161575D02*
X134163915Y-133168537D01*
X133963124Y-133181492D01*
X133845879Y-133201546D01*
X133797715Y-133229803D01*
X133794500Y-133241993D01*
X133848441Y-133315805D01*
X133981241Y-133391218D01*
X134011282Y-133402876D01*
X134205114Y-133522079D01*
X134297032Y-133679108D01*
X134320854Y-133812512D01*
X134339744Y-134047381D01*
X134353774Y-134362148D01*
X134363019Y-134735248D01*
X134367552Y-135145114D01*
X134367448Y-135570182D01*
X134362781Y-135988885D01*
X134353625Y-136379656D01*
X134340053Y-136720931D01*
X134322140Y-136991143D01*
X134299959Y-137168727D01*
X134284884Y-137221354D01*
X134164568Y-137353226D01*
X134000070Y-137436915D01*
X133860822Y-137499743D01*
X133795243Y-137574400D01*
X133794500Y-137581935D01*
X133817832Y-137614378D01*
X133898082Y-137637925D01*
X134050633Y-137653803D01*
X134290866Y-137663239D01*
X134634164Y-137667458D01*
X134874000Y-137668000D01*
X135274001Y-137666550D01*
X135563715Y-137661219D01*
X135759831Y-137650535D01*
X135879039Y-137633025D01*
X135938029Y-137607216D01*
X135953500Y-137572750D01*
X135900277Y-137495242D01*
X135823614Y-137477500D01*
X135691160Y-137434445D01*
X135546388Y-137329975D01*
X135537864Y-137321636D01*
X135382000Y-137165772D01*
X135382000Y-135484270D01*
X135384208Y-135026781D01*
X135390426Y-134604615D01*
X135400048Y-134236416D01*
X135412466Y-133940832D01*
X135427073Y-133736507D01*
X135441867Y-133645308D01*
X135555959Y-133500966D01*
X135727617Y-133406167D01*
X135873820Y-133333563D01*
X135950263Y-133257079D01*
X135953500Y-133241993D01*
X135926345Y-133210564D01*
X135835235Y-133187730D01*
X135665705Y-133172385D01*
X135403288Y-133163426D01*
X135033520Y-133159745D01*
X134874000Y-133159500D01*
X134462719Y-133161575D01*
G36*
X140303224Y-134613030D02*
G01*
X139732444Y-136066561D01*
X139157368Y-134628905D01*
X138582291Y-133191250D01*
X137775896Y-133173477D01*
X137438578Y-133167998D01*
X137208728Y-133170355D01*
X137066953Y-133182456D01*
X136993859Y-133206211D01*
X136970054Y-133243529D01*
X136969500Y-133252852D01*
X137021932Y-133333029D01*
X137089466Y-133350000D01*
X137226424Y-133388581D01*
X137352022Y-133465463D01*
X137408673Y-133522136D01*
X137449447Y-133597024D01*
X137473783Y-133703882D01*
X137481120Y-133856464D01*
X137470899Y-134068526D01*
X137442560Y-134353822D01*
X137395541Y-134726106D01*
X137329284Y-135199133D01*
X137262888Y-135653647D01*
X137188575Y-136148892D01*
X137125684Y-136534238D01*
X137068394Y-136825611D01*
X137010884Y-137038934D01*
X136947334Y-137190135D01*
X136871923Y-137295137D01*
X136778831Y-137369867D01*
X136662237Y-137430248D01*
X136604375Y-137455366D01*
X136464787Y-137522799D01*
X136408328Y-137575030D01*
X136442522Y-137613766D01*
X136574890Y-137640715D01*
X136812953Y-137657584D01*
X137164233Y-137666081D01*
X137541000Y-137668000D01*
X137954033Y-137666660D01*
X138256346Y-137661737D01*
X138464200Y-137651877D01*
X138593858Y-137635723D01*
X138661579Y-137611922D01*
X138683625Y-137579117D01*
X138684000Y-137572750D01*
X138632943Y-137489253D01*
X138585864Y-137477500D01*
X138432631Y-137420717D01*
X138294437Y-137275822D01*
X138199710Y-137080995D01*
X138174290Y-136924761D01*
X138181952Y-136787063D01*
X138204139Y-136561247D01*
X138237819Y-136269227D01*
X138279959Y-135932917D01*
X138327528Y-135574230D01*
X138377492Y-135215081D01*
X138426819Y-134877382D01*
X138472476Y-134583048D01*
X138511430Y-134353992D01*
X138540649Y-134212128D01*
X138554673Y-134176098D01*
X138585808Y-134232920D01*
X138657356Y-134393367D01*
X138763245Y-134642874D01*
X138897401Y-134966879D01*
X139053751Y-135350819D01*
X139226223Y-135780132D01*
X139282885Y-135922348D01*
X139493420Y-136447678D01*
X139664373Y-136864114D01*
X139800423Y-137181803D01*
X139906250Y-137410888D01*
X139986532Y-137561515D01*
X140045948Y-137643829D01*
X140087985Y-137668000D01*
X140131393Y-137642309D01*
X140190948Y-137558478D01*
X140271300Y-137406366D01*
X140377100Y-137175831D01*
X140513000Y-136856734D01*
X140683652Y-136438933D01*
X140893706Y-135912289D01*
X140896244Y-135905875D01*
X141071671Y-135468270D01*
X141233096Y-135076507D01*
X141374601Y-134744091D01*
X141490266Y-134484527D01*
X141574172Y-134311322D01*
X141620400Y-134237980D01*
X141626820Y-134239000D01*
X141654275Y-134357547D01*
X141692674Y-134576990D01*
X141738609Y-134872037D01*
X141788675Y-135217397D01*
X141839466Y-135587779D01*
X141887576Y-135957890D01*
X141929598Y-136302440D01*
X141962128Y-136596138D01*
X141981757Y-136813691D01*
X141986001Y-136906101D01*
X141948061Y-137181439D01*
X141841207Y-137374659D01*
X141675885Y-137470096D01*
X141605000Y-137477500D01*
X141501572Y-137517204D01*
X141478000Y-137572750D01*
X141496398Y-137612419D01*
X141564113Y-137639608D01*
X141699932Y-137656485D01*
X141922640Y-137665215D01*
X142251023Y-137667968D01*
X142303500Y-137668000D01*
X142647305Y-137665877D01*
X142882945Y-137658063D01*
X143029204Y-137642392D01*
X143104869Y-137616695D01*
X143128725Y-137578805D01*
X143129000Y-137572750D01*
X143073646Y-137496238D01*
X142967364Y-137477500D01*
X142777538Y-137418777D01*
X142603092Y-137260764D01*
X142470430Y-137030688D01*
X142436455Y-136929985D01*
X142407762Y-136798259D01*
X142364050Y-136561891D01*
X142308881Y-136241876D01*
X142245820Y-135859204D01*
X142178431Y-135434868D01*
X142136650Y-135164067D01*
X141904840Y-133644384D01*
X142075961Y-133497192D01*
X142236711Y-133395837D01*
X142393886Y-133350202D01*
X142402291Y-133350000D01*
X142527315Y-133316243D01*
X142557500Y-133254750D01*
X142539266Y-133215413D01*
X142472144Y-133188335D01*
X142337504Y-133171406D01*
X142116717Y-133162518D01*
X141791152Y-133159564D01*
X141715752Y-133159500D01*
X140874003Y-133159500D01*
X140303224Y-134613030D01*
G37*
X140303224Y-134613030D02*
X139732444Y-136066561D01*
X139157368Y-134628905D01*
X138582291Y-133191250D01*
X137775896Y-133173477D01*
X137438578Y-133167998D01*
X137208728Y-133170355D01*
X137066953Y-133182456D01*
X136993859Y-133206211D01*
X136970054Y-133243529D01*
X136969500Y-133252852D01*
X137021932Y-133333029D01*
X137089466Y-133350000D01*
X137226424Y-133388581D01*
X137352022Y-133465463D01*
X137408673Y-133522136D01*
X137449447Y-133597024D01*
X137473783Y-133703882D01*
X137481120Y-133856464D01*
X137470899Y-134068526D01*
X137442560Y-134353822D01*
X137395541Y-134726106D01*
X137329284Y-135199133D01*
X137262888Y-135653647D01*
X137188575Y-136148892D01*
X137125684Y-136534238D01*
X137068394Y-136825611D01*
X137010884Y-137038934D01*
X136947334Y-137190135D01*
X136871923Y-137295137D01*
X136778831Y-137369867D01*
X136662237Y-137430248D01*
X136604375Y-137455366D01*
X136464787Y-137522799D01*
X136408328Y-137575030D01*
X136442522Y-137613766D01*
X136574890Y-137640715D01*
X136812953Y-137657584D01*
X137164233Y-137666081D01*
X137541000Y-137668000D01*
X137954033Y-137666660D01*
X138256346Y-137661737D01*
X138464200Y-137651877D01*
X138593858Y-137635723D01*
X138661579Y-137611922D01*
X138683625Y-137579117D01*
X138684000Y-137572750D01*
X138632943Y-137489253D01*
X138585864Y-137477500D01*
X138432631Y-137420717D01*
X138294437Y-137275822D01*
X138199710Y-137080995D01*
X138174290Y-136924761D01*
X138181952Y-136787063D01*
X138204139Y-136561247D01*
X138237819Y-136269227D01*
X138279959Y-135932917D01*
X138327528Y-135574230D01*
X138377492Y-135215081D01*
X138426819Y-134877382D01*
X138472476Y-134583048D01*
X138511430Y-134353992D01*
X138540649Y-134212128D01*
X138554673Y-134176098D01*
X138585808Y-134232920D01*
X138657356Y-134393367D01*
X138763245Y-134642874D01*
X138897401Y-134966879D01*
X139053751Y-135350819D01*
X139226223Y-135780132D01*
X139282885Y-135922348D01*
X139493420Y-136447678D01*
X139664373Y-136864114D01*
X139800423Y-137181803D01*
X139906250Y-137410888D01*
X139986532Y-137561515D01*
X140045948Y-137643829D01*
X140087985Y-137668000D01*
X140131393Y-137642309D01*
X140190948Y-137558478D01*
X140271300Y-137406366D01*
X140377100Y-137175831D01*
X140513000Y-136856734D01*
X140683652Y-136438933D01*
X140893706Y-135912289D01*
X140896244Y-135905875D01*
X141071671Y-135468270D01*
X141233096Y-135076507D01*
X141374601Y-134744091D01*
X141490266Y-134484527D01*
X141574172Y-134311322D01*
X141620400Y-134237980D01*
X141626820Y-134239000D01*
X141654275Y-134357547D01*
X141692674Y-134576990D01*
X141738609Y-134872037D01*
X141788675Y-135217397D01*
X141839466Y-135587779D01*
X141887576Y-135957890D01*
X141929598Y-136302440D01*
X141962128Y-136596138D01*
X141981757Y-136813691D01*
X141986001Y-136906101D01*
X141948061Y-137181439D01*
X141841207Y-137374659D01*
X141675885Y-137470096D01*
X141605000Y-137477500D01*
X141501572Y-137517204D01*
X141478000Y-137572750D01*
X141496398Y-137612419D01*
X141564113Y-137639608D01*
X141699932Y-137656485D01*
X141922640Y-137665215D01*
X142251023Y-137667968D01*
X142303500Y-137668000D01*
X142647305Y-137665877D01*
X142882945Y-137658063D01*
X143029204Y-137642392D01*
X143104869Y-137616695D01*
X143128725Y-137578805D01*
X143129000Y-137572750D01*
X143073646Y-137496238D01*
X142967364Y-137477500D01*
X142777538Y-137418777D01*
X142603092Y-137260764D01*
X142470430Y-137030688D01*
X142436455Y-136929985D01*
X142407762Y-136798259D01*
X142364050Y-136561891D01*
X142308881Y-136241876D01*
X142245820Y-135859204D01*
X142178431Y-135434868D01*
X142136650Y-135164067D01*
X141904840Y-133644384D01*
X142075961Y-133497192D01*
X142236711Y-133395837D01*
X142393886Y-133350202D01*
X142402291Y-133350000D01*
X142527315Y-133316243D01*
X142557500Y-133254750D01*
X142539266Y-133215413D01*
X142472144Y-133188335D01*
X142337504Y-133171406D01*
X142116717Y-133162518D01*
X141791152Y-133159564D01*
X141715752Y-133159500D01*
X140874003Y-133159500D01*
X140303224Y-134613030D01*
G36*
X120247626Y-133084431D02*
G01*
X119919627Y-133247340D01*
X119740135Y-133409814D01*
X119541350Y-133711571D01*
X119460926Y-134031402D01*
X119495357Y-134351629D01*
X119641139Y-134654579D01*
X119894768Y-134922575D01*
X120063223Y-135039322D01*
X120390999Y-135236395D01*
X120142362Y-135310889D01*
X119841468Y-135450814D01*
X119584610Y-135662677D01*
X119411735Y-135912882D01*
X119403116Y-135932620D01*
X119337201Y-136196574D01*
X119320334Y-136513286D01*
X119352582Y-136819241D01*
X119402043Y-136987414D01*
X119542972Y-137210016D01*
X119761128Y-137433181D01*
X120012793Y-137618721D01*
X120248631Y-137726920D01*
X120549426Y-137778898D01*
X120883232Y-137787884D01*
X121196324Y-137755363D01*
X121409189Y-137694836D01*
X121629155Y-137580466D01*
X121828504Y-137444328D01*
X121977286Y-137310197D01*
X122045551Y-137201849D01*
X122047000Y-137188518D01*
X122031279Y-137112537D01*
X121969149Y-137112633D01*
X121838156Y-137191738D01*
X121796105Y-137221289D01*
X121621506Y-137317126D01*
X121401036Y-137403086D01*
X121336583Y-137422109D01*
X121139106Y-137463300D01*
X120989631Y-137451880D01*
X120818011Y-137381826D01*
X120807629Y-137376695D01*
X120530860Y-137183959D01*
X120360294Y-136926886D01*
X120287732Y-136609105D01*
X120312248Y-136250561D01*
X120441989Y-135941072D01*
X120661424Y-135698700D01*
X120955024Y-135541505D01*
X121251422Y-135488346D01*
X121427004Y-135467429D01*
X121527755Y-135427100D01*
X121538999Y-135406383D01*
X121484021Y-135349178D01*
X121340957Y-135271356D01*
X121171236Y-135201423D01*
X120937993Y-135096159D01*
X120727804Y-134967474D01*
X120626398Y-134882504D01*
X120452538Y-134620150D01*
X120381468Y-134324733D01*
X120412682Y-134027845D01*
X120545676Y-133761079D01*
X120646042Y-133652538D01*
X120889258Y-133507177D01*
X121151958Y-133486981D01*
X121431855Y-133591996D01*
X121501209Y-133635750D01*
X121666973Y-133744573D01*
X121754267Y-133785593D01*
X121787950Y-133764849D01*
X121793000Y-133706639D01*
X121742064Y-133597340D01*
X121610829Y-133455858D01*
X121431652Y-133308635D01*
X121236892Y-133182115D01*
X121058909Y-133102742D01*
X121051370Y-133100579D01*
X120626955Y-133035020D01*
X120247626Y-133084431D01*
G37*
X120247626Y-133084431D02*
X119919627Y-133247340D01*
X119740135Y-133409814D01*
X119541350Y-133711571D01*
X119460926Y-134031402D01*
X119495357Y-134351629D01*
X119641139Y-134654579D01*
X119894768Y-134922575D01*
X120063223Y-135039322D01*
X120390999Y-135236395D01*
X120142362Y-135310889D01*
X119841468Y-135450814D01*
X119584610Y-135662677D01*
X119411735Y-135912882D01*
X119403116Y-135932620D01*
X119337201Y-136196574D01*
X119320334Y-136513286D01*
X119352582Y-136819241D01*
X119402043Y-136987414D01*
X119542972Y-137210016D01*
X119761128Y-137433181D01*
X120012793Y-137618721D01*
X120248631Y-137726920D01*
X120549426Y-137778898D01*
X120883232Y-137787884D01*
X121196324Y-137755363D01*
X121409189Y-137694836D01*
X121629155Y-137580466D01*
X121828504Y-137444328D01*
X121977286Y-137310197D01*
X122045551Y-137201849D01*
X122047000Y-137188518D01*
X122031279Y-137112537D01*
X121969149Y-137112633D01*
X121838156Y-137191738D01*
X121796105Y-137221289D01*
X121621506Y-137317126D01*
X121401036Y-137403086D01*
X121336583Y-137422109D01*
X121139106Y-137463300D01*
X120989631Y-137451880D01*
X120818011Y-137381826D01*
X120807629Y-137376695D01*
X120530860Y-137183959D01*
X120360294Y-136926886D01*
X120287732Y-136609105D01*
X120312248Y-136250561D01*
X120441989Y-135941072D01*
X120661424Y-135698700D01*
X120955024Y-135541505D01*
X121251422Y-135488346D01*
X121427004Y-135467429D01*
X121527755Y-135427100D01*
X121538999Y-135406383D01*
X121484021Y-135349178D01*
X121340957Y-135271356D01*
X121171236Y-135201423D01*
X120937993Y-135096159D01*
X120727804Y-134967474D01*
X120626398Y-134882504D01*
X120452538Y-134620150D01*
X120381468Y-134324733D01*
X120412682Y-134027845D01*
X120545676Y-133761079D01*
X120646042Y-133652538D01*
X120889258Y-133507177D01*
X121151958Y-133486981D01*
X121431855Y-133591996D01*
X121501209Y-133635750D01*
X121666973Y-133744573D01*
X121754267Y-133785593D01*
X121787950Y-133764849D01*
X121793000Y-133706639D01*
X121742064Y-133597340D01*
X121610829Y-133455858D01*
X121431652Y-133308635D01*
X121236892Y-133182115D01*
X121058909Y-133102742D01*
X121051370Y-133100579D01*
X120626955Y-133035020D01*
X120247626Y-133084431D01*
D11*
X84253500Y-56578500D02*
X85153500Y-56578500D01*
D13*
X83360000Y-56578500D02*
G75*
G03*
X83360000Y-56578500I-175000J0D01*
G01*
D11*
X83185000Y-56578500D02*
X81185000Y-56578500D01*
X87094500Y-56578500D02*
G75*
G03*
X87094500Y-56578500I-925000J0D01*
G01*
X81125500Y-56578500D02*
G75*
G03*
X81125500Y-56578500I-925000J0D01*
G01*
X82510000Y-57328500D02*
G75*
G03*
X82435000Y-55903500I675000J750000D01*
G01*
X79804047Y-56586428D02*
X80565952Y-56586428D01*
X80185000Y-56967380D02*
X80185000Y-56205476D01*
X85804047Y-56586428D02*
X86565952Y-56586428D01*
M02*
