G04 #@! TF.GenerationSoftware,KiCad,Pcbnew,(5.1.8)-1*
G04 #@! TF.CreationDate,2022-02-20T17:41:48+01:00*
G04 #@! TF.ProjectId,BulkyMIDI-32 Extras,42756c6b-794d-4494-9449-2d3332204578,rev?*
G04 #@! TF.SameCoordinates,Original*
G04 #@! TF.FileFunction,Soldermask,Top*
G04 #@! TF.FilePolarity,Negative*
%FSLAX46Y46*%
G04 Gerber Fmt 4.6, Leading zero omitted, Abs format (unit mm)*
G04 Created by KiCad (PCBNEW (5.1.8)-1) date 2022-02-20 17:41:48*
%MOMM*%
%LPD*%
G01*
G04 APERTURE LIST*
%ADD10C,1.500000*%
%ADD11C,1.600000*%
%ADD12C,3.500000*%
%ADD13C,1.524000*%
%ADD14O,2.000000X1.524000*%
%ADD15O,1.800000X2.400000*%
%ADD16O,2.400000X1.800000*%
%ADD17C,5.100000*%
%ADD18R,3.500000X3.500000*%
%ADD19R,1.600000X1.600000*%
%ADD20O,1.600000X1.600000*%
%ADD21R,1.700000X1.700000*%
%ADD22O,1.700000X1.700000*%
%ADD23R,2.500000X3.500000*%
%ADD24O,3.500000X1.750000*%
%ADD25R,1.500000X1.000000*%
%ADD26R,1.800000X1.800000*%
%ADD27C,1.800000*%
%ADD28C,2.000000*%
%ADD29R,1.600000X2.400000*%
%ADD30O,1.600000X2.400000*%
%ADD31C,0.100000*%
%ADD32R,1.000000X1.500000*%
G04 APERTURE END LIST*
D10*
X100584000Y-102108000D03*
X105464000Y-102108000D03*
D11*
X135255000Y-108585000D03*
X140255000Y-108585000D03*
D12*
X118910000Y-80518000D03*
X91910000Y-80518000D03*
D13*
X109220000Y-81280000D03*
X106680000Y-81280000D03*
X104140000Y-81280000D03*
X101600000Y-81280000D03*
D14*
X130338000Y-149566000D03*
X127838000Y-149566000D03*
X125338000Y-149566000D03*
X130338000Y-147066000D03*
X127838000Y-147066000D03*
X125338000Y-147066000D03*
X115022000Y-149566000D03*
X112522000Y-149566000D03*
X110022000Y-149566000D03*
X115022000Y-147066000D03*
X112522000Y-147066000D03*
X110022000Y-147066000D03*
D15*
X132715000Y-67310000D03*
D16*
X127715000Y-57310000D03*
X137715000Y-57310000D03*
D15*
X125215000Y-67310000D03*
X140215000Y-67310000D03*
X127715000Y-69810000D03*
X137715000Y-69810000D03*
X153035000Y-67310000D03*
D16*
X148035000Y-57310000D03*
X158035000Y-57310000D03*
D15*
X145535000Y-67310000D03*
X160535000Y-67310000D03*
X148035000Y-69810000D03*
X158035000Y-69810000D03*
D17*
X73355000Y-151435000D03*
X167005000Y-57785000D03*
X73355000Y-57785000D03*
D18*
X78485000Y-65580000D03*
X83185000Y-62580000D03*
X83185000Y-68580000D03*
D19*
X129540000Y-101854000D03*
D11*
X133040000Y-101854000D03*
X167894000Y-62230000D03*
D20*
X167894000Y-72390000D03*
D21*
X113030000Y-100965000D03*
D22*
X115570000Y-100965000D03*
X113030000Y-103505000D03*
X115570000Y-103505000D03*
X113030000Y-106045000D03*
X115570000Y-106045000D03*
X113030000Y-108585000D03*
X115570000Y-108585000D03*
X113030000Y-111125000D03*
X115570000Y-111125000D03*
X113030000Y-113665000D03*
X115570000Y-113665000D03*
X113030000Y-116205000D03*
X115570000Y-116205000D03*
X113030000Y-118745000D03*
X115570000Y-118745000D03*
X113030000Y-121285000D03*
X115570000Y-121285000D03*
X113030000Y-123825000D03*
X115570000Y-123825000D03*
D16*
X157480000Y-84471000D03*
D15*
X167480000Y-79471000D03*
X167480000Y-89471000D03*
D16*
X157480000Y-76971000D03*
X157480000Y-91971000D03*
X154980000Y-79471000D03*
X154980000Y-89471000D03*
X154980000Y-109791000D03*
X154980000Y-99791000D03*
X157480000Y-112291000D03*
X157480000Y-97291000D03*
D15*
X167480000Y-109791000D03*
X167480000Y-99791000D03*
D16*
X157480000Y-104791000D03*
X154980000Y-130111000D03*
X154980000Y-120111000D03*
X157480000Y-132611000D03*
X157480000Y-117611000D03*
D15*
X167480000Y-130111000D03*
X167480000Y-120111000D03*
D16*
X157480000Y-125111000D03*
D11*
X149225000Y-80010000D03*
D20*
X139065000Y-80010000D03*
X135255000Y-114935000D03*
D11*
X145415000Y-114935000D03*
D20*
X94107000Y-131064000D03*
D11*
X94107000Y-141224000D03*
X97409000Y-141224000D03*
D20*
X97409000Y-131064000D03*
X135255000Y-123825000D03*
D11*
X145415000Y-123825000D03*
X118999000Y-142875000D03*
D20*
X108839000Y-142875000D03*
D11*
X108839000Y-139700000D03*
D20*
X118999000Y-139700000D03*
X131572000Y-142875000D03*
D11*
X121412000Y-142875000D03*
D20*
X121412000Y-139700000D03*
D11*
X131572000Y-139700000D03*
X85598000Y-101848999D03*
D20*
X85598000Y-112008999D03*
X89408000Y-101854000D03*
D11*
X89408000Y-112014000D03*
X145415000Y-120015000D03*
D20*
X135255000Y-120015000D03*
D11*
X164084000Y-62230000D03*
D20*
X164084000Y-72390000D03*
X149225000Y-87630000D03*
D11*
X139065000Y-87630000D03*
X135255000Y-111760000D03*
D20*
X145415000Y-111760000D03*
X132080000Y-108585000D03*
X124460000Y-123825000D03*
X132080000Y-111125000D03*
X124460000Y-121285000D03*
X132080000Y-113665000D03*
X124460000Y-118745000D03*
X132080000Y-116205000D03*
X124460000Y-116205000D03*
X132080000Y-118745000D03*
X124460000Y-113665000D03*
X132080000Y-121285000D03*
X124460000Y-111125000D03*
X132080000Y-123825000D03*
D19*
X124460000Y-108585000D03*
D23*
X74933001Y-133528999D03*
D24*
X79939001Y-128528999D03*
X79939001Y-138528999D03*
X79939001Y-131028999D03*
X79939001Y-136028999D03*
X79939001Y-122688999D03*
X79939001Y-117688999D03*
X79939001Y-125188999D03*
X79939001Y-115188999D03*
D23*
X74933001Y-120188999D03*
X74933001Y-106848999D03*
D24*
X79939001Y-101848999D03*
X79939001Y-111848999D03*
X79939001Y-104348999D03*
X79939001Y-109348999D03*
D25*
X120650000Y-121255000D03*
X120650000Y-122555000D03*
X120650000Y-123855000D03*
X120650000Y-112425000D03*
X120650000Y-111125000D03*
X120650000Y-109825000D03*
X120650000Y-115540000D03*
X120650000Y-116840000D03*
X120650000Y-118140000D03*
D26*
X88646000Y-144399000D03*
D27*
X91186000Y-144399000D03*
X99822000Y-144399000D03*
D26*
X97282000Y-144399000D03*
D22*
X146304000Y-146177000D03*
X148844000Y-146177000D03*
X151384000Y-146177000D03*
D21*
X153924000Y-146177000D03*
D11*
X95097600Y-104648000D03*
X95097600Y-99648000D03*
X100076000Y-107696000D03*
X95076000Y-107696000D03*
X107616000Y-107696000D03*
X102616000Y-107696000D03*
X76374000Y-97790000D03*
X71374000Y-97790000D03*
D19*
X127635000Y-86995000D03*
D20*
X135255000Y-86995000D03*
D21*
X97790000Y-84455000D03*
D22*
X95250000Y-84455000D03*
X92710000Y-84455000D03*
X90170000Y-84455000D03*
X87630000Y-84455000D03*
X85090000Y-84455000D03*
D21*
X72644000Y-89154000D03*
D22*
X75184000Y-89154000D03*
X72644000Y-91694000D03*
X75184000Y-91694000D03*
X72644000Y-94234000D03*
X75184000Y-94234000D03*
D21*
X121285000Y-93345000D03*
D22*
X123825000Y-93345000D03*
D21*
X121285000Y-95885000D03*
D22*
X123825000Y-95885000D03*
X121285000Y-98425000D03*
X123825000Y-98425000D03*
D21*
X101600000Y-84455000D03*
D22*
X104140000Y-84455000D03*
X106680000Y-84455000D03*
X109220000Y-84455000D03*
D17*
X167005000Y-151435000D03*
D11*
X81915000Y-84582000D03*
D20*
X71755000Y-84582000D03*
D11*
X139065000Y-76200000D03*
D20*
X149225000Y-76200000D03*
X139065000Y-83820000D03*
D11*
X149225000Y-83820000D03*
D28*
X72390000Y-78922000D03*
X72390000Y-74422000D03*
X78890000Y-78922000D03*
X78890000Y-74422000D03*
D29*
X79248000Y-96520000D03*
D30*
X112268000Y-88900000D03*
X81788000Y-96520000D03*
X109728000Y-88900000D03*
X84328000Y-96520000D03*
X107188000Y-88900000D03*
X86868000Y-96520000D03*
X104648000Y-88900000D03*
X89408000Y-96520000D03*
X102108000Y-88900000D03*
X91948000Y-96520000D03*
X99568000Y-88900000D03*
X94488000Y-96520000D03*
X97028000Y-88900000D03*
X97028000Y-96520000D03*
X94488000Y-88900000D03*
X99568000Y-96520000D03*
X91948000Y-88900000D03*
X102108000Y-96520000D03*
X89408000Y-88900000D03*
X104648000Y-96520000D03*
X86868000Y-88900000D03*
X107188000Y-96520000D03*
X84328000Y-88900000D03*
X109728000Y-96520000D03*
X81788000Y-88900000D03*
X112268000Y-96520000D03*
X79248000Y-88900000D03*
D29*
X127635000Y-83820000D03*
D30*
X135255000Y-76200000D03*
X130175000Y-83820000D03*
X132715000Y-76200000D03*
X132715000Y-83820000D03*
X130175000Y-76200000D03*
X135255000Y-83820000D03*
X127635000Y-76200000D03*
D31*
G36*
X115685000Y-83705000D02*
G01*
X116235000Y-83705000D01*
X116235000Y-83705602D01*
X116259534Y-83705602D01*
X116308365Y-83710412D01*
X116356490Y-83719984D01*
X116403445Y-83734228D01*
X116448778Y-83753005D01*
X116492051Y-83776136D01*
X116532850Y-83803396D01*
X116570779Y-83834524D01*
X116605476Y-83869221D01*
X116636604Y-83907150D01*
X116663864Y-83947949D01*
X116686995Y-83991222D01*
X116705772Y-84036555D01*
X116720016Y-84083510D01*
X116729588Y-84131635D01*
X116734398Y-84180466D01*
X116734398Y-84205000D01*
X116735000Y-84205000D01*
X116735000Y-84705000D01*
X116734398Y-84705000D01*
X116734398Y-84729534D01*
X116729588Y-84778365D01*
X116720016Y-84826490D01*
X116705772Y-84873445D01*
X116686995Y-84918778D01*
X116663864Y-84962051D01*
X116636604Y-85002850D01*
X116605476Y-85040779D01*
X116570779Y-85075476D01*
X116532850Y-85106604D01*
X116492051Y-85133864D01*
X116448778Y-85156995D01*
X116403445Y-85175772D01*
X116356490Y-85190016D01*
X116308365Y-85199588D01*
X116259534Y-85204398D01*
X116235000Y-85204398D01*
X116235000Y-85205000D01*
X115685000Y-85205000D01*
X115685000Y-83705000D01*
G37*
G36*
X113635000Y-85204398D02*
G01*
X113610466Y-85204398D01*
X113561635Y-85199588D01*
X113513510Y-85190016D01*
X113466555Y-85175772D01*
X113421222Y-85156995D01*
X113377949Y-85133864D01*
X113337150Y-85106604D01*
X113299221Y-85075476D01*
X113264524Y-85040779D01*
X113233396Y-85002850D01*
X113206136Y-84962051D01*
X113183005Y-84918778D01*
X113164228Y-84873445D01*
X113149984Y-84826490D01*
X113140412Y-84778365D01*
X113135602Y-84729534D01*
X113135602Y-84705000D01*
X113135000Y-84705000D01*
X113135000Y-84205000D01*
X113135602Y-84205000D01*
X113135602Y-84180466D01*
X113140412Y-84131635D01*
X113149984Y-84083510D01*
X113164228Y-84036555D01*
X113183005Y-83991222D01*
X113206136Y-83947949D01*
X113233396Y-83907150D01*
X113264524Y-83869221D01*
X113299221Y-83834524D01*
X113337150Y-83803396D01*
X113377949Y-83776136D01*
X113421222Y-83753005D01*
X113466555Y-83734228D01*
X113513510Y-83719984D01*
X113561635Y-83710412D01*
X113610466Y-83705602D01*
X113635000Y-83705602D01*
X113635000Y-83705000D01*
X114185000Y-83705000D01*
X114185000Y-85205000D01*
X113635000Y-85205000D01*
X113635000Y-85204398D01*
G37*
D32*
X114935000Y-84455000D03*
X120396000Y-84328000D03*
D31*
G36*
X119096000Y-85077398D02*
G01*
X119071466Y-85077398D01*
X119022635Y-85072588D01*
X118974510Y-85063016D01*
X118927555Y-85048772D01*
X118882222Y-85029995D01*
X118838949Y-85006864D01*
X118798150Y-84979604D01*
X118760221Y-84948476D01*
X118725524Y-84913779D01*
X118694396Y-84875850D01*
X118667136Y-84835051D01*
X118644005Y-84791778D01*
X118625228Y-84746445D01*
X118610984Y-84699490D01*
X118601412Y-84651365D01*
X118596602Y-84602534D01*
X118596602Y-84578000D01*
X118596000Y-84578000D01*
X118596000Y-84078000D01*
X118596602Y-84078000D01*
X118596602Y-84053466D01*
X118601412Y-84004635D01*
X118610984Y-83956510D01*
X118625228Y-83909555D01*
X118644005Y-83864222D01*
X118667136Y-83820949D01*
X118694396Y-83780150D01*
X118725524Y-83742221D01*
X118760221Y-83707524D01*
X118798150Y-83676396D01*
X118838949Y-83649136D01*
X118882222Y-83626005D01*
X118927555Y-83607228D01*
X118974510Y-83592984D01*
X119022635Y-83583412D01*
X119071466Y-83578602D01*
X119096000Y-83578602D01*
X119096000Y-83578000D01*
X119646000Y-83578000D01*
X119646000Y-85078000D01*
X119096000Y-85078000D01*
X119096000Y-85077398D01*
G37*
G36*
X121146000Y-83578000D02*
G01*
X121696000Y-83578000D01*
X121696000Y-83578602D01*
X121720534Y-83578602D01*
X121769365Y-83583412D01*
X121817490Y-83592984D01*
X121864445Y-83607228D01*
X121909778Y-83626005D01*
X121953051Y-83649136D01*
X121993850Y-83676396D01*
X122031779Y-83707524D01*
X122066476Y-83742221D01*
X122097604Y-83780150D01*
X122124864Y-83820949D01*
X122147995Y-83864222D01*
X122166772Y-83909555D01*
X122181016Y-83956510D01*
X122190588Y-84004635D01*
X122195398Y-84053466D01*
X122195398Y-84078000D01*
X122196000Y-84078000D01*
X122196000Y-84578000D01*
X122195398Y-84578000D01*
X122195398Y-84602534D01*
X122190588Y-84651365D01*
X122181016Y-84699490D01*
X122166772Y-84746445D01*
X122147995Y-84791778D01*
X122124864Y-84835051D01*
X122097604Y-84875850D01*
X122066476Y-84913779D01*
X122031779Y-84948476D01*
X121993850Y-84979604D01*
X121953051Y-85006864D01*
X121909778Y-85029995D01*
X121864445Y-85048772D01*
X121817490Y-85063016D01*
X121769365Y-85072588D01*
X121720534Y-85077398D01*
X121696000Y-85077398D01*
X121696000Y-85078000D01*
X121146000Y-85078000D01*
X121146000Y-83578000D01*
G37*
G36*
X121146000Y-88150000D02*
G01*
X121696000Y-88150000D01*
X121696000Y-88150602D01*
X121720534Y-88150602D01*
X121769365Y-88155412D01*
X121817490Y-88164984D01*
X121864445Y-88179228D01*
X121909778Y-88198005D01*
X121953051Y-88221136D01*
X121993850Y-88248396D01*
X122031779Y-88279524D01*
X122066476Y-88314221D01*
X122097604Y-88352150D01*
X122124864Y-88392949D01*
X122147995Y-88436222D01*
X122166772Y-88481555D01*
X122181016Y-88528510D01*
X122190588Y-88576635D01*
X122195398Y-88625466D01*
X122195398Y-88650000D01*
X122196000Y-88650000D01*
X122196000Y-89150000D01*
X122195398Y-89150000D01*
X122195398Y-89174534D01*
X122190588Y-89223365D01*
X122181016Y-89271490D01*
X122166772Y-89318445D01*
X122147995Y-89363778D01*
X122124864Y-89407051D01*
X122097604Y-89447850D01*
X122066476Y-89485779D01*
X122031779Y-89520476D01*
X121993850Y-89551604D01*
X121953051Y-89578864D01*
X121909778Y-89601995D01*
X121864445Y-89620772D01*
X121817490Y-89635016D01*
X121769365Y-89644588D01*
X121720534Y-89649398D01*
X121696000Y-89649398D01*
X121696000Y-89650000D01*
X121146000Y-89650000D01*
X121146000Y-88150000D01*
G37*
G36*
X119096000Y-89649398D02*
G01*
X119071466Y-89649398D01*
X119022635Y-89644588D01*
X118974510Y-89635016D01*
X118927555Y-89620772D01*
X118882222Y-89601995D01*
X118838949Y-89578864D01*
X118798150Y-89551604D01*
X118760221Y-89520476D01*
X118725524Y-89485779D01*
X118694396Y-89447850D01*
X118667136Y-89407051D01*
X118644005Y-89363778D01*
X118625228Y-89318445D01*
X118610984Y-89271490D01*
X118601412Y-89223365D01*
X118596602Y-89174534D01*
X118596602Y-89150000D01*
X118596000Y-89150000D01*
X118596000Y-88650000D01*
X118596602Y-88650000D01*
X118596602Y-88625466D01*
X118601412Y-88576635D01*
X118610984Y-88528510D01*
X118625228Y-88481555D01*
X118644005Y-88436222D01*
X118667136Y-88392949D01*
X118694396Y-88352150D01*
X118725524Y-88314221D01*
X118760221Y-88279524D01*
X118798150Y-88248396D01*
X118838949Y-88221136D01*
X118882222Y-88198005D01*
X118927555Y-88179228D01*
X118974510Y-88164984D01*
X119022635Y-88155412D01*
X119071466Y-88150602D01*
X119096000Y-88150602D01*
X119096000Y-88150000D01*
X119646000Y-88150000D01*
X119646000Y-89650000D01*
X119096000Y-89650000D01*
X119096000Y-89649398D01*
G37*
D32*
X120396000Y-88900000D03*
D11*
X124460000Y-77470000D03*
X124460000Y-82470000D03*
M02*
