G04 #@! TF.GenerationSoftware,KiCad,Pcbnew,(5.1.8)-1*
G04 #@! TF.CreationDate,2022-02-18T00:17:42+01:00*
G04 #@! TF.ProjectId,BulkyMIDI-32 Extras,42756c6b-794d-4494-9449-2d3332204578,rev?*
G04 #@! TF.SameCoordinates,Original*
G04 #@! TF.FileFunction,Legend,Bot*
G04 #@! TF.FilePolarity,Positive*
%FSLAX46Y46*%
G04 Gerber Fmt 4.6, Leading zero omitted, Abs format (unit mm)*
G04 Created by KiCad (PCBNEW (5.1.8)-1) date 2022-02-18 00:17:42*
%MOMM*%
%LPD*%
G01*
G04 APERTURE LIST*
%ADD10C,0.150000*%
%ADD11C,0.010000*%
%ADD12C,0.500000*%
G04 APERTURE END LIST*
D10*
X84756428Y-58507380D02*
X85232619Y-58507380D01*
X85280238Y-58983571D01*
X85232619Y-58935952D01*
X85137380Y-58888333D01*
X84899285Y-58888333D01*
X84804047Y-58935952D01*
X84756428Y-58983571D01*
X84708809Y-59078809D01*
X84708809Y-59316904D01*
X84756428Y-59412142D01*
X84804047Y-59459761D01*
X84899285Y-59507380D01*
X85137380Y-59507380D01*
X85232619Y-59459761D01*
X85280238Y-59412142D01*
X84423095Y-58507380D02*
X84089761Y-59507380D01*
X83756428Y-58507380D01*
X82661190Y-59507380D02*
X82661190Y-58507380D01*
X82423095Y-58507380D01*
X82280238Y-58555000D01*
X82185000Y-58650238D01*
X82137380Y-58745476D01*
X82089761Y-58935952D01*
X82089761Y-59078809D01*
X82137380Y-59269285D01*
X82185000Y-59364523D01*
X82280238Y-59459761D01*
X82423095Y-59507380D01*
X82661190Y-59507380D01*
X81089761Y-59412142D02*
X81137380Y-59459761D01*
X81280238Y-59507380D01*
X81375476Y-59507380D01*
X81518333Y-59459761D01*
X81613571Y-59364523D01*
X81661190Y-59269285D01*
X81708809Y-59078809D01*
X81708809Y-58935952D01*
X81661190Y-58745476D01*
X81613571Y-58650238D01*
X81518333Y-58555000D01*
X81375476Y-58507380D01*
X81280238Y-58507380D01*
X81137380Y-58555000D01*
X81089761Y-58602619D01*
D11*
G36*
X110986970Y-85663888D02*
G01*
X110765949Y-85672671D01*
X110633008Y-85690279D01*
X110568720Y-85719139D01*
X110553500Y-85756750D01*
X110601831Y-85840992D01*
X110643878Y-85852000D01*
X110763751Y-85891769D01*
X110920099Y-86015427D01*
X111118867Y-86229497D01*
X111366000Y-86540503D01*
X111667441Y-86954967D01*
X111729931Y-87043927D01*
X112331500Y-87904238D01*
X112331500Y-88913005D01*
X112330796Y-89292334D01*
X112326778Y-89566001D01*
X112316592Y-89755342D01*
X112297382Y-89881693D01*
X112266292Y-89966391D01*
X112220467Y-90030773D01*
X112175637Y-90077636D01*
X112032479Y-90184915D01*
X111897058Y-90233277D01*
X111889887Y-90233500D01*
X111784195Y-90272530D01*
X111760000Y-90328750D01*
X111776077Y-90363169D01*
X111835147Y-90388362D01*
X111953473Y-90405683D01*
X112147314Y-90416488D01*
X112432932Y-90422131D01*
X112826588Y-90423968D01*
X112903000Y-90424000D01*
X113316033Y-90422660D01*
X113618346Y-90417737D01*
X113826200Y-90407877D01*
X113955858Y-90391723D01*
X114023579Y-90367922D01*
X114045625Y-90335117D01*
X114046000Y-90328750D01*
X113992777Y-90251242D01*
X113916114Y-90233500D01*
X113783660Y-90190445D01*
X113638888Y-90085975D01*
X113630364Y-90077636D01*
X113567981Y-90009473D01*
X113524934Y-89935768D01*
X113497642Y-89832969D01*
X113482528Y-89677522D01*
X113476011Y-89445875D01*
X113474514Y-89114476D01*
X113474500Y-89051967D01*
X113474500Y-88182162D01*
X114149910Y-87141878D01*
X114427536Y-86720488D01*
X114651059Y-86397357D01*
X114830346Y-86161033D01*
X114975263Y-86000061D01*
X115095675Y-85902990D01*
X115201450Y-85858366D01*
X115261064Y-85852000D01*
X115359229Y-85809877D01*
X115379500Y-85756750D01*
X115363253Y-85721901D01*
X115303529Y-85696525D01*
X115183858Y-85679210D01*
X114987768Y-85668542D01*
X114698788Y-85663111D01*
X114300446Y-85661505D01*
X114268250Y-85661500D01*
X113858938Y-85663064D01*
X113560604Y-85668628D01*
X113357259Y-85679499D01*
X113232910Y-85696985D01*
X113171566Y-85722392D01*
X113157000Y-85752333D01*
X113211054Y-85831028D01*
X113299875Y-85863458D01*
X113415376Y-85907674D01*
X113459885Y-86004213D01*
X113430755Y-86162866D01*
X113325337Y-86393425D01*
X113140984Y-86705683D01*
X113022396Y-86889410D01*
X112830737Y-87175210D01*
X112693138Y-87365286D01*
X112598100Y-87472687D01*
X112534122Y-87510458D01*
X112490628Y-87492660D01*
X112372698Y-87347006D01*
X112227471Y-87141273D01*
X112072255Y-86903569D01*
X111924358Y-86662002D01*
X111801090Y-86444679D01*
X111719759Y-86279708D01*
X111696500Y-86203071D01*
X111743079Y-86054214D01*
X111853635Y-85920942D01*
X111984396Y-85853371D01*
X112003126Y-85851999D01*
X112069035Y-85800749D01*
X112077500Y-85756750D01*
X112058395Y-85715683D01*
X111988127Y-85688056D01*
X111847267Y-85671438D01*
X111616386Y-85663402D01*
X111315500Y-85661500D01*
X110986970Y-85663888D01*
G37*
X110986970Y-85663888D02*
X110765949Y-85672671D01*
X110633008Y-85690279D01*
X110568720Y-85719139D01*
X110553500Y-85756750D01*
X110601831Y-85840992D01*
X110643878Y-85852000D01*
X110763751Y-85891769D01*
X110920099Y-86015427D01*
X111118867Y-86229497D01*
X111366000Y-86540503D01*
X111667441Y-86954967D01*
X111729931Y-87043927D01*
X112331500Y-87904238D01*
X112331500Y-88913005D01*
X112330796Y-89292334D01*
X112326778Y-89566001D01*
X112316592Y-89755342D01*
X112297382Y-89881693D01*
X112266292Y-89966391D01*
X112220467Y-90030773D01*
X112175637Y-90077636D01*
X112032479Y-90184915D01*
X111897058Y-90233277D01*
X111889887Y-90233500D01*
X111784195Y-90272530D01*
X111760000Y-90328750D01*
X111776077Y-90363169D01*
X111835147Y-90388362D01*
X111953473Y-90405683D01*
X112147314Y-90416488D01*
X112432932Y-90422131D01*
X112826588Y-90423968D01*
X112903000Y-90424000D01*
X113316033Y-90422660D01*
X113618346Y-90417737D01*
X113826200Y-90407877D01*
X113955858Y-90391723D01*
X114023579Y-90367922D01*
X114045625Y-90335117D01*
X114046000Y-90328750D01*
X113992777Y-90251242D01*
X113916114Y-90233500D01*
X113783660Y-90190445D01*
X113638888Y-90085975D01*
X113630364Y-90077636D01*
X113567981Y-90009473D01*
X113524934Y-89935768D01*
X113497642Y-89832969D01*
X113482528Y-89677522D01*
X113476011Y-89445875D01*
X113474514Y-89114476D01*
X113474500Y-89051967D01*
X113474500Y-88182162D01*
X114149910Y-87141878D01*
X114427536Y-86720488D01*
X114651059Y-86397357D01*
X114830346Y-86161033D01*
X114975263Y-86000061D01*
X115095675Y-85902990D01*
X115201450Y-85858366D01*
X115261064Y-85852000D01*
X115359229Y-85809877D01*
X115379500Y-85756750D01*
X115363253Y-85721901D01*
X115303529Y-85696525D01*
X115183858Y-85679210D01*
X114987768Y-85668542D01*
X114698788Y-85663111D01*
X114300446Y-85661505D01*
X114268250Y-85661500D01*
X113858938Y-85663064D01*
X113560604Y-85668628D01*
X113357259Y-85679499D01*
X113232910Y-85696985D01*
X113171566Y-85722392D01*
X113157000Y-85752333D01*
X113211054Y-85831028D01*
X113299875Y-85863458D01*
X113415376Y-85907674D01*
X113459885Y-86004213D01*
X113430755Y-86162866D01*
X113325337Y-86393425D01*
X113140984Y-86705683D01*
X113022396Y-86889410D01*
X112830737Y-87175210D01*
X112693138Y-87365286D01*
X112598100Y-87472687D01*
X112534122Y-87510458D01*
X112490628Y-87492660D01*
X112372698Y-87347006D01*
X112227471Y-87141273D01*
X112072255Y-86903569D01*
X111924358Y-86662002D01*
X111801090Y-86444679D01*
X111719759Y-86279708D01*
X111696500Y-86203071D01*
X111743079Y-86054214D01*
X111853635Y-85920942D01*
X111984396Y-85853371D01*
X112003126Y-85851999D01*
X112069035Y-85800749D01*
X112077500Y-85756750D01*
X112058395Y-85715683D01*
X111988127Y-85688056D01*
X111847267Y-85671438D01*
X111616386Y-85663402D01*
X111315500Y-85661500D01*
X110986970Y-85663888D01*
G36*
X116389903Y-85663077D02*
G01*
X116113125Y-85668881D01*
X115929017Y-85680520D01*
X115820425Y-85699602D01*
X115770196Y-85727735D01*
X115760500Y-85756750D01*
X115815814Y-85833287D01*
X115921361Y-85852000D01*
X116061071Y-85866514D01*
X116213482Y-85915387D01*
X116389516Y-86006618D01*
X116600099Y-86148204D01*
X116856152Y-86348142D01*
X117168599Y-86614429D01*
X117548362Y-86955063D01*
X118006366Y-87378042D01*
X118008910Y-87380414D01*
X117996970Y-87439937D01*
X117913907Y-87577677D01*
X117757567Y-87796442D01*
X117525797Y-88099043D01*
X117216441Y-88488290D01*
X116827348Y-88966993D01*
X116356362Y-89537962D01*
X116341570Y-89555793D01*
X116088175Y-89843930D01*
X115867892Y-90060265D01*
X115696567Y-90189650D01*
X115658945Y-90208476D01*
X115514222Y-90277285D01*
X115454436Y-90330485D01*
X115486882Y-90369833D01*
X115618856Y-90397086D01*
X115857651Y-90413999D01*
X116210565Y-90422329D01*
X116554250Y-90424000D01*
X116975748Y-90421844D01*
X117283837Y-90414726D01*
X117492050Y-90401669D01*
X117613915Y-90381697D01*
X117662963Y-90353833D01*
X117665500Y-90343807D01*
X117613976Y-90258288D01*
X117526733Y-90200932D01*
X117410461Y-90127388D01*
X117367584Y-90073552D01*
X117399406Y-90006255D01*
X117500135Y-89857399D01*
X117657743Y-89643295D01*
X117860201Y-89380254D01*
X118095482Y-89084588D01*
X118111347Y-89064971D01*
X118875492Y-88121088D01*
X118840250Y-90011250D01*
X118572677Y-90138250D01*
X118400232Y-90227375D01*
X118309083Y-90296389D01*
X118306550Y-90347693D01*
X118399955Y-90383690D01*
X118596618Y-90406782D01*
X118903861Y-90419371D01*
X119329005Y-90423860D01*
X119443500Y-90424000D01*
X119859768Y-90422467D01*
X120164775Y-90417044D01*
X120374234Y-90406491D01*
X120503858Y-90389566D01*
X120569358Y-90365030D01*
X120586500Y-90333795D01*
X120531515Y-90258464D01*
X120398968Y-90202412D01*
X120396079Y-90201767D01*
X120292135Y-90175349D01*
X120209042Y-90137810D01*
X120144468Y-90075847D01*
X120096078Y-89976157D01*
X120061542Y-89825438D01*
X120038527Y-89610388D01*
X120024698Y-89317704D01*
X120017725Y-88934085D01*
X120015274Y-88446227D01*
X120015000Y-88028620D01*
X120015391Y-87492657D01*
X120017172Y-87069211D01*
X120021259Y-86743801D01*
X120028567Y-86501944D01*
X120040011Y-86329160D01*
X120056506Y-86210965D01*
X120078966Y-86132879D01*
X120108307Y-86080420D01*
X120140385Y-86044115D01*
X120296540Y-85932234D01*
X120426135Y-85878481D01*
X120546051Y-85818532D01*
X120586500Y-85749866D01*
X120565639Y-85717566D01*
X120492759Y-85693889D01*
X120352421Y-85677641D01*
X120129184Y-85667627D01*
X119807605Y-85662655D01*
X119443500Y-85661500D01*
X119019087Y-85663424D01*
X118707463Y-85669881D01*
X118494466Y-85681891D01*
X118365933Y-85700476D01*
X118307702Y-85726660D01*
X118300500Y-85743993D01*
X118354503Y-85817278D01*
X118487870Y-85893220D01*
X118522708Y-85906838D01*
X118688908Y-85992652D01*
X118802565Y-86096678D01*
X118810476Y-86109692D01*
X118836661Y-86224716D01*
X118853932Y-86438627D01*
X118860730Y-86723521D01*
X118858144Y-86961807D01*
X118840250Y-87691421D01*
X118090808Y-86985571D01*
X117780141Y-86687451D01*
X117560036Y-86458811D01*
X117424395Y-86286755D01*
X117367118Y-86158388D01*
X117382107Y-86060813D01*
X117463263Y-85981136D01*
X117584751Y-85915500D01*
X117721533Y-85831852D01*
X117789519Y-85750960D01*
X117791126Y-85740875D01*
X117759912Y-85709430D01*
X117655962Y-85686833D01*
X117465699Y-85672021D01*
X117175542Y-85663930D01*
X116776500Y-85661500D01*
X116389903Y-85663077D01*
G37*
X116389903Y-85663077D02*
X116113125Y-85668881D01*
X115929017Y-85680520D01*
X115820425Y-85699602D01*
X115770196Y-85727735D01*
X115760500Y-85756750D01*
X115815814Y-85833287D01*
X115921361Y-85852000D01*
X116061071Y-85866514D01*
X116213482Y-85915387D01*
X116389516Y-86006618D01*
X116600099Y-86148204D01*
X116856152Y-86348142D01*
X117168599Y-86614429D01*
X117548362Y-86955063D01*
X118006366Y-87378042D01*
X118008910Y-87380414D01*
X117996970Y-87439937D01*
X117913907Y-87577677D01*
X117757567Y-87796442D01*
X117525797Y-88099043D01*
X117216441Y-88488290D01*
X116827348Y-88966993D01*
X116356362Y-89537962D01*
X116341570Y-89555793D01*
X116088175Y-89843930D01*
X115867892Y-90060265D01*
X115696567Y-90189650D01*
X115658945Y-90208476D01*
X115514222Y-90277285D01*
X115454436Y-90330485D01*
X115486882Y-90369833D01*
X115618856Y-90397086D01*
X115857651Y-90413999D01*
X116210565Y-90422329D01*
X116554250Y-90424000D01*
X116975748Y-90421844D01*
X117283837Y-90414726D01*
X117492050Y-90401669D01*
X117613915Y-90381697D01*
X117662963Y-90353833D01*
X117665500Y-90343807D01*
X117613976Y-90258288D01*
X117526733Y-90200932D01*
X117410461Y-90127388D01*
X117367584Y-90073552D01*
X117399406Y-90006255D01*
X117500135Y-89857399D01*
X117657743Y-89643295D01*
X117860201Y-89380254D01*
X118095482Y-89084588D01*
X118111347Y-89064971D01*
X118875492Y-88121088D01*
X118840250Y-90011250D01*
X118572677Y-90138250D01*
X118400232Y-90227375D01*
X118309083Y-90296389D01*
X118306550Y-90347693D01*
X118399955Y-90383690D01*
X118596618Y-90406782D01*
X118903861Y-90419371D01*
X119329005Y-90423860D01*
X119443500Y-90424000D01*
X119859768Y-90422467D01*
X120164775Y-90417044D01*
X120374234Y-90406491D01*
X120503858Y-90389566D01*
X120569358Y-90365030D01*
X120586500Y-90333795D01*
X120531515Y-90258464D01*
X120398968Y-90202412D01*
X120396079Y-90201767D01*
X120292135Y-90175349D01*
X120209042Y-90137810D01*
X120144468Y-90075847D01*
X120096078Y-89976157D01*
X120061542Y-89825438D01*
X120038527Y-89610388D01*
X120024698Y-89317704D01*
X120017725Y-88934085D01*
X120015274Y-88446227D01*
X120015000Y-88028620D01*
X120015391Y-87492657D01*
X120017172Y-87069211D01*
X120021259Y-86743801D01*
X120028567Y-86501944D01*
X120040011Y-86329160D01*
X120056506Y-86210965D01*
X120078966Y-86132879D01*
X120108307Y-86080420D01*
X120140385Y-86044115D01*
X120296540Y-85932234D01*
X120426135Y-85878481D01*
X120546051Y-85818532D01*
X120586500Y-85749866D01*
X120565639Y-85717566D01*
X120492759Y-85693889D01*
X120352421Y-85677641D01*
X120129184Y-85667627D01*
X119807605Y-85662655D01*
X119443500Y-85661500D01*
X119019087Y-85663424D01*
X118707463Y-85669881D01*
X118494466Y-85681891D01*
X118365933Y-85700476D01*
X118307702Y-85726660D01*
X118300500Y-85743993D01*
X118354503Y-85817278D01*
X118487870Y-85893220D01*
X118522708Y-85906838D01*
X118688908Y-85992652D01*
X118802565Y-86096678D01*
X118810476Y-86109692D01*
X118836661Y-86224716D01*
X118853932Y-86438627D01*
X118860730Y-86723521D01*
X118858144Y-86961807D01*
X118840250Y-87691421D01*
X118090808Y-86985571D01*
X117780141Y-86687451D01*
X117560036Y-86458811D01*
X117424395Y-86286755D01*
X117367118Y-86158388D01*
X117382107Y-86060813D01*
X117463263Y-85981136D01*
X117584751Y-85915500D01*
X117721533Y-85831852D01*
X117789519Y-85750960D01*
X117791126Y-85740875D01*
X117759912Y-85709430D01*
X117655962Y-85686833D01*
X117465699Y-85672021D01*
X117175542Y-85663930D01*
X116776500Y-85661500D01*
X116389903Y-85663077D01*
G36*
X123089716Y-85663112D02*
G01*
X122783459Y-85668747D01*
X122573288Y-85679596D01*
X122443762Y-85696855D01*
X122379441Y-85721716D01*
X122364500Y-85749866D01*
X122418675Y-85829540D01*
X122524866Y-85878481D01*
X122695201Y-85955848D01*
X122810616Y-86044115D01*
X122846644Y-86085906D01*
X122875032Y-86140600D01*
X122896685Y-86222631D01*
X122912512Y-86346437D01*
X122923419Y-86526452D01*
X122930314Y-86777112D01*
X122934104Y-87112852D01*
X122935697Y-87548109D01*
X122936000Y-88039149D01*
X122935806Y-88574909D01*
X122934541Y-88997902D01*
X122931185Y-89322360D01*
X122924719Y-89562516D01*
X122914121Y-89732603D01*
X122898372Y-89846853D01*
X122876450Y-89919499D01*
X122847336Y-89964774D01*
X122810010Y-89996910D01*
X122794871Y-90007649D01*
X122624750Y-90072238D01*
X122378004Y-90102529D01*
X122100368Y-90098233D01*
X121837578Y-90059067D01*
X121695791Y-90014523D01*
X121511607Y-89892826D01*
X121324944Y-89673396D01*
X121237456Y-89541144D01*
X121074978Y-89300234D01*
X120959339Y-89176420D01*
X120887377Y-89170059D01*
X120855925Y-89281506D01*
X120861820Y-89511116D01*
X120868319Y-89582625D01*
X120896025Y-89838883D01*
X120925272Y-90074769D01*
X120946284Y-90217625D01*
X120981634Y-90424000D01*
X122816067Y-90424000D01*
X123356679Y-90423167D01*
X123782964Y-90420256D01*
X124107589Y-90414643D01*
X124343221Y-90405704D01*
X124502524Y-90392818D01*
X124598164Y-90375361D01*
X124642808Y-90352711D01*
X124650500Y-90333795D01*
X124595636Y-90257628D01*
X124466585Y-90203196D01*
X124360537Y-90178158D01*
X124275746Y-90145810D01*
X124209970Y-90092927D01*
X124160967Y-90006287D01*
X124126496Y-89872664D01*
X124104314Y-89678836D01*
X124092181Y-89411578D01*
X124087853Y-89057667D01*
X124089091Y-88603878D01*
X124093651Y-88036988D01*
X124093930Y-88004954D01*
X124110750Y-86074250D01*
X124378324Y-85947250D01*
X124550769Y-85858124D01*
X124641918Y-85789110D01*
X124644451Y-85737806D01*
X124551046Y-85701809D01*
X124354383Y-85678717D01*
X124047140Y-85666128D01*
X123621996Y-85661639D01*
X123507500Y-85661500D01*
X123089716Y-85663112D01*
G37*
X123089716Y-85663112D02*
X122783459Y-85668747D01*
X122573288Y-85679596D01*
X122443762Y-85696855D01*
X122379441Y-85721716D01*
X122364500Y-85749866D01*
X122418675Y-85829540D01*
X122524866Y-85878481D01*
X122695201Y-85955848D01*
X122810616Y-86044115D01*
X122846644Y-86085906D01*
X122875032Y-86140600D01*
X122896685Y-86222631D01*
X122912512Y-86346437D01*
X122923419Y-86526452D01*
X122930314Y-86777112D01*
X122934104Y-87112852D01*
X122935697Y-87548109D01*
X122936000Y-88039149D01*
X122935806Y-88574909D01*
X122934541Y-88997902D01*
X122931185Y-89322360D01*
X122924719Y-89562516D01*
X122914121Y-89732603D01*
X122898372Y-89846853D01*
X122876450Y-89919499D01*
X122847336Y-89964774D01*
X122810010Y-89996910D01*
X122794871Y-90007649D01*
X122624750Y-90072238D01*
X122378004Y-90102529D01*
X122100368Y-90098233D01*
X121837578Y-90059067D01*
X121695791Y-90014523D01*
X121511607Y-89892826D01*
X121324944Y-89673396D01*
X121237456Y-89541144D01*
X121074978Y-89300234D01*
X120959339Y-89176420D01*
X120887377Y-89170059D01*
X120855925Y-89281506D01*
X120861820Y-89511116D01*
X120868319Y-89582625D01*
X120896025Y-89838883D01*
X120925272Y-90074769D01*
X120946284Y-90217625D01*
X120981634Y-90424000D01*
X122816067Y-90424000D01*
X123356679Y-90423167D01*
X123782964Y-90420256D01*
X124107589Y-90414643D01*
X124343221Y-90405704D01*
X124502524Y-90392818D01*
X124598164Y-90375361D01*
X124642808Y-90352711D01*
X124650500Y-90333795D01*
X124595636Y-90257628D01*
X124466585Y-90203196D01*
X124360537Y-90178158D01*
X124275746Y-90145810D01*
X124209970Y-90092927D01*
X124160967Y-90006287D01*
X124126496Y-89872664D01*
X124104314Y-89678836D01*
X124092181Y-89411578D01*
X124087853Y-89057667D01*
X124089091Y-88603878D01*
X124093651Y-88036988D01*
X124093930Y-88004954D01*
X124110750Y-86074250D01*
X124378324Y-85947250D01*
X124550769Y-85858124D01*
X124641918Y-85789110D01*
X124644451Y-85737806D01*
X124551046Y-85701809D01*
X124354383Y-85678717D01*
X124047140Y-85666128D01*
X123621996Y-85661639D01*
X123507500Y-85661500D01*
X123089716Y-85663112D01*
G36*
X136624605Y-83000542D02*
G01*
X136065835Y-83004412D01*
X135683625Y-83007382D01*
X135055063Y-83012510D01*
X134539977Y-83017547D01*
X134124846Y-83023302D01*
X133796150Y-83030586D01*
X133540369Y-83040207D01*
X133343981Y-83052975D01*
X133193466Y-83069700D01*
X133075303Y-83091190D01*
X132975972Y-83118256D01*
X132881952Y-83151707D01*
X132812219Y-83179290D01*
X132434529Y-83380055D01*
X132108798Y-83648044D01*
X131859104Y-83958538D01*
X131709524Y-84286815D01*
X131700844Y-84320314D01*
X131647012Y-84783254D01*
X131713613Y-85210210D01*
X131897894Y-85596087D01*
X132197102Y-85935789D01*
X132608483Y-86224222D01*
X132776666Y-86311262D01*
X133191250Y-86509609D01*
X132905500Y-86583225D01*
X132398329Y-86760027D01*
X131961359Y-87005890D01*
X131612167Y-87308569D01*
X131369858Y-87652821D01*
X131289074Y-87866651D01*
X131226699Y-88130410D01*
X131207226Y-88272537D01*
X131219888Y-88767783D01*
X131347398Y-89215679D01*
X131583663Y-89607631D01*
X131922590Y-89935043D01*
X132358083Y-90189321D01*
X132642314Y-90296707D01*
X132750474Y-90328613D01*
X132862018Y-90354715D01*
X132990427Y-90375592D01*
X133149185Y-90391822D01*
X133351776Y-90403984D01*
X133611683Y-90412654D01*
X133942389Y-90418412D01*
X134357377Y-90421836D01*
X134870130Y-90423503D01*
X135494132Y-90423992D01*
X135610939Y-90424000D01*
X136248984Y-90423784D01*
X136771535Y-90422783D01*
X137190097Y-90420463D01*
X137516175Y-90416291D01*
X137761275Y-90409736D01*
X137936902Y-90400265D01*
X138054562Y-90387344D01*
X138125761Y-90370442D01*
X138162002Y-90349025D01*
X138174793Y-90322561D01*
X138176000Y-90305252D01*
X138134265Y-90213459D01*
X137995388Y-90139407D01*
X137894705Y-90107747D01*
X137602279Y-89988594D01*
X137409233Y-89813085D01*
X137293044Y-89560477D01*
X137290454Y-89551288D01*
X137273644Y-89425738D01*
X137259250Y-89190116D01*
X137247270Y-88861327D01*
X137237699Y-88456276D01*
X137230537Y-87991868D01*
X137225781Y-87485009D01*
X137223429Y-86952603D01*
X137223436Y-86868000D01*
X135583789Y-86868000D01*
X135562270Y-88165221D01*
X135554094Y-88606746D01*
X135544922Y-88939871D01*
X135532809Y-89183192D01*
X135515808Y-89355305D01*
X135491975Y-89474805D01*
X135459362Y-89560289D01*
X135416026Y-89630353D01*
X135407803Y-89641596D01*
X135204636Y-89816550D01*
X134917000Y-89930729D01*
X134575019Y-89978108D01*
X134208817Y-89952661D01*
X134041031Y-89914981D01*
X133664606Y-89750862D01*
X133372885Y-89493991D01*
X133169977Y-89149770D01*
X133059994Y-88723601D01*
X133047908Y-88610055D01*
X133048642Y-88171239D01*
X133134545Y-87807201D01*
X133314350Y-87491296D01*
X133473763Y-87310956D01*
X133678430Y-87131287D01*
X133890263Y-87005794D01*
X134137653Y-86925869D01*
X134448990Y-86882902D01*
X134852668Y-86868285D01*
X134934637Y-86868000D01*
X135583789Y-86868000D01*
X137223436Y-86868000D01*
X137223478Y-86411554D01*
X137223714Y-86360000D01*
X135572500Y-86360000D01*
X135112125Y-86359645D01*
X134841571Y-86349873D01*
X134585263Y-86324681D01*
X134409131Y-86291920D01*
X134083821Y-86138642D01*
X133815253Y-85886253D01*
X133616694Y-85554969D01*
X133501410Y-85165006D01*
X133477355Y-84872099D01*
X133525779Y-84434486D01*
X133670448Y-84078196D01*
X133912421Y-83802250D01*
X134252761Y-83605671D01*
X134692526Y-83487480D01*
X135015746Y-83453129D01*
X135572500Y-83421384D01*
X135572500Y-86360000D01*
X137223714Y-86360000D01*
X137225926Y-85878770D01*
X137230770Y-85371153D01*
X137238009Y-84905610D01*
X137247639Y-84499045D01*
X137259659Y-84168363D01*
X137274066Y-83930470D01*
X137290858Y-83802270D01*
X137291251Y-83800821D01*
X137421136Y-83561259D01*
X137652464Y-83381170D01*
X137968474Y-83273585D01*
X137969625Y-83273367D01*
X138124160Y-83218294D01*
X138175675Y-83122298D01*
X138176000Y-83111040D01*
X138172437Y-83080008D01*
X138153950Y-83054800D01*
X138108849Y-83034929D01*
X138025443Y-83019908D01*
X137892038Y-83009251D01*
X137696944Y-83002472D01*
X137428468Y-82999085D01*
X137074919Y-82998604D01*
X136624605Y-83000542D01*
G37*
X136624605Y-83000542D02*
X136065835Y-83004412D01*
X135683625Y-83007382D01*
X135055063Y-83012510D01*
X134539977Y-83017547D01*
X134124846Y-83023302D01*
X133796150Y-83030586D01*
X133540369Y-83040207D01*
X133343981Y-83052975D01*
X133193466Y-83069700D01*
X133075303Y-83091190D01*
X132975972Y-83118256D01*
X132881952Y-83151707D01*
X132812219Y-83179290D01*
X132434529Y-83380055D01*
X132108798Y-83648044D01*
X131859104Y-83958538D01*
X131709524Y-84286815D01*
X131700844Y-84320314D01*
X131647012Y-84783254D01*
X131713613Y-85210210D01*
X131897894Y-85596087D01*
X132197102Y-85935789D01*
X132608483Y-86224222D01*
X132776666Y-86311262D01*
X133191250Y-86509609D01*
X132905500Y-86583225D01*
X132398329Y-86760027D01*
X131961359Y-87005890D01*
X131612167Y-87308569D01*
X131369858Y-87652821D01*
X131289074Y-87866651D01*
X131226699Y-88130410D01*
X131207226Y-88272537D01*
X131219888Y-88767783D01*
X131347398Y-89215679D01*
X131583663Y-89607631D01*
X131922590Y-89935043D01*
X132358083Y-90189321D01*
X132642314Y-90296707D01*
X132750474Y-90328613D01*
X132862018Y-90354715D01*
X132990427Y-90375592D01*
X133149185Y-90391822D01*
X133351776Y-90403984D01*
X133611683Y-90412654D01*
X133942389Y-90418412D01*
X134357377Y-90421836D01*
X134870130Y-90423503D01*
X135494132Y-90423992D01*
X135610939Y-90424000D01*
X136248984Y-90423784D01*
X136771535Y-90422783D01*
X137190097Y-90420463D01*
X137516175Y-90416291D01*
X137761275Y-90409736D01*
X137936902Y-90400265D01*
X138054562Y-90387344D01*
X138125761Y-90370442D01*
X138162002Y-90349025D01*
X138174793Y-90322561D01*
X138176000Y-90305252D01*
X138134265Y-90213459D01*
X137995388Y-90139407D01*
X137894705Y-90107747D01*
X137602279Y-89988594D01*
X137409233Y-89813085D01*
X137293044Y-89560477D01*
X137290454Y-89551288D01*
X137273644Y-89425738D01*
X137259250Y-89190116D01*
X137247270Y-88861327D01*
X137237699Y-88456276D01*
X137230537Y-87991868D01*
X137225781Y-87485009D01*
X137223429Y-86952603D01*
X137223436Y-86868000D01*
X135583789Y-86868000D01*
X135562270Y-88165221D01*
X135554094Y-88606746D01*
X135544922Y-88939871D01*
X135532809Y-89183192D01*
X135515808Y-89355305D01*
X135491975Y-89474805D01*
X135459362Y-89560289D01*
X135416026Y-89630353D01*
X135407803Y-89641596D01*
X135204636Y-89816550D01*
X134917000Y-89930729D01*
X134575019Y-89978108D01*
X134208817Y-89952661D01*
X134041031Y-89914981D01*
X133664606Y-89750862D01*
X133372885Y-89493991D01*
X133169977Y-89149770D01*
X133059994Y-88723601D01*
X133047908Y-88610055D01*
X133048642Y-88171239D01*
X133134545Y-87807201D01*
X133314350Y-87491296D01*
X133473763Y-87310956D01*
X133678430Y-87131287D01*
X133890263Y-87005794D01*
X134137653Y-86925869D01*
X134448990Y-86882902D01*
X134852668Y-86868285D01*
X134934637Y-86868000D01*
X135583789Y-86868000D01*
X137223436Y-86868000D01*
X137223478Y-86411554D01*
X137223714Y-86360000D01*
X135572500Y-86360000D01*
X135112125Y-86359645D01*
X134841571Y-86349873D01*
X134585263Y-86324681D01*
X134409131Y-86291920D01*
X134083821Y-86138642D01*
X133815253Y-85886253D01*
X133616694Y-85554969D01*
X133501410Y-85165006D01*
X133477355Y-84872099D01*
X133525779Y-84434486D01*
X133670448Y-84078196D01*
X133912421Y-83802250D01*
X134252761Y-83605671D01*
X134692526Y-83487480D01*
X135015746Y-83453129D01*
X135572500Y-83421384D01*
X135572500Y-86360000D01*
X137223714Y-86360000D01*
X137225926Y-85878770D01*
X137230770Y-85371153D01*
X137238009Y-84905610D01*
X137247639Y-84499045D01*
X137259659Y-84168363D01*
X137274066Y-83930470D01*
X137290858Y-83802270D01*
X137291251Y-83800821D01*
X137421136Y-83561259D01*
X137652464Y-83381170D01*
X137968474Y-83273585D01*
X137969625Y-83273367D01*
X138124160Y-83218294D01*
X138175675Y-83122298D01*
X138176000Y-83111040D01*
X138172437Y-83080008D01*
X138153950Y-83054800D01*
X138108849Y-83034929D01*
X138025443Y-83019908D01*
X137892038Y-83009251D01*
X137696944Y-83002472D01*
X137428468Y-82999085D01*
X137074919Y-82998604D01*
X136624605Y-83000542D01*
G36*
X125820216Y-85663112D02*
G01*
X125513959Y-85668747D01*
X125303788Y-85679596D01*
X125174262Y-85696855D01*
X125109941Y-85721716D01*
X125095000Y-85749866D01*
X125149175Y-85829540D01*
X125255366Y-85878481D01*
X125425701Y-85955848D01*
X125541116Y-86044115D01*
X125576925Y-86085623D01*
X125605190Y-86139943D01*
X125626801Y-86221401D01*
X125642646Y-86344322D01*
X125653615Y-86523031D01*
X125660595Y-86771855D01*
X125664477Y-87105119D01*
X125666149Y-87537148D01*
X125666500Y-88064658D01*
X125666337Y-88626629D01*
X125664174Y-89075136D01*
X125657498Y-89423715D01*
X125643799Y-89685900D01*
X125620565Y-89875227D01*
X125585286Y-90005232D01*
X125535450Y-90089448D01*
X125468544Y-90141412D01*
X125382059Y-90174660D01*
X125273483Y-90202725D01*
X125269625Y-90203686D01*
X125143186Y-90262813D01*
X125095000Y-90335633D01*
X125118203Y-90372315D01*
X125199385Y-90397702D01*
X125355913Y-90413585D01*
X125605150Y-90421754D01*
X125952250Y-90424000D01*
X126809500Y-90424000D01*
X126809500Y-89911885D01*
X127169425Y-90183817D01*
X127529350Y-90455750D01*
X128233050Y-90470297D01*
X128535513Y-90470456D01*
X128804665Y-90459537D01*
X129006745Y-90439542D01*
X129095500Y-90419177D01*
X129240663Y-90333907D01*
X129412142Y-90199864D01*
X129466043Y-90150629D01*
X129586306Y-90032750D01*
X129681377Y-89924794D01*
X129754540Y-89810331D01*
X129809079Y-89672932D01*
X129848278Y-89496169D01*
X129875422Y-89263611D01*
X129893795Y-88958830D01*
X129906682Y-88565396D01*
X129917365Y-88066880D01*
X129921000Y-87874745D01*
X129931908Y-87333724D01*
X129944153Y-86905636D01*
X129960916Y-86576429D01*
X129985379Y-86332049D01*
X130020725Y-86158444D01*
X130070133Y-86041561D01*
X130136787Y-85967346D01*
X130223866Y-85921747D01*
X130334554Y-85890710D01*
X130372085Y-85882303D01*
X130502810Y-85826682D01*
X130556000Y-85751704D01*
X130536587Y-85718853D01*
X130467872Y-85694782D01*
X130334142Y-85678251D01*
X130119686Y-85668022D01*
X129808792Y-85662852D01*
X129413000Y-85661500D01*
X128995216Y-85663112D01*
X128688959Y-85668747D01*
X128478788Y-85679596D01*
X128349262Y-85696855D01*
X128284941Y-85721716D01*
X128270000Y-85749866D01*
X128324175Y-85829540D01*
X128430366Y-85878481D01*
X128600701Y-85955848D01*
X128716116Y-86044115D01*
X128754486Y-86088959D01*
X128784132Y-86147702D01*
X128806172Y-86235979D01*
X128821727Y-86369422D01*
X128831916Y-86563666D01*
X128837858Y-86834344D01*
X128840673Y-87197090D01*
X128841481Y-87667537D01*
X128841500Y-87795028D01*
X128840407Y-88309104D01*
X128836524Y-88712259D01*
X128828947Y-89020554D01*
X128816773Y-89250054D01*
X128799096Y-89416822D01*
X128775013Y-89536921D01*
X128743619Y-89626416D01*
X128737688Y-89639325D01*
X128566626Y-89866314D01*
X128324359Y-90005675D01*
X128031885Y-90057108D01*
X127710209Y-90020318D01*
X127380330Y-89895005D01*
X127063251Y-89680871D01*
X127043007Y-89663365D01*
X126809500Y-89458343D01*
X126809500Y-87813921D01*
X126809989Y-87312811D01*
X126812189Y-86923169D01*
X126817201Y-86629464D01*
X126826124Y-86416168D01*
X126840059Y-86267748D01*
X126860107Y-86168676D01*
X126887366Y-86103420D01*
X126922939Y-86056451D01*
X126934885Y-86044115D01*
X127091040Y-85932234D01*
X127220635Y-85878481D01*
X127340551Y-85818532D01*
X127381000Y-85749866D01*
X127360139Y-85717566D01*
X127287259Y-85693889D01*
X127146921Y-85677641D01*
X126923684Y-85667627D01*
X126602105Y-85662655D01*
X126238000Y-85661500D01*
X125820216Y-85663112D01*
G37*
X125820216Y-85663112D02*
X125513959Y-85668747D01*
X125303788Y-85679596D01*
X125174262Y-85696855D01*
X125109941Y-85721716D01*
X125095000Y-85749866D01*
X125149175Y-85829540D01*
X125255366Y-85878481D01*
X125425701Y-85955848D01*
X125541116Y-86044115D01*
X125576925Y-86085623D01*
X125605190Y-86139943D01*
X125626801Y-86221401D01*
X125642646Y-86344322D01*
X125653615Y-86523031D01*
X125660595Y-86771855D01*
X125664477Y-87105119D01*
X125666149Y-87537148D01*
X125666500Y-88064658D01*
X125666337Y-88626629D01*
X125664174Y-89075136D01*
X125657498Y-89423715D01*
X125643799Y-89685900D01*
X125620565Y-89875227D01*
X125585286Y-90005232D01*
X125535450Y-90089448D01*
X125468544Y-90141412D01*
X125382059Y-90174660D01*
X125273483Y-90202725D01*
X125269625Y-90203686D01*
X125143186Y-90262813D01*
X125095000Y-90335633D01*
X125118203Y-90372315D01*
X125199385Y-90397702D01*
X125355913Y-90413585D01*
X125605150Y-90421754D01*
X125952250Y-90424000D01*
X126809500Y-90424000D01*
X126809500Y-89911885D01*
X127169425Y-90183817D01*
X127529350Y-90455750D01*
X128233050Y-90470297D01*
X128535513Y-90470456D01*
X128804665Y-90459537D01*
X129006745Y-90439542D01*
X129095500Y-90419177D01*
X129240663Y-90333907D01*
X129412142Y-90199864D01*
X129466043Y-90150629D01*
X129586306Y-90032750D01*
X129681377Y-89924794D01*
X129754540Y-89810331D01*
X129809079Y-89672932D01*
X129848278Y-89496169D01*
X129875422Y-89263611D01*
X129893795Y-88958830D01*
X129906682Y-88565396D01*
X129917365Y-88066880D01*
X129921000Y-87874745D01*
X129931908Y-87333724D01*
X129944153Y-86905636D01*
X129960916Y-86576429D01*
X129985379Y-86332049D01*
X130020725Y-86158444D01*
X130070133Y-86041561D01*
X130136787Y-85967346D01*
X130223866Y-85921747D01*
X130334554Y-85890710D01*
X130372085Y-85882303D01*
X130502810Y-85826682D01*
X130556000Y-85751704D01*
X130536587Y-85718853D01*
X130467872Y-85694782D01*
X130334142Y-85678251D01*
X130119686Y-85668022D01*
X129808792Y-85662852D01*
X129413000Y-85661500D01*
X128995216Y-85663112D01*
X128688959Y-85668747D01*
X128478788Y-85679596D01*
X128349262Y-85696855D01*
X128284941Y-85721716D01*
X128270000Y-85749866D01*
X128324175Y-85829540D01*
X128430366Y-85878481D01*
X128600701Y-85955848D01*
X128716116Y-86044115D01*
X128754486Y-86088959D01*
X128784132Y-86147702D01*
X128806172Y-86235979D01*
X128821727Y-86369422D01*
X128831916Y-86563666D01*
X128837858Y-86834344D01*
X128840673Y-87197090D01*
X128841481Y-87667537D01*
X128841500Y-87795028D01*
X128840407Y-88309104D01*
X128836524Y-88712259D01*
X128828947Y-89020554D01*
X128816773Y-89250054D01*
X128799096Y-89416822D01*
X128775013Y-89536921D01*
X128743619Y-89626416D01*
X128737688Y-89639325D01*
X128566626Y-89866314D01*
X128324359Y-90005675D01*
X128031885Y-90057108D01*
X127710209Y-90020318D01*
X127380330Y-89895005D01*
X127063251Y-89680871D01*
X127043007Y-89663365D01*
X126809500Y-89458343D01*
X126809500Y-87813921D01*
X126809989Y-87312811D01*
X126812189Y-86923169D01*
X126817201Y-86629464D01*
X126826124Y-86416168D01*
X126840059Y-86267748D01*
X126860107Y-86168676D01*
X126887366Y-86103420D01*
X126922939Y-86056451D01*
X126934885Y-86044115D01*
X127091040Y-85932234D01*
X127220635Y-85878481D01*
X127340551Y-85818532D01*
X127381000Y-85749866D01*
X127360139Y-85717566D01*
X127287259Y-85693889D01*
X127146921Y-85677641D01*
X126923684Y-85667627D01*
X126602105Y-85662655D01*
X126238000Y-85661500D01*
X125820216Y-85663112D01*
G36*
X99900884Y-87670038D02*
G01*
X99884517Y-91503500D01*
X99314000Y-91503500D01*
X99314000Y-92392500D01*
X99826237Y-92392500D01*
X100096571Y-92397526D01*
X100278567Y-92418169D01*
X100410681Y-92462776D01*
X100531368Y-92539694D01*
X100542238Y-92547918D01*
X100889708Y-92764871D01*
X101312586Y-92955496D01*
X101759398Y-93098991D01*
X102056657Y-93159933D01*
X102645005Y-93190883D01*
X103216366Y-93112499D01*
X103646312Y-92970788D01*
X103837439Y-92867519D01*
X104024834Y-92732975D01*
X104176342Y-92594275D01*
X104259803Y-92478539D01*
X104267000Y-92447340D01*
X104326393Y-92426121D01*
X104488171Y-92408722D01*
X104727737Y-92396922D01*
X105020493Y-92392501D01*
X105025227Y-92392500D01*
X105783453Y-92392500D01*
X105803102Y-93614875D01*
X105822750Y-94837250D01*
X106006265Y-95107807D01*
X106218567Y-95348064D01*
X106521043Y-95593059D01*
X106880077Y-95819152D01*
X107262056Y-96002701D01*
X107300044Y-96017737D01*
X107586458Y-96097201D01*
X107949979Y-96153402D01*
X108344193Y-96183293D01*
X108722685Y-96183828D01*
X109039042Y-96151960D01*
X109110939Y-96136622D01*
X109514014Y-95992917D01*
X109841055Y-95788694D01*
X110078185Y-95537225D01*
X110211529Y-95251780D01*
X110236000Y-95060613D01*
X110174308Y-94732860D01*
X109995793Y-94422743D01*
X109710296Y-94138672D01*
X109327660Y-93889060D01*
X108857724Y-93682317D01*
X108492284Y-93570242D01*
X108214931Y-93519022D01*
X107875471Y-93486572D01*
X107516198Y-93473886D01*
X107179404Y-93481955D01*
X106907385Y-93511771D01*
X106822456Y-93531067D01*
X106616500Y-93590134D01*
X106616500Y-92392500D01*
X138938000Y-92392500D01*
X138938000Y-91503500D01*
X106618046Y-91503500D01*
X105793743Y-91503500D01*
X104267000Y-91503500D01*
X104019206Y-91255705D01*
X103660685Y-90974141D01*
X103211416Y-90742299D01*
X102701136Y-90569749D01*
X102159582Y-90466063D01*
X101616493Y-90440812D01*
X101504750Y-90446389D01*
X101244577Y-90468099D01*
X101018754Y-90494050D01*
X100869620Y-90519234D01*
X100853875Y-90523391D01*
X100711000Y-90565812D01*
X100711000Y-88716906D01*
X100712568Y-88247199D01*
X100717000Y-87821594D01*
X100723892Y-87455820D01*
X100732836Y-87165605D01*
X100743429Y-86966678D01*
X100755264Y-86874765D01*
X100758625Y-86870337D01*
X100824954Y-86895835D01*
X100995074Y-86967759D01*
X101256798Y-87080782D01*
X101597940Y-87229579D01*
X102006313Y-87408823D01*
X102469731Y-87613187D01*
X102976008Y-87837346D01*
X103282750Y-87973559D01*
X105759250Y-89074442D01*
X105776497Y-90288971D01*
X105793743Y-91503500D01*
X106618046Y-91503500D01*
X106584750Y-86773432D01*
X99917250Y-83836576D01*
X99900884Y-87670038D01*
G37*
X99900884Y-87670038D02*
X99884517Y-91503500D01*
X99314000Y-91503500D01*
X99314000Y-92392500D01*
X99826237Y-92392500D01*
X100096571Y-92397526D01*
X100278567Y-92418169D01*
X100410681Y-92462776D01*
X100531368Y-92539694D01*
X100542238Y-92547918D01*
X100889708Y-92764871D01*
X101312586Y-92955496D01*
X101759398Y-93098991D01*
X102056657Y-93159933D01*
X102645005Y-93190883D01*
X103216366Y-93112499D01*
X103646312Y-92970788D01*
X103837439Y-92867519D01*
X104024834Y-92732975D01*
X104176342Y-92594275D01*
X104259803Y-92478539D01*
X104267000Y-92447340D01*
X104326393Y-92426121D01*
X104488171Y-92408722D01*
X104727737Y-92396922D01*
X105020493Y-92392501D01*
X105025227Y-92392500D01*
X105783453Y-92392500D01*
X105803102Y-93614875D01*
X105822750Y-94837250D01*
X106006265Y-95107807D01*
X106218567Y-95348064D01*
X106521043Y-95593059D01*
X106880077Y-95819152D01*
X107262056Y-96002701D01*
X107300044Y-96017737D01*
X107586458Y-96097201D01*
X107949979Y-96153402D01*
X108344193Y-96183293D01*
X108722685Y-96183828D01*
X109039042Y-96151960D01*
X109110939Y-96136622D01*
X109514014Y-95992917D01*
X109841055Y-95788694D01*
X110078185Y-95537225D01*
X110211529Y-95251780D01*
X110236000Y-95060613D01*
X110174308Y-94732860D01*
X109995793Y-94422743D01*
X109710296Y-94138672D01*
X109327660Y-93889060D01*
X108857724Y-93682317D01*
X108492284Y-93570242D01*
X108214931Y-93519022D01*
X107875471Y-93486572D01*
X107516198Y-93473886D01*
X107179404Y-93481955D01*
X106907385Y-93511771D01*
X106822456Y-93531067D01*
X106616500Y-93590134D01*
X106616500Y-92392500D01*
X138938000Y-92392500D01*
X138938000Y-91503500D01*
X106618046Y-91503500D01*
X105793743Y-91503500D01*
X104267000Y-91503500D01*
X104019206Y-91255705D01*
X103660685Y-90974141D01*
X103211416Y-90742299D01*
X102701136Y-90569749D01*
X102159582Y-90466063D01*
X101616493Y-90440812D01*
X101504750Y-90446389D01*
X101244577Y-90468099D01*
X101018754Y-90494050D01*
X100869620Y-90519234D01*
X100853875Y-90523391D01*
X100711000Y-90565812D01*
X100711000Y-88716906D01*
X100712568Y-88247199D01*
X100717000Y-87821594D01*
X100723892Y-87455820D01*
X100732836Y-87165605D01*
X100743429Y-86966678D01*
X100755264Y-86874765D01*
X100758625Y-86870337D01*
X100824954Y-86895835D01*
X100995074Y-86967759D01*
X101256798Y-87080782D01*
X101597940Y-87229579D01*
X102006313Y-87408823D01*
X102469731Y-87613187D01*
X102976008Y-87837346D01*
X103282750Y-87973559D01*
X105759250Y-89074442D01*
X105776497Y-90288971D01*
X105793743Y-91503500D01*
X106618046Y-91503500D01*
X106584750Y-86773432D01*
X99917250Y-83836576D01*
X99900884Y-87670038D01*
G36*
X117887750Y-96932750D02*
G01*
X120205500Y-96967364D01*
X120205500Y-96266000D01*
X117849364Y-96266000D01*
X117887750Y-96932750D01*
G37*
X117887750Y-96932750D02*
X120205500Y-96967364D01*
X120205500Y-96266000D01*
X117849364Y-96266000D01*
X117887750Y-96932750D01*
G36*
X111922582Y-93468091D02*
G01*
X111569988Y-93621997D01*
X111291204Y-93853111D01*
X111066142Y-94175677D01*
X110956947Y-94519060D01*
X110964530Y-94885508D01*
X111089798Y-95277269D01*
X111333660Y-95696592D01*
X111697026Y-96145724D01*
X112180805Y-96626915D01*
X112539269Y-96940369D01*
X113097816Y-97409000D01*
X110871000Y-97409000D01*
X110871000Y-98044000D01*
X112426750Y-98044000D01*
X112934671Y-98042552D01*
X113327321Y-98037812D01*
X113616400Y-98029183D01*
X113813608Y-98016067D01*
X113930646Y-97997867D01*
X113979213Y-97973986D01*
X113982209Y-97964625D01*
X113939450Y-97895533D01*
X113821035Y-97753160D01*
X113641457Y-97553677D01*
X113415209Y-97313256D01*
X113199702Y-97091500D01*
X112889509Y-96771693D01*
X112654817Y-96515566D01*
X112477765Y-96300705D01*
X112340490Y-96104696D01*
X112225128Y-95905126D01*
X112173410Y-95803750D01*
X112042547Y-95519832D01*
X111967188Y-95297222D01*
X111934354Y-95090272D01*
X111929662Y-94946500D01*
X111973012Y-94583760D01*
X112095273Y-94297436D01*
X112285830Y-94099059D01*
X112534071Y-94000162D01*
X112795835Y-94005325D01*
X113005648Y-94096244D01*
X113213019Y-94268206D01*
X113377250Y-94481154D01*
X113448717Y-94647914D01*
X113505859Y-94779780D01*
X113564030Y-94790394D01*
X113599095Y-94682985D01*
X113601500Y-94627467D01*
X113556389Y-94392821D01*
X113438358Y-94124034D01*
X113273363Y-93866671D01*
X113087360Y-93666296D01*
X113029089Y-93622609D01*
X112681450Y-93464508D01*
X112302842Y-93414298D01*
X111922582Y-93468091D01*
G37*
X111922582Y-93468091D02*
X111569988Y-93621997D01*
X111291204Y-93853111D01*
X111066142Y-94175677D01*
X110956947Y-94519060D01*
X110964530Y-94885508D01*
X111089798Y-95277269D01*
X111333660Y-95696592D01*
X111697026Y-96145724D01*
X112180805Y-96626915D01*
X112539269Y-96940369D01*
X113097816Y-97409000D01*
X110871000Y-97409000D01*
X110871000Y-98044000D01*
X112426750Y-98044000D01*
X112934671Y-98042552D01*
X113327321Y-98037812D01*
X113616400Y-98029183D01*
X113813608Y-98016067D01*
X113930646Y-97997867D01*
X113979213Y-97973986D01*
X113982209Y-97964625D01*
X113939450Y-97895533D01*
X113821035Y-97753160D01*
X113641457Y-97553677D01*
X113415209Y-97313256D01*
X113199702Y-97091500D01*
X112889509Y-96771693D01*
X112654817Y-96515566D01*
X112477765Y-96300705D01*
X112340490Y-96104696D01*
X112225128Y-95905126D01*
X112173410Y-95803750D01*
X112042547Y-95519832D01*
X111967188Y-95297222D01*
X111934354Y-95090272D01*
X111929662Y-94946500D01*
X111973012Y-94583760D01*
X112095273Y-94297436D01*
X112285830Y-94099059D01*
X112534071Y-94000162D01*
X112795835Y-94005325D01*
X113005648Y-94096244D01*
X113213019Y-94268206D01*
X113377250Y-94481154D01*
X113448717Y-94647914D01*
X113505859Y-94779780D01*
X113564030Y-94790394D01*
X113599095Y-94682985D01*
X113601500Y-94627467D01*
X113556389Y-94392821D01*
X113438358Y-94124034D01*
X113273363Y-93866671D01*
X113087360Y-93666296D01*
X113029089Y-93622609D01*
X112681450Y-93464508D01*
X112302842Y-93414298D01*
X111922582Y-93468091D01*
G36*
X121445219Y-93537575D02*
G01*
X121146415Y-93544537D01*
X120945624Y-93557492D01*
X120828379Y-93577546D01*
X120780215Y-93605803D01*
X120777000Y-93617993D01*
X120830941Y-93691805D01*
X120963741Y-93767218D01*
X120993782Y-93778876D01*
X121187614Y-93898079D01*
X121279532Y-94055108D01*
X121303354Y-94188512D01*
X121322244Y-94423381D01*
X121336274Y-94738148D01*
X121345519Y-95111248D01*
X121350052Y-95521114D01*
X121349948Y-95946182D01*
X121345281Y-96364885D01*
X121336125Y-96755656D01*
X121322553Y-97096931D01*
X121304640Y-97367143D01*
X121282459Y-97544727D01*
X121267384Y-97597354D01*
X121147068Y-97729226D01*
X120982570Y-97812915D01*
X120843322Y-97875743D01*
X120777743Y-97950400D01*
X120777000Y-97957935D01*
X120800332Y-97990378D01*
X120880582Y-98013925D01*
X121033133Y-98029803D01*
X121273366Y-98039239D01*
X121616664Y-98043458D01*
X121856500Y-98044000D01*
X122256501Y-98042550D01*
X122546215Y-98037219D01*
X122742331Y-98026535D01*
X122861539Y-98009025D01*
X122920529Y-97983216D01*
X122936000Y-97948750D01*
X122882777Y-97871242D01*
X122806114Y-97853500D01*
X122673660Y-97810445D01*
X122528888Y-97705975D01*
X122520364Y-97697636D01*
X122364500Y-97541772D01*
X122364500Y-95860270D01*
X122366708Y-95402781D01*
X122372926Y-94980615D01*
X122382548Y-94612416D01*
X122394966Y-94316832D01*
X122409573Y-94112507D01*
X122424367Y-94021308D01*
X122538459Y-93876966D01*
X122710117Y-93782167D01*
X122856320Y-93709563D01*
X122932763Y-93633079D01*
X122936000Y-93617993D01*
X122908845Y-93586564D01*
X122817735Y-93563730D01*
X122648205Y-93548385D01*
X122385788Y-93539426D01*
X122016020Y-93535745D01*
X121856500Y-93535500D01*
X121445219Y-93537575D01*
G37*
X121445219Y-93537575D02*
X121146415Y-93544537D01*
X120945624Y-93557492D01*
X120828379Y-93577546D01*
X120780215Y-93605803D01*
X120777000Y-93617993D01*
X120830941Y-93691805D01*
X120963741Y-93767218D01*
X120993782Y-93778876D01*
X121187614Y-93898079D01*
X121279532Y-94055108D01*
X121303354Y-94188512D01*
X121322244Y-94423381D01*
X121336274Y-94738148D01*
X121345519Y-95111248D01*
X121350052Y-95521114D01*
X121349948Y-95946182D01*
X121345281Y-96364885D01*
X121336125Y-96755656D01*
X121322553Y-97096931D01*
X121304640Y-97367143D01*
X121282459Y-97544727D01*
X121267384Y-97597354D01*
X121147068Y-97729226D01*
X120982570Y-97812915D01*
X120843322Y-97875743D01*
X120777743Y-97950400D01*
X120777000Y-97957935D01*
X120800332Y-97990378D01*
X120880582Y-98013925D01*
X121033133Y-98029803D01*
X121273366Y-98039239D01*
X121616664Y-98043458D01*
X121856500Y-98044000D01*
X122256501Y-98042550D01*
X122546215Y-98037219D01*
X122742331Y-98026535D01*
X122861539Y-98009025D01*
X122920529Y-97983216D01*
X122936000Y-97948750D01*
X122882777Y-97871242D01*
X122806114Y-97853500D01*
X122673660Y-97810445D01*
X122528888Y-97705975D01*
X122520364Y-97697636D01*
X122364500Y-97541772D01*
X122364500Y-95860270D01*
X122366708Y-95402781D01*
X122372926Y-94980615D01*
X122382548Y-94612416D01*
X122394966Y-94316832D01*
X122409573Y-94112507D01*
X122424367Y-94021308D01*
X122538459Y-93876966D01*
X122710117Y-93782167D01*
X122856320Y-93709563D01*
X122932763Y-93633079D01*
X122936000Y-93617993D01*
X122908845Y-93586564D01*
X122817735Y-93563730D01*
X122648205Y-93548385D01*
X122385788Y-93539426D01*
X122016020Y-93535745D01*
X121856500Y-93535500D01*
X121445219Y-93537575D01*
G36*
X126631535Y-93533695D02*
G01*
X126247606Y-93545923D01*
X125897974Y-93564263D01*
X125602779Y-93588658D01*
X125382163Y-93619055D01*
X125319471Y-93632839D01*
X124772244Y-93833175D01*
X124309178Y-94126405D01*
X124045481Y-94376380D01*
X123808472Y-94692005D01*
X123652020Y-95034680D01*
X123566399Y-95434158D01*
X123541863Y-95916750D01*
X123549027Y-96218551D01*
X123573065Y-96439577D01*
X123622693Y-96625793D01*
X123706629Y-96823162D01*
X123718437Y-96847746D01*
X123988885Y-97262541D01*
X124362344Y-97606308D01*
X124769880Y-97844917D01*
X124878573Y-97894590D01*
X124978970Y-97933495D01*
X125088049Y-97963153D01*
X125222791Y-97985084D01*
X125400175Y-98000809D01*
X125637181Y-98011850D01*
X125950788Y-98019726D01*
X126357977Y-98025958D01*
X126857125Y-98031857D01*
X127429419Y-98036421D01*
X127880435Y-98035622D01*
X128215789Y-98029299D01*
X128441098Y-98017293D01*
X128561975Y-97999444D01*
X128587500Y-97982660D01*
X128534592Y-97913311D01*
X128412992Y-97847508D01*
X128300329Y-97804307D01*
X128211273Y-97760470D01*
X128143051Y-97701627D01*
X128092892Y-97613407D01*
X128058021Y-97481440D01*
X128035668Y-97291356D01*
X128023060Y-97028783D01*
X128017424Y-96679351D01*
X128015988Y-96228690D01*
X128016000Y-95789750D01*
X128016242Y-95243976D01*
X128018778Y-94811262D01*
X128026330Y-94477668D01*
X128041618Y-94229252D01*
X128067361Y-94052077D01*
X128106280Y-93932201D01*
X128161094Y-93855685D01*
X128165280Y-93853000D01*
X126936500Y-93853000D01*
X126936500Y-95686724D01*
X126935724Y-96226878D01*
X126932924Y-96653766D01*
X126927394Y-96981117D01*
X126918428Y-97222659D01*
X126905318Y-97392120D01*
X126887359Y-97503227D01*
X126863845Y-97569710D01*
X126837923Y-97602261D01*
X126691697Y-97675270D01*
X126478841Y-97731532D01*
X126259672Y-97757969D01*
X126142750Y-97753017D01*
X125992679Y-97729813D01*
X125801333Y-97699634D01*
X125789167Y-97697696D01*
X125486291Y-97589965D01*
X125200090Y-97378195D01*
X124957303Y-97084949D01*
X124859972Y-96913659D01*
X124780112Y-96739814D01*
X124728439Y-96585138D01*
X124698924Y-96413658D01*
X124685540Y-96189406D01*
X124682258Y-95876409D01*
X124682250Y-95853250D01*
X124686098Y-95522479D01*
X124701157Y-95282614D01*
X124732702Y-95097703D01*
X124786008Y-94931790D01*
X124833974Y-94818982D01*
X125024311Y-94505644D01*
X125282877Y-94227375D01*
X125574646Y-94017131D01*
X125781235Y-93927677D01*
X125976082Y-93889025D01*
X126237893Y-93862042D01*
X126483493Y-93853000D01*
X126936500Y-93853000D01*
X128165280Y-93853000D01*
X128234524Y-93808588D01*
X128329291Y-93776971D01*
X128412875Y-93755813D01*
X128539315Y-93696686D01*
X128587500Y-93623866D01*
X128527442Y-93591765D01*
X128360693Y-93566163D01*
X128107396Y-93547004D01*
X127787691Y-93534233D01*
X127421718Y-93527795D01*
X127029619Y-93527634D01*
X126631535Y-93533695D01*
G37*
X126631535Y-93533695D02*
X126247606Y-93545923D01*
X125897974Y-93564263D01*
X125602779Y-93588658D01*
X125382163Y-93619055D01*
X125319471Y-93632839D01*
X124772244Y-93833175D01*
X124309178Y-94126405D01*
X124045481Y-94376380D01*
X123808472Y-94692005D01*
X123652020Y-95034680D01*
X123566399Y-95434158D01*
X123541863Y-95916750D01*
X123549027Y-96218551D01*
X123573065Y-96439577D01*
X123622693Y-96625793D01*
X123706629Y-96823162D01*
X123718437Y-96847746D01*
X123988885Y-97262541D01*
X124362344Y-97606308D01*
X124769880Y-97844917D01*
X124878573Y-97894590D01*
X124978970Y-97933495D01*
X125088049Y-97963153D01*
X125222791Y-97985084D01*
X125400175Y-98000809D01*
X125637181Y-98011850D01*
X125950788Y-98019726D01*
X126357977Y-98025958D01*
X126857125Y-98031857D01*
X127429419Y-98036421D01*
X127880435Y-98035622D01*
X128215789Y-98029299D01*
X128441098Y-98017293D01*
X128561975Y-97999444D01*
X128587500Y-97982660D01*
X128534592Y-97913311D01*
X128412992Y-97847508D01*
X128300329Y-97804307D01*
X128211273Y-97760470D01*
X128143051Y-97701627D01*
X128092892Y-97613407D01*
X128058021Y-97481440D01*
X128035668Y-97291356D01*
X128023060Y-97028783D01*
X128017424Y-96679351D01*
X128015988Y-96228690D01*
X128016000Y-95789750D01*
X128016242Y-95243976D01*
X128018778Y-94811262D01*
X128026330Y-94477668D01*
X128041618Y-94229252D01*
X128067361Y-94052077D01*
X128106280Y-93932201D01*
X128161094Y-93855685D01*
X128165280Y-93853000D01*
X126936500Y-93853000D01*
X126936500Y-95686724D01*
X126935724Y-96226878D01*
X126932924Y-96653766D01*
X126927394Y-96981117D01*
X126918428Y-97222659D01*
X126905318Y-97392120D01*
X126887359Y-97503227D01*
X126863845Y-97569710D01*
X126837923Y-97602261D01*
X126691697Y-97675270D01*
X126478841Y-97731532D01*
X126259672Y-97757969D01*
X126142750Y-97753017D01*
X125992679Y-97729813D01*
X125801333Y-97699634D01*
X125789167Y-97697696D01*
X125486291Y-97589965D01*
X125200090Y-97378195D01*
X124957303Y-97084949D01*
X124859972Y-96913659D01*
X124780112Y-96739814D01*
X124728439Y-96585138D01*
X124698924Y-96413658D01*
X124685540Y-96189406D01*
X124682258Y-95876409D01*
X124682250Y-95853250D01*
X124686098Y-95522479D01*
X124701157Y-95282614D01*
X124732702Y-95097703D01*
X124786008Y-94931790D01*
X124833974Y-94818982D01*
X125024311Y-94505644D01*
X125282877Y-94227375D01*
X125574646Y-94017131D01*
X125781235Y-93927677D01*
X125976082Y-93889025D01*
X126237893Y-93862042D01*
X126483493Y-93853000D01*
X126936500Y-93853000D01*
X128165280Y-93853000D01*
X128234524Y-93808588D01*
X128329291Y-93776971D01*
X128412875Y-93755813D01*
X128539315Y-93696686D01*
X128587500Y-93623866D01*
X128527442Y-93591765D01*
X128360693Y-93566163D01*
X128107396Y-93547004D01*
X127787691Y-93534233D01*
X127421718Y-93527795D01*
X127029619Y-93527634D01*
X126631535Y-93533695D01*
G36*
X129763719Y-93537575D02*
G01*
X129464915Y-93544537D01*
X129264124Y-93557492D01*
X129146879Y-93577546D01*
X129098715Y-93605803D01*
X129095500Y-93617993D01*
X129149441Y-93691805D01*
X129282241Y-93767218D01*
X129312282Y-93778876D01*
X129506114Y-93898079D01*
X129598032Y-94055108D01*
X129621854Y-94188512D01*
X129640744Y-94423381D01*
X129654774Y-94738148D01*
X129664019Y-95111248D01*
X129668552Y-95521114D01*
X129668448Y-95946182D01*
X129663781Y-96364885D01*
X129654625Y-96755656D01*
X129641053Y-97096931D01*
X129623140Y-97367143D01*
X129600959Y-97544727D01*
X129585884Y-97597354D01*
X129465568Y-97729226D01*
X129301070Y-97812915D01*
X129161822Y-97875743D01*
X129096243Y-97950400D01*
X129095500Y-97957935D01*
X129118832Y-97990378D01*
X129199082Y-98013925D01*
X129351633Y-98029803D01*
X129591866Y-98039239D01*
X129935164Y-98043458D01*
X130175000Y-98044000D01*
X130575001Y-98042550D01*
X130864715Y-98037219D01*
X131060831Y-98026535D01*
X131180039Y-98009025D01*
X131239029Y-97983216D01*
X131254500Y-97948750D01*
X131201277Y-97871242D01*
X131124614Y-97853500D01*
X130992160Y-97810445D01*
X130847388Y-97705975D01*
X130838864Y-97697636D01*
X130683000Y-97541772D01*
X130683000Y-95860270D01*
X130685208Y-95402781D01*
X130691426Y-94980615D01*
X130701048Y-94612416D01*
X130713466Y-94316832D01*
X130728073Y-94112507D01*
X130742867Y-94021308D01*
X130856959Y-93876966D01*
X131028617Y-93782167D01*
X131174820Y-93709563D01*
X131251263Y-93633079D01*
X131254500Y-93617993D01*
X131227345Y-93586564D01*
X131136235Y-93563730D01*
X130966705Y-93548385D01*
X130704288Y-93539426D01*
X130334520Y-93535745D01*
X130175000Y-93535500D01*
X129763719Y-93537575D01*
G37*
X129763719Y-93537575D02*
X129464915Y-93544537D01*
X129264124Y-93557492D01*
X129146879Y-93577546D01*
X129098715Y-93605803D01*
X129095500Y-93617993D01*
X129149441Y-93691805D01*
X129282241Y-93767218D01*
X129312282Y-93778876D01*
X129506114Y-93898079D01*
X129598032Y-94055108D01*
X129621854Y-94188512D01*
X129640744Y-94423381D01*
X129654774Y-94738148D01*
X129664019Y-95111248D01*
X129668552Y-95521114D01*
X129668448Y-95946182D01*
X129663781Y-96364885D01*
X129654625Y-96755656D01*
X129641053Y-97096931D01*
X129623140Y-97367143D01*
X129600959Y-97544727D01*
X129585884Y-97597354D01*
X129465568Y-97729226D01*
X129301070Y-97812915D01*
X129161822Y-97875743D01*
X129096243Y-97950400D01*
X129095500Y-97957935D01*
X129118832Y-97990378D01*
X129199082Y-98013925D01*
X129351633Y-98029803D01*
X129591866Y-98039239D01*
X129935164Y-98043458D01*
X130175000Y-98044000D01*
X130575001Y-98042550D01*
X130864715Y-98037219D01*
X131060831Y-98026535D01*
X131180039Y-98009025D01*
X131239029Y-97983216D01*
X131254500Y-97948750D01*
X131201277Y-97871242D01*
X131124614Y-97853500D01*
X130992160Y-97810445D01*
X130847388Y-97705975D01*
X130838864Y-97697636D01*
X130683000Y-97541772D01*
X130683000Y-95860270D01*
X130685208Y-95402781D01*
X130691426Y-94980615D01*
X130701048Y-94612416D01*
X130713466Y-94316832D01*
X130728073Y-94112507D01*
X130742867Y-94021308D01*
X130856959Y-93876966D01*
X131028617Y-93782167D01*
X131174820Y-93709563D01*
X131251263Y-93633079D01*
X131254500Y-93617993D01*
X131227345Y-93586564D01*
X131136235Y-93563730D01*
X130966705Y-93548385D01*
X130704288Y-93539426D01*
X130334520Y-93535745D01*
X130175000Y-93535500D01*
X129763719Y-93537575D01*
G36*
X135604224Y-94989030D02*
G01*
X135033444Y-96442561D01*
X134458368Y-95004905D01*
X133883291Y-93567250D01*
X133076896Y-93549477D01*
X132739578Y-93543998D01*
X132509728Y-93546355D01*
X132367953Y-93558456D01*
X132294859Y-93582211D01*
X132271054Y-93619529D01*
X132270500Y-93628852D01*
X132322932Y-93709029D01*
X132390466Y-93726000D01*
X132527424Y-93764581D01*
X132653022Y-93841463D01*
X132709673Y-93898136D01*
X132750447Y-93973024D01*
X132774783Y-94079882D01*
X132782120Y-94232464D01*
X132771899Y-94444526D01*
X132743560Y-94729822D01*
X132696541Y-95102106D01*
X132630284Y-95575133D01*
X132563888Y-96029647D01*
X132489575Y-96524892D01*
X132426684Y-96910238D01*
X132369394Y-97201611D01*
X132311884Y-97414934D01*
X132248334Y-97566135D01*
X132172923Y-97671137D01*
X132079831Y-97745867D01*
X131963237Y-97806248D01*
X131905375Y-97831366D01*
X131765787Y-97898799D01*
X131709328Y-97951030D01*
X131743522Y-97989766D01*
X131875890Y-98016715D01*
X132113953Y-98033584D01*
X132465233Y-98042081D01*
X132842000Y-98044000D01*
X133255033Y-98042660D01*
X133557346Y-98037737D01*
X133765200Y-98027877D01*
X133894858Y-98011723D01*
X133962579Y-97987922D01*
X133984625Y-97955117D01*
X133985000Y-97948750D01*
X133933943Y-97865253D01*
X133886864Y-97853500D01*
X133733631Y-97796717D01*
X133595437Y-97651822D01*
X133500710Y-97456995D01*
X133475290Y-97300761D01*
X133482952Y-97163063D01*
X133505139Y-96937247D01*
X133538819Y-96645227D01*
X133580959Y-96308917D01*
X133628528Y-95950230D01*
X133678492Y-95591081D01*
X133727819Y-95253382D01*
X133773476Y-94959048D01*
X133812430Y-94729992D01*
X133841649Y-94588128D01*
X133855673Y-94552098D01*
X133886808Y-94608920D01*
X133958356Y-94769367D01*
X134064245Y-95018874D01*
X134198401Y-95342879D01*
X134354751Y-95726819D01*
X134527223Y-96156132D01*
X134583885Y-96298348D01*
X134794420Y-96823678D01*
X134965373Y-97240114D01*
X135101423Y-97557803D01*
X135207250Y-97786888D01*
X135287532Y-97937515D01*
X135346948Y-98019829D01*
X135388985Y-98044000D01*
X135432393Y-98018309D01*
X135491948Y-97934478D01*
X135572300Y-97782366D01*
X135678100Y-97551831D01*
X135814000Y-97232734D01*
X135984652Y-96814933D01*
X136194706Y-96288289D01*
X136197244Y-96281875D01*
X136372671Y-95844270D01*
X136534096Y-95452507D01*
X136675601Y-95120091D01*
X136791266Y-94860527D01*
X136875172Y-94687322D01*
X136921400Y-94613980D01*
X136927820Y-94615000D01*
X136955275Y-94733547D01*
X136993674Y-94952990D01*
X137039609Y-95248037D01*
X137089675Y-95593397D01*
X137140466Y-95963779D01*
X137188576Y-96333890D01*
X137230598Y-96678440D01*
X137263128Y-96972138D01*
X137282757Y-97189691D01*
X137287001Y-97282101D01*
X137249061Y-97557439D01*
X137142207Y-97750659D01*
X136976885Y-97846096D01*
X136906000Y-97853500D01*
X136802572Y-97893204D01*
X136779000Y-97948750D01*
X136797398Y-97988419D01*
X136865113Y-98015608D01*
X137000932Y-98032485D01*
X137223640Y-98041215D01*
X137552023Y-98043968D01*
X137604500Y-98044000D01*
X137948305Y-98041877D01*
X138183945Y-98034063D01*
X138330204Y-98018392D01*
X138405869Y-97992695D01*
X138429725Y-97954805D01*
X138430000Y-97948750D01*
X138374646Y-97872238D01*
X138268364Y-97853500D01*
X138078538Y-97794777D01*
X137904092Y-97636764D01*
X137771430Y-97406688D01*
X137737455Y-97305985D01*
X137708762Y-97174259D01*
X137665050Y-96937891D01*
X137609881Y-96617876D01*
X137546820Y-96235204D01*
X137479431Y-95810868D01*
X137437650Y-95540067D01*
X137205840Y-94020384D01*
X137376961Y-93873192D01*
X137537711Y-93771837D01*
X137694886Y-93726202D01*
X137703291Y-93726000D01*
X137828315Y-93692243D01*
X137858500Y-93630750D01*
X137840266Y-93591413D01*
X137773144Y-93564335D01*
X137638504Y-93547406D01*
X137417717Y-93538518D01*
X137092152Y-93535564D01*
X137016752Y-93535500D01*
X136175003Y-93535500D01*
X135604224Y-94989030D01*
G37*
X135604224Y-94989030D02*
X135033444Y-96442561D01*
X134458368Y-95004905D01*
X133883291Y-93567250D01*
X133076896Y-93549477D01*
X132739578Y-93543998D01*
X132509728Y-93546355D01*
X132367953Y-93558456D01*
X132294859Y-93582211D01*
X132271054Y-93619529D01*
X132270500Y-93628852D01*
X132322932Y-93709029D01*
X132390466Y-93726000D01*
X132527424Y-93764581D01*
X132653022Y-93841463D01*
X132709673Y-93898136D01*
X132750447Y-93973024D01*
X132774783Y-94079882D01*
X132782120Y-94232464D01*
X132771899Y-94444526D01*
X132743560Y-94729822D01*
X132696541Y-95102106D01*
X132630284Y-95575133D01*
X132563888Y-96029647D01*
X132489575Y-96524892D01*
X132426684Y-96910238D01*
X132369394Y-97201611D01*
X132311884Y-97414934D01*
X132248334Y-97566135D01*
X132172923Y-97671137D01*
X132079831Y-97745867D01*
X131963237Y-97806248D01*
X131905375Y-97831366D01*
X131765787Y-97898799D01*
X131709328Y-97951030D01*
X131743522Y-97989766D01*
X131875890Y-98016715D01*
X132113953Y-98033584D01*
X132465233Y-98042081D01*
X132842000Y-98044000D01*
X133255033Y-98042660D01*
X133557346Y-98037737D01*
X133765200Y-98027877D01*
X133894858Y-98011723D01*
X133962579Y-97987922D01*
X133984625Y-97955117D01*
X133985000Y-97948750D01*
X133933943Y-97865253D01*
X133886864Y-97853500D01*
X133733631Y-97796717D01*
X133595437Y-97651822D01*
X133500710Y-97456995D01*
X133475290Y-97300761D01*
X133482952Y-97163063D01*
X133505139Y-96937247D01*
X133538819Y-96645227D01*
X133580959Y-96308917D01*
X133628528Y-95950230D01*
X133678492Y-95591081D01*
X133727819Y-95253382D01*
X133773476Y-94959048D01*
X133812430Y-94729992D01*
X133841649Y-94588128D01*
X133855673Y-94552098D01*
X133886808Y-94608920D01*
X133958356Y-94769367D01*
X134064245Y-95018874D01*
X134198401Y-95342879D01*
X134354751Y-95726819D01*
X134527223Y-96156132D01*
X134583885Y-96298348D01*
X134794420Y-96823678D01*
X134965373Y-97240114D01*
X135101423Y-97557803D01*
X135207250Y-97786888D01*
X135287532Y-97937515D01*
X135346948Y-98019829D01*
X135388985Y-98044000D01*
X135432393Y-98018309D01*
X135491948Y-97934478D01*
X135572300Y-97782366D01*
X135678100Y-97551831D01*
X135814000Y-97232734D01*
X135984652Y-96814933D01*
X136194706Y-96288289D01*
X136197244Y-96281875D01*
X136372671Y-95844270D01*
X136534096Y-95452507D01*
X136675601Y-95120091D01*
X136791266Y-94860527D01*
X136875172Y-94687322D01*
X136921400Y-94613980D01*
X136927820Y-94615000D01*
X136955275Y-94733547D01*
X136993674Y-94952990D01*
X137039609Y-95248037D01*
X137089675Y-95593397D01*
X137140466Y-95963779D01*
X137188576Y-96333890D01*
X137230598Y-96678440D01*
X137263128Y-96972138D01*
X137282757Y-97189691D01*
X137287001Y-97282101D01*
X137249061Y-97557439D01*
X137142207Y-97750659D01*
X136976885Y-97846096D01*
X136906000Y-97853500D01*
X136802572Y-97893204D01*
X136779000Y-97948750D01*
X136797398Y-97988419D01*
X136865113Y-98015608D01*
X137000932Y-98032485D01*
X137223640Y-98041215D01*
X137552023Y-98043968D01*
X137604500Y-98044000D01*
X137948305Y-98041877D01*
X138183945Y-98034063D01*
X138330204Y-98018392D01*
X138405869Y-97992695D01*
X138429725Y-97954805D01*
X138430000Y-97948750D01*
X138374646Y-97872238D01*
X138268364Y-97853500D01*
X138078538Y-97794777D01*
X137904092Y-97636764D01*
X137771430Y-97406688D01*
X137737455Y-97305985D01*
X137708762Y-97174259D01*
X137665050Y-96937891D01*
X137609881Y-96617876D01*
X137546820Y-96235204D01*
X137479431Y-95810868D01*
X137437650Y-95540067D01*
X137205840Y-94020384D01*
X137376961Y-93873192D01*
X137537711Y-93771837D01*
X137694886Y-93726202D01*
X137703291Y-93726000D01*
X137828315Y-93692243D01*
X137858500Y-93630750D01*
X137840266Y-93591413D01*
X137773144Y-93564335D01*
X137638504Y-93547406D01*
X137417717Y-93538518D01*
X137092152Y-93535564D01*
X137016752Y-93535500D01*
X136175003Y-93535500D01*
X135604224Y-94989030D01*
G36*
X115548626Y-93460431D02*
G01*
X115220627Y-93623340D01*
X115041135Y-93785814D01*
X114842350Y-94087571D01*
X114761926Y-94407402D01*
X114796357Y-94727629D01*
X114942139Y-95030579D01*
X115195768Y-95298575D01*
X115364223Y-95415322D01*
X115691999Y-95612395D01*
X115443362Y-95686889D01*
X115142468Y-95826814D01*
X114885610Y-96038677D01*
X114712735Y-96288882D01*
X114704116Y-96308620D01*
X114638201Y-96572574D01*
X114621334Y-96889286D01*
X114653582Y-97195241D01*
X114703043Y-97363414D01*
X114843972Y-97586016D01*
X115062128Y-97809181D01*
X115313793Y-97994721D01*
X115549631Y-98102920D01*
X115850426Y-98154898D01*
X116184232Y-98163884D01*
X116497324Y-98131363D01*
X116710189Y-98070836D01*
X116930155Y-97956466D01*
X117129504Y-97820328D01*
X117278286Y-97686197D01*
X117346551Y-97577849D01*
X117348000Y-97564518D01*
X117332279Y-97488537D01*
X117270149Y-97488633D01*
X117139156Y-97567738D01*
X117097105Y-97597289D01*
X116922506Y-97693126D01*
X116702036Y-97779086D01*
X116637583Y-97798109D01*
X116440106Y-97839300D01*
X116290631Y-97827880D01*
X116119011Y-97757826D01*
X116108629Y-97752695D01*
X115831860Y-97559959D01*
X115661294Y-97302886D01*
X115588732Y-96985105D01*
X115613248Y-96626561D01*
X115742989Y-96317072D01*
X115962424Y-96074700D01*
X116256024Y-95917505D01*
X116552422Y-95864346D01*
X116728004Y-95843429D01*
X116828755Y-95803100D01*
X116839999Y-95782383D01*
X116785021Y-95725178D01*
X116641957Y-95647356D01*
X116472236Y-95577423D01*
X116238993Y-95472159D01*
X116028804Y-95343474D01*
X115927398Y-95258504D01*
X115753538Y-94996150D01*
X115682468Y-94700733D01*
X115713682Y-94403845D01*
X115846676Y-94137079D01*
X115947042Y-94028538D01*
X116190258Y-93883177D01*
X116452958Y-93862981D01*
X116732855Y-93967996D01*
X116802209Y-94011750D01*
X116967973Y-94120573D01*
X117055267Y-94161593D01*
X117088950Y-94140849D01*
X117094000Y-94082639D01*
X117043064Y-93973340D01*
X116911829Y-93831858D01*
X116732652Y-93684635D01*
X116537892Y-93558115D01*
X116359909Y-93478742D01*
X116352370Y-93476579D01*
X115927955Y-93411020D01*
X115548626Y-93460431D01*
G37*
X115548626Y-93460431D02*
X115220627Y-93623340D01*
X115041135Y-93785814D01*
X114842350Y-94087571D01*
X114761926Y-94407402D01*
X114796357Y-94727629D01*
X114942139Y-95030579D01*
X115195768Y-95298575D01*
X115364223Y-95415322D01*
X115691999Y-95612395D01*
X115443362Y-95686889D01*
X115142468Y-95826814D01*
X114885610Y-96038677D01*
X114712735Y-96288882D01*
X114704116Y-96308620D01*
X114638201Y-96572574D01*
X114621334Y-96889286D01*
X114653582Y-97195241D01*
X114703043Y-97363414D01*
X114843972Y-97586016D01*
X115062128Y-97809181D01*
X115313793Y-97994721D01*
X115549631Y-98102920D01*
X115850426Y-98154898D01*
X116184232Y-98163884D01*
X116497324Y-98131363D01*
X116710189Y-98070836D01*
X116930155Y-97956466D01*
X117129504Y-97820328D01*
X117278286Y-97686197D01*
X117346551Y-97577849D01*
X117348000Y-97564518D01*
X117332279Y-97488537D01*
X117270149Y-97488633D01*
X117139156Y-97567738D01*
X117097105Y-97597289D01*
X116922506Y-97693126D01*
X116702036Y-97779086D01*
X116637583Y-97798109D01*
X116440106Y-97839300D01*
X116290631Y-97827880D01*
X116119011Y-97757826D01*
X116108629Y-97752695D01*
X115831860Y-97559959D01*
X115661294Y-97302886D01*
X115588732Y-96985105D01*
X115613248Y-96626561D01*
X115742989Y-96317072D01*
X115962424Y-96074700D01*
X116256024Y-95917505D01*
X116552422Y-95864346D01*
X116728004Y-95843429D01*
X116828755Y-95803100D01*
X116839999Y-95782383D01*
X116785021Y-95725178D01*
X116641957Y-95647356D01*
X116472236Y-95577423D01*
X116238993Y-95472159D01*
X116028804Y-95343474D01*
X115927398Y-95258504D01*
X115753538Y-94996150D01*
X115682468Y-94700733D01*
X115713682Y-94403845D01*
X115846676Y-94137079D01*
X115947042Y-94028538D01*
X116190258Y-93883177D01*
X116452958Y-93862981D01*
X116732855Y-93967996D01*
X116802209Y-94011750D01*
X116967973Y-94120573D01*
X117055267Y-94161593D01*
X117088950Y-94140849D01*
X117094000Y-94082639D01*
X117043064Y-93973340D01*
X116911829Y-93831858D01*
X116732652Y-93684635D01*
X116537892Y-93558115D01*
X116359909Y-93478742D01*
X116352370Y-93476579D01*
X115927955Y-93411020D01*
X115548626Y-93460431D01*
G36*
X89306371Y-97519066D02*
G01*
X89266889Y-97519467D01*
X89151200Y-97522259D01*
X89054311Y-97530550D01*
X88972919Y-97545232D01*
X88903723Y-97567193D01*
X88843420Y-97597322D01*
X88788708Y-97636510D01*
X88769167Y-97653532D01*
X88736750Y-97693363D01*
X88707520Y-97747413D01*
X88684991Y-97807323D01*
X88672679Y-97864739D01*
X88671400Y-97885956D01*
X88679417Y-97944769D01*
X88700899Y-98009013D01*
X88731999Y-98069821D01*
X88768866Y-98118330D01*
X88774854Y-98124182D01*
X88825579Y-98165321D01*
X88881125Y-98197435D01*
X88944696Y-98221365D01*
X89019494Y-98237953D01*
X89108722Y-98248041D01*
X89215582Y-98252469D01*
X89264528Y-98252845D01*
X89326762Y-98252545D01*
X89370528Y-98251292D01*
X89399931Y-98248554D01*
X89419079Y-98243801D01*
X89432077Y-98236501D01*
X89439045Y-98230267D01*
X89445626Y-98222694D01*
X89450788Y-98212924D01*
X89454703Y-98198340D01*
X89457543Y-98176326D01*
X89459480Y-98144264D01*
X89460684Y-98099536D01*
X89461328Y-98039526D01*
X89461583Y-97961617D01*
X89461622Y-97885956D01*
X89461870Y-97785041D01*
X89461817Y-97704427D01*
X89460857Y-97665822D01*
X89314867Y-97665822D01*
X89314867Y-98106089D01*
X89221734Y-98106004D01*
X89165693Y-98104396D01*
X89106999Y-98100256D01*
X89058028Y-98094464D01*
X89056538Y-98094226D01*
X88977392Y-98075090D01*
X88916002Y-98045287D01*
X88869305Y-98002878D01*
X88839635Y-97956961D01*
X88821353Y-97906026D01*
X88822771Y-97858200D01*
X88843988Y-97806933D01*
X88885489Y-97753899D01*
X88942998Y-97714600D01*
X89017750Y-97688331D01*
X89067708Y-97679035D01*
X89124416Y-97672507D01*
X89184519Y-97667782D01*
X89235639Y-97665817D01*
X89238667Y-97665808D01*
X89314867Y-97665822D01*
X89460857Y-97665822D01*
X89460260Y-97641851D01*
X89455998Y-97595055D01*
X89447830Y-97561778D01*
X89434556Y-97539759D01*
X89414974Y-97526739D01*
X89387883Y-97520457D01*
X89352082Y-97518653D01*
X89306371Y-97519066D01*
G37*
X89306371Y-97519066D02*
X89266889Y-97519467D01*
X89151200Y-97522259D01*
X89054311Y-97530550D01*
X88972919Y-97545232D01*
X88903723Y-97567193D01*
X88843420Y-97597322D01*
X88788708Y-97636510D01*
X88769167Y-97653532D01*
X88736750Y-97693363D01*
X88707520Y-97747413D01*
X88684991Y-97807323D01*
X88672679Y-97864739D01*
X88671400Y-97885956D01*
X88679417Y-97944769D01*
X88700899Y-98009013D01*
X88731999Y-98069821D01*
X88768866Y-98118330D01*
X88774854Y-98124182D01*
X88825579Y-98165321D01*
X88881125Y-98197435D01*
X88944696Y-98221365D01*
X89019494Y-98237953D01*
X89108722Y-98248041D01*
X89215582Y-98252469D01*
X89264528Y-98252845D01*
X89326762Y-98252545D01*
X89370528Y-98251292D01*
X89399931Y-98248554D01*
X89419079Y-98243801D01*
X89432077Y-98236501D01*
X89439045Y-98230267D01*
X89445626Y-98222694D01*
X89450788Y-98212924D01*
X89454703Y-98198340D01*
X89457543Y-98176326D01*
X89459480Y-98144264D01*
X89460684Y-98099536D01*
X89461328Y-98039526D01*
X89461583Y-97961617D01*
X89461622Y-97885956D01*
X89461870Y-97785041D01*
X89461817Y-97704427D01*
X89460857Y-97665822D01*
X89314867Y-97665822D01*
X89314867Y-98106089D01*
X89221734Y-98106004D01*
X89165693Y-98104396D01*
X89106999Y-98100256D01*
X89058028Y-98094464D01*
X89056538Y-98094226D01*
X88977392Y-98075090D01*
X88916002Y-98045287D01*
X88869305Y-98002878D01*
X88839635Y-97956961D01*
X88821353Y-97906026D01*
X88822771Y-97858200D01*
X88843988Y-97806933D01*
X88885489Y-97753899D01*
X88942998Y-97714600D01*
X89017750Y-97688331D01*
X89067708Y-97679035D01*
X89124416Y-97672507D01*
X89184519Y-97667782D01*
X89235639Y-97665817D01*
X89238667Y-97665808D01*
X89314867Y-97665822D01*
X89460857Y-97665822D01*
X89460260Y-97641851D01*
X89455998Y-97595055D01*
X89447830Y-97561778D01*
X89434556Y-97539759D01*
X89414974Y-97526739D01*
X89387883Y-97520457D01*
X89352082Y-97518653D01*
X89306371Y-97519066D01*
G36*
X87897794Y-97519146D02*
G01*
X87828386Y-97519518D01*
X87775997Y-97520385D01*
X87737847Y-97521946D01*
X87711159Y-97524403D01*
X87693153Y-97527957D01*
X87681049Y-97532810D01*
X87672069Y-97539161D01*
X87668818Y-97542084D01*
X87649043Y-97573142D01*
X87645482Y-97608828D01*
X87658491Y-97640510D01*
X87664506Y-97646913D01*
X87674235Y-97653121D01*
X87689901Y-97657910D01*
X87714408Y-97661514D01*
X87750661Y-97664164D01*
X87801565Y-97666095D01*
X87870026Y-97667539D01*
X87932617Y-97668418D01*
X88180334Y-97671467D01*
X88183719Y-97736378D01*
X88187105Y-97801289D01*
X88018958Y-97801289D01*
X87945959Y-97801919D01*
X87892517Y-97804553D01*
X87855628Y-97810309D01*
X87832288Y-97820304D01*
X87819494Y-97835656D01*
X87814242Y-97857482D01*
X87813445Y-97877738D01*
X87815923Y-97902592D01*
X87825277Y-97920906D01*
X87844383Y-97933637D01*
X87876118Y-97941741D01*
X87923359Y-97946176D01*
X87988983Y-97947899D01*
X88024801Y-97948045D01*
X88185978Y-97948045D01*
X88185978Y-98106089D01*
X87937622Y-98106089D01*
X87856213Y-98106202D01*
X87794342Y-98106712D01*
X87748968Y-98107870D01*
X87717054Y-98109930D01*
X87695559Y-98113146D01*
X87681443Y-98117772D01*
X87671668Y-98124059D01*
X87666689Y-98128667D01*
X87649610Y-98155560D01*
X87644111Y-98179467D01*
X87651963Y-98208667D01*
X87666689Y-98230267D01*
X87674546Y-98237066D01*
X87684688Y-98242346D01*
X87699844Y-98246298D01*
X87722741Y-98249113D01*
X87756109Y-98250982D01*
X87802675Y-98252098D01*
X87865167Y-98252651D01*
X87946314Y-98252833D01*
X87988422Y-98252845D01*
X88078598Y-98252765D01*
X88148924Y-98252398D01*
X88202129Y-98251552D01*
X88240940Y-98250036D01*
X88268087Y-98247659D01*
X88286298Y-98244229D01*
X88298300Y-98239554D01*
X88306822Y-98233444D01*
X88310156Y-98230267D01*
X88316755Y-98222670D01*
X88321927Y-98212870D01*
X88325846Y-98198239D01*
X88328684Y-98176152D01*
X88330615Y-98143982D01*
X88331812Y-98099103D01*
X88332448Y-98038889D01*
X88332697Y-97960713D01*
X88332734Y-97887923D01*
X88332700Y-97794707D01*
X88332465Y-97721431D01*
X88331830Y-97665458D01*
X88330594Y-97624151D01*
X88328556Y-97594872D01*
X88325517Y-97574984D01*
X88321277Y-97561850D01*
X88315635Y-97552832D01*
X88308391Y-97545293D01*
X88306606Y-97543612D01*
X88297945Y-97536172D01*
X88287882Y-97530409D01*
X88273625Y-97526112D01*
X88252383Y-97523064D01*
X88221364Y-97521051D01*
X88177777Y-97519860D01*
X88118831Y-97519275D01*
X88041734Y-97519083D01*
X87987001Y-97519067D01*
X87897794Y-97519146D01*
G37*
X87897794Y-97519146D02*
X87828386Y-97519518D01*
X87775997Y-97520385D01*
X87737847Y-97521946D01*
X87711159Y-97524403D01*
X87693153Y-97527957D01*
X87681049Y-97532810D01*
X87672069Y-97539161D01*
X87668818Y-97542084D01*
X87649043Y-97573142D01*
X87645482Y-97608828D01*
X87658491Y-97640510D01*
X87664506Y-97646913D01*
X87674235Y-97653121D01*
X87689901Y-97657910D01*
X87714408Y-97661514D01*
X87750661Y-97664164D01*
X87801565Y-97666095D01*
X87870026Y-97667539D01*
X87932617Y-97668418D01*
X88180334Y-97671467D01*
X88183719Y-97736378D01*
X88187105Y-97801289D01*
X88018958Y-97801289D01*
X87945959Y-97801919D01*
X87892517Y-97804553D01*
X87855628Y-97810309D01*
X87832288Y-97820304D01*
X87819494Y-97835656D01*
X87814242Y-97857482D01*
X87813445Y-97877738D01*
X87815923Y-97902592D01*
X87825277Y-97920906D01*
X87844383Y-97933637D01*
X87876118Y-97941741D01*
X87923359Y-97946176D01*
X87988983Y-97947899D01*
X88024801Y-97948045D01*
X88185978Y-97948045D01*
X88185978Y-98106089D01*
X87937622Y-98106089D01*
X87856213Y-98106202D01*
X87794342Y-98106712D01*
X87748968Y-98107870D01*
X87717054Y-98109930D01*
X87695559Y-98113146D01*
X87681443Y-98117772D01*
X87671668Y-98124059D01*
X87666689Y-98128667D01*
X87649610Y-98155560D01*
X87644111Y-98179467D01*
X87651963Y-98208667D01*
X87666689Y-98230267D01*
X87674546Y-98237066D01*
X87684688Y-98242346D01*
X87699844Y-98246298D01*
X87722741Y-98249113D01*
X87756109Y-98250982D01*
X87802675Y-98252098D01*
X87865167Y-98252651D01*
X87946314Y-98252833D01*
X87988422Y-98252845D01*
X88078598Y-98252765D01*
X88148924Y-98252398D01*
X88202129Y-98251552D01*
X88240940Y-98250036D01*
X88268087Y-98247659D01*
X88286298Y-98244229D01*
X88298300Y-98239554D01*
X88306822Y-98233444D01*
X88310156Y-98230267D01*
X88316755Y-98222670D01*
X88321927Y-98212870D01*
X88325846Y-98198239D01*
X88328684Y-98176152D01*
X88330615Y-98143982D01*
X88331812Y-98099103D01*
X88332448Y-98038889D01*
X88332697Y-97960713D01*
X88332734Y-97887923D01*
X88332700Y-97794707D01*
X88332465Y-97721431D01*
X88331830Y-97665458D01*
X88330594Y-97624151D01*
X88328556Y-97594872D01*
X88325517Y-97574984D01*
X88321277Y-97561850D01*
X88315635Y-97552832D01*
X88308391Y-97545293D01*
X88306606Y-97543612D01*
X88297945Y-97536172D01*
X88287882Y-97530409D01*
X88273625Y-97526112D01*
X88252383Y-97523064D01*
X88221364Y-97521051D01*
X88177777Y-97519860D01*
X88118831Y-97519275D01*
X88041734Y-97519083D01*
X87987001Y-97519067D01*
X87897794Y-97519146D01*
G36*
X86876703Y-97520351D02*
G01*
X86801888Y-97525581D01*
X86732306Y-97533750D01*
X86672002Y-97544550D01*
X86625020Y-97557673D01*
X86595406Y-97572813D01*
X86590860Y-97577269D01*
X86575054Y-97611850D01*
X86579847Y-97647351D01*
X86604364Y-97677725D01*
X86605534Y-97678596D01*
X86619954Y-97687954D01*
X86635008Y-97692876D01*
X86656005Y-97693473D01*
X86688257Y-97689861D01*
X86737073Y-97682154D01*
X86741000Y-97681505D01*
X86813739Y-97672569D01*
X86892217Y-97668161D01*
X86970927Y-97668119D01*
X87044361Y-97672279D01*
X87107011Y-97680479D01*
X87153370Y-97692557D01*
X87156416Y-97693771D01*
X87190048Y-97712615D01*
X87201864Y-97731685D01*
X87192614Y-97750439D01*
X87163047Y-97768337D01*
X87113911Y-97784837D01*
X87045957Y-97799396D01*
X87000645Y-97806406D01*
X86906456Y-97819889D01*
X86831544Y-97832214D01*
X86772717Y-97844449D01*
X86726785Y-97857661D01*
X86690555Y-97872917D01*
X86660838Y-97891285D01*
X86634442Y-97913831D01*
X86613230Y-97935971D01*
X86588065Y-97966819D01*
X86575681Y-97993345D01*
X86571808Y-98026026D01*
X86571667Y-98037995D01*
X86574576Y-98077712D01*
X86586202Y-98107259D01*
X86606323Y-98133486D01*
X86647216Y-98173576D01*
X86692817Y-98204149D01*
X86746513Y-98226203D01*
X86811692Y-98240735D01*
X86891744Y-98248741D01*
X86990057Y-98251218D01*
X87006289Y-98251177D01*
X87071849Y-98249818D01*
X87136866Y-98246730D01*
X87194252Y-98242356D01*
X87236922Y-98237140D01*
X87240372Y-98236541D01*
X87282796Y-98226491D01*
X87318780Y-98213796D01*
X87339150Y-98202190D01*
X87358107Y-98171572D01*
X87359427Y-98135918D01*
X87343085Y-98104144D01*
X87339429Y-98100551D01*
X87324315Y-98089876D01*
X87305415Y-98085276D01*
X87276162Y-98086059D01*
X87240651Y-98090127D01*
X87200970Y-98093762D01*
X87145345Y-98096828D01*
X87080406Y-98099053D01*
X87012785Y-98100164D01*
X86995000Y-98100237D01*
X86927128Y-98099964D01*
X86877454Y-98098646D01*
X86841610Y-98095827D01*
X86815224Y-98091050D01*
X86793926Y-98083857D01*
X86781126Y-98077867D01*
X86753000Y-98061233D01*
X86735068Y-98046168D01*
X86732447Y-98041897D01*
X86737976Y-98024263D01*
X86764260Y-98007192D01*
X86809478Y-97991458D01*
X86871808Y-97977838D01*
X86890171Y-97974804D01*
X86986090Y-97959738D01*
X87062641Y-97947146D01*
X87122780Y-97936111D01*
X87169460Y-97925720D01*
X87205637Y-97915056D01*
X87234265Y-97903205D01*
X87258298Y-97889251D01*
X87280692Y-97872281D01*
X87304402Y-97851378D01*
X87312380Y-97844049D01*
X87340353Y-97816699D01*
X87355160Y-97795029D01*
X87360952Y-97770232D01*
X87361889Y-97738983D01*
X87351575Y-97677705D01*
X87320752Y-97625640D01*
X87269595Y-97582958D01*
X87198283Y-97549825D01*
X87147400Y-97534964D01*
X87092100Y-97525366D01*
X87025853Y-97519936D01*
X86952706Y-97518367D01*
X86876703Y-97520351D01*
G37*
X86876703Y-97520351D02*
X86801888Y-97525581D01*
X86732306Y-97533750D01*
X86672002Y-97544550D01*
X86625020Y-97557673D01*
X86595406Y-97572813D01*
X86590860Y-97577269D01*
X86575054Y-97611850D01*
X86579847Y-97647351D01*
X86604364Y-97677725D01*
X86605534Y-97678596D01*
X86619954Y-97687954D01*
X86635008Y-97692876D01*
X86656005Y-97693473D01*
X86688257Y-97689861D01*
X86737073Y-97682154D01*
X86741000Y-97681505D01*
X86813739Y-97672569D01*
X86892217Y-97668161D01*
X86970927Y-97668119D01*
X87044361Y-97672279D01*
X87107011Y-97680479D01*
X87153370Y-97692557D01*
X87156416Y-97693771D01*
X87190048Y-97712615D01*
X87201864Y-97731685D01*
X87192614Y-97750439D01*
X87163047Y-97768337D01*
X87113911Y-97784837D01*
X87045957Y-97799396D01*
X87000645Y-97806406D01*
X86906456Y-97819889D01*
X86831544Y-97832214D01*
X86772717Y-97844449D01*
X86726785Y-97857661D01*
X86690555Y-97872917D01*
X86660838Y-97891285D01*
X86634442Y-97913831D01*
X86613230Y-97935971D01*
X86588065Y-97966819D01*
X86575681Y-97993345D01*
X86571808Y-98026026D01*
X86571667Y-98037995D01*
X86574576Y-98077712D01*
X86586202Y-98107259D01*
X86606323Y-98133486D01*
X86647216Y-98173576D01*
X86692817Y-98204149D01*
X86746513Y-98226203D01*
X86811692Y-98240735D01*
X86891744Y-98248741D01*
X86990057Y-98251218D01*
X87006289Y-98251177D01*
X87071849Y-98249818D01*
X87136866Y-98246730D01*
X87194252Y-98242356D01*
X87236922Y-98237140D01*
X87240372Y-98236541D01*
X87282796Y-98226491D01*
X87318780Y-98213796D01*
X87339150Y-98202190D01*
X87358107Y-98171572D01*
X87359427Y-98135918D01*
X87343085Y-98104144D01*
X87339429Y-98100551D01*
X87324315Y-98089876D01*
X87305415Y-98085276D01*
X87276162Y-98086059D01*
X87240651Y-98090127D01*
X87200970Y-98093762D01*
X87145345Y-98096828D01*
X87080406Y-98099053D01*
X87012785Y-98100164D01*
X86995000Y-98100237D01*
X86927128Y-98099964D01*
X86877454Y-98098646D01*
X86841610Y-98095827D01*
X86815224Y-98091050D01*
X86793926Y-98083857D01*
X86781126Y-98077867D01*
X86753000Y-98061233D01*
X86735068Y-98046168D01*
X86732447Y-98041897D01*
X86737976Y-98024263D01*
X86764260Y-98007192D01*
X86809478Y-97991458D01*
X86871808Y-97977838D01*
X86890171Y-97974804D01*
X86986090Y-97959738D01*
X87062641Y-97947146D01*
X87122780Y-97936111D01*
X87169460Y-97925720D01*
X87205637Y-97915056D01*
X87234265Y-97903205D01*
X87258298Y-97889251D01*
X87280692Y-97872281D01*
X87304402Y-97851378D01*
X87312380Y-97844049D01*
X87340353Y-97816699D01*
X87355160Y-97795029D01*
X87360952Y-97770232D01*
X87361889Y-97738983D01*
X87351575Y-97677705D01*
X87320752Y-97625640D01*
X87269595Y-97582958D01*
X87198283Y-97549825D01*
X87147400Y-97534964D01*
X87092100Y-97525366D01*
X87025853Y-97519936D01*
X86952706Y-97518367D01*
X86876703Y-97520351D01*
G36*
X86108822Y-97541645D02*
G01*
X86102242Y-97549218D01*
X86097079Y-97558987D01*
X86093164Y-97573571D01*
X86090324Y-97595585D01*
X86088387Y-97627648D01*
X86087183Y-97672375D01*
X86086539Y-97732385D01*
X86086284Y-97810294D01*
X86086245Y-97885956D01*
X86086314Y-97979802D01*
X86086638Y-98053689D01*
X86087386Y-98110232D01*
X86088732Y-98152049D01*
X86090846Y-98181757D01*
X86093900Y-98201973D01*
X86098066Y-98215314D01*
X86103516Y-98224398D01*
X86108822Y-98230267D01*
X86141826Y-98249947D01*
X86176991Y-98248181D01*
X86208455Y-98226717D01*
X86215684Y-98218337D01*
X86221334Y-98208614D01*
X86225599Y-98194861D01*
X86228673Y-98174389D01*
X86230752Y-98144512D01*
X86232030Y-98102541D01*
X86232701Y-98045789D01*
X86232959Y-97971567D01*
X86233000Y-97887537D01*
X86233000Y-97574485D01*
X86205291Y-97546776D01*
X86171137Y-97523463D01*
X86138006Y-97522623D01*
X86108822Y-97541645D01*
G37*
X86108822Y-97541645D02*
X86102242Y-97549218D01*
X86097079Y-97558987D01*
X86093164Y-97573571D01*
X86090324Y-97595585D01*
X86088387Y-97627648D01*
X86087183Y-97672375D01*
X86086539Y-97732385D01*
X86086284Y-97810294D01*
X86086245Y-97885956D01*
X86086314Y-97979802D01*
X86086638Y-98053689D01*
X86087386Y-98110232D01*
X86088732Y-98152049D01*
X86090846Y-98181757D01*
X86093900Y-98201973D01*
X86098066Y-98215314D01*
X86103516Y-98224398D01*
X86108822Y-98230267D01*
X86141826Y-98249947D01*
X86176991Y-98248181D01*
X86208455Y-98226717D01*
X86215684Y-98218337D01*
X86221334Y-98208614D01*
X86225599Y-98194861D01*
X86228673Y-98174389D01*
X86230752Y-98144512D01*
X86232030Y-98102541D01*
X86232701Y-98045789D01*
X86232959Y-97971567D01*
X86233000Y-97887537D01*
X86233000Y-97574485D01*
X86205291Y-97546776D01*
X86171137Y-97523463D01*
X86138006Y-97522623D01*
X86108822Y-97541645D01*
G36*
X85135081Y-97524599D02*
G01*
X85066565Y-97536095D01*
X85013943Y-97553967D01*
X84979708Y-97577499D01*
X84970379Y-97590924D01*
X84960893Y-97622148D01*
X84967277Y-97650395D01*
X84987430Y-97677182D01*
X85018745Y-97689713D01*
X85064183Y-97688696D01*
X85099326Y-97681906D01*
X85177419Y-97668971D01*
X85257226Y-97667742D01*
X85346555Y-97678241D01*
X85371229Y-97682690D01*
X85454291Y-97706108D01*
X85519273Y-97740945D01*
X85565461Y-97786604D01*
X85592145Y-97842494D01*
X85597663Y-97871388D01*
X85594051Y-97930012D01*
X85570729Y-97981879D01*
X85529824Y-98025978D01*
X85473459Y-98061299D01*
X85403760Y-98086829D01*
X85322852Y-98101559D01*
X85232860Y-98104478D01*
X85135910Y-98094575D01*
X85130436Y-98093641D01*
X85091875Y-98086459D01*
X85070494Y-98079521D01*
X85061227Y-98069227D01*
X85059006Y-98051976D01*
X85058956Y-98042841D01*
X85058956Y-98004489D01*
X85127431Y-98004489D01*
X85187900Y-98000347D01*
X85229165Y-97987147D01*
X85253175Y-97963730D01*
X85261877Y-97928936D01*
X85261983Y-97924394D01*
X85256892Y-97894654D01*
X85239433Y-97873419D01*
X85206939Y-97859366D01*
X85156743Y-97851173D01*
X85108123Y-97848161D01*
X85037456Y-97846433D01*
X84986198Y-97849070D01*
X84951239Y-97858800D01*
X84929470Y-97878353D01*
X84917780Y-97910456D01*
X84913060Y-97957838D01*
X84912200Y-98020071D01*
X84913609Y-98089535D01*
X84917848Y-98136786D01*
X84924936Y-98162012D01*
X84926311Y-98163988D01*
X84965228Y-98195508D01*
X85022286Y-98220470D01*
X85093869Y-98238340D01*
X85176358Y-98248586D01*
X85266139Y-98250673D01*
X85359592Y-98244068D01*
X85414556Y-98235956D01*
X85500766Y-98211554D01*
X85580892Y-98171662D01*
X85647977Y-98119887D01*
X85658173Y-98109539D01*
X85691302Y-98066035D01*
X85721194Y-98012118D01*
X85744357Y-97955592D01*
X85757298Y-97904259D01*
X85758858Y-97884544D01*
X85752218Y-97843419D01*
X85734568Y-97792252D01*
X85709297Y-97738394D01*
X85679789Y-97689195D01*
X85653719Y-97656334D01*
X85592765Y-97607452D01*
X85513969Y-97568545D01*
X85420157Y-97540494D01*
X85314150Y-97524179D01*
X85217000Y-97520192D01*
X85135081Y-97524599D01*
G37*
X85135081Y-97524599D02*
X85066565Y-97536095D01*
X85013943Y-97553967D01*
X84979708Y-97577499D01*
X84970379Y-97590924D01*
X84960893Y-97622148D01*
X84967277Y-97650395D01*
X84987430Y-97677182D01*
X85018745Y-97689713D01*
X85064183Y-97688696D01*
X85099326Y-97681906D01*
X85177419Y-97668971D01*
X85257226Y-97667742D01*
X85346555Y-97678241D01*
X85371229Y-97682690D01*
X85454291Y-97706108D01*
X85519273Y-97740945D01*
X85565461Y-97786604D01*
X85592145Y-97842494D01*
X85597663Y-97871388D01*
X85594051Y-97930012D01*
X85570729Y-97981879D01*
X85529824Y-98025978D01*
X85473459Y-98061299D01*
X85403760Y-98086829D01*
X85322852Y-98101559D01*
X85232860Y-98104478D01*
X85135910Y-98094575D01*
X85130436Y-98093641D01*
X85091875Y-98086459D01*
X85070494Y-98079521D01*
X85061227Y-98069227D01*
X85059006Y-98051976D01*
X85058956Y-98042841D01*
X85058956Y-98004489D01*
X85127431Y-98004489D01*
X85187900Y-98000347D01*
X85229165Y-97987147D01*
X85253175Y-97963730D01*
X85261877Y-97928936D01*
X85261983Y-97924394D01*
X85256892Y-97894654D01*
X85239433Y-97873419D01*
X85206939Y-97859366D01*
X85156743Y-97851173D01*
X85108123Y-97848161D01*
X85037456Y-97846433D01*
X84986198Y-97849070D01*
X84951239Y-97858800D01*
X84929470Y-97878353D01*
X84917780Y-97910456D01*
X84913060Y-97957838D01*
X84912200Y-98020071D01*
X84913609Y-98089535D01*
X84917848Y-98136786D01*
X84924936Y-98162012D01*
X84926311Y-98163988D01*
X84965228Y-98195508D01*
X85022286Y-98220470D01*
X85093869Y-98238340D01*
X85176358Y-98248586D01*
X85266139Y-98250673D01*
X85359592Y-98244068D01*
X85414556Y-98235956D01*
X85500766Y-98211554D01*
X85580892Y-98171662D01*
X85647977Y-98119887D01*
X85658173Y-98109539D01*
X85691302Y-98066035D01*
X85721194Y-98012118D01*
X85744357Y-97955592D01*
X85757298Y-97904259D01*
X85758858Y-97884544D01*
X85752218Y-97843419D01*
X85734568Y-97792252D01*
X85709297Y-97738394D01*
X85679789Y-97689195D01*
X85653719Y-97656334D01*
X85592765Y-97607452D01*
X85513969Y-97568545D01*
X85420157Y-97540494D01*
X85314150Y-97524179D01*
X85217000Y-97520192D01*
X85135081Y-97524599D01*
G36*
X84485114Y-97523448D02*
G01*
X84461548Y-97537273D01*
X84430735Y-97559881D01*
X84391078Y-97592338D01*
X84340980Y-97635708D01*
X84278843Y-97691058D01*
X84203072Y-97759451D01*
X84116334Y-97838084D01*
X83935711Y-98001878D01*
X83930067Y-97782029D01*
X83928029Y-97706351D01*
X83926063Y-97649994D01*
X83923734Y-97609706D01*
X83920606Y-97582235D01*
X83916245Y-97564329D01*
X83910216Y-97552737D01*
X83902084Y-97544208D01*
X83897772Y-97540623D01*
X83863241Y-97521670D01*
X83830383Y-97524441D01*
X83804318Y-97540633D01*
X83777667Y-97562199D01*
X83774352Y-97877151D01*
X83773435Y-97969779D01*
X83772968Y-98042544D01*
X83773113Y-98098161D01*
X83774032Y-98139342D01*
X83775887Y-98168803D01*
X83778839Y-98189255D01*
X83783050Y-98203413D01*
X83788682Y-98213991D01*
X83794927Y-98222474D01*
X83808439Y-98238207D01*
X83821883Y-98248636D01*
X83837124Y-98252639D01*
X83856026Y-98249094D01*
X83880455Y-98236879D01*
X83912273Y-98214871D01*
X83953348Y-98181949D01*
X84005542Y-98136991D01*
X84070722Y-98078875D01*
X84144556Y-98012099D01*
X84409845Y-97771458D01*
X84415489Y-97990589D01*
X84417531Y-98066128D01*
X84419502Y-98122354D01*
X84421839Y-98162524D01*
X84424981Y-98189896D01*
X84429364Y-98207728D01*
X84435424Y-98219279D01*
X84443600Y-98227807D01*
X84447784Y-98231282D01*
X84484765Y-98250372D01*
X84519708Y-98247493D01*
X84550136Y-98223100D01*
X84557097Y-98213286D01*
X84562523Y-98201826D01*
X84566603Y-98185968D01*
X84569529Y-98162963D01*
X84571492Y-98130062D01*
X84572683Y-98084516D01*
X84573292Y-98023573D01*
X84573511Y-97944486D01*
X84573534Y-97885956D01*
X84573460Y-97794407D01*
X84573113Y-97722687D01*
X84572301Y-97668045D01*
X84570833Y-97627732D01*
X84568519Y-97598998D01*
X84565167Y-97579093D01*
X84560588Y-97565268D01*
X84554589Y-97554772D01*
X84550136Y-97548811D01*
X84538850Y-97534691D01*
X84528301Y-97524029D01*
X84516893Y-97517892D01*
X84503030Y-97517343D01*
X84485114Y-97523448D01*
G37*
X84485114Y-97523448D02*
X84461548Y-97537273D01*
X84430735Y-97559881D01*
X84391078Y-97592338D01*
X84340980Y-97635708D01*
X84278843Y-97691058D01*
X84203072Y-97759451D01*
X84116334Y-97838084D01*
X83935711Y-98001878D01*
X83930067Y-97782029D01*
X83928029Y-97706351D01*
X83926063Y-97649994D01*
X83923734Y-97609706D01*
X83920606Y-97582235D01*
X83916245Y-97564329D01*
X83910216Y-97552737D01*
X83902084Y-97544208D01*
X83897772Y-97540623D01*
X83863241Y-97521670D01*
X83830383Y-97524441D01*
X83804318Y-97540633D01*
X83777667Y-97562199D01*
X83774352Y-97877151D01*
X83773435Y-97969779D01*
X83772968Y-98042544D01*
X83773113Y-98098161D01*
X83774032Y-98139342D01*
X83775887Y-98168803D01*
X83778839Y-98189255D01*
X83783050Y-98203413D01*
X83788682Y-98213991D01*
X83794927Y-98222474D01*
X83808439Y-98238207D01*
X83821883Y-98248636D01*
X83837124Y-98252639D01*
X83856026Y-98249094D01*
X83880455Y-98236879D01*
X83912273Y-98214871D01*
X83953348Y-98181949D01*
X84005542Y-98136991D01*
X84070722Y-98078875D01*
X84144556Y-98012099D01*
X84409845Y-97771458D01*
X84415489Y-97990589D01*
X84417531Y-98066128D01*
X84419502Y-98122354D01*
X84421839Y-98162524D01*
X84424981Y-98189896D01*
X84429364Y-98207728D01*
X84435424Y-98219279D01*
X84443600Y-98227807D01*
X84447784Y-98231282D01*
X84484765Y-98250372D01*
X84519708Y-98247493D01*
X84550136Y-98223100D01*
X84557097Y-98213286D01*
X84562523Y-98201826D01*
X84566603Y-98185968D01*
X84569529Y-98162963D01*
X84571492Y-98130062D01*
X84572683Y-98084516D01*
X84573292Y-98023573D01*
X84573511Y-97944486D01*
X84573534Y-97885956D01*
X84573460Y-97794407D01*
X84573113Y-97722687D01*
X84572301Y-97668045D01*
X84570833Y-97627732D01*
X84568519Y-97598998D01*
X84565167Y-97579093D01*
X84560588Y-97565268D01*
X84554589Y-97554772D01*
X84550136Y-97548811D01*
X84538850Y-97534691D01*
X84528301Y-97524029D01*
X84516893Y-97517892D01*
X84503030Y-97517343D01*
X84485114Y-97523448D01*
G36*
X82954657Y-97519260D02*
G01*
X82878299Y-97520174D01*
X82819783Y-97522311D01*
X82776745Y-97526175D01*
X82746817Y-97532267D01*
X82727632Y-97541090D01*
X82716824Y-97553146D01*
X82712027Y-97568939D01*
X82710873Y-97588970D01*
X82710867Y-97591335D01*
X82711869Y-97613992D01*
X82716604Y-97631503D01*
X82727667Y-97644574D01*
X82747652Y-97653913D01*
X82779154Y-97660227D01*
X82824768Y-97664222D01*
X82887087Y-97666606D01*
X82968707Y-97668086D01*
X82993723Y-97668414D01*
X83235800Y-97671467D01*
X83239186Y-97736378D01*
X83242571Y-97801289D01*
X83074424Y-97801289D01*
X83008734Y-97801531D01*
X82961828Y-97802556D01*
X82929917Y-97804811D01*
X82909209Y-97808742D01*
X82895916Y-97814798D01*
X82886245Y-97823424D01*
X82886183Y-97823493D01*
X82868644Y-97857112D01*
X82869278Y-97893448D01*
X82887686Y-97924423D01*
X82891329Y-97927607D01*
X82904259Y-97935812D01*
X82921976Y-97941521D01*
X82948430Y-97945162D01*
X82987568Y-97947167D01*
X83043338Y-97947964D01*
X83079006Y-97948045D01*
X83241445Y-97948045D01*
X83241445Y-98106089D01*
X82994839Y-98106089D01*
X82913420Y-98106231D01*
X82851590Y-98106814D01*
X82806363Y-98108068D01*
X82774752Y-98110227D01*
X82753769Y-98113523D01*
X82740427Y-98118189D01*
X82731739Y-98124457D01*
X82729550Y-98126733D01*
X82713386Y-98158280D01*
X82712203Y-98194168D01*
X82725464Y-98225285D01*
X82735957Y-98235271D01*
X82746871Y-98240769D01*
X82763783Y-98245022D01*
X82789367Y-98248180D01*
X82826299Y-98250392D01*
X82877254Y-98251806D01*
X82944906Y-98252572D01*
X83031931Y-98252838D01*
X83051606Y-98252845D01*
X83140089Y-98252787D01*
X83208773Y-98252467D01*
X83260436Y-98251667D01*
X83297855Y-98250167D01*
X83323810Y-98247749D01*
X83341078Y-98244194D01*
X83352438Y-98239282D01*
X83360668Y-98232795D01*
X83365183Y-98228138D01*
X83371979Y-98219889D01*
X83377288Y-98209669D01*
X83381294Y-98194800D01*
X83384179Y-98172602D01*
X83386126Y-98140393D01*
X83387319Y-98095496D01*
X83387939Y-98035228D01*
X83388171Y-97956911D01*
X83388200Y-97890994D01*
X83388129Y-97798628D01*
X83387792Y-97726117D01*
X83387002Y-97670737D01*
X83385574Y-97629765D01*
X83383321Y-97600478D01*
X83380057Y-97580153D01*
X83375596Y-97566066D01*
X83369752Y-97555495D01*
X83364803Y-97548811D01*
X83341406Y-97519067D01*
X83051226Y-97519067D01*
X82954657Y-97519260D01*
G37*
X82954657Y-97519260D02*
X82878299Y-97520174D01*
X82819783Y-97522311D01*
X82776745Y-97526175D01*
X82746817Y-97532267D01*
X82727632Y-97541090D01*
X82716824Y-97553146D01*
X82712027Y-97568939D01*
X82710873Y-97588970D01*
X82710867Y-97591335D01*
X82711869Y-97613992D01*
X82716604Y-97631503D01*
X82727667Y-97644574D01*
X82747652Y-97653913D01*
X82779154Y-97660227D01*
X82824768Y-97664222D01*
X82887087Y-97666606D01*
X82968707Y-97668086D01*
X82993723Y-97668414D01*
X83235800Y-97671467D01*
X83239186Y-97736378D01*
X83242571Y-97801289D01*
X83074424Y-97801289D01*
X83008734Y-97801531D01*
X82961828Y-97802556D01*
X82929917Y-97804811D01*
X82909209Y-97808742D01*
X82895916Y-97814798D01*
X82886245Y-97823424D01*
X82886183Y-97823493D01*
X82868644Y-97857112D01*
X82869278Y-97893448D01*
X82887686Y-97924423D01*
X82891329Y-97927607D01*
X82904259Y-97935812D01*
X82921976Y-97941521D01*
X82948430Y-97945162D01*
X82987568Y-97947167D01*
X83043338Y-97947964D01*
X83079006Y-97948045D01*
X83241445Y-97948045D01*
X83241445Y-98106089D01*
X82994839Y-98106089D01*
X82913420Y-98106231D01*
X82851590Y-98106814D01*
X82806363Y-98108068D01*
X82774752Y-98110227D01*
X82753769Y-98113523D01*
X82740427Y-98118189D01*
X82731739Y-98124457D01*
X82729550Y-98126733D01*
X82713386Y-98158280D01*
X82712203Y-98194168D01*
X82725464Y-98225285D01*
X82735957Y-98235271D01*
X82746871Y-98240769D01*
X82763783Y-98245022D01*
X82789367Y-98248180D01*
X82826299Y-98250392D01*
X82877254Y-98251806D01*
X82944906Y-98252572D01*
X83031931Y-98252838D01*
X83051606Y-98252845D01*
X83140089Y-98252787D01*
X83208773Y-98252467D01*
X83260436Y-98251667D01*
X83297855Y-98250167D01*
X83323810Y-98247749D01*
X83341078Y-98244194D01*
X83352438Y-98239282D01*
X83360668Y-98232795D01*
X83365183Y-98228138D01*
X83371979Y-98219889D01*
X83377288Y-98209669D01*
X83381294Y-98194800D01*
X83384179Y-98172602D01*
X83386126Y-98140393D01*
X83387319Y-98095496D01*
X83387939Y-98035228D01*
X83388171Y-97956911D01*
X83388200Y-97890994D01*
X83388129Y-97798628D01*
X83387792Y-97726117D01*
X83387002Y-97670737D01*
X83385574Y-97629765D01*
X83383321Y-97600478D01*
X83380057Y-97580153D01*
X83375596Y-97566066D01*
X83369752Y-97555495D01*
X83364803Y-97548811D01*
X83341406Y-97519067D01*
X83051226Y-97519067D01*
X82954657Y-97519260D01*
G36*
X82166691Y-97519275D02*
G01*
X82037712Y-97523636D01*
X81928009Y-97536861D01*
X81835774Y-97559741D01*
X81759198Y-97593070D01*
X81696473Y-97637638D01*
X81645788Y-97694236D01*
X81605337Y-97763658D01*
X81604541Y-97765351D01*
X81580399Y-97827483D01*
X81571797Y-97882509D01*
X81578769Y-97937887D01*
X81601346Y-98001073D01*
X81605628Y-98010689D01*
X81634828Y-98066966D01*
X81667644Y-98110451D01*
X81709998Y-98147417D01*
X81767810Y-98184135D01*
X81771169Y-98186052D01*
X81821496Y-98210227D01*
X81878379Y-98228282D01*
X81945473Y-98240839D01*
X82026435Y-98248522D01*
X82124918Y-98251953D01*
X82159714Y-98252251D01*
X82325406Y-98252845D01*
X82348803Y-98223100D01*
X82355743Y-98213319D01*
X82361158Y-98201897D01*
X82365235Y-98186095D01*
X82368163Y-98163175D01*
X82370133Y-98130396D01*
X82370775Y-98106089D01*
X82214156Y-98106089D01*
X82120274Y-98106089D01*
X82065336Y-98104483D01*
X82008940Y-98100255D01*
X81962655Y-98094292D01*
X81959861Y-98093790D01*
X81877652Y-98071736D01*
X81813886Y-98038600D01*
X81766548Y-97992847D01*
X81733618Y-97932939D01*
X81727892Y-97917061D01*
X81722279Y-97892333D01*
X81724709Y-97867902D01*
X81736533Y-97835400D01*
X81743660Y-97819434D01*
X81767000Y-97777006D01*
X81795120Y-97747240D01*
X81826060Y-97726511D01*
X81888034Y-97699537D01*
X81967349Y-97679998D01*
X82059747Y-97668746D01*
X82126667Y-97666270D01*
X82214156Y-97665822D01*
X82214156Y-98106089D01*
X82370775Y-98106089D01*
X82371332Y-98085021D01*
X82371950Y-98024311D01*
X82372175Y-97945526D01*
X82372200Y-97883920D01*
X82372200Y-97574485D01*
X82344491Y-97546776D01*
X82332194Y-97535544D01*
X82318897Y-97527853D01*
X82300328Y-97523040D01*
X82272214Y-97520446D01*
X82230283Y-97519410D01*
X82170263Y-97519270D01*
X82166691Y-97519275D01*
G37*
X82166691Y-97519275D02*
X82037712Y-97523636D01*
X81928009Y-97536861D01*
X81835774Y-97559741D01*
X81759198Y-97593070D01*
X81696473Y-97637638D01*
X81645788Y-97694236D01*
X81605337Y-97763658D01*
X81604541Y-97765351D01*
X81580399Y-97827483D01*
X81571797Y-97882509D01*
X81578769Y-97937887D01*
X81601346Y-98001073D01*
X81605628Y-98010689D01*
X81634828Y-98066966D01*
X81667644Y-98110451D01*
X81709998Y-98147417D01*
X81767810Y-98184135D01*
X81771169Y-98186052D01*
X81821496Y-98210227D01*
X81878379Y-98228282D01*
X81945473Y-98240839D01*
X82026435Y-98248522D01*
X82124918Y-98251953D01*
X82159714Y-98252251D01*
X82325406Y-98252845D01*
X82348803Y-98223100D01*
X82355743Y-98213319D01*
X82361158Y-98201897D01*
X82365235Y-98186095D01*
X82368163Y-98163175D01*
X82370133Y-98130396D01*
X82370775Y-98106089D01*
X82214156Y-98106089D01*
X82120274Y-98106089D01*
X82065336Y-98104483D01*
X82008940Y-98100255D01*
X81962655Y-98094292D01*
X81959861Y-98093790D01*
X81877652Y-98071736D01*
X81813886Y-98038600D01*
X81766548Y-97992847D01*
X81733618Y-97932939D01*
X81727892Y-97917061D01*
X81722279Y-97892333D01*
X81724709Y-97867902D01*
X81736533Y-97835400D01*
X81743660Y-97819434D01*
X81767000Y-97777006D01*
X81795120Y-97747240D01*
X81826060Y-97726511D01*
X81888034Y-97699537D01*
X81967349Y-97679998D01*
X82059747Y-97668746D01*
X82126667Y-97666270D01*
X82214156Y-97665822D01*
X82214156Y-98106089D01*
X82370775Y-98106089D01*
X82371332Y-98085021D01*
X82371950Y-98024311D01*
X82372175Y-97945526D01*
X82372200Y-97883920D01*
X82372200Y-97574485D01*
X82344491Y-97546776D01*
X82332194Y-97535544D01*
X82318897Y-97527853D01*
X82300328Y-97523040D01*
X82272214Y-97520446D01*
X82230283Y-97519410D01*
X82170263Y-97519270D01*
X82166691Y-97519275D01*
G36*
X79440335Y-97521034D02*
G01*
X79420745Y-97528035D01*
X79419990Y-97528377D01*
X79393387Y-97548678D01*
X79378730Y-97569561D01*
X79375862Y-97579352D01*
X79376004Y-97592361D01*
X79380039Y-97610895D01*
X79388854Y-97637257D01*
X79403331Y-97673752D01*
X79424355Y-97722687D01*
X79452812Y-97786365D01*
X79489585Y-97867093D01*
X79509825Y-97911216D01*
X79546375Y-97989985D01*
X79580685Y-98062423D01*
X79611448Y-98125880D01*
X79637352Y-98177708D01*
X79657090Y-98215259D01*
X79669350Y-98235884D01*
X79671776Y-98238733D01*
X79702817Y-98251302D01*
X79737879Y-98249619D01*
X79766000Y-98234332D01*
X79767146Y-98233089D01*
X79778332Y-98216154D01*
X79797096Y-98183170D01*
X79821125Y-98138380D01*
X79848103Y-98086032D01*
X79857799Y-98066742D01*
X79930986Y-97920150D01*
X80010760Y-98079393D01*
X80039233Y-98134415D01*
X80065650Y-98182132D01*
X80087852Y-98218893D01*
X80103681Y-98241044D01*
X80109046Y-98245741D01*
X80150743Y-98252102D01*
X80185151Y-98238733D01*
X80195272Y-98224446D01*
X80212786Y-98192692D01*
X80236265Y-98146597D01*
X80264280Y-98089285D01*
X80295401Y-98023880D01*
X80328201Y-97953507D01*
X80361250Y-97881291D01*
X80393119Y-97810355D01*
X80422381Y-97743825D01*
X80447605Y-97684826D01*
X80467364Y-97636481D01*
X80480228Y-97601915D01*
X80484769Y-97584253D01*
X80484723Y-97583613D01*
X80473674Y-97561388D01*
X80451590Y-97538753D01*
X80450290Y-97537768D01*
X80423147Y-97522425D01*
X80398042Y-97522574D01*
X80388632Y-97525466D01*
X80377166Y-97531718D01*
X80364990Y-97544014D01*
X80350643Y-97564908D01*
X80332664Y-97596949D01*
X80309593Y-97642688D01*
X80279970Y-97704677D01*
X80253255Y-97761898D01*
X80222520Y-97828226D01*
X80194979Y-97887874D01*
X80172062Y-97937725D01*
X80155202Y-97974664D01*
X80145827Y-97995573D01*
X80144460Y-97998845D01*
X80138311Y-97993497D01*
X80124178Y-97971109D01*
X80103943Y-97934946D01*
X80079485Y-97888277D01*
X80069752Y-97869022D01*
X80036783Y-97804004D01*
X80011357Y-97756654D01*
X79991388Y-97724219D01*
X79974790Y-97703946D01*
X79959476Y-97693082D01*
X79943360Y-97688875D01*
X79932857Y-97688400D01*
X79914330Y-97690042D01*
X79898096Y-97696831D01*
X79881965Y-97711566D01*
X79863749Y-97737044D01*
X79841261Y-97776061D01*
X79812311Y-97831414D01*
X79796338Y-97862903D01*
X79770430Y-97913087D01*
X79747833Y-97954704D01*
X79730542Y-97984242D01*
X79720550Y-97998189D01*
X79719191Y-97998770D01*
X79712739Y-97987793D01*
X79698292Y-97959290D01*
X79677297Y-97916244D01*
X79651203Y-97861638D01*
X79621454Y-97798454D01*
X79606820Y-97767071D01*
X79568750Y-97686078D01*
X79538095Y-97623756D01*
X79513263Y-97578071D01*
X79492663Y-97546989D01*
X79474702Y-97528478D01*
X79457790Y-97520504D01*
X79440335Y-97521034D01*
G37*
X79440335Y-97521034D02*
X79420745Y-97528035D01*
X79419990Y-97528377D01*
X79393387Y-97548678D01*
X79378730Y-97569561D01*
X79375862Y-97579352D01*
X79376004Y-97592361D01*
X79380039Y-97610895D01*
X79388854Y-97637257D01*
X79403331Y-97673752D01*
X79424355Y-97722687D01*
X79452812Y-97786365D01*
X79489585Y-97867093D01*
X79509825Y-97911216D01*
X79546375Y-97989985D01*
X79580685Y-98062423D01*
X79611448Y-98125880D01*
X79637352Y-98177708D01*
X79657090Y-98215259D01*
X79669350Y-98235884D01*
X79671776Y-98238733D01*
X79702817Y-98251302D01*
X79737879Y-98249619D01*
X79766000Y-98234332D01*
X79767146Y-98233089D01*
X79778332Y-98216154D01*
X79797096Y-98183170D01*
X79821125Y-98138380D01*
X79848103Y-98086032D01*
X79857799Y-98066742D01*
X79930986Y-97920150D01*
X80010760Y-98079393D01*
X80039233Y-98134415D01*
X80065650Y-98182132D01*
X80087852Y-98218893D01*
X80103681Y-98241044D01*
X80109046Y-98245741D01*
X80150743Y-98252102D01*
X80185151Y-98238733D01*
X80195272Y-98224446D01*
X80212786Y-98192692D01*
X80236265Y-98146597D01*
X80264280Y-98089285D01*
X80295401Y-98023880D01*
X80328201Y-97953507D01*
X80361250Y-97881291D01*
X80393119Y-97810355D01*
X80422381Y-97743825D01*
X80447605Y-97684826D01*
X80467364Y-97636481D01*
X80480228Y-97601915D01*
X80484769Y-97584253D01*
X80484723Y-97583613D01*
X80473674Y-97561388D01*
X80451590Y-97538753D01*
X80450290Y-97537768D01*
X80423147Y-97522425D01*
X80398042Y-97522574D01*
X80388632Y-97525466D01*
X80377166Y-97531718D01*
X80364990Y-97544014D01*
X80350643Y-97564908D01*
X80332664Y-97596949D01*
X80309593Y-97642688D01*
X80279970Y-97704677D01*
X80253255Y-97761898D01*
X80222520Y-97828226D01*
X80194979Y-97887874D01*
X80172062Y-97937725D01*
X80155202Y-97974664D01*
X80145827Y-97995573D01*
X80144460Y-97998845D01*
X80138311Y-97993497D01*
X80124178Y-97971109D01*
X80103943Y-97934946D01*
X80079485Y-97888277D01*
X80069752Y-97869022D01*
X80036783Y-97804004D01*
X80011357Y-97756654D01*
X79991388Y-97724219D01*
X79974790Y-97703946D01*
X79959476Y-97693082D01*
X79943360Y-97688875D01*
X79932857Y-97688400D01*
X79914330Y-97690042D01*
X79898096Y-97696831D01*
X79881965Y-97711566D01*
X79863749Y-97737044D01*
X79841261Y-97776061D01*
X79812311Y-97831414D01*
X79796338Y-97862903D01*
X79770430Y-97913087D01*
X79747833Y-97954704D01*
X79730542Y-97984242D01*
X79720550Y-97998189D01*
X79719191Y-97998770D01*
X79712739Y-97987793D01*
X79698292Y-97959290D01*
X79677297Y-97916244D01*
X79651203Y-97861638D01*
X79621454Y-97798454D01*
X79606820Y-97767071D01*
X79568750Y-97686078D01*
X79538095Y-97623756D01*
X79513263Y-97578071D01*
X79492663Y-97546989D01*
X79474702Y-97528478D01*
X79457790Y-97520504D01*
X79440335Y-97521034D01*
G36*
X78996386Y-97525877D02*
G01*
X78972673Y-97540647D01*
X78946022Y-97562227D01*
X78946022Y-97883773D01*
X78946107Y-97977830D01*
X78946471Y-98051932D01*
X78947276Y-98108704D01*
X78948687Y-98150768D01*
X78950867Y-98180748D01*
X78953979Y-98201267D01*
X78958186Y-98214949D01*
X78963652Y-98224416D01*
X78967528Y-98229082D01*
X78998966Y-98249575D01*
X79034767Y-98248739D01*
X79066127Y-98231264D01*
X79092778Y-98209684D01*
X79092778Y-97562227D01*
X79066127Y-97540647D01*
X79040406Y-97524949D01*
X79019400Y-97519067D01*
X78996386Y-97525877D01*
G37*
X78996386Y-97525877D02*
X78972673Y-97540647D01*
X78946022Y-97562227D01*
X78946022Y-97883773D01*
X78946107Y-97977830D01*
X78946471Y-98051932D01*
X78947276Y-98108704D01*
X78948687Y-98150768D01*
X78950867Y-98180748D01*
X78953979Y-98201267D01*
X78958186Y-98214949D01*
X78963652Y-98224416D01*
X78967528Y-98229082D01*
X78998966Y-98249575D01*
X79034767Y-98248739D01*
X79066127Y-98231264D01*
X79092778Y-98209684D01*
X79092778Y-97562227D01*
X79066127Y-97540647D01*
X79040406Y-97524949D01*
X79019400Y-97519067D01*
X78996386Y-97525877D01*
G36*
X78221935Y-97519163D02*
G01*
X78143228Y-97519542D01*
X78082137Y-97520333D01*
X78036183Y-97521670D01*
X78002886Y-97523683D01*
X77979764Y-97526506D01*
X77964338Y-97530269D01*
X77954129Y-97535105D01*
X77949187Y-97538822D01*
X77923543Y-97571358D01*
X77920441Y-97605138D01*
X77936289Y-97635826D01*
X77946652Y-97648089D01*
X77957804Y-97656450D01*
X77973965Y-97661657D01*
X77999358Y-97664457D01*
X78038202Y-97665596D01*
X78094720Y-97665821D01*
X78105820Y-97665822D01*
X78251756Y-97665822D01*
X78251756Y-97936756D01*
X78251852Y-98022154D01*
X78252289Y-98087864D01*
X78253288Y-98136774D01*
X78255072Y-98171773D01*
X78257863Y-98195749D01*
X78261883Y-98211593D01*
X78267355Y-98222191D01*
X78274334Y-98230267D01*
X78307266Y-98250112D01*
X78341646Y-98248548D01*
X78372824Y-98225906D01*
X78375114Y-98223100D01*
X78382571Y-98212492D01*
X78388253Y-98200081D01*
X78392399Y-98182850D01*
X78395250Y-98157784D01*
X78397046Y-98121867D01*
X78398028Y-98072083D01*
X78398436Y-98005417D01*
X78398511Y-97929589D01*
X78398511Y-97665822D01*
X78537873Y-97665822D01*
X78597678Y-97665418D01*
X78639082Y-97663840D01*
X78666252Y-97660547D01*
X78683354Y-97654992D01*
X78694557Y-97646631D01*
X78695917Y-97645178D01*
X78712275Y-97611939D01*
X78710828Y-97574362D01*
X78692022Y-97541645D01*
X78684750Y-97535298D01*
X78675373Y-97530266D01*
X78661391Y-97526396D01*
X78640304Y-97523537D01*
X78609611Y-97521535D01*
X78566811Y-97520239D01*
X78509405Y-97519498D01*
X78434890Y-97519158D01*
X78340767Y-97519068D01*
X78320740Y-97519067D01*
X78221935Y-97519163D01*
G37*
X78221935Y-97519163D02*
X78143228Y-97519542D01*
X78082137Y-97520333D01*
X78036183Y-97521670D01*
X78002886Y-97523683D01*
X77979764Y-97526506D01*
X77964338Y-97530269D01*
X77954129Y-97535105D01*
X77949187Y-97538822D01*
X77923543Y-97571358D01*
X77920441Y-97605138D01*
X77936289Y-97635826D01*
X77946652Y-97648089D01*
X77957804Y-97656450D01*
X77973965Y-97661657D01*
X77999358Y-97664457D01*
X78038202Y-97665596D01*
X78094720Y-97665821D01*
X78105820Y-97665822D01*
X78251756Y-97665822D01*
X78251756Y-97936756D01*
X78251852Y-98022154D01*
X78252289Y-98087864D01*
X78253288Y-98136774D01*
X78255072Y-98171773D01*
X78257863Y-98195749D01*
X78261883Y-98211593D01*
X78267355Y-98222191D01*
X78274334Y-98230267D01*
X78307266Y-98250112D01*
X78341646Y-98248548D01*
X78372824Y-98225906D01*
X78375114Y-98223100D01*
X78382571Y-98212492D01*
X78388253Y-98200081D01*
X78392399Y-98182850D01*
X78395250Y-98157784D01*
X78397046Y-98121867D01*
X78398028Y-98072083D01*
X78398436Y-98005417D01*
X78398511Y-97929589D01*
X78398511Y-97665822D01*
X78537873Y-97665822D01*
X78597678Y-97665418D01*
X78639082Y-97663840D01*
X78666252Y-97660547D01*
X78683354Y-97654992D01*
X78694557Y-97646631D01*
X78695917Y-97645178D01*
X78712275Y-97611939D01*
X78710828Y-97574362D01*
X78692022Y-97541645D01*
X78684750Y-97535298D01*
X78675373Y-97530266D01*
X78661391Y-97526396D01*
X78640304Y-97523537D01*
X78609611Y-97521535D01*
X78566811Y-97520239D01*
X78509405Y-97519498D01*
X78434890Y-97519158D01*
X78340767Y-97519068D01*
X78320740Y-97519067D01*
X78221935Y-97519163D01*
G36*
X76956177Y-97524533D02*
G01*
X76924798Y-97546776D01*
X76897089Y-97574485D01*
X76897089Y-97883920D01*
X76897162Y-97975799D01*
X76897505Y-98047840D01*
X76898308Y-98102780D01*
X76899759Y-98143360D01*
X76902048Y-98172317D01*
X76905364Y-98192391D01*
X76909895Y-98206321D01*
X76915831Y-98216845D01*
X76920486Y-98223100D01*
X76951217Y-98247673D01*
X76986504Y-98250341D01*
X77018755Y-98235271D01*
X77029412Y-98226374D01*
X77036536Y-98214557D01*
X77040833Y-98195526D01*
X77043009Y-98164992D01*
X77043772Y-98118662D01*
X77043845Y-98082871D01*
X77043845Y-97948045D01*
X77540556Y-97948045D01*
X77540556Y-98070700D01*
X77541069Y-98126787D01*
X77543124Y-98165333D01*
X77547492Y-98191361D01*
X77554944Y-98209897D01*
X77563953Y-98223100D01*
X77594856Y-98247604D01*
X77629804Y-98250506D01*
X77663262Y-98233089D01*
X77672396Y-98223959D01*
X77678848Y-98211855D01*
X77683103Y-98193001D01*
X77685648Y-98163620D01*
X77686971Y-98119937D01*
X77687557Y-98058175D01*
X77687625Y-98044000D01*
X77688109Y-97927631D01*
X77688359Y-97831727D01*
X77688277Y-97754177D01*
X77687769Y-97692869D01*
X77686738Y-97645690D01*
X77685087Y-97610530D01*
X77682721Y-97585276D01*
X77679543Y-97567817D01*
X77675456Y-97556041D01*
X77670366Y-97547835D01*
X77664734Y-97541645D01*
X77632872Y-97521844D01*
X77599643Y-97524533D01*
X77568265Y-97546776D01*
X77555567Y-97561126D01*
X77547474Y-97576978D01*
X77542958Y-97599554D01*
X77540994Y-97634078D01*
X77540556Y-97685776D01*
X77540556Y-97801289D01*
X77043845Y-97801289D01*
X77043845Y-97682756D01*
X77043338Y-97628148D01*
X77041302Y-97591275D01*
X77036965Y-97567307D01*
X77029553Y-97551415D01*
X77021267Y-97541645D01*
X76989406Y-97521844D01*
X76956177Y-97524533D01*
G37*
X76956177Y-97524533D02*
X76924798Y-97546776D01*
X76897089Y-97574485D01*
X76897089Y-97883920D01*
X76897162Y-97975799D01*
X76897505Y-98047840D01*
X76898308Y-98102780D01*
X76899759Y-98143360D01*
X76902048Y-98172317D01*
X76905364Y-98192391D01*
X76909895Y-98206321D01*
X76915831Y-98216845D01*
X76920486Y-98223100D01*
X76951217Y-98247673D01*
X76986504Y-98250341D01*
X77018755Y-98235271D01*
X77029412Y-98226374D01*
X77036536Y-98214557D01*
X77040833Y-98195526D01*
X77043009Y-98164992D01*
X77043772Y-98118662D01*
X77043845Y-98082871D01*
X77043845Y-97948045D01*
X77540556Y-97948045D01*
X77540556Y-98070700D01*
X77541069Y-98126787D01*
X77543124Y-98165333D01*
X77547492Y-98191361D01*
X77554944Y-98209897D01*
X77563953Y-98223100D01*
X77594856Y-98247604D01*
X77629804Y-98250506D01*
X77663262Y-98233089D01*
X77672396Y-98223959D01*
X77678848Y-98211855D01*
X77683103Y-98193001D01*
X77685648Y-98163620D01*
X77686971Y-98119937D01*
X77687557Y-98058175D01*
X77687625Y-98044000D01*
X77688109Y-97927631D01*
X77688359Y-97831727D01*
X77688277Y-97754177D01*
X77687769Y-97692869D01*
X77686738Y-97645690D01*
X77685087Y-97610530D01*
X77682721Y-97585276D01*
X77679543Y-97567817D01*
X77675456Y-97556041D01*
X77670366Y-97547835D01*
X77664734Y-97541645D01*
X77632872Y-97521844D01*
X77599643Y-97524533D01*
X77568265Y-97546776D01*
X77555567Y-97561126D01*
X77547474Y-97576978D01*
X77542958Y-97599554D01*
X77540994Y-97634078D01*
X77540556Y-97685776D01*
X77540556Y-97801289D01*
X77043845Y-97801289D01*
X77043845Y-97682756D01*
X77043338Y-97628148D01*
X77041302Y-97591275D01*
X77036965Y-97567307D01*
X77029553Y-97551415D01*
X77021267Y-97541645D01*
X76989406Y-97521844D01*
X76956177Y-97524533D01*
G36*
X86131400Y-92739054D02*
G01*
X86120535Y-92852993D01*
X86088918Y-92960616D01*
X86038015Y-93059615D01*
X85969293Y-93147684D01*
X85884219Y-93222516D01*
X85787232Y-93280384D01*
X85680964Y-93320005D01*
X85573950Y-93338573D01*
X85468300Y-93337434D01*
X85366125Y-93317930D01*
X85269534Y-93281406D01*
X85180638Y-93229205D01*
X85101546Y-93162673D01*
X85034369Y-93083152D01*
X84981217Y-92991987D01*
X84944199Y-92890523D01*
X84925427Y-92780102D01*
X84923489Y-92730206D01*
X84923489Y-92642267D01*
X84871560Y-92642267D01*
X84835253Y-92645111D01*
X84808355Y-92656911D01*
X84781249Y-92680649D01*
X84742867Y-92719031D01*
X84742867Y-94910602D01*
X84742876Y-95172739D01*
X84742908Y-95413241D01*
X84742972Y-95633048D01*
X84743076Y-95833101D01*
X84743227Y-96014344D01*
X84743434Y-96177716D01*
X84743706Y-96324160D01*
X84744050Y-96454617D01*
X84744474Y-96570029D01*
X84744987Y-96671338D01*
X84745597Y-96759484D01*
X84746312Y-96835410D01*
X84747140Y-96900057D01*
X84748089Y-96954367D01*
X84749167Y-96999280D01*
X84750383Y-97035740D01*
X84751745Y-97064687D01*
X84753261Y-97087063D01*
X84754938Y-97103809D01*
X84756786Y-97115868D01*
X84758813Y-97124180D01*
X84761025Y-97129687D01*
X84762108Y-97131537D01*
X84766271Y-97138549D01*
X84769805Y-97144996D01*
X84773635Y-97150900D01*
X84778682Y-97156286D01*
X84785871Y-97161178D01*
X84796123Y-97165598D01*
X84810364Y-97169572D01*
X84829514Y-97173121D01*
X84854499Y-97176270D01*
X84886240Y-97179042D01*
X84925662Y-97181461D01*
X84973686Y-97183551D01*
X85031237Y-97185335D01*
X85099237Y-97186837D01*
X85178610Y-97188080D01*
X85270279Y-97189089D01*
X85375166Y-97189885D01*
X85494196Y-97190494D01*
X85628290Y-97190939D01*
X85778373Y-97191243D01*
X85945367Y-97191430D01*
X86130196Y-97191524D01*
X86333783Y-97191548D01*
X86557050Y-97191525D01*
X86800922Y-97191480D01*
X87066321Y-97191437D01*
X87104704Y-97191432D01*
X87371682Y-97191389D01*
X87617002Y-97191318D01*
X87841583Y-97191213D01*
X88046345Y-97191066D01*
X88232206Y-97190869D01*
X88400088Y-97190616D01*
X88550908Y-97190300D01*
X88685587Y-97189913D01*
X88805044Y-97189447D01*
X88910199Y-97188897D01*
X89001971Y-97188253D01*
X89081279Y-97187511D01*
X89149043Y-97186661D01*
X89206182Y-97185697D01*
X89253617Y-97184611D01*
X89292266Y-97183397D01*
X89323049Y-97182047D01*
X89346885Y-97180555D01*
X89364694Y-97178911D01*
X89377395Y-97177111D01*
X89385908Y-97175145D01*
X89390266Y-97173477D01*
X89398728Y-97169906D01*
X89406497Y-97167270D01*
X89413602Y-97164634D01*
X89420073Y-97161062D01*
X89425939Y-97155621D01*
X89431229Y-97147375D01*
X89435974Y-97135390D01*
X89440202Y-97118731D01*
X89443943Y-97096463D01*
X89447227Y-97067652D01*
X89450083Y-97031363D01*
X89452540Y-96986661D01*
X89454629Y-96932611D01*
X89456378Y-96868279D01*
X89457817Y-96792730D01*
X89458976Y-96705030D01*
X89459883Y-96604243D01*
X89460569Y-96489434D01*
X89461063Y-96359670D01*
X89461395Y-96214015D01*
X89461593Y-96051535D01*
X89461687Y-95871295D01*
X89461708Y-95672360D01*
X89461685Y-95453796D01*
X89461646Y-95214668D01*
X89461622Y-94954040D01*
X89461622Y-94911889D01*
X89461636Y-94648992D01*
X89461661Y-94407732D01*
X89461671Y-94187165D01*
X89461642Y-93986352D01*
X89461548Y-93804349D01*
X89461362Y-93640216D01*
X89461059Y-93493011D01*
X89460614Y-93361792D01*
X89460034Y-93251867D01*
X89157197Y-93251867D01*
X89117407Y-93309711D01*
X89106236Y-93325479D01*
X89096166Y-93339441D01*
X89087138Y-93352784D01*
X89079097Y-93366693D01*
X89071986Y-93382356D01*
X89065747Y-93400958D01*
X89060325Y-93423686D01*
X89055662Y-93451727D01*
X89051701Y-93486267D01*
X89048385Y-93528492D01*
X89045659Y-93579589D01*
X89043464Y-93640744D01*
X89041745Y-93713144D01*
X89040444Y-93797975D01*
X89039505Y-93896422D01*
X89038870Y-94009674D01*
X89038484Y-94138916D01*
X89038288Y-94285334D01*
X89038227Y-94450116D01*
X89038243Y-94634447D01*
X89038280Y-94839513D01*
X89038289Y-94962133D01*
X89038265Y-95179082D01*
X89038231Y-95374642D01*
X89038243Y-95549999D01*
X89038358Y-95706341D01*
X89038630Y-95844857D01*
X89039118Y-95966734D01*
X89039876Y-96073160D01*
X89040962Y-96165322D01*
X89042431Y-96244409D01*
X89044340Y-96311608D01*
X89046744Y-96368107D01*
X89049701Y-96415093D01*
X89053266Y-96453755D01*
X89057495Y-96485280D01*
X89062446Y-96510855D01*
X89068173Y-96531670D01*
X89074733Y-96548911D01*
X89082183Y-96563765D01*
X89090579Y-96577422D01*
X89099976Y-96591069D01*
X89110432Y-96605893D01*
X89116523Y-96614783D01*
X89155296Y-96672400D01*
X88623732Y-96672400D01*
X88500483Y-96672365D01*
X88397987Y-96672215D01*
X88314420Y-96671878D01*
X88247956Y-96671286D01*
X88196771Y-96670367D01*
X88159041Y-96669051D01*
X88132940Y-96667269D01*
X88116644Y-96664951D01*
X88108328Y-96662026D01*
X88106168Y-96658424D01*
X88108339Y-96654075D01*
X88109535Y-96652645D01*
X88134685Y-96615573D01*
X88160583Y-96562772D01*
X88184192Y-96500770D01*
X88192461Y-96474357D01*
X88197078Y-96456416D01*
X88200979Y-96435355D01*
X88204248Y-96409089D01*
X88206966Y-96375532D01*
X88209215Y-96332599D01*
X88211077Y-96278204D01*
X88212636Y-96210262D01*
X88213972Y-96126688D01*
X88215169Y-96025395D01*
X88216308Y-95904300D01*
X88216685Y-95859600D01*
X88217702Y-95734449D01*
X88218460Y-95630082D01*
X88218903Y-95544707D01*
X88218970Y-95476533D01*
X88218605Y-95423765D01*
X88217748Y-95384614D01*
X88216341Y-95357285D01*
X88214325Y-95339986D01*
X88211643Y-95330926D01*
X88208236Y-95328312D01*
X88204044Y-95330351D01*
X88199571Y-95334667D01*
X88189216Y-95347602D01*
X88167158Y-95376676D01*
X88134957Y-95419759D01*
X88094174Y-95474718D01*
X88046370Y-95539423D01*
X87993105Y-95611742D01*
X87935940Y-95689544D01*
X87876437Y-95770698D01*
X87816155Y-95853072D01*
X87756655Y-95934536D01*
X87699498Y-96012957D01*
X87646245Y-96086204D01*
X87598457Y-96152147D01*
X87557693Y-96208654D01*
X87525516Y-96253593D01*
X87503485Y-96284834D01*
X87498917Y-96291466D01*
X87475996Y-96328369D01*
X87449188Y-96376359D01*
X87423789Y-96425897D01*
X87420568Y-96432577D01*
X87398890Y-96480772D01*
X87386304Y-96518334D01*
X87380574Y-96554160D01*
X87379456Y-96596200D01*
X87380090Y-96672400D01*
X86225651Y-96672400D01*
X86316815Y-96578669D01*
X86363612Y-96528775D01*
X86413899Y-96472295D01*
X86459944Y-96418026D01*
X86480369Y-96392673D01*
X86510807Y-96353128D01*
X86550862Y-96299916D01*
X86599361Y-96234667D01*
X86655135Y-96159011D01*
X86717011Y-96074577D01*
X86783819Y-95982994D01*
X86854387Y-95885892D01*
X86927545Y-95784901D01*
X87002121Y-95681650D01*
X87076944Y-95577768D01*
X87150843Y-95474885D01*
X87222646Y-95374631D01*
X87291184Y-95278636D01*
X87355284Y-95188527D01*
X87413775Y-95105936D01*
X87465486Y-95032492D01*
X87509247Y-94969824D01*
X87543885Y-94919561D01*
X87568230Y-94883334D01*
X87581111Y-94862771D01*
X87582869Y-94858668D01*
X87574910Y-94847342D01*
X87554115Y-94820162D01*
X87521847Y-94778829D01*
X87479470Y-94725044D01*
X87428347Y-94660506D01*
X87369841Y-94586918D01*
X87305314Y-94505978D01*
X87236131Y-94419388D01*
X87163653Y-94328848D01*
X87089246Y-94236060D01*
X87029517Y-94161702D01*
X86018511Y-94161702D01*
X86012602Y-94174659D01*
X85998272Y-94196908D01*
X85997225Y-94198391D01*
X85978438Y-94228544D01*
X85958791Y-94265375D01*
X85954892Y-94273511D01*
X85951356Y-94281940D01*
X85948230Y-94292059D01*
X85945486Y-94305260D01*
X85943092Y-94322938D01*
X85941019Y-94346484D01*
X85939235Y-94377293D01*
X85937712Y-94416757D01*
X85936419Y-94466269D01*
X85935326Y-94527223D01*
X85934403Y-94601011D01*
X85933619Y-94689028D01*
X85932945Y-94792665D01*
X85932350Y-94913316D01*
X85931805Y-95052374D01*
X85931279Y-95211232D01*
X85930745Y-95390089D01*
X85930206Y-95575207D01*
X85929772Y-95739145D01*
X85929509Y-95883303D01*
X85929484Y-96009079D01*
X85929765Y-96117871D01*
X85930419Y-96211077D01*
X85931514Y-96290097D01*
X85933118Y-96356328D01*
X85935297Y-96411170D01*
X85938119Y-96456021D01*
X85941651Y-96492278D01*
X85945961Y-96521341D01*
X85951117Y-96544609D01*
X85957185Y-96563479D01*
X85964233Y-96579351D01*
X85972329Y-96593622D01*
X85981540Y-96607691D01*
X85990040Y-96620158D01*
X86007176Y-96646452D01*
X86017322Y-96664037D01*
X86018511Y-96667257D01*
X86007604Y-96668334D01*
X85976411Y-96669335D01*
X85927223Y-96670235D01*
X85862333Y-96671010D01*
X85784030Y-96671637D01*
X85694607Y-96672091D01*
X85596356Y-96672349D01*
X85527445Y-96672400D01*
X85422452Y-96672180D01*
X85325610Y-96671548D01*
X85239107Y-96670549D01*
X85165132Y-96669227D01*
X85105874Y-96667626D01*
X85063520Y-96665791D01*
X85040260Y-96663765D01*
X85036378Y-96662493D01*
X85044076Y-96647591D01*
X85052074Y-96639560D01*
X85065246Y-96622434D01*
X85082485Y-96592183D01*
X85094407Y-96567622D01*
X85121045Y-96508711D01*
X85124120Y-95331845D01*
X85127195Y-94154978D01*
X85572853Y-94154978D01*
X85670670Y-94155142D01*
X85761064Y-94155611D01*
X85841630Y-94156347D01*
X85909962Y-94157316D01*
X85963656Y-94158480D01*
X86000305Y-94159803D01*
X86017504Y-94161249D01*
X86018511Y-94161702D01*
X87029517Y-94161702D01*
X87014270Y-94142722D01*
X86940090Y-94050537D01*
X86868069Y-93961204D01*
X86799569Y-93876424D01*
X86735955Y-93797898D01*
X86678588Y-93727326D01*
X86628833Y-93666409D01*
X86588052Y-93616847D01*
X86570888Y-93596178D01*
X86484596Y-93495516D01*
X86407997Y-93412259D01*
X86339183Y-93344438D01*
X86276248Y-93290089D01*
X86266867Y-93282722D01*
X86227356Y-93252117D01*
X87359116Y-93251867D01*
X87353827Y-93299844D01*
X87357130Y-93357188D01*
X87378661Y-93425463D01*
X87418635Y-93505212D01*
X87463943Y-93577495D01*
X87480161Y-93600140D01*
X87508214Y-93637696D01*
X87546430Y-93688021D01*
X87593137Y-93748973D01*
X87646661Y-93818411D01*
X87705331Y-93894194D01*
X87767475Y-93974180D01*
X87831421Y-94056228D01*
X87895495Y-94138196D01*
X87958027Y-94217943D01*
X88017343Y-94293327D01*
X88071771Y-94362207D01*
X88119639Y-94422442D01*
X88159275Y-94471889D01*
X88189006Y-94508408D01*
X88207161Y-94529858D01*
X88210220Y-94533156D01*
X88213079Y-94525149D01*
X88215293Y-94494855D01*
X88216857Y-94442556D01*
X88217767Y-94368531D01*
X88218020Y-94273063D01*
X88217613Y-94156434D01*
X88216704Y-94036445D01*
X88215382Y-93904333D01*
X88213857Y-93792594D01*
X88211881Y-93699025D01*
X88209206Y-93621419D01*
X88205582Y-93557574D01*
X88200761Y-93505283D01*
X88194494Y-93462344D01*
X88186532Y-93426551D01*
X88176627Y-93395700D01*
X88164531Y-93367586D01*
X88149993Y-93340005D01*
X88135311Y-93314966D01*
X88097314Y-93251867D01*
X89157197Y-93251867D01*
X89460034Y-93251867D01*
X89460001Y-93245617D01*
X89459195Y-93143544D01*
X89458170Y-93054633D01*
X89456900Y-92977941D01*
X89455360Y-92912527D01*
X89453524Y-92857449D01*
X89451367Y-92811765D01*
X89448863Y-92774534D01*
X89445987Y-92744813D01*
X89442713Y-92721662D01*
X89439015Y-92704139D01*
X89434869Y-92691301D01*
X89430247Y-92682208D01*
X89425126Y-92675918D01*
X89419478Y-92671488D01*
X89413279Y-92667978D01*
X89406504Y-92664445D01*
X89400508Y-92660876D01*
X89395275Y-92658300D01*
X89387099Y-92655972D01*
X89374886Y-92653878D01*
X89357541Y-92652007D01*
X89333969Y-92650347D01*
X89303077Y-92648884D01*
X89263768Y-92647608D01*
X89214950Y-92646504D01*
X89155527Y-92645561D01*
X89084404Y-92644767D01*
X89000488Y-92644109D01*
X88902683Y-92643575D01*
X88789894Y-92643153D01*
X88661029Y-92642829D01*
X88514991Y-92642592D01*
X88350686Y-92642430D01*
X88167020Y-92642330D01*
X87962897Y-92642280D01*
X87751753Y-92642267D01*
X86131400Y-92642267D01*
X86131400Y-92739054D01*
G37*
X86131400Y-92739054D02*
X86120535Y-92852993D01*
X86088918Y-92960616D01*
X86038015Y-93059615D01*
X85969293Y-93147684D01*
X85884219Y-93222516D01*
X85787232Y-93280384D01*
X85680964Y-93320005D01*
X85573950Y-93338573D01*
X85468300Y-93337434D01*
X85366125Y-93317930D01*
X85269534Y-93281406D01*
X85180638Y-93229205D01*
X85101546Y-93162673D01*
X85034369Y-93083152D01*
X84981217Y-92991987D01*
X84944199Y-92890523D01*
X84925427Y-92780102D01*
X84923489Y-92730206D01*
X84923489Y-92642267D01*
X84871560Y-92642267D01*
X84835253Y-92645111D01*
X84808355Y-92656911D01*
X84781249Y-92680649D01*
X84742867Y-92719031D01*
X84742867Y-94910602D01*
X84742876Y-95172739D01*
X84742908Y-95413241D01*
X84742972Y-95633048D01*
X84743076Y-95833101D01*
X84743227Y-96014344D01*
X84743434Y-96177716D01*
X84743706Y-96324160D01*
X84744050Y-96454617D01*
X84744474Y-96570029D01*
X84744987Y-96671338D01*
X84745597Y-96759484D01*
X84746312Y-96835410D01*
X84747140Y-96900057D01*
X84748089Y-96954367D01*
X84749167Y-96999280D01*
X84750383Y-97035740D01*
X84751745Y-97064687D01*
X84753261Y-97087063D01*
X84754938Y-97103809D01*
X84756786Y-97115868D01*
X84758813Y-97124180D01*
X84761025Y-97129687D01*
X84762108Y-97131537D01*
X84766271Y-97138549D01*
X84769805Y-97144996D01*
X84773635Y-97150900D01*
X84778682Y-97156286D01*
X84785871Y-97161178D01*
X84796123Y-97165598D01*
X84810364Y-97169572D01*
X84829514Y-97173121D01*
X84854499Y-97176270D01*
X84886240Y-97179042D01*
X84925662Y-97181461D01*
X84973686Y-97183551D01*
X85031237Y-97185335D01*
X85099237Y-97186837D01*
X85178610Y-97188080D01*
X85270279Y-97189089D01*
X85375166Y-97189885D01*
X85494196Y-97190494D01*
X85628290Y-97190939D01*
X85778373Y-97191243D01*
X85945367Y-97191430D01*
X86130196Y-97191524D01*
X86333783Y-97191548D01*
X86557050Y-97191525D01*
X86800922Y-97191480D01*
X87066321Y-97191437D01*
X87104704Y-97191432D01*
X87371682Y-97191389D01*
X87617002Y-97191318D01*
X87841583Y-97191213D01*
X88046345Y-97191066D01*
X88232206Y-97190869D01*
X88400088Y-97190616D01*
X88550908Y-97190300D01*
X88685587Y-97189913D01*
X88805044Y-97189447D01*
X88910199Y-97188897D01*
X89001971Y-97188253D01*
X89081279Y-97187511D01*
X89149043Y-97186661D01*
X89206182Y-97185697D01*
X89253617Y-97184611D01*
X89292266Y-97183397D01*
X89323049Y-97182047D01*
X89346885Y-97180555D01*
X89364694Y-97178911D01*
X89377395Y-97177111D01*
X89385908Y-97175145D01*
X89390266Y-97173477D01*
X89398728Y-97169906D01*
X89406497Y-97167270D01*
X89413602Y-97164634D01*
X89420073Y-97161062D01*
X89425939Y-97155621D01*
X89431229Y-97147375D01*
X89435974Y-97135390D01*
X89440202Y-97118731D01*
X89443943Y-97096463D01*
X89447227Y-97067652D01*
X89450083Y-97031363D01*
X89452540Y-96986661D01*
X89454629Y-96932611D01*
X89456378Y-96868279D01*
X89457817Y-96792730D01*
X89458976Y-96705030D01*
X89459883Y-96604243D01*
X89460569Y-96489434D01*
X89461063Y-96359670D01*
X89461395Y-96214015D01*
X89461593Y-96051535D01*
X89461687Y-95871295D01*
X89461708Y-95672360D01*
X89461685Y-95453796D01*
X89461646Y-95214668D01*
X89461622Y-94954040D01*
X89461622Y-94911889D01*
X89461636Y-94648992D01*
X89461661Y-94407732D01*
X89461671Y-94187165D01*
X89461642Y-93986352D01*
X89461548Y-93804349D01*
X89461362Y-93640216D01*
X89461059Y-93493011D01*
X89460614Y-93361792D01*
X89460034Y-93251867D01*
X89157197Y-93251867D01*
X89117407Y-93309711D01*
X89106236Y-93325479D01*
X89096166Y-93339441D01*
X89087138Y-93352784D01*
X89079097Y-93366693D01*
X89071986Y-93382356D01*
X89065747Y-93400958D01*
X89060325Y-93423686D01*
X89055662Y-93451727D01*
X89051701Y-93486267D01*
X89048385Y-93528492D01*
X89045659Y-93579589D01*
X89043464Y-93640744D01*
X89041745Y-93713144D01*
X89040444Y-93797975D01*
X89039505Y-93896422D01*
X89038870Y-94009674D01*
X89038484Y-94138916D01*
X89038288Y-94285334D01*
X89038227Y-94450116D01*
X89038243Y-94634447D01*
X89038280Y-94839513D01*
X89038289Y-94962133D01*
X89038265Y-95179082D01*
X89038231Y-95374642D01*
X89038243Y-95549999D01*
X89038358Y-95706341D01*
X89038630Y-95844857D01*
X89039118Y-95966734D01*
X89039876Y-96073160D01*
X89040962Y-96165322D01*
X89042431Y-96244409D01*
X89044340Y-96311608D01*
X89046744Y-96368107D01*
X89049701Y-96415093D01*
X89053266Y-96453755D01*
X89057495Y-96485280D01*
X89062446Y-96510855D01*
X89068173Y-96531670D01*
X89074733Y-96548911D01*
X89082183Y-96563765D01*
X89090579Y-96577422D01*
X89099976Y-96591069D01*
X89110432Y-96605893D01*
X89116523Y-96614783D01*
X89155296Y-96672400D01*
X88623732Y-96672400D01*
X88500483Y-96672365D01*
X88397987Y-96672215D01*
X88314420Y-96671878D01*
X88247956Y-96671286D01*
X88196771Y-96670367D01*
X88159041Y-96669051D01*
X88132940Y-96667269D01*
X88116644Y-96664951D01*
X88108328Y-96662026D01*
X88106168Y-96658424D01*
X88108339Y-96654075D01*
X88109535Y-96652645D01*
X88134685Y-96615573D01*
X88160583Y-96562772D01*
X88184192Y-96500770D01*
X88192461Y-96474357D01*
X88197078Y-96456416D01*
X88200979Y-96435355D01*
X88204248Y-96409089D01*
X88206966Y-96375532D01*
X88209215Y-96332599D01*
X88211077Y-96278204D01*
X88212636Y-96210262D01*
X88213972Y-96126688D01*
X88215169Y-96025395D01*
X88216308Y-95904300D01*
X88216685Y-95859600D01*
X88217702Y-95734449D01*
X88218460Y-95630082D01*
X88218903Y-95544707D01*
X88218970Y-95476533D01*
X88218605Y-95423765D01*
X88217748Y-95384614D01*
X88216341Y-95357285D01*
X88214325Y-95339986D01*
X88211643Y-95330926D01*
X88208236Y-95328312D01*
X88204044Y-95330351D01*
X88199571Y-95334667D01*
X88189216Y-95347602D01*
X88167158Y-95376676D01*
X88134957Y-95419759D01*
X88094174Y-95474718D01*
X88046370Y-95539423D01*
X87993105Y-95611742D01*
X87935940Y-95689544D01*
X87876437Y-95770698D01*
X87816155Y-95853072D01*
X87756655Y-95934536D01*
X87699498Y-96012957D01*
X87646245Y-96086204D01*
X87598457Y-96152147D01*
X87557693Y-96208654D01*
X87525516Y-96253593D01*
X87503485Y-96284834D01*
X87498917Y-96291466D01*
X87475996Y-96328369D01*
X87449188Y-96376359D01*
X87423789Y-96425897D01*
X87420568Y-96432577D01*
X87398890Y-96480772D01*
X87386304Y-96518334D01*
X87380574Y-96554160D01*
X87379456Y-96596200D01*
X87380090Y-96672400D01*
X86225651Y-96672400D01*
X86316815Y-96578669D01*
X86363612Y-96528775D01*
X86413899Y-96472295D01*
X86459944Y-96418026D01*
X86480369Y-96392673D01*
X86510807Y-96353128D01*
X86550862Y-96299916D01*
X86599361Y-96234667D01*
X86655135Y-96159011D01*
X86717011Y-96074577D01*
X86783819Y-95982994D01*
X86854387Y-95885892D01*
X86927545Y-95784901D01*
X87002121Y-95681650D01*
X87076944Y-95577768D01*
X87150843Y-95474885D01*
X87222646Y-95374631D01*
X87291184Y-95278636D01*
X87355284Y-95188527D01*
X87413775Y-95105936D01*
X87465486Y-95032492D01*
X87509247Y-94969824D01*
X87543885Y-94919561D01*
X87568230Y-94883334D01*
X87581111Y-94862771D01*
X87582869Y-94858668D01*
X87574910Y-94847342D01*
X87554115Y-94820162D01*
X87521847Y-94778829D01*
X87479470Y-94725044D01*
X87428347Y-94660506D01*
X87369841Y-94586918D01*
X87305314Y-94505978D01*
X87236131Y-94419388D01*
X87163653Y-94328848D01*
X87089246Y-94236060D01*
X87029517Y-94161702D01*
X86018511Y-94161702D01*
X86012602Y-94174659D01*
X85998272Y-94196908D01*
X85997225Y-94198391D01*
X85978438Y-94228544D01*
X85958791Y-94265375D01*
X85954892Y-94273511D01*
X85951356Y-94281940D01*
X85948230Y-94292059D01*
X85945486Y-94305260D01*
X85943092Y-94322938D01*
X85941019Y-94346484D01*
X85939235Y-94377293D01*
X85937712Y-94416757D01*
X85936419Y-94466269D01*
X85935326Y-94527223D01*
X85934403Y-94601011D01*
X85933619Y-94689028D01*
X85932945Y-94792665D01*
X85932350Y-94913316D01*
X85931805Y-95052374D01*
X85931279Y-95211232D01*
X85930745Y-95390089D01*
X85930206Y-95575207D01*
X85929772Y-95739145D01*
X85929509Y-95883303D01*
X85929484Y-96009079D01*
X85929765Y-96117871D01*
X85930419Y-96211077D01*
X85931514Y-96290097D01*
X85933118Y-96356328D01*
X85935297Y-96411170D01*
X85938119Y-96456021D01*
X85941651Y-96492278D01*
X85945961Y-96521341D01*
X85951117Y-96544609D01*
X85957185Y-96563479D01*
X85964233Y-96579351D01*
X85972329Y-96593622D01*
X85981540Y-96607691D01*
X85990040Y-96620158D01*
X86007176Y-96646452D01*
X86017322Y-96664037D01*
X86018511Y-96667257D01*
X86007604Y-96668334D01*
X85976411Y-96669335D01*
X85927223Y-96670235D01*
X85862333Y-96671010D01*
X85784030Y-96671637D01*
X85694607Y-96672091D01*
X85596356Y-96672349D01*
X85527445Y-96672400D01*
X85422452Y-96672180D01*
X85325610Y-96671548D01*
X85239107Y-96670549D01*
X85165132Y-96669227D01*
X85105874Y-96667626D01*
X85063520Y-96665791D01*
X85040260Y-96663765D01*
X85036378Y-96662493D01*
X85044076Y-96647591D01*
X85052074Y-96639560D01*
X85065246Y-96622434D01*
X85082485Y-96592183D01*
X85094407Y-96567622D01*
X85121045Y-96508711D01*
X85124120Y-95331845D01*
X85127195Y-94154978D01*
X85572853Y-94154978D01*
X85670670Y-94155142D01*
X85761064Y-94155611D01*
X85841630Y-94156347D01*
X85909962Y-94157316D01*
X85963656Y-94158480D01*
X86000305Y-94159803D01*
X86017504Y-94161249D01*
X86018511Y-94161702D01*
X87029517Y-94161702D01*
X87014270Y-94142722D01*
X86940090Y-94050537D01*
X86868069Y-93961204D01*
X86799569Y-93876424D01*
X86735955Y-93797898D01*
X86678588Y-93727326D01*
X86628833Y-93666409D01*
X86588052Y-93616847D01*
X86570888Y-93596178D01*
X86484596Y-93495516D01*
X86407997Y-93412259D01*
X86339183Y-93344438D01*
X86276248Y-93290089D01*
X86266867Y-93282722D01*
X86227356Y-93252117D01*
X87359116Y-93251867D01*
X87353827Y-93299844D01*
X87357130Y-93357188D01*
X87378661Y-93425463D01*
X87418635Y-93505212D01*
X87463943Y-93577495D01*
X87480161Y-93600140D01*
X87508214Y-93637696D01*
X87546430Y-93688021D01*
X87593137Y-93748973D01*
X87646661Y-93818411D01*
X87705331Y-93894194D01*
X87767475Y-93974180D01*
X87831421Y-94056228D01*
X87895495Y-94138196D01*
X87958027Y-94217943D01*
X88017343Y-94293327D01*
X88071771Y-94362207D01*
X88119639Y-94422442D01*
X88159275Y-94471889D01*
X88189006Y-94508408D01*
X88207161Y-94529858D01*
X88210220Y-94533156D01*
X88213079Y-94525149D01*
X88215293Y-94494855D01*
X88216857Y-94442556D01*
X88217767Y-94368531D01*
X88218020Y-94273063D01*
X88217613Y-94156434D01*
X88216704Y-94036445D01*
X88215382Y-93904333D01*
X88213857Y-93792594D01*
X88211881Y-93699025D01*
X88209206Y-93621419D01*
X88205582Y-93557574D01*
X88200761Y-93505283D01*
X88194494Y-93462344D01*
X88186532Y-93426551D01*
X88176627Y-93395700D01*
X88164531Y-93367586D01*
X88149993Y-93340005D01*
X88135311Y-93314966D01*
X88097314Y-93251867D01*
X89157197Y-93251867D01*
X89460034Y-93251867D01*
X89460001Y-93245617D01*
X89459195Y-93143544D01*
X89458170Y-93054633D01*
X89456900Y-92977941D01*
X89455360Y-92912527D01*
X89453524Y-92857449D01*
X89451367Y-92811765D01*
X89448863Y-92774534D01*
X89445987Y-92744813D01*
X89442713Y-92721662D01*
X89439015Y-92704139D01*
X89434869Y-92691301D01*
X89430247Y-92682208D01*
X89425126Y-92675918D01*
X89419478Y-92671488D01*
X89413279Y-92667978D01*
X89406504Y-92664445D01*
X89400508Y-92660876D01*
X89395275Y-92658300D01*
X89387099Y-92655972D01*
X89374886Y-92653878D01*
X89357541Y-92652007D01*
X89333969Y-92650347D01*
X89303077Y-92648884D01*
X89263768Y-92647608D01*
X89214950Y-92646504D01*
X89155527Y-92645561D01*
X89084404Y-92644767D01*
X89000488Y-92644109D01*
X88902683Y-92643575D01*
X88789894Y-92643153D01*
X88661029Y-92642829D01*
X88514991Y-92642592D01*
X88350686Y-92642430D01*
X88167020Y-92642330D01*
X87962897Y-92642280D01*
X87751753Y-92642267D01*
X86131400Y-92642267D01*
X86131400Y-92739054D01*
G36*
X82856571Y-93199071D02*
G01*
X82696430Y-93220245D01*
X82532490Y-93260385D01*
X82362687Y-93319889D01*
X82184957Y-93399154D01*
X82173690Y-93404699D01*
X82115995Y-93432725D01*
X82064448Y-93456802D01*
X82022809Y-93475249D01*
X81994838Y-93486386D01*
X81985267Y-93488933D01*
X81966050Y-93493941D01*
X81961439Y-93498147D01*
X81966542Y-93508580D01*
X81982582Y-93534868D01*
X82007712Y-93574257D01*
X82040086Y-93623991D01*
X82077857Y-93681315D01*
X82119178Y-93743476D01*
X82162202Y-93807718D01*
X82205083Y-93871285D01*
X82245974Y-93931425D01*
X82283029Y-93985380D01*
X82314400Y-94030397D01*
X82338241Y-94063721D01*
X82352706Y-94082597D01*
X82354691Y-94084787D01*
X82364809Y-94080138D01*
X82387150Y-94062962D01*
X82417720Y-94036440D01*
X82433464Y-94021964D01*
X82529953Y-93946682D01*
X82636664Y-93891241D01*
X82752168Y-93856141D01*
X82875038Y-93841880D01*
X82944439Y-93843051D01*
X83065577Y-93860212D01*
X83174795Y-93896094D01*
X83272418Y-93950959D01*
X83358772Y-94025070D01*
X83434185Y-94118688D01*
X83498982Y-94232076D01*
X83536399Y-94318667D01*
X83580252Y-94454366D01*
X83612572Y-94601850D01*
X83633443Y-94757314D01*
X83642949Y-94916956D01*
X83641173Y-95076973D01*
X83628197Y-95233561D01*
X83604106Y-95382918D01*
X83568982Y-95521240D01*
X83522908Y-95644724D01*
X83506627Y-95678978D01*
X83438380Y-95793064D01*
X83357921Y-95889557D01*
X83266430Y-95967670D01*
X83165089Y-96026617D01*
X83055080Y-96065612D01*
X82937585Y-96083868D01*
X82896117Y-96085211D01*
X82774559Y-96074290D01*
X82654122Y-96041474D01*
X82536334Y-95987439D01*
X82422723Y-95912865D01*
X82331315Y-95834539D01*
X82284785Y-95790008D01*
X82103517Y-96087271D01*
X82058420Y-96161433D01*
X82017181Y-96229646D01*
X81981265Y-96289459D01*
X81952134Y-96338420D01*
X81931250Y-96374079D01*
X81920076Y-96393984D01*
X81918625Y-96397079D01*
X81926854Y-96406718D01*
X81952433Y-96423999D01*
X81992127Y-96447283D01*
X82042703Y-96474934D01*
X82100926Y-96505315D01*
X82163563Y-96536790D01*
X82227379Y-96567722D01*
X82289140Y-96596473D01*
X82345612Y-96621408D01*
X82393562Y-96640889D01*
X82417014Y-96649318D01*
X82550779Y-96687133D01*
X82688673Y-96712136D01*
X82836378Y-96725140D01*
X82963167Y-96727468D01*
X83031122Y-96726373D01*
X83096723Y-96724275D01*
X83154153Y-96721434D01*
X83197597Y-96718106D01*
X83211702Y-96716422D01*
X83350716Y-96687587D01*
X83492243Y-96642468D01*
X83629725Y-96583750D01*
X83756606Y-96514120D01*
X83834111Y-96461441D01*
X83961519Y-96353239D01*
X84079822Y-96226671D01*
X84186828Y-96084866D01*
X84280348Y-95930951D01*
X84358190Y-95768053D01*
X84402044Y-95650756D01*
X84452292Y-95467128D01*
X84485791Y-95272581D01*
X84502551Y-95071325D01*
X84502584Y-94867568D01*
X84485899Y-94665521D01*
X84452507Y-94469392D01*
X84402420Y-94283391D01*
X84398603Y-94271803D01*
X84335719Y-94109750D01*
X84258972Y-93961832D01*
X84165758Y-93823865D01*
X84053473Y-93691661D01*
X84009608Y-93646399D01*
X83873466Y-93522457D01*
X83733509Y-93419915D01*
X83587589Y-93337656D01*
X83433558Y-93274564D01*
X83269268Y-93229523D01*
X83173711Y-93212033D01*
X83014977Y-93196466D01*
X82856571Y-93199071D01*
G37*
X82856571Y-93199071D02*
X82696430Y-93220245D01*
X82532490Y-93260385D01*
X82362687Y-93319889D01*
X82184957Y-93399154D01*
X82173690Y-93404699D01*
X82115995Y-93432725D01*
X82064448Y-93456802D01*
X82022809Y-93475249D01*
X81994838Y-93486386D01*
X81985267Y-93488933D01*
X81966050Y-93493941D01*
X81961439Y-93498147D01*
X81966542Y-93508580D01*
X81982582Y-93534868D01*
X82007712Y-93574257D01*
X82040086Y-93623991D01*
X82077857Y-93681315D01*
X82119178Y-93743476D01*
X82162202Y-93807718D01*
X82205083Y-93871285D01*
X82245974Y-93931425D01*
X82283029Y-93985380D01*
X82314400Y-94030397D01*
X82338241Y-94063721D01*
X82352706Y-94082597D01*
X82354691Y-94084787D01*
X82364809Y-94080138D01*
X82387150Y-94062962D01*
X82417720Y-94036440D01*
X82433464Y-94021964D01*
X82529953Y-93946682D01*
X82636664Y-93891241D01*
X82752168Y-93856141D01*
X82875038Y-93841880D01*
X82944439Y-93843051D01*
X83065577Y-93860212D01*
X83174795Y-93896094D01*
X83272418Y-93950959D01*
X83358772Y-94025070D01*
X83434185Y-94118688D01*
X83498982Y-94232076D01*
X83536399Y-94318667D01*
X83580252Y-94454366D01*
X83612572Y-94601850D01*
X83633443Y-94757314D01*
X83642949Y-94916956D01*
X83641173Y-95076973D01*
X83628197Y-95233561D01*
X83604106Y-95382918D01*
X83568982Y-95521240D01*
X83522908Y-95644724D01*
X83506627Y-95678978D01*
X83438380Y-95793064D01*
X83357921Y-95889557D01*
X83266430Y-95967670D01*
X83165089Y-96026617D01*
X83055080Y-96065612D01*
X82937585Y-96083868D01*
X82896117Y-96085211D01*
X82774559Y-96074290D01*
X82654122Y-96041474D01*
X82536334Y-95987439D01*
X82422723Y-95912865D01*
X82331315Y-95834539D01*
X82284785Y-95790008D01*
X82103517Y-96087271D01*
X82058420Y-96161433D01*
X82017181Y-96229646D01*
X81981265Y-96289459D01*
X81952134Y-96338420D01*
X81931250Y-96374079D01*
X81920076Y-96393984D01*
X81918625Y-96397079D01*
X81926854Y-96406718D01*
X81952433Y-96423999D01*
X81992127Y-96447283D01*
X82042703Y-96474934D01*
X82100926Y-96505315D01*
X82163563Y-96536790D01*
X82227379Y-96567722D01*
X82289140Y-96596473D01*
X82345612Y-96621408D01*
X82393562Y-96640889D01*
X82417014Y-96649318D01*
X82550779Y-96687133D01*
X82688673Y-96712136D01*
X82836378Y-96725140D01*
X82963167Y-96727468D01*
X83031122Y-96726373D01*
X83096723Y-96724275D01*
X83154153Y-96721434D01*
X83197597Y-96718106D01*
X83211702Y-96716422D01*
X83350716Y-96687587D01*
X83492243Y-96642468D01*
X83629725Y-96583750D01*
X83756606Y-96514120D01*
X83834111Y-96461441D01*
X83961519Y-96353239D01*
X84079822Y-96226671D01*
X84186828Y-96084866D01*
X84280348Y-95930951D01*
X84358190Y-95768053D01*
X84402044Y-95650756D01*
X84452292Y-95467128D01*
X84485791Y-95272581D01*
X84502551Y-95071325D01*
X84502584Y-94867568D01*
X84485899Y-94665521D01*
X84452507Y-94469392D01*
X84402420Y-94283391D01*
X84398603Y-94271803D01*
X84335719Y-94109750D01*
X84258972Y-93961832D01*
X84165758Y-93823865D01*
X84053473Y-93691661D01*
X84009608Y-93646399D01*
X83873466Y-93522457D01*
X83733509Y-93419915D01*
X83587589Y-93337656D01*
X83433558Y-93274564D01*
X83269268Y-93229523D01*
X83173711Y-93212033D01*
X83014977Y-93196466D01*
X82856571Y-93199071D01*
G36*
X80511426Y-94116552D02*
G01*
X80359508Y-94136567D01*
X80224244Y-94170202D01*
X80104761Y-94217725D01*
X80000185Y-94279405D01*
X79922576Y-94342965D01*
X79853735Y-94417099D01*
X79799994Y-94496871D01*
X79757090Y-94589091D01*
X79741616Y-94632161D01*
X79728756Y-94671142D01*
X79717554Y-94707289D01*
X79707880Y-94742434D01*
X79699604Y-94778410D01*
X79692597Y-94817050D01*
X79686728Y-94860185D01*
X79681869Y-94909649D01*
X79677890Y-94967273D01*
X79674660Y-95034891D01*
X79672051Y-95114334D01*
X79669933Y-95207436D01*
X79668176Y-95316027D01*
X79666651Y-95441942D01*
X79665228Y-95587012D01*
X79663975Y-95729778D01*
X79662649Y-95885968D01*
X79661444Y-96021239D01*
X79660234Y-96137246D01*
X79658894Y-96235645D01*
X79657300Y-96318093D01*
X79655325Y-96386246D01*
X79652844Y-96441760D01*
X79649731Y-96486292D01*
X79645862Y-96521498D01*
X79641111Y-96549034D01*
X79635352Y-96570556D01*
X79628461Y-96587722D01*
X79620311Y-96602186D01*
X79610777Y-96615606D01*
X79599734Y-96629638D01*
X79595434Y-96635071D01*
X79579614Y-96657910D01*
X79572578Y-96673463D01*
X79572556Y-96673922D01*
X79583433Y-96676121D01*
X79614418Y-96678147D01*
X79663043Y-96679942D01*
X79726837Y-96681451D01*
X79803331Y-96682616D01*
X79890056Y-96683380D01*
X79984543Y-96683686D01*
X79995450Y-96683689D01*
X80418343Y-96683689D01*
X80421605Y-96587622D01*
X80424867Y-96491556D01*
X80486956Y-96542543D01*
X80584286Y-96610057D01*
X80694187Y-96664749D01*
X80780651Y-96694978D01*
X80849722Y-96709666D01*
X80933075Y-96719659D01*
X81022841Y-96724646D01*
X81111155Y-96724313D01*
X81190149Y-96718351D01*
X81226378Y-96712638D01*
X81366397Y-96674776D01*
X81492822Y-96619932D01*
X81604740Y-96548924D01*
X81701238Y-96462568D01*
X81781400Y-96361679D01*
X81844313Y-96247076D01*
X81888688Y-96120984D01*
X81901022Y-96064401D01*
X81908632Y-96002202D01*
X81912261Y-95927363D01*
X81912755Y-95893467D01*
X81912690Y-95890282D01*
X81152752Y-95890282D01*
X81143459Y-95965333D01*
X81115272Y-96029160D01*
X81066803Y-96084798D01*
X81061746Y-96089211D01*
X81013452Y-96124037D01*
X80961743Y-96146620D01*
X80901011Y-96158540D01*
X80825648Y-96161383D01*
X80807541Y-96160978D01*
X80753722Y-96158325D01*
X80713692Y-96152909D01*
X80678676Y-96142745D01*
X80639897Y-96125850D01*
X80629255Y-96120672D01*
X80568604Y-96084844D01*
X80521785Y-96042212D01*
X80509048Y-96026973D01*
X80464378Y-95970462D01*
X80464378Y-95774586D01*
X80464914Y-95695939D01*
X80466604Y-95637988D01*
X80469572Y-95598875D01*
X80473943Y-95576741D01*
X80478028Y-95570274D01*
X80493953Y-95567111D01*
X80527736Y-95564488D01*
X80574660Y-95562655D01*
X80630007Y-95561857D01*
X80638894Y-95561842D01*
X80759670Y-95567096D01*
X80862340Y-95583263D01*
X80948894Y-95610961D01*
X81021319Y-95650808D01*
X81076249Y-95697758D01*
X81120796Y-95755645D01*
X81145520Y-95818693D01*
X81152752Y-95890282D01*
X81912690Y-95890282D01*
X81910822Y-95799712D01*
X81902478Y-95720812D01*
X81886232Y-95649590D01*
X81860595Y-95578864D01*
X81836599Y-95526493D01*
X81777980Y-95431196D01*
X81699883Y-95343170D01*
X81604685Y-95264017D01*
X81494762Y-95195340D01*
X81372490Y-95138741D01*
X81240245Y-95095821D01*
X81175578Y-95080882D01*
X81039396Y-95058777D01*
X80890951Y-95044194D01*
X80739495Y-95037813D01*
X80612936Y-95039445D01*
X80451050Y-95046224D01*
X80458470Y-94987245D01*
X80477762Y-94888092D01*
X80508896Y-94807372D01*
X80552731Y-94744466D01*
X80610129Y-94698756D01*
X80681952Y-94669622D01*
X80769059Y-94656447D01*
X80872314Y-94658611D01*
X80910289Y-94662612D01*
X81051480Y-94687780D01*
X81188293Y-94728814D01*
X81282822Y-94766815D01*
X81327982Y-94786190D01*
X81366415Y-94801760D01*
X81392766Y-94811405D01*
X81400454Y-94813452D01*
X81410198Y-94804374D01*
X81426917Y-94775405D01*
X81450768Y-94726217D01*
X81481907Y-94656484D01*
X81520493Y-94565879D01*
X81527090Y-94550089D01*
X81557147Y-94477772D01*
X81584126Y-94412425D01*
X81606864Y-94356906D01*
X81624194Y-94314072D01*
X81634952Y-94286781D01*
X81638059Y-94277942D01*
X81628060Y-94273187D01*
X81601783Y-94267910D01*
X81573511Y-94264231D01*
X81543354Y-94259474D01*
X81495567Y-94250028D01*
X81434388Y-94236820D01*
X81364054Y-94220776D01*
X81288806Y-94202820D01*
X81260245Y-94195797D01*
X81155184Y-94170209D01*
X81067520Y-94150147D01*
X80992932Y-94134969D01*
X80927097Y-94124035D01*
X80865693Y-94116704D01*
X80804398Y-94112335D01*
X80738890Y-94110287D01*
X80680872Y-94109889D01*
X80511426Y-94116552D01*
G37*
X80511426Y-94116552D02*
X80359508Y-94136567D01*
X80224244Y-94170202D01*
X80104761Y-94217725D01*
X80000185Y-94279405D01*
X79922576Y-94342965D01*
X79853735Y-94417099D01*
X79799994Y-94496871D01*
X79757090Y-94589091D01*
X79741616Y-94632161D01*
X79728756Y-94671142D01*
X79717554Y-94707289D01*
X79707880Y-94742434D01*
X79699604Y-94778410D01*
X79692597Y-94817050D01*
X79686728Y-94860185D01*
X79681869Y-94909649D01*
X79677890Y-94967273D01*
X79674660Y-95034891D01*
X79672051Y-95114334D01*
X79669933Y-95207436D01*
X79668176Y-95316027D01*
X79666651Y-95441942D01*
X79665228Y-95587012D01*
X79663975Y-95729778D01*
X79662649Y-95885968D01*
X79661444Y-96021239D01*
X79660234Y-96137246D01*
X79658894Y-96235645D01*
X79657300Y-96318093D01*
X79655325Y-96386246D01*
X79652844Y-96441760D01*
X79649731Y-96486292D01*
X79645862Y-96521498D01*
X79641111Y-96549034D01*
X79635352Y-96570556D01*
X79628461Y-96587722D01*
X79620311Y-96602186D01*
X79610777Y-96615606D01*
X79599734Y-96629638D01*
X79595434Y-96635071D01*
X79579614Y-96657910D01*
X79572578Y-96673463D01*
X79572556Y-96673922D01*
X79583433Y-96676121D01*
X79614418Y-96678147D01*
X79663043Y-96679942D01*
X79726837Y-96681451D01*
X79803331Y-96682616D01*
X79890056Y-96683380D01*
X79984543Y-96683686D01*
X79995450Y-96683689D01*
X80418343Y-96683689D01*
X80421605Y-96587622D01*
X80424867Y-96491556D01*
X80486956Y-96542543D01*
X80584286Y-96610057D01*
X80694187Y-96664749D01*
X80780651Y-96694978D01*
X80849722Y-96709666D01*
X80933075Y-96719659D01*
X81022841Y-96724646D01*
X81111155Y-96724313D01*
X81190149Y-96718351D01*
X81226378Y-96712638D01*
X81366397Y-96674776D01*
X81492822Y-96619932D01*
X81604740Y-96548924D01*
X81701238Y-96462568D01*
X81781400Y-96361679D01*
X81844313Y-96247076D01*
X81888688Y-96120984D01*
X81901022Y-96064401D01*
X81908632Y-96002202D01*
X81912261Y-95927363D01*
X81912755Y-95893467D01*
X81912690Y-95890282D01*
X81152752Y-95890282D01*
X81143459Y-95965333D01*
X81115272Y-96029160D01*
X81066803Y-96084798D01*
X81061746Y-96089211D01*
X81013452Y-96124037D01*
X80961743Y-96146620D01*
X80901011Y-96158540D01*
X80825648Y-96161383D01*
X80807541Y-96160978D01*
X80753722Y-96158325D01*
X80713692Y-96152909D01*
X80678676Y-96142745D01*
X80639897Y-96125850D01*
X80629255Y-96120672D01*
X80568604Y-96084844D01*
X80521785Y-96042212D01*
X80509048Y-96026973D01*
X80464378Y-95970462D01*
X80464378Y-95774586D01*
X80464914Y-95695939D01*
X80466604Y-95637988D01*
X80469572Y-95598875D01*
X80473943Y-95576741D01*
X80478028Y-95570274D01*
X80493953Y-95567111D01*
X80527736Y-95564488D01*
X80574660Y-95562655D01*
X80630007Y-95561857D01*
X80638894Y-95561842D01*
X80759670Y-95567096D01*
X80862340Y-95583263D01*
X80948894Y-95610961D01*
X81021319Y-95650808D01*
X81076249Y-95697758D01*
X81120796Y-95755645D01*
X81145520Y-95818693D01*
X81152752Y-95890282D01*
X81912690Y-95890282D01*
X81910822Y-95799712D01*
X81902478Y-95720812D01*
X81886232Y-95649590D01*
X81860595Y-95578864D01*
X81836599Y-95526493D01*
X81777980Y-95431196D01*
X81699883Y-95343170D01*
X81604685Y-95264017D01*
X81494762Y-95195340D01*
X81372490Y-95138741D01*
X81240245Y-95095821D01*
X81175578Y-95080882D01*
X81039396Y-95058777D01*
X80890951Y-95044194D01*
X80739495Y-95037813D01*
X80612936Y-95039445D01*
X80451050Y-95046224D01*
X80458470Y-94987245D01*
X80477762Y-94888092D01*
X80508896Y-94807372D01*
X80552731Y-94744466D01*
X80610129Y-94698756D01*
X80681952Y-94669622D01*
X80769059Y-94656447D01*
X80872314Y-94658611D01*
X80910289Y-94662612D01*
X81051480Y-94687780D01*
X81188293Y-94728814D01*
X81282822Y-94766815D01*
X81327982Y-94786190D01*
X81366415Y-94801760D01*
X81392766Y-94811405D01*
X81400454Y-94813452D01*
X81410198Y-94804374D01*
X81426917Y-94775405D01*
X81450768Y-94726217D01*
X81481907Y-94656484D01*
X81520493Y-94565879D01*
X81527090Y-94550089D01*
X81557147Y-94477772D01*
X81584126Y-94412425D01*
X81606864Y-94356906D01*
X81624194Y-94314072D01*
X81634952Y-94286781D01*
X81638059Y-94277942D01*
X81628060Y-94273187D01*
X81601783Y-94267910D01*
X81573511Y-94264231D01*
X81543354Y-94259474D01*
X81495567Y-94250028D01*
X81434388Y-94236820D01*
X81364054Y-94220776D01*
X81288806Y-94202820D01*
X81260245Y-94195797D01*
X81155184Y-94170209D01*
X81067520Y-94150147D01*
X80992932Y-94134969D01*
X80927097Y-94124035D01*
X80865693Y-94116704D01*
X80804398Y-94112335D01*
X80738890Y-94110287D01*
X80680872Y-94109889D01*
X80511426Y-94116552D01*
G36*
X76998493Y-94722245D02*
G01*
X76998474Y-94956662D01*
X76998448Y-95169603D01*
X76998375Y-95362168D01*
X76998218Y-95535459D01*
X76997936Y-95690576D01*
X76997491Y-95828620D01*
X76996844Y-95950692D01*
X76995955Y-96057894D01*
X76994787Y-96151326D01*
X76993299Y-96232090D01*
X76991454Y-96301286D01*
X76989211Y-96360015D01*
X76986531Y-96409379D01*
X76983377Y-96450478D01*
X76979708Y-96484413D01*
X76975487Y-96512286D01*
X76970673Y-96535198D01*
X76965227Y-96554249D01*
X76959112Y-96570540D01*
X76952288Y-96585173D01*
X76944715Y-96599249D01*
X76936355Y-96613868D01*
X76931161Y-96622974D01*
X76896896Y-96683689D01*
X77755045Y-96683689D01*
X77755045Y-96587733D01*
X77755776Y-96544370D01*
X77757728Y-96511205D01*
X77760537Y-96493424D01*
X77761779Y-96491778D01*
X77773201Y-96498662D01*
X77795916Y-96516505D01*
X77818615Y-96535879D01*
X77873200Y-96576614D01*
X77942679Y-96617617D01*
X78019730Y-96655123D01*
X78097035Y-96685364D01*
X78127887Y-96695012D01*
X78196384Y-96709578D01*
X78279236Y-96719539D01*
X78368629Y-96724583D01*
X78456752Y-96724396D01*
X78535793Y-96718666D01*
X78573489Y-96712858D01*
X78711586Y-96674797D01*
X78838887Y-96617073D01*
X78954708Y-96540211D01*
X79058363Y-96444739D01*
X79149167Y-96331179D01*
X79215969Y-96220381D01*
X79270836Y-96103625D01*
X79312837Y-95984276D01*
X79342833Y-95858283D01*
X79361689Y-95721594D01*
X79370268Y-95570158D01*
X79370994Y-95492711D01*
X79368900Y-95435934D01*
X78539783Y-95435934D01*
X78539576Y-95529002D01*
X78536663Y-95616692D01*
X78531000Y-95693772D01*
X78522545Y-95755009D01*
X78519962Y-95767350D01*
X78488160Y-95874633D01*
X78446502Y-95961658D01*
X78394637Y-96028642D01*
X78332219Y-96075805D01*
X78258900Y-96103365D01*
X78174331Y-96111541D01*
X78078165Y-96100551D01*
X78014689Y-96084829D01*
X77965546Y-96066639D01*
X77911417Y-96040791D01*
X77870756Y-96017089D01*
X77800200Y-95970721D01*
X77800200Y-94820530D01*
X77867608Y-94776962D01*
X77946133Y-94736040D01*
X78030319Y-94709389D01*
X78115443Y-94697465D01*
X78196784Y-94700722D01*
X78269620Y-94719615D01*
X78301574Y-94735184D01*
X78359499Y-94778181D01*
X78408456Y-94834953D01*
X78449610Y-94907575D01*
X78484126Y-94998121D01*
X78513167Y-95108666D01*
X78514448Y-95114533D01*
X78524619Y-95176788D01*
X78532261Y-95254594D01*
X78537330Y-95342720D01*
X78539783Y-95435934D01*
X79368900Y-95435934D01*
X79363143Y-95279895D01*
X79341198Y-95084059D01*
X79305214Y-94905332D01*
X79255241Y-94743845D01*
X79191332Y-94599726D01*
X79113538Y-94473106D01*
X79021911Y-94364115D01*
X78916503Y-94272883D01*
X78871338Y-94241932D01*
X78770389Y-94185785D01*
X78667099Y-94146174D01*
X78557011Y-94122014D01*
X78435670Y-94112219D01*
X78343164Y-94113265D01*
X78213510Y-94124231D01*
X78100916Y-94146046D01*
X78002125Y-94179714D01*
X77913879Y-94226236D01*
X77865014Y-94260448D01*
X77835647Y-94282362D01*
X77813957Y-94297333D01*
X77805747Y-94301733D01*
X77804132Y-94290904D01*
X77802841Y-94260251D01*
X77801862Y-94212526D01*
X77801183Y-94150479D01*
X77800790Y-94076862D01*
X77800670Y-93994427D01*
X77800812Y-93905925D01*
X77801203Y-93814107D01*
X77801829Y-93721724D01*
X77802680Y-93631528D01*
X77803740Y-93546271D01*
X77804999Y-93468703D01*
X77806444Y-93401576D01*
X77808062Y-93347641D01*
X77809839Y-93309650D01*
X77810331Y-93302667D01*
X77817908Y-93232251D01*
X77829469Y-93177102D01*
X77847208Y-93129981D01*
X77873318Y-93083647D01*
X77879585Y-93074067D01*
X77904017Y-93037378D01*
X76998689Y-93037378D01*
X76998493Y-94722245D01*
G37*
X76998493Y-94722245D02*
X76998474Y-94956662D01*
X76998448Y-95169603D01*
X76998375Y-95362168D01*
X76998218Y-95535459D01*
X76997936Y-95690576D01*
X76997491Y-95828620D01*
X76996844Y-95950692D01*
X76995955Y-96057894D01*
X76994787Y-96151326D01*
X76993299Y-96232090D01*
X76991454Y-96301286D01*
X76989211Y-96360015D01*
X76986531Y-96409379D01*
X76983377Y-96450478D01*
X76979708Y-96484413D01*
X76975487Y-96512286D01*
X76970673Y-96535198D01*
X76965227Y-96554249D01*
X76959112Y-96570540D01*
X76952288Y-96585173D01*
X76944715Y-96599249D01*
X76936355Y-96613868D01*
X76931161Y-96622974D01*
X76896896Y-96683689D01*
X77755045Y-96683689D01*
X77755045Y-96587733D01*
X77755776Y-96544370D01*
X77757728Y-96511205D01*
X77760537Y-96493424D01*
X77761779Y-96491778D01*
X77773201Y-96498662D01*
X77795916Y-96516505D01*
X77818615Y-96535879D01*
X77873200Y-96576614D01*
X77942679Y-96617617D01*
X78019730Y-96655123D01*
X78097035Y-96685364D01*
X78127887Y-96695012D01*
X78196384Y-96709578D01*
X78279236Y-96719539D01*
X78368629Y-96724583D01*
X78456752Y-96724396D01*
X78535793Y-96718666D01*
X78573489Y-96712858D01*
X78711586Y-96674797D01*
X78838887Y-96617073D01*
X78954708Y-96540211D01*
X79058363Y-96444739D01*
X79149167Y-96331179D01*
X79215969Y-96220381D01*
X79270836Y-96103625D01*
X79312837Y-95984276D01*
X79342833Y-95858283D01*
X79361689Y-95721594D01*
X79370268Y-95570158D01*
X79370994Y-95492711D01*
X79368900Y-95435934D01*
X78539783Y-95435934D01*
X78539576Y-95529002D01*
X78536663Y-95616692D01*
X78531000Y-95693772D01*
X78522545Y-95755009D01*
X78519962Y-95767350D01*
X78488160Y-95874633D01*
X78446502Y-95961658D01*
X78394637Y-96028642D01*
X78332219Y-96075805D01*
X78258900Y-96103365D01*
X78174331Y-96111541D01*
X78078165Y-96100551D01*
X78014689Y-96084829D01*
X77965546Y-96066639D01*
X77911417Y-96040791D01*
X77870756Y-96017089D01*
X77800200Y-95970721D01*
X77800200Y-94820530D01*
X77867608Y-94776962D01*
X77946133Y-94736040D01*
X78030319Y-94709389D01*
X78115443Y-94697465D01*
X78196784Y-94700722D01*
X78269620Y-94719615D01*
X78301574Y-94735184D01*
X78359499Y-94778181D01*
X78408456Y-94834953D01*
X78449610Y-94907575D01*
X78484126Y-94998121D01*
X78513167Y-95108666D01*
X78514448Y-95114533D01*
X78524619Y-95176788D01*
X78532261Y-95254594D01*
X78537330Y-95342720D01*
X78539783Y-95435934D01*
X79368900Y-95435934D01*
X79363143Y-95279895D01*
X79341198Y-95084059D01*
X79305214Y-94905332D01*
X79255241Y-94743845D01*
X79191332Y-94599726D01*
X79113538Y-94473106D01*
X79021911Y-94364115D01*
X78916503Y-94272883D01*
X78871338Y-94241932D01*
X78770389Y-94185785D01*
X78667099Y-94146174D01*
X78557011Y-94122014D01*
X78435670Y-94112219D01*
X78343164Y-94113265D01*
X78213510Y-94124231D01*
X78100916Y-94146046D01*
X78002125Y-94179714D01*
X77913879Y-94226236D01*
X77865014Y-94260448D01*
X77835647Y-94282362D01*
X77813957Y-94297333D01*
X77805747Y-94301733D01*
X77804132Y-94290904D01*
X77802841Y-94260251D01*
X77801862Y-94212526D01*
X77801183Y-94150479D01*
X77800790Y-94076862D01*
X77800670Y-93994427D01*
X77800812Y-93905925D01*
X77801203Y-93814107D01*
X77801829Y-93721724D01*
X77802680Y-93631528D01*
X77803740Y-93546271D01*
X77804999Y-93468703D01*
X77806444Y-93401576D01*
X77808062Y-93347641D01*
X77809839Y-93309650D01*
X77810331Y-93302667D01*
X77817908Y-93232251D01*
X77829469Y-93177102D01*
X77847208Y-93129981D01*
X77873318Y-93083647D01*
X77879585Y-93074067D01*
X77904017Y-93037378D01*
X76998689Y-93037378D01*
X76998493Y-94722245D01*
G36*
X85458043Y-92276571D02*
G01*
X85361768Y-92300809D01*
X85275184Y-92343641D01*
X85200373Y-92403419D01*
X85139418Y-92478494D01*
X85094399Y-92567220D01*
X85068136Y-92663530D01*
X85062286Y-92760795D01*
X85077140Y-92854654D01*
X85110840Y-92942511D01*
X85161528Y-93021770D01*
X85227345Y-93089836D01*
X85306434Y-93144112D01*
X85396934Y-93182002D01*
X85448200Y-93194426D01*
X85492698Y-93201947D01*
X85526999Y-93204919D01*
X85559960Y-93203094D01*
X85600434Y-93196225D01*
X85633531Y-93189250D01*
X85726947Y-93157741D01*
X85810619Y-93106617D01*
X85882665Y-93037429D01*
X85941200Y-92951728D01*
X85955148Y-92924489D01*
X85971586Y-92888122D01*
X85981894Y-92857582D01*
X85987460Y-92825450D01*
X85989669Y-92784307D01*
X85989948Y-92738222D01*
X85985861Y-92653865D01*
X85972446Y-92584586D01*
X85947256Y-92523961D01*
X85907846Y-92465567D01*
X85869298Y-92421302D01*
X85797406Y-92355484D01*
X85722313Y-92310053D01*
X85639562Y-92282850D01*
X85561928Y-92272576D01*
X85458043Y-92276571D01*
G37*
X85458043Y-92276571D02*
X85361768Y-92300809D01*
X85275184Y-92343641D01*
X85200373Y-92403419D01*
X85139418Y-92478494D01*
X85094399Y-92567220D01*
X85068136Y-92663530D01*
X85062286Y-92760795D01*
X85077140Y-92854654D01*
X85110840Y-92942511D01*
X85161528Y-93021770D01*
X85227345Y-93089836D01*
X85306434Y-93144112D01*
X85396934Y-93182002D01*
X85448200Y-93194426D01*
X85492698Y-93201947D01*
X85526999Y-93204919D01*
X85559960Y-93203094D01*
X85600434Y-93196225D01*
X85633531Y-93189250D01*
X85726947Y-93157741D01*
X85810619Y-93106617D01*
X85882665Y-93037429D01*
X85941200Y-92951728D01*
X85955148Y-92924489D01*
X85971586Y-92888122D01*
X85981894Y-92857582D01*
X85987460Y-92825450D01*
X85989669Y-92784307D01*
X85989948Y-92738222D01*
X85985861Y-92653865D01*
X85972446Y-92584586D01*
X85947256Y-92523961D01*
X85907846Y-92465567D01*
X85869298Y-92421302D01*
X85797406Y-92355484D01*
X85722313Y-92310053D01*
X85639562Y-92282850D01*
X85561928Y-92272576D01*
X85458043Y-92276571D01*
D10*
X84253500Y-56578500D02*
X85153500Y-56578500D01*
D12*
X83360000Y-56578500D02*
G75*
G03*
X83360000Y-56578500I-175000J0D01*
G01*
D10*
X83185000Y-56578500D02*
X81185000Y-56578500D01*
X87094500Y-56578500D02*
G75*
G03*
X87094500Y-56578500I-925000J0D01*
G01*
X81125500Y-56578500D02*
G75*
G03*
X81125500Y-56578500I-925000J0D01*
G01*
X82510000Y-57328500D02*
G75*
G03*
X82435000Y-55903500I675000J750000D01*
G01*
X79804047Y-56586428D02*
X80565952Y-56586428D01*
X80185000Y-56967380D02*
X80185000Y-56205476D01*
X85804047Y-56586428D02*
X86565952Y-56586428D01*
M02*
