M48
INCH,TZ
T1C0.0157
T2C0.0300
T3C0.0315
T4C0.0354
T5C0.0394
T6C0.0433
T7C0.0472
%
G90
G05
T1
X34700Y-34246
X35250Y-45750
X37500Y-36900
X37800Y-36600
X38700Y-36300
X43750Y-43250
X44000Y-42250
X44700Y-31100
X45100Y-36500
X45146Y-36000
X46100Y-30800
X46200Y-32600
X46250Y-36250
X46500Y-36500
X46750Y-42500
X46750Y-44750
X46825Y-39750
X46996Y-47300
X47000Y-45490
X47005Y-43360
X47100Y-34246
X47250Y-50500
X47912Y-34212
X49750Y-43500
X50000Y-59750
X53400Y-50400
X53750Y-31000
X53800Y-60565
T2
X40000Y-32000
X41000Y-32000
X42000Y-32000
X43000Y-32000
T3
X53250Y-45250
X57250Y-45250
X47800Y-56250
X51800Y-56250
X53250Y-42750
X55219Y-42750
X37440Y-39231
X37440Y-41200
X28100Y-38500
X30069Y-38500
X37050Y-51600
X37050Y-55600
X38350Y-51600
X38350Y-55600
X54750Y-33000
X58750Y-33000
X40400Y-42400
X42369Y-42400
X66100Y-24500
X66100Y-28500
X54750Y-31500
X58750Y-31500
X28250Y-33300
X32250Y-33300
X31200Y-35000
X31200Y-38000
X32200Y-35000
X32200Y-38000
X33200Y-35000
X33200Y-38000
X34200Y-35000
X34200Y-38000
X35200Y-35000
X35200Y-38000
X36200Y-35000
X36200Y-38000
X37200Y-35000
X37200Y-38000
X38200Y-35000
X38200Y-38000
X39200Y-35000
X39200Y-38000
X40200Y-35000
X40200Y-38000
X41200Y-35000
X41200Y-38000
X42200Y-35000
X42200Y-38000
X43200Y-35000
X43200Y-38000
X44200Y-35000
X44200Y-38000
X53250Y-47250
X57250Y-47250
X37431Y-42400
X39400Y-42400
X33700Y-40098
X33700Y-44098
X42850Y-56250
X46850Y-56250
X39600Y-40200
X41521Y-40200
X54750Y-30000
X58750Y-30000
X53250Y-44000
X57250Y-44000
X53250Y-48750
X57250Y-48750
X49000Y-30500
X49000Y-32469
X64600Y-24500
X64600Y-28500
X49000Y-42750
X49000Y-43750
X49000Y-44750
X49000Y-45750
X49000Y-46750
X49000Y-47750
X49000Y-48750
X52000Y-42750
X52000Y-43750
X52000Y-44750
X52000Y-45750
X52000Y-46750
X52000Y-47750
X52000Y-48750
X47800Y-55000
X51800Y-55000
X51000Y-40100
X52378Y-40100
X50250Y-34250
X53250Y-34250
X35200Y-40100
X35200Y-44100
X50250Y-30000
X50250Y-33000
X51250Y-30000
X51250Y-33000
X52250Y-30000
X52250Y-33000
X53250Y-30000
X53250Y-33000
X54750Y-34500
X58750Y-34500
X42850Y-55000
X46850Y-55000
T4
X34900Y-56850
X35900Y-56850
X38300Y-56850
X39300Y-56850
T5
X47750Y-36750
X48750Y-36750
X57600Y-57550
X58600Y-57550
X59600Y-57550
X60600Y-57550
X44500Y-39750
X44500Y-40750
X44500Y-41750
X44500Y-42750
X44500Y-43750
X44500Y-44750
X44500Y-45750
X44500Y-46750
X44500Y-47750
X44500Y-48750
X45500Y-39750
X45500Y-40750
X45500Y-41750
X45500Y-42750
X45500Y-43750
X45500Y-44750
X45500Y-45750
X45500Y-46750
X45500Y-47750
X45500Y-48750
X28600Y-35100
X28600Y-36100
X28600Y-37100
X29600Y-35100
X29600Y-36100
X29600Y-37100
X33500Y-33250
X34500Y-33250
X35500Y-33250
X36500Y-33250
X37500Y-33250
X38500Y-33250
X47750Y-37750
X47750Y-38750
X48750Y-37750
X48750Y-38750
X40000Y-33250
X41000Y-33250
X42000Y-33250
X43000Y-33250
T6
X28500Y-29300
X28500Y-31072
X31059Y-29300
X31059Y-31072
T7
X29501Y-42067
X31472Y-40098
X31472Y-41082
X31472Y-43051
X31472Y-44035
X29501Y-47319
X31472Y-45350
X31472Y-46334
X31472Y-48303
X31472Y-49287
X29501Y-52570
X31472Y-50602
X31472Y-51586
X31472Y-53555
X31472Y-54539
T2
G00X43441Y-57900
M15
G01X43190Y-57900
M16
G05
G00X44426Y-57900
M15
G01X44174Y-57900
M16
G05
G00X44426Y-58884
M15
G01X44174Y-58884
M16
G05
G00X45410Y-57900
M15
G01X45159Y-57900
M16
G05
G00X45410Y-58884
M15
G01X45159Y-58884
M16
G05
G00X49471Y-57900
M15
G01X49220Y-57900
M16
G05
G00X50456Y-57900
M15
G01X50204Y-57900
M16
G05
G00X50456Y-58884
M15
G01X50204Y-58884
M16
G05
G00X51440Y-57900
M15
G01X51189Y-57900
M16
G05
G00X51440Y-58884
M15
G01X51189Y-58884
M16
G05
T4
G00X60898Y-47288
M15
G01X61134Y-47288
M16
G05
G00X60898Y-51225
M15
G01X61134Y-51225
M16
G05
G00X61882Y-46304
M15
G01X62118Y-46304
M16
G05
G00X61882Y-49256
M15
G01X62118Y-49256
M16
G05
G00X61882Y-52209
M15
G01X62118Y-52209
M16
G05
G00X60898Y-39288
M15
G01X61134Y-39288
M16
G05
G00X60898Y-43225
M15
G01X61134Y-43225
M16
G05
G00X61882Y-38304
M15
G01X62118Y-38304
M16
G05
G00X61882Y-41256
M15
G01X62118Y-41256
M16
G05
G00X61882Y-44209
M15
G01X62118Y-44209
M16
G05
G00X49297Y-26618
M15
G01X49297Y-26382
M16
G05
G00X50281Y-27602
M15
G01X50281Y-27366
M16
G05
G00X52250Y-26618
M15
G01X52250Y-26382
M16
G05
G00X54219Y-27602
M15
G01X54219Y-27366
M16
G05
G00X55203Y-26618
M15
G01X55203Y-26382
M16
G05
G00X60898Y-31288
M15
G01X61134Y-31288
M16
G05
G00X60898Y-35225
M15
G01X61134Y-35225
M16
G05
G00X61882Y-30304
M15
G01X62118Y-30304
M16
G05
G00X61882Y-33256
M15
G01X62118Y-33256
M16
G05
G00X61882Y-36209
M15
G01X62118Y-36209
M16
G05
G00X57297Y-26618
M15
G01X57297Y-26382
M16
G05
G00X58281Y-27602
M15
G01X58281Y-27366
M16
G05
G00X60250Y-26618
M15
G01X60250Y-26382
M16
G05
G00X62219Y-27602
M15
G01X62219Y-27366
M16
G05
G00X63203Y-26618
M15
G01X63203Y-26382
M16
G05
T5
G00X43394Y-58884
M15
G01X43237Y-58884
M16
G05
G00X30900Y-25425
M15
G01X30900Y-26213
M16
G05
G00X33144Y-24638
M15
G01X32356Y-24638
M16
G05
G00X33144Y-27000
M15
G01X32356Y-27000
M16
G05
G00X49424Y-58884
M15
G01X49267Y-58884
M16
G05
T0
M30
