G04 #@! TF.GenerationSoftware,KiCad,Pcbnew,(5.1.8)-1*
G04 #@! TF.CreationDate,2022-02-18T00:17:42+01:00*
G04 #@! TF.ProjectId,BulkyMIDI-32 Extras,42756c6b-794d-4494-9449-2d3332204578,rev?*
G04 #@! TF.SameCoordinates,Original*
G04 #@! TF.FileFunction,Soldermask,Bot*
G04 #@! TF.FilePolarity,Negative*
%FSLAX46Y46*%
G04 Gerber Fmt 4.6, Leading zero omitted, Abs format (unit mm)*
G04 Created by KiCad (PCBNEW (5.1.8)-1) date 2022-02-18 00:17:42*
%MOMM*%
%LPD*%
G01*
G04 APERTURE LIST*
%ADD10O,2.000000X1.524000*%
%ADD11C,1.524000*%
%ADD12O,1.800000X2.400000*%
%ADD13O,2.400000X1.800000*%
%ADD14C,5.100000*%
%ADD15R,3.500000X3.500000*%
%ADD16R,1.600000X1.600000*%
%ADD17C,1.600000*%
%ADD18O,1.600000X1.600000*%
%ADD19R,1.700000X1.700000*%
%ADD20O,1.700000X1.700000*%
%ADD21R,2.500000X3.500000*%
%ADD22O,3.500000X1.750000*%
%ADD23R,1.800000X1.800000*%
%ADD24C,1.800000*%
G04 APERTURE END LIST*
D10*
X130338000Y-149566000D03*
X127838000Y-149566000D03*
X125338000Y-149566000D03*
X130338000Y-147066000D03*
X127838000Y-147066000D03*
X125338000Y-147066000D03*
X115022000Y-149566000D03*
X112522000Y-149566000D03*
X110022000Y-149566000D03*
X115022000Y-147066000D03*
X112522000Y-147066000D03*
X110022000Y-147066000D03*
D11*
X109220000Y-81280000D03*
X106680000Y-81280000D03*
X104140000Y-81280000D03*
X101600000Y-81280000D03*
D12*
X132715000Y-67310000D03*
D13*
X127715000Y-57310000D03*
X137715000Y-57310000D03*
D12*
X125215000Y-67310000D03*
X140215000Y-67310000D03*
X127715000Y-69810000D03*
X137715000Y-69810000D03*
X153035000Y-67310000D03*
D13*
X148035000Y-57310000D03*
X158035000Y-57310000D03*
D12*
X145535000Y-67310000D03*
X160535000Y-67310000D03*
X148035000Y-69810000D03*
X158035000Y-69810000D03*
D14*
X73355000Y-151435000D03*
X167005000Y-151435000D03*
X167005000Y-57785000D03*
X73355000Y-57785000D03*
D15*
X78485000Y-65580000D03*
X83185000Y-62580000D03*
X83185000Y-68580000D03*
D16*
X83185000Y-73660000D03*
D17*
X83185000Y-77160000D03*
X164465000Y-72390000D03*
D18*
X164465000Y-62230000D03*
D17*
X130810000Y-104775000D03*
X125810000Y-104775000D03*
D19*
X113030000Y-100965000D03*
D20*
X115570000Y-100965000D03*
X113030000Y-103505000D03*
X115570000Y-103505000D03*
X113030000Y-106045000D03*
X115570000Y-106045000D03*
X113030000Y-108585000D03*
X115570000Y-108585000D03*
X113030000Y-111125000D03*
X115570000Y-111125000D03*
X113030000Y-113665000D03*
X115570000Y-113665000D03*
X113030000Y-116205000D03*
X115570000Y-116205000D03*
X113030000Y-118745000D03*
X115570000Y-118745000D03*
X113030000Y-121285000D03*
X115570000Y-121285000D03*
X113030000Y-123825000D03*
X115570000Y-123825000D03*
D13*
X157480000Y-84471000D03*
D12*
X167480000Y-79471000D03*
X167480000Y-89471000D03*
D13*
X157480000Y-76971000D03*
X157480000Y-91971000D03*
X154980000Y-79471000D03*
X154980000Y-89471000D03*
X154980000Y-109791000D03*
X154980000Y-99791000D03*
X157480000Y-112291000D03*
X157480000Y-97291000D03*
D12*
X167480000Y-109791000D03*
X167480000Y-99791000D03*
D13*
X157480000Y-104791000D03*
X154980000Y-130111000D03*
X154980000Y-120111000D03*
X157480000Y-132611000D03*
X157480000Y-117611000D03*
D12*
X167480000Y-130111000D03*
X167480000Y-120111000D03*
D13*
X157480000Y-125111000D03*
D17*
X149225000Y-76200000D03*
D18*
X139065000Y-76200000D03*
X135255000Y-114935000D03*
D17*
X145415000Y-114935000D03*
D18*
X94107000Y-131064000D03*
D17*
X94107000Y-141224000D03*
X97409000Y-141224000D03*
D18*
X97409000Y-131064000D03*
X135255000Y-123825000D03*
D17*
X145415000Y-123825000D03*
X118999000Y-142875000D03*
D18*
X108839000Y-142875000D03*
D17*
X108839000Y-139700000D03*
D18*
X118999000Y-139700000D03*
X131572000Y-142875000D03*
D17*
X121412000Y-142875000D03*
D18*
X121412000Y-139700000D03*
D17*
X131572000Y-139700000D03*
X85598000Y-101848999D03*
D18*
X85598000Y-112008999D03*
X89408000Y-112014000D03*
D17*
X89408000Y-101854000D03*
X145415000Y-120015000D03*
D18*
X135255000Y-120015000D03*
D17*
X168275000Y-72390000D03*
D18*
X168275000Y-62230000D03*
X145415000Y-108585000D03*
D17*
X135255000Y-108585000D03*
X135255000Y-111760000D03*
D18*
X145415000Y-111760000D03*
X132080000Y-108585000D03*
X124460000Y-123825000D03*
X132080000Y-111125000D03*
X124460000Y-121285000D03*
X132080000Y-113665000D03*
X124460000Y-118745000D03*
X132080000Y-116205000D03*
X124460000Y-116205000D03*
X132080000Y-118745000D03*
X124460000Y-113665000D03*
X132080000Y-121285000D03*
X124460000Y-111125000D03*
X132080000Y-123825000D03*
D16*
X124460000Y-108585000D03*
D21*
X74933001Y-133528999D03*
D22*
X79939001Y-128528999D03*
X79939001Y-138528999D03*
X79939001Y-131028999D03*
X79939001Y-136028999D03*
X79939001Y-122688999D03*
X79939001Y-117688999D03*
X79939001Y-125188999D03*
X79939001Y-115188999D03*
D21*
X74933001Y-120188999D03*
X74933001Y-106848999D03*
D22*
X79939001Y-101848999D03*
X79939001Y-111848999D03*
X79939001Y-104348999D03*
X79939001Y-109348999D03*
D23*
X88646000Y-144399000D03*
D24*
X91186000Y-144399000D03*
X99822000Y-144399000D03*
D23*
X97282000Y-144399000D03*
D20*
X146304000Y-146177000D03*
X148844000Y-146177000D03*
X151384000Y-146177000D03*
D19*
X153924000Y-146177000D03*
M02*
