G04 #@! TF.GenerationSoftware,KiCad,Pcbnew,(5.1.8)-1*
G04 #@! TF.CreationDate,2022-02-18T22:37:17+01:00*
G04 #@! TF.ProjectId,BulkyMIDI-32 Extras,42756c6b-794d-4494-9449-2d3332204578,rev?*
G04 #@! TF.SameCoordinates,Original*
G04 #@! TF.FileFunction,Profile,NP*
%FSLAX46Y46*%
G04 Gerber Fmt 4.6, Leading zero omitted, Abs format (unit mm)*
G04 Created by KiCad (PCBNEW (5.1.8)-1) date 2022-02-18 22:37:17*
%MOMM*%
%LPD*%
G01*
G04 APERTURE LIST*
G04 #@! TA.AperFunction,Profile*
%ADD10C,0.150000*%
G04 #@! TD*
G04 #@! TA.AperFunction,Profile*
%ADD11C,0.050000*%
G04 #@! TD*
G04 APERTURE END LIST*
D10*
X121412000Y-54610000D02*
X168910000Y-54610000D01*
X121412000Y-66802000D02*
X121412000Y-54610000D01*
X89408000Y-66802000D02*
X89408000Y-54610000D01*
X121412000Y-66802000D02*
X89408000Y-66802000D01*
D11*
X147114000Y-140362000D02*
X153114000Y-140362000D01*
X147114000Y-142367000D02*
X147114000Y-140362000D01*
X153114000Y-142367000D02*
X147114000Y-142367000D01*
X153114000Y-140362000D02*
X153114000Y-142367000D01*
D10*
X101600000Y-154610000D02*
X168910000Y-154610000D01*
X92964000Y-154610000D02*
X95504000Y-154610000D01*
X101600000Y-146812000D02*
X101600000Y-154610000D01*
X95504000Y-146812000D02*
X95504000Y-154610000D01*
X95504000Y-146812000D02*
X101600000Y-146812000D01*
X86868000Y-146812000D02*
X92964000Y-146812000D01*
X86868000Y-146812000D02*
X86868000Y-154610000D01*
X92964000Y-146812000D02*
X92964000Y-154610000D01*
X170180000Y-78740000D02*
X170180000Y-55880000D01*
X70180000Y-55880000D02*
X70180000Y-72390000D01*
X70180000Y-139954000D02*
X70180000Y-153340000D01*
X70180000Y-139954000D02*
X70180000Y-72390000D01*
X89408000Y-54610000D02*
X71450000Y-54610000D01*
X71450000Y-54610000D02*
G75*
G03*
X70180000Y-55880000I0J-1270000D01*
G01*
X170180000Y-55880000D02*
G75*
G03*
X168910000Y-54610000I-1270000J0D01*
G01*
X170180000Y-153340000D02*
X170180000Y-78740000D01*
X168910000Y-154610000D02*
G75*
G03*
X170180000Y-153340000I0J1270000D01*
G01*
X71450000Y-154610000D02*
X86868000Y-154610000D01*
X70180000Y-153340000D02*
G75*
G03*
X71450000Y-154610000I1270000J0D01*
G01*
M02*
