M48
INCH,TZ
T1C0.0354
T2C0.0984
T3C0.1200
%
G90
G05
T2
X36185Y-31700
X46815Y-31700
T3
X28880Y-59620
X28880Y-22750
X65750Y-22750
X65750Y-59620
T1
G00X65937Y-47406
M15
G01X65937Y-47170
M16
G05
G00X65937Y-51343
M15
G01X65937Y-51107
M16
G05
G00X65937Y-39406
M15
G01X65937Y-39170
M16
G05
G00X65937Y-43343
M15
G01X65937Y-43107
M16
G05
G00X50400Y-22563
M15
G01X50163Y-22563
M16
G05
G00X54337Y-22563
M15
G01X54100Y-22563
M16
G05
G00X65937Y-31406
M15
G01X65937Y-31170
M16
G05
G00X65937Y-35343
M15
G01X65937Y-35107
M16
G05
G00X58400Y-22563
M15
G01X58163Y-22563
M16
G05
G00X62337Y-22563
M15
G01X62100Y-22563
M16
G05
T0
M30
