G04 #@! TF.GenerationSoftware,KiCad,Pcbnew,(5.1.8)-1*
G04 #@! TF.CreationDate,2022-02-20T17:41:48+01:00*
G04 #@! TF.ProjectId,BulkyMIDI-32 Extras,42756c6b-794d-4494-9449-2d3332204578,rev?*
G04 #@! TF.SameCoordinates,Original*
G04 #@! TF.FileFunction,OtherDrawing,Comment*
%FSLAX46Y46*%
G04 Gerber Fmt 4.6, Leading zero omitted, Abs format (unit mm)*
G04 Created by KiCad (PCBNEW (5.1.8)-1) date 2022-02-20 17:41:48*
%MOMM*%
%LPD*%
G01*
G04 APERTURE LIST*
%ADD10C,0.120000*%
%ADD11C,0.050000*%
G04 APERTURE END LIST*
D10*
X98298000Y-73660000D02*
X96012000Y-73660000D01*
X98298000Y-74422000D02*
X98298000Y-73660000D01*
X96012000Y-74422000D02*
X98298000Y-74422000D01*
X96012000Y-73660000D02*
X96012000Y-74422000D01*
X96012000Y-70612000D02*
X96012000Y-71374000D01*
X96012000Y-71374000D02*
X98298000Y-71374000D01*
X98298000Y-70612000D02*
X96012000Y-70612000D01*
X98298000Y-72898000D02*
X98298000Y-72136000D01*
X96012000Y-72898000D02*
X98298000Y-72898000D01*
X98298000Y-71374000D02*
X98298000Y-70612000D01*
X96012000Y-72136000D02*
X96012000Y-72898000D01*
X98298000Y-72136000D02*
X96012000Y-72136000D01*
X115316000Y-74422000D02*
X115316000Y-75184000D01*
X115316000Y-75184000D02*
X117602000Y-75184000D01*
X117602000Y-74422000D02*
X115316000Y-74422000D01*
X117602000Y-75184000D02*
X117602000Y-74422000D01*
X115316000Y-72898000D02*
X115316000Y-73660000D01*
X115316000Y-73660000D02*
X117602000Y-73660000D01*
X117602000Y-72898000D02*
X115316000Y-72898000D01*
X117602000Y-73660000D02*
X117602000Y-72898000D01*
X115316000Y-71374000D02*
X115316000Y-72136000D01*
X115316000Y-72136000D02*
X117602000Y-72136000D01*
X117602000Y-71374000D02*
X115316000Y-71374000D01*
X117602000Y-72136000D02*
X117602000Y-71374000D01*
X117602000Y-70612000D02*
X117602000Y-69850000D01*
X115316000Y-70612000D02*
X117602000Y-70612000D01*
X115316000Y-69850000D02*
X115316000Y-70612000D01*
X117602000Y-69850000D02*
X115316000Y-69850000D01*
X100584000Y-70358000D02*
X110490000Y-70358000D01*
X100584000Y-74422000D02*
X100584000Y-70358000D01*
X110490000Y-74422000D02*
X100584000Y-74422000D01*
X110490000Y-70358000D02*
X110490000Y-74422000D01*
X131338000Y-154566000D02*
X131338000Y-162052000D01*
X124338000Y-154566000D02*
X124338000Y-162052000D01*
X124338000Y-162052000D02*
X131338000Y-162052000D01*
X116022000Y-154566000D02*
X116022000Y-162052000D01*
X109022000Y-154566000D02*
X109022000Y-162052000D01*
X109022000Y-162052000D02*
X116022000Y-162052000D01*
D11*
X144214000Y-146266000D02*
X156014000Y-146266000D01*
X144214000Y-146266000D02*
X144214000Y-142266000D01*
X156014000Y-146266000D02*
X156014000Y-142266000D01*
X146764000Y-154566000D02*
X153464000Y-154566000D01*
X146764000Y-154566000D02*
X146764000Y-146266000D01*
X153464000Y-154566000D02*
X153464000Y-146266000D01*
X147114000Y-169566000D02*
X153114000Y-169566000D01*
X147114000Y-169566000D02*
X147114000Y-154566000D01*
X153114000Y-169566000D02*
X153114000Y-154566000D01*
M02*
