G04 #@! TF.GenerationSoftware,KiCad,Pcbnew,(5.1.8)-1*
G04 #@! TF.CreationDate,2022-02-18T00:17:41+01:00*
G04 #@! TF.ProjectId,BulkyMIDI-32 Extras,42756c6b-794d-4494-9449-2d3332204578,rev?*
G04 #@! TF.SameCoordinates,Original*
G04 #@! TF.FileFunction,Copper,L1,Top*
G04 #@! TF.FilePolarity,Positive*
%FSLAX46Y46*%
G04 Gerber Fmt 4.6, Leading zero omitted, Abs format (unit mm)*
G04 Created by KiCad (PCBNEW (5.1.8)-1) date 2022-02-18 00:17:41*
%MOMM*%
%LPD*%
G01*
G04 APERTURE LIST*
G04 #@! TA.AperFunction,ComponentPad*
%ADD10O,2.000000X1.524000*%
G04 #@! TD*
G04 #@! TA.AperFunction,ComponentPad*
%ADD11C,1.524000*%
G04 #@! TD*
G04 #@! TA.AperFunction,ComponentPad*
%ADD12O,1.800000X2.400000*%
G04 #@! TD*
G04 #@! TA.AperFunction,WasherPad*
%ADD13O,2.400000X1.800000*%
G04 #@! TD*
G04 #@! TA.AperFunction,WasherPad*
%ADD14C,3.500000*%
G04 #@! TD*
G04 #@! TA.AperFunction,ComponentPad*
%ADD15R,3.500000X3.500000*%
G04 #@! TD*
G04 #@! TA.AperFunction,ComponentPad*
%ADD16R,1.600000X1.600000*%
G04 #@! TD*
G04 #@! TA.AperFunction,ComponentPad*
%ADD17C,1.600000*%
G04 #@! TD*
G04 #@! TA.AperFunction,ComponentPad*
%ADD18O,1.600000X1.600000*%
G04 #@! TD*
G04 #@! TA.AperFunction,ComponentPad*
%ADD19R,1.700000X1.700000*%
G04 #@! TD*
G04 #@! TA.AperFunction,ComponentPad*
%ADD20O,1.700000X1.700000*%
G04 #@! TD*
G04 #@! TA.AperFunction,ComponentPad*
%ADD21O,2.400000X1.800000*%
G04 #@! TD*
G04 #@! TA.AperFunction,WasherPad*
%ADD22O,1.800000X2.400000*%
G04 #@! TD*
G04 #@! TA.AperFunction,ComponentPad*
%ADD23R,2.500000X3.500000*%
G04 #@! TD*
G04 #@! TA.AperFunction,ComponentPad*
%ADD24O,3.500000X1.750000*%
G04 #@! TD*
G04 #@! TA.AperFunction,SMDPad,CuDef*
%ADD25R,1.500000X1.000000*%
G04 #@! TD*
G04 #@! TA.AperFunction,ComponentPad*
%ADD26R,1.800000X1.800000*%
G04 #@! TD*
G04 #@! TA.AperFunction,ComponentPad*
%ADD27C,1.800000*%
G04 #@! TD*
G04 #@! TA.AperFunction,ViaPad*
%ADD28C,1.000000*%
G04 #@! TD*
G04 #@! TA.AperFunction,ViaPad*
%ADD29C,0.600000*%
G04 #@! TD*
G04 #@! TA.AperFunction,Conductor*
%ADD30C,0.381000*%
G04 #@! TD*
G04 #@! TA.AperFunction,Conductor*
%ADD31C,0.250000*%
G04 #@! TD*
G04 APERTURE END LIST*
D10*
X130338000Y-149566000D03*
X127838000Y-149566000D03*
X125338000Y-149566000D03*
X130338000Y-147066000D03*
X127838000Y-147066000D03*
X125338000Y-147066000D03*
X115022000Y-149566000D03*
X112522000Y-149566000D03*
X110022000Y-149566000D03*
X115022000Y-147066000D03*
X112522000Y-147066000D03*
X110022000Y-147066000D03*
D11*
X109220000Y-81280000D03*
X106680000Y-81280000D03*
X104140000Y-81280000D03*
X101600000Y-81280000D03*
D12*
X132715000Y-67310000D03*
D13*
X127715000Y-57310000D03*
X137715000Y-57310000D03*
D12*
X125215000Y-67310000D03*
X140215000Y-67310000D03*
X127715000Y-69810000D03*
X137715000Y-69810000D03*
X153035000Y-67310000D03*
D13*
X148035000Y-57310000D03*
X158035000Y-57310000D03*
D12*
X145535000Y-67310000D03*
X160535000Y-67310000D03*
X148035000Y-69810000D03*
X158035000Y-69810000D03*
D14*
X73355000Y-151435000D03*
X167005000Y-151435000D03*
X167005000Y-57785000D03*
X73355000Y-57785000D03*
D15*
X78485000Y-65580000D03*
X83185000Y-62580000D03*
X83185000Y-68580000D03*
D16*
X83185000Y-73660000D03*
D17*
X83185000Y-77160000D03*
X164465000Y-72390000D03*
D18*
X164465000Y-62230000D03*
D17*
X130810000Y-104775000D03*
X125810000Y-104775000D03*
D19*
X113030000Y-100965000D03*
D20*
X115570000Y-100965000D03*
X113030000Y-103505000D03*
X115570000Y-103505000D03*
X113030000Y-106045000D03*
X115570000Y-106045000D03*
X113030000Y-108585000D03*
X115570000Y-108585000D03*
X113030000Y-111125000D03*
X115570000Y-111125000D03*
X113030000Y-113665000D03*
X115570000Y-113665000D03*
X113030000Y-116205000D03*
X115570000Y-116205000D03*
X113030000Y-118745000D03*
X115570000Y-118745000D03*
X113030000Y-121285000D03*
X115570000Y-121285000D03*
X113030000Y-123825000D03*
X115570000Y-123825000D03*
D21*
X157480000Y-84471000D03*
D22*
X167480000Y-79471000D03*
X167480000Y-89471000D03*
D21*
X157480000Y-76971000D03*
X157480000Y-91971000D03*
X154980000Y-79471000D03*
X154980000Y-89471000D03*
X154980000Y-109791000D03*
X154980000Y-99791000D03*
X157480000Y-112291000D03*
X157480000Y-97291000D03*
D22*
X167480000Y-109791000D03*
X167480000Y-99791000D03*
D21*
X157480000Y-104791000D03*
X154980000Y-130111000D03*
X154980000Y-120111000D03*
X157480000Y-132611000D03*
X157480000Y-117611000D03*
D22*
X167480000Y-130111000D03*
X167480000Y-120111000D03*
D21*
X157480000Y-125111000D03*
D17*
X149225000Y-76200000D03*
D18*
X139065000Y-76200000D03*
X135255000Y-114935000D03*
D17*
X145415000Y-114935000D03*
D18*
X94107000Y-131064000D03*
D17*
X94107000Y-141224000D03*
X97409000Y-141224000D03*
D18*
X97409000Y-131064000D03*
X135255000Y-123825000D03*
D17*
X145415000Y-123825000D03*
X118999000Y-142875000D03*
D18*
X108839000Y-142875000D03*
D17*
X108839000Y-139700000D03*
D18*
X118999000Y-139700000D03*
X131572000Y-142875000D03*
D17*
X121412000Y-142875000D03*
D18*
X121412000Y-139700000D03*
D17*
X131572000Y-139700000D03*
X85598000Y-101848999D03*
D18*
X85598000Y-112008999D03*
X89408000Y-112014000D03*
D17*
X89408000Y-101854000D03*
X145415000Y-120015000D03*
D18*
X135255000Y-120015000D03*
D17*
X168275000Y-72390000D03*
D18*
X168275000Y-62230000D03*
X145415000Y-108585000D03*
D17*
X135255000Y-108585000D03*
X135255000Y-111760000D03*
D18*
X145415000Y-111760000D03*
X132080000Y-108585000D03*
X124460000Y-123825000D03*
X132080000Y-111125000D03*
X124460000Y-121285000D03*
X132080000Y-113665000D03*
X124460000Y-118745000D03*
X132080000Y-116205000D03*
X124460000Y-116205000D03*
X132080000Y-118745000D03*
X124460000Y-113665000D03*
X132080000Y-121285000D03*
X124460000Y-111125000D03*
X132080000Y-123825000D03*
D16*
X124460000Y-108585000D03*
D23*
X74933001Y-133528999D03*
D24*
X79939001Y-128528999D03*
X79939001Y-138528999D03*
X79939001Y-131028999D03*
X79939001Y-136028999D03*
X79939001Y-122688999D03*
X79939001Y-117688999D03*
X79939001Y-125188999D03*
X79939001Y-115188999D03*
D23*
X74933001Y-120188999D03*
X74933001Y-106848999D03*
D24*
X79939001Y-101848999D03*
X79939001Y-111848999D03*
X79939001Y-104348999D03*
X79939001Y-109348999D03*
D25*
X120650000Y-121255000D03*
X120650000Y-122555000D03*
X120650000Y-123855000D03*
X120650000Y-112425000D03*
X120650000Y-111125000D03*
X120650000Y-109825000D03*
X120650000Y-115540000D03*
X120650000Y-116840000D03*
X120650000Y-118140000D03*
D26*
X88646000Y-144399000D03*
D27*
X91186000Y-144399000D03*
X99822000Y-144399000D03*
D26*
X97282000Y-144399000D03*
D20*
X146304000Y-146177000D03*
X148844000Y-146177000D03*
X151384000Y-146177000D03*
D19*
X153924000Y-146177000D03*
D28*
X136652000Y-153835000D03*
X111760000Y-98425000D03*
X94107000Y-111125000D03*
X94107000Y-105029000D03*
X118935000Y-100965000D03*
X90741500Y-106045000D03*
D29*
X118745000Y-113665000D03*
X120015000Y-128270000D03*
X119380000Y-109855000D03*
X119380000Y-115570018D03*
X119380000Y-120650000D03*
D28*
X127000000Y-151765000D03*
D30*
X113030000Y-103505000D02*
X115570000Y-103505000D01*
X97282000Y-144399000D02*
X97282000Y-145034000D01*
X97282000Y-144399000D02*
X97282000Y-145542000D01*
X97282000Y-145542000D02*
X98044000Y-146304000D01*
X88646000Y-145542000D02*
X88646000Y-144399000D01*
X89408000Y-146304000D02*
X88646000Y-145542000D01*
X98044000Y-146304000D02*
X89408000Y-146304000D01*
X105067000Y-153835000D02*
X136652000Y-153835000D01*
X102870000Y-151638000D02*
X105067000Y-153835000D01*
X102235000Y-146304000D02*
X102870000Y-146939000D01*
X102870000Y-146939000D02*
X102870000Y-151638000D01*
X98044000Y-146304000D02*
X102235000Y-146304000D01*
X113030000Y-100965000D02*
X113030000Y-86360000D01*
X113030000Y-86360000D02*
X112395000Y-85725000D01*
X112395000Y-85725000D02*
X102235000Y-85725000D01*
X102235000Y-85725000D02*
X101600000Y-85090000D01*
X101600000Y-81280000D02*
X101600000Y-85090000D01*
X83185000Y-68580000D02*
X83185000Y-73660000D01*
X85725000Y-97790000D02*
X86360000Y-98425000D01*
X85725000Y-76200000D02*
X85725000Y-97790000D01*
X83185000Y-73660000D02*
X85725000Y-76200000D01*
X94107000Y-131064000D02*
X94107000Y-111125000D01*
X94107000Y-105029000D02*
X94107000Y-98425000D01*
X94107000Y-98425000D02*
X111760000Y-98425000D01*
X86360000Y-98425000D02*
X94107000Y-98425000D01*
X132080000Y-108585000D02*
X132080000Y-107315000D01*
X132080000Y-107315000D02*
X131445000Y-106680000D01*
X130810000Y-104775000D02*
X130810000Y-106680000D01*
X131445000Y-106680000D02*
X130810000Y-106680000D01*
X132080000Y-108585000D02*
X135255000Y-108585000D01*
X135255000Y-111760000D02*
X135255000Y-108585000D01*
X164465000Y-72390000D02*
X164465000Y-66675000D01*
X164465000Y-66675000D02*
X162560000Y-64770000D01*
X162560000Y-64770000D02*
X159385000Y-64770000D01*
X159385000Y-64770000D02*
X151130000Y-73025000D01*
X151130000Y-73025000D02*
X137795000Y-73025000D01*
X118935000Y-91885000D02*
X118935000Y-100965000D01*
X137795000Y-73025000D02*
X118935000Y-91885000D01*
X120650000Y-106680000D02*
X130810000Y-106680000D01*
X118935000Y-104965000D02*
X120650000Y-106680000D01*
X118935000Y-100965000D02*
X118935000Y-104965000D01*
D31*
X151645000Y-76200000D02*
X158035000Y-69810000D01*
X149225000Y-76200000D02*
X151645000Y-76200000D01*
X164465000Y-62230000D02*
X149225000Y-62230000D01*
X148035000Y-63420000D02*
X148035000Y-69810000D01*
X149225000Y-62230000D02*
X148035000Y-63420000D01*
X154980000Y-96917499D02*
X154980000Y-89471000D01*
X142875000Y-109022499D02*
X154980000Y-96917499D01*
X142875000Y-123190000D02*
X142875000Y-109022499D01*
X143510000Y-123825000D02*
X142875000Y-123190000D01*
X145415000Y-123825000D02*
X143510000Y-123825000D01*
X154980000Y-79471000D02*
X161829000Y-79471000D01*
X161829000Y-79471000D02*
X166370000Y-74930000D01*
X166370000Y-74930000D02*
X166370000Y-64135000D01*
X166370000Y-64135000D02*
X168275000Y-62230000D01*
X132080000Y-123825000D02*
X135255000Y-123825000D01*
X146939000Y-147955000D02*
X146304000Y-147320000D01*
X155575000Y-147193000D02*
X154813000Y-147955000D01*
X155575000Y-143764000D02*
X155575000Y-147193000D01*
X146304000Y-147320000D02*
X146304000Y-146177000D01*
X154813000Y-147955000D02*
X146939000Y-147955000D01*
X154813000Y-143002000D02*
X155575000Y-143764000D01*
X144907000Y-143002000D02*
X154813000Y-143002000D01*
X144145000Y-142240000D02*
X144907000Y-143002000D01*
X144145000Y-127000000D02*
X144145000Y-142240000D01*
X142875000Y-125730000D02*
X144145000Y-127000000D01*
X113665000Y-125730000D02*
X142875000Y-125730000D01*
X113030000Y-125095000D02*
X113665000Y-125730000D01*
X113030000Y-123825000D02*
X113030000Y-125095000D01*
X144399000Y-143764000D02*
X153289000Y-143764000D01*
X153289000Y-143764000D02*
X153924000Y-144399000D01*
X143510000Y-142875000D02*
X144399000Y-143764000D01*
X142240000Y-126365000D02*
X143510000Y-127635000D01*
X111760000Y-126365000D02*
X142240000Y-126365000D01*
X153924000Y-144399000D02*
X153924000Y-146177000D01*
X111125000Y-125730000D02*
X111760000Y-126365000D01*
X111125000Y-121920000D02*
X111125000Y-125730000D01*
X111760000Y-121285000D02*
X111125000Y-121920000D01*
X143510000Y-127635000D02*
X143510000Y-142875000D01*
X113030000Y-121285000D02*
X111760000Y-121285000D01*
X110490000Y-119380000D02*
X111125000Y-118745000D01*
X110490000Y-126365000D02*
X110490000Y-119380000D01*
X141605000Y-127000000D02*
X111125000Y-127000000D01*
X142875000Y-143510000D02*
X142875000Y-128270000D01*
X111125000Y-118745000D02*
X113030000Y-118745000D01*
X142875000Y-128270000D02*
X141605000Y-127000000D01*
X143891000Y-144526000D02*
X142875000Y-143510000D01*
X150939500Y-144526000D02*
X143891000Y-144526000D01*
X151384000Y-144970500D02*
X150939500Y-144526000D01*
X111125000Y-127000000D02*
X110490000Y-126365000D01*
X151384000Y-146177000D02*
X151384000Y-144970500D01*
D30*
X113030000Y-106045000D02*
X115570000Y-106045000D01*
X125338000Y-147066000D02*
X125338000Y-149566000D01*
X110022000Y-147066000D02*
X110022000Y-149566000D01*
X113030000Y-106045000D02*
X90741500Y-106045000D01*
X92964000Y-108585000D02*
X113030000Y-108585000D01*
X89408000Y-101854000D02*
X89408000Y-107188000D01*
X90805000Y-108585000D02*
X92964000Y-108585000D01*
X89408000Y-107188000D02*
X90805000Y-108585000D01*
X85598000Y-112008999D02*
X85598000Y-110744000D01*
X85598000Y-110744000D02*
X86487000Y-109855000D01*
X114300000Y-109855000D02*
X115570000Y-108585000D01*
X86487000Y-109855000D02*
X114300000Y-109855000D01*
D31*
X119380000Y-108585000D02*
X124460000Y-108585000D01*
X118745000Y-109220000D02*
X119380000Y-108585000D01*
X120650000Y-112425000D02*
X118775000Y-112425000D01*
X118745000Y-112395000D02*
X118745000Y-109220000D01*
X118775000Y-112425000D02*
X118745000Y-112395000D01*
X118745000Y-113030000D02*
X118745000Y-112395000D01*
X120620000Y-118110000D02*
X120650000Y-118140000D01*
X118745000Y-118110000D02*
X120620000Y-118110000D01*
X118745000Y-118110000D02*
X118745000Y-123190000D01*
X119410000Y-123855000D02*
X120650000Y-123855000D01*
X118745000Y-123190000D02*
X119410000Y-123855000D01*
X118745000Y-113030000D02*
X118745000Y-113665000D01*
X118745000Y-113665000D02*
X118745000Y-118110000D01*
X149836000Y-114935000D02*
X145415000Y-114935000D01*
X154980000Y-109791000D02*
X149836000Y-114935000D01*
X154209000Y-99791000D02*
X154980000Y-99791000D01*
X145415000Y-108585000D02*
X154209000Y-99791000D01*
X145415000Y-120015000D02*
X149860000Y-120015000D01*
X154980000Y-125135000D02*
X154980000Y-130111000D01*
X149860000Y-120015000D02*
X154980000Y-125135000D01*
X145415000Y-111760000D02*
X144145000Y-111760000D01*
X144145000Y-111760000D02*
X143510000Y-112395000D01*
X143510000Y-112395000D02*
X143510000Y-116205000D01*
X143510000Y-116205000D02*
X144145000Y-116840000D01*
X144145000Y-116840000D02*
X151765000Y-116840000D01*
X151765000Y-116896000D02*
X154980000Y-120111000D01*
X151765000Y-116840000D02*
X151765000Y-116896000D01*
X129540000Y-116205000D02*
X124460000Y-116205000D01*
X130810000Y-114935000D02*
X129540000Y-116205000D01*
X135255000Y-114935000D02*
X130810000Y-114935000D01*
X112141000Y-131064000D02*
X97409000Y-131064000D01*
X120015000Y-128270000D02*
X120015000Y-128905000D01*
X117856000Y-131064000D02*
X112141000Y-131064000D01*
X120015000Y-128905000D02*
X117856000Y-131064000D01*
D30*
X118999000Y-142875000D02*
X121412000Y-142875000D01*
X79939001Y-101848999D02*
X85598000Y-101848999D01*
X77216000Y-103187500D02*
X78554501Y-101848999D01*
X82550000Y-113538000D02*
X77914500Y-113538000D01*
X78554501Y-101848999D02*
X79939001Y-101848999D01*
X86931500Y-134810500D02*
X86931500Y-117919500D01*
X77216000Y-112839500D02*
X77216000Y-103187500D01*
X77914500Y-113538000D02*
X77216000Y-112839500D01*
X86931500Y-117919500D02*
X82550000Y-113538000D01*
X87820500Y-135699500D02*
X86931500Y-134810500D01*
X111569500Y-135699500D02*
X87820500Y-135699500D01*
X118745000Y-142875000D02*
X111569500Y-135699500D01*
X118999000Y-142875000D02*
X118745000Y-142875000D01*
X118999000Y-139700000D02*
X121412000Y-139700000D01*
X82524501Y-111848999D02*
X79939001Y-111848999D01*
X84531002Y-113855500D02*
X82524501Y-111848999D01*
X89408000Y-112014000D02*
X89408000Y-113855500D01*
X89408000Y-113855500D02*
X88074500Y-113855500D01*
X88074500Y-113855500D02*
X84531002Y-113855500D01*
X117475000Y-139700000D02*
X118999000Y-139700000D01*
X112649000Y-134874000D02*
X117475000Y-139700000D01*
X89281000Y-134874000D02*
X112649000Y-134874000D01*
X88074500Y-133667500D02*
X89281000Y-134874000D01*
X88074500Y-113855500D02*
X88074500Y-133667500D01*
D31*
X129540000Y-121285000D02*
X124460000Y-121285000D01*
X130810000Y-120015000D02*
X129540000Y-121285000D01*
X135255000Y-120015000D02*
X130810000Y-120015000D01*
X120620000Y-109855000D02*
X120650000Y-109825000D01*
X119380000Y-109855000D02*
X120620000Y-109855000D01*
X120650000Y-115540000D02*
X119410018Y-115540000D01*
X119410018Y-115540000D02*
X119380000Y-115570018D01*
X119985000Y-121255000D02*
X119380000Y-120650000D01*
X120650000Y-121255000D02*
X119985000Y-121255000D01*
X130810000Y-122555000D02*
X132080000Y-121285000D01*
X120650000Y-122555000D02*
X130810000Y-122555000D01*
X120650000Y-111125000D02*
X121920000Y-111125000D01*
X121920000Y-111125000D02*
X122555000Y-111760000D01*
X122555000Y-111760000D02*
X122555000Y-113030000D01*
X123190000Y-113665000D02*
X124460000Y-113665000D01*
X122555000Y-113030000D02*
X123190000Y-113665000D01*
X120650000Y-116840000D02*
X122555000Y-116840000D01*
X122555000Y-116840000D02*
X124460000Y-118745000D01*
X93662500Y-141224000D02*
X94107000Y-141224000D01*
X91186000Y-143700500D02*
X93662500Y-141224000D01*
X91186000Y-144399000D02*
X91186000Y-143700500D01*
X97853500Y-141224000D02*
X97409000Y-141224000D01*
X99822000Y-143192500D02*
X97853500Y-141224000D01*
X99822000Y-144399000D02*
X99822000Y-143192500D01*
X104775000Y-85090000D02*
X104140000Y-84455000D01*
X104140000Y-84455000D02*
X104140000Y-81280000D01*
X116840000Y-85090000D02*
X104775000Y-85090000D01*
X117475000Y-85725000D02*
X116840000Y-85090000D01*
X117475000Y-120650000D02*
X117475000Y-85725000D01*
X116840000Y-121285000D02*
X117475000Y-120650000D01*
X115570000Y-121285000D02*
X116840000Y-121285000D01*
X115570000Y-123825000D02*
X117475000Y-123825000D01*
X117475000Y-123825000D02*
X118110000Y-123190000D01*
X118110000Y-123190000D02*
X118110000Y-85090000D01*
X118110000Y-85090000D02*
X117475000Y-84455000D01*
X117475000Y-84455000D02*
X107315000Y-84455000D01*
X107315000Y-84455000D02*
X106680000Y-83820000D01*
X106680000Y-83820000D02*
X106680000Y-81280000D01*
D30*
X82291001Y-128528999D02*
X79939001Y-128528999D01*
X83185000Y-129422998D02*
X82291001Y-128528999D01*
X83185000Y-136525000D02*
X83185000Y-129422998D01*
X84836000Y-138176000D02*
X83185000Y-136525000D01*
X109410500Y-138176000D02*
X84836000Y-138176000D01*
X115022000Y-143787500D02*
X109410500Y-138176000D01*
X115022000Y-147066000D02*
X115022000Y-143787500D01*
X80411502Y-139001500D02*
X79939001Y-138528999D01*
X105410000Y-140335000D02*
X104076500Y-139001500D01*
X105410000Y-151130000D02*
X105410000Y-140335000D01*
X104076500Y-139001500D02*
X80411502Y-139001500D01*
X106680000Y-152400000D02*
X105410000Y-151130000D01*
X113665000Y-152400000D02*
X106680000Y-152400000D01*
X115022000Y-151043000D02*
X113665000Y-152400000D01*
X115022000Y-149566000D02*
X115022000Y-151043000D01*
X117475000Y-151130000D02*
X118110000Y-151765000D01*
X109982000Y-137414000D02*
X117475000Y-144907000D01*
X85979000Y-137414000D02*
X109982000Y-137414000D01*
X84455000Y-135890000D02*
X85979000Y-137414000D01*
X118110000Y-151765000D02*
X127000000Y-151765000D01*
X117475000Y-144907000D02*
X117475000Y-151130000D01*
X84455000Y-126365000D02*
X84455000Y-135890000D01*
X83278999Y-125188999D02*
X84455000Y-126365000D01*
X79939001Y-125188999D02*
X83278999Y-125188999D01*
X85725000Y-118110000D02*
X82803999Y-115188999D01*
X86995000Y-136525000D02*
X85725000Y-135255000D01*
X110617000Y-136525000D02*
X86995000Y-136525000D01*
X119507000Y-145415000D02*
X110617000Y-136525000D01*
X85725000Y-135255000D02*
X85725000Y-118110000D01*
X129540000Y-145415000D02*
X119507000Y-145415000D01*
X130338000Y-146213000D02*
X129540000Y-145415000D01*
X82803999Y-115188999D02*
X79939001Y-115188999D01*
X130338000Y-147066000D02*
X130338000Y-146213000D01*
X112522000Y-147066000D02*
X112522000Y-143637000D01*
X111760000Y-142875000D02*
X108839000Y-142875000D01*
X112522000Y-143637000D02*
X111760000Y-142875000D01*
X112522000Y-150368000D02*
X112522000Y-149566000D01*
X107315000Y-151130000D02*
X111760000Y-151130000D01*
X106680000Y-150495000D02*
X107315000Y-151130000D01*
X111760000Y-151130000D02*
X112522000Y-150368000D01*
X107315000Y-139700000D02*
X106680000Y-140335000D01*
X108839000Y-139700000D02*
X107315000Y-139700000D01*
X106680000Y-140335000D02*
X106680000Y-150495000D01*
X127838000Y-149566000D02*
X127929000Y-149566000D01*
X133350000Y-139700000D02*
X131572000Y-139700000D01*
X134620000Y-140970000D02*
X133350000Y-139700000D01*
X134620000Y-150495000D02*
X134620000Y-140970000D01*
X133350000Y-151765000D02*
X134620000Y-150495000D01*
X128905000Y-151765000D02*
X133350000Y-151765000D01*
X127838000Y-150698000D02*
X128905000Y-151765000D01*
X127838000Y-149566000D02*
X127838000Y-150698000D01*
M02*
