G04 #@! TF.GenerationSoftware,KiCad,Pcbnew,(5.1.8)-1*
G04 #@! TF.CreationDate,2022-02-20T17:41:48+01:00*
G04 #@! TF.ProjectId,BulkyMIDI-32 Extras,42756c6b-794d-4494-9449-2d3332204578,rev?*
G04 #@! TF.SameCoordinates,Original*
G04 #@! TF.FileFunction,Copper,L1,Top*
G04 #@! TF.FilePolarity,Positive*
%FSLAX46Y46*%
G04 Gerber Fmt 4.6, Leading zero omitted, Abs format (unit mm)*
G04 Created by KiCad (PCBNEW (5.1.8)-1) date 2022-02-20 17:41:48*
%MOMM*%
%LPD*%
G01*
G04 APERTURE LIST*
G04 #@! TA.AperFunction,ComponentPad*
%ADD10C,1.500000*%
G04 #@! TD*
G04 #@! TA.AperFunction,ComponentPad*
%ADD11C,1.600000*%
G04 #@! TD*
G04 #@! TA.AperFunction,WasherPad*
%ADD12C,3.500000*%
G04 #@! TD*
G04 #@! TA.AperFunction,ComponentPad*
%ADD13C,1.524000*%
G04 #@! TD*
G04 #@! TA.AperFunction,ComponentPad*
%ADD14O,2.000000X1.524000*%
G04 #@! TD*
G04 #@! TA.AperFunction,ComponentPad*
%ADD15O,1.800000X2.400000*%
G04 #@! TD*
G04 #@! TA.AperFunction,WasherPad*
%ADD16O,2.400000X1.800000*%
G04 #@! TD*
G04 #@! TA.AperFunction,ComponentPad*
%ADD17R,3.500000X3.500000*%
G04 #@! TD*
G04 #@! TA.AperFunction,ComponentPad*
%ADD18R,1.600000X1.600000*%
G04 #@! TD*
G04 #@! TA.AperFunction,ComponentPad*
%ADD19O,1.600000X1.600000*%
G04 #@! TD*
G04 #@! TA.AperFunction,ComponentPad*
%ADD20R,1.700000X1.700000*%
G04 #@! TD*
G04 #@! TA.AperFunction,ComponentPad*
%ADD21O,1.700000X1.700000*%
G04 #@! TD*
G04 #@! TA.AperFunction,ComponentPad*
%ADD22O,2.400000X1.800000*%
G04 #@! TD*
G04 #@! TA.AperFunction,WasherPad*
%ADD23O,1.800000X2.400000*%
G04 #@! TD*
G04 #@! TA.AperFunction,ComponentPad*
%ADD24R,2.500000X3.500000*%
G04 #@! TD*
G04 #@! TA.AperFunction,ComponentPad*
%ADD25O,3.500000X1.750000*%
G04 #@! TD*
G04 #@! TA.AperFunction,SMDPad,CuDef*
%ADD26R,1.500000X1.000000*%
G04 #@! TD*
G04 #@! TA.AperFunction,ComponentPad*
%ADD27R,1.800000X1.800000*%
G04 #@! TD*
G04 #@! TA.AperFunction,ComponentPad*
%ADD28C,1.800000*%
G04 #@! TD*
G04 #@! TA.AperFunction,ComponentPad*
%ADD29C,2.000000*%
G04 #@! TD*
G04 #@! TA.AperFunction,ComponentPad*
%ADD30R,1.600000X2.400000*%
G04 #@! TD*
G04 #@! TA.AperFunction,ComponentPad*
%ADD31O,1.600000X2.400000*%
G04 #@! TD*
G04 #@! TA.AperFunction,SMDPad,CuDef*
%ADD32C,0.100000*%
G04 #@! TD*
G04 #@! TA.AperFunction,SMDPad,CuDef*
%ADD33R,1.000000X1.500000*%
G04 #@! TD*
G04 #@! TA.AperFunction,ViaPad*
%ADD34C,1.000000*%
G04 #@! TD*
G04 #@! TA.AperFunction,ViaPad*
%ADD35C,0.600000*%
G04 #@! TD*
G04 #@! TA.AperFunction,Conductor*
%ADD36C,0.381000*%
G04 #@! TD*
G04 #@! TA.AperFunction,Conductor*
%ADD37C,0.250000*%
G04 #@! TD*
G04 APERTURE END LIST*
D10*
X100584000Y-102108000D03*
X105464000Y-102108000D03*
D11*
X135255000Y-108585000D03*
X140255000Y-108585000D03*
D12*
X118910000Y-80518000D03*
X91910000Y-80518000D03*
D13*
X109220000Y-81280000D03*
X106680000Y-81280000D03*
X104140000Y-81280000D03*
X101600000Y-81280000D03*
D14*
X130338000Y-149566000D03*
X127838000Y-149566000D03*
X125338000Y-149566000D03*
X130338000Y-147066000D03*
X127838000Y-147066000D03*
X125338000Y-147066000D03*
X115022000Y-149566000D03*
X112522000Y-149566000D03*
X110022000Y-149566000D03*
X115022000Y-147066000D03*
X112522000Y-147066000D03*
X110022000Y-147066000D03*
D15*
X132715000Y-67310000D03*
D16*
X127715000Y-57310000D03*
X137715000Y-57310000D03*
D15*
X125215000Y-67310000D03*
X140215000Y-67310000D03*
X127715000Y-69810000D03*
X137715000Y-69810000D03*
X153035000Y-67310000D03*
D16*
X148035000Y-57310000D03*
X158035000Y-57310000D03*
D15*
X145535000Y-67310000D03*
X160535000Y-67310000D03*
X148035000Y-69810000D03*
X158035000Y-69810000D03*
D12*
X73355000Y-151435000D03*
X167005000Y-57785000D03*
X73355000Y-57785000D03*
D17*
X78485000Y-65580000D03*
X83185000Y-62580000D03*
X83185000Y-68580000D03*
D18*
X129540000Y-101854000D03*
D11*
X133040000Y-101854000D03*
X167894000Y-62230000D03*
D19*
X167894000Y-72390000D03*
D20*
X113030000Y-100965000D03*
D21*
X115570000Y-100965000D03*
X113030000Y-103505000D03*
X115570000Y-103505000D03*
X113030000Y-106045000D03*
X115570000Y-106045000D03*
X113030000Y-108585000D03*
X115570000Y-108585000D03*
X113030000Y-111125000D03*
X115570000Y-111125000D03*
X113030000Y-113665000D03*
X115570000Y-113665000D03*
X113030000Y-116205000D03*
X115570000Y-116205000D03*
X113030000Y-118745000D03*
X115570000Y-118745000D03*
X113030000Y-121285000D03*
X115570000Y-121285000D03*
X113030000Y-123825000D03*
X115570000Y-123825000D03*
D22*
X157480000Y-84471000D03*
D23*
X167480000Y-79471000D03*
X167480000Y-89471000D03*
D22*
X157480000Y-76971000D03*
X157480000Y-91971000D03*
X154980000Y-79471000D03*
X154980000Y-89471000D03*
X154980000Y-109791000D03*
X154980000Y-99791000D03*
X157480000Y-112291000D03*
X157480000Y-97291000D03*
D23*
X167480000Y-109791000D03*
X167480000Y-99791000D03*
D22*
X157480000Y-104791000D03*
X154980000Y-130111000D03*
X154980000Y-120111000D03*
X157480000Y-132611000D03*
X157480000Y-117611000D03*
D23*
X167480000Y-130111000D03*
X167480000Y-120111000D03*
D22*
X157480000Y-125111000D03*
D11*
X149225000Y-80010000D03*
D19*
X139065000Y-80010000D03*
X135255000Y-114935000D03*
D11*
X145415000Y-114935000D03*
D19*
X94107000Y-131064000D03*
D11*
X94107000Y-141224000D03*
X97409000Y-141224000D03*
D19*
X97409000Y-131064000D03*
X135255000Y-123825000D03*
D11*
X145415000Y-123825000D03*
X118999000Y-142875000D03*
D19*
X108839000Y-142875000D03*
D11*
X108839000Y-139700000D03*
D19*
X118999000Y-139700000D03*
X131572000Y-142875000D03*
D11*
X121412000Y-142875000D03*
D19*
X121412000Y-139700000D03*
D11*
X131572000Y-139700000D03*
X85598000Y-101848999D03*
D19*
X85598000Y-112008999D03*
X89408000Y-101854000D03*
D11*
X89408000Y-112014000D03*
X145415000Y-120015000D03*
D19*
X135255000Y-120015000D03*
D11*
X164084000Y-62230000D03*
D19*
X164084000Y-72390000D03*
X149225000Y-87630000D03*
D11*
X139065000Y-87630000D03*
X135255000Y-111760000D03*
D19*
X145415000Y-111760000D03*
X132080000Y-108585000D03*
X124460000Y-123825000D03*
X132080000Y-111125000D03*
X124460000Y-121285000D03*
X132080000Y-113665000D03*
X124460000Y-118745000D03*
X132080000Y-116205000D03*
X124460000Y-116205000D03*
X132080000Y-118745000D03*
X124460000Y-113665000D03*
X132080000Y-121285000D03*
X124460000Y-111125000D03*
X132080000Y-123825000D03*
D18*
X124460000Y-108585000D03*
D24*
X74933001Y-133528999D03*
D25*
X79939001Y-128528999D03*
X79939001Y-138528999D03*
X79939001Y-131028999D03*
X79939001Y-136028999D03*
X79939001Y-122688999D03*
X79939001Y-117688999D03*
X79939001Y-125188999D03*
X79939001Y-115188999D03*
D24*
X74933001Y-120188999D03*
X74933001Y-106848999D03*
D25*
X79939001Y-101848999D03*
X79939001Y-111848999D03*
X79939001Y-104348999D03*
X79939001Y-109348999D03*
D26*
X120650000Y-121255000D03*
X120650000Y-122555000D03*
X120650000Y-123855000D03*
X120650000Y-112425000D03*
X120650000Y-111125000D03*
X120650000Y-109825000D03*
X120650000Y-115540000D03*
X120650000Y-116840000D03*
X120650000Y-118140000D03*
D27*
X88646000Y-144399000D03*
D28*
X91186000Y-144399000D03*
X99822000Y-144399000D03*
D27*
X97282000Y-144399000D03*
D21*
X146304000Y-146177000D03*
X148844000Y-146177000D03*
X151384000Y-146177000D03*
D20*
X153924000Y-146177000D03*
D11*
X95097600Y-104648000D03*
X95097600Y-99648000D03*
X100076000Y-107696000D03*
X95076000Y-107696000D03*
X107616000Y-107696000D03*
X102616000Y-107696000D03*
X76374000Y-97790000D03*
X71374000Y-97790000D03*
D18*
X127635000Y-86995000D03*
D19*
X135255000Y-86995000D03*
D20*
X97790000Y-84455000D03*
D21*
X95250000Y-84455000D03*
X92710000Y-84455000D03*
X90170000Y-84455000D03*
X87630000Y-84455000D03*
X85090000Y-84455000D03*
D20*
X72644000Y-89154000D03*
D21*
X75184000Y-89154000D03*
X72644000Y-91694000D03*
X75184000Y-91694000D03*
X72644000Y-94234000D03*
X75184000Y-94234000D03*
D20*
X121285000Y-93345000D03*
D21*
X123825000Y-93345000D03*
D20*
X121285000Y-95885000D03*
D21*
X123825000Y-95885000D03*
X121285000Y-98425000D03*
X123825000Y-98425000D03*
D20*
X101600000Y-84455000D03*
D21*
X104140000Y-84455000D03*
X106680000Y-84455000D03*
X109220000Y-84455000D03*
D12*
X167005000Y-151435000D03*
D11*
X81915000Y-84582000D03*
D19*
X71755000Y-84582000D03*
D11*
X139065000Y-76200000D03*
D19*
X149225000Y-76200000D03*
X139065000Y-83820000D03*
D11*
X149225000Y-83820000D03*
D29*
X72390000Y-78922000D03*
X72390000Y-74422000D03*
X78890000Y-78922000D03*
X78890000Y-74422000D03*
D30*
X79248000Y-96520000D03*
D31*
X112268000Y-88900000D03*
X81788000Y-96520000D03*
X109728000Y-88900000D03*
X84328000Y-96520000D03*
X107188000Y-88900000D03*
X86868000Y-96520000D03*
X104648000Y-88900000D03*
X89408000Y-96520000D03*
X102108000Y-88900000D03*
X91948000Y-96520000D03*
X99568000Y-88900000D03*
X94488000Y-96520000D03*
X97028000Y-88900000D03*
X97028000Y-96520000D03*
X94488000Y-88900000D03*
X99568000Y-96520000D03*
X91948000Y-88900000D03*
X102108000Y-96520000D03*
X89408000Y-88900000D03*
X104648000Y-96520000D03*
X86868000Y-88900000D03*
X107188000Y-96520000D03*
X84328000Y-88900000D03*
X109728000Y-96520000D03*
X81788000Y-88900000D03*
X112268000Y-96520000D03*
X79248000Y-88900000D03*
D30*
X127635000Y-83820000D03*
D31*
X135255000Y-76200000D03*
X130175000Y-83820000D03*
X132715000Y-76200000D03*
X132715000Y-83820000D03*
X130175000Y-76200000D03*
X135255000Y-83820000D03*
X127635000Y-76200000D03*
G04 #@! TA.AperFunction,SMDPad,CuDef*
D32*
G36*
X115685000Y-83705000D02*
G01*
X116235000Y-83705000D01*
X116235000Y-83705602D01*
X116259534Y-83705602D01*
X116308365Y-83710412D01*
X116356490Y-83719984D01*
X116403445Y-83734228D01*
X116448778Y-83753005D01*
X116492051Y-83776136D01*
X116532850Y-83803396D01*
X116570779Y-83834524D01*
X116605476Y-83869221D01*
X116636604Y-83907150D01*
X116663864Y-83947949D01*
X116686995Y-83991222D01*
X116705772Y-84036555D01*
X116720016Y-84083510D01*
X116729588Y-84131635D01*
X116734398Y-84180466D01*
X116734398Y-84205000D01*
X116735000Y-84205000D01*
X116735000Y-84705000D01*
X116734398Y-84705000D01*
X116734398Y-84729534D01*
X116729588Y-84778365D01*
X116720016Y-84826490D01*
X116705772Y-84873445D01*
X116686995Y-84918778D01*
X116663864Y-84962051D01*
X116636604Y-85002850D01*
X116605476Y-85040779D01*
X116570779Y-85075476D01*
X116532850Y-85106604D01*
X116492051Y-85133864D01*
X116448778Y-85156995D01*
X116403445Y-85175772D01*
X116356490Y-85190016D01*
X116308365Y-85199588D01*
X116259534Y-85204398D01*
X116235000Y-85204398D01*
X116235000Y-85205000D01*
X115685000Y-85205000D01*
X115685000Y-83705000D01*
G37*
G04 #@! TD.AperFunction*
G04 #@! TA.AperFunction,SMDPad,CuDef*
G36*
X113635000Y-85204398D02*
G01*
X113610466Y-85204398D01*
X113561635Y-85199588D01*
X113513510Y-85190016D01*
X113466555Y-85175772D01*
X113421222Y-85156995D01*
X113377949Y-85133864D01*
X113337150Y-85106604D01*
X113299221Y-85075476D01*
X113264524Y-85040779D01*
X113233396Y-85002850D01*
X113206136Y-84962051D01*
X113183005Y-84918778D01*
X113164228Y-84873445D01*
X113149984Y-84826490D01*
X113140412Y-84778365D01*
X113135602Y-84729534D01*
X113135602Y-84705000D01*
X113135000Y-84705000D01*
X113135000Y-84205000D01*
X113135602Y-84205000D01*
X113135602Y-84180466D01*
X113140412Y-84131635D01*
X113149984Y-84083510D01*
X113164228Y-84036555D01*
X113183005Y-83991222D01*
X113206136Y-83947949D01*
X113233396Y-83907150D01*
X113264524Y-83869221D01*
X113299221Y-83834524D01*
X113337150Y-83803396D01*
X113377949Y-83776136D01*
X113421222Y-83753005D01*
X113466555Y-83734228D01*
X113513510Y-83719984D01*
X113561635Y-83710412D01*
X113610466Y-83705602D01*
X113635000Y-83705602D01*
X113635000Y-83705000D01*
X114185000Y-83705000D01*
X114185000Y-85205000D01*
X113635000Y-85205000D01*
X113635000Y-85204398D01*
G37*
G04 #@! TD.AperFunction*
D33*
X114935000Y-84455000D03*
X120396000Y-84328000D03*
G04 #@! TA.AperFunction,SMDPad,CuDef*
D32*
G36*
X119096000Y-85077398D02*
G01*
X119071466Y-85077398D01*
X119022635Y-85072588D01*
X118974510Y-85063016D01*
X118927555Y-85048772D01*
X118882222Y-85029995D01*
X118838949Y-85006864D01*
X118798150Y-84979604D01*
X118760221Y-84948476D01*
X118725524Y-84913779D01*
X118694396Y-84875850D01*
X118667136Y-84835051D01*
X118644005Y-84791778D01*
X118625228Y-84746445D01*
X118610984Y-84699490D01*
X118601412Y-84651365D01*
X118596602Y-84602534D01*
X118596602Y-84578000D01*
X118596000Y-84578000D01*
X118596000Y-84078000D01*
X118596602Y-84078000D01*
X118596602Y-84053466D01*
X118601412Y-84004635D01*
X118610984Y-83956510D01*
X118625228Y-83909555D01*
X118644005Y-83864222D01*
X118667136Y-83820949D01*
X118694396Y-83780150D01*
X118725524Y-83742221D01*
X118760221Y-83707524D01*
X118798150Y-83676396D01*
X118838949Y-83649136D01*
X118882222Y-83626005D01*
X118927555Y-83607228D01*
X118974510Y-83592984D01*
X119022635Y-83583412D01*
X119071466Y-83578602D01*
X119096000Y-83578602D01*
X119096000Y-83578000D01*
X119646000Y-83578000D01*
X119646000Y-85078000D01*
X119096000Y-85078000D01*
X119096000Y-85077398D01*
G37*
G04 #@! TD.AperFunction*
G04 #@! TA.AperFunction,SMDPad,CuDef*
G36*
X121146000Y-83578000D02*
G01*
X121696000Y-83578000D01*
X121696000Y-83578602D01*
X121720534Y-83578602D01*
X121769365Y-83583412D01*
X121817490Y-83592984D01*
X121864445Y-83607228D01*
X121909778Y-83626005D01*
X121953051Y-83649136D01*
X121993850Y-83676396D01*
X122031779Y-83707524D01*
X122066476Y-83742221D01*
X122097604Y-83780150D01*
X122124864Y-83820949D01*
X122147995Y-83864222D01*
X122166772Y-83909555D01*
X122181016Y-83956510D01*
X122190588Y-84004635D01*
X122195398Y-84053466D01*
X122195398Y-84078000D01*
X122196000Y-84078000D01*
X122196000Y-84578000D01*
X122195398Y-84578000D01*
X122195398Y-84602534D01*
X122190588Y-84651365D01*
X122181016Y-84699490D01*
X122166772Y-84746445D01*
X122147995Y-84791778D01*
X122124864Y-84835051D01*
X122097604Y-84875850D01*
X122066476Y-84913779D01*
X122031779Y-84948476D01*
X121993850Y-84979604D01*
X121953051Y-85006864D01*
X121909778Y-85029995D01*
X121864445Y-85048772D01*
X121817490Y-85063016D01*
X121769365Y-85072588D01*
X121720534Y-85077398D01*
X121696000Y-85077398D01*
X121696000Y-85078000D01*
X121146000Y-85078000D01*
X121146000Y-83578000D01*
G37*
G04 #@! TD.AperFunction*
G04 #@! TA.AperFunction,SMDPad,CuDef*
G36*
X121146000Y-88150000D02*
G01*
X121696000Y-88150000D01*
X121696000Y-88150602D01*
X121720534Y-88150602D01*
X121769365Y-88155412D01*
X121817490Y-88164984D01*
X121864445Y-88179228D01*
X121909778Y-88198005D01*
X121953051Y-88221136D01*
X121993850Y-88248396D01*
X122031779Y-88279524D01*
X122066476Y-88314221D01*
X122097604Y-88352150D01*
X122124864Y-88392949D01*
X122147995Y-88436222D01*
X122166772Y-88481555D01*
X122181016Y-88528510D01*
X122190588Y-88576635D01*
X122195398Y-88625466D01*
X122195398Y-88650000D01*
X122196000Y-88650000D01*
X122196000Y-89150000D01*
X122195398Y-89150000D01*
X122195398Y-89174534D01*
X122190588Y-89223365D01*
X122181016Y-89271490D01*
X122166772Y-89318445D01*
X122147995Y-89363778D01*
X122124864Y-89407051D01*
X122097604Y-89447850D01*
X122066476Y-89485779D01*
X122031779Y-89520476D01*
X121993850Y-89551604D01*
X121953051Y-89578864D01*
X121909778Y-89601995D01*
X121864445Y-89620772D01*
X121817490Y-89635016D01*
X121769365Y-89644588D01*
X121720534Y-89649398D01*
X121696000Y-89649398D01*
X121696000Y-89650000D01*
X121146000Y-89650000D01*
X121146000Y-88150000D01*
G37*
G04 #@! TD.AperFunction*
G04 #@! TA.AperFunction,SMDPad,CuDef*
G36*
X119096000Y-89649398D02*
G01*
X119071466Y-89649398D01*
X119022635Y-89644588D01*
X118974510Y-89635016D01*
X118927555Y-89620772D01*
X118882222Y-89601995D01*
X118838949Y-89578864D01*
X118798150Y-89551604D01*
X118760221Y-89520476D01*
X118725524Y-89485779D01*
X118694396Y-89447850D01*
X118667136Y-89407051D01*
X118644005Y-89363778D01*
X118625228Y-89318445D01*
X118610984Y-89271490D01*
X118601412Y-89223365D01*
X118596602Y-89174534D01*
X118596602Y-89150000D01*
X118596000Y-89150000D01*
X118596000Y-88650000D01*
X118596602Y-88650000D01*
X118596602Y-88625466D01*
X118601412Y-88576635D01*
X118610984Y-88528510D01*
X118625228Y-88481555D01*
X118644005Y-88436222D01*
X118667136Y-88392949D01*
X118694396Y-88352150D01*
X118725524Y-88314221D01*
X118760221Y-88279524D01*
X118798150Y-88248396D01*
X118838949Y-88221136D01*
X118882222Y-88198005D01*
X118927555Y-88179228D01*
X118974510Y-88164984D01*
X119022635Y-88155412D01*
X119071466Y-88150602D01*
X119096000Y-88150602D01*
X119096000Y-88150000D01*
X119646000Y-88150000D01*
X119646000Y-89650000D01*
X119096000Y-89650000D01*
X119096000Y-89649398D01*
G37*
G04 #@! TD.AperFunction*
D33*
X120396000Y-88900000D03*
D11*
X124460000Y-77470000D03*
X124460000Y-82470000D03*
D34*
X136652000Y-153835000D03*
X135636000Y-128016000D03*
X118935000Y-100965000D03*
X89535000Y-116205000D03*
D35*
X120015000Y-128270000D03*
X118745000Y-107950000D03*
X111125000Y-109855000D03*
D34*
X127000000Y-151765000D03*
D35*
X88138000Y-86985000D03*
X136525000Y-78740000D03*
X96012000Y-92964000D03*
X98297994Y-92202000D03*
X95250000Y-93726000D03*
X126365000Y-110490000D03*
X111760000Y-107315000D03*
X117348000Y-82804000D03*
X113537996Y-78994000D03*
X117094000Y-78232000D03*
X117475000Y-92075000D03*
X114671010Y-91440000D03*
X118110000Y-92710000D03*
X114554000Y-92710000D03*
X121696009Y-86898025D03*
X119634000Y-86985000D03*
X119370000Y-120142000D03*
X119380000Y-115544600D03*
X119392702Y-110134400D03*
X118745000Y-113665000D03*
D36*
X97282000Y-144399000D02*
X97282000Y-145034000D01*
X97282000Y-144399000D02*
X97282000Y-145542000D01*
X97282000Y-145542000D02*
X98044000Y-146304000D01*
X88646000Y-145542000D02*
X88646000Y-144399000D01*
X89408000Y-146304000D02*
X88646000Y-145542000D01*
X98044000Y-146304000D02*
X89408000Y-146304000D01*
X105067000Y-153835000D02*
X136652000Y-153835000D01*
X102870000Y-151638000D02*
X105067000Y-153835000D01*
X102235000Y-146304000D02*
X102870000Y-146939000D01*
X102870000Y-146939000D02*
X102870000Y-151638000D01*
X98044000Y-146304000D02*
X102235000Y-146304000D01*
X101600000Y-83820000D02*
X101600000Y-84455000D01*
X110744000Y-82804000D02*
X102616000Y-82804000D01*
X112395000Y-84455000D02*
X110744000Y-82804000D01*
X102616000Y-82804000D02*
X101600000Y-83820000D01*
X113635000Y-84455000D02*
X112395000Y-84455000D01*
X115361512Y-86929104D02*
X113635000Y-85202592D01*
X115316000Y-97448000D02*
X115316000Y-91816954D01*
X115361512Y-91771442D02*
X115361512Y-86929104D01*
X115316000Y-91816954D02*
X115361512Y-91771442D01*
X113030000Y-99734000D02*
X115316000Y-97448000D01*
X113635000Y-85202592D02*
X113635000Y-84455000D01*
X113030000Y-100965000D02*
X113030000Y-99734000D01*
X132080000Y-108585000D02*
X135255000Y-108585000D01*
X127635000Y-76200000D02*
X125730000Y-76200000D01*
X167894000Y-62230000D02*
X164084000Y-62230000D01*
X163284001Y-61430001D02*
X126529999Y-61430001D01*
X164084000Y-62230000D02*
X163284001Y-61430001D01*
X126529999Y-61430001D02*
X126492000Y-61468000D01*
X122555000Y-65405000D02*
X126492000Y-61468000D01*
X124460000Y-76200000D02*
X124460000Y-75565000D01*
X125730000Y-76200000D02*
X124460000Y-76200000D01*
X124460000Y-77470000D02*
X124460000Y-76200000D01*
X99568000Y-88900000D02*
X97028000Y-88900000D01*
X116235000Y-77500000D02*
X116205000Y-77470000D01*
X116235000Y-84455000D02*
X116235000Y-77500000D01*
X116205000Y-77470000D02*
X99568000Y-77470000D01*
X90170000Y-84455000D02*
X90170000Y-83820000D01*
X90170000Y-83820000D02*
X91186000Y-82804000D01*
X96520000Y-82804000D02*
X96550000Y-82834000D01*
X91186000Y-82804000D02*
X96520000Y-82804000D01*
X99538000Y-82834000D02*
X99568000Y-82804000D01*
X96550000Y-82834000D02*
X99538000Y-82834000D01*
X99568000Y-82804000D02*
X99568000Y-77470000D01*
X99568000Y-88900000D02*
X99568000Y-82804000D01*
X83693000Y-82804000D02*
X81915000Y-84582000D01*
X91186000Y-82804000D02*
X83693000Y-82804000D01*
X124460000Y-75565000D02*
X124460000Y-74295000D01*
X94107000Y-132207000D02*
X94107000Y-131064000D01*
X94615000Y-132715000D02*
X94107000Y-132207000D01*
X116713000Y-132715000D02*
X94615000Y-132715000D01*
X121412000Y-128016000D02*
X116713000Y-132715000D01*
X132080000Y-128016000D02*
X121412000Y-128016000D01*
X81915000Y-84582000D02*
X76200000Y-84582000D01*
X75184000Y-85598000D02*
X75184000Y-89154000D01*
X76200000Y-84582000D02*
X75184000Y-85598000D01*
X135636000Y-128016000D02*
X132080000Y-128016000D01*
X94488000Y-97942400D02*
X95097600Y-98552000D01*
X94488000Y-96520000D02*
X94488000Y-97942400D01*
X95097600Y-99648000D02*
X95097600Y-98552000D01*
X94488000Y-93218000D02*
X94488000Y-96520000D01*
X96774000Y-90932000D02*
X94488000Y-93218000D01*
X98552000Y-90932000D02*
X96774000Y-90932000D01*
X99568000Y-89916000D02*
X98552000Y-90932000D01*
X99568000Y-88900000D02*
X99568000Y-89916000D01*
X115570000Y-99314000D02*
X116235000Y-98649000D01*
X115570000Y-100965000D02*
X115570000Y-99314000D01*
X116235000Y-84455000D02*
X116235000Y-98649000D01*
X132080000Y-104394000D02*
X129540000Y-101854000D01*
X132080000Y-108585000D02*
X132080000Y-104394000D01*
X145415000Y-87630000D02*
X139065000Y-87630000D01*
X146685000Y-86360000D02*
X145415000Y-87630000D01*
X124460000Y-74295000D02*
X124460000Y-72390000D01*
X122555000Y-70485000D02*
X122555000Y-65405000D01*
X124460000Y-72390000D02*
X122555000Y-70485000D01*
X117535000Y-76200000D02*
X116235000Y-77500000D01*
X124460000Y-76200000D02*
X117535000Y-76200000D01*
X146685000Y-80010000D02*
X146685000Y-81280000D01*
X140335000Y-73660000D02*
X146685000Y-80010000D01*
X138126446Y-73660000D02*
X140335000Y-73660000D01*
X138126443Y-73660003D02*
X138126446Y-73660000D01*
X137463559Y-73660003D02*
X138126443Y-73660003D01*
X125095000Y-73660000D02*
X137463556Y-73660000D01*
X137463556Y-73660000D02*
X137463559Y-73660003D01*
X124460000Y-74295000D02*
X125095000Y-73660000D01*
X90678000Y-68580000D02*
X99568000Y-77470000D01*
X83185000Y-68580000D02*
X90678000Y-68580000D01*
X147574000Y-83820000D02*
X146685000Y-82931000D01*
X149225000Y-83820000D02*
X147574000Y-83820000D01*
X146685000Y-82931000D02*
X146685000Y-86360000D01*
X146685000Y-81280000D02*
X146685000Y-82931000D01*
X128651000Y-100965000D02*
X129540000Y-101854000D01*
X118935000Y-100965000D02*
X128651000Y-100965000D01*
D37*
X148590000Y-80010000D02*
X149225000Y-80010000D01*
X158035000Y-71200000D02*
X149225000Y-80010000D01*
X158035000Y-69810000D02*
X158035000Y-71200000D01*
X167894000Y-71374000D02*
X167894000Y-72390000D01*
X161925000Y-65405000D02*
X167894000Y-71374000D01*
X152400000Y-65405000D02*
X161925000Y-65405000D01*
X148035000Y-69770000D02*
X152400000Y-65405000D01*
X148035000Y-69810000D02*
X148035000Y-69770000D01*
X143510000Y-123825000D02*
X145415000Y-123825000D01*
X142875000Y-109982000D02*
X142875000Y-123190000D01*
X142875000Y-123190000D02*
X143510000Y-123825000D01*
X151130000Y-101727000D02*
X142875000Y-109982000D01*
X157988000Y-101727000D02*
X151130000Y-101727000D01*
X159385000Y-100330000D02*
X157988000Y-101727000D01*
X159385000Y-90805000D02*
X159385000Y-100330000D01*
X158051000Y-89471000D02*
X159385000Y-90805000D01*
X154980000Y-89471000D02*
X158051000Y-89471000D01*
X164084000Y-73406000D02*
X164084000Y-72390000D01*
X158019000Y-79471000D02*
X164084000Y-73406000D01*
X154980000Y-79471000D02*
X158019000Y-79471000D01*
X132080000Y-123825000D02*
X135255000Y-123825000D01*
X146939000Y-147955000D02*
X146304000Y-147320000D01*
X155575000Y-147193000D02*
X154813000Y-147955000D01*
X155575000Y-143764000D02*
X155575000Y-147193000D01*
X146304000Y-147320000D02*
X146304000Y-146177000D01*
X154813000Y-147955000D02*
X146939000Y-147955000D01*
X154813000Y-143002000D02*
X155575000Y-143764000D01*
X144907000Y-143002000D02*
X154813000Y-143002000D01*
X144145000Y-142240000D02*
X144907000Y-143002000D01*
X144145000Y-127000000D02*
X144145000Y-142240000D01*
X142875000Y-125730000D02*
X144145000Y-127000000D01*
X113665000Y-125730000D02*
X142875000Y-125730000D01*
X113030000Y-125095000D02*
X113665000Y-125730000D01*
X113030000Y-123825000D02*
X113030000Y-125095000D01*
X153289000Y-143764000D02*
X153924000Y-144399000D01*
X144399000Y-143764000D02*
X153289000Y-143764000D01*
X143510000Y-142875000D02*
X144399000Y-143764000D01*
X153924000Y-144399000D02*
X153924000Y-146177000D01*
X143510000Y-127635000D02*
X143510000Y-142875000D01*
X112903000Y-126365000D02*
X142240000Y-126365000D01*
X111125000Y-121920000D02*
X111125000Y-124587000D01*
X142240000Y-126365000D02*
X143510000Y-127635000D01*
X111760000Y-121285000D02*
X111125000Y-121920000D01*
X111125000Y-124587000D02*
X112903000Y-126365000D01*
X113030000Y-121285000D02*
X111760000Y-121285000D01*
X110490000Y-119380000D02*
X111125000Y-118745000D01*
X110490000Y-125222000D02*
X110490000Y-119380000D01*
X112268000Y-127000000D02*
X110490000Y-125222000D01*
X142875000Y-128270000D02*
X141605000Y-127000000D01*
X142875000Y-143510000D02*
X142875000Y-128270000D01*
X143891000Y-144526000D02*
X142875000Y-143510000D01*
X150939500Y-144526000D02*
X143891000Y-144526000D01*
X151384000Y-144970500D02*
X150939500Y-144526000D01*
X111125000Y-118745000D02*
X113030000Y-118745000D01*
X141605000Y-127000000D02*
X112268000Y-127000000D01*
X151384000Y-146177000D02*
X151384000Y-144970500D01*
D36*
X125338000Y-147066000D02*
X125338000Y-149566000D01*
X110022000Y-147066000D02*
X110022000Y-149566000D01*
X115570000Y-116205000D02*
X113030000Y-116205000D01*
X113030000Y-116205000D02*
X89535000Y-116205000D01*
X92710000Y-113665000D02*
X113030000Y-113665000D01*
X89408000Y-112014000D02*
X89408000Y-112903000D01*
X90170000Y-113665000D02*
X92710000Y-113665000D01*
X89408000Y-112903000D02*
X90170000Y-113665000D01*
X113030000Y-111125000D02*
X92075000Y-111125000D01*
X92075000Y-111125000D02*
X91440000Y-110490000D01*
X87116999Y-110490000D02*
X85598000Y-112008999D01*
X91440000Y-110490000D02*
X87116999Y-110490000D01*
D37*
X149836000Y-114935000D02*
X145415000Y-114935000D01*
X154980000Y-109791000D02*
X149836000Y-114935000D01*
X149225000Y-87630000D02*
X149225000Y-97790000D01*
X151226000Y-99791000D02*
X154980000Y-99791000D01*
X149225000Y-97790000D02*
X151226000Y-99791000D01*
X154980000Y-129580000D02*
X154980000Y-130111000D01*
X145415000Y-120015000D02*
X154980000Y-129580000D01*
X153131000Y-120111000D02*
X154980000Y-120111000D01*
X149860000Y-116840000D02*
X153131000Y-120111000D01*
X144145000Y-116840000D02*
X149860000Y-116840000D01*
X143510000Y-116205000D02*
X144145000Y-116840000D01*
X143510000Y-112395000D02*
X143510000Y-116205000D01*
X144145000Y-111760000D02*
X143510000Y-112395000D01*
X145415000Y-111760000D02*
X144145000Y-111760000D01*
X126365000Y-116205000D02*
X124460000Y-116205000D01*
X127635000Y-114935000D02*
X126365000Y-116205000D01*
X135255000Y-114935000D02*
X127635000Y-114935000D01*
X112141000Y-131064000D02*
X97409000Y-131064000D01*
X117221000Y-131064000D02*
X112141000Y-131064000D01*
X120015000Y-128270000D02*
X117221000Y-131064000D01*
D36*
X118999000Y-142875000D02*
X121412000Y-142875000D01*
X79939001Y-101848999D02*
X85598000Y-101848999D01*
X77216000Y-103187500D02*
X78554501Y-101848999D01*
X82550000Y-113538000D02*
X77914500Y-113538000D01*
X78554501Y-101848999D02*
X79939001Y-101848999D01*
X86931500Y-134810500D02*
X86931500Y-117919500D01*
X77216000Y-112839500D02*
X77216000Y-103187500D01*
X77914500Y-113538000D02*
X77216000Y-112839500D01*
X86931500Y-117919500D02*
X82550000Y-113538000D01*
X87820500Y-135699500D02*
X86931500Y-134810500D01*
X111569500Y-135699500D02*
X87820500Y-135699500D01*
X118745000Y-142875000D02*
X111569500Y-135699500D01*
X118999000Y-142875000D02*
X118745000Y-142875000D01*
X118999000Y-139700000D02*
X121412000Y-139700000D01*
X82524501Y-111848999D02*
X79939001Y-111848999D01*
X88074500Y-133667500D02*
X88074500Y-117398998D01*
X89281000Y-134874000D02*
X88074500Y-133667500D01*
X112649000Y-134874000D02*
X89281000Y-134874000D01*
X117475000Y-139700000D02*
X112649000Y-134874000D01*
X118999000Y-139700000D02*
X117475000Y-139700000D01*
X88074500Y-117398998D02*
X83762751Y-113087249D01*
X83762751Y-113087249D02*
X82524501Y-111848999D01*
X89408000Y-104267000D02*
X89408000Y-101854000D01*
X83762751Y-109912249D02*
X89408000Y-104267000D01*
X83762751Y-113087249D02*
X83762751Y-109912249D01*
D37*
X126365000Y-121285000D02*
X124460000Y-121285000D01*
X127635000Y-120015000D02*
X126365000Y-121285000D01*
X135255000Y-120015000D02*
X127635000Y-120015000D01*
X78613000Y-99060000D02*
X77851000Y-98298000D01*
X92075000Y-99060000D02*
X78613000Y-99060000D01*
X92710000Y-99695000D02*
X92075000Y-99060000D01*
X92710000Y-109220000D02*
X92710000Y-99695000D01*
X77851000Y-90297000D02*
X79248000Y-88900000D01*
X93345000Y-109855000D02*
X92710000Y-109220000D01*
X77851000Y-98298000D02*
X77851000Y-90297000D01*
X111125000Y-109855000D02*
X93345000Y-109855000D01*
X119380000Y-107315000D02*
X118745000Y-107950000D01*
X125730000Y-107315000D02*
X119380000Y-107315000D01*
X128270000Y-109855000D02*
X125730000Y-107315000D01*
X136525000Y-109855000D02*
X128270000Y-109855000D01*
X137160000Y-109220000D02*
X136525000Y-109855000D01*
X137160000Y-81915000D02*
X137160000Y-109220000D01*
X139065000Y-80010000D02*
X137160000Y-81915000D01*
X130810000Y-122555000D02*
X132080000Y-121285000D01*
X120650000Y-122555000D02*
X130810000Y-122555000D01*
X120650000Y-111125000D02*
X121920000Y-111125000D01*
X121920000Y-111125000D02*
X122555000Y-111760000D01*
X122555000Y-111760000D02*
X122555000Y-113030000D01*
X123190000Y-113665000D02*
X124460000Y-113665000D01*
X122555000Y-113030000D02*
X123190000Y-113665000D01*
X120650000Y-116840000D02*
X122555000Y-116840000D01*
X122555000Y-116840000D02*
X124460000Y-118745000D01*
X92075000Y-141224000D02*
X94107000Y-141224000D01*
X91186000Y-142113000D02*
X92075000Y-141224000D01*
X91186000Y-144399000D02*
X91186000Y-142113000D01*
X99822000Y-142113000D02*
X98933000Y-141224000D01*
X98933000Y-141224000D02*
X97409000Y-141224000D01*
X99822000Y-144399000D02*
X99822000Y-142113000D01*
D36*
X82291001Y-128528999D02*
X79939001Y-128528999D01*
X83185000Y-129422998D02*
X82291001Y-128528999D01*
X83185000Y-136525000D02*
X83185000Y-129422998D01*
X84836000Y-138176000D02*
X83185000Y-136525000D01*
X109410500Y-138176000D02*
X84836000Y-138176000D01*
X115022000Y-143787500D02*
X109410500Y-138176000D01*
X115022000Y-147066000D02*
X115022000Y-143787500D01*
X113665000Y-152400000D02*
X115022000Y-151043000D01*
X105410000Y-151130000D02*
X106680000Y-152400000D01*
X106680000Y-152400000D02*
X113665000Y-152400000D01*
X105410000Y-140335000D02*
X105410000Y-151130000D01*
X104775000Y-139700000D02*
X105410000Y-140335000D01*
X84264500Y-139700000D02*
X104775000Y-139700000D01*
X83093499Y-138528999D02*
X84264500Y-139700000D01*
X115022000Y-151043000D02*
X115022000Y-149566000D01*
X79939001Y-138528999D02*
X83093499Y-138528999D01*
X117475000Y-151130000D02*
X118110000Y-151765000D01*
X109982000Y-137414000D02*
X117475000Y-144907000D01*
X85979000Y-137414000D02*
X109982000Y-137414000D01*
X84455000Y-135890000D02*
X85979000Y-137414000D01*
X118110000Y-151765000D02*
X127000000Y-151765000D01*
X117475000Y-144907000D02*
X117475000Y-151130000D01*
X84455000Y-126365000D02*
X84455000Y-135890000D01*
X83278999Y-125188999D02*
X84455000Y-126365000D01*
X79939001Y-125188999D02*
X83278999Y-125188999D01*
X85725000Y-118110000D02*
X82803999Y-115188999D01*
X86995000Y-136525000D02*
X85725000Y-135255000D01*
X110617000Y-136525000D02*
X86995000Y-136525000D01*
X119507000Y-145415000D02*
X110617000Y-136525000D01*
X85725000Y-135255000D02*
X85725000Y-118110000D01*
X129540000Y-145415000D02*
X119507000Y-145415000D01*
X130338000Y-146213000D02*
X129540000Y-145415000D01*
X82803999Y-115188999D02*
X79939001Y-115188999D01*
X130338000Y-147066000D02*
X130338000Y-146213000D01*
X112522000Y-147066000D02*
X112522000Y-143637000D01*
X111760000Y-142875000D02*
X108839000Y-142875000D01*
X112522000Y-143637000D02*
X111760000Y-142875000D01*
X112522000Y-150368000D02*
X112522000Y-149566000D01*
X107315000Y-151130000D02*
X111760000Y-151130000D01*
X106680000Y-150495000D02*
X107315000Y-151130000D01*
X111760000Y-151130000D02*
X112522000Y-150368000D01*
X107315000Y-139700000D02*
X106680000Y-140335000D01*
X108839000Y-139700000D02*
X107315000Y-139700000D01*
X106680000Y-140335000D02*
X106680000Y-150495000D01*
X127838000Y-149566000D02*
X127929000Y-149566000D01*
X133350000Y-139700000D02*
X131572000Y-139700000D01*
X134620000Y-140970000D02*
X133350000Y-139700000D01*
X134620000Y-150495000D02*
X134620000Y-140970000D01*
X133350000Y-151765000D02*
X134620000Y-150495000D01*
X128905000Y-151765000D02*
X133350000Y-151765000D01*
X127838000Y-150698000D02*
X128905000Y-151765000D01*
X127838000Y-149566000D02*
X127838000Y-150698000D01*
D37*
X99568000Y-101092000D02*
X100584000Y-102108000D01*
X99568000Y-96520000D02*
X99568000Y-101092000D01*
X100076000Y-102616000D02*
X100584000Y-102108000D01*
X100076000Y-107696000D02*
X100076000Y-102616000D01*
X102108000Y-96520000D02*
X102108000Y-98752000D01*
X102616000Y-99260000D02*
X102516000Y-99160000D01*
X102108000Y-98752000D02*
X102516000Y-99160000D01*
X105464000Y-102108000D02*
X102616000Y-102108000D01*
X102616000Y-102108000D02*
X102616000Y-99260000D01*
X102616000Y-107696000D02*
X102616000Y-102108000D01*
X71755000Y-84582000D02*
X70612000Y-84582000D01*
X76374000Y-97790000D02*
X74168000Y-97790000D01*
X72644000Y-96266000D02*
X72644000Y-94234000D01*
X74168000Y-97790000D02*
X72644000Y-96266000D01*
X72390000Y-78922000D02*
X78890000Y-78922000D01*
X70612000Y-80700000D02*
X72390000Y-78922000D01*
X70612000Y-84582000D02*
X70612000Y-80700000D01*
X70612000Y-85725000D02*
X70612000Y-84582000D01*
X70612000Y-93218000D02*
X70612000Y-85725000D01*
X71628000Y-94234000D02*
X70612000Y-93218000D01*
X72644000Y-94234000D02*
X71628000Y-94234000D01*
X88255000Y-86868000D02*
X88138000Y-86985000D01*
X97790000Y-84455000D02*
X97790000Y-86106000D01*
X96911000Y-86985000D02*
X97790000Y-86106000D01*
X88138000Y-86985000D02*
X96911000Y-86985000D01*
X130175000Y-83820000D02*
X130175000Y-85725000D01*
X128905000Y-86995000D02*
X127635000Y-86995000D01*
X130175000Y-85725000D02*
X128905000Y-86995000D01*
X130175000Y-79375000D02*
X130175000Y-83820000D01*
X136525000Y-78105000D02*
X131445000Y-78105000D01*
X138430000Y-76200000D02*
X136525000Y-78105000D01*
X131445000Y-78105000D02*
X130175000Y-79375000D01*
X139065000Y-76200000D02*
X138430000Y-76200000D01*
X132715000Y-83820000D02*
X132715000Y-85725000D01*
X133985000Y-86995000D02*
X135255000Y-86995000D01*
X132715000Y-85725000D02*
X133985000Y-86995000D01*
X133350000Y-78740000D02*
X136525000Y-78740000D01*
X132715000Y-83820000D02*
X132715000Y-79375000D01*
X132715000Y-79375000D02*
X133350000Y-78740000D01*
X147320000Y-76200000D02*
X149225000Y-76200000D01*
X127715000Y-69810000D02*
X127715000Y-71835000D01*
X127715000Y-71835000D02*
X128270000Y-72390000D01*
X128270000Y-72390000D02*
X140970000Y-72390000D01*
X140970000Y-72390000D02*
X144780000Y-76200000D01*
X144780000Y-76200000D02*
X147320000Y-76200000D01*
X101600000Y-92964000D02*
X96012000Y-92964000D01*
X104648000Y-89916000D02*
X101600000Y-92964000D01*
X104648000Y-88900000D02*
X104648000Y-89916000D01*
X99822000Y-92202000D02*
X98297994Y-92202000D01*
X102108000Y-89916000D02*
X99822000Y-92202000D01*
X102108000Y-88900000D02*
X102108000Y-89916000D01*
X103378000Y-93726000D02*
X95250000Y-93726000D01*
X107188000Y-89916000D02*
X103378000Y-93726000D01*
X107188000Y-88900000D02*
X107188000Y-89916000D01*
X139700000Y-83820000D02*
X139065000Y-83820000D01*
X140335000Y-83185000D02*
X139700000Y-83820000D01*
X140335000Y-74930000D02*
X140335000Y-83185000D01*
X139700000Y-74295000D02*
X140335000Y-74930000D01*
X133350000Y-74295000D02*
X139700000Y-74295000D01*
X132715000Y-74930000D02*
X133350000Y-74295000D01*
X132715000Y-76200000D02*
X132715000Y-74930000D01*
X133350000Y-116205000D02*
X132080000Y-116205000D01*
X136525000Y-116205000D02*
X133350000Y-116205000D01*
X137795000Y-114935000D02*
X136525000Y-116205000D01*
X137795000Y-84455000D02*
X137795000Y-114935000D01*
X138430000Y-83820000D02*
X137795000Y-84455000D01*
X139065000Y-83820000D02*
X138430000Y-83820000D01*
X81788000Y-88900000D02*
X81788000Y-93472000D01*
X81788000Y-93472000D02*
X80518000Y-94742000D01*
X80518000Y-94742000D02*
X80518000Y-97790000D01*
X80518000Y-97790000D02*
X81280000Y-98552000D01*
X81280000Y-98552000D02*
X92837000Y-98552000D01*
X92837000Y-98552000D02*
X93345000Y-99060000D01*
X93345000Y-99060000D02*
X93345000Y-108585000D01*
X93345000Y-108585000D02*
X93980000Y-109220000D01*
X93980000Y-109220000D02*
X109855000Y-109220000D01*
X109855000Y-109220000D02*
X111760000Y-107315000D01*
X126365000Y-112395000D02*
X126365000Y-110490000D01*
X127635000Y-113665000D02*
X126365000Y-112395000D01*
X132080000Y-113665000D02*
X127635000Y-113665000D01*
X120396000Y-84328000D02*
X120396000Y-83328000D01*
X120396000Y-83328000D02*
X119872000Y-82804000D01*
X119872000Y-82804000D02*
X117348000Y-82804000D01*
X106680000Y-80010000D02*
X107696000Y-78994000D01*
X106680000Y-81280000D02*
X106680000Y-80010000D01*
X107696000Y-78994000D02*
X113537996Y-78994000D01*
X120396000Y-88900000D02*
X120396000Y-89916000D01*
X120396000Y-89916000D02*
X121158000Y-90678000D01*
X121158000Y-90678000D02*
X122682000Y-90678000D01*
X122682000Y-90678000D02*
X123190000Y-90170000D01*
X123190000Y-90170000D02*
X123190000Y-78994000D01*
X122428000Y-78232000D02*
X117094000Y-78232000D01*
X123190000Y-78994000D02*
X122428000Y-78232000D01*
D36*
X114935000Y-84455000D02*
X114935000Y-78867000D01*
X114935000Y-78867000D02*
X114300000Y-78232000D01*
X114300000Y-78232000D02*
X102489000Y-78232000D01*
X101600000Y-79121000D02*
X101600000Y-81280000D01*
X102489000Y-78232000D02*
X101600000Y-79121000D01*
D37*
X117475000Y-120650000D02*
X116840000Y-121285000D01*
X116840000Y-121285000D02*
X115570000Y-121285000D01*
X118618000Y-84328000D02*
X117475000Y-85471000D01*
X119096000Y-84328000D02*
X118618000Y-84328000D01*
X117475000Y-85471000D02*
X117475000Y-92075000D01*
X117475000Y-92075000D02*
X117475000Y-120650000D01*
X114671010Y-87493010D02*
X114671010Y-91440000D01*
X113284000Y-86106000D02*
X114671010Y-87493010D01*
X108331000Y-86106000D02*
X113284000Y-86106000D01*
X106680000Y-84455000D02*
X108331000Y-86106000D01*
X118110000Y-89886000D02*
X119096000Y-88900000D01*
X117475000Y-123825000D02*
X118110000Y-123190000D01*
X115570000Y-123825000D02*
X117475000Y-123825000D01*
X118110000Y-91948000D02*
X118110000Y-89886000D01*
X118110000Y-123190000D02*
X118110000Y-92710000D01*
X118110000Y-92710000D02*
X118110000Y-91948000D01*
X114046000Y-92202000D02*
X114554000Y-92710000D01*
X114046000Y-88011000D02*
X114046000Y-92202000D01*
X112649000Y-86614000D02*
X114046000Y-88011000D01*
X106299000Y-86614000D02*
X112649000Y-86614000D01*
X104140000Y-84455000D02*
X106299000Y-86614000D01*
X95250000Y-85090000D02*
X95250000Y-84455000D01*
X121696000Y-88900000D02*
X121696000Y-86898034D01*
X121696000Y-86898034D02*
X121696009Y-86898025D01*
X85598000Y-95250000D02*
X84328000Y-96520000D01*
X85598000Y-87122000D02*
X85598000Y-95250000D01*
X86360000Y-86360000D02*
X85598000Y-87122000D01*
X93345000Y-86360000D02*
X86360000Y-86360000D01*
X95250000Y-84455000D02*
X93345000Y-86360000D01*
X120533000Y-86985000D02*
X119634000Y-86985000D01*
X121696000Y-85822000D02*
X120533000Y-86985000D01*
X121696000Y-84328000D02*
X121696000Y-85822000D01*
X81788000Y-94996000D02*
X81788000Y-96520000D01*
X83058000Y-93726000D02*
X81788000Y-94996000D01*
X83058000Y-87122000D02*
X83058000Y-93726000D01*
X84328000Y-85852000D02*
X83058000Y-87122000D01*
X91313000Y-85852000D02*
X84328000Y-85852000D01*
X92710000Y-84455000D02*
X91313000Y-85852000D01*
X120483000Y-121255000D02*
X119370000Y-120142000D01*
X120650000Y-121255000D02*
X120483000Y-121255000D01*
X120619982Y-115570018D02*
X120650000Y-115540000D01*
X119384600Y-115540000D02*
X119380000Y-115544600D01*
X120650000Y-115540000D02*
X119384600Y-115540000D01*
X119702102Y-109825000D02*
X119392702Y-110134400D01*
X120650000Y-109825000D02*
X119702102Y-109825000D01*
X120650000Y-112425000D02*
X118775000Y-112425000D01*
X118775000Y-112425000D02*
X118745000Y-112395000D01*
X118745000Y-113030000D02*
X118745000Y-112395000D01*
X120620000Y-118110000D02*
X120650000Y-118140000D01*
X118745000Y-118110000D02*
X120620000Y-118110000D01*
X118745000Y-118110000D02*
X118745000Y-123190000D01*
X119410000Y-123855000D02*
X120650000Y-123855000D01*
X118745000Y-123190000D02*
X119410000Y-123855000D01*
X118745000Y-113030000D02*
X118745000Y-113665000D01*
X118745000Y-113665000D02*
X118745000Y-118110000D01*
X118729599Y-109235401D02*
X119380000Y-108585000D01*
X118729599Y-112379599D02*
X118729599Y-109235401D01*
X118745000Y-112395000D02*
X118729599Y-112379599D01*
X119380000Y-108585000D02*
X124460000Y-108585000D01*
M02*
