G04 #@! TF.GenerationSoftware,KiCad,Pcbnew,(5.1.8)-1*
G04 #@! TF.CreationDate,2022-02-10T23:19:11+01:00*
G04 #@! TF.ProjectId,BulkyMIDI-32 Gameport,42756c6b-794d-4494-9449-2d3332204761,rev?*
G04 #@! TF.SameCoordinates,Original*
G04 #@! TF.FileFunction,Legend,Top*
G04 #@! TF.FilePolarity,Positive*
%FSLAX46Y46*%
G04 Gerber Fmt 4.6, Leading zero omitted, Abs format (unit mm)*
G04 Created by KiCad (PCBNEW (5.1.8)-1) date 2022-02-10 23:19:11*
%MOMM*%
%LPD*%
G01*
G04 APERTURE LIST*
%ADD10C,0.150000*%
%ADD11C,0.120000*%
%ADD12C,0.100000*%
G04 APERTURE END LIST*
D10*
X107950000Y-67256000D02*
X118450000Y-67256000D01*
X107950000Y-67256000D02*
X97450000Y-67256000D01*
X97450000Y-69256000D02*
X97450000Y-67256000D01*
X118450000Y-69256000D02*
X97450000Y-69256000D01*
X118450000Y-67256000D02*
X118450000Y-69256000D01*
X99100000Y-86256000D02*
X99100000Y-69256000D01*
X116800000Y-69256000D02*
X116800000Y-86256000D01*
X116800000Y-86256000D02*
X113538000Y-86256000D01*
X113538000Y-83820000D02*
X109982000Y-83820000D01*
X105918000Y-83820000D02*
X102362000Y-83820000D01*
X99100000Y-86256000D02*
X102362000Y-86256000D01*
X113538000Y-86256000D02*
X113538000Y-83820000D01*
X102362000Y-86256000D02*
X102362000Y-83820000D01*
X109982000Y-86256000D02*
X109982000Y-83820000D01*
X105918000Y-86256000D02*
X105918000Y-83820000D01*
D11*
X109982000Y-86256000D02*
X105918000Y-86256000D01*
D10*
X128270000Y-67256000D02*
X138770000Y-67256000D01*
X128270000Y-67256000D02*
X117770000Y-67256000D01*
X117770000Y-69256000D02*
X117770000Y-67256000D01*
X138770000Y-69256000D02*
X117770000Y-69256000D01*
X138770000Y-67256000D02*
X138770000Y-69256000D01*
X119420000Y-86256000D02*
X119420000Y-69256000D01*
X137120000Y-69256000D02*
X137120000Y-86256000D01*
X137120000Y-86256000D02*
X133858000Y-86256000D01*
X133858000Y-83820000D02*
X130302000Y-83820000D01*
X126238000Y-83820000D02*
X122682000Y-83820000D01*
X119420000Y-86256000D02*
X122682000Y-86256000D01*
X133858000Y-86256000D02*
X133858000Y-83820000D01*
X122682000Y-86256000D02*
X122682000Y-83820000D01*
X130302000Y-86256000D02*
X130302000Y-83820000D01*
X126238000Y-86256000D02*
X126238000Y-83820000D01*
D11*
X130302000Y-86256000D02*
X126238000Y-86256000D01*
X104306000Y-98448000D02*
X104306000Y-100688000D01*
X104306000Y-100688000D02*
X108546000Y-100688000D01*
X108546000Y-100688000D02*
X108546000Y-98448000D01*
X108546000Y-98448000D02*
X104306000Y-98448000D01*
X103656000Y-99568000D02*
X104306000Y-99568000D01*
X109196000Y-99568000D02*
X108546000Y-99568000D01*
X105026000Y-98448000D02*
X105026000Y-100688000D01*
X105146000Y-98448000D02*
X105146000Y-100688000D01*
X104906000Y-98448000D02*
X104906000Y-100688000D01*
X99527600Y-104787200D02*
X136727600Y-104787200D01*
X137787600Y-105847200D02*
X137787600Y-116347200D01*
X136727600Y-117407200D02*
X99527600Y-117407200D01*
X98467600Y-116347200D02*
X98467600Y-105847200D01*
X108182600Y-103892862D02*
X108682600Y-103892862D01*
X108682600Y-103892862D02*
X108432600Y-104325875D01*
X108432600Y-104325875D02*
X108182600Y-103892862D01*
X107745911Y-106887200D02*
X128509289Y-106887200D01*
X108645179Y-115307200D02*
X127610021Y-115307200D01*
X130144070Y-108835456D02*
X129244802Y-113935456D01*
X106111130Y-108835456D02*
X107010398Y-113935456D01*
X99527600Y-104787200D02*
G75*
G03*
X98467600Y-105847200I0J-1060000D01*
G01*
X137787600Y-105847200D02*
G75*
G03*
X136727600Y-104787200I-1060000J0D01*
G01*
X99527600Y-117407200D02*
G75*
G02*
X98467600Y-116347200I0J1060000D01*
G01*
X136727600Y-117407200D02*
G75*
G03*
X137787600Y-116347200I0J1060000D01*
G01*
X106111130Y-108835456D02*
G75*
G02*
X107745911Y-106887200I1634781J288256D01*
G01*
X130144070Y-108835456D02*
G75*
G03*
X128509289Y-106887200I-1634781J288256D01*
G01*
X107010398Y-113935456D02*
G75*
G03*
X108645179Y-115307200I1634781J288256D01*
G01*
X129244802Y-113935456D02*
G75*
G02*
X127610021Y-115307200I-1634781J288256D01*
G01*
X113689000Y-102616000D02*
X114459000Y-102616000D01*
X121769000Y-102616000D02*
X120999000Y-102616000D01*
X114459000Y-103986000D02*
X120999000Y-103986000D01*
X114459000Y-101246000D02*
X114459000Y-103986000D01*
X120999000Y-101246000D02*
X114459000Y-101246000D01*
X120999000Y-103986000D02*
X120999000Y-101246000D01*
X135350000Y-103986000D02*
X135350000Y-101246000D01*
X135350000Y-101246000D02*
X128810000Y-101246000D01*
X128810000Y-101246000D02*
X128810000Y-103986000D01*
X128810000Y-103986000D02*
X135350000Y-103986000D01*
X136120000Y-102616000D02*
X135350000Y-102616000D01*
X128040000Y-102616000D02*
X128810000Y-102616000D01*
X136652000Y-97512000D02*
X136652000Y-96742000D01*
X136652000Y-89432000D02*
X136652000Y-90202000D01*
X138022000Y-96742000D02*
X138022000Y-90202000D01*
X135282000Y-96742000D02*
X138022000Y-96742000D01*
X135282000Y-90202000D02*
X135282000Y-96742000D01*
X138022000Y-90202000D02*
X135282000Y-90202000D01*
X107410000Y-103986000D02*
X107410000Y-101246000D01*
X107410000Y-101246000D02*
X100870000Y-101246000D01*
X100870000Y-101246000D02*
X100870000Y-103986000D01*
X100870000Y-103986000D02*
X107410000Y-103986000D01*
X108180000Y-102616000D02*
X107410000Y-102616000D01*
X100100000Y-102616000D02*
X100870000Y-102616000D01*
X101286000Y-93710000D02*
X101286000Y-94960000D01*
X101286000Y-94960000D02*
X111566000Y-94960000D01*
X111566000Y-94960000D02*
X111566000Y-90460000D01*
X111566000Y-90460000D02*
X101286000Y-90460000D01*
X101286000Y-90460000D02*
X101286000Y-91710000D01*
X101226000Y-97960000D02*
X111626000Y-97960000D01*
X111626000Y-97960000D02*
X111626000Y-87460000D01*
X111626000Y-87460000D02*
X101226000Y-87460000D01*
X101226000Y-87460000D02*
X101226000Y-97960000D01*
X101286000Y-91710000D02*
G75*
G02*
X101286000Y-93710000I0J-1000000D01*
G01*
X115891000Y-93710000D02*
X115891000Y-94960000D01*
X115891000Y-94960000D02*
X133791000Y-94960000D01*
X133791000Y-94960000D02*
X133791000Y-90460000D01*
X133791000Y-90460000D02*
X115891000Y-90460000D01*
X115891000Y-90460000D02*
X115891000Y-91710000D01*
X115831000Y-97960000D02*
X133851000Y-97960000D01*
X133851000Y-97960000D02*
X133851000Y-87460000D01*
X133851000Y-87460000D02*
X115831000Y-87460000D01*
X115831000Y-87460000D02*
X115831000Y-97960000D01*
X115891000Y-91710000D02*
G75*
G02*
X115891000Y-93710000I0J-1000000D01*
G01*
X98386000Y-95140000D02*
X98071000Y-95140000D01*
X100811000Y-95140000D02*
X100496000Y-95140000D01*
X98386000Y-90200000D02*
X98071000Y-90200000D01*
X100811000Y-90200000D02*
X100496000Y-90200000D01*
X98071000Y-90200000D02*
X98071000Y-95140000D01*
X100811000Y-90200000D02*
X100811000Y-95140000D01*
X115416000Y-90200000D02*
X115416000Y-95140000D01*
X112676000Y-90200000D02*
X112676000Y-95140000D01*
X115416000Y-90200000D02*
X115101000Y-90200000D01*
X112991000Y-90200000D02*
X112676000Y-90200000D01*
X115416000Y-95140000D02*
X115101000Y-95140000D01*
X112991000Y-95140000D02*
X112676000Y-95140000D01*
D10*
X107366666Y-67708380D02*
X107366666Y-68422666D01*
X107319047Y-68565523D01*
X107223809Y-68660761D01*
X107080952Y-68708380D01*
X106985714Y-68708380D01*
X107747619Y-67708380D02*
X108366666Y-67708380D01*
X108033333Y-68089333D01*
X108176190Y-68089333D01*
X108271428Y-68136952D01*
X108319047Y-68184571D01*
X108366666Y-68279809D01*
X108366666Y-68517904D01*
X108319047Y-68613142D01*
X108271428Y-68660761D01*
X108176190Y-68708380D01*
X107890476Y-68708380D01*
X107795238Y-68660761D01*
X107747619Y-68613142D01*
X105497619Y-75958380D02*
X105497619Y-74958380D01*
X105830952Y-75672666D01*
X106164285Y-74958380D01*
X106164285Y-75958380D01*
X106640476Y-75958380D02*
X106640476Y-74958380D01*
X107116666Y-75958380D02*
X107116666Y-74958380D01*
X107354761Y-74958380D01*
X107497619Y-75006000D01*
X107592857Y-75101238D01*
X107640476Y-75196476D01*
X107688095Y-75386952D01*
X107688095Y-75529809D01*
X107640476Y-75720285D01*
X107592857Y-75815523D01*
X107497619Y-75910761D01*
X107354761Y-75958380D01*
X107116666Y-75958380D01*
X108116666Y-75958380D02*
X108116666Y-74958380D01*
X109354761Y-75958380D02*
X109354761Y-74958380D01*
X109830952Y-75958380D02*
X109830952Y-74958380D01*
X110402380Y-75958380D01*
X110402380Y-74958380D01*
X127686666Y-67708380D02*
X127686666Y-68422666D01*
X127639047Y-68565523D01*
X127543809Y-68660761D01*
X127400952Y-68708380D01*
X127305714Y-68708380D01*
X128115238Y-67803619D02*
X128162857Y-67756000D01*
X128258095Y-67708380D01*
X128496190Y-67708380D01*
X128591428Y-67756000D01*
X128639047Y-67803619D01*
X128686666Y-67898857D01*
X128686666Y-67994095D01*
X128639047Y-68136952D01*
X128067619Y-68708380D01*
X128686666Y-68708380D01*
X125150952Y-75958380D02*
X125150952Y-74958380D01*
X125484285Y-75672666D01*
X125817619Y-74958380D01*
X125817619Y-75958380D01*
X126293809Y-75958380D02*
X126293809Y-74958380D01*
X126770000Y-75958380D02*
X126770000Y-74958380D01*
X127008095Y-74958380D01*
X127150952Y-75006000D01*
X127246190Y-75101238D01*
X127293809Y-75196476D01*
X127341428Y-75386952D01*
X127341428Y-75529809D01*
X127293809Y-75720285D01*
X127246190Y-75815523D01*
X127150952Y-75910761D01*
X127008095Y-75958380D01*
X126770000Y-75958380D01*
X127770000Y-75958380D02*
X127770000Y-74958380D01*
X129198571Y-74958380D02*
X129389047Y-74958380D01*
X129484285Y-75006000D01*
X129579523Y-75101238D01*
X129627142Y-75291714D01*
X129627142Y-75625047D01*
X129579523Y-75815523D01*
X129484285Y-75910761D01*
X129389047Y-75958380D01*
X129198571Y-75958380D01*
X129103333Y-75910761D01*
X129008095Y-75815523D01*
X128960476Y-75625047D01*
X128960476Y-75291714D01*
X129008095Y-75101238D01*
X129103333Y-75006000D01*
X129198571Y-74958380D01*
X130055714Y-74958380D02*
X130055714Y-75767904D01*
X130103333Y-75863142D01*
X130150952Y-75910761D01*
X130246190Y-75958380D01*
X130436666Y-75958380D01*
X130531904Y-75910761D01*
X130579523Y-75863142D01*
X130627142Y-75767904D01*
X130627142Y-74958380D01*
X130960476Y-74958380D02*
X131531904Y-74958380D01*
X131246190Y-75958380D02*
X131246190Y-74958380D01*
D12*
X105835523Y-99929904D02*
X105835523Y-99129904D01*
X106026000Y-99129904D01*
X106140285Y-99168000D01*
X106216476Y-99244190D01*
X106254571Y-99320380D01*
X106292666Y-99472761D01*
X106292666Y-99587047D01*
X106254571Y-99739428D01*
X106216476Y-99815619D01*
X106140285Y-99891809D01*
X106026000Y-99929904D01*
X105835523Y-99929904D01*
X107054571Y-99929904D02*
X106597428Y-99929904D01*
X106826000Y-99929904D02*
X106826000Y-99129904D01*
X106749809Y-99244190D01*
X106673619Y-99320380D01*
X106597428Y-99358476D01*
D10*
X100449095Y-100020380D02*
X100449095Y-99020380D01*
X101020523Y-100020380D02*
X100591952Y-99448952D01*
X101020523Y-99020380D02*
X100449095Y-99591809D01*
X108124666Y-105243380D02*
X108124666Y-105957666D01*
X108077047Y-106100523D01*
X107981809Y-106195761D01*
X107838952Y-106243380D01*
X107743714Y-106243380D01*
X109124666Y-106243380D02*
X108553238Y-106243380D01*
X108838952Y-106243380D02*
X108838952Y-105243380D01*
X108743714Y-105386238D01*
X108648476Y-105481476D01*
X108553238Y-105529095D01*
X115298885Y-118422800D02*
X115203647Y-118375180D01*
X115060790Y-118375180D01*
X114917933Y-118422800D01*
X114822695Y-118518038D01*
X114775076Y-118613276D01*
X114727457Y-118803752D01*
X114727457Y-118946609D01*
X114775076Y-119137085D01*
X114822695Y-119232323D01*
X114917933Y-119327561D01*
X115060790Y-119375180D01*
X115156028Y-119375180D01*
X115298885Y-119327561D01*
X115346504Y-119279942D01*
X115346504Y-118946609D01*
X115156028Y-118946609D01*
X116203647Y-119375180D02*
X116203647Y-118851371D01*
X116156028Y-118756133D01*
X116060790Y-118708514D01*
X115870314Y-118708514D01*
X115775076Y-118756133D01*
X116203647Y-119327561D02*
X116108409Y-119375180D01*
X115870314Y-119375180D01*
X115775076Y-119327561D01*
X115727457Y-119232323D01*
X115727457Y-119137085D01*
X115775076Y-119041847D01*
X115870314Y-118994228D01*
X116108409Y-118994228D01*
X116203647Y-118946609D01*
X116679838Y-119375180D02*
X116679838Y-118708514D01*
X116679838Y-118803752D02*
X116727457Y-118756133D01*
X116822695Y-118708514D01*
X116965552Y-118708514D01*
X117060790Y-118756133D01*
X117108409Y-118851371D01*
X117108409Y-119375180D01*
X117108409Y-118851371D02*
X117156028Y-118756133D01*
X117251266Y-118708514D01*
X117394123Y-118708514D01*
X117489361Y-118756133D01*
X117536980Y-118851371D01*
X117536980Y-119375180D01*
X118394123Y-119327561D02*
X118298885Y-119375180D01*
X118108409Y-119375180D01*
X118013171Y-119327561D01*
X117965552Y-119232323D01*
X117965552Y-118851371D01*
X118013171Y-118756133D01*
X118108409Y-118708514D01*
X118298885Y-118708514D01*
X118394123Y-118756133D01*
X118441742Y-118851371D01*
X118441742Y-118946609D01*
X117965552Y-119041847D01*
X118870314Y-118708514D02*
X118870314Y-119708514D01*
X118870314Y-118756133D02*
X118965552Y-118708514D01*
X119156028Y-118708514D01*
X119251266Y-118756133D01*
X119298885Y-118803752D01*
X119346504Y-118898990D01*
X119346504Y-119184704D01*
X119298885Y-119279942D01*
X119251266Y-119327561D01*
X119156028Y-119375180D01*
X118965552Y-119375180D01*
X118870314Y-119327561D01*
X119917933Y-119375180D02*
X119822695Y-119327561D01*
X119775076Y-119279942D01*
X119727457Y-119184704D01*
X119727457Y-118898990D01*
X119775076Y-118803752D01*
X119822695Y-118756133D01*
X119917933Y-118708514D01*
X120060790Y-118708514D01*
X120156028Y-118756133D01*
X120203647Y-118803752D01*
X120251266Y-118898990D01*
X120251266Y-119184704D01*
X120203647Y-119279942D01*
X120156028Y-119327561D01*
X120060790Y-119375180D01*
X119917933Y-119375180D01*
X120679838Y-119375180D02*
X120679838Y-118708514D01*
X120679838Y-118898990D02*
X120727457Y-118803752D01*
X120775076Y-118756133D01*
X120870314Y-118708514D01*
X120965552Y-118708514D01*
X121156028Y-118708514D02*
X121536980Y-118708514D01*
X121298885Y-118375180D02*
X121298885Y-119232323D01*
X121346504Y-119327561D01*
X121441742Y-119375180D01*
X121536980Y-119375180D01*
X116276380Y-102782666D02*
X115800190Y-103116000D01*
X116276380Y-103354095D02*
X115276380Y-103354095D01*
X115276380Y-102973142D01*
X115324000Y-102877904D01*
X115371619Y-102830285D01*
X115466857Y-102782666D01*
X115609714Y-102782666D01*
X115704952Y-102830285D01*
X115752571Y-102877904D01*
X115800190Y-102973142D01*
X115800190Y-103354095D01*
X116276380Y-101830285D02*
X116276380Y-102401714D01*
X116276380Y-102116000D02*
X115276380Y-102116000D01*
X115419238Y-102211238D01*
X115514476Y-102306476D01*
X115562095Y-102401714D01*
X117832333Y-102163619D02*
X117879952Y-102116000D01*
X117975190Y-102068380D01*
X118213285Y-102068380D01*
X118308523Y-102116000D01*
X118356142Y-102163619D01*
X118403761Y-102258857D01*
X118403761Y-102354095D01*
X118356142Y-102496952D01*
X117784714Y-103068380D01*
X118403761Y-103068380D01*
X118832333Y-103068380D02*
X118832333Y-102068380D01*
X118927571Y-102687428D02*
X119213285Y-103068380D01*
X119213285Y-102401714D02*
X118832333Y-102782666D01*
X119594238Y-102163619D02*
X119641857Y-102116000D01*
X119737095Y-102068380D01*
X119975190Y-102068380D01*
X120070428Y-102116000D01*
X120118047Y-102163619D01*
X120165666Y-102258857D01*
X120165666Y-102354095D01*
X120118047Y-102496952D01*
X119546619Y-103068380D01*
X120165666Y-103068380D01*
X130627380Y-102782666D02*
X130151190Y-103116000D01*
X130627380Y-103354095D02*
X129627380Y-103354095D01*
X129627380Y-102973142D01*
X129675000Y-102877904D01*
X129722619Y-102830285D01*
X129817857Y-102782666D01*
X129960714Y-102782666D01*
X130055952Y-102830285D01*
X130103571Y-102877904D01*
X130151190Y-102973142D01*
X130151190Y-103354095D01*
X129722619Y-102401714D02*
X129675000Y-102354095D01*
X129627380Y-102258857D01*
X129627380Y-102020761D01*
X129675000Y-101925523D01*
X129722619Y-101877904D01*
X129817857Y-101830285D01*
X129913095Y-101830285D01*
X130055952Y-101877904D01*
X130627380Y-102449333D01*
X130627380Y-101830285D01*
X132111904Y-102163619D02*
X132159523Y-102116000D01*
X132254761Y-102068380D01*
X132492857Y-102068380D01*
X132588095Y-102116000D01*
X132635714Y-102163619D01*
X132683333Y-102258857D01*
X132683333Y-102354095D01*
X132635714Y-102496952D01*
X132064285Y-103068380D01*
X132683333Y-103068380D01*
X133064285Y-102163619D02*
X133111904Y-102116000D01*
X133207142Y-102068380D01*
X133445238Y-102068380D01*
X133540476Y-102116000D01*
X133588095Y-102163619D01*
X133635714Y-102258857D01*
X133635714Y-102354095D01*
X133588095Y-102496952D01*
X133016666Y-103068380D01*
X133635714Y-103068380D01*
X134254761Y-102068380D02*
X134350000Y-102068380D01*
X134445238Y-102116000D01*
X134492857Y-102163619D01*
X134540476Y-102258857D01*
X134588095Y-102449333D01*
X134588095Y-102687428D01*
X134540476Y-102877904D01*
X134492857Y-102973142D01*
X134445238Y-103020761D01*
X134350000Y-103068380D01*
X134254761Y-103068380D01*
X134159523Y-103020761D01*
X134111904Y-102973142D01*
X134064285Y-102877904D01*
X134016666Y-102687428D01*
X134016666Y-102449333D01*
X134064285Y-102258857D01*
X134111904Y-102163619D01*
X134159523Y-102116000D01*
X134254761Y-102068380D01*
X136485333Y-92019380D02*
X136152000Y-91543190D01*
X135913904Y-92019380D02*
X135913904Y-91019380D01*
X136294857Y-91019380D01*
X136390095Y-91067000D01*
X136437714Y-91114619D01*
X136485333Y-91209857D01*
X136485333Y-91352714D01*
X136437714Y-91447952D01*
X136390095Y-91495571D01*
X136294857Y-91543190D01*
X135913904Y-91543190D01*
X136818666Y-91019380D02*
X137437714Y-91019380D01*
X137104380Y-91400333D01*
X137247238Y-91400333D01*
X137342476Y-91447952D01*
X137390095Y-91495571D01*
X137437714Y-91590809D01*
X137437714Y-91828904D01*
X137390095Y-91924142D01*
X137342476Y-91971761D01*
X137247238Y-92019380D01*
X136961523Y-92019380D01*
X136866285Y-91971761D01*
X136818666Y-91924142D01*
X136199619Y-95853095D02*
X136152000Y-95805476D01*
X136104380Y-95710238D01*
X136104380Y-95472142D01*
X136152000Y-95376904D01*
X136199619Y-95329285D01*
X136294857Y-95281666D01*
X136390095Y-95281666D01*
X136532952Y-95329285D01*
X137104380Y-95900714D01*
X137104380Y-95281666D01*
X136199619Y-94900714D02*
X136152000Y-94853095D01*
X136104380Y-94757857D01*
X136104380Y-94519761D01*
X136152000Y-94424523D01*
X136199619Y-94376904D01*
X136294857Y-94329285D01*
X136390095Y-94329285D01*
X136532952Y-94376904D01*
X137104380Y-94948333D01*
X137104380Y-94329285D01*
X136104380Y-93710238D02*
X136104380Y-93615000D01*
X136152000Y-93519761D01*
X136199619Y-93472142D01*
X136294857Y-93424523D01*
X136485333Y-93376904D01*
X136723428Y-93376904D01*
X136913904Y-93424523D01*
X137009142Y-93472142D01*
X137056761Y-93519761D01*
X137104380Y-93615000D01*
X137104380Y-93710238D01*
X137056761Y-93805476D01*
X137009142Y-93853095D01*
X136913904Y-93900714D01*
X136723428Y-93948333D01*
X136485333Y-93948333D01*
X136294857Y-93900714D01*
X136199619Y-93853095D01*
X136152000Y-93805476D01*
X136104380Y-93710238D01*
X102687380Y-102782666D02*
X102211190Y-103116000D01*
X102687380Y-103354095D02*
X101687380Y-103354095D01*
X101687380Y-102973142D01*
X101735000Y-102877904D01*
X101782619Y-102830285D01*
X101877857Y-102782666D01*
X102020714Y-102782666D01*
X102115952Y-102830285D01*
X102163571Y-102877904D01*
X102211190Y-102973142D01*
X102211190Y-103354095D01*
X102020714Y-101925523D02*
X102687380Y-101925523D01*
X101639761Y-102163619D02*
X102354047Y-102401714D01*
X102354047Y-101782666D01*
X104171904Y-102163619D02*
X104219523Y-102116000D01*
X104314761Y-102068380D01*
X104552857Y-102068380D01*
X104648095Y-102116000D01*
X104695714Y-102163619D01*
X104743333Y-102258857D01*
X104743333Y-102354095D01*
X104695714Y-102496952D01*
X104124285Y-103068380D01*
X104743333Y-103068380D01*
X105124285Y-102163619D02*
X105171904Y-102116000D01*
X105267142Y-102068380D01*
X105505238Y-102068380D01*
X105600476Y-102116000D01*
X105648095Y-102163619D01*
X105695714Y-102258857D01*
X105695714Y-102354095D01*
X105648095Y-102496952D01*
X105076666Y-103068380D01*
X105695714Y-103068380D01*
X106314761Y-102068380D02*
X106410000Y-102068380D01*
X106505238Y-102116000D01*
X106552857Y-102163619D01*
X106600476Y-102258857D01*
X106648095Y-102449333D01*
X106648095Y-102687428D01*
X106600476Y-102877904D01*
X106552857Y-102973142D01*
X106505238Y-103020761D01*
X106410000Y-103068380D01*
X106314761Y-103068380D01*
X106219523Y-103020761D01*
X106171904Y-102973142D01*
X106124285Y-102877904D01*
X106076666Y-102687428D01*
X106076666Y-102449333D01*
X106124285Y-102258857D01*
X106171904Y-102163619D01*
X106219523Y-102116000D01*
X106314761Y-102068380D01*
X105664095Y-90892380D02*
X105664095Y-91701904D01*
X105711714Y-91797142D01*
X105759333Y-91844761D01*
X105854571Y-91892380D01*
X106045047Y-91892380D01*
X106140285Y-91844761D01*
X106187904Y-91797142D01*
X106235523Y-91701904D01*
X106235523Y-90892380D01*
X107235523Y-91892380D02*
X106664095Y-91892380D01*
X106949809Y-91892380D02*
X106949809Y-90892380D01*
X106854571Y-91035238D01*
X106759333Y-91130476D01*
X106664095Y-91178095D01*
X104664095Y-92797380D02*
X104473619Y-92797380D01*
X104378380Y-92845000D01*
X104330761Y-92892619D01*
X104235523Y-93035476D01*
X104187904Y-93225952D01*
X104187904Y-93606904D01*
X104235523Y-93702142D01*
X104283142Y-93749761D01*
X104378380Y-93797380D01*
X104568857Y-93797380D01*
X104664095Y-93749761D01*
X104711714Y-93702142D01*
X104759333Y-93606904D01*
X104759333Y-93368809D01*
X104711714Y-93273571D01*
X104664095Y-93225952D01*
X104568857Y-93178333D01*
X104378380Y-93178333D01*
X104283142Y-93225952D01*
X104235523Y-93273571D01*
X104187904Y-93368809D01*
X105187904Y-93797380D02*
X105187904Y-92797380D01*
X105759333Y-93797380D01*
X105759333Y-92797380D01*
X106759333Y-93797380D02*
X106187904Y-93797380D01*
X106473619Y-93797380D02*
X106473619Y-92797380D01*
X106378380Y-92940238D01*
X106283142Y-93035476D01*
X106187904Y-93083095D01*
X107092666Y-92797380D02*
X107711714Y-92797380D01*
X107378380Y-93178333D01*
X107521238Y-93178333D01*
X107616476Y-93225952D01*
X107664095Y-93273571D01*
X107711714Y-93368809D01*
X107711714Y-93606904D01*
X107664095Y-93702142D01*
X107616476Y-93749761D01*
X107521238Y-93797380D01*
X107235523Y-93797380D01*
X107140285Y-93749761D01*
X107092666Y-93702142D01*
X108283142Y-93225952D02*
X108187904Y-93178333D01*
X108140285Y-93130714D01*
X108092666Y-93035476D01*
X108092666Y-92987857D01*
X108140285Y-92892619D01*
X108187904Y-92845000D01*
X108283142Y-92797380D01*
X108473619Y-92797380D01*
X108568857Y-92845000D01*
X108616476Y-92892619D01*
X108664095Y-92987857D01*
X108664095Y-93035476D01*
X108616476Y-93130714D01*
X108568857Y-93178333D01*
X108473619Y-93225952D01*
X108283142Y-93225952D01*
X108187904Y-93273571D01*
X108140285Y-93321190D01*
X108092666Y-93416428D01*
X108092666Y-93606904D01*
X108140285Y-93702142D01*
X108187904Y-93749761D01*
X108283142Y-93797380D01*
X108473619Y-93797380D01*
X108568857Y-93749761D01*
X108616476Y-93702142D01*
X108664095Y-93606904D01*
X108664095Y-93416428D01*
X108616476Y-93321190D01*
X108568857Y-93273571D01*
X108473619Y-93225952D01*
X118999095Y-92162380D02*
X118999095Y-92971904D01*
X119046714Y-93067142D01*
X119094333Y-93114761D01*
X119189571Y-93162380D01*
X119380047Y-93162380D01*
X119475285Y-93114761D01*
X119522904Y-93067142D01*
X119570523Y-92971904D01*
X119570523Y-92162380D01*
X119951476Y-92162380D02*
X120570523Y-92162380D01*
X120237190Y-92543333D01*
X120380047Y-92543333D01*
X120475285Y-92590952D01*
X120522904Y-92638571D01*
X120570523Y-92733809D01*
X120570523Y-92971904D01*
X120522904Y-93067142D01*
X120475285Y-93114761D01*
X120380047Y-93162380D01*
X120094333Y-93162380D01*
X119999095Y-93114761D01*
X119951476Y-93067142D01*
X122198142Y-92162380D02*
X122864809Y-92162380D01*
X122436238Y-93162380D01*
X123674333Y-92495714D02*
X123674333Y-93162380D01*
X123436238Y-92114761D02*
X123198142Y-92829047D01*
X123817190Y-92829047D01*
X124674333Y-93162380D02*
X124198142Y-93162380D01*
X124198142Y-92162380D01*
X124960047Y-93114761D02*
X125102904Y-93162380D01*
X125341000Y-93162380D01*
X125436238Y-93114761D01*
X125483857Y-93067142D01*
X125531476Y-92971904D01*
X125531476Y-92876666D01*
X125483857Y-92781428D01*
X125436238Y-92733809D01*
X125341000Y-92686190D01*
X125150523Y-92638571D01*
X125055285Y-92590952D01*
X125007666Y-92543333D01*
X124960047Y-92448095D01*
X124960047Y-92352857D01*
X125007666Y-92257619D01*
X125055285Y-92210000D01*
X125150523Y-92162380D01*
X125388619Y-92162380D01*
X125531476Y-92210000D01*
X126150523Y-92162380D02*
X126245761Y-92162380D01*
X126341000Y-92210000D01*
X126388619Y-92257619D01*
X126436238Y-92352857D01*
X126483857Y-92543333D01*
X126483857Y-92781428D01*
X126436238Y-92971904D01*
X126388619Y-93067142D01*
X126341000Y-93114761D01*
X126245761Y-93162380D01*
X126150523Y-93162380D01*
X126055285Y-93114761D01*
X126007666Y-93067142D01*
X125960047Y-92971904D01*
X125912428Y-92781428D01*
X125912428Y-92543333D01*
X125960047Y-92352857D01*
X126007666Y-92257619D01*
X126055285Y-92210000D01*
X126150523Y-92162380D01*
X127102904Y-92162380D02*
X127198142Y-92162380D01*
X127293380Y-92210000D01*
X127341000Y-92257619D01*
X127388619Y-92352857D01*
X127436238Y-92543333D01*
X127436238Y-92781428D01*
X127388619Y-92971904D01*
X127341000Y-93067142D01*
X127293380Y-93114761D01*
X127198142Y-93162380D01*
X127102904Y-93162380D01*
X127007666Y-93114761D01*
X126960047Y-93067142D01*
X126912428Y-92971904D01*
X126864809Y-92781428D01*
X126864809Y-92543333D01*
X126912428Y-92352857D01*
X126960047Y-92257619D01*
X127007666Y-92210000D01*
X127102904Y-92162380D01*
X99274333Y-93027142D02*
X99226714Y-93074761D01*
X99083857Y-93122380D01*
X98988619Y-93122380D01*
X98845761Y-93074761D01*
X98750523Y-92979523D01*
X98702904Y-92884285D01*
X98655285Y-92693809D01*
X98655285Y-92550952D01*
X98702904Y-92360476D01*
X98750523Y-92265238D01*
X98845761Y-92170000D01*
X98988619Y-92122380D01*
X99083857Y-92122380D01*
X99226714Y-92170000D01*
X99274333Y-92217619D01*
X100226714Y-93122380D02*
X99655285Y-93122380D01*
X99941000Y-93122380D02*
X99941000Y-92122380D01*
X99845761Y-92265238D01*
X99750523Y-92360476D01*
X99655285Y-92408095D01*
X113879333Y-93027142D02*
X113831714Y-93074761D01*
X113688857Y-93122380D01*
X113593619Y-93122380D01*
X113450761Y-93074761D01*
X113355523Y-92979523D01*
X113307904Y-92884285D01*
X113260285Y-92693809D01*
X113260285Y-92550952D01*
X113307904Y-92360476D01*
X113355523Y-92265238D01*
X113450761Y-92170000D01*
X113593619Y-92122380D01*
X113688857Y-92122380D01*
X113831714Y-92170000D01*
X113879333Y-92217619D01*
X114212666Y-92122380D02*
X114831714Y-92122380D01*
X114498380Y-92503333D01*
X114641238Y-92503333D01*
X114736476Y-92550952D01*
X114784095Y-92598571D01*
X114831714Y-92693809D01*
X114831714Y-92931904D01*
X114784095Y-93027142D01*
X114736476Y-93074761D01*
X114641238Y-93122380D01*
X114355523Y-93122380D01*
X114260285Y-93074761D01*
X114212666Y-93027142D01*
M02*
