M48
INCH,TZ
T1C0.0315
T2C0.0354
T3C0.0394
%
G90
G05
T1
X44900Y-35500
X44900Y-37469
X40400Y-39200
X43400Y-39200
X39150Y-35500
X39150Y-37469
X46150Y-35000
X46150Y-38000
X47150Y-35000
X47150Y-38000
X48150Y-35000
X48150Y-38000
X49150Y-35000
X49150Y-38000
X50150Y-35000
X50150Y-38000
X51150Y-35000
X51150Y-38000
X52150Y-35000
X52150Y-38000
X50000Y-40400
X54000Y-40400
X40400Y-35000
X40400Y-38000
X41400Y-35000
X41400Y-38000
X42400Y-35000
X42400Y-38000
X43400Y-35000
X43400Y-38000
X44350Y-40400
X48350Y-40400
X39000Y-40400
X43000Y-40400
X53800Y-34800
X53800Y-38800
T3
X42690Y-43180
X43235Y-44298
X43781Y-43180
X44326Y-44298
X44871Y-43180
X45416Y-44298
X45962Y-43180
X46507Y-44298
X47052Y-43180
X47597Y-44298
X48143Y-43180
X48688Y-44298
X49233Y-43180
X49779Y-44298
X50324Y-43180
T2
G00X47547Y-31518
M15
G01X47547Y-31282
M16
G05
G00X48531Y-32502
M15
G01X48531Y-32266
M16
G05
G00X50500Y-31518
M15
G01X50500Y-31282
M16
G05
G00X52469Y-32502
M15
G01X52469Y-32266
M16
G05
G00X53453Y-31518
M15
G01X53453Y-31282
M16
G05
G00X39547Y-31518
M15
G01X39547Y-31282
M16
G05
G00X40531Y-32502
M15
G01X40531Y-32266
M16
G05
G00X42500Y-31518
M15
G01X42500Y-31282
M16
G05
G00X44469Y-32502
M15
G01X44469Y-32266
M16
G05
G00X45453Y-31518
M15
G01X45453Y-31282
M16
G05
T0
M30
