G04 #@! TF.GenerationSoftware,KiCad,Pcbnew,(5.1.8)-1*
G04 #@! TF.CreationDate,2022-02-10T23:19:11+01:00*
G04 #@! TF.ProjectId,BulkyMIDI-32 Gameport,42756c6b-794d-4494-9449-2d3332204761,rev?*
G04 #@! TF.SameCoordinates,Original*
G04 #@! TF.FileFunction,Soldermask,Bot*
G04 #@! TF.FilePolarity,Negative*
%FSLAX46Y46*%
G04 Gerber Fmt 4.6, Leading zero omitted, Abs format (unit mm)*
G04 Created by KiCad (PCBNEW (5.1.8)-1) date 2022-02-10 23:19:11*
%MOMM*%
%LPD*%
G01*
G04 APERTURE LIST*
%ADD10O,1.800000X2.400000*%
%ADD11O,2.400000X1.800000*%
%ADD12R,1.600000X1.600000*%
%ADD13O,1.600000X1.600000*%
%ADD14C,1.600000*%
%ADD15C,5.000000*%
%ADD16R,1.600000X2.400000*%
%ADD17O,1.600000X2.400000*%
G04 APERTURE END LIST*
D10*
X107950000Y-79756000D03*
D11*
X102950000Y-69756000D03*
X112950000Y-69756000D03*
D10*
X100450000Y-79756000D03*
X115450000Y-79756000D03*
X102950000Y-82256000D03*
X112950000Y-82256000D03*
X128270000Y-79756000D03*
D11*
X123270000Y-69756000D03*
X133270000Y-69756000D03*
D10*
X120770000Y-79756000D03*
X135770000Y-79756000D03*
X123270000Y-82256000D03*
X133270000Y-82256000D03*
D12*
X102616000Y-99568000D03*
D13*
X110236000Y-99568000D03*
D12*
X108432600Y-109677200D03*
D14*
X111202600Y-109677200D03*
X113972600Y-109677200D03*
X116742600Y-109677200D03*
X119512600Y-109677200D03*
X122282600Y-109677200D03*
X125052600Y-109677200D03*
X127822600Y-109677200D03*
X109817600Y-112517200D03*
X112587600Y-112517200D03*
X115357600Y-112517200D03*
X118127600Y-112517200D03*
X120897600Y-112517200D03*
X123667600Y-112517200D03*
X126437600Y-112517200D03*
D15*
X101477600Y-111097200D03*
X134777600Y-111097200D03*
D13*
X112649000Y-102616000D03*
D14*
X122809000Y-102616000D03*
X137160000Y-102616000D03*
D13*
X127000000Y-102616000D03*
X136652000Y-98552000D03*
D14*
X136652000Y-88392000D03*
X109220000Y-102616000D03*
D13*
X99060000Y-102616000D03*
D16*
X102616000Y-96520000D03*
D17*
X110236000Y-88900000D03*
X105156000Y-96520000D03*
X107696000Y-88900000D03*
X107696000Y-96520000D03*
X105156000Y-88900000D03*
X110236000Y-96520000D03*
X102616000Y-88900000D03*
D16*
X117221000Y-96520000D03*
D17*
X132461000Y-88900000D03*
X119761000Y-96520000D03*
X129921000Y-88900000D03*
X122301000Y-96520000D03*
X127381000Y-88900000D03*
X124841000Y-96520000D03*
X124841000Y-88900000D03*
X127381000Y-96520000D03*
X122301000Y-88900000D03*
X129921000Y-96520000D03*
X119761000Y-88900000D03*
X132461000Y-96520000D03*
X117221000Y-88900000D03*
D14*
X99441000Y-90170000D03*
X99441000Y-95170000D03*
X114046000Y-95170000D03*
X114046000Y-90170000D03*
M02*
