G04 #@! TF.GenerationSoftware,KiCad,Pcbnew,(5.1.8)-1*
G04 #@! TF.CreationDate,2022-02-17T23:19:14+01:00*
G04 #@! TF.ProjectId,Vertical Rotary Encoder,56657274-6963-4616-9c20-526f74617279,rev?*
G04 #@! TF.SameCoordinates,Original*
G04 #@! TF.FileFunction,Legend,Bot*
G04 #@! TF.FilePolarity,Positive*
%FSLAX46Y46*%
G04 Gerber Fmt 4.6, Leading zero omitted, Abs format (unit mm)*
G04 Created by KiCad (PCBNEW (5.1.8)-1) date 2022-02-17 23:19:14*
%MOMM*%
%LPD*%
G01*
G04 APERTURE LIST*
%ADD10C,0.100000*%
%ADD11C,0.120000*%
%ADD12C,0.150000*%
G04 APERTURE END LIST*
D10*
X137946666Y-129141857D02*
X137832380Y-129179952D01*
X137794285Y-129218047D01*
X137756190Y-129294238D01*
X137756190Y-129408523D01*
X137794285Y-129484714D01*
X137832380Y-129522809D01*
X137908571Y-129560904D01*
X138213333Y-129560904D01*
X138213333Y-128760904D01*
X137946666Y-128760904D01*
X137870476Y-128799000D01*
X137832380Y-128837095D01*
X137794285Y-128913285D01*
X137794285Y-128989476D01*
X137832380Y-129065666D01*
X137870476Y-129103761D01*
X137946666Y-129141857D01*
X138213333Y-129141857D01*
X137527619Y-128760904D02*
X137070476Y-128760904D01*
X137299047Y-129560904D02*
X137299047Y-128760904D01*
X136803809Y-129560904D02*
X136803809Y-128760904D01*
X136346666Y-129560904D01*
X136346666Y-128760904D01*
X140429523Y-128799000D02*
X140505714Y-128760904D01*
X140620000Y-128760904D01*
X140734285Y-128799000D01*
X140810476Y-128875190D01*
X140848571Y-128951380D01*
X140886666Y-129103761D01*
X140886666Y-129218047D01*
X140848571Y-129370428D01*
X140810476Y-129446619D01*
X140734285Y-129522809D01*
X140620000Y-129560904D01*
X140543809Y-129560904D01*
X140429523Y-129522809D01*
X140391428Y-129484714D01*
X140391428Y-129218047D01*
X140543809Y-129218047D01*
X140048571Y-129560904D02*
X140048571Y-128760904D01*
X139591428Y-129560904D01*
X139591428Y-128760904D01*
X139210476Y-129560904D02*
X139210476Y-128760904D01*
X139020000Y-128760904D01*
X138905714Y-128799000D01*
X138829523Y-128875190D01*
X138791428Y-128951380D01*
X138753333Y-129103761D01*
X138753333Y-129218047D01*
X138791428Y-129370428D01*
X138829523Y-129446619D01*
X138905714Y-129522809D01*
X139020000Y-129560904D01*
X139210476Y-129560904D01*
X142836190Y-129484714D02*
X142874285Y-129522809D01*
X142988571Y-129560904D01*
X143064761Y-129560904D01*
X143179047Y-129522809D01*
X143255238Y-129446619D01*
X143293333Y-129370428D01*
X143331428Y-129218047D01*
X143331428Y-129103761D01*
X143293333Y-128951380D01*
X143255238Y-128875190D01*
X143179047Y-128799000D01*
X143064761Y-128760904D01*
X142988571Y-128760904D01*
X142874285Y-128799000D01*
X142836190Y-128837095D01*
X142112380Y-129560904D02*
X142493333Y-129560904D01*
X142493333Y-128760904D01*
X141845714Y-129560904D02*
X141845714Y-128760904D01*
X141388571Y-129560904D02*
X141731428Y-129103761D01*
X141388571Y-128760904D02*
X141845714Y-129218047D01*
X145757142Y-129560904D02*
X145757142Y-128760904D01*
X145566666Y-128760904D01*
X145452380Y-128799000D01*
X145376190Y-128875190D01*
X145338095Y-128951380D01*
X145300000Y-129103761D01*
X145300000Y-129218047D01*
X145338095Y-129370428D01*
X145376190Y-129446619D01*
X145452380Y-129522809D01*
X145566666Y-129560904D01*
X145757142Y-129560904D01*
X144995238Y-129332333D02*
X144614285Y-129332333D01*
X145071428Y-129560904D02*
X144804761Y-128760904D01*
X144538095Y-129560904D01*
X144385714Y-128760904D02*
X143928571Y-128760904D01*
X144157142Y-129560904D02*
X144157142Y-128760904D01*
X148175714Y-113012904D02*
X147909047Y-113812904D01*
X147642380Y-113012904D01*
X147070952Y-113774809D02*
X147147142Y-113812904D01*
X147299523Y-113812904D01*
X147375714Y-113774809D01*
X147413809Y-113698619D01*
X147413809Y-113393857D01*
X147375714Y-113317666D01*
X147299523Y-113279571D01*
X147147142Y-113279571D01*
X147070952Y-113317666D01*
X147032857Y-113393857D01*
X147032857Y-113470047D01*
X147413809Y-113546238D01*
X146690000Y-113812904D02*
X146690000Y-113279571D01*
X146690000Y-113431952D02*
X146651904Y-113355761D01*
X146613809Y-113317666D01*
X146537619Y-113279571D01*
X146461428Y-113279571D01*
X146309047Y-113279571D02*
X146004285Y-113279571D01*
X146194761Y-113012904D02*
X146194761Y-113698619D01*
X146156666Y-113774809D01*
X146080476Y-113812904D01*
X146004285Y-113812904D01*
X145737619Y-113812904D02*
X145737619Y-113279571D01*
X145737619Y-113012904D02*
X145775714Y-113051000D01*
X145737619Y-113089095D01*
X145699523Y-113051000D01*
X145737619Y-113012904D01*
X145737619Y-113089095D01*
X145013809Y-113774809D02*
X145090000Y-113812904D01*
X145242380Y-113812904D01*
X145318571Y-113774809D01*
X145356666Y-113736714D01*
X145394761Y-113660523D01*
X145394761Y-113431952D01*
X145356666Y-113355761D01*
X145318571Y-113317666D01*
X145242380Y-113279571D01*
X145090000Y-113279571D01*
X145013809Y-113317666D01*
X144328095Y-113812904D02*
X144328095Y-113393857D01*
X144366190Y-113317666D01*
X144442380Y-113279571D01*
X144594761Y-113279571D01*
X144670952Y-113317666D01*
X144328095Y-113774809D02*
X144404285Y-113812904D01*
X144594761Y-113812904D01*
X144670952Y-113774809D01*
X144709047Y-113698619D01*
X144709047Y-113622428D01*
X144670952Y-113546238D01*
X144594761Y-113508142D01*
X144404285Y-113508142D01*
X144328095Y-113470047D01*
X143832857Y-113812904D02*
X143909047Y-113774809D01*
X143947142Y-113698619D01*
X143947142Y-113012904D01*
X142461428Y-113812904D02*
X142728095Y-113431952D01*
X142918571Y-113812904D02*
X142918571Y-113012904D01*
X142613809Y-113012904D01*
X142537619Y-113051000D01*
X142499523Y-113089095D01*
X142461428Y-113165285D01*
X142461428Y-113279571D01*
X142499523Y-113355761D01*
X142537619Y-113393857D01*
X142613809Y-113431952D01*
X142918571Y-113431952D01*
X142004285Y-113812904D02*
X142080476Y-113774809D01*
X142118571Y-113736714D01*
X142156666Y-113660523D01*
X142156666Y-113431952D01*
X142118571Y-113355761D01*
X142080476Y-113317666D01*
X142004285Y-113279571D01*
X141890000Y-113279571D01*
X141813809Y-113317666D01*
X141775714Y-113355761D01*
X141737619Y-113431952D01*
X141737619Y-113660523D01*
X141775714Y-113736714D01*
X141813809Y-113774809D01*
X141890000Y-113812904D01*
X142004285Y-113812904D01*
X141509047Y-113279571D02*
X141204285Y-113279571D01*
X141394761Y-113012904D02*
X141394761Y-113698619D01*
X141356666Y-113774809D01*
X141280476Y-113812904D01*
X141204285Y-113812904D01*
X140594761Y-113812904D02*
X140594761Y-113393857D01*
X140632857Y-113317666D01*
X140709047Y-113279571D01*
X140861428Y-113279571D01*
X140937619Y-113317666D01*
X140594761Y-113774809D02*
X140670952Y-113812904D01*
X140861428Y-113812904D01*
X140937619Y-113774809D01*
X140975714Y-113698619D01*
X140975714Y-113622428D01*
X140937619Y-113546238D01*
X140861428Y-113508142D01*
X140670952Y-113508142D01*
X140594761Y-113470047D01*
X140213809Y-113812904D02*
X140213809Y-113279571D01*
X140213809Y-113431952D02*
X140175714Y-113355761D01*
X140137619Y-113317666D01*
X140061428Y-113279571D01*
X139985238Y-113279571D01*
X139794761Y-113279571D02*
X139604285Y-113812904D01*
X139413809Y-113279571D02*
X139604285Y-113812904D01*
X139680476Y-114003380D01*
X139718571Y-114041476D01*
X139794761Y-114079571D01*
X138499523Y-113393857D02*
X138232857Y-113393857D01*
X138118571Y-113812904D02*
X138499523Y-113812904D01*
X138499523Y-113012904D01*
X138118571Y-113012904D01*
X137775714Y-113279571D02*
X137775714Y-113812904D01*
X137775714Y-113355761D02*
X137737619Y-113317666D01*
X137661428Y-113279571D01*
X137547142Y-113279571D01*
X137470952Y-113317666D01*
X137432857Y-113393857D01*
X137432857Y-113812904D01*
X136709047Y-113774809D02*
X136785238Y-113812904D01*
X136937619Y-113812904D01*
X137013809Y-113774809D01*
X137051904Y-113736714D01*
X137090000Y-113660523D01*
X137090000Y-113431952D01*
X137051904Y-113355761D01*
X137013809Y-113317666D01*
X136937619Y-113279571D01*
X136785238Y-113279571D01*
X136709047Y-113317666D01*
X136251904Y-113812904D02*
X136328095Y-113774809D01*
X136366190Y-113736714D01*
X136404285Y-113660523D01*
X136404285Y-113431952D01*
X136366190Y-113355761D01*
X136328095Y-113317666D01*
X136251904Y-113279571D01*
X136137619Y-113279571D01*
X136061428Y-113317666D01*
X136023333Y-113355761D01*
X135985238Y-113431952D01*
X135985238Y-113660523D01*
X136023333Y-113736714D01*
X136061428Y-113774809D01*
X136137619Y-113812904D01*
X136251904Y-113812904D01*
X135299523Y-113812904D02*
X135299523Y-113012904D01*
X135299523Y-113774809D02*
X135375714Y-113812904D01*
X135528095Y-113812904D01*
X135604285Y-113774809D01*
X135642380Y-113736714D01*
X135680476Y-113660523D01*
X135680476Y-113431952D01*
X135642380Y-113355761D01*
X135604285Y-113317666D01*
X135528095Y-113279571D01*
X135375714Y-113279571D01*
X135299523Y-113317666D01*
X134613809Y-113774809D02*
X134690000Y-113812904D01*
X134842380Y-113812904D01*
X134918571Y-113774809D01*
X134956666Y-113698619D01*
X134956666Y-113393857D01*
X134918571Y-113317666D01*
X134842380Y-113279571D01*
X134690000Y-113279571D01*
X134613809Y-113317666D01*
X134575714Y-113393857D01*
X134575714Y-113470047D01*
X134956666Y-113546238D01*
X134232857Y-113812904D02*
X134232857Y-113279571D01*
X134232857Y-113431952D02*
X134194761Y-113355761D01*
X134156666Y-113317666D01*
X134080476Y-113279571D01*
X134004285Y-113279571D01*
D11*
X142390000Y-120874000D02*
X142090000Y-121174000D01*
X142690000Y-121174000D02*
X142090000Y-121174000D01*
X142390000Y-120874000D02*
X142690000Y-121174000D01*
X143140000Y-120674000D02*
X143140000Y-118674000D01*
X139040000Y-120674000D02*
X143140000Y-120674000D01*
X139040000Y-118674000D02*
X139040000Y-120674000D01*
X143140000Y-118674000D02*
X139040000Y-118674000D01*
X139040000Y-124484000D02*
X143140000Y-124484000D01*
X143140000Y-124484000D02*
X143140000Y-122484000D01*
X143140000Y-122484000D02*
X139040000Y-122484000D01*
X139040000Y-122484000D02*
X139040000Y-124484000D01*
X139790000Y-122284000D02*
X139490000Y-121984000D01*
X139490000Y-121984000D02*
X140090000Y-121984000D01*
X139790000Y-122284000D02*
X140090000Y-121984000D01*
D12*
X141923333Y-117326380D02*
X141923333Y-118040666D01*
X141970952Y-118183523D01*
X142066190Y-118278761D01*
X142209047Y-118326380D01*
X142304285Y-118326380D01*
X141447142Y-118326380D02*
X141447142Y-117326380D01*
X141066190Y-117326380D01*
X140970952Y-117374000D01*
X140923333Y-117421619D01*
X140875714Y-117516857D01*
X140875714Y-117659714D01*
X140923333Y-117754952D01*
X140970952Y-117802571D01*
X141066190Y-117850190D01*
X141447142Y-117850190D01*
X140494761Y-117421619D02*
X140447142Y-117374000D01*
X140351904Y-117326380D01*
X140113809Y-117326380D01*
X140018571Y-117374000D01*
X139970952Y-117421619D01*
X139923333Y-117516857D01*
X139923333Y-117612095D01*
X139970952Y-117754952D01*
X140542380Y-118326380D01*
X139923333Y-118326380D01*
X144717380Y-118602571D02*
X143717380Y-118602571D01*
X143717380Y-118840666D01*
X143765000Y-118983523D01*
X143860238Y-119078761D01*
X143955476Y-119126380D01*
X144145952Y-119174000D01*
X144288809Y-119174000D01*
X144479285Y-119126380D01*
X144574523Y-119078761D01*
X144669761Y-118983523D01*
X144717380Y-118840666D01*
X144717380Y-118602571D01*
X144431666Y-119554952D02*
X144431666Y-120031142D01*
X144717380Y-119459714D02*
X143717380Y-119793047D01*
X144717380Y-120126380D01*
X143717380Y-120316857D02*
X143717380Y-120888285D01*
X144717380Y-120602571D02*
X143717380Y-120602571D01*
X141923333Y-124736380D02*
X141923333Y-125450666D01*
X141970952Y-125593523D01*
X142066190Y-125688761D01*
X142209047Y-125736380D01*
X142304285Y-125736380D01*
X141447142Y-125736380D02*
X141447142Y-124736380D01*
X141066190Y-124736380D01*
X140970952Y-124784000D01*
X140923333Y-124831619D01*
X140875714Y-124926857D01*
X140875714Y-125069714D01*
X140923333Y-125164952D01*
X140970952Y-125212571D01*
X141066190Y-125260190D01*
X141447142Y-125260190D01*
X139923333Y-125736380D02*
X140494761Y-125736380D01*
X140209047Y-125736380D02*
X140209047Y-124736380D01*
X140304285Y-124879238D01*
X140399523Y-124974476D01*
X140494761Y-125022095D01*
X138272142Y-122888761D02*
X138319761Y-122841142D01*
X138367380Y-122698285D01*
X138367380Y-122603047D01*
X138319761Y-122460190D01*
X138224523Y-122364952D01*
X138129285Y-122317333D01*
X137938809Y-122269714D01*
X137795952Y-122269714D01*
X137605476Y-122317333D01*
X137510238Y-122364952D01*
X137415000Y-122460190D01*
X137367380Y-122603047D01*
X137367380Y-122698285D01*
X137415000Y-122841142D01*
X137462619Y-122888761D01*
X138367380Y-123793523D02*
X138367380Y-123317333D01*
X137367380Y-123317333D01*
X138367380Y-124126857D02*
X137367380Y-124126857D01*
X138367380Y-124698285D02*
X137795952Y-124269714D01*
X137367380Y-124698285D02*
X137938809Y-124126857D01*
M02*
