G04 #@! TF.GenerationSoftware,KiCad,Pcbnew,(5.1.8)-1*
G04 #@! TF.CreationDate,2022-02-17T23:19:14+01:00*
G04 #@! TF.ProjectId,Vertical Rotary Encoder,56657274-6963-4616-9c20-526f74617279,rev?*
G04 #@! TF.SameCoordinates,Original*
G04 #@! TF.FileFunction,Legend,Top*
G04 #@! TF.FilePolarity,Positive*
%FSLAX46Y46*%
G04 Gerber Fmt 4.6, Leading zero omitted, Abs format (unit mm)*
G04 Created by KiCad (PCBNEW (5.1.8)-1) date 2022-02-17 23:19:14*
%MOMM*%
%LPD*%
G01*
G04 APERTURE LIST*
%ADD10C,0.120000*%
%ADD11C,0.100000*%
%ADD12C,0.150000*%
G04 APERTURE END LIST*
D10*
X144090000Y-121579000D02*
G75*
G03*
X144090000Y-121579000I-3000000J0D01*
G01*
X139090000Y-127479000D02*
X134990000Y-127479000D01*
X134990000Y-115679000D02*
X139090000Y-115679000D01*
X143090000Y-115679000D02*
X147190000Y-115679000D01*
X143090000Y-127479000D02*
X147190000Y-127479000D01*
X147190000Y-127479000D02*
X147190000Y-115679000D01*
X148590000Y-125379000D02*
X148890000Y-125679000D01*
X148890000Y-125679000D02*
X148290000Y-125679000D01*
X148290000Y-125679000D02*
X148590000Y-125379000D01*
X134990000Y-127479000D02*
X134990000Y-125079000D01*
X134990000Y-122879000D02*
X134990000Y-120279000D01*
X134990000Y-118079000D02*
X134990000Y-115679000D01*
X141090000Y-122079000D02*
X141090000Y-121079000D01*
X141590000Y-121579000D02*
X140590000Y-121579000D01*
X146170000Y-129540000D02*
X146170000Y-130810000D01*
X144900000Y-129540000D02*
X146170000Y-129540000D01*
X136900000Y-131852929D02*
X136900000Y-132250000D01*
X137660000Y-131852929D02*
X137660000Y-132250000D01*
X136900000Y-140910000D02*
X136900000Y-134910000D01*
X137660000Y-140910000D02*
X136900000Y-140910000D01*
X137660000Y-134910000D02*
X137660000Y-140910000D01*
X138550000Y-132250000D02*
X138550000Y-134910000D01*
X139440000Y-131852929D02*
X139440000Y-132250000D01*
X140200000Y-131852929D02*
X140200000Y-132250000D01*
X139440000Y-140910000D02*
X139440000Y-134910000D01*
X140200000Y-140910000D02*
X139440000Y-140910000D01*
X140200000Y-134910000D02*
X140200000Y-140910000D01*
X141090000Y-132250000D02*
X141090000Y-134910000D01*
X141980000Y-131852929D02*
X141980000Y-132250000D01*
X142740000Y-131852929D02*
X142740000Y-132250000D01*
X141980000Y-140910000D02*
X141980000Y-134910000D01*
X142740000Y-140910000D02*
X141980000Y-140910000D01*
X142740000Y-134910000D02*
X142740000Y-140910000D01*
X143630000Y-132250000D02*
X143630000Y-134910000D01*
X144520000Y-131920000D02*
X144520000Y-132250000D01*
X145280000Y-131920000D02*
X145280000Y-132250000D01*
X144620000Y-134910000D02*
X144620000Y-140910000D01*
X144740000Y-134910000D02*
X144740000Y-140910000D01*
X144860000Y-134910000D02*
X144860000Y-140910000D01*
X144980000Y-134910000D02*
X144980000Y-140910000D01*
X145100000Y-134910000D02*
X145100000Y-140910000D01*
X145220000Y-134910000D02*
X145220000Y-140910000D01*
X144520000Y-140910000D02*
X144520000Y-134910000D01*
X145280000Y-140910000D02*
X144520000Y-140910000D01*
X145280000Y-134910000D02*
X145280000Y-140910000D01*
X146230000Y-134910000D02*
X146230000Y-132250000D01*
X135950000Y-134910000D02*
X146230000Y-134910000D01*
X135950000Y-132250000D02*
X135950000Y-134910000D01*
X146230000Y-132250000D02*
X135950000Y-132250000D01*
D11*
X135654571Y-116441857D02*
X135921238Y-116441857D01*
X136035523Y-116860904D02*
X135654571Y-116860904D01*
X135654571Y-116060904D01*
X136035523Y-116060904D01*
X136378380Y-116860904D02*
X136378380Y-116060904D01*
X136835523Y-116860904D01*
X136835523Y-116060904D01*
X137673619Y-116784714D02*
X137635523Y-116822809D01*
X137521238Y-116860904D01*
X137445047Y-116860904D01*
X137330761Y-116822809D01*
X137254571Y-116746619D01*
X137216476Y-116670428D01*
X137178380Y-116518047D01*
X137178380Y-116403761D01*
X137216476Y-116251380D01*
X137254571Y-116175190D01*
X137330761Y-116099000D01*
X137445047Y-116060904D01*
X137521238Y-116060904D01*
X137635523Y-116099000D01*
X137673619Y-116137095D01*
X138435523Y-116860904D02*
X137978380Y-116860904D01*
X138206952Y-116860904D02*
X138206952Y-116060904D01*
X138130761Y-116175190D01*
X138054571Y-116251380D01*
X137978380Y-116289476D01*
D12*
X146622380Y-135528333D02*
X147336666Y-135528333D01*
X147479523Y-135575952D01*
X147574761Y-135671190D01*
X147622380Y-135814047D01*
X147622380Y-135909285D01*
X147622380Y-134528333D02*
X147622380Y-135099761D01*
X147622380Y-134814047D02*
X146622380Y-134814047D01*
X146765238Y-134909285D01*
X146860476Y-135004523D01*
X146908095Y-135099761D01*
M02*
